# OBJ generated by ONSHAPE BY PTC INC, 1.214 Units = meters
mtllib basic_geo - selector_dirichlet.mtl
g selector_dirichlet
v -0.0505 -0.02 -0.0005 
v -0.0505 -0.001 -0.0005 
v 0.0005 -0.001 -0.0005 
v 0.0005 -0.02 -0.0005 
v -0.0505 -0.02 0.0005 
v 0.0005 -0.02 0.0005 
v 0.0005 0.0005 0.0005 
v -0.0505 0.0005 0.0005 
v 0.0005 0.0005 -0.0455 
v -0.0505 0.0005 -0.0455 
v -0.0505 -0.001 -0.0445 
v 0.0005 -0.001 -0.0445 
v -0.0505 -0.02 -0.0455 
v -0.0505 -0.02 -0.0445 
v 0.0005 -0.02 -0.0455 
v 0.0005 -0.02 -0.0445 
vn 0 0 -1 
vn 0 -1 0 
vn 0 0 1 
vn 0 1 0 
vn 0 -1 0 
vn -1 0 0 
vn 1 -1.85108e-16 0 
vn 0 0 1 
vn 0 -1 0 
vn 0 0 -1 
usemtl 0.764706_0.545098_0.803922_0.000000_0.000000
o mesh0
f 1//1 2//1 3//1 
f 3//1 4//1 1//1 
o mesh1
f 5//2 1//2 4//2 
f 4//2 6//2 5//2 
o mesh2
f 5//3 6//3 7//3 
f 7//3 8//3 5//3 
o mesh3
f 8//4 7//4 9//4 
f 9//4 10//4 8//4 
o mesh4
f 11//5 12//5 3//5 
f 3//5 2//5 11//5 
o mesh5
f 5//6 8//6 2//6 
f 8//6 10//6 11//6 
f 11//6 2//6 8//6 
f 13//6 14//6 11//6 
f 11//6 10//6 13//6 
f 2//6 1//6 5//6 
o mesh6
f 15//7 9//7 12//7 
f 9//7 7//7 3//7 
f 3//7 12//7 9//7 
f 6//7 4//7 3//7 
f 3//7 7//7 6//7 
f 12//7 16//7 15//7 
o mesh7
f 16//8 12//8 11//8 
f 11//8 14//8 16//8 
o mesh8
f 15//9 16//9 14//9 
f 14//9 13//9 15//9 
o mesh9
f 15//10 13//10 10//10 
f 10//10 9//10 15//10 
