# OBJ generated by ONSHAPE BY PTC INC, 1.208 Units = meters
mtllib HollowCube - part.mtl
g part
v -0.0254 0.0508 0.0254 
v -0.0254 0 0.0254 
v 0.0254 0 0.0254 
v 0.0254 0.0508 0.0254 
v 0.0254 0 -0.0254 
v 0.0254 0.0508 -0.0254 
v -0.0254 0 -0.0254 
v -0.0254 0.0508 -0.0254 
v 0.0206375 0.0460375 0.0206375 
v 0.0206375 0.0047625 0.0206375 
v -0.0206375 0.0047625 0.0206375 
v -0.0206375 0.0460375 0.0206375 
v 0.0206375 0.0460375 -0.0206375 
v 0.0206375 0.0047625 -0.0206375 
v -0.0206375 0.0460375 -0.0206375 
v -0.0206375 0.0047625 -0.0206375 
vn 6.82962e-17 0 1 
vn 1 0 6.82962e-17 
vn -1.36592e-16 0 -1 
vn -1 0 -6.82962e-17 
vn 0 1 0 
vn 0 -1 0 
vn 0 0 -1 
vn -1 0 0 
vn 1.68114e-16 0 1 
vn 1 0 0 
vn 0 -1 0 
vn 0 1 0 
usemtl 0.615686_0.811765_0.929412_0.000000_0.000000
o mesh0
f 1//1 2//1 3//1 
f 3//1 4//1 1//1 
o mesh1
f 4//2 3//2 5//2 
f 5//2 6//2 4//2 
o mesh2
f 6//3 5//3 7//3 
f 7//3 8//3 6//3 
o mesh3
f 8//4 7//4 2//4 
f 2//4 1//4 8//4 
o mesh4
f 8//5 1//5 4//5 
f 4//5 6//5 8//5 
o mesh5
f 5//6 3//6 2//6 
f 2//6 7//6 5//6 
o mesh6
f 9//7 10//7 11//7 
f 11//7 12//7 9//7 
o mesh7
f 13//8 14//8 10//8 
f 10//8 9//8 13//8 
o mesh8
f 15//9 16//9 14//9 
f 14//9 13//9 15//9 
o mesh9
f 12//10 11//10 16//10 
f 16//10 15//10 12//10 
o mesh10
f 13//11 9//11 12//11 
f 12//11 15//11 13//11 
o mesh11
f 16//12 11//12 10//12 
f 10//12 14//12 16//12 
