$MeshFormat
4.1 0 8
$EndMeshFormat
$Entities
10 15 7 1
9 0.2500000000000001 0.25 0.75 0 
10 0.2500000000000001 0.25 -0.25 0 
11 -1 -1 1 0 
12 -1 -1 -1 0 
13 -1 1 1 0 
14 -1 1 -1 0 
15 1 -1 -1 0 
16 1 -1 1 0 
17 1 1 1 0 
18 1 1 -1 0 
13 0.2499998999999999 0.2499998999999999 0.7499998999999999 0.2500001000000001 0.2500001000000001 0.7500001000000001 0 2 9 -9 
14 0.2499998999999999 0.2499998999999999 -0.2500000999999999 0.7500000999999999 0.2500001 0.7500000999999999 0 2 10 -9 
15 0.2499998999999999 0.2499998999999999 -0.2500001000000001 0.2500001000000001 0.2500001000000001 -0.2499998999999999 0 2 10 -10 
16 -1.0000001 -1.0000001 -1.0000001 -0.9999999000000001 -0.9999999000000001 1.0000001 0 2 12 -11 
17 -1.0000001 -1.0000001 0.9999999000000001 -0.9999999000000001 1.0000001 1.0000001 0 2 11 -13 
18 -1.0000001 0.9999999000000001 -1.0000001 -0.9999999000000001 1.0000001 1.0000001 0 2 14 -13 
19 -1.0000001 -1.0000001 -1.0000001 -0.9999999000000001 1.0000001 -0.9999999000000001 0 2 12 -14 
20 -1.0000001 -1.0000001 -1.0000001 1.0000001 -0.9999999000000001 -0.9999999000000001 0 2 12 -15 
21 0.9999999000000001 -1.0000001 -1.0000001 1.0000001 -0.9999999000000001 1.0000001 0 2 15 -16 
22 -1.0000001 -1.0000001 0.9999999000000001 1.0000001 -0.9999999000000001 1.0000001 0 2 11 -16 
23 -1.0000001 0.9999999000000001 0.9999999000000001 1.0000001 1.0000001 1.0000001 0 2 13 -17 
24 0.9999999000000001 -1.0000001 0.9999999000000001 1.0000001 1.0000001 1.0000001 0 2 16 -17 
25 -1.0000001 0.9999999000000001 -1.0000001 1.0000001 1.0000001 -0.9999999000000001 0 2 14 -18 
26 0.9999999000000001 0.9999999000000001 -1.0000001 1.0000001 1.0000001 1.0000001 0 2 18 -17 
27 0.9999999000000001 -1.0000001 -1.0000001 1.0000001 1.0000001 -0.9999999000000001 0 2 15 -18 
7 -0.2500000999999999 -0.2500000999999999 -0.2500000999999999 0.7500000999999999 0.7500000999999999 0.7500000999999999 0 4 -13 -14 15 14 
8 -1.0000001 -1.0000001 -1.0000001 -0.9999999000000001 1.0000001 1.0000001 0 4 -16 19 18 -17 
9 -1.0000001 -1.0000001 -1.0000001 1.0000001 -0.9999999000000001 1.0000001 0 4 -20 16 22 -21 
10 -1.0000001 -1.0000001 0.9999999000000001 1.0000001 1.0000001 1.0000001 0 4 -17 22 24 -23 
11 -1.0000001 0.9999999000000001 -1.0000001 1.0000001 1.0000001 1.0000001 0 4 -25 18 23 -26 
12 -1.0000001 -1.0000001 -1.0000001 1.0000001 1.0000001 -0.9999999000000001 0 4 -19 20 27 -25 
13 0.9999999000000001 -1.0000001 -1.0000001 1.0000001 1.0000001 1.0000001 0 4 -21 27 26 -24 
1 -1.0000001 -1.0000001 -1.0000001 1.0000001 1.0000001 1.0000001 0 7 -8 -9 10 11 -12 13 -7 
$EndEntities
$Nodes
33 354 1 354
0 9 0 1
1
0.2500000000000001 0.25 0.75
0 10 0 1
2
0.2500000000000001 0.25 -0.25
0 11 0 1
3
-1 -1 1
0 12 0 1
4
-1 -1 -1
0 13 0 1
5
-1 1 1
0 14 0 1
6
-1 1 -1
0 15 0 1
7
1 -1 -1
0 16 0 1
8
1 -1 1
0 17 0 1
9
1 1 1
0 18 0 1
10
1 1 -1
1 13 0 0
1 14 0 4
11
12
13
14
0.5438926261462365 0.2499999999999999 -0.1545084971874738
0.7255282581475768 0.2499999999999999 0.09549150281252619
0.7255282581475768 0.2499999999999999 0.4045084971874736
0.5438926261462367 0.2499999999999999 0.6545084971874736
1 15 0 0
1 16 0 5
15
16
17
18
19
-1 -1 -0.6666666666666663
-1 -1 -0.3333333333333318
-1 -1 2.664535259100376e-15
-1 -1 0.333333333333337
-1 -1 0.6666666666666687
1 17 0 5
20
21
22
23
24
-1 -0.6666666666666663 1
-1 -0.3333333333333318 1
-1 2.664535259100376e-15 1
-1 0.333333333333337 1
-1 0.6666666666666687 1
1 18 0 5
25
26
27
28
29
-1 1 -0.6666666666666663
-1 1 -0.3333333333333318
-1 1 2.664535259100376e-15
-1 1 0.333333333333337
-1 1 0.6666666666666687
1 19 0 5
30
31
32
33
34
-1 -0.6666666666666663 -1
-1 -0.3333333333333318 -1
-1 2.664535259100376e-15 -1
-1 0.333333333333337 -1
-1 0.6666666666666687 -1
1 20 0 5
35
36
37
38
39
-0.6666666666666663 -1 -1
-0.3333333333333318 -1 -1
2.664535259100376e-15 -1 -1
0.333333333333337 -1 -1
0.6666666666666687 -1 -1
1 21 0 5
40
41
42
43
44
1 -1 -0.6666666666666663
1 -1 -0.3333333333333318
1 -1 2.664535259100376e-15
1 -1 0.333333333333337
1 -1 0.6666666666666687
1 22 0 5
45
46
47
48
49
-0.6666666666666663 -1 1
-0.3333333333333318 -1 1
2.664535259100376e-15 -1 1
0.333333333333337 -1 1
0.6666666666666687 -1 1
1 23 0 5
50
51
52
53
54
-0.6666666666666663 1 1
-0.3333333333333318 1 1
2.664535259100376e-15 1 1
0.333333333333337 1 1
0.6666666666666687 1 1
1 24 0 5
55
56
57
58
59
1 -0.6666666666666663 1
1 -0.3333333333333318 1
1 2.664535259100376e-15 1
1 0.333333333333337 1
1 0.6666666666666687 1
1 25 0 5
60
61
62
63
64
-0.6666666666666663 1 -1
-0.3333333333333318 1 -1
2.664535259100376e-15 1 -1
0.333333333333337 1 -1
0.6666666666666687 1 -1
1 26 0 5
65
66
67
68
69
1 1 -0.6666666666666663
1 1 -0.3333333333333318
1 1 2.664535259100376e-15
1 1 0.333333333333337
1 1 0.6666666666666687
1 27 0 5
70
71
72
73
74
1 -0.6666666666666663 -1
1 -0.3333333333333318 -1
1 2.664535259100376e-15 -1
1 0.333333333333337 -1
1 0.6666666666666687 -1
2 7 0 35
75
76
77
78
79
80
81
82
83
84
85
86
87
88
89
90
91
92
93
94
95
96
97
98
99
100
101
102
103
104
105
106
107
108
109
0.5540511911217627 -0.01679579733254022 -0.04389262614623635
0.2889554756798555 0.3995170445724759 0.7255282581475768
0.5940954801178084 0.5128655560595359 0.5000000000000117
0.5940954801182017 0.5128655560587455 -3.017031069418863e-13
0.3000163843885058 0.6812180676579416 0.498091393276857
0.02734851813557554 0.5254384913547026 0.6029305244716321
0.04708938505994559 0.698566371794515 0.3372667888704168
-0.1746564627690313 0.4839123965609915 0.3722778776540867
-0.08839828814451045 0.5826063576294919 0.09233069593193674
-0.2299487612190924 0.3096210405972742 0.12313582805868
-0.2206760243343466 0.1799318132874203 0.4034748491695777
0.6337200385777597 0.00892122244518509 0.4612816958625586
-0.1748497494353285 0.005664994998988621 0.1509894160410398
-0.07170386953876429 -0.08986159647856173 0.4260702006667483
0.06075307979493927 -0.2029776179862616 0.1551481112660808
0.1722747064684521 0.7098424641900538 0.06971221097075428
-0.03312511450362238 0.1265978058858192 0.6432074109488741
0.211001972978457 -0.2145490084461433 0.4307577733878466
0.01286595491792394 -0.05376896278106841 -0.06857787417509992
-0.05731632664059871 0.3668429752086252 -0.1267019969744326
0.3599652980356256 -0.2294624201830371 0.1604264499968833
0.4905083193825114 0.6880714419060396 0.2657848058006171
0.6623470037718659 -0.03233472172160951 0.233967115332975
0.2624052378161704 -0.1425426948084796 -0.05944521781281592
0.4132674308593984 -0.045272708071322 0.6189956285497151
0.6934986068871283 0.4808634760927342 0.253322814402872
0.3814327780297829 0.5128655560595641 -0.1545084971874757
0.4908568442389265 -0.1656367051951021 0.3886870934075168
0.1086145343424834 -0.07398691616871189 0.6036136709069593
-0.1172788330274219 0.1325885901245819 -0.06830931441144117
0.06286970886637189 0.5425231953876064 -0.1097393977596391
-0.1511488522815387 0.3523400153217373 0.5303678290695115
0.4047384031455749 0.6845703062794722 0.05711486451226147
0.2625229381187005 -0.009153268866008035 -0.177414037271751
0.2680413890403461 0.7490353198443026 0.275263765146737
2 8 0 34
110
111
112
113
114
115
116
117
118
119
120
121
122
123
124
125
126
127
128
129
130
131
132
133
134
135
136
137
138
139
140
141
142
143
-1 -0.712897763378129 -0.1639423274624057
-1 0.1548636925209907 0.6825987323689247
-1 0.6983147047824945 -0.1630219136681057
-1 -0.1982995574397831 -0.6996617270419141
-1 -0.4693914603141982 0.6981009175197368
-1 0.5045874500044834 -0.7223240424053118
-1 0.6973838197128726 0.4752515494304894
-1 -0.7131599130402864 0.1643963839964537
-1 -0.4232177217450465 7.567608900971301e-05
-1 -0.3985189770261468 -0.381023024767055
-1 -0.1339745962155588 -0.166666666666664
-1 -0.1340692613713381 0.1666792793481711
-1 0.1487989327346089 2.102113586754939e-06
-1 0.154700538379255 -0.333333333333331
-1 0.1486656191141478 0.3272222190327074
-1 0.4548358171393028 0.1608484322600292
-1 -0.1482079679212392 0.4974405813183793
-1 -0.5044681639852082 -0.7145059021092681
-1 0.1577681778735862 -0.6633777172167961
-1 -0.4348014296058254 0.3350578005077001
-1 0.7261013160372605 -0.5057662089648844
-1 -0.7263925447995254 -0.4971695040406077
-1 -0.7265672946293857 0.4897985335269381
-1 0.4978570673664726 0.7251249151696233
-1 0.7701068683269341 0.1612822802711507
-1 0.3734372842070279 -0.1563684664514114
-1 0.3907212031707574 0.4742091696523549
-1 0.4358182452140178 -0.42403194700664
-1 -0.1666666666666645 0.7767090063074005
-1 -0.1004809471616682 -0.4419872981077786
-1 -0.7559830641437065 0.7559830641437069
-1 -0.7559830641437071 -0.7559830641437071
-1 0.7559830641437089 0.7559830641437089
-1 0.7559830641437093 -0.7559830641437089
2 9 0 34
144
145
146
147
148
149
150
151
152
153
154
155
156
157
158
159
160
161
162
163
164
165
166
167
168
169
170
171
172
173
174
175
176
177
-0.7113248654051862 -1 -0.1666666666666643
0.1548636925209899 -1 0.6825987323689255
0.6983147047824945 -1 -0.1630219136681053
-0.1955752182355242 -1 -0.7012346250148564
-0.4693914603141986 -1 0.698100917519737
0.5045874500044834 -1 -0.7223240424053115
0.6973838197128721 -1 0.4752515494304896
-0.7128977633781296 -1 0.1639423274624108
-0.4229118804725301 -1 -0.0004540565340395153
-0.3941780482385854 -1 -0.3853959380332631
-0.1339745962155588 -1 -0.1666666666666621
-0.1340182878259197 -1 0.1665909905776648
0.1488074283255119 -1 -1.261268149521655e-05
0.1547005383792557 -1 -0.3333333333333283
0.1486755306368668 -1 0.3272050517717773
0.4548371587656594 -1 0.1608461084950159
-0.1481978204098835 -1 0.4974230053131405
-0.7178887047020229 -1 -0.5024496532386453
0.1581573691884808 -1 -0.6636024169272157
-0.4346965776072509 -1 0.3348761915188938
0.7261013160372605 -1 -0.5057662089648842
-0.5029041131879175 -1 -0.7232015105015827
-0.7265236039554892 -1 0.4897228590599325
0.4978570673664722 -1 0.7251249151696235
0.7701071366522052 -1 0.1612818155181479
0.3734392516504803 -1 -0.1563718741634295
0.3907234538005722 -1 0.4742052714471663
0.4358834383404091 -1 -0.4240699649103792
-0.1666666666666645 -1 0.7767090063074014
-0.09571549627212139 -1 -0.4440851994736899
-0.7559830641437066 -1 0.7559830641437071
-0.7559830641437068 -1 -0.7559830641437068
0.7559830641437089 -1 0.7559830641437089
0.7559830641437097 -1 -0.7559830641437091
2 10 0 34
178
179
180
181
182
183
184
185
186
187
188
189
190
191
192
193
194
195
196
197
198
199
200
201
202
203
204
205
206
207
208
209
210
211
-0.1639423274624048 -0.7128977633781293 1
0.1630219136681119 0.6983147047824949 1
-0.6649706119697159 0.1596484995286909 1
0.7012346250148582 -0.1955752182355246 1
0.498587543573044 -0.7177426516480572 1
-0.7140492046094448 -0.5110102858105973 1
0.722324042405313 0.5045874500044827 1
-0.4752515494304842 0.6973838197128726 1
0.1668853137962203 -0.7126566461078225 1
0.000490497722306138 -0.4231338439229697 1
-0.3830191184719447 -0.3955609080569187 1
-0.16666666666666 -0.1339745962155587 1
0.1570796326383532 -0.1284730068920114 1
-0.001597839004711221 0.1497316418144963 1
0.3333333333333433 0.1547005383792515 1
-0.3148792693524001 0.1552165908303587 1
-0.1600651077127027 0.4553812749232757 1
0.6636024169272201 0.1581573691884786 1
-0.7006710388598139 -0.1967894958056372 1
0.3838610234422011 -0.3945308969632143 1
0.722559007613885 -0.5029287317201395 1
-0.4973527654935916 -0.7268192177585922 1
0.5057662089648884 0.7261013160372598 1
-0.721917394143337 0.4911910680774563 1
0.1562059839826575 0.3737329175797977 1
-0.1611256153616807 0.7702159598837288 1
-0.4674167865217279 0.3917642506145309 1
0.4240423165469223 0.4359323826619605 1
-0.4430425987523861 -0.09574621027655394 1
0.4419872981077837 -0.1004809471616694 1
-0.7559830641437065 0.7559830641437069 1
-0.755983064143707 -0.755983064143707 1
0.7559830641437089 0.7559830641437089 1
0.7559830641437093 -0.7559830641437089 1
2 11 0 34
212
213
214
215
216
217
218
219
220
221
222
223
224
225
226
227
228
229
230
231
232
233
234
235
236
237
238
239
240
241
242
243
244
245
-0.7128977633781293 1 -0.1639423274624048
0.6983147047824949 1 0.1630219136681119
0.1596484995286909 1 -0.6649706119697159
-0.1955752182355246 1 0.7012346250148582
-0.7177426516480572 1 0.498587543573044
-0.5110102858105973 1 -0.7140492046094448
0.5045874500044827 1 0.722324042405313
0.6973838197128726 1 -0.4752515494304842
-0.7126566461078225 1 0.1668853137962203
-0.4231338439229697 1 0.000490497722306138
-0.3955609080569187 1 -0.3830191184719447
-0.1339745962155587 1 -0.16666666666666
-0.1284730068920114 1 0.1570796326383532
0.1497316418144963 1 -0.001597839004711221
0.1547005383792515 1 0.3333333333333433
0.1552165908303587 1 -0.3148792693524001
0.4553812749232757 1 -0.1600651077127027
0.1581573691884786 1 0.6636024169272201
-0.1967894958056372 1 -0.7006710388598139
-0.3945308969632143 1 0.3838610234422011
-0.5029287317201395 1 0.722559007613885
-0.7268192177585922 1 -0.4973527654935916
0.7261013160372598 1 0.5057662089648884
0.4911910680774563 1 -0.721917394143337
0.3737329175797977 1 0.1562059839826575
0.7702159598837288 1 -0.1611256153616807
0.3917642506145309 1 -0.4674167865217279
0.4359323826619605 1 0.4240423165469223
-0.09574621027655394 1 -0.4430425987523861
-0.1004809471616694 1 0.4419872981077837
0.7559830641437069 1 -0.7559830641437065
-0.755983064143707 1 -0.755983064143707
0.7559830641437089 1 0.7559830641437089
-0.7559830641437089 1 0.7559830641437093
2 12 0 34
246
247
248
249
250
251
252
253
254
255
256
257
258
259
260
261
262
263
264
265
266
267
268
269
270
271
272
273
274
275
276
277
278
279
-0.712897763378129 -0.1639423274624057 -1
0.1548636925209907 0.6825987323689247 -1
0.6983147047824945 -0.1630219136681057 -1
-0.1982995574397831 -0.6996617270419141 -1
-0.4693914603141982 0.6981009175197368 -1
0.5045874500044834 -0.7223240424053118 -1
0.6973838197128726 0.4752515494304894 -1
-0.7131599130402864 0.1643963839964537 -1
-0.4232177217450465 7.567608900971301e-05 -1
-0.3985189770261468 -0.381023024767055 -1
-0.1339745962155588 -0.166666666666664 -1
-0.1340692613713381 0.1666792793481711 -1
0.1487989327346089 2.102113586754939e-06 -1
0.154700538379255 -0.333333333333331 -1
0.1486656191141478 0.3272222190327074 -1
0.4548358171393028 0.1608484322600292 -1
-0.1482079679212392 0.4974405813183793 -1
-0.5044681639852082 -0.7145059021092681 -1
0.1577681778735862 -0.6633777172167961 -1
-0.4348014296058254 0.3350578005077001 -1
0.7261013160372605 -0.5057662089648844 -1
-0.7263925447995254 -0.4971695040406077 -1
-0.7265672946293857 0.4897985335269381 -1
0.4978570673664726 0.7251249151696233 -1
0.7701068683269341 0.1612822802711507 -1
0.3734372842070279 -0.1563684664514114 -1
0.3907212031707574 0.4742091696523549 -1
0.4358182452140178 -0.42403194700664 -1
-0.1666666666666645 0.7767090063074005 -1
-0.1004809471616682 -0.4419872981077786 -1
-0.7559830641437065 0.7559830641437069 -1
-0.7559830641437071 -0.7559830641437071 -1
0.7559830641437089 0.7559830641437089 -1
0.7559830641437093 -0.7559830641437089 -1
2 13 0 34
280
281
282
283
284
285
286
287
288
289
290
291
292
293
294
295
296
297
298
299
300
301
302
303
304
305
306
307
308
309
310
311
312
313
1 -0.1666666666666643 -0.7113248654051862
1 0.6825987323689255 0.1548636925209899
1 -0.1630219136681053 0.6983147047824945
1 -0.7012346250148564 -0.1955752182355242
1 0.698100917519737 -0.4693914603141986
1 -0.7223240424053115 0.5045874500044834
1 0.4752515494304896 0.6973838197128721
1 0.1639423274624108 -0.7128977633781296
1 -0.0004540565340395153 -0.4229118804725301
1 -0.3853959380332631 -0.3941780482385854
1 -0.1666666666666621 -0.1339745962155588
1 0.1665909905776648 -0.1340182878259197
1 -1.261268149521655e-05 0.1488074283255119
1 -0.3333333333333283 0.1547005383792557
1 0.3272050517717773 0.1486755306368668
1 0.1608461084950159 0.4548371587656594
1 0.4974230053131405 -0.1481978204098835
1 -0.5024496532386453 -0.7178887047020229
1 -0.6636024169272157 0.1581573691884808
1 0.3348761915188938 -0.4346965776072509
1 -0.5057662089648842 0.7261013160372605
1 -0.7232015105015827 -0.5029041131879175
1 0.4897228590599325 -0.7265236039554892
1 0.7251249151696235 0.4978570673664722
1 0.1612818155181479 0.7701071366522052
1 -0.1563718741634295 0.3734392516504803
1 0.4742052714471663 0.3907234538005722
1 -0.4240699649103792 0.4358834383404091
1 0.7767090063074014 -0.1666666666666645
1 -0.4440851994736899 -0.09571549627212139
1 0.7559830641437071 -0.7559830641437066
1 -0.7559830641437068 -0.7559830641437068
1 0.7559830641437089 0.7559830641437089
1 -0.7559830641437091 0.7559830641437097
3 1 0 41
314
315
316
317
318
319
320
321
322
323
324
325
326
327
328
329
330
331
332
333
334
335
336
337
338
339
340
341
342
343
344
345
346
347
348
349
350
351
352
353
354
0.02498578710940078 -0.455162992225439 -0.456263865075715
-0.4662212930242259 -0.3222301104685772 -0.207427352534636
-0.4573367355105643 -0.4573357334009096 0.3188072244239362
0.526672533841242 -0.5268484877072133 -0.2617601657329143
-0.4750114507656264 0.1500705109152778 -0.4788266368108316
-0.5735205481241046 0.4956059919072531 0.5768643263721841
0.4427041697653809 -0.5676994375898156 0.5811959247619046
-0.5384754178238125 0.5353964225290297 -0.1831119390220432
-0.122321166777116 -0.5653317157601758 -0.04344500482259453
-0.03976156196587374 -0.00329639872617156 -0.5692224117576258
-0.5662412454370109 0.07526709011853176 -0.04213609133150237
0.4783489415284499 0.5815035468833352 -0.5802624322162359
-0.3968395269027784 -0.5808116404818084 -0.577078794179978
-0.5546571243175962 -0.08502835780749829 0.5599373743283439
-0.09179561515423323 -0.512882583839833 0.5712243150835408
-0.2296368920368355 0.5578572954329839 -0.5391590250065521
0.395653111391439 -0.2922918163038086 -0.5948388001583991
0.1704453710699657 -0.5905893178021387 0.2580773936389993
0.5860799338395241 -0.5851013265088936 0.184548359208315
0.5799597780132002 0.112130631240699 -0.575906291483956
-0.6361222134534038 -0.6361461412413051 0.6284242680941468
-0.5121546133300584 0.5613994343761514 0.2013010776859195
-0.6361591231490541 -0.6358294535091802 0.0002886652044656601
0.6326580028855551 -0.6328907318607238 -0.6317549762608928
-0.5911963397531258 0.20592166015303 0.31561602401225
-0.6211970354123997 0.6182408981527182 -0.6292217754320123
-0.6061696057375663 -0.2262288725351299 -0.5826300575334959
0.2038370552871883 -0.6750722620470757 -0.1703999295869666
-0.4224174168207863 0.2067185392975346 0.6772368754716489
0.1277477224025524 0.3895120896583048 -0.604938895897867
-0.660556645740763 -0.2510495605156912 0.09466439603013138
0.6820444348590547 0.6828422891644857 -0.3031721139958157
0.6472946539912938 -0.2992515560030025 0.6708961330466257
0.6755190154404779 -0.1911068658184226 -0.3587747693912172
-0.1975902536554595 -0.3141033393351489 -0.6879898558271531
0.2959376292962459 -0.6827444937413445 -0.5173920239528443
-0.6703920365815972 -0.6715163752533841 -0.358205784165178
-0.2627324028791487 -0.2304889461847893 0.6801701866667806
-0.1893146205516606 -0.6756549943994263 0.2796261371446419
-0.1413760771006851 -0.2949786225389064 -0.2254871101931042
-0.2883055231579683 -0.2999902998807923 0.0752203069740949
$EndNodes
$Elements
31 1839 1 1839
0 9 15 1
1 1 
0 10 15 1
2 2 
0 11 15 1
3 3 
0 12 15 1
4 4 
0 13 15 1
5 5 
0 14 15 1
6 6 
0 15 15 1
7 7 
0 16 15 1
8 8 
0 17 15 1
9 9 
0 18 15 1
10 10 
1 14 1 5
11 2 11 
12 11 12 
13 12 13 
14 13 14 
15 14 1 
1 16 1 6
16 4 15 
17 15 16 
18 16 17 
19 17 18 
20 18 19 
21 19 3 
1 17 1 6
22 3 20 
23 20 21 
24 21 22 
25 22 23 
26 23 24 
27 24 5 
1 18 1 6
28 6 25 
29 25 26 
30 26 27 
31 27 28 
32 28 29 
33 29 5 
1 19 1 6
34 4 30 
35 30 31 
36 31 32 
37 32 33 
38 33 34 
39 34 6 
1 20 1 6
40 4 35 
41 35 36 
42 36 37 
43 37 38 
44 38 39 
45 39 7 
1 21 1 6
46 7 40 
47 40 41 
48 41 42 
49 42 43 
50 43 44 
51 44 8 
1 22 1 6
52 3 45 
53 45 46 
54 46 47 
55 47 48 
56 48 49 
57 49 8 
1 23 1 6
58 5 50 
59 50 51 
60 51 52 
61 52 53 
62 53 54 
63 54 9 
1 24 1 6
64 8 55 
65 55 56 
66 56 57 
67 57 58 
68 58 59 
69 59 9 
1 25 1 6
70 6 60 
71 60 61 
72 61 62 
73 62 63 
74 63 64 
75 64 10 
1 26 1 6
76 10 65 
77 65 66 
78 66 67 
79 67 68 
80 68 69 
81 69 9 
1 27 1 6
82 7 70 
83 70 71 
84 71 72 
85 72 73 
86 73 74 
87 74 10 
2 7 2 78
88 14 76 1 
89 1 99 14 
90 76 91 1 
91 91 103 1 
92 1 103 99 
93 2 101 11 
94 11 108 2 
95 2 105 101 
96 2 108 105 
97 12 75 11 
98 11 78 12 
99 75 108 11 
100 11 101 78 
101 13 97 12 
102 12 100 13 
103 12 97 75 
104 78 100 12 
105 13 77 14 
106 14 86 13 
107 13 100 77 
108 86 97 13 
109 14 77 76 
110 14 99 86 
111 75 97 95 
112 95 98 75 
113 98 108 75 
114 77 79 76 
115 79 80 76 
116 80 91 76 
117 77 96 79 
118 77 100 96 
119 96 100 78 
120 78 107 96 
121 101 107 78 
122 79 81 80 
123 79 109 81 
124 96 109 79 
125 81 82 80 
126 82 106 80 
127 80 106 91 
128 81 83 82 
129 81 90 83 
130 81 109 90 
131 83 84 82 
132 84 85 82 
133 85 106 82 
134 83 94 84 
135 90 105 83 
136 83 105 94 
137 84 87 85 
138 84 104 87 
139 94 104 84 
140 87 88 85 
141 88 91 85 
142 91 106 85 
143 86 102 97 
144 99 102 86 
145 87 89 88 
146 87 93 89 
147 87 104 93 
148 89 92 88 
149 88 103 91 
150 92 103 88 
151 89 95 92 
152 93 98 89 
153 89 98 95 
154 101 105 90 
155 90 107 101 
156 90 109 107 
157 95 102 92 
158 92 102 99 
159 99 103 92 
160 93 108 98 
161 104 108 93 
162 94 108 104 
163 105 108 94 
164 97 102 95 
165 107 109 96 
2 8 2 90
166 19 3 140 
167 3 20 140 
168 4 15 141 
169 30 4 141 
170 24 5 142 
171 5 29 142 
172 25 6 143 
173 6 34 143 
174 15 16 131 
175 15 131 141 
176 16 17 110 
177 16 110 131 
178 17 18 117 
179 110 17 117 
180 18 19 132 
181 117 18 132 
182 132 19 140 
183 20 21 114 
184 20 114 140 
185 21 22 138 
186 114 21 138 
187 22 23 111 
188 22 111 138 
189 23 24 133 
190 111 23 133 
191 133 24 142 
192 26 25 130 
193 130 25 143 
194 27 26 112 
195 112 26 130 
196 28 27 134 
197 27 112 134 
198 29 28 116 
199 116 28 134 
200 29 116 142 
201 31 30 127 
202 127 30 141 
203 32 31 113 
204 113 31 127 
205 33 32 128 
206 32 113 128 
207 34 33 115 
208 115 33 128 
209 34 115 143 
210 110 117 118 
211 110 118 119 
212 110 119 131 
213 111 124 126 
214 124 111 136 
215 111 126 138 
216 111 133 136 
217 112 125 134 
218 125 112 135 
219 112 130 137 
220 135 112 137 
221 119 113 127 
222 113 119 139 
223 128 113 139 
224 114 126 129 
225 126 114 138 
226 114 129 132 
227 114 132 140 
228 115 128 137 
229 130 115 137 
230 115 130 143 
231 125 116 134 
232 116 125 136 
233 133 116 136 
234 116 133 142 
235 118 117 129 
236 129 117 132 
237 119 118 120 
238 120 118 121 
239 121 118 129 
240 119 120 139 
241 119 127 131 
242 120 121 122 
243 120 122 123 
244 120 123 139 
245 122 121 124 
246 124 121 126 
247 126 121 129 
248 123 122 135 
249 122 124 125 
250 122 125 135 
251 128 123 137 
252 123 128 139 
253 123 135 137 
254 125 124 136 
255 131 127 141 
2 9 2 90
256 3 19 174 
257 45 3 174 
258 15 4 175 
259 4 35 175 
260 39 7 177 
261 7 40 177 
262 44 8 176 
263 8 49 176 
264 16 15 161 
265 161 15 175 
266 17 16 144 
267 144 16 161 
268 18 17 151 
269 17 144 151 
270 19 18 166 
271 18 151 166 
272 19 166 174 
273 35 36 165 
274 35 165 175 
275 36 37 147 
276 36 147 165 
277 37 38 162 
278 147 37 162 
279 38 39 149 
280 38 149 162 
281 149 39 177 
282 40 41 164 
283 40 164 177 
284 41 42 146 
285 41 146 164 
286 42 43 168 
287 146 42 168 
288 43 44 150 
289 43 150 168 
290 150 44 176 
291 46 45 148 
292 148 45 174 
293 47 46 172 
294 46 148 172 
295 48 47 145 
296 145 47 172 
297 49 48 167 
298 48 145 167 
299 49 167 176 
300 151 144 152 
301 152 144 153 
302 153 144 161 
303 158 145 160 
304 145 158 170 
305 160 145 172 
306 167 145 170 
307 159 146 168 
308 146 159 169 
309 164 146 171 
310 146 169 171 
311 147 153 165 
312 153 147 173 
313 147 162 173 
314 160 148 163 
315 148 160 172 
316 163 148 166 
317 166 148 174 
318 162 149 171 
319 149 164 171 
320 164 149 177 
321 150 159 168 
322 159 150 170 
323 150 167 170 
324 167 150 176 
325 151 152 163 
326 151 163 166 
327 152 153 154 
328 152 154 155 
329 152 155 163 
330 154 153 173 
331 153 161 165 
332 155 154 156 
333 156 154 157 
334 157 154 173 
335 155 156 158 
336 155 158 160 
337 155 160 163 
338 156 157 169 
339 158 156 159 
340 159 156 169 
341 157 162 171 
342 162 157 173 
343 169 157 171 
344 158 159 170 
345 165 161 175 
2 10 2 90
346 3 209 20 
347 45 209 3 
348 24 208 5 
349 5 208 50 
350 8 211 49 
351 55 211 8 
352 54 210 9 
353 9 210 59 
354 20 183 21 
355 20 209 183 
356 21 196 22 
357 183 196 21 
358 22 180 23 
359 22 196 180 
360 23 201 24 
361 180 201 23 
362 201 208 24 
363 46 199 45 
364 199 209 45 
365 47 178 46 
366 178 199 46 
367 48 186 47 
368 47 186 178 
369 49 182 48 
370 182 186 48 
371 49 211 182 
372 50 185 51 
373 50 208 185 
374 51 203 52 
375 185 203 51 
376 52 179 53 
377 52 203 179 
378 53 200 54 
379 179 200 53 
380 200 210 54 
381 56 198 55 
382 198 211 55 
383 57 181 56 
384 181 198 56 
385 58 195 57 
386 57 195 181 
387 59 184 58 
388 184 195 58 
389 59 210 184 
390 186 187 178 
391 187 188 178 
392 188 199 178 
393 194 202 179 
394 179 203 194 
395 179 205 200 
396 202 205 179 
397 193 204 180 
398 180 206 193 
399 196 206 180 
400 180 204 201 
401 195 207 181 
402 197 198 181 
403 181 207 197 
404 182 197 186 
405 182 198 197 
406 182 211 198 
407 188 196 183 
408 183 199 188 
409 183 209 199 
410 184 205 195 
411 200 205 184 
412 184 210 200 
413 194 203 185 
414 185 204 194 
415 201 204 185 
416 185 208 201 
417 186 197 187 
418 187 189 188 
419 187 190 189 
420 187 197 190 
421 189 206 188 
422 188 206 196 
423 190 191 189 
424 191 193 189 
425 193 206 189 
426 190 192 191 
427 190 207 192 
428 197 207 190 
429 192 202 191 
430 191 194 193 
431 191 202 194 
432 195 205 192 
433 192 207 195 
434 192 205 202 
435 194 204 193 
2 11 2 90
436 5 245 29 
437 50 245 5 
438 25 243 6 
439 6 243 60 
440 9 244 54 
441 69 244 9 
442 64 242 10 
443 10 242 65 
444 26 233 25 
445 233 243 25 
446 27 212 26 
447 212 233 26 
448 28 220 27 
449 27 220 212 
450 29 216 28 
451 216 220 28 
452 29 245 216 
453 51 232 50 
454 232 245 50 
455 52 215 51 
456 215 232 51 
457 53 229 52 
458 52 229 215 
459 54 218 53 
460 218 229 53 
461 54 244 218 
462 60 217 61 
463 60 243 217 
464 61 230 62 
465 217 230 61 
466 62 214 63 
467 62 230 214 
468 63 235 64 
469 214 235 63 
470 235 242 64 
471 65 219 66 
472 65 242 219 
473 66 237 67 
474 219 237 66 
475 67 213 68 
476 67 237 213 
477 68 234 69 
478 213 234 68 
479 234 244 69 
480 220 221 212 
481 221 222 212 
482 222 233 212 
483 228 236 213 
484 213 237 228 
485 213 239 234 
486 236 239 213 
487 227 238 214 
488 214 240 227 
489 230 240 214 
490 214 238 235 
491 229 241 215 
492 231 232 215 
493 215 241 231 
494 216 231 220 
495 216 232 231 
496 216 245 232 
497 222 230 217 
498 217 233 222 
499 217 243 233 
500 218 239 229 
501 234 239 218 
502 218 244 234 
503 228 237 219 
504 219 238 228 
505 235 238 219 
506 219 242 235 
507 220 231 221 
508 221 223 222 
509 221 224 223 
510 221 231 224 
511 223 240 222 
512 222 240 230 
513 224 225 223 
514 225 227 223 
515 227 240 223 
516 224 226 225 
517 224 241 226 
518 231 241 224 
519 226 236 225 
520 225 228 227 
521 225 236 228 
522 229 239 226 
523 226 241 229 
524 226 239 236 
525 228 238 227 
2 12 2 90
526 4 30 277 
527 35 4 277 
528 34 6 276 
529 6 60 276 
530 7 39 279 
531 70 7 279 
532 64 10 278 
533 10 74 278 
534 30 31 267 
535 30 267 277 
536 31 32 246 
537 31 246 267 
538 32 33 253 
539 246 32 253 
540 33 34 268 
541 253 33 268 
542 268 34 276 
543 36 35 263 
544 263 35 277 
545 37 36 249 
546 249 36 263 
547 38 37 264 
548 37 249 264 
549 39 38 251 
550 251 38 264 
551 39 251 279 
552 60 61 250 
553 60 250 276 
554 61 62 274 
555 250 61 274 
556 62 63 247 
557 62 247 274 
558 63 64 269 
559 247 63 269 
560 269 64 278 
561 71 70 266 
562 266 70 279 
563 72 71 248 
564 248 71 266 
565 73 72 270 
566 72 248 270 
567 74 73 252 
568 252 73 270 
569 74 252 278 
570 246 253 254 
571 246 254 255 
572 246 255 267 
573 247 260 262 
574 260 247 272 
575 247 262 274 
576 247 269 272 
577 248 261 270 
578 261 248 271 
579 248 266 273 
580 271 248 273 
581 255 249 263 
582 249 255 275 
583 264 249 275 
584 250 262 265 
585 262 250 274 
586 250 265 268 
587 250 268 276 
588 251 264 273 
589 266 251 273 
590 251 266 279 
591 261 252 270 
592 252 261 272 
593 269 252 272 
594 252 269 278 
595 254 253 265 
596 265 253 268 
597 255 254 256 
598 256 254 257 
599 257 254 265 
600 255 256 275 
601 255 263 267 
602 256 257 258 
603 256 258 259 
604 256 259 275 
605 258 257 260 
606 260 257 262 
607 262 257 265 
608 259 258 271 
609 258 260 261 
610 258 261 271 
611 264 259 273 
612 259 264 275 
613 259 271 273 
614 261 260 272 
615 267 263 277 
2 13 2 90
616 7 311 40 
617 70 311 7 
618 44 313 8 
619 8 313 55 
620 59 312 9 
621 9 312 69 
622 65 310 10 
623 10 310 74 
624 40 301 41 
625 40 311 301 
626 41 283 42 
627 41 301 283 
628 42 298 43 
629 283 298 42 
630 43 285 44 
631 43 298 285 
632 285 313 44 
633 55 300 56 
634 55 313 300 
635 56 282 57 
636 56 300 282 
637 57 304 58 
638 282 304 57 
639 58 286 59 
640 58 304 286 
641 286 312 59 
642 66 284 65 
643 284 310 65 
644 67 308 66 
645 66 308 284 
646 68 281 67 
647 281 308 67 
648 69 303 68 
649 68 303 281 
650 69 312 303 
651 71 297 70 
652 297 311 70 
653 72 280 71 
654 280 297 71 
655 73 287 72 
656 72 287 280 
657 74 302 73 
658 73 302 287 
659 74 310 302 
660 287 288 280 
661 288 289 280 
662 289 297 280 
663 294 296 281 
664 281 306 294 
665 296 308 281 
666 303 306 281 
667 295 304 282 
668 282 305 295 
669 300 307 282 
670 282 307 305 
671 283 301 289 
672 289 309 283 
673 283 309 298 
674 296 299 284 
675 284 308 296 
676 299 302 284 
677 302 310 284 
678 298 307 285 
679 285 307 300 
680 300 313 285 
681 286 304 295 
682 295 306 286 
683 286 306 303 
684 303 312 286 
685 287 299 288 
686 287 302 299 
687 288 290 289 
688 288 291 290 
689 288 299 291 
690 290 309 289 
691 289 301 297 
692 291 292 290 
693 292 293 290 
694 293 309 290 
695 291 294 292 
696 291 296 294 
697 291 299 296 
698 292 305 293 
699 294 295 292 
700 295 305 292 
701 293 307 298 
702 298 309 293 
703 305 307 293 
704 294 306 295 
705 301 311 297 
3 1 4 1134
706 106 80 82 319 
707 173 322 314 326 
708 92 320 187 328 
709 309 293 75 332 
710 309 75 317 332 
711 215 80 203 319 
712 105 2 108 94 
713 82 80 215 319 
714 132 166 117 334 
715 151 117 166 334 
716 82 215 231 319 
717 215 203 185 319 
718 187 92 197 320 
719 194 80 106 319 
720 227 240 214 343 
721 151 117 334 336 
722 147 264 249 314 
723 139 324 120 340 
724 147 162 264 314 
725 153 154 173 322 
726 153 322 173 326 
727 290 309 293 75 
728 227 329 240 343 
729 264 314 162 349 
730 309 317 75 347 
731 153 322 326 350 
732 120 324 315 340 
733 147 314 249 326 
734 277 141 175 326 
735 123 321 135 324 
736 315 326 322 350 
737 175 326 141 350 
738 141 326 127 350 
739 314 322 173 341 
740 268 115 253 339 
741 87 327 344 354 
742 139 318 123 324 
743 151 334 316 336 
744 316 334 117 336 
745 194 203 80 319 
746 139 123 120 324 
747 214 325 227 343 
748 87 327 338 344 
749 194 185 203 319 
750 129 316 327 334 
751 87 88 327 354 
752 139 318 324 340 
753 314 317 98 341 
754 97 75 293 332 
755 151 163 316 334 
756 117 316 129 334 
757 173 314 147 326 
758 313 211 300 320 
759 98 317 314 330 
760 309 75 290 347 
761 313 285 176 320 
762 151 166 163 334 
763 132 117 129 334 
764 253 128 318 339 
765 123 318 321 324 
766 173 162 147 314 
767 313 176 211 320 
768 187 103 92 328 
769 240 329 214 343 
770 145 328 320 331 
771 305 102 97 293 
772 83 221 223 321 
773 249 326 314 348 
774 275 249 264 314 
775 305 307 102 293 
776 315 322 336 350 
777 211 198 300 320 
778 238 227 214 325 
779 318 315 340 353 
780 258 330 271 333 
781 314 341 98 353 
782 318 340 348 353 
783 148 334 328 352 
784 154 173 322 341 
785 275 249 314 348 
786 103 197 187 92 
787 280 266 297 337 
788 129 327 126 334 
789 293 307 102 332 
790 285 313 300 320 
791 125 135 321 324 
792 162 314 173 349 
793 82 83 224 81 
794 98 89 322 341 
795 98 331 89 341 
796 125 324 335 338 
797 314 326 322 353 
798 316 327 88 354 
799 98 341 322 353 
800 259 330 314 349 
801 137 135 123 321 
802 257 265 318 329 
803 232 231 215 319 
804 215 185 232 319 
805 128 253 115 339 
806 145 320 170 331 
807 125 324 321 335 
808 87 338 324 344 
809 238 101 227 325 
810 194 319 106 342 
811 259 314 264 349 
812 129 327 316 344 
813 186 320 145 328 
814 148 178 328 334 
815 82 241 231 215 
816 253 318 265 339 
817 258 323 333 343 
818 231 83 82 335 
819 323 330 258 333 
820 82 319 231 335 
821 95 317 75 332 
822 114 327 196 334 
823 125 122 135 324 
824 102 97 293 332 
825 285 320 300 346 
826 148 178 172 328 
827 127 326 267 340 
828 214 274 247 329 
829 126 327 114 334 
830 322 326 315 353 
831 253 265 268 339 
832 129 316 117 336 
833 137 123 318 321 
834 299 325 333 345 
835 151 316 163 336 
836 148 199 178 334 
837 319 111 338 342 
838 307 102 332 346 
839 224 83 82 231 
840 263 277 175 326 
841 121 338 327 344 
842 160 148 328 352 
843 89 328 88 354 
844 285 320 307 332 
845 89 98 322 353 
846 275 264 259 314 
847 153 152 154 322 
848 187 320 186 328 
849 98 95 89 331 
850 330 337 280 347 
851 257 318 323 329 
852 111 133 201 319 
853 138 196 114 327 
854 222 223 321 329 
855 150 176 285 320 
856 258 333 261 343 
857 285 307 320 346 
858 326 340 127 350 
859 198 300 320 346 
860 259 314 330 348 
861 214 329 247 343 
862 104 315 318 353 
863 175 165 263 326 
864 299 333 11 345 
865 87 88 85 327 
866 214 230 274 329 
867 11 333 325 345 
868 253 318 128 340 
869 299 325 302 333 
870 87 327 85 338 
871 89 331 322 341 
872 318 348 323 353 
873 130 233 321 339 
874 129 126 114 334 
875 316 344 327 354 
876 98 95 331 341 
877 248 280 330 337 
878 280 248 266 337 
879 204 319 194 342 
880 263 267 277 326 
881 327 338 111 342 
882 157 314 173 341 
883 96 281 303 100 
884 136 335 319 338 
885 95 75 97 332 
886 163 334 148 352 
887 104 318 315 324 
888 280 337 297 347 
889 136 319 111 338 
890 216 319 116 335 
891 315 324 318 340 
892 182 211 167 320 
893 89 352 328 354 
894 180 111 319 342 
895 317 169 332 341 
896 126 327 129 344 
897 301 164 317 337 
898 14 304 195 86 
899 145 170 158 331 
900 176 167 211 320 
901 272 333 325 343 
902 122 324 125 338 
903 173 314 157 349 
904 221 321 83 335 
905 231 82 224 81 
906 307 332 320 346 
907 231 224 83 335 
908 320 332 102 346 
909 201 180 111 319 
910 302 325 252 333 
911 275 314 259 348 
912 160 148 172 328 
913 150 320 285 332 
914 157 314 341 349 
915 137 318 128 339 
916 145 158 328 331 
917 121 126 327 338 
918 315 324 120 344 
919 98 317 95 341 
920 116 319 136 335 
921 216 245 142 319 
922 301 164 283 317 
923 278 302 310 325 
924 257 329 323 343 
925 88 328 316 354 
926 175 165 326 350 
927 302 325 299 345 
928 170 331 320 332 
929 248 330 266 337 
930 188 328 334 351 
931 102 307 305 346 
932 261 258 271 333 
933 107 237 78 345 
934 137 321 318 339 
935 130 233 112 321 
936 118 315 120 344 
937 281 237 308 78 
938 120 315 119 340 
939 88 327 316 351 
940 183 114 196 334 
941 208 142 245 319 
942 82 241 215 80 
943 183 196 188 334 
944 214 247 325 343 
945 244 210 200 77 
946 195 304 282 86 
947 103 99 197 92 
948 186 187 197 320 
949 328 334 316 352 
950 231 319 216 335 
951 121 124 126 338 
952 208 245 232 319 
953 200 218 244 77 
954 316 327 334 351 
955 280 333 330 347 
956 80 82 241 81 
957 95 317 332 341 
958 87 344 324 354 
959 254 257 265 318 
960 126 121 327 344 
961 231 241 82 81 
962 104 84 321 324 
963 290 293 97 75 
964 175 161 165 350 
965 285 300 307 346 
966 185 194 204 319 
967 120 119 139 340 
968 257 262 265 329 
969 253 254 318 340 
970 99 86 195 346 
971 235 247 269 325 
972 92 95 102 320 
973 224 221 83 335 
974 259 330 323 348 
975 95 332 331 341 
976 244 312 210 77 
977 278 310 242 325 
978 261 333 272 343 
979 253 128 246 340 
980 328 331 158 352 
981 146 317 169 332 
982 254 318 340 348 
983 121 324 122 338 
984 104 321 318 324 
985 98 317 330 347 
986 160 163 148 352 
987 120 118 119 315 
988 284 302 299 345 
989 309 317 283 332 
990 178 145 172 328 
991 316 334 328 351 
992 121 324 338 344 
993 271 258 259 330 
994 195 99 14 86 
995 138 114 126 327 
996 101 325 238 345 
997 258 323 259 330 
998 83 223 105 321 
999 100 96 281 78 
1000 237 308 78 345 
1001 287 299 302 333 
1002 85 106 82 319 
1003 102 305 86 346 
1004 138 111 180 327 
1005 112 134 125 335 
1006 115 137 128 339 
1007 141 127 131 350 
1008 252 325 272 333 
1009 186 182 167 320 
1010 180 327 111 342 
1011 123 128 137 318 
1012 262 247 274 329 
1013 262 329 257 343 
1014 213 107 237 78 
1015 201 319 204 342 
1016 320 328 92 331 
1017 321 324 84 335 
1018 190 103 197 187 
1019 160 145 158 328 
1020 212 112 233 321 
1021 89 331 328 352 
1022 2 333 323 343 
1023 223 221 222 321 
1024 163 316 334 352 
1025 128 123 139 318 
1026 146 283 317 332 
1027 75 95 98 317 
1028 248 330 280 333 
1029 323 330 314 348 
1030 257 318 254 323 
1031 315 353 104 354 
1032 283 164 146 317 
1033 235 214 247 325 
1034 167 145 186 320 
1035 318 329 265 339 
1036 211 182 198 320 
1037 104 318 323 353 
1038 161 175 141 350 
1039 216 232 245 319 
1040 278 252 302 325 
1041 231 232 216 319 
1042 116 216 142 319 
1043 95 102 320 332 
1044 219 242 310 325 
1045 328 352 316 354 
1046 125 335 136 338 
1047 123 135 122 324 
1048 258 261 260 343 
1049 156 322 155 331 
1050 289 297 337 347 
1051 104 324 315 354 
1052 138 180 196 327 
1053 105 227 325 343 
1054 160 328 158 352 
1055 128 318 139 340 
1056 124 121 122 338 
1057 130 321 137 339 
1058 254 323 318 348 
1059 208 201 133 319 
1060 161 141 131 350 
1061 92 320 102 346 
1062 101 105 227 325 
1063 89 322 352 354 
1064 84 335 324 338 
1065 224 241 231 81 
1066 170 320 150 332 
1067 155 331 322 352 
1068 208 133 142 319 
1069 312 184 210 77 
1070 96 303 77 100 
1071 238 227 101 228 
1072 159 332 169 341 
1073 112 125 321 335 
1074 222 240 223 329 
1075 312 244 234 77 
1076 163 336 316 352 
1077 237 281 213 78 
1078 118 336 315 344 
1079 111 136 133 319 
1080 222 321 233 339 
1081 88 316 328 351 
1082 125 116 136 335 
1083 213 303 234 96 
1084 208 232 185 319 
1085 221 212 321 335 
1086 312 234 303 77 
1087 262 247 329 343 
1088 322 336 152 352 
1089 316 336 129 344 
1090 92 95 320 331 
1091 167 176 150 320 
1092 85 319 82 338 
1093 240 230 214 329 
1094 178 186 145 328 
1095 89 92 88 328 
1096 254 265 253 318 
1097 84 83 321 335 
1098 89 322 331 352 
1099 168 285 298 332 
1100 162 149 251 349 
1101 105 329 227 343 
1102 196 327 206 351 
1103 261 252 272 333 
1104 159 331 332 341 
1105 210 184 200 77 
1106 101 238 228 345 
1107 106 319 85 342 
1108 77 200 218 79 
1109 154 157 173 341 
1110 87 324 104 354 
1111 213 281 303 96 
1112 246 128 113 340 
1113 253 246 254 340 
1114 92 328 89 331 
1115 322 336 316 354 
1116 102 95 97 332 
1117 105 321 223 329 
1118 299 291 11 288 
1119 105 325 101 343 
1120 181 99 195 346 
1121 221 220 212 335 
1122 270 280 287 333 
1123 180 201 204 342 
1124 168 150 285 332 
1125 75 317 98 347 
1126 235 269 242 325 
1127 322 331 156 341 
1128 89 93 98 353 
1129 316 336 322 352 
1130 119 340 315 350 
1131 273 251 337 349 
1132 171 317 164 337 
1133 119 127 340 350 
1134 234 244 218 77 
1135 278 242 269 325 
1136 256 259 258 323 
1137 159 331 170 332 
1138 90 107 101 228 
1139 222 212 233 321 
1140 120 123 122 324 
1141 184 14 304 195 
1142 289 280 297 347 
1143 130 112 137 321 
1144 266 330 273 337 
1145 305 97 102 86 
1146 227 105 240 329 
1147 95 320 331 332 
1148 223 83 224 221 
1149 291 75 11 347 
1150 267 326 255 340 
1151 136 111 124 338 
1152 180 319 201 342 
1153 301 317 289 337 
1154 172 145 160 328 
1155 256 259 323 348 
1156 264 162 251 349 
1157 231 221 224 335 
1158 288 291 11 347 
1159 299 288 11 333 
1160 286 14 304 184 
1161 166 18 132 117 
1162 314 317 341 349 
1163 167 170 145 320 
1164 273 264 251 349 
1165 77 234 303 96 
1166 179 218 200 79 
1167 107 228 237 345 
1168 190 103 99 197 
1169 18 166 151 117 
1170 156 331 159 341 
1171 250 230 217 329 
1172 314 330 317 349 
1173 250 329 217 339 
1174 309 283 298 332 
1175 99 92 102 346 
1176 134 116 125 335 
1177 11 296 299 345 
1178 85 82 84 338 
1179 159 146 169 332 
1180 121 120 324 344 
1181 272 325 247 343 
1182 122 121 120 324 
1183 304 14 13 86 
1184 84 324 87 338 
1185 274 230 250 329 
1186 273 337 330 349 
1187 319 335 82 338 
1188 149 251 38 162 
1189 196 206 188 351 
1190 273 266 248 330 
1191 163 152 336 352 
1192 315 336 322 354 
1193 314 322 341 353 
1194 283 289 301 317 
1195 222 329 321 339 
1196 257 258 260 323 
1197 314 348 326 353 
1198 286 184 312 77 
1199 271 330 248 333 
1200 260 261 272 343 
1201 249 147 37 264 
1202 291 290 75 347 
1203 80 215 203 229 
1204 11 333 288 347 
1205 125 135 112 321 
1206 264 147 37 162 
1207 146 164 171 317 
1208 165 249 263 326 
1209 94 323 318 329 
1210 231 216 220 335 
1211 325 333 2 343 
1212 111 23 201 133 
1213 63 235 247 269 
1214 85 342 327 351 
1215 104 323 93 353 
1216 115 33 268 253 
1217 254 256 323 348 
1218 85 327 88 351 
1219 11 2 325 333 
1220 213 96 107 78 
1221 265 329 250 339 
1222 155 156 154 322 
1223 316 352 322 354 
1224 257 254 256 323 
1225 103 328 187 351 
1226 85 319 338 342 
1227 82 335 84 338 
1228 247 272 269 325 
1229 184 205 200 77 
1230 127 267 113 340 
1231 179 229 218 79 
1232 96 213 281 78 
1233 258 260 323 343 
1234 251 264 38 162 
1235 257 323 260 343 
1236 97 292 293 290 
1237 321 329 318 339 
1238 85 84 87 338 
1239 152 155 322 352 
1240 147 249 165 326 
1241 248 280 270 333 
1242 154 152 155 322 
1243 323 329 94 343 
1244 154 322 156 341 
1245 318 321 94 329 
1246 289 337 317 347 
1247 227 90 101 228 
1248 104 353 93 354 
1249 169 317 171 341 
1250 255 267 263 326 
1251 214 235 238 325 
1252 179 80 203 229 
1253 63 235 214 247 
1254 201 180 23 111 
1255 126 129 121 344 
1256 158 156 155 331 
1257 149 337 251 349 
1258 304 13 14 286 
1259 87 104 93 354 
1260 250 265 262 329 
1261 103 187 189 351 
1262 71 297 280 266 
1263 287 302 73 270 
1264 193 206 342 351 
1265 218 234 77 239 
1266 128 246 32 253 
1267 292 291 290 75 
1268 104 94 318 321 
1269 205 184 14 77 
1270 138 126 111 327 
1271 190 99 207 197 
1272 67 281 237 308 
1273 98 314 108 330 
1274 11 78 296 345 
1275 113 128 139 340 
1276 222 217 329 339 
1277 101 11 325 345 
1278 296 291 11 299 
1279 289 283 309 317 
1280 103 190 189 187 
1281 261 270 252 333 
1282 33 115 128 253 
1283 208 185 201 319 
1284 228 213 107 237 
1285 317 337 171 349 
1286 146 171 169 317 
1287 159 158 170 331 
1288 206 327 180 342 
1289 167 150 170 320 
1290 116 142 133 319 
1291 224 83 223 90 
1292 151 17 117 336 
1293 104 84 94 321 
1294 267 246 113 340 
1295 77 76 200 79 
1296 101 11 2 325 
1297 317 171 341 349 
1298 254 340 255 348 
1299 182 186 197 320 
1300 315 340 326 350 
1301 156 159 169 341 
1302 239 77 218 79 
1303 233 26 130 112 
1304 298 285 307 332 
1305 99 207 181 195 
1306 240 105 223 329 
1307 111 180 22 138 
1308 62 214 274 247 
1309 289 317 309 347 
1310 184 286 14 77 
1311 118 129 336 344 
1312 122 125 124 338 
1313 298 42 168 283 
1314 229 80 241 81 
1315 197 198 182 320 
1316 230 222 217 329 
1317 198 320 197 346 
1318 112 135 137 321 
1319 234 68 303 213 
1320 262 257 260 343 
1321 91 194 106 342 
1322 274 250 262 329 
1323 134 220 28 216 
1324 179 218 53 200 
1325 206 327 342 351 
1326 97 292 290 75 
1327 170 150 159 332 
1328 108 330 323 333 
1329 110 118 336 350 
1330 291 292 12 75 
1331 153 326 165 350 
1332 94 104 318 323 
1333 239 234 77 96 
1334 219 235 242 325 
1335 153 173 147 326 
1336 180 206 196 327 
1337 186 182 48 167 
1338 293 309 298 332 
1339 291 288 290 347 
1340 161 153 165 350 
1341 91 193 342 351 
1342 296 294 100 78 
1343 155 158 331 352 
1344 116 134 28 216 
1345 222 221 212 321 
1346 308 296 281 78 
1347 278 269 252 325 
1348 296 100 281 78 
1349 108 314 98 353 
1350 152 144 336 350 
1351 246 32 113 128 
1352 110 119 118 350 
1353 281 303 68 213 
1354 168 146 159 332 
1355 193 189 206 351 
1356 94 84 83 321 
1357 80 241 215 229 
1358 283 301 41 164 
1359 270 72 287 280 
1360 118 129 117 336 
1361 146 168 42 283 
1362 263 165 36 249 
1363 2 108 323 333 
1364 151 163 152 336 
1365 261 271 248 333 
1366 101 325 2 343 
1367 145 186 48 167 
1368 162 173 157 349 
1369 138 180 22 196 
1370 214 274 230 62 
1371 317 337 330 347 
1372 152 153 144 350 
1373 200 205 76 77 
1374 200 76 179 79 
1375 119 131 127 350 
1376 187 328 188 351 
1377 91 189 193 351 
1378 78 308 296 345 
1379 315 324 344 354 
1380 218 229 179 53 
1381 280 248 71 266 
1382 255 340 326 348 
1383 127 31 113 267 
1384 73 302 252 270 
1385 91 342 85 351 
1386 215 52 203 229 
1387 112 233 26 212 
1388 99 207 197 346 
1389 89 353 322 354 
1390 294 12 100 78 
1391 314 323 108 330 
1392 86 13 304 295 
1393 272 247 260 343 
1394 159 156 158 331 
1395 294 100 281 296 
1396 110 117 17 336 
1397 228 107 101 345 
1398 304 58 184 195 
1399 298 168 43 285 
1400 125 136 124 338 
1401 188 187 178 328 
1402 239 77 79 96 
1403 240 223 105 227 
1404 108 323 314 353 
1405 144 17 151 336 
1406 165 147 36 249 
1407 179 203 52 229 
1408 227 225 90 228 
1409 255 326 249 348 
1410 11 12 291 296 
1411 267 255 246 340 
1412 303 286 312 77 
1413 237 213 281 67 
1414 293 298 307 332 
1415 204 201 185 319 
1416 90 223 224 225 
1417 163 166 148 334 
1418 132 129 114 334 
1419 100 281 303 306 
1420 231 220 221 335 
1421 99 181 207 346 
1422 31 113 267 246 
1423 315 344 336 354 
1424 296 11 12 78 
1425 2 323 94 343 
1426 87 89 88 354 
1427 136 116 133 319 
1428 336 344 316 354 
1429 174 166 132 334 
1430 282 86 305 346 
1431 178 187 186 328 
1432 91 85 88 351 
1433 41 146 283 164 
1434 150 43 168 285 
1435 304 58 286 184 
1436 83 105 94 321 
1437 262 260 247 343 
1438 230 274 250 61 
1439 196 21 138 114 
1440 203 51 215 185 
1441 85 338 327 342 
1442 288 333 280 347 
1443 271 273 248 330 
1444 323 348 314 353 
1445 199 183 188 334 
1446 246 255 254 340 
1447 287 280 288 333 
1448 249 255 263 326 
1449 275 255 249 348 
1450 13 14 286 77 
1451 98 330 108 347 
1452 114 196 21 183 
1453 250 230 61 217 
1454 140 174 132 334 
1455 258 257 256 323 
1456 84 82 83 335 
1457 91 193 194 342 
1458 303 77 100 306 
1459 168 159 150 332 
1460 89 93 353 354 
1461 119 127 113 340 
1462 153 147 165 326 
1463 86 304 282 295 
1464 14 76 205 77 
1465 72 270 248 280 
1466 229 179 80 79 
1467 198 56 300 346 
1468 270 261 248 333 
1469 51 232 215 185 
1470 88 92 103 328 
1471 240 222 230 329 
1472 238 235 219 325 
1473 268 265 250 339 
1474 287 288 299 333 
1475 238 325 219 345 
1476 207 99 190 192 
1477 99 1 190 192 
1478 297 301 289 337 
1479 222 233 217 339 
1480 243 130 143 339 
1481 276 115 268 339 
1482 291 12 11 75 
1483 144 110 17 336 
1484 194 191 91 202 
1485 243 233 130 339 
1486 174 209 199 334 
1487 94 321 105 329 
1488 272 252 269 325 
1489 103 88 328 351 
1490 209 140 183 334 
1491 297 266 311 337 
1492 108 93 323 353 
1493 279 311 266 337 
1494 243 276 217 339 
1495 164 311 177 337 
1496 108 98 93 353 
1497 177 279 149 337 
1498 115 276 143 339 
1499 157 154 156 341 
1500 292 97 12 75 
1501 229 80 81 79 
1502 87 84 104 324 
1503 12 294 296 78 
1504 106 194 91 80 
1505 149 279 251 337 
1506 164 301 311 337 
1507 174 199 148 334 
1508 114 183 140 334 
1509 204 194 193 342 
1510 330 337 317 349 
1511 275 259 256 348 
1512 169 171 157 341 
1513 107 78 101 345 
1514 273 271 259 330 
1515 250 217 276 339 
1516 254 255 256 348 
1517 132 174 19 166 
1518 202 91 194 80 
1519 157 341 171 349 
1520 163 155 152 352 
1521 103 1 190 99 
1522 198 181 56 346 
1523 243 143 276 339 
1524 16 161 131 350 
1525 289 309 290 347 
1526 56 282 300 346 
1527 224 83 90 81 
1528 140 174 19 132 
1529 90 101 105 227 
1530 191 1 190 103 
1531 107 236 213 228 
1532 330 333 108 347 
1533 86 282 305 295 
1534 91 191 194 193 
1535 322 353 315 354 
1536 286 304 13 295 
1537 171 337 149 349 
1538 92 89 95 331 
1539 219 242 65 310 
1540 282 305 307 346 
1541 119 113 139 340 
1542 174 140 209 334 
1543 311 279 177 337 
1544 80 203 194 179 
1545 226 229 241 81 
1546 235 64 242 269 
1547 201 24 208 133 
1548 296 284 299 345 
1549 89 87 93 354 
1550 195 184 14 205 
1551 155 160 158 352 
1552 292 305 97 293 
1553 77 286 13 306 
1554 193 91 191 189 
1555 189 91 103 351 
1556 251 266 273 337 
1557 101 78 11 345 
1558 49 167 182 211 
1559 268 34 115 276 
1560 310 278 74 302 
1561 66 308 237 345 
1562 171 164 149 337 
1563 144 161 16 350 
1564 91 191 1 202 
1565 77 303 286 306 
1566 110 16 131 350 
1567 49 176 167 211 
1568 64 278 242 269 
1569 24 142 208 133 
1570 130 137 115 339 
1571 12 13 292 294 
1572 193 206 180 342 
1573 141 277 30 267 
1574 236 213 96 107 
1575 1 191 190 192 
1576 127 141 30 267 
1577 90 226 224 81 
1578 29 216 245 142 
1579 81 226 229 79 
1580 65 284 219 310 
1581 181 282 56 346 
1582 70 311 297 266 
1583 177 39 149 279 
1584 276 34 115 143 
1585 234 69 312 303 
1586 110 144 16 350 
1587 313 300 211 55 
1588 210 200 54 244 
1589 244 69 312 234 
1590 130 143 25 243 
1591 40 177 164 311 
1592 311 70 279 266 
1593 14 1 99 192 
1594 11 75 108 347 
1595 76 80 179 79 
1596 243 25 130 233 
1597 39 251 149 279 
1598 200 218 54 244 
1599 105 101 2 343 
1600 194 202 80 179 
1601 118 120 121 344 
1602 164 301 40 311 
1603 12 13 97 292 
1604 300 211 55 198 
1605 189 187 188 351 
1606 121 129 118 344 
1607 66 284 308 345 
1608 11 108 333 347 
1609 243 276 60 217 
1610 209 20 183 140 
1611 209 45 174 199 
1612 179 205 76 200 
1613 252 74 278 302 
1614 285 313 176 44 
1615 210 59 184 312 
1616 238 219 228 345 
1617 110 336 144 350 
1618 37 38 264 162 
1619 50 208 245 232 
1620 86 305 97 295 
1621 192 195 14 205 
1622 90 83 223 105 
1623 276 250 60 217 
1624 20 114 183 140 
1625 239 213 234 96 
1626 66 237 219 345 
1627 216 29 116 142 
1628 224 226 90 225 
1629 289 288 280 347 
1630 148 174 45 199 
1631 307 300 282 346 
1632 81 90 226 109 
1633 17 18 151 117 
1634 100 77 13 306 
1635 207 181 197 346 
1636 66 219 284 345 
1637 63 214 62 247 
1638 180 22 23 111 
1639 114 140 132 334 
1640 166 174 148 334 
1641 295 292 13 294 
1642 268 250 276 339 
1643 295 13 286 306 
1644 1 191 91 103 
1645 306 100 281 294 
1646 217 233 243 339 
1647 130 115 143 339 
1648 117 110 118 336 
1649 131 119 110 350 
1650 150 285 176 44 
1651 59 286 184 312 
1652 97 305 292 295 
1653 153 161 144 350 
1654 198 197 181 346 
1655 226 81 109 79 
1656 50 208 232 185 
1657 144 151 152 336 
1658 12 294 291 296 
1659 183 199 209 334 
1660 13 100 306 294 
1661 292 13 97 295 
1662 193 180 204 342 
1663 239 218 229 79 
1664 279 266 251 337 
1665 75 98 108 347 
1666 109 226 236 225 
1667 162 171 149 349 
1668 177 149 164 337 
1669 32 33 128 253 
1670 297 311 301 337 
1671 97 13 86 295 
1672 192 14 1 205 
1673 163 160 155 352 
1674 132 19 18 166 
1675 156 169 157 341 
1676 11 108 2 333 
1677 109 90 226 225 
1678 202 76 80 179 
1679 226 241 224 81 
1680 127 30 31 267 
1681 131 16 15 161 
1682 237 228 219 345 
1683 60 250 61 217 
1684 21 20 114 183 
1685 36 35 165 263 
1686 68 281 213 67 
1687 288 289 290 347 
1688 147 37 36 249 
1689 174 3 209 140 
1690 312 210 9 244 
1691 8 313 176 211 
1692 141 4 277 175 
1693 310 242 10 278 
1694 143 276 6 243 
1695 142 245 5 208 
1696 311 7 177 279 
1697 157 171 162 349 
1698 94 329 105 343 
1699 91 106 85 342 
1700 297 71 70 266 
1701 308 284 296 345 
1702 239 226 109 79 
1703 52 179 229 53 
1704 219 66 284 65 
1705 48 47 186 145 
1706 28 29 116 216 
1707 252 74 302 73 
1708 96 109 236 107 
1709 226 239 229 79 
1710 46 148 45 199 
1711 100 13 12 294 
1712 109 90 236 107 
1713 206 189 188 351 
1714 236 90 109 225 
1715 182 48 167 49 
1716 56 300 55 198 
1717 40 41 301 164 
1718 102 86 99 346 
1719 239 236 213 96 
1720 25 26 130 233 
1721 232 51 50 185 
1722 294 292 12 291 
1723 110 17 16 144 
1724 113 31 32 246 
1725 201 23 24 133 
1726 235 63 64 269 
1727 69 234 68 303 
1728 42 146 283 41 
1729 282 181 56 57 
1730 33 34 115 268 
1731 287 73 72 270 
1732 236 239 109 96 
1733 88 103 91 351 
1734 72 248 71 280 
1735 168 42 298 43 
1736 58 304 57 195 
1737 26 27 112 212 
1738 54 53 218 200 
1739 251 38 39 149 
1740 79 109 239 96 
1741 256 255 275 348 
1742 285 150 43 44 
1743 58 286 184 59 
1744 174 19 3 140 
1745 49 8 176 211 
1746 69 312 9 244 
1747 210 54 9 244 
1748 278 242 10 64 
1749 5 24 142 208 
1750 276 6 34 143 
1751 15 4 141 175 
1752 4 35 277 175 
1753 277 30 4 141 
1754 7 311 70 279 
1755 143 6 25 243 
1756 177 40 7 311 
1757 211 8 313 55 
1758 7 39 177 279 
1759 306 295 13 294 
1760 94 105 2 343 
1761 51 215 52 203 
1762 61 230 274 62 
1763 22 21 138 196 
1764 28 27 220 134 
1765 10 310 278 74 
1766 9 59 210 312 
1767 176 313 8 44 
1768 208 245 5 50 
1769 245 5 29 142 
1770 3 20 209 140 
1771 276 60 6 243 
1772 3 209 45 174 
1773 65 242 10 310 
1774 76 1 14 205 
1775 205 76 202 179 
1776 47 172 46 178 
1777 236 239 226 109 
1778 192 1 191 202 
1779 237 67 308 66 
1780 202 192 1 205 
1781 76 202 1 205 
1782 353 340 326 315 
1783 353 326 340 348 
1784 334 178 188 199 
1785 334 188 178 328 
1786 195 346 282 181 
1787 282 346 195 86 
1788 335 220 112 134 
1789 349 259 273 264 
1790 349 273 259 330 
1791 220 112 27 212 
1792 27 112 220 134 
1793 350 152 322 336 
1794 350 322 152 153 
1795 219 345 310 284 
1796 219 310 345 325 
1797 302 310 345 284 
1798 302 345 310 325 
1799 338 126 111 124 
1800 338 111 126 327 
1801 350 118 315 119 
1802 350 315 118 336 
1803 270 302 333 287 
1804 270 333 302 252 
1805 263 175 35 165 
1806 263 35 175 277 
1807 335 212 112 220 
1808 335 112 212 321 
1809 178 145 47 172 
1810 47 145 178 186 
1811 351 196 334 188 
1812 351 334 196 327 
1813 283 168 332 146 
1814 283 332 168 298 
1815 282 195 57 304 
1816 57 195 282 181 
1817 346 92 197 99 
1818 346 197 92 320 
1819 178 148 46 199 
1820 178 46 148 172 
1821 134 216 335 220 
1822 335 216 134 116 
1823 141 267 326 277 
1824 326 267 141 127 
1825 161 141 15 131 
1826 161 15 141 175 
1827 99 195 192 207 
1828 192 195 99 14 
1829 90 228 236 107 
1830 236 228 90 225 
1831 90 227 223 225 
1832 223 227 90 105 
1833 103 191 189 190 
1834 103 189 191 91 
1835 108 104 323 93 
1836 91 76 202 1 
1837 91 202 76 80 
1838 108 94 323 104 
1839 323 94 108 2 
$EndElements
