$MeshFormat
4.1 0 8
$EndMeshFormat
$Entities
10 15 8 1
9 1 1.224646799147353e-16 0.5 0 
10 -0.5 1.224646799147353e-16 0.5 0 
11 -1 -1 1 0 
12 -1 -1 -1 0 
13 -1 1 1 0 
14 -1 1 -1 0 
15 1 -1 -1 0 
16 1 -1 1 0 
17 1 1 1 0 
18 1 1 -1 0 
13 0.9999999000000001 -0.5000000999999999 -0.5000000999999999 1.0000001 0.5000000999999999 0.5000000999999999 0 2 9 -9 
14 -0.5000001000000001 -9.999999987753531e-08 0.4999999 1.0000001 1.000000001224647e-07 0.5000000999999999 0 2 10 -9 
15 -0.5000000999999999 -0.5000000999999999 -0.5000000999999999 -0.4999999 0.5000000999999999 0.5000000999999999 0 2 10 -10 
16 -1.0000001 -1.0000001 -1.0000001 -0.9999999000000001 -0.9999999000000001 1.0000001 0 2 12 -11 
17 -1.0000001 -1.0000001 0.9999999000000001 -0.9999999000000001 1.0000001 1.0000001 0 2 11 -13 
18 -1.0000001 0.9999999000000001 -1.0000001 -0.9999999000000001 1.0000001 1.0000001 0 2 14 -13 
19 -1.0000001 -1.0000001 -1.0000001 -0.9999999000000001 1.0000001 -0.9999999000000001 0 2 12 -14 
20 -1.0000001 -1.0000001 -1.0000001 1.0000001 -0.9999999000000001 -0.9999999000000001 0 2 12 -15 
21 0.9999999000000001 -1.0000001 -1.0000001 1.0000001 -0.9999999000000001 1.0000001 0 2 15 -16 
22 -1.0000001 -1.0000001 0.9999999000000001 1.0000001 -0.9999999000000001 1.0000001 0 2 11 -16 
23 -1.0000001 0.9999999000000001 0.9999999000000001 1.0000001 1.0000001 1.0000001 0 2 13 -17 
24 0.9999999000000001 -1.0000001 0.9999999000000001 1.0000001 1.0000001 1.0000001 0 2 16 -17 
25 -1.0000001 0.9999999000000001 -1.0000001 1.0000001 1.0000001 -0.9999999000000001 0 2 14 -18 
26 0.9999999000000001 0.9999999000000001 -1.0000001 1.0000001 1.0000001 1.0000001 0 2 18 -17 
27 0.9999999000000001 -1.0000001 -1.0000001 1.0000001 1.0000001 -0.9999999000000001 0 2 15 -18 
7 -0.5000001000000001 -0.5000000999999999 -0.5000000999999999 1.0000001 0.5000000999999999 0.5000000999999999 0 4 -13 -14 15 14 
9 -0.5000000999999999 -0.5000000999999999 -0.5000000999999999 -0.4999999 0.5000000999999999 0.5000000999999999 0 1 15 
10 -1.0000001 -1.0000001 -1.0000001 -0.9999999000000001 1.0000001 1.0000001 0 4 -16 19 18 -17 
11 -1.0000001 -1.0000001 -1.0000001 1.0000001 -0.9999999000000001 1.0000001 0 4 -20 16 22 -21 
12 -1.0000001 -1.0000001 0.9999999000000001 1.0000001 1.0000001 1.0000001 0 4 -17 22 24 -23 
13 -1.0000001 0.9999999000000001 -1.0000001 1.0000001 1.0000001 1.0000001 0 4 -25 18 23 -26 
14 -1.0000001 -1.0000001 -1.0000001 1.0000001 1.0000001 -0.9999999000000001 0 4 -19 20 27 -25 
15 0.9999999000000001 -1.0000001 -1.0000001 1.0000001 1.0000001 1.0000001 0 5 -21 27 26 -24 -13 
1 -1.0000001 -1.0000001 -1.0000001 1.0000001 1.0000001 1.0000001 0 8 -10 -11 12 13 -14 15 -7 9 
$EndEntities
$Nodes
34 367 1 367
0 9 0 1
1
1 1.224646799147353e-16 0.5
0 10 0 1
2
-0.5 1.224646799147353e-16 0.5
0 11 0 1
3
-1 -1 1
0 12 0 1
4
-1 -1 -1
0 13 0 1
5
-1 1 1
0 14 0 1
6
-1 1 -1
0 15 0 1
7
1 -1 -1
0 16 0 1
8
1 -1 1
0 17 0 1
9
1 1 1
0 18 0 1
10
1 1 -1
1 13 0 9
11
12
13
14
15
16
17
18
19
1 -0.2938926261462366 0.4045084971874737
1 -0.4755282581475768 0.1545084971874737
1 -0.4755282581475768 -0.1545084971874738
1 -0.2938926261462366 -0.4045084971874737
1 -6.123233995736766e-17 -0.5
1 0.2938926261462367 -0.4045084971874736
1 0.4755282581475768 -0.1545084971874738
1 0.4755282581475768 0.1545084971874736
1 0.2938926261462367 0.4045084971874737
1 14 0 4
20
21
22
23
-0.2000000000000008 1.224646799147353e-16 0.5
0.09999999999999809 1.224646799147353e-16 0.5
0.3999999999999982 1.224646799147353e-16 0.5
0.6999999999999991 1.224646799147353e-16 0.5
1 15 0 9
24
25
26
27
28
29
30
31
32
-0.5 -0.2938926261462366 0.4045084971874737
-0.5 -0.4755282581475768 0.1545084971874737
-0.5 -0.4755282581475768 -0.1545084971874738
-0.5 -0.2938926261462366 -0.4045084971874737
-0.5 -6.123233995736766e-17 -0.5
-0.5 0.2938926261462367 -0.4045084971874736
-0.5 0.4755282581475768 -0.1545084971874738
-0.5 0.4755282581475768 0.1545084971874736
-0.5 0.2938926261462367 0.4045084971874737
1 16 0 5
33
34
35
36
37
-1 -1 -0.6666666666666663
-1 -1 -0.3333333333333318
-1 -1 2.664535259100376e-15
-1 -1 0.333333333333337
-1 -1 0.6666666666666687
1 17 0 5
38
39
40
41
42
-1 -0.6666666666666663 1
-1 -0.3333333333333318 1
-1 2.664535259100376e-15 1
-1 0.333333333333337 1
-1 0.6666666666666687 1
1 18 0 5
43
44
45
46
47
-1 1 -0.6666666666666663
-1 1 -0.3333333333333318
-1 1 2.664535259100376e-15
-1 1 0.333333333333337
-1 1 0.6666666666666687
1 19 0 5
48
49
50
51
52
-1 -0.6666666666666663 -1
-1 -0.3333333333333318 -1
-1 2.664535259100376e-15 -1
-1 0.333333333333337 -1
-1 0.6666666666666687 -1
1 20 0 5
53
54
55
56
57
-0.6666666666666663 -1 -1
-0.3333333333333318 -1 -1
2.664535259100376e-15 -1 -1
0.333333333333337 -1 -1
0.6666666666666687 -1 -1
1 21 0 5
58
59
60
61
62
1 -1 -0.6666666666666663
1 -1 -0.3333333333333318
1 -1 2.664535259100376e-15
1 -1 0.333333333333337
1 -1 0.6666666666666687
1 22 0 5
63
64
65
66
67
-0.6666666666666663 -1 1
-0.3333333333333318 -1 1
2.664535259100376e-15 -1 1
0.333333333333337 -1 1
0.6666666666666687 -1 1
1 23 0 5
68
69
70
71
72
-0.6666666666666663 1 1
-0.3333333333333318 1 1
2.664535259100376e-15 1 1
0.333333333333337 1 1
0.6666666666666687 1 1
1 24 0 5
73
74
75
76
77
1 -0.6666666666666663 1
1 -0.3333333333333318 1
1 2.664535259100376e-15 1
1 0.333333333333337 1
1 0.6666666666666687 1
1 25 0 5
78
79
80
81
82
-0.6666666666666663 1 -1
-0.3333333333333318 1 -1
2.664535259100376e-15 1 -1
0.333333333333337 1 -1
0.6666666666666687 1 -1
1 26 0 5
83
84
85
86
87
1 1 -0.6666666666666663
1 1 -0.3333333333333318
1 1 2.664535259100376e-15
1 1 0.333333333333337
1 1 0.6666666666666687
1 27 0 5
88
89
90
91
92
1 -0.6666666666666663 -1
1 -0.3333333333333318 -1
1 2.664535259100376e-15 -1
1 0.333333333333337 -1
1 0.6666666666666687 -1
2 7 0 48
93
94
95
96
97
98
99
100
101
102
103
104
105
106
107
108
109
110
111
112
113
114
115
116
117
118
119
120
121
122
123
124
125
126
127
128
129
130
131
132
133
134
135
136
137
138
139
140
0.2499999999999982 -0.2508859302547289 0.4325000000002536
0.2483550789640367 0.2503119461306036 0.4328324498282329
0.7141885922224078 0.4108369044786068 -0.2849790131192754
-0.2141862644862483 -0.4108358722701315 -0.284980501185678
-0.2361883823634747 0.1473525242527969 -0.4777941330702261
0.7361623902841159 -0.1473361778829624 -0.4777991740123042
0.7202789296182033 -0.499131529062105 0.0294570313528878
-0.2202764486205463 0.4991312681882699 0.02946145136902409
-0.2228901282396805 -0.4166331635457454 0.2764359004070639
0.7228901282360389 0.4166331635488426 0.2764359004023959
0.5493574141413105 -0.2505535661558427 0.4326926281860944
0.4445261330943768 -0.4481726251206993 0.221678366315753
0.09563387499767362 -0.4353216857522241 0.2459573741806531
0.2378904573373555 -0.499535410448663 -0.02154933195915468
-0.04919260434825345 -0.4999146048694778 -0.009240553998212558
0.09214973941292726 -0.4233000290791433 -0.2661147973743596
0.3867768698766626 -0.4176816065571756 -0.2748491869076872
0.2466531730518731 -0.2394239304578885 -0.438948950931764
-0.03985688540199106 0.2409642273811258 0.4381052854310447
0.05649469854480194 0.4478635092602627 0.2223022201263013
0.4043661249906653 0.4353216857629036 0.2459573741617514
0.2623319948899785 0.4995373090425781 -0.02150527550392705
0.5492449369435513 0.4999147998276838 -0.009230000717597442
0.4078502605542603 0.4233000290664524 -0.2661147973945466
0.1132494159465884 0.4177159867109451 -0.2747969331089805
0.2533600072086702 0.2394863947132185 -0.4389148741467581
0.6803615471880462 -0.411966612338574 -0.2833434494006859
-0.1803627496572291 0.4119841110798035 -0.2833180054599144
-0.2361886282070638 -0.1499295723166031 -0.4769917434767194
0.03299066018065311 -2.733874408176943e-12 -0.5
0.7361935187348656 0.1499333941970181 -0.4769905421542041
0.4670093398187791 6.049014748177263e-16 -0.5
-0.2404003951472752 0.3999368883381426 0.3000841304474531
0.7421839183872416 -0.4010033430150434 0.2986575277650966
-0.03972097993990176 -0.2455598286851095 0.4355460601774968
0.5397209799395029 0.2455598286851992 0.4355460601774462
0.0003131321160710909 0.2525643073932928 -0.4315220395657055
0.4996489845873364 -0.25245138710931 -0.431588110525053
0.5050452173557194 0.2571687399771986 -0.428793935566421
-0.005029091558241827 -0.2571525352450803 -0.4288036539221975
0.01409572646477075 0.4963309076853027 -0.06046180675669156
0.4861203162275559 -0.4963133251776302 -0.06060596712473076
0.8094193687951841 0.5 -9.184850993605148e-17
-0.3094193688088001 -0.5 -8.040613248383182e-17
0.7766214087564622 0.2201517974787406 0.4489244770191079
-0.2766214087563975 -0.2201517974782824 0.4489244770193326
-0.2843484949207524 0.2114164411672819 0.4531038384345925
0.781686894406934 -0.2155894701834595 0.4511332179589697
2 9 0 5
141
142
143
144
145
-0.5 -0.1540529825849731 -0.1318862023679408
-0.5 0.1501771536247105 0.0882897275062893
-0.5 -0.206507453418025 0.1260160044919251
-0.5 0.1440887109269161 -0.2053112532022898
-0.5 -0.008301148736016686 0.2699631600882244
2 10 0 34
146
147
148
149
150
151
152
153
154
155
156
157
158
159
160
161
162
163
164
165
166
167
168
169
170
171
172
173
174
175
176
177
178
179
-1 -0.1596484995286875 -0.6649706119697165
-1 0.1955752182355281 0.7012346250148589
-1 -0.6983147047824951 0.1630219136681117
-1 0.712897763378129 -0.163942327462405
-1 0.5110102858106 -0.7140492046094453
-1 -0.6973838197128722 -0.4752515494304843
-1 0.717742651648057 0.498587543573044
-1 -0.5045874500044794 0.7223240424053112
-1 0.7126566461078223 0.1668853137962203
-1 0.4231338439229697 0.0004904977223059159
-1 0.39556090805692 -0.3830191184719456
-1 0.133974596215559 -0.1666666666666612
-1 0.128473006892011 0.1570796326383528
-1 -0.1497316418144966 -0.001597839004712664
-1 -0.1547005383792524 0.3333333333333417
-1 -0.1552165908303578 -0.3148792693524011
-1 -0.4553812749232755 -0.1600651077127039
-1 0.1967894958056402 -0.7006710388598145
-1 -0.1581573691884766 0.6636024169272197
-1 0.3945308969632151 0.3838610234422015
-1 0.7268192177585926 -0.4973527654935919
-1 -0.4911910680774532 -0.7219173941433363
-1 0.5029287317201416 0.7225590076138855
-1 -0.7261013160372591 0.505766208964888
-1 -0.3737329175797981 0.1562059839826557
-1 -0.7702159598837286 -0.1611256153616812
-1 -0.3917642506145292 -0.4674167865217285
-1 -0.4359323826619603 0.4240423165469211
-1 0.09574621027655494 -0.4430425987523879
-1 0.100480947161669 0.4419872981077844
-1 -0.7559830641437065 0.7559830641437069
-1 -0.755983064143707 -0.755983064143707
-1 0.7559830641437089 0.7559830641437089
-1 0.7559830641437093 -0.7559830641437089
2 11 0 34
180
181
182
183
184
185
186
187
188
189
190
191
192
193
194
195
196
197
198
199
200
201
202
203
204
205
206
207
208
209
210
211
212
213
-0.7113248654051862 -1 -0.1666666666666643
0.1548636925209899 -1 0.6825987323689255
0.6983147047824945 -1 -0.1630219136681053
-0.1955752182355242 -1 -0.7012346250148564
-0.4693914603141986 -1 0.698100917519737
0.5045874500044834 -1 -0.7223240424053115
0.6973838197128721 -1 0.4752515494304896
-0.7128977633781296 -1 0.1639423274624108
-0.4229118804725301 -1 -0.0004540565340395153
-0.3941780482385854 -1 -0.3853959380332631
-0.1339745962155588 -1 -0.1666666666666621
-0.1340182878259197 -1 0.1665909905776648
0.1488074283255119 -1 -1.261268149521655e-05
0.1547005383792557 -1 -0.3333333333333283
0.1486755306368668 -1 0.3272050517717773
0.4548371587656594 -1 0.1608461084950159
-0.1481978204098835 -1 0.4974230053131405
-0.7178887047020229 -1 -0.5024496532386453
0.1581573691884808 -1 -0.6636024169272157
-0.4346965776072509 -1 0.3348761915188938
0.7261013160372605 -1 -0.5057662089648842
-0.5029041131879175 -1 -0.7232015105015827
-0.7265236039554892 -1 0.4897228590599325
0.4978570673664722 -1 0.7251249151696235
0.7701071366522052 -1 0.1612818155181479
0.3734392516504803 -1 -0.1563718741634295
0.3907234538005722 -1 0.4742052714471663
0.4358834383404091 -1 -0.4240699649103792
-0.1666666666666645 -1 0.7767090063074014
-0.09571549627212139 -1 -0.4440851994736899
-0.7559830641437066 -1 0.7559830641437071
-0.7559830641437068 -1 -0.7559830641437068
0.7559830641437089 -1 0.7559830641437089
0.7559830641437097 -1 -0.7559830641437091
2 12 0 34
214
215
216
217
218
219
220
221
222
223
224
225
226
227
228
229
230
231
232
233
234
235
236
237
238
239
240
241
242
243
244
245
246
247
-0.1616318122691032 -0.6634725688401021 1
-0.1548636925209876 0.6825987323689253 1
0.712897763378129 -0.1639423274624048 1
-0.6983147047824946 -0.1630219136681053 1
0.7187678985282742 0.4871082884683997 1
-0.697383819712872 0.4752515494304892 1
0.5110102858106 -0.7140492046094454 1
0.7128275205878585 0.1649721046121129 1
0.4231623230029755 0.0001716295249545308 1
0.3955649764969209 -0.3830646710715672 1
0.1339745962155592 -0.1666666666666619 1
0.1340600282476605 0.1666952715874976 1
-0.1488004715885548 4.767486810219879e-06 1
-0.154700538379255 -0.3333333333333282 1
-0.1486674144437508 0.3272253286348001 1
-0.4548360601555956 0.1608488531765992 1
0.1404158415950569 0.4922047231497726 1
0.4253138904620331 0.3296364473349014 1
0.4581639087708211 0.6916630756291691 1
-0.5041593161271364 -0.7182549695681428 1
0.196459621755571 -0.7004289571048158 1
0.7268197020966882 -0.4973581884221183 1
-0.4978570673664702 0.7251249151696229 1
-0.7260503477185283 -0.5052817955318876 1
-0.7701069169301924 0.1612823644544645 1
-0.3734376405810756 -0.1563678491934514 1
-0.3907216108399353 0.4742098757560873 1
-0.4363823933095989 -0.4232887383558364 1
0.1609234072630861 0.7749663021860607 1
0.095652860323443 -0.4439151253921183 1
-0.7559830641437071 -0.7559830641437071 1
0.7559830641437091 0.7559830641437091 1
-0.7559830641437086 0.7559830641437091 1
0.7559830641437093 -0.7559830641437089 1
2 13 0 34
248
249
250
251
252
253
254
255
256
257
258
259
260
261
262
263
264
265
266
267
268
269
270
271
272
273
274
275
276
277
278
279
280
281
-0.7128977633781293 1 -0.1639423274624048
0.6983147047824949 1 0.1630219136681119
0.1596484995286909 1 -0.6649706119697159
-0.1955752182355246 1 0.7012346250148582
-0.7177426516480572 1 0.498587543573044
-0.5110102858105973 1 -0.7140492046094448
0.5045874500044827 1 0.722324042405313
0.6973838197128726 1 -0.4752515494304842
-0.7126566461078225 1 0.1668853137962203
-0.4231338439229697 1 0.000490497722306138
-0.3955609080569187 1 -0.3830191184719447
-0.1339745962155587 1 -0.16666666666666
-0.1284730068920114 1 0.1570796326383532
0.1497316418144963 1 -0.001597839004711221
0.1547005383792515 1 0.3333333333333433
0.1552165908303587 1 -0.3148792693524001
0.4553812749232757 1 -0.1600651077127027
0.1581573691884786 1 0.6636024169272201
-0.1967894958056372 1 -0.7006710388598139
-0.3945308969632143 1 0.3838610234422011
-0.5029287317201395 1 0.722559007613885
-0.7268192177585922 1 -0.4973527654935916
0.7261013160372598 1 0.5057662089648884
0.4911910680774563 1 -0.721917394143337
0.3737329175797977 1 0.1562059839826575
0.7702159598837288 1 -0.1611256153616807
0.3917642506145309 1 -0.4674167865217279
0.4359323826619605 1 0.4240423165469223
-0.09574621027655394 1 -0.4430425987523861
-0.1004809471616694 1 0.4419872981077837
0.7559830641437069 1 -0.7559830641437065
-0.755983064143707 1 -0.755983064143707
0.7559830641437089 1 0.7559830641437089
-0.7559830641437089 1 0.7559830641437093
2 14 0 34
282
283
284
285
286
287
288
289
290
291
292
293
294
295
296
297
298
299
300
301
302
303
304
305
306
307
308
309
310
311
312
313
314
315
-0.712897763378129 -0.1639423274624057 -1
0.1548636925209907 0.6825987323689247 -1
0.6983147047824945 -0.1630219136681057 -1
-0.1982995574397831 -0.6996617270419141 -1
-0.4693914603141982 0.6981009175197368 -1
0.5045874500044834 -0.7223240424053118 -1
0.6973838197128726 0.4752515494304894 -1
-0.7131599130402864 0.1643963839964537 -1
-0.4232177217450465 7.567608900971301e-05 -1
-0.3985189770261468 -0.381023024767055 -1
-0.1339745962155588 -0.166666666666664 -1
-0.1340692613713381 0.1666792793481711 -1
0.1487989327346089 2.102113586754939e-06 -1
0.154700538379255 -0.333333333333331 -1
0.1486656191141478 0.3272222190327074 -1
0.4548358171393028 0.1608484322600292 -1
-0.1482079679212392 0.4974405813183793 -1
-0.5044681639852082 -0.7145059021092681 -1
0.1577681778735862 -0.6633777172167961 -1
-0.4348014296058254 0.3350578005077001 -1
0.7261013160372605 -0.5057662089648844 -1
-0.7263925447995254 -0.4971695040406077 -1
-0.7265672946293857 0.4897985335269381 -1
0.4978570673664726 0.7251249151696233 -1
0.7701068683269341 0.1612822802711507 -1
0.3734372842070279 -0.1563684664514114 -1
0.3907212031707574 0.4742091696523549 -1
0.4358182452140178 -0.42403194700664 -1
-0.1666666666666645 0.7767090063074005 -1
-0.1004809471616682 -0.4419872981077786 -1
-0.7559830641437065 0.7559830641437069 -1
-0.7559830641437071 -0.7559830641437071 -1
0.7559830641437089 0.7559830641437089 -1
0.7559830641437093 -0.7559830641437089 -1
2 15 0 26
316
317
318
319
320
321
322
323
324
325
326
327
328
329
330
331
332
333
334
335
336
337
338
339
340
341
1 0.5821740701087237 -0.4510436476448427
1 -0.5821740701087239 -0.4510436476448427
1 -0.5821740701087241 0.4510436476448429
1 0.5821740701087239 0.4510436476448429
1 0.4191021347934931 0.6913671995171444
1 -0.4589166795677188 0.7251012900894254
1 0.4191021347934931 -0.6913671995171444
1 -0.4589166795677188 -0.7251012900894251
1 -0.6960340506534087 6.661338147750939e-16
1 0.6960340506534088 6.661338147750939e-16
1 0.7107667144846892 0.7076060652577967
1 -0.710766714484689 0.7076060652577971
1 0.710766714484689 -0.7076060652577971
1 -0.7107667144846892 -0.7076060652577965
1 -0.1643638957287652 -0.7299349645461497
1 0.1469940330907171 -0.7209684435417947
1 -0.1643638957287654 0.7299349645461497
1 0.1469940330907171 0.7209684435417945
1 -0.7638223662506856 0.2401705490257871
1 0.7638223662506856 0.2401705490257868
1 0.7638223662506851 -0.2401705490257852
1 -0.7638223662506852 -0.2401705490257851
1 0.8245525696289764 0.4963137417482859
1 -0.8245525696289764 0.4963137417482859
1 0.8245525696289755 -0.4963137417482855
1 -0.8245525696289755 -0.496313741748285
3 1 0 26
342
343
344
345
346
347
348
349
350
351
352
353
354
355
356
357
358
359
360
361
362
363
364
365
366
367
0.375470072338187 0.6224189715350085 -0.6204545505901956
-0.02845859714257582 0.622124465741436 -0.5941500253690006
-0.05059070184447784 -0.6255429065252633 -0.5826022851032557
0.4099438375814388 -0.6039494657607557 0.6088310289095248
0.489290185263282 -0.6124904440826771 -0.6124904440826768
-0.06249367127453734 0.6202687705058069 0.6016221774370131
0.6035022628834936 0.6085420912542696 0.6222897389206283
-0.6178688901248582 -0.6250033908415613 0.61669325475809
-0.004752849381926105 -0.6245138559468464 0.6017318297783041
-0.6244341165931176 -0.6190381484358052 -0.6202232390837297
-0.6207601206178546 0.6207601206178547 0.6205714798372955
-0.6151540623362219 0.6151540623362228 -0.6282695033486548
0.2405643125339678 -0.6867210855907091 -0.4045963836515166
0.2665457607682111 0.6843380611620382 0.4678877769847814
-0.31564689086634 0.4299978589346436 -0.6785850086058088
-0.3096839999098759 -0.4772383949208228 0.680708158375621
-0.02177923200812463 -0.1442306783900783 0.7381159621191595
0.5478166646077187 0.7234300359614885 -0.3448452078164428
0.5499999999999986 0.1467476380235195 0.7328100633777467
0.3858276709857305 0.3178905700365634 -0.7201387548923457
0.2099679079737183 -0.4506745198629585 -0.6934971744268932
-0.3396681871248668 0.4530972291968605 0.6731435394956511
-0.3190416078828739 -0.4257835664872063 -0.6671395565090459
0.6749827026512542 -0.423272646046271 0.6833502228814438
0.6979798455542762 0.5509167604142367 -0.5857220542813276
-0.637828105067849 0.2943192000403936 0.7158562186487567
$EndNodes
$Elements
34 1913 1 1913
0 9 15 1
1 1 
0 10 15 1
2 2 
0 11 15 1
3 3 
0 12 15 1
4 4 
0 13 15 1
5 5 
0 14 15 1
6 6 
0 15 15 1
7 7 
0 16 15 1
8 8 
0 17 15 1
9 9 
0 18 15 1
10 10 
1 13 1 10
11 1 11 
12 11 12 
13 12 13 
14 13 14 
15 14 15 
16 15 16 
17 16 17 
18 17 18 
19 18 19 
20 19 1 
1 14 1 5
21 2 20 
22 20 21 
23 21 22 
24 22 23 
25 23 1 
1 15 1 10
26 2 24 
27 24 25 
28 25 26 
29 26 27 
30 27 28 
31 28 29 
32 29 30 
33 30 31 
34 31 32 
35 32 2 
1 16 1 6
36 4 33 
37 33 34 
38 34 35 
39 35 36 
40 36 37 
41 37 3 
1 17 1 6
42 3 38 
43 38 39 
44 39 40 
45 40 41 
46 41 42 
47 42 5 
1 18 1 6
48 6 43 
49 43 44 
50 44 45 
51 45 46 
52 46 47 
53 47 5 
1 19 1 6
54 4 48 
55 48 49 
56 49 50 
57 50 51 
58 51 52 
59 52 6 
1 20 1 6
60 4 53 
61 53 54 
62 54 55 
63 55 56 
64 56 57 
65 57 7 
1 21 1 6
66 7 58 
67 58 59 
68 59 60 
69 60 61 
70 61 62 
71 62 8 
1 22 1 6
72 3 63 
73 63 64 
74 64 65 
75 65 66 
76 66 67 
77 67 8 
1 23 1 6
78 5 68 
79 68 69 
80 69 70 
81 70 71 
82 71 72 
83 72 9 
1 24 1 6
84 8 73 
85 73 74 
86 74 75 
87 75 76 
88 76 77 
89 77 9 
1 25 1 6
90 6 78 
91 78 79 
92 79 80 
93 80 81 
94 81 82 
95 82 10 
1 26 1 6
96 10 83 
97 83 84 
98 84 85 
99 85 86 
100 86 87 
101 87 9 
1 27 1 6
102 7 88 
103 88 89 
104 89 90 
105 90 91 
106 91 92 
107 92 10 
2 7 2 124
108 1 140 11 
109 19 137 1 
110 1 137 23 
111 23 140 1 
112 2 138 20 
113 20 139 2 
114 24 138 2 
115 2 139 32 
116 11 126 12 
117 11 140 126 
118 12 99 13 
119 12 126 99 
120 13 119 14 
121 99 119 13 
122 14 98 15 
123 14 119 98 
124 15 123 16 
125 98 123 15 
126 16 95 17 
127 16 123 95 
128 17 135 18 
129 95 135 17 
130 18 102 19 
131 18 135 102 
132 102 137 19 
133 21 111 20 
134 20 127 21 
135 111 139 20 
136 20 138 127 
137 21 93 22 
138 22 94 21 
139 21 127 93 
140 94 111 21 
141 22 103 23 
142 23 128 22 
143 93 103 22 
144 22 128 94 
145 103 140 23 
146 23 137 128 
147 25 101 24 
148 101 138 24 
149 26 136 25 
150 25 136 101 
151 27 96 26 
152 96 136 26 
153 28 121 27 
154 27 121 96 
155 29 97 28 
156 97 121 28 
157 30 120 29 
158 29 120 97 
159 31 100 30 
160 100 120 30 
161 32 125 31 
162 31 125 100 
163 32 139 125 
164 93 104 103 
165 93 105 104 
166 93 127 105 
167 94 112 111 
168 94 113 112 
169 94 128 113 
170 95 116 115 
171 115 135 95 
172 95 131 116 
173 123 131 95 
174 96 108 107 
175 107 136 96 
176 96 132 108 
177 121 132 96 
178 120 129 97 
179 97 122 121 
180 97 129 122 
181 119 130 98 
182 98 124 123 
183 98 130 124 
184 99 126 104 
185 104 134 99 
186 99 134 119 
187 100 125 112 
188 112 133 100 
189 100 133 120 
190 101 107 105 
191 105 127 101 
192 101 136 107 
193 127 138 101 
194 102 115 113 
195 113 128 102 
196 102 135 115 
197 128 137 102 
198 104 126 103 
199 126 140 103 
200 105 106 104 
201 106 134 104 
202 105 107 106 
203 107 108 106 
204 108 109 106 
205 109 134 106 
206 108 110 109 
207 108 132 110 
208 110 130 109 
209 109 130 119 
210 119 134 109 
211 122 124 110 
212 110 132 122 
213 124 130 110 
214 112 125 111 
215 125 139 111 
216 113 114 112 
217 114 133 112 
218 113 115 114 
219 115 116 114 
220 116 117 114 
221 117 133 114 
222 116 118 117 
223 116 131 118 
224 118 129 117 
225 117 129 120 
226 120 133 117 
227 118 124 122 
228 122 129 118 
229 118 131 124 
230 122 132 121 
231 124 131 123 
2 9 2 18
232 24 2 145 
233 2 32 145 
234 25 24 143 
235 143 24 145 
236 26 25 143 
237 27 26 141 
238 141 26 143 
239 28 27 141 
240 29 28 144 
241 28 141 144 
242 30 29 144 
243 31 30 142 
244 142 30 144 
245 32 31 142 
246 32 142 145 
247 142 141 143 
248 141 142 144 
249 142 143 145 
2 10 2 90
250 37 3 176 
251 3 38 176 
252 4 33 177 
253 48 4 177 
254 42 5 178 
255 5 47 178 
256 43 6 179 
257 6 52 179 
258 33 34 151 
259 33 151 177 
260 34 35 171 
261 151 34 171 
262 35 36 148 
263 35 148 171 
264 36 37 169 
265 148 36 169 
266 169 37 176 
267 38 39 153 
268 38 153 176 
269 39 40 164 
270 153 39 164 
271 40 41 147 
272 40 147 164 
273 41 42 168 
274 147 41 168 
275 168 42 178 
276 44 43 166 
277 166 43 179 
278 45 44 149 
279 149 44 166 
280 46 45 154 
281 45 149 154 
282 47 46 152 
283 152 46 154 
284 47 152 178 
285 49 48 167 
286 167 48 177 
287 50 49 146 
288 146 49 167 
289 51 50 163 
290 50 146 163 
291 52 51 150 
292 150 51 163 
293 52 150 179 
294 161 146 172 
295 146 161 174 
296 163 146 174 
297 146 167 172 
298 164 147 175 
299 165 147 168 
300 147 165 175 
301 162 148 170 
302 148 162 171 
303 148 169 173 
304 170 148 173 
305 154 149 155 
306 155 149 156 
307 156 149 166 
308 156 150 163 
309 150 156 166 
310 150 166 179 
311 162 151 171 
312 151 162 172 
313 167 151 172 
314 151 167 177 
315 152 154 165 
316 152 165 168 
317 152 168 178 
318 153 164 173 
319 169 153 173 
320 153 169 176 
321 154 155 165 
322 155 156 157 
323 155 157 158 
324 155 158 165 
325 157 156 174 
326 156 163 174 
327 158 157 159 
328 159 157 161 
329 161 157 174 
330 158 159 160 
331 158 160 175 
332 165 158 175 
333 160 159 170 
334 159 161 162 
335 159 162 170 
336 164 160 173 
337 160 164 175 
338 160 170 173 
339 162 161 172 
2 11 2 90
340 3 37 210 
341 63 3 210 
342 33 4 211 
343 4 53 211 
344 57 7 213 
345 7 58 213 
346 62 8 212 
347 8 67 212 
348 34 33 197 
349 197 33 211 
350 35 34 180 
351 180 34 197 
352 36 35 187 
353 35 180 187 
354 37 36 202 
355 36 187 202 
356 37 202 210 
357 53 54 201 
358 53 201 211 
359 54 55 183 
360 54 183 201 
361 55 56 198 
362 183 55 198 
363 56 57 185 
364 56 185 198 
365 185 57 213 
366 58 59 200 
367 58 200 213 
368 59 60 182 
369 59 182 200 
370 60 61 204 
371 182 60 204 
372 61 62 186 
373 61 186 204 
374 186 62 212 
375 64 63 184 
376 184 63 210 
377 65 64 208 
378 64 184 208 
379 66 65 181 
380 181 65 208 
381 67 66 203 
382 66 181 203 
383 67 203 212 
384 187 180 188 
385 188 180 189 
386 189 180 197 
387 194 181 196 
388 181 194 206 
389 196 181 208 
390 203 181 206 
391 195 182 204 
392 182 195 205 
393 200 182 207 
394 182 205 207 
395 183 189 201 
396 189 183 209 
397 183 198 209 
398 196 184 199 
399 184 196 208 
400 199 184 202 
401 202 184 210 
402 198 185 207 
403 185 200 207 
404 200 185 213 
405 186 195 204 
406 195 186 206 
407 186 203 206 
408 203 186 212 
409 187 188 199 
410 187 199 202 
411 188 189 190 
412 188 190 191 
413 188 191 199 
414 190 189 209 
415 189 197 201 
416 191 190 192 
417 192 190 193 
418 193 190 209 
419 191 192 194 
420 191 194 196 
421 191 196 199 
422 192 193 205 
423 194 192 195 
424 195 192 205 
425 193 198 207 
426 198 193 209 
427 205 193 207 
428 194 195 206 
429 201 197 211 
2 12 2 90
430 3 244 38 
431 63 244 3 
432 42 246 5 
433 5 246 68 
434 8 247 67 
435 73 247 8 
436 72 245 9 
437 9 245 77 
438 38 237 39 
439 38 244 237 
440 39 217 40 
441 39 237 217 
442 40 238 41 
443 217 238 40 
444 41 219 42 
445 41 238 219 
446 219 246 42 
447 64 233 63 
448 233 244 63 
449 65 214 64 
450 214 233 64 
451 66 234 65 
452 65 234 214 
453 67 220 66 
454 220 234 66 
455 67 247 220 
456 68 236 69 
457 68 246 236 
458 69 215 70 
459 69 236 215 
460 70 242 71 
461 215 242 70 
462 71 232 72 
463 71 242 232 
464 232 245 72 
465 74 235 73 
466 235 247 73 
467 75 216 74 
468 216 235 74 
469 76 221 75 
470 75 221 216 
471 77 218 76 
472 218 221 76 
473 77 245 218 
474 227 241 214 
475 214 243 227 
476 214 241 233 
477 234 243 214 
478 228 230 215 
479 215 240 228 
480 230 242 215 
481 236 240 215 
482 221 222 216 
483 222 223 216 
484 223 235 216 
485 229 238 217 
486 217 239 229 
487 237 241 217 
488 217 241 239 
489 218 231 221 
490 218 232 231 
491 218 245 232 
492 219 238 229 
493 229 240 219 
494 219 240 236 
495 236 246 219 
496 223 234 220 
497 220 235 223 
498 220 247 235 
499 221 231 222 
500 222 224 223 
501 222 225 224 
502 222 231 225 
503 224 243 223 
504 223 243 234 
505 225 226 224 
506 226 227 224 
507 227 243 224 
508 225 228 226 
509 225 230 228 
510 225 231 230 
511 226 239 227 
512 228 229 226 
513 229 239 226 
514 239 241 227 
515 228 240 229 
516 231 232 230 
517 232 242 230 
518 233 241 237 
519 237 244 233 
2 13 2 90
520 5 281 47 
521 68 281 5 
522 43 279 6 
523 6 279 78 
524 9 280 72 
525 87 280 9 
526 82 278 10 
527 10 278 83 
528 44 269 43 
529 269 279 43 
530 45 248 44 
531 248 269 44 
532 46 256 45 
533 45 256 248 
534 47 252 46 
535 252 256 46 
536 47 281 252 
537 69 268 68 
538 268 281 68 
539 70 251 69 
540 251 268 69 
541 71 265 70 
542 70 265 251 
543 72 254 71 
544 254 265 71 
545 72 280 254 
546 78 253 79 
547 78 279 253 
548 79 266 80 
549 253 266 79 
550 80 250 81 
551 80 266 250 
552 81 271 82 
553 250 271 81 
554 271 278 82 
555 83 255 84 
556 83 278 255 
557 84 273 85 
558 255 273 84 
559 85 249 86 
560 85 273 249 
561 86 270 87 
562 249 270 86 
563 270 280 87 
564 256 257 248 
565 257 258 248 
566 258 269 248 
567 264 272 249 
568 249 273 264 
569 249 275 270 
570 272 275 249 
571 263 274 250 
572 250 276 263 
573 266 276 250 
574 250 274 271 
575 265 277 251 
576 267 268 251 
577 251 277 267 
578 252 267 256 
579 252 268 267 
580 252 281 268 
581 258 266 253 
582 253 269 258 
583 253 279 269 
584 254 275 265 
585 270 275 254 
586 254 280 270 
587 264 273 255 
588 255 274 264 
589 271 274 255 
590 255 278 271 
591 256 267 257 
592 257 259 258 
593 257 260 259 
594 257 267 260 
595 259 276 258 
596 258 276 266 
597 260 261 259 
598 261 263 259 
599 263 276 259 
600 260 262 261 
601 260 277 262 
602 267 277 260 
603 262 272 261 
604 261 264 263 
605 261 272 264 
606 265 275 262 
607 262 277 265 
608 262 275 272 
609 264 274 263 
2 14 2 90
610 4 48 313 
611 53 4 313 
612 52 6 312 
613 6 78 312 
614 7 57 315 
615 88 7 315 
616 82 10 314 
617 10 92 314 
618 48 49 303 
619 48 303 313 
620 49 50 282 
621 49 282 303 
622 50 51 289 
623 282 50 289 
624 51 52 304 
625 289 51 304 
626 304 52 312 
627 54 53 299 
628 299 53 313 
629 55 54 285 
630 285 54 299 
631 56 55 300 
632 55 285 300 
633 57 56 287 
634 287 56 300 
635 57 287 315 
636 78 79 286 
637 78 286 312 
638 79 80 310 
639 286 79 310 
640 80 81 283 
641 80 283 310 
642 81 82 305 
643 283 81 305 
644 305 82 314 
645 89 88 302 
646 302 88 315 
647 90 89 284 
648 284 89 302 
649 91 90 306 
650 90 284 306 
651 92 91 288 
652 288 91 306 
653 92 288 314 
654 282 289 290 
655 282 290 291 
656 282 291 303 
657 283 296 298 
658 296 283 308 
659 283 298 310 
660 283 305 308 
661 284 297 306 
662 297 284 307 
663 284 302 309 
664 307 284 309 
665 291 285 299 
666 285 291 311 
667 300 285 311 
668 286 298 301 
669 298 286 310 
670 286 301 304 
671 286 304 312 
672 287 300 309 
673 302 287 309 
674 287 302 315 
675 297 288 306 
676 288 297 308 
677 305 288 308 
678 288 305 314 
679 290 289 301 
680 301 289 304 
681 291 290 292 
682 292 290 293 
683 293 290 301 
684 291 292 311 
685 291 299 303 
686 292 293 294 
687 292 294 295 
688 292 295 311 
689 294 293 296 
690 296 293 298 
691 298 293 301 
692 295 294 307 
693 294 296 297 
694 294 297 307 
695 300 295 309 
696 295 300 311 
697 295 307 309 
698 297 296 308 
699 303 299 313 
2 15 2 86
700 1 332 11 
701 19 333 1 
702 1 333 332 
703 7 329 58 
704 88 329 7 
705 62 327 8 
706 8 327 73 
707 77 326 9 
708 9 326 87 
709 83 328 10 
710 10 328 92 
711 11 318 12 
712 11 321 318 
713 11 332 321 
714 12 324 13 
715 318 334 12 
716 12 334 324 
717 13 317 14 
718 13 337 317 
719 324 337 13 
720 14 330 15 
721 317 323 14 
722 323 330 14 
723 15 331 16 
724 330 331 15 
725 16 316 17 
726 16 322 316 
727 16 331 322 
728 17 325 18 
729 316 336 17 
730 17 336 325 
731 18 319 19 
732 18 335 319 
733 325 335 18 
734 319 320 19 
735 320 333 19 
736 58 341 59 
737 329 341 58 
738 59 337 60 
739 59 341 337 
740 60 334 61 
741 324 334 60 
742 60 337 324 
743 61 339 62 
744 334 339 61 
745 62 339 327 
746 73 321 74 
747 73 327 321 
748 74 332 75 
749 321 332 74 
750 75 333 76 
751 332 333 75 
752 76 320 77 
753 76 333 320 
754 320 326 77 
755 84 340 83 
756 83 340 328 
757 85 336 84 
758 336 340 84 
759 86 335 85 
760 85 335 325 
761 325 336 85 
762 87 338 86 
763 86 338 335 
764 326 338 87 
765 89 323 88 
766 323 329 88 
767 90 330 89 
768 89 330 323 
769 91 331 90 
770 90 331 330 
771 92 322 91 
772 322 331 91 
773 92 328 322 
774 322 328 316 
775 328 340 316 
776 316 340 336 
777 317 329 323 
778 317 341 329 
779 337 341 317 
780 321 327 318 
781 327 339 318 
782 318 339 334 
783 319 326 320 
784 319 338 326 
785 335 338 319 
3 1 4 1128
786 104 99 126 204 
787 117 133 263 343 
788 130 284 98 346 
789 190 344 108 354 
790 96 108 190 344 
791 318 126 345 365 
792 259 263 133 343 
793 204 126 104 186 
794 344 351 96 364 
795 134 109 119 354 
796 134 119 207 354 
797 228 20 111 358 
798 101 25 199 349 
799 190 96 107 108 
800 21 225 111 358 
801 25 136 101 199 
802 199 101 349 357 
803 267 125 347 363 
804 187 25 148 349 
805 22 223 103 365 
806 259 133 120 343 
807 99 126 204 334 
808 119 346 207 354 
809 103 360 22 365 
810 134 207 205 354 
811 129 343 296 356 
812 25 187 199 349 
813 108 107 190 354 
814 267 352 125 363 
815 230 225 111 94 
816 111 139 20 228 
817 98 302 323 346 
818 96 344 189 351 
819 318 186 339 365 
820 231 348 94 355 
821 22 223 93 103 
822 189 190 96 136 
823 258 343 120 356 
824 103 23 22 360 
825 263 342 117 343 
826 111 225 228 358 
827 284 130 309 346 
828 129 296 293 356 
829 113 102 275 348 
830 109 346 119 354 
831 22 94 21 360 
832 146 282 27 351 
833 126 186 318 345 
834 125 100 31 267 
835 126 104 186 345 
836 187 25 26 148 
837 114 116 117 359 
838 114 117 133 263 
839 230 94 111 347 
840 276 263 259 343 
841 196 350 101 357 
842 31 125 267 352 
843 126 204 334 186 
844 228 226 20 358 
845 21 93 22 358 
846 103 23 360 365 
847 191 101 136 199 
848 260 125 100 112 
849 289 353 29 356 
850 263 117 342 359 
851 199 196 101 357 
852 231 94 230 355 
853 27 351 282 364 
854 100 125 260 267 
855 191 105 101 350 
856 114 117 263 359 
857 130 110 307 362 
858 29 289 163 353 
859 284 302 98 346 
860 104 194 105 106 
861 217 164 24 349 
862 225 21 111 94 
863 296 343 129 361 
864 22 360 222 365 
865 24 217 349 357 
866 114 262 272 261 
867 225 111 228 230 
868 258 120 353 356 
869 319 338 335 348 
870 231 94 348 360 
871 292 362 132 364 
872 21 94 225 360 
873 262 114 272 355 
874 243 224 93 358 
875 111 228 230 347 
876 130 307 309 362 
877 307 110 294 362 
878 133 117 120 343 
879 112 262 114 261 
880 27 172 146 351 
881 105 194 104 345 
882 171 26 180 351 
883 191 194 105 350 
884 164 24 2 217 
885 93 350 243 358 
886 107 192 190 354 
887 335 270 102 348 
888 262 112 114 355 
889 190 209 344 354 
890 231 230 348 355 
891 289 301 353 356 
892 186 334 126 318 
893 270 335 338 348 
894 207 119 134 182 
895 318 345 186 365 
896 96 26 189 136 
897 187 148 202 349 
898 139 228 111 363 
899 93 345 243 350 
900 2 138 239 357 
901 182 119 200 346 
902 228 225 226 358 
903 116 342 117 359 
904 94 347 230 355 
905 193 190 192 354 
906 249 275 113 102 
907 20 21 111 358 
908 188 25 26 187 
909 138 20 2 239 
910 130 309 346 362 
911 107 96 190 136 
912 154 31 256 352 
913 260 112 133 261 
914 106 192 107 354 
915 256 149 31 154 
916 307 284 130 309 
917 303 282 167 351 
918 149 31 248 256 
919 202 199 187 349 
920 275 113 348 355 
921 128 348 94 360 
922 196 191 101 350 
923 166 269 248 353 
924 275 102 249 348 
925 22 222 223 365 
926 191 107 101 105 
927 163 289 304 353 
928 194 191 107 192 
929 26 96 189 351 
930 171 151 26 351 
931 123 306 361 366 
932 97 129 293 356 
933 114 133 112 261 
934 107 191 194 105 
935 105 194 107 192 
936 106 105 107 192 
937 194 105 106 192 
938 99 104 195 204 
939 292 132 121 364 
940 217 237 153 349 
941 306 331 123 98 
942 101 191 196 199 
943 167 282 146 351 
944 134 205 207 182 
945 103 223 93 365 
946 194 345 105 350 
947 186 339 334 318 
948 195 194 104 106 
949 225 94 231 360 
950 204 104 195 186 
951 182 207 119 346 
952 290 121 292 97 
953 261 114 133 263 
954 152 256 252 352 
955 20 239 138 358 
956 272 113 275 355 
957 172 167 146 351 
958 318 339 327 365 
959 113 272 249 115 
960 112 260 262 261 
961 289 29 28 356 
962 241 349 217 357 
963 182 200 207 346 
964 284 309 302 346 
965 202 148 169 349 
966 199 349 196 357 
967 149 31 30 248 
968 275 272 249 113 
969 225 230 231 94 
970 120 259 30 100 
971 187 26 180 148 
972 148 25 173 349 
973 102 113 249 115 
974 163 29 28 289 
975 101 136 107 191 
976 26 171 180 148 
977 311 362 292 364 
978 26 172 27 351 
979 100 120 259 133 
980 289 301 304 353 
981 206 186 195 345 
982 249 335 270 102 
983 31 267 256 352 
984 217 153 164 349 
985 224 223 243 93 
986 136 25 188 199 
987 189 188 190 136 
988 243 93 223 345 
989 164 173 24 349 
990 293 290 292 97 
991 258 120 30 353 
992 2 24 138 357 
993 166 248 149 353 
994 289 28 301 356 
995 228 139 229 363 
996 2 20 139 229 
997 267 100 31 257 
998 24 173 25 349 
999 228 347 111 363 
1000 28 27 146 282 
1001 337 182 119 200 
1002 335 102 319 348 
1003 303 282 351 364 
1004 122 132 292 362 
1005 249 102 270 348 
1006 27 282 28 364 
1007 154 165 31 352 
1008 259 30 258 120 
1009 2 20 229 239 
1010 100 260 112 133 
1011 103 93 345 365 
1012 183 351 344 364 
1013 119 98 323 346 
1014 241 217 239 357 
1015 195 186 104 345 
1016 296 129 293 122 
1017 106 195 194 192 
1018 191 136 188 199 
1019 118 129 343 361 
1020 284 323 98 302 
1021 129 122 296 361 
1022 119 130 98 346 
1023 189 344 183 351 
1024 154 256 152 352 
1025 158 32 31 165 
1026 26 162 172 351 
1027 2 164 217 367 
1028 186 327 339 365 
1029 133 259 261 263 
1030 216 360 23 365 
1031 30 149 248 353 
1032 267 260 100 257 
1033 164 2 24 160 
1034 110 294 124 307 
1035 307 294 295 362 
1036 174 161 144 157 
1037 119 323 317 346 
1038 113 272 115 114 
1039 113 272 114 355 
1040 149 156 166 353 
1041 269 258 248 353 
1042 196 349 184 357 
1043 190 107 136 191 
1044 257 248 31 256 
1045 186 345 212 365 
1046 134 205 106 354 
1047 151 172 162 351 
1048 124 130 110 307 
1049 222 360 216 365 
1050 180 189 197 351 
1051 160 159 158 145 
1052 223 345 93 365 
1053 212 345 247 365 
1054 190 193 209 354 
1055 226 239 20 358 
1056 260 100 259 133 
1057 26 180 188 187 
1058 100 259 30 257 
1059 101 24 25 349 
1060 26 189 180 351 
1061 25 24 170 173 
1062 153 173 164 349 
1063 170 25 26 143 
1064 317 329 341 346 
1065 108 106 107 354 
1066 154 152 165 352 
1067 267 252 256 352 
1068 175 158 32 145 
1069 133 259 260 261 
1070 170 26 159 143 
1071 304 150 163 353 
1072 237 217 241 349 
1073 121 292 97 122 
1074 296 343 298 356 
1075 163 28 146 289 
1076 106 134 195 205 
1077 188 189 26 136 
1078 229 20 226 239 
1079 127 350 93 358 
1080 158 31 32 142 
1081 232 348 230 355 
1082 31 30 248 257 
1083 155 31 149 154 
1084 130 124 284 307 
1085 192 106 205 354 
1086 294 110 122 362 
1087 282 146 28 289 
1088 123 306 297 361 
1089 135 102 249 115 
1090 239 357 138 358 
1091 238 217 164 367 
1092 27 172 161 146 
1093 27 96 351 364 
1094 147 164 2 367 
1095 2 24 160 145 
1096 199 184 196 349 
1097 275 249 270 348 
1098 30 248 258 353 
1099 322 306 123 366 
1100 26 159 162 170 
1101 238 164 147 367 
1102 134 119 99 182 
1103 268 251 236 363 
1104 191 196 194 350 
1105 187 188 25 199 
1106 292 293 97 122 
1107 102 249 335 135 
1108 29 353 120 356 
1109 118 122 129 361 
1110 134 195 104 106 
1111 292 121 132 122 
1112 288 361 306 366 
1113 263 264 114 359 
1114 195 104 99 134 
1115 165 32 31 352 
1116 148 173 169 349 
1117 121 290 292 364 
1118 310 343 266 356 
1119 129 97 293 122 
1120 303 291 282 364 
1121 144 28 161 174 
1122 311 295 292 362 
1123 149 30 156 353 
1124 259 258 30 257 
1125 155 158 31 165 
1126 160 175 2 145 
1127 149 30 31 155 
1128 341 329 200 346 
1129 139 2 229 367 
1130 242 232 230 355 
1131 135 115 273 359 
1132 175 32 2 145 
1133 268 236 352 363 
1134 293 296 298 356 
1135 263 261 114 264 
1136 124 284 98 130 
1137 290 97 293 356 
1138 232 231 230 348 
1139 159 160 143 145 
1140 189 183 201 351 
1141 174 144 29 157 
1142 249 135 115 273 
1143 170 148 25 173 
1144 251 215 236 363 
1145 266 353 286 356 
1146 24 25 170 143 
1147 175 147 2 367 
1148 196 208 350 357 
1149 284 323 330 98 
1150 136 188 190 191 
1151 263 342 274 359 
1152 163 156 29 353 
1153 206 345 194 350 
1154 310 266 286 356 
1155 31 32 125 352 
1156 101 24 349 357 
1157 142 158 159 145 
1158 27 96 26 351 
1159 147 175 2 164 
1160 282 290 28 364 
1161 272 115 114 264 
1162 242 230 347 355 
1163 164 175 2 160 
1164 157 144 155 142 
1165 144 161 141 157 
1166 185 287 198 346 
1167 212 220 247 345 
1168 172 162 27 161 
1169 158 159 157 142 
1170 26 151 171 162 
1171 24 170 160 143 
1172 182 119 99 337 
1173 322 331 123 306 
1174 160 170 24 173 
1175 135 249 325 273 
1176 139 229 363 367 
1177 198 354 346 362 
1178 332 333 23 360 
1179 294 296 122 361 
1180 99 195 134 182 
1181 192 106 195 205 
1182 132 362 344 364 
1183 26 151 162 351 
1184 162 171 26 148 
1185 160 24 164 173 
1186 196 184 208 357 
1187 233 208 184 357 
1188 282 291 290 364 
1189 327 186 212 365 
1190 266 253 286 353 
1191 190 107 191 192 
1192 183 344 285 364 
1193 273 325 135 336 
1194 32 125 352 363 
1195 233 214 208 357 
1196 212 203 220 345 
1197 290 289 28 301 
1198 175 2 32 367 
1199 158 175 160 145 
1200 181 345 206 350 
1201 118 343 342 361 
1202 162 27 26 172 
1203 294 296 293 122 
1204 188 26 25 136 
1205 266 258 253 353 
1206 150 156 163 353 
1207 157 159 141 142 
1208 290 28 121 97 
1209 155 31 158 142 
1210 135 273 336 359 
1211 220 247 345 365 
1212 141 144 157 142 
1213 31 267 257 256 
1214 251 347 215 363 
1215 161 28 27 146 
1216 165 158 32 175 
1217 300 198 346 362 
1218 140 332 23 365 
1219 121 28 290 364 
1220 28 97 290 356 
1221 261 272 114 264 
1222 205 134 195 182 
1223 300 198 287 346 
1224 181 206 194 350 
1225 276 258 266 343 
1226 142 32 158 145 
1227 30 120 29 353 
1228 263 250 342 343 
1229 26 141 159 143 
1230 163 28 29 174 
1231 141 27 162 161 
1232 161 159 141 157 
1233 118 117 342 343 
1234 143 142 159 145 
1235 212 247 327 365 
1236 156 174 29 157 
1237 110 124 294 122 
1238 332 23 216 360 
1239 174 29 163 156 
1240 271 342 305 366 
1241 161 141 28 144 
1242 320 218 348 360 
1243 195 99 204 182 
1244 259 100 260 257 
1245 301 28 290 356 
1246 308 342 283 361 
1247 123 297 306 124 
1248 271 305 278 366 
1249 320 348 137 360 
1250 2 229 217 239 
1251 216 223 222 365 
1252 2 217 229 367 
1253 227 243 350 358 
1254 143 160 24 145 
1255 344 354 198 362 
1256 160 170 159 143 
1257 159 141 26 162 
1258 182 99 204 324 
1259 155 158 157 142 
1260 118 129 117 343 
1261 264 273 115 359 
1262 344 362 311 364 
1263 232 254 348 355 
1264 314 278 305 366 
1265 119 323 14 317 
1266 94 348 128 355 
1267 297 124 123 361 
1268 263 250 274 342 
1269 29 156 30 353 
1270 155 144 30 142 
1271 350 357 227 358 
1272 192 205 193 354 
1273 216 23 332 365 
1274 323 329 317 346 
1275 99 182 337 324 
1276 31 155 165 154 
1277 221 218 320 360 
1278 325 335 249 135 
1279 334 204 99 324 
1280 163 146 28 174 
1281 242 347 265 355 
1282 137 348 128 360 
1283 264 249 115 273 
1284 308 342 361 366 
1285 340 316 336 359 
1286 98 323 14 119 
1287 203 212 186 345 
1288 294 122 124 361 
1289 322 288 306 366 
1290 115 272 249 264 
1291 146 161 28 174 
1292 30 31 100 257 
1293 141 27 26 162 
1294 26 180 189 188 
1295 333 216 221 360 
1296 233 184 349 357 
1297 175 32 165 367 
1298 131 123 361 366 
1299 293 292 294 122 
1300 289 28 282 290 
1301 29 28 144 174 
1302 208 214 350 357 
1303 308 283 296 361 
1304 162 159 141 161 
1305 141 28 27 161 
1306 114 264 115 359 
1307 332 216 333 360 
1308 302 315 329 346 
1309 290 293 301 356 
1310 340 316 359 366 
1311 56 185 287 198 
1312 124 294 297 307 
1313 323 302 329 346 
1314 200 329 213 346 
1315 297 294 124 361 
1316 94 128 113 355 
1317 329 315 213 346 
1318 300 344 198 362 
1319 135 336 95 359 
1320 258 248 30 257 
1321 81 305 271 342 
1322 284 306 297 124 
1323 250 310 283 343 
1324 128 348 113 355 
1325 122 110 132 362 
1326 189 209 183 344 
1327 242 215 251 347 
1328 32 352 165 367 
1329 113 114 112 355 
1330 243 345 234 350 
1331 155 30 31 142 
1332 127 357 350 358 
1333 65 181 208 350 
1334 277 251 267 347 
1335 271 359 342 366 
1336 23 103 140 365 
1337 142 159 141 143 
1338 218 231 348 360 
1339 287 300 56 198 
1340 242 251 265 347 
1341 55 198 300 344 
1342 300 285 55 344 
1343 81 271 250 342 
1344 183 55 285 344 
1345 250 283 342 343 
1346 214 65 208 350 
1347 320 333 221 360 
1348 213 315 287 346 
1349 81 283 305 342 
1350 55 183 198 344 
1351 130 346 109 362 
1352 118 117 116 342 
1353 250 266 310 343 
1354 112 111 94 347 
1355 163 146 50 289 
1356 213 287 185 346 
1357 292 290 291 364 
1358 109 134 106 354 
1359 103 345 126 365 
1360 105 345 93 350 
1361 46 152 256 252 
1362 203 181 234 345 
1363 229 217 238 367 
1364 146 282 50 289 
1365 130 109 110 362 
1366 234 345 181 350 
1367 320 137 333 360 
1368 102 137 319 348 
1369 81 250 283 342 
1370 104 126 103 345 
1371 30 149 156 155 
1372 36 202 187 148 
1373 234 220 203 345 
1374 227 357 239 358 
1375 251 215 242 70 
1376 340 255 278 366 
1377 234 181 65 350 
1378 297 284 124 307 
1379 95 336 316 359 
1380 112 347 94 355 
1381 269 44 166 248 
1382 202 36 169 148 
1383 283 298 296 343 
1384 250 310 80 283 
1385 34 171 180 197 
1386 308 361 288 366 
1387 214 234 65 350 
1388 327 186 339 212 
1389 207 346 198 354 
1390 70 242 251 265 
1391 304 163 51 289 
1392 331 15 123 98 
1393 153 217 39 237 
1394 340 278 328 366 
1395 171 34 151 197 
1396 131 342 116 366 
1397 227 243 214 350 
1398 256 154 152 46 
1399 118 124 122 361 
1400 165 352 168 367 
1401 300 346 287 362 
1402 333 216 75 221 
1403 310 298 343 356 
1404 227 350 214 357 
1405 119 13 99 337 
1406 114 115 116 359 
1407 319 137 320 348 
1408 340 336 255 359 
1409 303 49 167 282 
1410 255 271 278 366 
1411 109 346 354 362 
1412 299 201 54 285 
1413 93 105 104 345 
1414 149 166 44 248 
1415 271 255 359 366 
1416 215 347 228 363 
1417 287 346 309 362 
1418 266 310 80 250 
1419 15 331 330 98 
1420 95 135 17 336 
1421 215 240 236 363 
1422 331 306 90 330 
1423 185 200 213 346 
1424 302 287 315 346 
1425 75 332 216 333 
1426 263 276 250 343 
1427 126 99 12 334 
1428 51 163 304 150 
1429 255 340 359 366 
1430 198 207 185 346 
1431 131 118 116 342 
1432 217 39 164 153 
1433 40 147 238 164 
1434 234 243 223 345 
1435 274 342 271 359 
1436 108 344 132 362 
1437 101 350 127 357 
1438 318 140 126 365 
1439 242 232 254 71 
1440 316 95 359 366 
1441 13 99 337 324 
1442 111 347 125 363 
1443 175 165 147 367 
1444 105 93 127 350 
1445 254 265 242 71 
1446 146 167 49 282 
1447 183 54 201 285 
1448 202 169 210 349 
1449 215 69 251 236 
1450 234 66 181 203 
1451 164 238 40 217 
1452 45 149 256 154 
1453 248 45 149 256 
1454 139 111 125 363 
1455 326 270 338 348 
1456 311 344 300 362 
1457 135 95 115 359 
1458 203 186 206 345 
1459 199 202 184 349 
1460 215 230 228 347 
1461 167 177 303 351 
1462 333 137 23 360 
1463 64 208 184 233 
1464 233 64 208 214 
1465 120 343 129 356 
1466 320 76 218 221 
1467 153 237 244 349 
1468 234 66 203 220 
1469 352 363 240 367 
1470 176 153 244 349 
1471 244 233 210 349 
1472 220 235 247 365 
1473 197 211 177 351 
1474 69 268 251 236 
1475 108 354 344 362 
1476 109 354 110 362 
1477 266 310 286 79 
1478 152 252 281 352 
1479 169 176 210 349 
1480 152 281 178 352 
1481 313 303 177 351 
1482 198 344 209 354 
1483 102 335 18 135 
1484 127 138 357 358 
1485 279 166 179 353 
1486 108 110 354 362 
1487 203 206 181 345 
1488 201 313 211 351 
1489 254 280 245 348 
1490 189 201 197 351 
1491 218 231 232 348 
1492 131 118 342 361 
1493 150 304 312 353 
1494 86 338 270 335 
1495 59 337 341 200 
1496 269 166 279 353 
1497 28 121 27 364 
1498 201 299 313 351 
1499 286 266 79 253 
1500 265 347 277 355 
1501 225 231 222 360 
1502 109 108 110 354 
1503 242 230 215 347 
1504 166 156 150 353 
1505 269 253 258 353 
1506 284 90 306 330 
1507 132 344 96 364 
1508 314 328 278 366 
1509 184 210 233 349 
1510 284 89 323 302 
1511 29 97 28 356 
1512 131 361 342 366 
1513 109 130 119 346 
1514 198 209 193 354 
1515 301 286 304 353 
1516 342 359 116 366 
1517 139 32 2 367 
1518 268 246 281 352 
1519 246 168 178 352 
1520 246 268 236 352 
1521 232 254 245 348 
1522 267 268 252 352 
1523 152 168 165 352 
1524 138 101 127 357 
1525 220 345 223 365 
1526 111 112 125 347 
1527 236 240 352 363 
1528 300 287 309 362 
1529 179 150 312 353 
1530 253 279 312 353 
1531 334 12 126 318 
1532 95 131 116 366 
1533 310 286 298 356 
1534 110 108 132 362 
1535 113 128 102 348 
1536 128 137 102 348 
1537 297 306 288 361 
1538 318 11 140 365 
1539 285 300 311 344 
1540 326 338 319 348 
1541 323 89 284 330 
1542 76 320 333 221 
1543 285 344 311 364 
1544 123 124 131 361 
1545 298 283 310 343 
1546 101 105 127 350 
1547 244 210 176 349 
1548 286 353 301 356 
1549 337 119 13 317 
1550 305 288 314 366 
1551 17 95 336 316 
1552 262 265 277 355 
1553 196 181 194 350 
1554 197 177 151 351 
1555 147 165 168 367 
1556 74 332 321 365 
1557 313 177 211 351 
1558 283 308 305 342 
1559 275 348 254 355 
1560 286 253 312 353 
1561 213 200 341 329 
1562 270 280 326 338 
1563 74 216 332 365 
1564 93 104 103 345 
1565 207 200 185 346 
1566 336 273 255 359 
1567 287 302 309 346 
1568 245 326 218 348 
1569 140 126 11 318 
1570 273 249 325 85 
1571 179 312 279 353 
1572 182 204 60 324 
1573 246 178 281 352 
1574 327 247 235 365 
1575 127 93 21 358 
1576 132 108 96 344 
1577 94 22 128 360 
1578 139 363 32 367 
1579 233 349 241 357 
1580 218 221 231 360 
1581 250 271 274 342 
1582 129 120 117 343 
1583 274 264 263 359 
1584 246 219 168 352 
1585 219 352 240 367 
1586 120 129 97 356 
1587 223 220 234 345 
1588 237 241 233 349 
1589 280 270 326 348 
1590 214 243 234 350 
1591 61 339 334 186 
1592 340 336 84 255 
1593 240 215 228 363 
1594 109 106 108 354 
1595 172 151 167 351 
1596 220 223 235 365 
1597 169 173 153 349 
1598 335 18 319 102 
1599 326 245 280 348 
1600 326 320 218 348 
1601 95 16 123 366 
1602 274 271 255 359 
1603 1 23 332 333 
1604 270 254 275 348 
1605 132 96 121 364 
1606 74 235 216 365 
1607 330 323 14 98 
1608 334 99 12 324 
1609 318 321 11 365 
1610 41 147 168 367 
1611 95 116 359 366 
1612 281 252 152 47 
1613 294 297 296 361 
1614 147 41 238 367 
1615 285 291 299 364 
1616 152 281 47 178 
1617 11 321 140 365 
1618 91 322 288 306 
1619 240 219 236 352 
1620 74 321 235 365 
1621 307 295 309 362 
1622 228 229 240 363 
1623 271 82 278 305 
1624 312 52 304 150 
1625 41 168 219 367 
1626 167 177 48 303 
1627 224 226 225 358 
1628 314 288 328 366 
1629 241 239 227 357 
1630 208 181 196 350 
1631 169 210 37 202 
1632 266 250 276 343 
1633 16 322 123 366 
1634 168 352 219 367 
1635 82 314 278 305 
1636 331 322 91 306 
1637 102 19 319 137 
1638 313 48 177 303 
1639 277 265 251 347 
1640 101 138 24 357 
1641 131 95 123 366 
1642 220 67 212 247 
1643 150 312 52 179 
1644 229 240 363 367 
1645 67 212 203 220 
1646 279 43 179 166 
1647 209 198 183 344 
1648 112 94 113 355 
1649 335 270 86 249 
1650 244 153 38 237 
1651 321 327 235 365 
1652 43 279 269 166 
1653 182 337 59 200 
1654 219 238 41 367 
1655 153 244 38 176 
1656 315 213 287 57 
1657 19 320 319 137 
1658 68 246 281 268 
1659 68 246 268 236 
1660 249 335 325 85 
1661 53 313 211 201 
1662 176 210 37 169 
1663 280 254 270 348 
1664 60 337 182 324 
1665 16 95 316 366 
1666 272 275 262 355 
1667 275 254 265 355 
1668 211 177 33 197 
1669 53 313 201 299 
1670 185 287 213 57 
1671 237 233 244 349 
1672 292 291 311 364 
1673 245 218 232 348 
1674 184 202 210 349 
1675 321 332 140 365 
1676 244 63 210 233 
1677 169 153 176 349 
1678 295 311 300 362 
1679 334 204 61 186 
1680 336 273 84 255 
1681 335 325 18 135 
1682 327 321 318 365 
1683 78 312 253 279 
1684 135 325 17 336 
1685 313 299 303 351 
1686 211 197 201 351 
1687 184 210 63 233 
1688 55 56 300 198 
1689 246 42 178 168 
1690 288 322 328 366 
1691 233 241 214 357 
1692 312 286 78 253 
1693 235 223 216 365 
1694 1 23 140 332 
1695 293 298 301 356 
1696 179 166 150 353 
1697 253 269 279 353 
1698 232 254 72 245 
1699 252 268 281 352 
1700 152 178 168 352 
1701 151 33 177 197 
1702 304 286 312 353 
1703 254 72 245 280 
1704 80 81 250 283 
1705 298 286 301 356 
1706 32 363 352 367 
1707 116 115 95 359 
1708 177 167 151 351 
1709 297 288 308 361 
1710 87 280 270 338 
1711 341 58 200 213 
1712 120 97 29 356 
1713 320 326 319 348 
1714 285 311 291 364 
1715 27 121 96 364 
1716 193 207 198 354 
1717 42 246 219 168 
1718 224 243 227 358 
1719 205 207 193 354 
1720 246 236 219 352 
1721 32 139 125 363 
1722 1 23 333 137 
1723 340 328 316 366 
1724 227 239 226 358 
1725 204 334 60 324 
1726 325 273 85 336 
1727 103 126 140 365 
1728 327 247 73 235 
1729 16 316 322 366 
1730 75 76 333 221 
1731 245 77 218 326 
1732 302 88 329 315 
1733 11 140 321 332 
1734 252 46 152 47 
1735 221 216 222 360 
1736 328 314 92 288 
1737 280 87 326 338 
1738 341 58 213 329 
1739 52 51 304 150 
1740 321 327 73 235 
1741 88 329 323 302 
1742 227 214 241 357 
1743 65 234 66 181 
1744 215 251 69 70 
1745 50 51 163 289 
1746 20 127 21 358 
1747 77 320 218 326 
1748 76 320 218 77 
1749 295 300 309 362 
1750 78 286 79 253 
1751 201 54 53 299 
1752 123 16 331 322 
1753 183 54 285 55 
1754 23 128 22 360 
1755 187 35 36 148 
1756 178 281 5 246 
1757 4 313 177 211 
1758 3 244 210 176 
1759 179 312 6 279 
1760 288 92 328 322 
1761 20 138 127 358 
1762 339 327 212 62 
1763 340 278 83 328 
1764 40 39 164 217 
1765 119 14 13 317 
1766 169 37 36 202 
1767 282 49 146 50 
1768 95 17 16 316 
1769 128 23 137 360 
1770 34 33 151 197 
1771 288 92 322 91 
1772 262 275 265 355 
1773 229 219 240 367 
1774 212 186 339 62 
1775 278 255 340 83 
1776 67 203 66 220 
1777 328 278 10 314 
1778 8 327 212 247 
1779 326 245 9 280 
1780 329 7 213 315 
1781 43 269 44 166 
1782 227 226 224 358 
1783 41 42 219 168 
1784 73 74 321 235 
1785 319 18 19 102 
1786 271 81 82 305 
1787 332 216 74 75 
1788 154 256 45 46 
1789 323 89 88 302 
1790 45 149 44 248 
1791 49 167 48 303 
1792 64 184 63 233 
1793 268 69 68 236 
1794 71 232 254 72 
1795 123 16 15 331 
1796 90 284 89 330 
1797 265 70 242 71 
1798 87 326 9 280 
1799 213 58 7 329 
1800 330 14 15 98 
1801 12 11 126 318 
1802 39 38 153 237 
1803 287 185 56 57 
1804 64 65 208 214 
1805 131 124 118 361 
1806 8 327 247 73 
1807 7 329 88 315 
1808 186 61 339 62 
1809 84 340 255 83 
1810 249 86 335 85 
1811 182 337 60 59 
1812 229 238 219 367 
1813 264 255 273 359 
1814 338 270 87 86 
1815 58 59 341 200 
1816 210 37 3 176 
1817 47 281 5 178 
1818 312 6 52 179 
1819 4 53 313 211 
1820 3 38 244 176 
1821 4 313 48 177 
1822 246 281 5 68 
1823 43 179 6 279 
1824 212 327 8 62 
1825 83 278 10 328 
1826 306 91 331 90 
1827 99 13 12 324 
1828 222 231 221 360 
1829 41 40 147 238 
1830 296 297 308 361 
1831 274 255 264 359 
1832 333 19 1 137 
1833 171 35 34 180 
1834 140 11 1 332 
1835 80 310 266 79 
1836 177 33 4 211 
1837 178 5 42 246 
1838 312 78 6 279 
1839 3 244 63 210 
1840 333 320 19 137 
1841 245 9 77 326 
1842 314 10 328 92 
1843 204 334 61 60 
1844 273 85 336 84 
1845 314 278 10 82 
1846 67 8 212 247 
1847 315 7 213 57 
1848 328 322 316 366 
1849 245 72 9 280 
1850 325 17 18 135 
1851 357 2 217 239 
1852 357 217 2 24 
1853 21 360 222 22 
1854 222 360 21 225 
1855 341 346 119 317 
1856 119 346 341 200 
1857 119 337 341 317 
1858 341 337 119 200 
1859 225 358 222 224 
1860 225 222 358 21 
1861 22 358 222 21 
1862 228 20 229 139 
1863 229 20 228 226 
1864 190 344 189 96 
1865 189 344 190 209 
1866 356 258 266 353 
1867 356 266 258 343 
1868 259 343 258 276 
1869 258 343 259 120 
1870 195 345 194 206 
1871 194 345 195 104 
1872 277 355 112 262 
1873 112 355 277 347 
1874 112 260 277 262 
1875 363 267 251 347 
1876 180 148 35 187 
1877 35 148 180 171 
1878 306 98 124 284 
1879 124 98 306 123 
1880 351 299 285 201 
1881 285 299 351 364 
1882 285 183 351 201 
1883 351 183 285 364 
1884 362 294 292 122 
1885 362 292 294 295 
1886 363 268 267 352 
1887 363 267 268 251 
1888 170 26 148 162 
1889 170 148 26 25 
1890 29 157 155 156 
1891 155 157 29 144 
1892 155 30 29 156 
1893 29 30 155 144 
1894 364 303 299 351 
1895 364 299 303 291 
1896 254 242 355 232 
1897 254 355 242 265 
1898 361 283 343 342 
1899 361 343 283 296 
1900 330 306 98 331 
1901 330 98 306 284 
1902 366 308 305 288 
1903 366 305 308 342 
1904 171 197 351 180 
1905 351 197 171 151 
1906 358 222 93 22 
1907 358 93 222 224 
1908 223 93 222 22 
1909 223 222 93 224 
1910 277 112 125 260 
1911 125 112 277 347 
1912 125 267 277 260 
1913 277 267 125 347 
$EndElements
