# OBJ generated by ONSHAPE BY PTC INC, 1.208 Units = meters
mtllib SlabBranchingChannelAirtight - part.mtl
g part
v 0.00310077 0.0133825 -0.01905 
v 0.00288155 0.0140331 -0.01905 
v 0.0025276 0.0146214 -0.01905 
v 0.00205545 0.0151199 -0.01905 
v 0.0014872 0.0155052 -0.01905 
v 0.000849402 0.0157593 -0.01905 
v 0.000171891 0.0158703 -0.01905 
v -0.000513658 0.0158332 -0.01905 
v -0.00117519 0.0156495 -0.01905 
v -0.00178177 0.0153279 -0.01905 
v -0.00230504 0.0148834 -0.01905 
v -0.00272052 0.0143369 -0.01905 
v -0.0030088 0.0137138 -0.01905 
v -0.00315639 0.0130433 -0.01905 
v -0.00315639 0.0123567 -0.01905 
v -0.0030088 0.0116862 -0.01905 
v -0.00272052 0.0110631 -0.01905 
v -0.00230504 0.0105166 -0.01905 
v -0.00178177 0.0100721 -0.01905 
v -0.00117519 0.0097505 -0.01905 
v -0.000513658 0.00956683 -0.01905 
v 0.000171891 0.00952966 -0.01905 
v 0.000849402 0.00964073 -0.01905 
v 0.0014872 0.00989485 -0.01905 
v 0.00205545 0.0102801 -0.01905 
v 0.0025276 0.0107786 -0.01905 
v 0.00288155 0.0113669 -0.01905 
v 0.00310077 0.0120175 -0.01905 
v 0.003175 0.0127 -0.01905 
v -6.21609e-18 0.0127 -0.01905 
v -0.00117519 0.0097505 0.03175 
v -0.000513658 0.00956683 0.03175 
v -0.00178177 0.0100721 0.03175 
v -0.00230504 0.0105166 0.03175 
v -0.00272052 0.0110631 0.03175 
v -0.0030088 0.0116862 0.03175 
v -0.00315639 0.0123567 0.03175 
v -0.00315639 0.0130433 0.03175 
v -0.0030088 0.0137138 0.03175 
v -0.00272052 0.0143369 0.03175 
v -0.00230504 0.0148834 0.03175 
v -0.00178177 0.0153279 0.03175 
v -0.00117519 0.0156495 0.03175 
v -0.000513658 0.0158332 0.03175 
v 0.000171891 0.0158703 0.03175 
v 0.000682531 0.0158008 0.000682531 
v 0.000843213 0.0157417 0.000843213 
v 0.000170507 0.0158565 0.000170507 
v 0.000849402 0.0157593 0.03175 
v 0.00132652 0.0155642 0.00132652 
v 0.0014872 0.0155052 0.0014872 
v 0.0014872 0.0155052 0.03175 
v 0.00191351 0.0152161 0.00191351 
v 0.00205545 0.0151199 0.00205545 
v 0.00205545 0.0151199 0.03175 
v 0.00240968 0.0147459 0.00240968 
v 0.0025276 0.0146214 0.0025276 
v 0.0025276 0.0146214 0.03175 
v 0.00280515 0.0141872 0.00280515 
v 0.00288155 0.0140331 0.00288155 
v 0.00288155 0.0140331 0.03175 
v 0.00305927 0.0135494 0.00305927 
v 0.00309393 0.0133811 0.00309393 
v 0.003175 0.0127 0.03175 
v 0.00310077 0.0133825 0.03175 
v 0.00317034 0.0128719 0.00317034 
v 0.00314593 0.0131286 0.00314593 
v 0.00310077 0.0120175 0.03175 
v 0.00316453 0.0124423 0.00316453 
v 0.00313317 0.0121863 0.00313317 
v 0.00316802 0.0127001 0.00316802 
v 0.00288155 0.0113669 0.03175 
v 0.00310077 0.0120175 0.00310077 
v 0.0029495 0.0115248 0.0029495 
v 0.0025276 0.0107786 0.03175 
v 0.00288155 0.0113669 0.00288155 
v 0.00262791 0.0109182 0.00262791 
v 0.00205545 0.0102801 0.03175 
v 0.00251691 0.0107875 0.00251691 
v 0.00218345 0.010395 0.00218345 
v 0.0014872 0.00989485 0.03175 
v 0.00204693 0.0102912 0.00204693 
v 0.00163688 0.00997948 0.00163688 
v 0.000849402 0.00964073 0.03175 
v 0.00147964 0.00991184 0.00147964 
v 0.00100665 0.00970837 0.00100665 
v 0.000171891 0.00952966 0.03175 
v 0.000849402 0.00964073 0.000849402 
v 0.000339635 0.00957127 0.000339635 
v 0 0.009525 0 
v 0.000169629 0.00954811 -0.000169629 
v 0.000169629 0.00954811 0.000169629 
v 0.000339635 0.00957127 -0.000339635 
v 0.000849402 0.00964073 -0.000849402 
v 0.00100665 0.00970837 -0.00100665 
v 0.00147964 0.00991184 -0.00147964 
v 0.00163688 0.00997948 -0.00163688 
v 0.00204693 0.0102912 -0.00204693 
v 0.00218345 0.010395 -0.00218345 
v 0.00251691 0.0107875 -0.00251691 
v 0.00262791 0.0109182 -0.00262791 
v 0.00288155 0.0113669 -0.00288155 
v 0.0029495 0.0115248 -0.0029495 
v 0.00310077 0.0120175 -0.00310077 
v 0.00316453 0.0124423 -0.00316453 
v 0.003175 0.0127 -0.003175 
v 0.00312627 0.0121874 -0.00312627 
v 0.00316338 0.0128714 -0.00316338 
v 0.00314593 0.0131286 -0.00314593 
v 0.00310077 0.0133825 -0.00310077 
v 0.00305927 0.0135494 -0.00305927 
v 0.00288155 0.0140331 -0.00288155 
v 0.00280515 0.0141872 -0.00280515 
v 0.0025276 0.0146214 -0.0025276 
v 0.00240968 0.0147459 -0.00240968 
v 0.00205545 0.0151199 -0.00205545 
v 0.00191351 0.0152161 -0.00191351 
v 0.0014872 0.0155052 -0.0014872 
v 0.00132787 0.0155686 -0.00132787 
v 0.000849402 0.0157593 -0.000849402 
v 0.000679774 0.0157824 -0.000679774 
v 3.46945e-18 0.015875 -6.93889e-18 
v 0.000169629 0.0158519 -0.000169629 
v 3.03577e-18 0.0127 0.03175 
v 0.0254 0.00954361 0.000343278 
v 0.0254 0.0096912 0.00101378 
v 0.0254 0.00997948 0.00163688 
v 0.0254 0.010395 0.00218345 
v 0.0254 0.0109182 0.00262791 
v 0.0254 0.0115248 0.0029495 
v 0.0254 0.0121863 0.00313317 
v 0.0254 0.0135494 0.00305927 
v 0.0254 0.0128719 0.00317034 
v 0.0254 0.0141872 0.00280515 
v 0.0254 0.0147555 0.00241986 
v 0.0254 0.0152276 0.00192143 
v 0.0254 0.0155816 0.00133315 
v 0.0254 0.0158008 0.000682531 
v 0.0254 0.015875 0 
v 0.0254 0.0158008 -0.000682531 
v 0.0254 0.0155816 -0.00133315 
v 0.0254 0.0152276 -0.00192143 
v 0.0254 0.0147555 -0.00241986 
v 0.0254 0.0141872 -0.00280515 
v 0.0254 0.0135494 -0.00305927 
v 0.0254 0.0121863 -0.00313317 
v 0.0254 0.0128719 -0.00317034 
v 0.0254 0.0115248 -0.0029495 
v 0.0254 0.0109182 -0.00262791 
v 0.0254 0.010395 -0.00218345 
v 0.0254 0.00997948 -0.00163688 
v 0.0254 0.0096912 -0.00101378 
v 0.0254 0.00954361 -0.000343278 
v 0.0254 0.009525 -3.88825e-19 
v 0.0254 0.0127 0 
v -0.0381 0.0254 0.0333375 
v -0.0381 0 0.0333375 
v 0.0381 0 0.0333375 
v 0.0381 0.0254 0.0333375 
v -0.0381 0.0254 -0.03175 
v -0.0381 0 -0.03175 
v 0.0381 0.0254 -0.03175 
v 0.0381 0 -0.03175 
vn 1.82123e-16 0 1 
vn 0.370138 0.928977 -6.74107e-17 
vn 0.161782 0.986827 -2.94643e-17 
vn 0.561187 0.827689 -1.02205e-16 
vn 0.370138 0.928977 -6.74107e-17 
vn 0.725995 0.687699 -1.32221e-16 
vn 0.561187 0.827689 -1.02205e-16 
vn 0.856857 0.515554 -1.56054e-16 
vn 0.725995 0.687699 -1.32221e-16 
vn 0.947653 0.319302 -1.7259e-16 
vn 0.856857 0.515554 -1.56054e-16 
vn 0.994138 0.108119 -1.81056e-16 
vn 0.947653 0.319302 -1.7259e-16 
vn 0.994138 -0.108119 -1.81056e-16 
vn 0.994138 0.108119 -1.81056e-16 
vn 0.947653 -0.319302 -1.7259e-16 
vn 0.994138 -0.108119 -1.81056e-16 
vn 0.856857 -0.515554 -1.56054e-16 
vn 0.947653 -0.319302 -1.7259e-16 
vn 0.725995 -0.687699 -1.32221e-16 
vn 0.856857 -0.515554 -1.56054e-16 
vn 0.561187 -0.827689 -1.02205e-16 
vn 0.725995 -0.687699 -1.32221e-16 
vn 0.370138 -0.928977 -6.74107e-17 
vn 0.561187 -0.827689 -1.02205e-16 
vn 0.161782 -0.986827 -2.94643e-17 
vn 0.370138 -0.928977 -6.74107e-17 
vn -0.0541389 -0.998533 9.85995e-18 
vn -0.21497 -0.976621 0 
vn -0.26714 -0.963658 0 
vn -0.0539398 -0.998544 0 
vn -0.267528 -0.96355 4.87231e-17 
vn -0.420255 -0.907406 0 
vn -0.468408 -0.883512 0 
vn -0.605339 -0.795968 0 
vn -0.647386 -0.762162 0 
vn -0.7623 -0.647224 0 
vn -0.796093 -0.605174 0 
vn -0.883512 -0.468408 0 
vn -0.907575 -0.419889 0 
vn -0.96355 -0.267528 0 
vn -0.976614 -0.214999 0 
vn -1 2.44929e-16 1.82123e-16 
vn -0.976621 -0.21497 1.77865e-16 
vn -0.998533 -0.0541389 0 
vn -0.990846 -0.135 0 
vn -0.976621 0.21497 1.77865e-16 
vn -0.996701 0.0811587 0 
vn -0.986827 0.161782 0 
vn -1 -2.98477e-05 0 
vn -0.907575 0.419889 1.65291e-16 
vn -0.976621 0.21497 0 
vn -0.928977 0.370138 0 
vn -0.796093 0.605174 1.44987e-16 
vn -0.907575 0.419889 0 
vn -0.827689 0.561187 0 
vn -0.647386 0.762162 1.17904e-16 
vn -0.796223 0.605003 0 
vn -0.687699 0.725995 0 
vn -0.468408 0.883512 8.5308e-17 
vn -0.647545 0.762027 0 
vn -0.515554 0.856857 0 
vn -0.267528 0.96355 4.87231e-17 
vn -0.468766 0.883322 0 
vn -0.318918 0.947782 0 
vn -0.0541389 0.998533 9.85995e-18 
vn -0.267528 0.96355 0 
vn -0.10792 0.99416 0 
vn -7.04481e-16 1 0 
vn -0.0537403 0.998555 0 
vn -0.0541389 0.998533 9.85995e-18 
vn -0.10792 0.99416 0 
vn -0.267528 0.96355 0 
vn -0.318918 0.947782 0 
vn -0.468766 0.883322 0 
vn -0.468408 0.883512 8.5308e-17 
vn -0.515554 0.856857 0 
vn -0.647545 0.762027 0 
vn -0.647386 0.762162 1.17904e-16 
vn -0.687699 0.725995 0 
vn -0.796223 0.605003 0 
vn -0.796093 0.605174 1.44987e-16 
vn -0.827689 0.561187 0 
vn -0.907575 0.419889 0 
vn -0.928977 0.370138 0 
vn -0.976621 0.21497 0 
vn -0.996701 0.0811587 0 
vn -1 0 0 
vn -0.986822 0.161811 0 
vn -0.976621 -0.21497 1.77865e-16 
vn -1 2.44929e-16 1.82123e-16 
vn -0.998535 -0.0541091 0 
vn -0.990846 -0.135 0 
vn -0.907575 -0.419889 1.65291e-16 
vn -0.976621 -0.21497 0 
vn -0.96355 -0.267528 0 
vn -0.796093 -0.605174 1.44987e-16 
vn -0.907575 -0.419889 0 
vn -0.883512 -0.468408 0 
vn -0.647386 -0.762162 1.17904e-16 
vn -0.796093 -0.605174 0 
vn -0.7623 -0.647224 0 
vn -0.468408 -0.883512 8.5308e-17 
vn -0.647386 -0.762162 0 
vn -0.605339 -0.795968 0 
vn -0.267528 -0.96355 4.87231e-17 
vn -0.468408 -0.883512 0 
vn -0.420073 -0.907491 0 
vn -0.0541389 -0.998533 9.85995e-18 
vn -0.267528 -0.96355 0 
vn -0.21536 -0.976535 0 
vn -2.94781e-15 -1 0 
vn 0.161782 -0.986827 -2.94643e-17 
vn -0.0537403 -0.998555 0 
vn -1.82123e-16 0 -1 
vn 0 0.994138 -0.108119 
vn 0 0.96355 -0.267528 
vn 0 0.947782 -0.318918 
vn 0 0.99416 -0.10792 
vn 0 0.947653 -0.319302 
vn 0 0.883322 -0.468766 
vn 0 0.856857 -0.515554 
vn 0 0.762027 -0.647545 
vn 0 0.725995 -0.687699 
vn 0 0.605003 -0.796223 
vn 0 0.561187 -0.827689 
vn 0 0.419889 -0.907575 
vn 0 0.370138 -0.928977 
vn 0 0.21497 -0.976621 
vn 0 0.161782 -0.986827 
vn 0 -2.98477e-05 -1 
vn 0 -0.0541389 -0.998533 
vn 0 0.0811587 -0.996701 
vn 0 -0.267528 -0.96355 
vn 0 -0.135 -0.990846 
vn 0 -0.214999 -0.976614 
vn 0 -0.0541389 -0.998533 
vn 0 -0.468408 -0.883512 
vn 0 -0.267528 -0.96355 
vn 0 -0.419889 -0.907575 
vn 0 -0.647386 -0.762162 
vn 0 -0.468408 -0.883512 
vn 0 -0.605174 -0.796093 
vn 0 -0.796093 -0.605174 
vn 0 -0.647224 -0.7623 
vn 0 -0.762162 -0.647386 
vn 0 -0.907575 -0.419889 
vn 0 -0.795968 -0.605339 
vn 0 -0.883512 -0.468408 
vn 0 -0.976621 -0.21497 
vn 0 -0.907406 -0.420255 
vn 0 -0.963658 -0.26714 
vn 0 -1 -2.44929e-16 
vn 0 -0.976621 -0.21497 
vn 0 -0.998544 -0.0539398 
vn 0 -0.998555 0.0537403 
vn 0 -0.976535 0.21536 
vn 0 -1 1.96005e-15 
vn 0 -0.976621 0.21497 
vn 0 -0.96355 0.267528 
vn 0 -0.907491 0.420073 
vn 0 -0.907575 0.419889 
vn 0 -0.883512 0.468408 
vn 0 -0.795968 0.605339 
vn 0 -0.796093 0.605174 
vn 0 -0.762162 0.647386 
vn 0 -0.647224 0.7623 
vn 0 -0.647386 0.762162 
vn 0 -0.605174 0.796093 
vn 0 -0.468408 0.883512 
vn 0 -0.419889 0.907575 
vn 0 -0.267528 0.96355 
vn 0 -0.135 0.990846 
vn 0 -0.0541091 0.998535 
vn 0 -0.21497 0.976621 
vn 0 0.161782 0.986827 
vn 0 -0.0541389 0.998533 
vn 0 0 1 
vn 0 0.0811587 0.996701 
vn 0 0.370138 0.928977 
vn 0 0.161811 0.986822 
vn 0 0.21497 0.976621 
vn 0 0.561187 0.827689 
vn 0 0.370138 0.928977 
vn 0 0.419889 0.907575 
vn 0 0.725995 0.687699 
vn 0 0.561187 0.827689 
vn 0 0.605003 0.796223 
vn 0 0.856857 0.515554 
vn 0 0.725995 0.687699 
vn 0 0.762027 0.647545 
vn 0 0.947653 0.319302 
vn 0 0.856857 0.515554 
vn 0 0.883322 0.468766 
vn 0 0.994138 0.108119 
vn 0 0.947782 0.318918 
vn 0 0.96355 0.267528 
vn 0 1 1.22465e-16 
vn 0 0.99416 0.10792 
vn 0 0.998555 0.0537403 
vn 0 0.998555 -0.0537403 
vn 0 1 1.22465e-16 
vn -1 0 0 
vn 1.82123e-16 0 1 
vn -1.82123e-16 0 -1 
vn 0 1 0 
vn 1 0 0 
vn 0 -1 0 
usemtl 0.615686_0.811765_0.929412_0.000000_0.000000
o mesh0
f 30//1 1//1 2//1 
f 2//1 3//1 30//1 
f 3//1 4//1 30//1 
f 4//1 5//1 30//1 
f 5//1 6//1 30//1 
f 6//1 7//1 30//1 
f 7//1 8//1 30//1 
f 8//1 9//1 30//1 
f 9//1 10//1 30//1 
f 10//1 11//1 30//1 
f 11//1 12//1 30//1 
f 12//1 13//1 30//1 
f 13//1 14//1 30//1 
f 14//1 15//1 30//1 
f 15//1 16//1 30//1 
f 16//1 17//1 30//1 
f 17//1 18//1 30//1 
f 18//1 19//1 30//1 
f 19//1 20//1 30//1 
f 20//1 21//1 30//1 
f 21//1 22//1 30//1 
f 22//1 23//1 30//1 
f 23//1 24//1 30//1 
f 24//1 25//1 30//1 
f 25//1 26//1 30//1 
f 26//1 27//1 30//1 
f 27//1 28//1 30//1 
f 28//1 29//1 30//1 
f 29//1 1//1 30//1 
o mesh1
f 31//2 32//3 21//3 
f 33//4 31//2 20//5 
f 34//6 33//4 19//7 
f 35//8 34//6 18//9 
f 36//10 35//8 17//11 
f 37//12 36//10 16//13 
f 38//14 37//12 15//15 
f 39//16 38//14 14//17 
f 40//18 39//16 13//19 
f 41//20 40//18 12//21 
f 42//22 41//20 11//23 
f 43//24 42//22 10//25 
f 44//26 43//24 9//27 
f 45//28 46//29 47//30 
f 45//28 48//31 46//29 
f 49//32 50//33 51//34 
f 49//32 47//30 50//33 
f 52//34 53//35 54//36 
f 52//34 51//34 53//35 
f 55//36 56//37 57//38 
f 55//36 54//36 56//37 
f 58//38 59//39 60//40 
f 58//38 57//38 59//39 
f 61//40 62//41 63//42 
f 61//40 60//40 62//41 
f 64//43 65//44 66//45 
f 65//44 63//42 67//46 
f 67//46 66//45 65//44 
f 68//47 69//48 70//49 
f 68//47 64//43 71//50 
f 71//50 69//48 68//47 
f 72//51 68//47 73//52 
f 73//52 74//53 72//51 
f 75//54 72//51 76//55 
f 76//55 77//56 75//54 
f 78//57 75//54 79//58 
f 79//58 80//59 78//57 
f 81//60 78//57 82//61 
f 82//61 83//62 81//60 
f 84//63 81//60 85//64 
f 85//64 86//65 84//63 
f 87//66 84//63 88//67 
f 88//67 89//68 87//66 
f 21//3 90//69 91//70 
f 32//3 87//66 92//70 
f 92//70 90//69 32//3 
f 90//69 21//3 32//3 
f 22//71 93//72 94//73 
f 22//71 91//70 93//72 
f 23//73 95//74 96//75 
f 23//73 94//73 95//74 
f 24//76 97//77 98//78 
f 24//76 96//75 97//77 
f 25//79 99//80 100//81 
f 25//79 98//78 99//80 
f 26//82 101//83 102//84 
f 26//82 100//81 101//83 
f 27//84 103//85 104//86 
f 27//84 102//84 103//85 
f 28//86 105//87 106//88 
f 28//86 104//86 107//89 
f 107//89 105//87 28//86 
f 1//90 29//91 106//88 
f 106//88 108//92 1//90 
f 108//92 109//93 1//90 
f 2//94 1//90 110//95 
f 110//95 111//96 2//94 
f 3//97 2//94 112//98 
f 112//98 113//99 3//97 
f 4//100 3//97 114//101 
f 114//101 115//102 4//100 
f 5//103 4//100 116//104 
f 116//104 117//105 5//103 
f 6//106 5//103 118//107 
f 118//107 119//108 6//106 
f 7//109 6//106 120//110 
f 120//110 121//111 7//109 
f 44//26 122//112 48//31 
f 44//26 8//113 122//112 
f 8//113 7//109 123//114 
f 123//114 122//112 8//113 
f 48//31 45//28 44//26 
f 121//111 123//114 7//109 
f 119//108 120//110 6//106 
f 117//105 118//107 5//103 
f 115//102 116//104 4//100 
f 113//99 114//101 3//97 
f 111//96 112//98 2//94 
f 109//93 110//95 1//90 
f 106//88 29//91 28//86 
f 104//86 28//86 27//84 
f 102//84 27//84 26//82 
f 100//81 26//82 25//79 
f 98//78 25//79 24//76 
f 96//75 24//76 23//73 
f 94//73 23//73 22//71 
f 91//70 22//71 21//3 
f 89//68 92//70 87//66 
f 86//65 88//67 84//63 
f 83//62 85//64 81//60 
f 80//59 82//61 78//57 
f 77//56 79//58 75//54 
f 74//53 76//55 72//51 
f 70//49 73//52 68//47 
f 66//45 71//50 64//43 
f 63//42 65//44 61//40 
f 60//40 61//40 58//38 
f 57//38 58//38 55//36 
f 54//36 55//36 52//34 
f 51//34 52//34 49//32 
f 47//30 49//32 45//28 
f 9//27 8//113 44//26 
f 10//25 9//27 43//24 
f 11//23 10//25 42//22 
f 12//21 11//23 41//20 
f 13//19 12//21 40//18 
f 14//17 13//19 39//16 
f 15//15 14//17 38//14 
f 16//13 15//15 37//12 
f 17//11 16//13 36//10 
f 18//9 17//11 35//8 
f 19//7 18//9 34//6 
f 20//5 19//7 33//4 
f 21//3 20//5 31//2 
o mesh2
f 124//115 68//115 72//115 
f 72//115 75//115 124//115 
f 75//115 78//115 124//115 
f 78//115 81//115 124//115 
f 81//115 84//115 124//115 
f 84//115 87//115 124//115 
f 87//115 32//115 124//115 
f 32//115 31//115 124//115 
f 31//115 33//115 124//115 
f 33//115 34//115 124//115 
f 34//115 35//115 124//115 
f 35//115 36//115 124//115 
f 36//115 37//115 124//115 
f 37//115 38//115 124//115 
f 38//115 39//115 124//115 
f 39//115 40//115 124//115 
f 40//115 41//115 124//115 
f 41//115 42//115 124//115 
f 42//115 43//115 124//115 
f 43//115 44//115 124//115 
f 44//115 45//115 124//115 
f 45//115 49//115 124//115 
f 49//115 52//115 124//115 
f 52//115 55//115 124//115 
f 55//115 58//115 124//115 
f 58//115 61//115 124//115 
f 61//115 65//115 124//115 
f 65//115 64//115 124//115 
f 64//115 68//115 124//115 
o mesh3
f 125//116 88//117 86//118 
f 125//116 89//119 88//117 
f 126//120 85//121 83//122 
f 126//120 86//118 85//121 
f 127//122 82//123 80//124 
f 127//122 83//122 82//123 
f 128//124 79//125 77//126 
f 128//124 80//124 79//125 
f 129//126 76//127 74//128 
f 129//126 77//126 76//127 
f 130//128 73//129 70//130 
f 130//128 74//128 73//129 
f 131//130 71//131 66//132 
f 131//130 69//133 71//131 
f 131//130 70//130 69//133 
f 132//134 67//135 63//136 
f 132//134 133//137 66//132 
f 66//132 67//135 132//134 
f 134//138 132//134 62//139 
f 62//139 60//140 134//138 
f 135//141 134//138 59//142 
f 59//142 57//143 135//141 
f 136//144 135//141 56//145 
f 56//145 54//146 136//144 
f 137//147 136//144 53//148 
f 53//148 51//149 137//147 
f 138//150 137//147 50//151 
f 50//151 47//152 138//150 
f 139//153 138//150 46//154 
f 46//154 48//155 139//153 
f 139//153 123//156 121//157 
f 139//153 122//158 123//156 
f 140//159 120//160 119//161 
f 140//159 121//157 120//160 
f 141//162 118//163 117//164 
f 141//162 119//161 118//163 
f 142//165 116//166 115//167 
f 142//165 117//164 116//166 
f 143//168 114//169 113//170 
f 143//168 115//167 114//169 
f 144//170 112//171 111//172 
f 144//170 113//170 112//171 
f 145//172 109//173 108//174 
f 145//172 111//172 110//175 
f 110//175 109//173 145//172 
f 146//176 147//177 106//178 
f 106//178 105//179 146//176 
f 147//177 108//174 106//178 
f 148//180 146//176 107//181 
f 107//181 104//182 148//180 
f 149//183 148//180 103//184 
f 103//184 102//185 149//183 
f 150//186 149//183 101//187 
f 101//187 100//188 150//186 
f 151//189 150//186 99//190 
f 99//190 98//191 151//189 
f 152//192 151//189 97//193 
f 97//193 96//194 152//192 
f 153//195 152//192 95//196 
f 95//196 94//197 153//195 
f 154//198 153//195 93//199 
f 93//199 91//200 154//198 
f 154//198 92//201 89//119 
f 154//198 90//202 92//201 
f 89//119 125//116 154//198 
f 91//200 90//202 154//198 
f 94//197 93//199 153//195 
f 96//194 95//196 152//192 
f 98//191 97//193 151//189 
f 100//188 99//190 150//186 
f 102//185 101//187 149//183 
f 104//182 103//184 148//180 
f 105//179 107//181 146//176 
f 108//174 147//177 145//172 
f 111//172 145//172 144//170 
f 113//170 144//170 143//168 
f 115//167 143//168 142//165 
f 117//164 142//165 141//162 
f 119//161 141//162 140//159 
f 121//157 140//159 139//153 
f 48//155 122//158 139//153 
f 47//152 46//154 138//150 
f 51//149 50//151 137//147 
f 54//146 53//148 136//144 
f 57//143 56//145 135//141 
f 60//140 59//142 134//138 
f 63//136 62//139 132//134 
f 66//132 133//137 131//130 
f 70//130 131//130 130//128 
f 74//128 130//128 129//126 
f 77//126 129//126 128//124 
f 80//124 128//124 127//122 
f 83//122 127//122 126//120 
f 86//118 126//120 125//116 
o mesh4
f 155//203 125//203 126//203 
f 126//203 127//203 155//203 
f 127//203 128//203 155//203 
f 128//203 129//203 155//203 
f 129//203 130//203 155//203 
f 130//203 131//203 155//203 
f 131//203 133//203 155//203 
f 133//203 132//203 155//203 
f 132//203 134//203 155//203 
f 134//203 135//203 155//203 
f 135//203 136//203 155//203 
f 136//203 137//203 155//203 
f 137//203 138//203 155//203 
f 138//203 139//203 155//203 
f 139//203 140//203 155//203 
f 140//203 141//203 155//203 
f 141//203 142//203 155//203 
f 142//203 143//203 155//203 
f 143//203 144//203 155//203 
f 144//203 145//203 155//203 
f 145//203 147//203 155//203 
f 147//203 146//203 155//203 
f 146//203 148//203 155//203 
f 148//203 149//203 155//203 
f 149//203 150//203 155//203 
f 150//203 151//203 155//203 
f 151//203 152//203 155//203 
f 152//203 153//203 155//203 
f 153//203 154//203 155//203 
f 154//203 125//203 155//203 
o mesh5
f 156//204 157//204 158//204 
f 158//204 159//204 156//204 
o mesh6
f 160//203 161//203 157//203 
f 157//203 156//203 160//203 
o mesh7
f 162//205 163//205 161//205 
f 161//205 160//205 162//205 
o mesh8
f 162//206 160//206 156//206 
f 156//206 159//206 162//206 
o mesh9
f 159//207 158//207 163//207 
f 163//207 162//207 159//207 
o mesh10
f 161//208 163//208 158//208 
f 158//208 157//208 161//208 
