# OBJ generated by ONSHAPE BY PTC INC, 1.208 Units = meters
mtllib SlabBranchingChannelAirtight - selectorChannel.mtl
g selectorChannel
v 0.00682169 0.0111984 -0.02159 
v 0.00633941 0.00976707 -0.02159 
v 0.00556071 0.00847286 -0.02159 
v 0.00452199 0.0073763 -0.02159 
v 0.00327183 0.00652867 -0.02159 
v 0.00186869 0.0059696 -0.02159 
v 0.00037816 0.00572524 -0.02159 
v -0.00113005 0.00580702 -0.02159 
v -0.00258542 0.0062111 -0.02159 
v -0.00391989 0.00691859 -0.02159 
v -0.00507108 0.00789642 -0.02159 
v -0.00598515 0.00909886 -0.02159 
v -0.00661936 0.0104697 -0.02159 
v -0.00694405 0.0119448 -0.02159 
v -0.00694405 0.0134552 -0.02159 
v -0.00661936 0.0149303 -0.02159 
v -0.00598515 0.0163011 -0.02159 
v -0.00507108 0.0175036 -0.02159 
v -0.00391989 0.0184814 -0.02159 
v -0.00258542 0.0191889 -0.02159 
v -0.00113005 0.019593 -0.02159 
v 0.00037816 0.0196748 -0.02159 
v 0.00186869 0.0194304 -0.02159 
v 0.00327183 0.0188713 -0.02159 
v 0.00452199 0.0180237 -0.02159 
v 0.00556071 0.0169271 -0.02159 
v 0.00633941 0.0156329 -0.02159 
v 0.00682169 0.0142016 -0.02159 
v 0.006985 0.0127 -0.02159 
v -7.11237e-18 0.0127 -0.02159 
v 0.00327183 0.0188713 0.03302 
v 0.00186869 0.0194304 0.03302 
v 0.00037816 0.0196748 0.03302 
v -0.00113005 0.019593 0.03302 
v -0.00258542 0.0191889 0.03302 
v -0.00391989 0.0184814 0.03302 
v -0.00507108 0.0175036 0.03302 
v -0.00598515 0.0163011 0.03302 
v -0.00661936 0.0149303 0.03302 
v -0.00694405 0.0134552 0.03302 
v -0.00694405 0.0119448 0.03302 
v -0.00661936 0.0104697 0.03302 
v -0.00598515 0.00909886 0.03302 
v -0.00507108 0.00789642 0.03302 
v -0.00391989 0.00691859 0.03302 
v -0.00258542 0.0062111 0.03302 
v -0.00113005 0.00580702 0.03302 
v 0.00037816 0.00572524 0.03302 
v 0.00186869 0.0059696 0.03302 
v 0.006985 0.0127 -0.005715 
v 0.00692354 0.0117754 -0.00563971 
v 0.00682169 0.0111984 -0.00551421 
v 0.00665699 0.0105847 -0.0053091 
v 0.00633941 0.00976707 -0.00490502 
v 0.00620517 0.00949282 -0.00473024 
v 0.00561921 0.00855094 -0.0039302 
v 0.00555597 0.00847683 -0.00383272 
v 0.00498099 0.00780306 -0.00294639 
v 0.00327183 0.00652867 0.03302 
v 0.004424 0.00729787 0.00182062 
v 0.00452199 0.0073763 0.00207832 
v 0.00420304 0.00712105 0.00123957 
v 0.00401609 0.006985 1.27893e-06 
v 0.00406335 0.0070185 0.0006179 
v 0.00452199 0.0073763 -0.00207832 
v 0.00441123 0.00728416 -0.00182481 
v 0.00420238 0.00712055 -0.00123733 
v 0.00406335 0.0070185 -0.0006179 
v 0.00452199 0.0073763 0.03302 
v 0.00498099 0.00780306 0.00294639 
v 0.00555597 0.00847683 0.00383272 
v 0.00633941 0.00976707 0.03302 
v 0.00561921 0.00855094 0.0039302 
v 0.00620517 0.00949282 0.00473024 
v 0.00556071 0.00847286 0.03302 
v 0.00665699 0.0105847 0.0053091 
v 0.00682169 0.0111984 0.00551421 
v 0.00633941 0.00976707 0.00490502 
v 0.00682169 0.0111984 0.03302 
v 0.00692354 0.0117754 0.00563971 
v 0.006985 0.0127 0.005715 
v 0.00682169 0.0142016 0.03302 
v 0.006985 0.0127 0.03302 
v 0.00697814 0.0130094 0.00570662 
v 0.0069247 0.0136158 0.00564114 
v 0.00633941 0.0156329 0.03302 
v 0.00665468 0.0148226 0.0053062 
v 0.00644172 0.01537 0.0050352 
v 0.00682052 0.0142014 0.00551273 
v 0.00681562 0.0142289 0.00550669 
v 0.00556071 0.0169271 0.03302 
v 0.00633941 0.0156329 0.00490502 
v 0.00592466 0.0163998 0.00435576 
v 0.00452199 0.0180237 0.03302 
v 0.00530007 0.0172497 0.00345857 
v 0.0046784 0.0178868 0.00239967 
v 0.00554541 0.0169158 0.00381099 
v 0.0041998 0.0182814 -0.00122856 
v 0.00452199 0.0180237 -0.00207832 
v 0.00401609 0.018415 2.73802e-18 
v 0.00406399 0.018381 -0.00062208 
v 0.00406459 0.0183806 0.000625982 
v 0.0041998 0.0182814 0.00122856 
v 0.00452199 0.0180237 0.00207832 
v 0.00530007 0.0172497 -0.00345857 
v 0.00554541 0.0169158 -0.00381099 
v 0.0046784 0.0178868 -0.00239967 
v 0.00592466 0.0163998 -0.00435576 
v 0.00633941 0.0156329 -0.00490502 
v 0.00681447 0.0142284 -0.00550522 
v 0.00682169 0.0142016 -0.00551421 
v 0.00665513 0.0148212 -0.00530676 
v 0.00645168 0.015377 -0.00504927 
v 0.0069647 0.0130081 -0.00569013 
v 0.0069246 0.0136166 -0.00564101 
v 2.83338e-18 0.0127 0.03302 
v 0.02794 0.0142289 -0.00550669 
v 0.02794 0.0130094 -0.00570662 
v 0.02794 0.015377 -0.00504927 
v 0.02794 0.0163998 -0.00435576 
v 0.02794 0.0172497 -0.00345857 
v 0.02794 0.0178868 -0.00239967 
v 0.02794 0.0182814 -0.00122856 
v 0.02794 0.018415 0 
v 0.02794 0.0182814 0.00122856 
v 0.02794 0.0178868 0.00239967 
v 0.02794 0.0172497 0.00345857 
v 0.02794 0.0163998 0.00435576 
v 0.02794 0.015377 0.00504927 
v 0.02794 0.0142289 0.00550669 
v 0.02794 0.0130094 0.00570662 
v 0.02794 0.0117754 0.00563971 
v 0.02794 0.0105847 0.0053091 
v 0.02794 0.00949282 0.00473024 
v 0.02794 0.00855094 0.0039302 
v 0.02794 0.00780306 0.00294639 
v 0.02794 0.00728416 0.00182481 
v 0.02794 0.0070185 0.0006179 
v 0.02794 0.006985 -2.09966e-18 
v 0.02794 0.0070185 -0.0006179 
v 0.02794 0.00728416 -0.00182481 
v 0.02794 0.00780306 -0.00294639 
v 0.02794 0.00855094 -0.0039302 
v 0.02794 0.00949282 -0.00473024 
v 0.02794 0.0105847 -0.0053091 
v 0.02794 0.0117754 -0.00563971 
v 0.02794 0.0127 0 
vn -1.82123e-16 0 -1 
vn 0.468408 0.883512 -8.5308e-17 
vn 0.267528 0.96355 -4.87231e-17 
vn 0.0541389 0.998533 -9.85995e-18 
vn -0.161782 0.986827 2.94643e-17 
vn -0.370138 0.928977 6.74107e-17 
vn -0.561187 0.827689 1.02205e-16 
vn -0.725995 0.687699 1.32221e-16 
vn -0.856857 0.515554 1.56054e-16 
vn -0.947653 0.319302 1.7259e-16 
vn -0.994138 0.108119 1.81056e-16 
vn -0.994138 -0.108119 1.81056e-16 
vn -0.947653 -0.319302 1.7259e-16 
vn -0.856857 -0.515554 1.56054e-16 
vn -0.725995 -0.687699 1.32221e-16 
vn -0.561187 -0.827689 1.02205e-16 
vn -0.370138 -0.928977 6.74107e-17 
vn -0.161782 -0.986827 2.94643e-17 
vn 0.0541389 -0.998533 -9.85995e-18 
vn 0.267528 -0.96355 -4.87231e-17 
vn 0.468408 -0.883512 -8.5308e-17 
vn 0.976621 -0.21497 -1.77865e-16 
vn 1 0 -1.82123e-16 
vn 0.991201 -0.132367 0 
vn 0.907575 -0.419889 -1.65291e-16 
vn 0.976621 -0.21497 0 
vn 0.953041 -0.30284 0 
vn 0.796093 -0.605174 -1.44987e-16 
vn 0.907575 -0.419889 0 
vn 0.888357 -0.459153 0 
vn 0.804468 -0.593996 0 
vn 0.647386 -0.762162 -1.17904e-16 
vn 0.796118 -0.605141 0 
vn 0.713097 -0.701065 0 
vn 0.468408 -0.883512 -8.5308e-17 
vn 0.633587 -0.773671 0 
vn 0.647386 -0.762162 0 
vn 0.601724 -0.798704 0 
vn 0.57496 -0.818182 0 
vn 0.581725 -0.813386 0 
vn 0.647386 -0.762162 0 
vn 0.631529 -0.775353 0 
vn 0.601629 -0.798776 0 
vn 0.581725 -0.813386 0 
vn 0.647386 -0.762162 -1.17904e-16 
vn 0.713097 -0.701065 0 
vn 0.796118 -0.605141 0 
vn 0.907575 -0.419889 -1.65291e-16 
vn 0.804468 -0.593996 0 
vn 0.888357 -0.459153 0 
vn 0.796093 -0.605174 -1.44987e-16 
vn 0.953041 -0.30284 0 
vn 0.976621 -0.21497 0 
vn 0.907575 -0.419889 0 
vn 0.991201 -0.132367 0 
vn 1 0 0 
vn 0.976621 0.21497 -1.77865e-16 
vn 0.999018 0.0442955 0 
vn 0.991367 0.131116 0 
vn 0.907575 0.419889 -1.65291e-16 
vn 0.95271 0.303881 0 
vn 0.923792 0.382894 0 
vn 0.976619 0.214977 0 
vn 0.97575 0.218887 0 
vn 0.796093 0.605174 -1.44987e-16 
vn 0.907575 0.419889 0 
vn 0.848198 0.52968 0 
vn 0.647386 0.762162 -1.17904e-16 
vn 0.758778 0.651349 0 
vn 0.669778 0.742562 0 
vn 0.79607 0.605204 0 
vn 0.60126 0.799053 0 
vn 0.647386 0.762162 0 
vn 0.57496 0.818182 0 
vn 0.581816 0.81332 0 
vn 0.581902 0.813259 0 
vn 0.60126 0.799053 0 
vn 0.647386 0.762162 0 
vn 0.758778 0.651349 0 
vn 0.79607 0.605204 0 
vn 0.669778 0.742562 0 
vn 0.796093 0.605174 -1.44987e-16 
vn 0.848198 0.52968 0 
vn 0.907575 0.419889 0 
vn 0.975757 0.218855 0 
vn 0.976621 0.21497 0 
vn 0.952774 0.30368 0 
vn 0.923647 0.383243 0 
vn 0.976621 0.21497 -1.77865e-16 
vn 0.999023 0.0441904 0 
vn 0.991352 0.131226 0 
vn 1.82123e-16 0 1 
vn 0 0.267528 -0.96355 
vn 0 0.160387 -0.987054 
vn 0 0.262742 -0.964866 
vn 0 0.0541389 -0.998533 
vn 0 0.0540626 -0.998538 
vn 0 0.468408 -0.883512 
vn 0 0.267515 -0.963554 
vn 0 0.371165 -0.928567 
vn 0 0.647386 -0.762162 
vn 0 0.468408 -0.883512 
vn 0 0.513198 -0.85827 
vn 0 0.796093 -0.605174 
vn 0 0.647386 -0.762162 
vn 0 0.741829 -0.670589 
vn 0 0.907575 -0.419889 
vn 0 0.796093 -0.605174 
vn 0 0.976621 -0.21497 
vn 0 0.907575 -0.419889 
vn 0 0.931531 -0.363661 
vn 0 1 0 
vn 0 0.976621 -0.21497 
vn 0 0.994058 -0.10885 
vn 0 0.993983 0.109533 
vn 0 0.976621 0.21497 
vn 0 1 0 
vn 0 0.931531 0.363661 
vn 0 0.907575 0.419889 
vn 0 0.796093 0.605174 
vn 0 0.741829 0.670589 
vn 0 0.647386 0.762162 
vn 0 0.513198 0.85827 
vn 0 0.468474 0.883477 
vn 0 0.468408 0.883512 
vn 0 0.37141 0.928469 
vn 0 0.267528 0.96355 
vn 0 0.160253 0.987076 
vn 0 0.0541389 0.998533 
vn 0 0.262773 0.964858 
vn 0 -3.03539e-16 1 
vn 0 -0.161782 0.986827 
vn 0 -0.370138 0.928977 
vn 0 -0.262742 0.964866 
vn 0 -0.561187 0.827689 
vn 0 -0.370138 0.928977 
vn 0 -0.513198 0.85827 
vn 0 -0.725995 0.687699 
vn 0 -0.561187 0.827689 
vn 0 -0.856857 0.515554 
vn 0 -0.725995 0.687699 
vn 0 -0.74051 0.672046 
vn 0 -0.947653 0.319302 
vn 0 -0.856857 0.515554 
vn 0 -0.931531 0.363661 
vn 0 -0.994138 0.108119 
vn 0 -0.94763 0.319369 
vn 0 -0.976194 0.216898 
vn 0 -1 -3.67394e-16 
vn 0 -0.994138 0.108119 
vn 0 -1 0.000223785 
vn 0 -0.994138 -0.108119 
vn 0 -0.976281 -0.216506 
vn 0 -0.947653 -0.319302 
vn 0 -0.931531 -0.363661 
vn 0 -0.856857 -0.515554 
vn 0 -0.74051 -0.672046 
vn 0 -0.725995 -0.687699 
vn 0 -0.561187 -0.827689 
vn 0 -0.513198 -0.85827 
vn 0 -0.370138 -0.928977 
vn 0 -0.262742 -0.964866 
vn 0 -0.161782 -0.986827 
vn 0 1.51769e-15 -1 
vn 1 0 0 
usemtl 0.647059_0.647059_0.647059_0.000000_0.000000
o mesh0
f 30//1 1//1 2//1 
f 2//1 3//1 30//1 
f 3//1 4//1 30//1 
f 4//1 5//1 30//1 
f 5//1 6//1 30//1 
f 6//1 7//1 30//1 
f 7//1 8//1 30//1 
f 8//1 9//1 30//1 
f 9//1 10//1 30//1 
f 10//1 11//1 30//1 
f 11//1 12//1 30//1 
f 12//1 13//1 30//1 
f 13//1 14//1 30//1 
f 14//1 15//1 30//1 
f 15//1 16//1 30//1 
f 16//1 17//1 30//1 
f 17//1 18//1 30//1 
f 18//1 19//1 30//1 
f 19//1 20//1 30//1 
f 20//1 21//1 30//1 
f 21//1 22//1 30//1 
f 22//1 23//1 30//1 
f 23//1 24//1 30//1 
f 24//1 25//1 30//1 
f 25//1 26//1 30//1 
f 26//1 27//1 30//1 
f 27//1 28//1 30//1 
f 28//1 29//1 30//1 
f 29//1 1//1 30//1 
o mesh1
f 31//2 24//2 23//3 
f 32//3 23//3 22//4 
f 33//4 22//4 21//5 
f 34//5 21//5 20//6 
f 35//6 20//6 19//7 
f 36//7 19//7 18//8 
f 37//8 18//8 17//9 
f 38//9 17//9 16//10 
f 39//10 16//10 15//11 
f 40//11 15//11 14//12 
f 41//12 14//12 13//13 
f 42//13 13//13 12//14 
f 43//14 12//14 11//15 
f 44//15 11//15 10//16 
f 45//16 10//16 9//17 
f 46//17 9//17 8//18 
f 47//18 8//18 7//19 
f 48//19 7//19 6//20 
f 49//20 6//20 5//21 
f 1//22 29//23 50//23 
f 50//23 51//24 1//22 
f 2//25 1//22 52//26 
f 52//26 53//27 2//25 
f 3//28 2//25 54//29 
f 54//29 55//30 3//28 
f 55//30 56//31 3//28 
f 4//32 3//28 57//33 
f 57//33 58//34 4//32 
f 59//35 60//36 61//37 
f 59//35 62//38 60//36 
f 59//35 5//21 63//39 
f 63//39 64//40 59//35 
f 64//40 62//38 59//35 
f 5//21 4//32 65//41 
f 65//41 66//42 5//21 
f 66//42 67//43 5//21 
f 67//43 68//44 5//21 
f 68//44 63//39 5//21 
f 69//45 70//46 71//47 
f 69//45 61//37 70//46 
f 72//48 73//49 74//50 
f 75//51 71//47 73//49 
f 73//49 72//48 75//51 
f 72//48 76//52 77//53 
f 72//48 78//54 76//52 
f 79//53 80//55 81//56 
f 79//53 77//53 80//55 
f 82//57 83//56 81//56 
f 81//56 84//58 82//57 
f 84//58 85//59 82//57 
f 86//60 87//61 88//62 
f 86//60 82//57 89//63 
f 89//63 90//64 86//60 
f 90//64 87//61 86//60 
f 91//65 86//60 92//66 
f 92//66 93//67 91//65 
f 94//68 95//69 96//70 
f 94//68 91//65 97//71 
f 97//71 95//69 94//68 
f 24//2 98//72 99//73 
f 24//2 100//74 101//75 
f 101//75 98//72 24//2 
f 31//2 102//76 100//74 
f 31//2 103//77 102//76 
f 31//2 94//68 104//78 
f 104//78 103//77 31//2 
f 100//74 24//2 31//2 
f 25//78 105//79 106//80 
f 25//78 99//73 107//81 
f 107//81 105//79 25//78 
f 26//82 108//83 109//84 
f 26//82 106//80 108//83 
f 27//84 110//85 111//86 
f 27//84 112//87 110//85 
f 27//84 109//84 113//88 
f 113//88 112//87 27//84 
f 28//89 114//90 50//23 
f 28//89 115//91 114//90 
f 28//89 111//86 115//91 
f 50//23 29//23 28//89 
f 111//86 28//89 27//84 
f 109//84 27//84 26//82 
f 106//80 26//82 25//78 
f 99//73 25//78 24//2 
f 96//70 104//78 94//68 
f 93//67 97//71 91//65 
f 88//62 92//66 86//60 
f 85//59 89//63 82//57 
f 81//56 83//56 79//53 
f 77//53 79//53 72//48 
f 74//50 78//54 72//48 
f 71//47 75//51 69//45 
f 61//37 69//45 59//35 
f 58//34 65//41 4//32 
f 56//31 57//33 3//28 
f 53//27 54//29 2//25 
f 51//24 52//26 1//22 
f 5//21 59//35 49//20 
f 6//20 49//20 48//19 
f 7//19 48//19 47//18 
f 8//18 47//18 46//17 
f 9//17 46//17 45//16 
f 10//16 45//16 44//15 
f 11//15 44//15 43//14 
f 12//14 43//14 42//13 
f 13//13 42//13 41//12 
f 14//12 41//12 40//11 
f 15//11 40//11 39//10 
f 16//10 39//10 38//9 
f 17//9 38//9 37//8 
f 18//8 37//8 36//7 
f 19//7 36//7 35//6 
f 20//6 35//6 34//5 
f 21//5 34//5 33//4 
f 22//4 33//4 32//3 
f 23//3 32//3 31//2 
o mesh2
f 116//92 82//92 86//92 
f 86//92 91//92 116//92 
f 91//92 94//92 116//92 
f 94//92 31//92 116//92 
f 31//92 32//92 116//92 
f 32//92 33//92 116//92 
f 33//92 34//92 116//92 
f 34//92 35//92 116//92 
f 35//92 36//92 116//92 
f 36//92 37//92 116//92 
f 37//92 38//92 116//92 
f 38//92 39//92 116//92 
f 39//92 40//92 116//92 
f 40//92 41//92 116//92 
f 41//92 42//92 116//92 
f 42//92 43//92 116//92 
f 43//92 44//92 116//92 
f 44//92 45//92 116//92 
f 45//92 46//92 116//92 
f 46//92 47//92 116//92 
f 47//92 48//92 116//92 
f 48//92 49//92 116//92 
f 49//92 59//92 116//92 
f 59//92 69//92 116//92 
f 69//92 75//92 116//92 
f 75//92 72//92 116//92 
f 72//92 79//92 116//92 
f 79//92 83//92 116//92 
f 83//92 82//92 116//92 
o mesh3
f 117//93 115//94 111//95 
f 117//93 118//96 114//97 
f 114//97 115//94 117//93 
f 119//98 117//93 110//99 
f 110//99 112//100 119//98 
f 120//101 119//98 113//102 
f 113//102 109//103 120//101 
f 121//104 120//101 108//105 
f 108//105 106//106 121//104 
f 122//107 121//104 105//108 
f 123//109 122//107 107//110 
f 107//110 99//111 123//109 
f 124//112 123//109 98//113 
f 98//113 101//114 124//112 
f 124//112 102//115 103//116 
f 124//112 100//117 102//115 
f 125//116 104//118 96//119 
f 125//116 103//116 104//118 
f 126//119 96//119 95//120 
f 127//120 97//121 93//122 
f 127//120 95//120 97//121 
f 128//122 92//123 88//124 
f 128//122 93//122 92//123 
f 129//125 87//126 90//127 
f 129//125 88//124 87//126 
f 130//127 85//128 84//129 
f 130//127 90//127 89//130 
f 89//130 85//128 130//127 
f 131//129 84//129 81//131 
f 81//131 132//132 131//129 
f 133//133 132//132 80//132 
f 80//132 77//134 133//133 
f 134//135 133//133 76//136 
f 76//136 78//137 134//135 
f 135//138 134//135 74//139 
f 136//140 135//138 73//141 
f 73//141 71//142 136//140 
f 137//143 136//140 70//144 
f 70//144 61//145 137//143 
f 138//146 137//143 60//147 
f 60//147 62//148 138//146 
f 139//149 138//146 64//150 
f 139//149 63//151 68//152 
f 68//152 140//152 139//149 
f 140//152 67//153 66//154 
f 140//152 68//152 67//153 
f 141//154 65//155 58//156 
f 141//154 66//154 65//155 
f 142//156 57//157 56//158 
f 142//156 58//156 57//157 
f 143//158 56//158 55//159 
f 144//159 54//160 53//161 
f 144//159 55//159 54//160 
f 145//161 52//162 51//163 
f 145//161 53//161 52//162 
f 146//163 51//163 50//164 
f 50//164 118//96 146//163 
f 50//164 114//97 118//96 
f 51//163 146//163 145//161 
f 53//161 145//161 144//159 
f 55//159 144//159 143//158 
f 56//158 143//158 142//156 
f 58//156 142//156 141//154 
f 66//154 141//154 140//152 
f 64//150 63//151 139//149 
f 62//148 64//150 138//146 
f 61//145 60//147 137//143 
f 71//142 70//144 136//140 
f 74//139 73//141 135//138 
f 78//137 74//139 134//135 
f 77//134 76//136 133//133 
f 81//131 80//132 132//132 
f 84//129 131//129 130//127 
f 90//127 130//127 129//125 
f 88//124 129//125 128//122 
f 93//122 128//122 127//120 
f 95//120 127//120 126//119 
f 96//119 126//119 125//116 
f 103//116 125//116 124//112 
f 101//114 100//117 124//112 
f 99//111 98//113 123//109 
f 105//108 107//110 122//107 
f 106//106 105//108 121//104 
f 109//103 108//105 120//101 
f 112//100 113//102 119//98 
f 111//95 110//99 117//93 
o mesh4
f 147//165 140//165 141//165 
f 141//165 142//165 147//165 
f 142//165 143//165 147//165 
f 143//165 144//165 147//165 
f 144//165 145//165 147//165 
f 145//165 146//165 147//165 
f 146//165 118//165 147//165 
f 118//165 117//165 147//165 
f 117//165 119//165 147//165 
f 119//165 120//165 147//165 
f 120//165 121//165 147//165 
f 121//165 122//165 147//165 
f 122//165 123//165 147//165 
f 123//165 124//165 147//165 
f 124//165 125//165 147//165 
f 125//165 126//165 147//165 
f 126//165 127//165 147//165 
f 127//165 128//165 147//165 
f 128//165 129//165 147//165 
f 129//165 130//165 147//165 
f 130//165 131//165 147//165 
f 131//165 132//165 147//165 
f 132//165 133//165 147//165 
f 133//165 134//165 147//165 
f 134//165 135//165 147//165 
f 135//165 136//165 147//165 
f 136//165 137//165 147//165 
f 137//165 138//165 147//165 
f 138//165 139//165 147//165 
f 139//165 140//165 147//165 
