# OBJ generated by ONSHAPE BY PTC INC, 1.214 Units = meters
mtllib tacIL_gripper_v2_with_selectors - selector_B1.mtl
g selector_B1
v 0.00101976 -0.0517573 -0.013 
v 0.00110653 -0.0514448 -0.013 
v 0.00125847 -0.0511582 -0.013 
v 0.00146845 -0.050911 -0.013 
v 0.00172667 -0.0507147 -0.013 
v 0.00202105 -0.0505785 -0.013 
v 0.00233782 -0.0505088 -0.013 
v 0.00266218 -0.0505088 -0.013 
v 0.00297895 -0.0505785 -0.013 
v 0.00327333 -0.0507147 -0.013 
v 0.00353155 -0.050911 -0.013 
v 0.00374153 -0.0511582 -0.013 
v 0.00389347 -0.0514448 -0.013 
v 0.00398024 -0.0517573 -0.013 
v 0.0039978 -0.0520812 -0.013 
v 0.00394532 -0.0524013 -0.013 
v 0.00382527 -0.0527026 -0.013 
v 0.00364324 -0.0529711 -0.013 
v 0.00340776 -0.0531941 -0.013 
v 0.00312983 -0.0533614 -0.013 
v 0.00282246 -0.0534649 -0.013 
v 0.0025 -0.0535 -0.013 
v 0.00217754 -0.0534649 -0.013 
v 0.00187017 -0.0533614 -0.013 
v 0.00159224 -0.0531941 -0.013 
v 0.00135676 -0.0529711 -0.013 
v 0.00117473 -0.0527026 -0.013 
v 0.00105468 -0.0524013 -0.013 
v 0.0010022 -0.0520812 -0.013 
v 0.001 -0.052 -0.013 
v 0.0025 -0.052 -0.013 
v 0.00282057 -0.0534563 -0.004 
v 0.00266218 -0.0534912 -0.004 
v 0.00312614 -0.0533534 -0.004 
v 0.00297895 -0.0534215 -0.004 
v 0.00340244 -0.0531871 -0.004 
v 0.00327333 -0.0532853 -0.004 
v 0.00363654 -0.0529654 -0.004 
v 0.00353155 -0.053089 -0.004 
v 0.0038175 -0.0526985 -0.004 
v 0.00374153 -0.0528418 -0.004 
v 0.00393685 -0.0523989 -0.004 
v 0.00389347 -0.0525552 -0.004 
v 0.00398902 -0.0520807 -0.004 
v 0.00398024 -0.0522427 -0.004 
v 0.00397156 -0.0517587 -0.004 
v 0.0039978 -0.0519188 -0.004 
v 0.0038853 -0.051448 -0.004 
v 0.00394532 -0.0515987 -0.004 
v 0.00373426 -0.0511632 -0.004 
v 0.00382527 -0.0512974 -0.004 
v 0.0035255 -0.0509174 -0.004 
v 0.00364324 -0.0510289 -0.004 
v 0.0032688 -0.0507222 -0.004 
v 0.00340776 -0.0508059 -0.004 
v 0.00312983 -0.0506386 -0.004 
v 0.00297614 -0.0505869 -0.004 
v 0.00266123 -0.0505175 -0.004 
v 0.00282246 -0.0505351 -0.004 
v 0.00233877 -0.0505175 -0.004 
v 0.0025 -0.0505 -0.004 
v 0.00202386 -0.0505869 -0.004 
v 0.00217754 -0.0505351 -0.004 
v 0.0017312 -0.0507222 -0.004 
v 0.00187017 -0.0506386 -0.004 
v 0.00159224 -0.0508059 -0.004 
v 0.0014745 -0.0509174 -0.004 
v 0.00135676 -0.0510289 -0.004 
v 0.00126574 -0.0511632 -0.004 
v 0.00117473 -0.0512974 -0.004 
v 0.0011147 -0.051448 -0.004 
v 0.00105468 -0.0515987 -0.004 
v 0.00102844 -0.0517587 -0.004 
v 0.00100658 -0.0520809 -0.004 
v 0.0010022 -0.0519188 -0.004 
v 0.001 -0.052 -0.004 
v 0.00101976 -0.0522427 -0.004 
v 0.00106315 -0.0523989 -0.004 
v 0.00110653 -0.0525552 -0.004 
v 0.0011825 -0.0526985 -0.004 
v 0.00125847 -0.0528418 -0.004 
v 0.00136346 -0.0529654 -0.004 
v 0.00146845 -0.053089 -0.004 
v 0.00159756 -0.0531871 -0.004 
v 0.00172667 -0.0532853 -0.004 
v 0.00187386 -0.0533534 -0.004 
v 0.00202105 -0.0534215 -0.004 
v 0.00217943 -0.0534563 -0.004 
v 0.0025 -0.0534912 -0.004 
v 0.00233782 -0.0534912 -0.004 
v 0.0025805 -0.048 -0.00149125 
v 0.0025 -0.048 -0.0015 
v 0.00289919 -0.048 -0.00143908 
v 0.00282246 -0.048 -0.00146493 
v 0.00319921 -0.048 -0.00131962 
v 0.00312983 -0.048 -0.00136136 
v 0.00346655 -0.048 -0.00113846 
v 0.00340776 -0.048 -0.00119414 
v 0.00368868 -0.048 -0.000904061 
v 0.00364324 -0.048 -0.000971079 
v 0.00385524 -0.048 -0.000627393 
v 0.00382527 -0.048 -0.000702613 
v 0.00395842 -0.048 -0.000321389 
v 0.00394532 -0.048 -0.000401293 
v 0.0039978 -0.048 -8.12084e-05 
v 0.00399342 -0.048 -3.56948e-07 
v 0.00398024 -0.048 0.000242673 
v 0.00395858 -0.048 0.000320692 
v 0.00389347 -0.048 0.000555207 
v 0.00385554 -0.048 0.000626745 
v 0.00368911 -0.048 0.000903493 
v 0.00374153 -0.048 0.000841781 
v 0.00346709 -0.048 0.00113799 
v 0.00353155 -0.048 0.00108899 
v 0.00319984 -0.048 0.00131928 
v 0.00327333 -0.048 0.00128529 
v 0.00289988 -0.048 0.00143889 
v 0.00297895 -0.048 0.00142148 
v 0.00258121 -0.048 0.00149121 
v 0.00266218 -0.048 0.00149121 
v 0.00225874 -0.048 0.0014738 
v 0.00233782 -0.048 0.00149121 
v 0.00194756 -0.048 0.00138748 
v 0.00172667 -0.048 0.00128529 
v 0.00202105 -0.048 0.00142148 
v 0.00166221 -0.048 0.00123628 
v 0.00146845 -0.048 0.00108899 
v 0.00141603 -0.048 0.00102728 
v 0.00125847 -0.048 0.000841781 
v 0.00122054 -0.048 0.000770242 
v 0.00110653 -0.048 0.000555207 
v 0.00108487 -0.048 0.000477188 
v 0.00101976 -0.048 0.000242673 
v 0.001 -0.048 1.73472e-18 
v 0.00101318 -0.048 0.000161822 
v 0.0010153 -0.048 -0.000161112 
v 0.00105468 -0.048 -0.000401293 
v 0.0010022 -0.048 -8.12084e-05 
v 0.00108465 -0.048 -0.000476512 
v 0.00117473 -0.048 -0.000702613 
v 0.00122017 -0.048 -0.000769631 
v 0.00135676 -0.048 -0.000971079 
v 0.00141554 -0.048 -0.00102676 
v 0.00166162 -0.048 -0.00123588 
v 0.00159224 -0.048 -0.00119414 
v 0.0019469 -0.048 -0.00138722 
v 0.00187017 -0.048 -0.00136136 
v 0.00225804 -0.048 -0.00147369 
v 0.00217754 -0.048 -0.00146493 
v 0.0025 -0.050452 -0.00351227 
v 0.00282246 -0.0504864 -0.00350543 
v 0.0025 -0.0503097 -0.00304329 
v 0.00282246 -0.0503421 -0.00302987 
v 0.0025 -0.0500787 -0.00261107 
v 0.00282246 -0.0501078 -0.00259159 
v 0.0025 -0.0497678 -0.00223223 
v 0.00282246 -0.0497926 -0.00220744 
v 0.0025 -0.0493889 -0.00192133 
v 0.00282246 -0.0494084 -0.00189217 
v 0.0025 -0.0489567 -0.0016903 
v 0.00282246 -0.0489701 -0.0016579 
v 0.0025 -0.0484877 -0.00154804 
v 0.00282246 -0.0484946 -0.00151364 
v 0.00312983 -0.0505879 -0.00348523 
v 0.00312983 -0.0504378 -0.00299024 
v 0.00312983 -0.0501939 -0.00253405 
v 0.00312983 -0.0498658 -0.0021342 
v 0.00312983 -0.0494659 -0.00180605 
v 0.00312983 -0.0490098 -0.00156222 
v 0.00312983 -0.0485148 -0.00141206 
v 0.00340776 -0.0507519 -0.0034526 
v 0.00340776 -0.0505923 -0.00292624 
v 0.00340776 -0.050333 -0.00244115 
v 0.00340776 -0.049984 -0.00201596 
v 0.00340776 -0.0495589 -0.00166701 
v 0.00340776 -0.0490738 -0.00140772 
v 0.00340776 -0.0485474 -0.00124805 
v 0.00364324 -0.0509707 -0.00340909 
v 0.00364324 -0.0507984 -0.00284088 
v 0.00364324 -0.0505185 -0.00231722 
v 0.00364324 -0.0501418 -0.00185823 
v 0.00364324 -0.0496828 -0.00148154 
v 0.00364324 -0.0491591 -0.00120164 
v 0.00364324 -0.0485909 -0.00102928 
v 0.00382527 -0.051234 -0.00335671 
v 0.00382527 -0.0510464 -0.00273814 
v 0.00382527 -0.0507417 -0.00216807 
v 0.00382527 -0.0503316 -0.0016684 
v 0.00382527 -0.0498319 -0.00125832 
v 0.00382527 -0.0492619 -0.000953611 
v 0.00382527 -0.0486433 -0.000765971 
v 0.00394532 -0.0515296 -0.00329793 
v 0.00394532 -0.0513248 -0.00262283 
v 0.00394532 -0.0509922 -0.00200067 
v 0.00394532 -0.0505447 -0.00145533 
v 0.00394532 -0.0499993 -0.00100778 
v 0.00394532 -0.0493772 -0.000675228 
v 0.00394532 -0.0487021 -0.000470441 
v 0.0039978 -0.0518435 -0.00323548 
v 0.0039978 -0.0516205 -0.00250034 
v 0.0039978 -0.0512584 -0.00182284 
v 0.0039978 -0.050771 -0.001229 
v 0.0039978 -0.0501772 -0.000741644 
v 0.0039978 -0.0494997 -0.000379509 
v 0.0039978 -0.0487645 -0.000156507 
v 0.00398024 -0.0521612 -0.0031723 
v 0.00398024 -0.0519197 -0.0023764 
v 0.00398024 -0.0515277 -0.0016429 
v 0.00398024 -0.051 -0.000999977 
v 0.00398024 -0.0503571 -0.000472346 
v 0.00398024 -0.0496236 -8.02813e-05 
v 0.00398024 -0.0488277 0.000161151 
v 0.00389347 -0.0524677 -0.00311132 
v 0.00389347 -0.0522085 -0.0022568 
v 0.00389347 -0.0517875 -0.00146926 
v 0.00389347 -0.051221 -0.000778982 
v 0.00389347 -0.0505307 -0.000212484 
v 0.00389347 -0.0497432 0.000208463 
v 0.00389347 -0.0488887 0.00046768 
v 0.00374153 -0.0527487 -0.00305542 
v 0.00374153 -0.0524732 -0.00214713 
v 0.00374153 -0.0520258 -0.00131005 
v 0.00374153 -0.0514237 -0.000576344 
v 0.00374153 -0.0506899 2.57934e-05 
v 0.00374153 -0.0498529 0.000473222 
v 0.00374153 -0.0489446 0.000748747 
v 0.00353155 -0.0529912 -0.00300719 
v 0.00353155 -0.0527016 -0.00205253 
v 0.00353155 -0.0522313 -0.00117271 
v 0.00353155 -0.0515985 -0.000401538 
v 0.00353155 -0.0508273 0.000231343 
v 0.00353155 -0.0499475 0.000701617 
v 0.00353155 -0.0489928 0.00099121 
v 0.00327333 -0.0531837 -0.00296889 
v 0.00327333 -0.052883 -0.00197741 
v 0.00327333 -0.0523946 -0.00106365 
v 0.00327333 -0.0517373 -0.000262739 
v 0.00327333 -0.0509363 0.000394555 
v 0.00327333 -0.0500226 0.000882967 
v 0.00327333 -0.0490311 0.00118373 
v 0.00297895 -0.0533173 -0.00294232 
v 0.00297895 -0.0530088 -0.00192529 
v 0.00297895 -0.0525078 -0.000987987 
v 0.00297895 -0.0518336 -0.000166435 
v 0.00297895 -0.051012 0.000507796 
v 0.00297895 -0.0500747 0.00100879 
v 0.00297895 -0.0490577 0.00131731 
v 0.00266218 -0.0533857 -0.00292872 
v 0.00266218 -0.0530732 -0.00189861 
v 0.00266218 -0.0525658 -0.000949249 
v 0.00266218 -0.0518829 -0.00011713 
v 0.00266218 -0.0510508 0.000565772 
v 0.00266218 -0.0501014 0.00107321 
v 0.00266218 -0.0490713 0.00138569 
v 0.00233782 -0.0533857 -0.00292872 
v 0.00233782 -0.0530732 -0.00189861 
v 0.00233782 -0.0525658 -0.000949249 
v 0.00233782 -0.0518829 -0.00011713 
v 0.00233782 -0.0510508 0.000565772 
v 0.00233782 -0.0501014 0.00107321 
v 0.00233782 -0.0490713 0.00138569 
v 0.00202105 -0.0533173 -0.00294232 
v 0.00202105 -0.0530088 -0.00192529 
v 0.00202105 -0.0525078 -0.000987987 
v 0.00202105 -0.0518336 -0.000166435 
v 0.00202105 -0.051012 0.000507796 
v 0.00202105 -0.0500747 0.00100879 
v 0.00202105 -0.0490577 0.00131731 
v 0.00172667 -0.0531837 -0.00296889 
v 0.00172667 -0.052883 -0.00197741 
v 0.00172667 -0.0523946 -0.00106365 
v 0.00172667 -0.0517373 -0.000262739 
v 0.00172667 -0.0509363 0.000394555 
v 0.00172667 -0.0500226 0.000882967 
v 0.00172667 -0.0490311 0.00118373 
v 0.00146845 -0.0529912 -0.00300719 
v 0.00146845 -0.0527016 -0.00205253 
v 0.00146845 -0.0522313 -0.00117271 
v 0.00146845 -0.0515985 -0.000401538 
v 0.00146845 -0.0508273 0.000231343 
v 0.00146845 -0.0499475 0.000701617 
v 0.00146845 -0.0489928 0.00099121 
v 0.00125847 -0.0527487 -0.00305542 
v 0.00125847 -0.0524732 -0.00214713 
v 0.00125847 -0.0520258 -0.00131005 
v 0.00125847 -0.0514237 -0.000576344 
v 0.00125847 -0.0506899 2.57934e-05 
v 0.00125847 -0.0498529 0.000473222 
v 0.00125847 -0.0489446 0.000748747 
v 0.00110653 -0.0524677 -0.00311132 
v 0.00110653 -0.0522085 -0.0022568 
v 0.00110653 -0.0517875 -0.00146926 
v 0.00110653 -0.051221 -0.000778982 
v 0.00110653 -0.0505307 -0.000212484 
v 0.00110653 -0.0497432 0.000208463 
v 0.00110653 -0.0488887 0.00046768 
v 0.00101976 -0.0521612 -0.0031723 
v 0.00101976 -0.0519197 -0.0023764 
v 0.00101976 -0.0515277 -0.0016429 
v 0.00101976 -0.051 -0.000999977 
v 0.00101976 -0.0503571 -0.000472346 
v 0.00101976 -0.0496236 -8.02813e-05 
v 0.00101976 -0.0488277 0.000161151 
v 0.0010022 -0.0518435 -0.00323548 
v 0.0010022 -0.0516205 -0.00250034 
v 0.0010022 -0.0512584 -0.00182284 
v 0.0010022 -0.050771 -0.001229 
v 0.0010022 -0.0501772 -0.000741644 
v 0.0010022 -0.0494997 -0.000379509 
v 0.0010022 -0.0487645 -0.000156507 
v 0.00105468 -0.0515296 -0.00329793 
v 0.00105468 -0.0513248 -0.00262283 
v 0.00105468 -0.0509922 -0.00200067 
v 0.00105468 -0.0505447 -0.00145533 
v 0.00105468 -0.0499993 -0.00100778 
v 0.00105468 -0.0493772 -0.000675228 
v 0.00105468 -0.0487021 -0.000470441 
v 0.00117473 -0.051234 -0.00335671 
v 0.00117473 -0.0510464 -0.00273814 
v 0.00117473 -0.0507417 -0.00216807 
v 0.00117473 -0.0503316 -0.0016684 
v 0.00117473 -0.0498319 -0.00125832 
v 0.00117473 -0.0492619 -0.000953611 
v 0.00117473 -0.0486433 -0.000765971 
v 0.00135676 -0.0509707 -0.00340909 
v 0.00135676 -0.0507984 -0.00284088 
v 0.00135676 -0.0505185 -0.00231722 
v 0.00135676 -0.0501418 -0.00185823 
v 0.00135676 -0.0496828 -0.00148154 
v 0.00135676 -0.0491591 -0.00120164 
v 0.00135676 -0.0485909 -0.00102928 
v 0.00159224 -0.0507519 -0.0034526 
v 0.00159224 -0.0505923 -0.00292624 
v 0.00159224 -0.050333 -0.00244115 
v 0.00159224 -0.049984 -0.00201596 
v 0.00159224 -0.0495589 -0.00166701 
v 0.00159224 -0.0490738 -0.00140772 
v 0.00159224 -0.0485474 -0.00124805 
v 0.00187017 -0.0505879 -0.00348523 
v 0.00187017 -0.0504378 -0.00299024 
v 0.00187017 -0.0501939 -0.00253405 
v 0.00187017 -0.0498658 -0.0021342 
v 0.00187017 -0.0494659 -0.00180605 
v 0.00187017 -0.0490098 -0.00156222 
v 0.00187017 -0.0485148 -0.00141206 
v 0.00217754 -0.0504864 -0.00350543 
v 0.00217754 -0.0503421 -0.00302987 
v 0.00217754 -0.0501078 -0.00259159 
v 0.00217754 -0.0497926 -0.00220744 
v 0.00217754 -0.0494084 -0.00189217 
v 0.00217754 -0.0489701 -0.0016579 
v 0.00217754 -0.0484946 -0.00151364 
v 0.004 0.001 -1.83697e-19 
v 0.00396493 0.001 -0.000322456 
v 0.00386136 0.001 -0.000629834 
v 0.00369414 0.001 -0.000907761 
v 0.00347108 0.001 -0.00114324 
v 0.00320261 0.001 -0.00132527 
v 0.00290129 0.001 -0.00144532 
v 0.00258121 0.001 -0.0014978 
v 0.00225733 0.001 -0.00148024 
v 0.00194479 0.001 -0.00139347 
v 0.00165822 0.001 -0.00124153 
v 0.00141101 0.001 -0.00103155 
v 0.00121471 0.001 -0.000773331 
v 0.00107852 0.001 -0.000478952 
v 0.00100879 0.001 -0.000162179 
v 0.00100879 0.001 0.000162179 
v 0.001 0.001 0 
v 0.00107852 0.001 0.000478952 
v 0.00121471 0.001 0.000773331 
v 0.00141101 0.001 0.00103155 
v 0.00165822 0.001 0.00124153 
v 0.00194479 0.001 0.00139347 
v 0.00225733 0.001 0.00148024 
v 0.00258121 0.001 0.0014978 
v 0.00290129 0.001 0.00144532 
v 0.00320261 0.001 0.00132527 
v 0.00347108 0.001 0.00114324 
v 0.00369414 0.001 0.000907761 
v 0.00386136 0.001 0.000629834 
v 0.00396493 0.001 0.000322456 
v 0.0065 0.0035 -1.83697e-19 
v 0.0065 0.00353507 0.000322456 
v 0.0065 0.00363864 0.000629834 
v 0.0065 0.00380586 0.000907761 
v 0.0065 0.00402892 0.00114324 
v 0.0065 0.00429739 0.00132527 
v 0.0065 0.00459871 0.00144532 
v 0.0065 0.00491879 0.0014978 
v 0.0065 0.00524267 0.00148024 
v 0.0065 0.00555521 0.00139347 
v 0.0065 0.00584178 0.00124153 
v 0.0065 0.00608899 0.00103155 
v 0.0065 0.00628529 0.000773331 
v 0.0065 0.00642148 0.000478952 
v 0.0065 0.0065 3.67394e-19 
v 0.0065 0.00649121 0.000162179 
v 0.0065 0.00649121 -0.000162179 
v 0.0065 0.00642148 -0.000478952 
v 0.0065 0.00628529 -0.000773331 
v 0.0065 0.00608899 -0.00103155 
v 0.0065 0.00584178 -0.00124153 
v 0.0065 0.00555521 -0.00139347 
v 0.0065 0.00524267 -0.00148024 
v 0.0065 0.00491879 -0.0014978 
v 0.0065 0.00459871 -0.00144532 
v 0.0065 0.00429739 -0.00132527 
v 0.0065 0.00402892 -0.00114324 
v 0.0065 0.00380586 -0.000907761 
v 0.0065 0.00363864 -0.000629834 
v 0.0065 0.00353507 -0.000322456 
v 0.00404804 0.00148773 1.83697e-19 
v 0.00401364 0.00149457 0.000322456 
v 0.0041903 0.00195671 1.83697e-19 
v 0.0041579 0.00197013 0.000322456 
v 0.00442133 0.00238893 1.83697e-19 
v 0.00439217 0.00240841 0.000322456 
v 0.00473223 0.00276777 1.83697e-19 
v 0.00470744 0.00279256 0.000322456 
v 0.00511107 0.00307867 1.83697e-19 
v 0.00509159 0.00310783 0.000322456 
v 0.00554329 0.0033097 1.83697e-19 
v 0.00552987 0.0033421 0.000322456 
v 0.00601227 0.00345196 1.83697e-19 
v 0.00600543 0.00348636 0.000322456 
v 0.00391206 0.00151477 0.000629834 
v 0.00406222 0.00200976 0.000629834 
v 0.00430605 0.00246595 0.000629834 
v 0.0046342 0.0028658 0.000629834 
v 0.00503405 0.00319395 0.000629834 
v 0.00549024 0.00343778 0.000629834 
v 0.00598523 0.00358794 0.000629834 
v 0.00374805 0.0015474 0.000907761 
v 0.00390772 0.00207376 0.000907761 
v 0.00416701 0.00255885 0.000907761 
v 0.00451596 0.00298404 0.000907761 
v 0.00494115 0.00333299 0.000907761 
v 0.00542624 0.00359228 0.000907761 
v 0.0059526 0.00375195 0.000907761 
v 0.00352928 0.00159091 0.00114324 
v 0.00370164 0.00215912 0.00114324 
v 0.00398154 0.00268278 0.00114324 
v 0.00435823 0.00314177 0.00114324 
v 0.00481722 0.00351846 0.00114324 
v 0.00534088 0.00379836 0.00114324 
v 0.00590909 0.00397072 0.00114324 
v 0.00326597 0.00164329 0.00132527 
v 0.00345361 0.00226186 0.00132527 
v 0.00375832 0.00283193 0.00132527 
v 0.0041684 0.0033316 0.00132527 
v 0.00466807 0.00374168 0.00132527 
v 0.00523814 0.00404639 0.00132527 
v 0.00585671 0.00423403 0.00132527 
v 0.00297044 0.00170207 0.00144532 
v 0.00317523 0.00237717 0.00144532 
v 0.00350778 0.00299933 0.00144532 
v 0.00395533 0.00354467 0.00144532 
v 0.00450067 0.00399222 0.00144532 
v 0.00512283 0.00432477 0.00144532 
v 0.00579793 0.00452956 0.00144532 
v 0.00265651 0.00176452 0.0014978 
v 0.00287951 0.00249966 0.0014978 
v 0.00324164 0.00317716 0.0014978 
v 0.003729 0.003771 0.0014978 
v 0.00432284 0.00425836 0.0014978 
v 0.00500034 0.00462049 0.0014978 
v 0.00573548 0.00484349 0.0014978 
v 0.00233885 0.0018277 0.00148024 
v 0.00258028 0.0026236 0.00148024 
v 0.00297235 0.0033571 0.00148024 
v 0.00349998 0.00400002 0.00148024 
v 0.0041429 0.00452765 0.00148024 
v 0.0048764 0.00491972 0.00148024 
v 0.0056723 0.00516115 0.00148024 
v 0.00203232 0.00188868 0.00139347 
v 0.00229154 0.0027432 0.00139347 
v 0.00271248 0.00353074 0.00139347 
v 0.00327898 0.00422102 0.00139347 
v 0.00396926 0.00478752 0.00139347 
v 0.0047568 0.00520846 0.00139347 
v 0.00561132 0.00546768 0.00139347 
v 0.00175125 0.00194458 0.00124153 
v 0.00202678 0.00285287 0.00124153 
v 0.00247421 0.00368995 0.00124153 
v 0.00307634 0.00442366 0.00124153 
v 0.00381005 0.00502579 0.00124153 
v 0.00464713 0.00547322 0.00124153 
v 0.00555542 0.00574875 0.00124153 
v 0.00150879 0.00199281 0.00103155 
v 0.00179838 0.00294747 0.00103155 
v 0.00226866 0.00382729 0.00103155 
v 0.00290154 0.00459846 0.00103155 
v 0.00367271 0.00523134 0.00103155 
v 0.00455253 0.00570162 0.00103155 
v 0.00550719 0.00599121 0.00103155 
v 0.00131627 0.00203111 0.000773331 
v 0.00161703 0.00302259 0.000773331 
v 0.00210545 0.00393635 0.000773331 
v 0.00276274 0.00473726 0.000773331 
v 0.00356365 0.00539455 0.000773331 
v 0.00447741 0.00588297 0.000773331 
v 0.00546889 0.00618373 0.000773331 
v 0.00118269 0.00205768 0.000478952 
v 0.00149121 0.00307471 0.000478952 
v 0.0019922 0.00401201 0.000478952 
v 0.00266643 0.00483357 0.000478952 
v 0.00348799 0.0055078 0.000478952 
v 0.00442529 0.00600879 0.000478952 
v 0.00544232 0.00631731 0.000478952 
v 0.00111431 0.00207128 0.000162179 
v 0.00142679 0.00310139 0.000162179 
v 0.00193423 0.00405075 0.000162179 
v 0.00261713 0.00488287 0.000162179 
v 0.00344925 0.00556577 0.000162179 
v 0.00439861 0.00607321 0.000162179 
v 0.00542872 0.00638569 0.000162179 
v 0.00111431 0.00207128 -0.000162179 
v 0.00142679 0.00310139 -0.000162179 
v 0.00193423 0.00405075 -0.000162179 
v 0.00261713 0.00488287 -0.000162179 
v 0.00344925 0.00556577 -0.000162179 
v 0.00439861 0.00607321 -0.000162179 
v 0.00542872 0.00638569 -0.000162179 
v 0.00118269 0.00205768 -0.000478952 
v 0.00149121 0.00307471 -0.000478952 
v 0.0019922 0.00401201 -0.000478952 
v 0.00266643 0.00483357 -0.000478952 
v 0.00348799 0.0055078 -0.000478952 
v 0.00442529 0.00600879 -0.000478952 
v 0.00544232 0.00631731 -0.000478952 
v 0.00131627 0.00203111 -0.000773331 
v 0.00161703 0.00302259 -0.000773331 
v 0.00210545 0.00393635 -0.000773331 
v 0.00276274 0.00473726 -0.000773331 
v 0.00356365 0.00539455 -0.000773331 
v 0.00447741 0.00588297 -0.000773331 
v 0.00546889 0.00618373 -0.000773331 
v 0.00150879 0.00199281 -0.00103155 
v 0.00179838 0.00294747 -0.00103155 
v 0.00226866 0.00382729 -0.00103155 
v 0.00290154 0.00459846 -0.00103155 
v 0.00367271 0.00523134 -0.00103155 
v 0.00455253 0.00570162 -0.00103155 
v 0.00550719 0.00599121 -0.00103155 
v 0.00175125 0.00194458 -0.00124153 
v 0.00202678 0.00285287 -0.00124153 
v 0.00247421 0.00368995 -0.00124153 
v 0.00307634 0.00442366 -0.00124153 
v 0.00381005 0.00502579 -0.00124153 
v 0.00464713 0.00547322 -0.00124153 
v 0.00555542 0.00574875 -0.00124153 
v 0.00203232 0.00188868 -0.00139347 
v 0.00229154 0.0027432 -0.00139347 
v 0.00271248 0.00353074 -0.00139347 
v 0.00327898 0.00422102 -0.00139347 
v 0.00396926 0.00478752 -0.00139347 
v 0.0047568 0.00520846 -0.00139347 
v 0.00561132 0.00546768 -0.00139347 
v 0.00233885 0.0018277 -0.00148024 
v 0.00258028 0.0026236 -0.00148024 
v 0.00297235 0.0033571 -0.00148024 
v 0.00349998 0.00400002 -0.00148024 
v 0.0041429 0.00452765 -0.00148024 
v 0.0048764 0.00491972 -0.00148024 
v 0.0056723 0.00516115 -0.00148024 
v 0.00265651 0.00176452 -0.0014978 
v 0.00287951 0.00249966 -0.0014978 
v 0.00324164 0.00317716 -0.0014978 
v 0.003729 0.003771 -0.0014978 
v 0.00432284 0.00425836 -0.0014978 
v 0.00500034 0.00462049 -0.0014978 
v 0.00573548 0.00484349 -0.0014978 
v 0.00297044 0.00170207 -0.00144532 
v 0.00317523 0.00237717 -0.00144532 
v 0.00350778 0.00299933 -0.00144532 
v 0.00395533 0.00354467 -0.00144532 
v 0.00450067 0.00399222 -0.00144532 
v 0.00512283 0.00432477 -0.00144532 
v 0.00579793 0.00452956 -0.00144532 
v 0.00326597 0.00164329 -0.00132527 
v 0.00345361 0.00226186 -0.00132527 
v 0.00375832 0.00283193 -0.00132527 
v 0.0041684 0.0033316 -0.00132527 
v 0.00466807 0.00374168 -0.00132527 
v 0.00523814 0.00404639 -0.00132527 
v 0.00585671 0.00423403 -0.00132527 
v 0.00352928 0.00159091 -0.00114324 
v 0.00370164 0.00215912 -0.00114324 
v 0.00398154 0.00268278 -0.00114324 
v 0.00435823 0.00314177 -0.00114324 
v 0.00481722 0.00351846 -0.00114324 
v 0.00534088 0.00379836 -0.00114324 
v 0.00590909 0.00397072 -0.00114324 
v 0.00374805 0.0015474 -0.000907761 
v 0.00390772 0.00207376 -0.000907761 
v 0.00416701 0.00255885 -0.000907761 
v 0.00451596 0.00298404 -0.000907761 
v 0.00494115 0.00333299 -0.000907761 
v 0.00542624 0.00359228 -0.000907761 
v 0.0059526 0.00375195 -0.000907761 
v 0.00391206 0.00151477 -0.000629834 
v 0.00406222 0.00200976 -0.000629834 
v 0.00430605 0.00246595 -0.000629834 
v 0.0046342 0.0028658 -0.000629834 
v 0.00503405 0.00319395 -0.000629834 
v 0.00549024 0.00343778 -0.000629834 
v 0.00598523 0.00358794 -0.000629834 
v 0.00401364 0.00149457 -0.000322456 
v 0.0041579 0.00197013 -0.000322456 
v 0.00439217 0.00240841 -0.000322456 
v 0.00470744 0.00279256 -0.000322456 
v 0.00509159 0.00310783 -0.000322456 
v 0.00552987 0.0033421 -0.000322456 
v 0.00600543 0.00348636 -0.000322456 
v 0.039 0.0035 0 
v 0.039 0.00353507 -0.000322456 
v 0.039 0.00363864 -0.000629834 
v 0.039 0.00380586 -0.000907761 
v 0.039 0.00402892 -0.00114324 
v 0.039 0.00429739 -0.00132527 
v 0.039 0.00459871 -0.00144532 
v 0.039 0.00491879 -0.0014978 
v 0.039 0.00524267 -0.00148024 
v 0.039 0.00555521 -0.00139347 
v 0.039 0.00584178 -0.00124153 
v 0.039 0.00608899 -0.00103155 
v 0.039 0.00628529 -0.000773331 
v 0.039 0.00642148 -0.000478952 
v 0.039 0.00649121 0.000162179 
v 0.039 0.0065 -1.83697e-19 
v 0.039 0.00649121 -0.000162179 
v 0.039 0.00642148 0.000478952 
v 0.039 0.00628529 0.000773331 
v 0.039 0.00608899 0.00103155 
v 0.039 0.00584178 0.00124153 
v 0.039 0.00555521 0.00139347 
v 0.039 0.00524267 0.00148024 
v 0.039 0.00491879 0.0014978 
v 0.039 0.00459871 0.00144532 
v 0.039 0.00429739 0.00132527 
v 0.039 0.00402892 0.00114324 
v 0.039 0.00380586 0.000907761 
v 0.039 0.00363864 0.000629834 
v 0.039 0.00353507 0.000322456 
v 0.039 0.005 0 
vn 5.07229e-17 0 -1 
vn 0.21497 -0.976621 0 
vn 0.108119 -0.994138 0 
vn 0 -1 0 
vn 0.419889 -0.907575 0 
vn 0.319302 -0.947653 0 
vn 0.605174 -0.796093 0 
vn 0.515554 -0.856857 0 
vn 0.762162 -0.647386 0 
vn 0.687699 -0.725995 0 
vn 0.883512 -0.468408 0 
vn 0.827689 -0.561187 0 
vn 0.96355 -0.267528 0 
vn 0.928977 -0.370138 0 
vn 0.998533 -0.0541389 0 
vn 0.986827 -0.161782 0 
vn 0.986827 0.161782 0 
vn 0.998533 0.0541389 0 
vn 0.928977 0.370138 0 
vn 0.96355 0.267528 0 
vn 0.827689 0.561187 0 
vn 0.883512 0.468408 0 
vn 0.687699 0.725995 0 
vn 0.762162 0.647386 0 
vn 0.515554 0.856857 0 
vn 0.605174 0.796093 0 
vn 0.319302 0.947653 0 
vn 0.419889 0.907575 0 
vn 0.108119 0.994138 0 
vn 0.21497 0.976621 0 
vn -0.108119 0.994138 0 
vn 0 1 0 
vn -0.319302 0.947653 0 
vn -0.21497 0.976621 0 
vn -0.515554 0.856857 0 
vn -0.419889 0.907575 0 
vn -0.687699 0.725995 0 
vn -0.605174 0.796093 0 
vn -0.827689 0.561187 0 
vn -0.762162 0.647386 0 
vn -0.928977 0.370138 0 
vn -0.883512 0.468408 0 
vn -0.986827 0.161782 0 
vn -0.96355 0.267528 0 
vn -1 4.28626e-16 0 
vn -0.998533 -0.0541389 0 
vn -0.998538 -0.0540594 0 
vn -0.998533 0.0541389 0 
vn -1 0 0 
vn -0.96355 -0.267528 0 
vn -0.986827 -0.161782 0 
vn -0.883512 -0.468408 0 
vn -0.928977 -0.370138 0 
vn -0.762162 -0.647386 0 
vn -0.827689 -0.561187 0 
vn -0.605174 -0.796093 0 
vn -0.687699 -0.725995 0 
vn -0.419889 -0.907575 0 
vn -0.515554 -0.856857 0 
vn -0.21497 -0.976621 0 
vn -0.319302 -0.947653 0 
vn 0 -1 0 
vn -0.108119 -0.994138 0 
vn 1.22465e-16 0.980785 -0.19509 
vn 0.21497 0.957855 -0.190529 
vn 0.108119 0.994138 0 
vn 0.21497 0.976621 1.19602e-16 
vn 1.22465e-16 0.92388 -0.382683 
vn 0.21497 0.90228 -0.373737 
vn 1.22465e-16 0.83147 -0.55557 
vn 0.21497 0.81203 -0.542581 
vn 1.22465e-16 0.707107 -0.707107 
vn 0.21497 0.690575 -0.690575 
vn 1.22465e-16 0.55557 -0.83147 
vn 0.21497 0.542581 -0.81203 
vn 1.22465e-16 0.382683 -0.92388 
vn 0.21497 0.373737 -0.90228 
vn 1.22465e-16 0.19509 -0.980785 
vn 0.21497 0.190529 -0.957855 
vn 0.0539002 0 -0.998546 
vn 1.22465e-16 5.55112e-17 -1 
vn 0.419889 0.890137 -0.177059 
vn 0.319302 0.947653 0 
vn 0.419889 0.907575 1.11146e-16 
vn 0.419889 0.83849 -0.347314 
vn 0.419889 0.754621 -0.504222 
vn 0.419889 0.641753 -0.641753 
vn 0.419889 0.504222 -0.754621 
vn 0.419889 0.347314 -0.83849 
vn 0.419889 0.177059 -0.890137 
vn 0.267298 0 -0.963614 
vn 0.21497 5.42133e-17 -0.976621 
vn 0.605174 0.780796 -0.15531 
vn 0.515554 0.856857 0 
vn 0.605174 0.796093 9.74933e-17 
vn 0.605174 0.735494 -0.304652 
vn 0.605174 0.661927 -0.442286 
vn 0.605174 0.562923 -0.562923 
vn 0.605174 0.442286 -0.661927 
vn 0.605174 0.304652 -0.735494 
vn 0.605174 0.15531 -0.780796 
vn 0.468197 0 -0.883624 
vn 0.419889 5.03806e-17 -0.907575 
vn 0.762162 0.634947 -0.126299 
vn 0.687699 0.725995 0 
vn 0.762162 0.647386 7.9282e-17 
vn 0.762162 0.598107 -0.247744 
vn 0.762162 0.538282 -0.359669 
vn 0.762162 0.457771 -0.457771 
vn 0.762162 0.359669 -0.538282 
vn 0.762162 0.247744 -0.598107 
vn 0.762162 0.126299 -0.634947 
vn 0.647204 0 -0.762317 
vn 0.605174 4.4192e-17 -0.796093 
vn 0.883512 0.459408 -0.091382 
vn 0.827689 0.561187 0 
vn 0.883512 0.468408 5.73635e-17 
vn 0.883512 0.432753 -0.179252 
vn 0.883512 0.389467 -0.260234 
vn 0.883512 0.331215 -0.331215 
vn 0.883512 0.260234 -0.389467 
vn 0.883512 0.179252 -0.432753 
vn 0.883512 0.091382 -0.459408 
vn 0.795948 0 -0.605364 
vn 0.762162 3.59372e-17 -0.647386 
vn 0.96355 0.262388 -0.0521922 
vn 0.928977 0.370138 0 
vn 0.96355 0.267528 3.27628e-17 
vn 0.96355 0.247164 -0.102379 
vn 0.96355 0.222442 -0.148631 
vn 0.96355 0.189171 -0.189171 
vn 0.96355 0.148631 -0.222442 
vn 0.96355 0.102379 -0.247164 
vn 0.96355 0.0521922 -0.262388 
vn 0.907475 0 -0.420106 
vn 0.883512 2.60019e-17 -0.468408 
vn 0.998533 0.0530986 -0.010562 
vn 0.986827 0.161782 3.73466e-17 
vn 0.998533 0.0541389 6.6301e-18 
vn 0.998533 0.0500178 -0.0207181 
vn 0.998533 0.0450149 -0.030078 
vn 0.998533 0.038282 -0.038282 
vn 0.998533 0.030078 -0.0450149 
vn 0.998533 0.0207181 -0.0500178 
vn 0.998533 0.010562 -0.0530986 
vn 0.976569 0 -0.215204 
vn 0.96355 7.93306e-17 -0.267528 
vn 0.998533 -0.0541389 -1.15059e-17 
vn 0.986827 -0.158673 0.0315621 
vn 0.986827 -0.161782 -1.98126e-17 
vn 0.986827 -0.149467 0.0619113 
vn 0.986827 -0.134517 0.0898813 
vn 0.986827 -0.114397 0.114397 
vn 0.986827 -0.0898813 0.134517 
vn 0.986827 -0.0619113 0.149467 
vn 0.998533 1.49881e-17 -0.0541389 
vn 1 0 -0.000239014 
vn 0.986827 -0.0315621 0.158673 
vn 0.96355 -0.267528 -5.27218e-17 
vn 0.928977 -0.363026 0.0722104 
vn 0.928977 -0.370138 -4.53289e-17 
vn 0.928977 -0.341963 0.141646 
vn 0.928977 -0.307759 0.205638 
vn 0.928977 -0.261727 0.261727 
vn 0.928977 -0.205638 0.307759 
vn 0.928977 -0.141646 0.341963 
vn 0.986827 -4.2055e-17 0.161782 
vn 0.976672 0 0.214737 
vn 0.928977 -0.0722104 0.363026 
vn 0.883512 -0.468408 -8.63944e-17 
vn 0.827689 -0.550404 0.109482 
vn 0.827689 -0.561187 -6.87256e-17 
vn 0.827689 -0.518469 0.214757 
vn 0.827689 -0.46661 0.311779 
vn 0.827689 -0.396819 0.396819 
vn 0.827689 -0.311779 0.46661 
vn 0.827689 -0.214757 0.518469 
vn 0.928977 -9.10252e-17 0.370138 
vn 0.907676 0 0.419672 
vn 0.827689 -0.109482 0.550404 
vn 0.687699 -0.712046 0.141635 
vn 0.762162 -0.647386 -1.12957e-16 
vn 0.687699 -0.725995 -8.89088e-17 
vn 0.687699 -0.670732 0.277826 
vn 0.687699 -0.603643 0.403341 
vn 0.687699 -0.513356 0.513356 
vn 0.687699 -0.403341 0.603643 
vn 0.687699 -0.277826 0.670732 
vn 0.687699 -0.141635 0.712046 
vn 0.796238 0 0.604984 
vn 0.827689 -1.31684e-16 0.561187 
vn 0.515554 -0.840393 0.167165 
vn 0.605174 -0.796093 -1.32938e-16 
vn 0.515554 -0.856857 -1.04935e-16 
vn 0.515554 -0.791633 0.327905 
vn 0.515554 -0.712451 0.476044 
vn 0.515554 -0.60589 0.60589 
vn 0.515554 -0.476044 0.712451 
vn 0.515554 -0.327905 0.791633 
vn 0.515554 -0.167165 0.840393 
vn 0.647568 0 0.762007 
vn 0.687699 -1.64039e-16 0.725995 
vn 0.319302 -0.929444 0.184878 
vn 0.419889 -0.907575 -1.46828e-16 
vn 0.319302 -0.947653 -1.16054e-16 
vn 0.319302 -0.875517 0.362651 
vn 0.319302 -0.787945 0.526488 
vn 0.319302 -0.670092 0.670092 
vn 0.319302 -0.526488 0.787945 
vn 0.319302 -0.362651 0.875517 
vn 0.319302 -0.184878 0.929444 
vn 0.46862 0 0.8834 
vn 0.515554 -1.88183e-16 0.856857 
vn 0.108119 -0.975036 0.193947 
vn 0.21497 -0.976621 -1.55003e-16 
vn 0.108119 -0.994138 -1.21747e-16 
vn 0.108119 -0.918464 0.38044 
vn 0.108119 -0.826596 0.552313 
vn 0.108119 -0.702962 0.702962 
vn 0.108119 -0.552313 0.826596 
vn 0.108119 -0.38044 0.918464 
vn 0.108119 -0.193947 0.975036 
vn 0.267759 0 0.963486 
vn 0.319302 -2.04217e-16 0.947653 
vn -0.108119 -0.975036 0.193947 
vn -0.108119 -0.994138 -1.21747e-16 
vn 0 -1 -1.57702e-16 
vn -0.108119 -0.918464 0.38044 
vn -0.108119 -0.826596 0.552313 
vn -0.108119 -0.702962 0.702962 
vn -0.108119 -0.552313 0.826596 
vn -0.108119 -0.38044 0.918464 
vn -0.108119 -0.193947 0.975036 
vn 0.0543776 0 0.99852 
vn 0.108119 -2.12214e-16 0.994138 
vn -0.319302 -0.929444 0.184878 
vn -0.319302 -0.947653 -1.16054e-16 
vn -0.21497 -0.976621 -1.55003e-16 
vn -0.319302 -0.875517 0.362651 
vn -0.319302 -0.787945 0.526488 
vn -0.319302 -0.670092 0.670092 
vn -0.319302 -0.526488 0.787945 
vn -0.319302 -0.362651 0.875517 
vn -0.319302 -0.184878 0.929444 
vn -0.161546 0 0.986865 
vn -0.108119 -2.12214e-16 0.994138 
vn -0.515554 -0.840393 0.167165 
vn -0.515554 -0.856857 -1.04935e-16 
vn -0.419889 -0.907575 -1.46828e-16 
vn -0.515554 -0.791633 0.327905 
vn -0.515554 -0.712451 0.476044 
vn -0.515554 -0.60589 0.60589 
vn -0.515554 -0.476044 0.712451 
vn -0.515554 -0.327905 0.791633 
vn -0.369916 0 0.929065 
vn -0.515554 -1.88183e-16 0.856857 
vn -0.515554 -0.167165 0.840393 
vn -0.319302 -2.04217e-16 0.947653 
vn -0.687699 -0.712046 0.141635 
vn -0.687699 -0.725995 -8.89088e-17 
vn -0.605174 -0.796093 -1.32938e-16 
vn -0.687699 -0.670732 0.277826 
vn -0.687699 -0.603643 0.403341 
vn -0.687699 -0.513356 0.513356 
vn -0.687699 -0.403341 0.603643 
vn -0.687699 -0.277826 0.670732 
vn -0.560989 0 0.827823 
vn -0.687699 -1.64039e-16 0.725995 
vn -0.687699 -0.141635 0.712046 
vn -0.827689 -0.550404 0.109482 
vn -0.827689 -0.561187 -6.87256e-17 
vn -0.762162 -0.647386 -1.12957e-16 
vn -0.827689 -0.518469 0.214757 
vn -0.827689 -0.46661 0.311779 
vn -0.827689 -0.396819 0.396819 
vn -0.827689 -0.311779 0.46661 
vn -0.827689 -0.214757 0.518469 
vn -0.725831 0 0.687873 
vn -0.827689 -1.31684e-16 0.561187 
vn -0.827689 -0.109482 0.550404 
vn -0.883512 -0.468408 -8.63944e-17 
vn -0.928977 -0.363026 0.0722104 
vn -0.928977 -0.370138 -4.53289e-17 
vn -0.928977 -0.341963 0.141646 
vn -0.928977 -0.307759 0.205638 
vn -0.928977 -0.261727 0.261727 
vn -0.928977 -0.205638 0.307759 
vn -0.928977 -0.141646 0.341963 
vn -0.856734 0 0.515759 
vn -0.928977 -9.10252e-17 0.370138 
vn -0.928977 -0.0722104 0.363026 
vn -0.96355 -0.267528 -5.27218e-17 
vn -0.986827 -0.158673 0.0315621 
vn -0.986827 -0.161782 -1.98126e-17 
vn -0.986827 -0.149467 0.0619113 
vn -0.986827 -0.134517 0.0898813 
vn -0.986827 -0.114397 0.114397 
vn -0.986827 -0.0898813 0.134517 
vn -0.986827 -0.0619113 0.149467 
vn -0.947577 0 0.319528 
vn -0.986827 -4.2055e-17 0.161782 
vn -0.986827 -0.0315621 0.158673 
vn -0.998533 0.0530986 -0.010562 
vn -0.998533 0.0541389 6.6301e-18 
vn -1 2.38126e-15 2.9162e-31 
vn -0.998538 -0.0540594 -1.14893e-17 
vn -0.998533 0.0500178 -0.0207181 
vn -0.998533 0.0450149 -0.030078 
vn -0.998533 0.038282 -0.038282 
vn -0.998533 0.030078 -0.0450149 
vn -0.998533 0.0207181 -0.0500178 
vn -0.998533 0.010562 -0.0530986 
vn -1 -2.19397e-31 1.19434e-15 
vn -0.994129 0 0.108198 
vn -0.96355 0.262388 -0.0521922 
vn -0.96355 0.267528 3.27628e-17 
vn -0.986827 0.161782 3.73466e-17 
vn -0.96355 0.247164 -0.102379 
vn -0.96355 0.222442 -0.148631 
vn -0.96355 0.189171 -0.189171 
vn -0.96355 0.148631 -0.222442 
vn -0.96355 0.102379 -0.247164 
vn -0.994164 0 -0.107881 
vn -0.96355 7.93306e-17 -0.267528 
vn -0.96355 0.0521922 -0.262388 
vn -0.998533 1.49881e-17 -0.0541389 
vn -0.883512 0.459408 -0.091382 
vn -0.883512 0.468408 5.73635e-17 
vn -0.928977 0.370138 0 
vn -0.883512 0.432753 -0.179252 
vn -0.883512 0.389467 -0.260234 
vn -0.883512 0.331215 -0.331215 
vn -0.883512 0.260234 -0.389467 
vn -0.883512 0.179252 -0.432753 
vn -0.947729 0 -0.319075 
vn -0.883512 2.60019e-17 -0.468408 
vn -0.883512 0.091382 -0.459408 
vn -0.762162 0.634947 -0.126299 
vn -0.762162 0.647386 7.9282e-17 
vn -0.827689 0.561187 0 
vn -0.762162 0.598107 -0.247744 
vn -0.762162 0.538282 -0.359669 
vn -0.762162 0.457771 -0.457771 
vn -0.762162 0.359669 -0.538282 
vn -0.762162 0.247744 -0.598107 
vn -0.85698 0 -0.515349 
vn -0.762162 3.59372e-17 -0.647386 
vn -0.762162 0.126299 -0.634947 
vn -0.605174 0.780796 -0.15531 
vn -0.605174 0.796093 9.74933e-17 
vn -0.687699 0.725995 0 
vn -0.605174 0.735494 -0.304652 
vn -0.605174 0.661927 -0.442286 
vn -0.605174 0.562923 -0.562923 
vn -0.605174 0.442286 -0.661927 
vn -0.605174 0.304652 -0.735494 
vn -0.605174 0.15531 -0.780796 
vn -0.72616 0 -0.687526 
vn -0.419889 0.890137 -0.177059 
vn -0.419889 0.907575 1.11146e-16 
vn -0.515554 0.856857 0 
vn -0.419889 0.83849 -0.347314 
vn -0.419889 0.754621 -0.504222 
vn -0.419889 0.641753 -0.641753 
vn -0.419889 0.504222 -0.754621 
vn -0.419889 0.347314 -0.83849 
vn -0.419889 0.177059 -0.890137 
vn -0.561385 0 -0.827555 
vn -0.605174 4.4192e-17 -0.796093 
vn -0.21497 0.957855 -0.190529 
vn -0.21497 0.976621 1.19602e-16 
vn -0.319302 0.947653 0 
vn -0.21497 0.90228 -0.373737 
vn -0.21497 0.81203 -0.542581 
vn -0.21497 0.690575 -0.690575 
vn -0.21497 0.542581 -0.81203 
vn -0.21497 0.373737 -0.90228 
vn -0.21497 0.190529 -0.957855 
vn -0.37036 0 -0.928888 
vn -0.419889 5.03806e-17 -0.907575 
vn 1.22465e-16 1 1.22465e-16 
vn -0.108119 0.994138 0 
vn -0.162018 0 -0.986788 
vn -0.21497 5.42133e-17 -0.976621 
vn 1 -1.77013e-17 0 
vn 1 -1.77013e-17 -0.000239014 
vn 0.998533 -1.76753e-17 -0.0541389 
vn 0.976621 -1.72874e-17 -0.21497 
vn 0.976569 -1.72865e-17 -0.215204 
vn 0.96355 -1.7056e-17 -0.267528 
vn 0.907575 -1.60652e-17 -0.419889 
vn 0.907475 -1.60635e-17 -0.420106 
vn 0.883512 -1.56393e-17 -0.468408 
vn 0.796093 -1.40919e-17 -0.605174 
vn 0.795948 -1.40893e-17 -0.605364 
vn 0.762162 -1.34912e-17 -0.647386 
vn 0.647386 -1.14596e-17 -0.762162 
vn 0.647204 -1.14563e-17 -0.762317 
vn 0.605174 -1.07123e-17 -0.796093 
vn 0.468408 -8.29142e-18 -0.883512 
vn 0.468197 -8.28768e-18 -0.883624 
vn 0.419889 -7.43257e-18 -0.907575 
vn 0.267528 -4.73559e-18 -0.96355 
vn 0.267298 -4.73151e-18 -0.963614 
vn 0.21497 -3.80525e-18 -0.976621 
vn 0.0541389 -9.58327e-19 -0.998533 
vn 0.0539002 -9.54102e-19 -0.998546 
vn 0 0 -1 
vn -0.161782 2.86375e-18 -0.986827 
vn -0.162018 2.86792e-18 -0.986788 
vn -0.21497 3.80525e-18 -0.976621 
vn -0.370138 6.55191e-18 -0.928977 
vn -0.37036 6.55584e-18 -0.928888 
vn -0.419889 7.43257e-18 -0.907575 
vn -0.561187 9.93372e-18 -0.827689 
vn -0.561385 9.93722e-18 -0.827555 
vn -0.605174 1.07123e-17 -0.796093 
vn -0.725995 1.2851e-17 -0.687699 
vn -0.72616 1.28539e-17 -0.687526 
vn -0.762162 1.34912e-17 -0.647386 
vn -0.856857 1.51675e-17 -0.515554 
vn -0.85698 1.51696e-17 -0.515349 
vn -0.883512 1.56393e-17 -0.468408 
vn -0.947653 1.67747e-17 -0.319302 
vn -0.947729 1.6776e-17 -0.319075 
vn -0.96355 1.7056e-17 -0.267528 
vn -0.994138 1.75975e-17 -0.108119 
vn -0.994138 1.75975e-17 0.108119 
vn -0.998533 1.76753e-17 -0.0541389 
vn -1 1.77013e-17 7.65714e-16 
vn -0.994164 1.7598e-17 -0.107881 
vn -0.994129 1.75973e-17 0.108198 
vn -0.986827 1.74681e-17 0.161782 
vn -0.947653 1.67747e-17 0.319302 
vn -0.947577 1.67733e-17 0.319528 
vn -0.928977 1.64441e-17 0.370138 
vn -0.856857 1.51675e-17 0.515554 
vn -0.856734 1.51653e-17 0.515759 
vn -0.827689 1.46511e-17 0.561187 
vn -0.725995 1.2851e-17 0.687699 
vn -0.725831 1.28481e-17 0.687873 
vn -0.687699 1.21731e-17 0.725995 
vn -0.561187 9.93372e-18 0.827689 
vn -0.560989 9.93022e-18 0.827823 
vn -0.515554 9.12595e-18 0.856857 
vn -0.370138 6.55191e-18 0.928977 
vn -0.369916 6.54798e-18 0.929065 
vn -0.319302 5.65204e-18 0.947653 
vn -0.161782 2.86375e-18 0.986827 
vn -0.161546 2.85957e-18 0.986865 
vn -0.108119 1.91384e-18 0.994138 
vn 0.0541389 -9.58327e-19 0.998533 
vn 0.0543776 -9.62552e-19 0.99852 
vn 0.108119 -1.91384e-18 0.994138 
vn 0.267528 -4.73559e-18 0.96355 
vn 0.267759 -4.73967e-18 0.963486 
vn 0.319302 -5.65204e-18 0.947653 
vn 0.468408 -8.29142e-18 0.883512 
vn 0.46862 -8.29516e-18 0.8834 
vn 0.515554 -9.12595e-18 0.856857 
vn 0.647386 -1.14596e-17 0.762162 
vn 0.647568 -1.14628e-17 0.762007 
vn 0.687699 -1.21731e-17 0.725995 
vn 0.796093 -1.40919e-17 0.605174 
vn 0.796238 -1.40944e-17 0.604984 
vn 0.827689 -1.46511e-17 0.561187 
vn 0.907575 -1.60652e-17 0.419889 
vn 0.907676 -1.6067e-17 0.419672 
vn 0.928977 -1.64441e-17 0.370138 
vn 0.976621 -1.72874e-17 0.21497 
vn 0.976672 -1.72883e-17 0.214737 
vn 0.986827 -1.74681e-17 0.161782 
vn 0.976621 1.79402e-16 0.21497 
vn 1 1.83697e-16 1.22465e-16 
vn 0.980785 -0.19509 1.22465e-16 
vn 0.957855 -0.190529 0.21497 
vn 0.92388 -0.382683 1.22465e-16 
vn 0.90228 -0.373737 0.21497 
vn 0.83147 -0.55557 1.22465e-16 
vn 0.81203 -0.542581 0.21497 
vn 0.707107 -0.707107 1.22465e-16 
vn 0.690575 -0.690575 0.21497 
vn 0.55557 -0.83147 1.22465e-16 
vn 0.542581 -0.81203 0.21497 
vn 0.382683 -0.92388 1.22465e-16 
vn 0.373737 -0.90228 0.21497 
vn 0.19509 -0.980785 1.22465e-16 
vn 0.190529 -0.957855 0.21497 
vn 2.28983e-16 -1 1.22465e-16 
vn 0.907575 1.66719e-16 0.419889 
vn 0.890137 -0.177059 0.419889 
vn 0.83849 -0.347314 0.419889 
vn 0.754621 -0.504222 0.419889 
vn 0.641753 -0.641753 0.419889 
vn 0.504222 -0.754621 0.419889 
vn 0.347314 -0.83849 0.419889 
vn 0.177059 -0.890137 0.419889 
vn 2.21286e-16 -0.976621 0.21497 
vn 0.796093 1.4624e-16 0.605174 
vn 0.780796 -0.15531 0.605174 
vn 0.735494 -0.304652 0.605174 
vn 0.661927 -0.442286 0.605174 
vn 0.562923 -0.562923 0.605174 
vn 0.442286 -0.661927 0.605174 
vn 0.304652 -0.735494 0.605174 
vn 0.15531 -0.780796 0.605174 
vn 1.99548e-16 -0.907575 0.419889 
vn 0.647386 1.18923e-16 0.762162 
vn 0.634947 -0.126299 0.762162 
vn 0.598107 -0.247744 0.762162 
vn 0.538282 -0.359669 0.762162 
vn 0.457771 -0.457771 0.762162 
vn 0.359669 -0.538282 0.762162 
vn 0.247744 -0.598107 0.762162 
vn 0.126299 -0.634947 0.762162 
vn 1.67238e-16 -0.796093 0.605174 
vn 0.468408 8.60452e-17 0.883512 
vn 0.459408 -0.091382 0.883512 
vn 0.432753 -0.179252 0.883512 
vn 0.389467 -0.260234 0.883512 
vn 0.331215 -0.331215 0.883512 
vn 0.260234 -0.389467 0.883512 
vn 0.179252 -0.432753 0.883512 
vn 0.091382 -0.459408 0.883512 
vn 1.74976e-16 -0.647386 0.762162 
vn 0.267528 4.91442e-17 0.96355 
vn 0.262388 -0.0521922 0.96355 
vn 0.247164 -0.102379 0.96355 
vn 0.222442 -0.148631 0.96355 
vn 0.189171 -0.189171 0.96355 
vn 0.148631 -0.222442 0.96355 
vn 0.102379 -0.247164 0.96355 
vn 0.0521922 -0.262388 0.96355 
vn 1.18411e-16 -0.468408 0.883512 
vn 0.0541389 9.94516e-18 0.998533 
vn 0.0530986 -0.010562 0.998533 
vn 0.0500178 -0.0207181 0.998533 
vn 0.0450149 -0.030078 0.998533 
vn 0.038282 -0.038282 0.998533 
vn 0.030078 -0.0450149 0.998533 
vn 0.0207181 -0.0500178 0.998533 
vn 0.010562 -0.0530986 0.998533 
vn 6.32106e-17 -0.267528 0.96355 
vn -0.161782 -2.97189e-17 0.986827 
vn -0.158673 0.0315621 0.986827 
vn -0.149467 0.0619113 0.986827 
vn -0.134517 0.0898813 0.986827 
vn -0.114397 0.114397 0.986827 
vn -0.0898813 0.134517 0.986827 
vn -0.0619113 0.149467 0.986827 
vn -0.0315621 0.158673 0.986827 
vn 1.19924e-17 -0.0541389 0.998533 
vn -0.370138 -6.79933e-17 0.928977 
vn -0.363026 0.0722104 0.928977 
vn -0.341963 0.141646 0.928977 
vn -0.307759 0.205638 0.928977 
vn -0.261727 0.261727 0.928977 
vn -0.205638 0.307759 0.928977 
vn -0.141646 0.341963 0.928977 
vn -0.0722104 0.363026 0.928977 
vn -4.2055e-17 0.161782 0.986827 
vn -0.561187 -1.03088e-16 0.827689 
vn -0.550404 0.109482 0.827689 
vn -0.518469 0.214757 0.827689 
vn -0.46661 0.311779 0.827689 
vn -0.396819 0.396819 0.827689 
vn -0.311779 0.46661 0.827689 
vn -0.214757 0.518469 0.827689 
vn -0.109482 0.550404 0.827689 
vn -9.10252e-17 0.370138 0.928977 
vn -0.725995 -1.33363e-16 0.687699 
vn -0.712046 0.141635 0.687699 
vn -0.670732 0.277826 0.687699 
vn -0.603643 0.403341 0.687699 
vn -0.513356 0.513356 0.687699 
vn -0.403341 0.603643 0.687699 
vn -0.277826 0.670732 0.687699 
vn -0.141635 0.712046 0.687699 
vn -1.31684e-16 0.561187 0.827689 
vn -0.856857 -1.57402e-16 0.515554 
vn -0.840393 0.167165 0.515554 
vn -0.791633 0.327905 0.515554 
vn -0.712451 0.476044 0.515554 
vn -0.60589 0.60589 0.515554 
vn -0.476044 0.712451 0.515554 
vn -0.327905 0.791633 0.515554 
vn -0.167165 0.840393 0.515554 
vn -1.64039e-16 0.725995 0.687699 
vn -0.947653 -1.74081e-16 0.319302 
vn -0.929444 0.184878 0.319302 
vn -0.875517 0.362651 0.319302 
vn -0.787945 0.526488 0.319302 
vn -0.670092 0.670092 0.319302 
vn -0.526488 0.787945 0.319302 
vn -0.362651 0.875517 0.319302 
vn -0.184878 0.929444 0.319302 
vn -1.88183e-16 0.856857 0.515554 
vn -0.994138 -1.8262e-16 0.108119 
vn -0.975036 0.193947 0.108119 
vn -0.918464 0.38044 0.108119 
vn -0.826596 0.552313 0.108119 
vn -0.702962 0.702962 0.108119 
vn -0.552313 0.826596 0.108119 
vn -0.38044 0.918464 0.108119 
vn -0.193947 0.975036 0.108119 
vn -2.4212e-16 0.947653 0.319302 
vn -0.975036 0.193947 -0.108119 
vn -0.994138 -1.8262e-16 -0.108119 
vn -1 -1.83697e-16 0 
vn -0.918464 0.38044 -0.108119 
vn -0.826596 0.552313 -0.108119 
vn -0.702962 0.702962 -0.108119 
vn -0.552313 0.826596 -0.108119 
vn -0.38044 0.918464 -0.108119 
vn -0.193947 0.975036 -0.108119 
vn 0 1 2.44929e-16 
vn -2.51472e-16 0.994138 0.108119 
vn -0.947653 -1.74081e-16 -0.319302 
vn -0.929444 0.184878 -0.319302 
vn -0.875517 0.362651 -0.319302 
vn -0.787945 0.526488 -0.319302 
vn -0.670092 0.670092 -0.319302 
vn -0.526488 0.787945 -0.319302 
vn -0.362651 0.875517 -0.319302 
vn -0.184878 0.929444 -0.319302 
vn -2.51472e-16 0.994138 -0.108119 
vn -0.856857 -1.57402e-16 -0.515554 
vn -0.840393 0.167165 -0.515554 
vn -0.791633 0.327905 -0.515554 
vn -0.712451 0.476044 -0.515554 
vn -0.60589 0.60589 -0.515554 
vn -0.476044 0.712451 -0.515554 
vn -0.327905 0.791633 -0.515554 
vn -0.167165 0.840393 -0.515554 
vn -2.4212e-16 0.947653 -0.319302 
vn -0.725995 -1.33363e-16 -0.687699 
vn -0.712046 0.141635 -0.687699 
vn -0.670732 0.277826 -0.687699 
vn -0.603643 0.403341 -0.687699 
vn -0.513356 0.513356 -0.687699 
vn -0.403341 0.603643 -0.687699 
vn -0.277826 0.670732 -0.687699 
vn -0.141635 0.712046 -0.687699 
vn -1.88183e-16 0.856857 -0.515554 
vn -0.561187 -1.03088e-16 -0.827689 
vn -0.550404 0.109482 -0.827689 
vn -0.518469 0.214757 -0.827689 
vn -0.46661 0.311779 -0.827689 
vn -0.396819 0.396819 -0.827689 
vn -0.311779 0.46661 -0.827689 
vn -0.214757 0.518469 -0.827689 
vn -0.109482 0.550404 -0.827689 
vn -1.64039e-16 0.725995 -0.687699 
vn -0.370138 -6.79933e-17 -0.928977 
vn -0.363026 0.0722104 -0.928977 
vn -0.341963 0.141646 -0.928977 
vn -0.307759 0.205638 -0.928977 
vn -0.261727 0.261727 -0.928977 
vn -0.205638 0.307759 -0.928977 
vn -0.141646 0.341963 -0.928977 
vn -0.0722104 0.363026 -0.928977 
vn -1.31684e-16 0.561187 -0.827689 
vn -0.161782 -2.97189e-17 -0.986827 
vn -0.158673 0.0315621 -0.986827 
vn -0.149467 0.0619113 -0.986827 
vn -0.134517 0.0898813 -0.986827 
vn -0.114397 0.114397 -0.986827 
vn -0.0898813 0.134517 -0.986827 
vn -0.0619113 0.149467 -0.986827 
vn -0.0315621 0.158673 -0.986827 
vn -9.10252e-17 0.370138 -0.928977 
vn 0.0541389 9.94516e-18 -0.998533 
vn 0.0530986 -0.010562 -0.998533 
vn 0.0500178 -0.0207181 -0.998533 
vn 0.0450149 -0.030078 -0.998533 
vn 0.038282 -0.038282 -0.998533 
vn 0.030078 -0.0450149 -0.998533 
vn 0.0207181 -0.0500178 -0.998533 
vn 0.010562 -0.0530986 -0.998533 
vn -4.2055e-17 0.161782 -0.986827 
vn 0.267528 4.91442e-17 -0.96355 
vn 0.262388 -0.0521922 -0.96355 
vn 0.247164 -0.102379 -0.96355 
vn 0.222442 -0.148631 -0.96355 
vn 0.189171 -0.189171 -0.96355 
vn 0.148631 -0.222442 -0.96355 
vn 0.102379 -0.247164 -0.96355 
vn 0.0521922 -0.262388 -0.96355 
vn 1.19924e-17 -0.0541389 -0.998533 
vn 0.468408 8.60452e-17 -0.883512 
vn 0.459408 -0.091382 -0.883512 
vn 0.432753 -0.179252 -0.883512 
vn 0.389467 -0.260234 -0.883512 
vn 0.331215 -0.331215 -0.883512 
vn 0.260234 -0.389467 -0.883512 
vn 0.179252 -0.432753 -0.883512 
vn 0.091382 -0.459408 -0.883512 
vn 6.32106e-17 -0.267528 -0.96355 
vn 0.647386 1.18923e-16 -0.762162 
vn 0.634947 -0.126299 -0.762162 
vn 0.598107 -0.247744 -0.762162 
vn 0.538282 -0.359669 -0.762162 
vn 0.457771 -0.457771 -0.762162 
vn 0.359669 -0.538282 -0.762162 
vn 0.247744 -0.598107 -0.762162 
vn 0.126299 -0.634947 -0.762162 
vn 1.18411e-16 -0.468408 -0.883512 
vn 0.796093 1.4624e-16 -0.605174 
vn 0.780796 -0.15531 -0.605174 
vn 0.735494 -0.304652 -0.605174 
vn 0.661927 -0.442286 -0.605174 
vn 0.562923 -0.562923 -0.605174 
vn 0.442286 -0.661927 -0.605174 
vn 0.304652 -0.735494 -0.605174 
vn 0.15531 -0.780796 -0.605174 
vn 1.74976e-16 -0.647386 -0.762162 
vn 0.907575 1.66719e-16 -0.419889 
vn 0.890137 -0.177059 -0.419889 
vn 0.83849 -0.347314 -0.419889 
vn 0.754621 -0.504222 -0.419889 
vn 0.641753 -0.641753 -0.419889 
vn 0.504222 -0.754621 -0.419889 
vn 0.347314 -0.83849 -0.419889 
vn 0.177059 -0.890137 -0.419889 
vn 1.67238e-16 -0.796093 -0.605174 
vn 0.976621 1.79402e-16 -0.21497 
vn 0.957855 -0.190529 -0.21497 
vn 0.90228 -0.373737 -0.21497 
vn 0.81203 -0.542581 -0.21497 
vn 0.690575 -0.690575 -0.21497 
vn 0.542581 -0.81203 -0.21497 
vn 0.373737 -0.90228 -0.21497 
vn 0.190529 -0.957855 -0.21497 
vn 1.99548e-16 -0.907575 -0.419889 
vn 2.21286e-16 -0.976621 -0.21497 
vn 0 -1 0 
vn 0 -0.907575 -0.419889 
vn 0 -0.796093 -0.605174 
vn 0 -0.647386 -0.762162 
vn 0 -0.468408 -0.883512 
vn 0 -0.267528 -0.96355 
vn 0 -0.0541389 -0.998533 
vn 0 0.161782 -0.986827 
vn 0 0.370138 -0.928977 
vn 0 0.561187 -0.827689 
vn 0 0.725995 -0.687699 
vn 0 0.856857 -0.515554 
vn 0 0.947653 -0.319302 
vn 0 0.994138 -0.108119 
vn 0 0.994138 0.108119 
vn 0 1 -1.22465e-16 
vn 0 0.994138 -0.108119 
vn 0 0.994138 0.108119 
vn 0 0.947653 0.319302 
vn 0 0.856857 0.515554 
vn 0 0.725995 0.687699 
vn 0 0.561187 0.827689 
vn 0 0.370138 0.928977 
vn 0 0.161782 0.986827 
vn 0 -0.0541389 0.998533 
vn 0 -0.267528 0.96355 
vn 0 -0.468408 0.883512 
vn 0 -0.647386 0.762162 
vn 0 -0.796093 0.605174 
vn 0 -0.907575 0.419889 
vn 0 -0.976621 0.21497 
vn 1 -8.69536e-17 0 
usemtl 0.972549_0.529412_0.003922_0.000000_0.000000
o mesh0
f 31//1 1//1 2//1 
f 2//1 3//1 31//1 
f 3//1 4//1 31//1 
f 4//1 5//1 31//1 
f 5//1 6//1 31//1 
f 6//1 7//1 31//1 
f 7//1 8//1 31//1 
f 8//1 9//1 31//1 
f 9//1 10//1 31//1 
f 10//1 11//1 31//1 
f 11//1 12//1 31//1 
f 12//1 13//1 31//1 
f 13//1 14//1 31//1 
f 14//1 15//1 31//1 
f 15//1 16//1 31//1 
f 16//1 17//1 31//1 
f 17//1 18//1 31//1 
f 18//1 19//1 31//1 
f 19//1 20//1 31//1 
f 20//1 21//1 31//1 
f 21//1 22//1 31//1 
f 22//1 23//1 31//1 
f 23//1 24//1 31//1 
f 24//1 25//1 31//1 
f 25//1 26//1 31//1 
f 26//1 27//1 31//1 
f 27//1 28//1 31//1 
f 28//1 29//1 31//1 
f 29//1 30//1 31//1 
f 30//1 1//1 31//1 
o mesh1
f 21//2 32//2 33//3 
f 33//3 22//4 21//2 
f 20//5 34//5 35//6 
f 35//6 21//2 20//5 
f 19//7 36//7 37//8 
f 37//8 20//5 19//7 
f 18//9 38//9 39//10 
f 39//10 19//7 18//9 
f 17//11 40//11 41//12 
f 41//12 18//9 17//11 
f 16//13 42//13 43//14 
f 43//14 17//11 16//13 
f 15//15 44//15 45//16 
f 45//16 16//13 15//15 
f 14//17 46//17 47//18 
f 47//18 15//15 14//17 
f 13//19 48//19 49//20 
f 49//20 14//17 13//19 
f 12//21 50//21 51//22 
f 51//22 13//19 12//21 
f 11//23 52//23 53//24 
f 53//24 12//21 11//23 
f 10//25 54//25 55//26 
f 55//26 11//23 10//25 
f 10//25 9//27 56//28 
f 9//27 57//27 56//28 
f 8//29 58//29 59//30 
f 59//30 9//27 8//29 
f 7//31 60//31 61//32 
f 61//32 8//29 7//31 
f 6//33 62//33 63//34 
f 63//34 7//31 6//33 
f 5//35 64//35 65//36 
f 65//36 6//33 5//35 
f 5//35 4//37 66//38 
f 4//37 67//37 66//38 
f 4//37 3//39 68//40 
f 3//39 69//39 68//40 
f 3//39 2//41 70//42 
f 2//41 71//41 70//42 
f 2//41 1//43 72//44 
f 1//43 73//43 72//44 
f 30//45 29//46 74//47 
f 1//43 30//45 75//48 
f 30//45 76//49 75//48 
f 75//48 73//43 1//43 
f 29//46 28//50 77//51 
f 28//50 78//50 77//51 
f 28//50 27//52 79//53 
f 27//52 80//52 79//53 
f 27//52 26//54 81//55 
f 26//54 82//54 81//55 
f 26//54 25//56 83//57 
f 25//56 84//56 83//57 
f 25//56 24//58 85//59 
f 24//58 86//58 85//59 
f 24//58 23//60 87//61 
f 23//60 88//60 87//61 
f 22//4 89//62 90//63 
f 90//63 23//60 22//4 
f 90//63 88//60 23//60 
f 87//61 86//58 24//58 
f 85//59 84//56 25//56 
f 83//57 82//54 26//54 
f 81//55 80//52 27//52 
f 79//53 78//50 28//50 
f 77//51 74//47 29//46 
f 74//47 76//49 30//45 
f 72//44 71//41 2//41 
f 70//42 69//39 3//39 
f 68//40 67//37 4//37 
f 66//38 64//35 5//35 
f 65//36 62//33 6//33 
f 63//34 60//31 7//31 
f 61//32 58//29 8//29 
f 59//30 57//27 9//27 
f 56//28 54//25 10//25 
f 55//26 52//23 11//23 
f 53//24 50//21 12//21 
f 51//22 48//19 13//19 
f 49//20 46//17 14//17 
f 47//18 44//15 15//15 
f 45//16 42//13 16//13 
f 43//14 40//11 17//11 
f 41//12 38//9 18//9 
f 39//10 36//7 19//7 
f 37//8 34//5 20//5 
f 35//6 32//2 21//2 
f 33//3 89//62 22//4 
o mesh2
f 150//64 151//65 58//66 
f 151//65 59//67 58//66 
f 151//65 150//64 152//68 
f 153//69 152//68 154//70 
f 155//71 154//70 156//72 
f 157//73 156//72 158//74 
f 159//75 158//74 160//76 
f 161//77 160//76 162//78 
f 163//79 162//78 91//80 
f 162//78 92//81 91//80 
f 151//65 164//82 57//83 
f 164//82 56//84 57//83 
f 164//82 151//65 153//69 
f 165//85 153//69 155//71 
f 166//86 155//71 157//73 
f 167//87 157//73 159//75 
f 168//88 159//75 161//77 
f 169//89 161//77 163//79 
f 170//90 163//79 93//91 
f 163//79 94//92 93//91 
f 164//82 171//93 54//94 
f 171//93 55//95 54//94 
f 171//93 164//82 165//85 
f 172//96 165//85 166//86 
f 173//97 166//86 167//87 
f 174//98 167//87 168//88 
f 175//99 168//88 169//89 
f 176//100 169//89 170//90 
f 177//101 170//90 95//102 
f 170//90 96//103 95//102 
f 171//93 178//104 52//105 
f 178//104 53//106 52//105 
f 178//104 171//93 172//96 
f 179//107 172//96 173//97 
f 180//108 173//97 174//98 
f 181//109 174//98 175//99 
f 182//110 175//99 176//100 
f 183//111 176//100 177//101 
f 184//112 177//101 97//113 
f 177//101 98//114 97//113 
f 178//104 185//115 50//116 
f 185//115 51//117 50//116 
f 185//115 178//104 179//107 
f 186//118 179//107 180//108 
f 187//119 180//108 181//109 
f 188//120 181//109 182//110 
f 189//121 182//110 183//111 
f 190//122 183//111 184//112 
f 191//123 184//112 99//124 
f 184//112 100//125 99//124 
f 185//115 192//126 48//127 
f 192//126 49//128 48//127 
f 192//126 185//115 186//118 
f 193//129 186//118 187//119 
f 194//130 187//119 188//120 
f 195//131 188//120 189//121 
f 196//132 189//121 190//122 
f 197//133 190//122 191//123 
f 198//134 191//123 101//135 
f 191//123 102//136 101//135 
f 192//126 199//137 46//138 
f 199//137 47//139 46//138 
f 199//137 192//126 193//129 
f 200//140 193//129 194//130 
f 201//141 194//130 195//131 
f 202//142 195//131 196//132 
f 203//143 196//132 197//133 
f 204//144 197//133 198//134 
f 205//145 198//134 103//146 
f 198//134 104//147 103//146 
f 44//148 47//139 199//137 
f 206//149 45//150 44//148 
f 206//149 199//137 200//140 
f 207//151 200//140 201//141 
f 208//152 201//141 202//142 
f 209//153 202//142 203//143 
f 210//154 203//143 204//144 
f 211//155 204//144 205//145 
f 205//145 105//156 106//157 
f 106//157 212//158 205//145 
f 42//159 45//150 206//149 
f 213//160 43//161 42//159 
f 213//160 206//149 207//151 
f 214//162 207//151 208//152 
f 215//163 208//152 209//153 
f 216//164 209//153 210//154 
f 217//165 210//154 211//155 
f 218//166 211//155 212//158 
f 212//158 107//167 108//168 
f 108//168 219//169 212//158 
f 40//170 43//161 213//160 
f 220//171 41//172 40//170 
f 220//171 213//160 214//162 
f 221//173 214//162 215//163 
f 222//174 215//163 216//164 
f 223//175 216//164 217//165 
f 224//176 217//165 218//166 
f 225//177 218//166 219//169 
f 219//169 109//178 110//179 
f 110//179 226//180 219//169 
f 220//171 227//181 38//182 
f 227//181 39//183 38//182 
f 227//181 220//171 221//173 
f 228//184 221//173 222//174 
f 229//185 222//174 223//175 
f 230//186 223//175 224//176 
f 231//187 224//176 225//177 
f 232//188 225//177 226//180 
f 233//189 226//180 111//190 
f 226//180 112//191 111//190 
f 227//181 234//192 36//193 
f 234//192 37//194 36//193 
f 234//192 227//181 228//184 
f 235//195 228//184 229//185 
f 236//196 229//185 230//186 
f 237//197 230//186 231//187 
f 238//198 231//187 232//188 
f 239//199 232//188 233//189 
f 240//200 233//189 113//201 
f 233//189 114//202 113//201 
f 234//192 241//203 34//204 
f 241//203 35//205 34//204 
f 241//203 234//192 235//195 
f 242//206 235//195 236//196 
f 243//207 236//196 237//197 
f 244//208 237//197 238//198 
f 245//209 238//198 239//199 
f 246//210 239//199 240//200 
f 247//211 240//200 115//212 
f 240//200 116//213 115//212 
f 241//203 248//214 32//215 
f 248//214 33//216 32//215 
f 248//214 241//203 242//206 
f 249//217 242//206 243//207 
f 250//218 243//207 244//208 
f 251//219 244//208 245//209 
f 252//220 245//209 246//210 
f 253//221 246//210 247//211 
f 254//222 247//211 117//223 
f 247//211 118//224 117//223 
f 255//225 90//226 89//227 
f 89//227 248//214 255//225 
f 255//225 248//214 249//217 
f 256//228 249//217 250//218 
f 257//229 250//218 251//219 
f 258//230 251//219 252//220 
f 259//231 252//220 253//221 
f 260//232 253//221 254//222 
f 261//233 254//222 119//234 
f 254//222 120//235 119//234 
f 262//236 87//237 88//238 
f 88//238 255//225 262//236 
f 262//236 255//225 256//228 
f 263//239 256//228 257//229 
f 264//240 257//229 258//230 
f 265//241 258//230 259//231 
f 266//242 259//231 260//232 
f 267//243 260//232 261//233 
f 268//244 261//233 121//245 
f 261//233 122//246 121//245 
f 269//247 85//248 86//249 
f 86//249 262//236 269//247 
f 269//247 262//236 263//239 
f 270//250 263//239 264//240 
f 271//251 264//240 265//241 
f 272//252 265//241 266//242 
f 273//253 266//242 267//243 
f 274//254 267//243 268//244 
f 123//255 124//256 275//257 
f 268//244 125//258 123//255 
f 276//259 83//260 84//261 
f 84//261 269//247 276//259 
f 276//259 269//247 270//250 
f 277//262 270//250 271//251 
f 278//263 271//251 272//252 
f 279//264 272//252 273//253 
f 280//265 273//253 274//254 
f 281//266 274//254 275//257 
f 126//267 127//268 282//269 
f 275//257 124//256 126//267 
f 283//270 81//271 82//272 
f 82//272 276//259 283//270 
f 283//270 276//259 277//262 
f 284//273 277//262 278//263 
f 285//274 278//263 279//264 
f 286//275 279//264 280//265 
f 287//276 280//265 281//266 
f 288//277 281//266 282//269 
f 128//278 129//279 289//280 
f 282//269 127//268 128//278 
f 80//281 283//270 290//282 
f 290//282 79//283 80//281 
f 290//282 283//270 284//273 
f 291//284 284//273 285//274 
f 292//285 285//274 286//275 
f 293//286 286//275 287//276 
f 294//287 287//276 288//277 
f 295//288 288//277 289//280 
f 130//289 131//290 296//291 
f 289//280 129//279 130//289 
f 78//292 290//282 297//293 
f 297//293 77//294 78//292 
f 297//293 290//282 291//284 
f 298//295 291//284 292//285 
f 299//296 292//285 293//286 
f 300//297 293//286 294//287 
f 301//298 294//287 295//288 
f 302//299 295//288 296//291 
f 132//300 133//301 303//302 
f 296//291 131//290 132//300 
f 304//303 75//304 76//305 
f 76//305 297//293 304//303 
f 76//305 74//306 297//293 
f 304//303 297//293 298//295 
f 305//307 298//295 299//296 
f 306//308 299//296 300//297 
f 307//309 300//297 301//298 
f 308//310 301//298 302//299 
f 309//311 302//299 303//302 
f 310//312 303//302 134//313 
f 303//302 135//314 134//313 
f 303//302 133//301 135//314 
f 311//315 72//316 73//317 
f 73//317 304//303 311//315 
f 311//315 304//303 305//307 
f 312//318 305//307 306//308 
f 313//319 306//308 307//309 
f 314//320 307//309 308//310 
f 315//321 308//310 309//311 
f 316//322 309//311 310//312 
f 136//323 137//324 317//325 
f 310//312 138//326 136//323 
f 318//327 70//328 71//329 
f 71//329 311//315 318//327 
f 318//327 311//315 312//318 
f 319//330 312//318 313//319 
f 320//331 313//319 314//320 
f 321//332 314//320 315//321 
f 322//333 315//321 316//322 
f 323//334 316//322 317//325 
f 139//335 140//336 324//337 
f 317//325 137//324 139//335 
f 325//338 68//339 69//340 
f 69//340 318//327 325//338 
f 325//338 318//327 319//330 
f 326//341 319//330 320//331 
f 327//342 320//331 321//332 
f 328//343 321//332 322//333 
f 329//344 322//333 323//334 
f 330//345 323//334 324//337 
f 141//346 142//347 331//348 
f 324//337 140//336 141//346 
f 332//349 66//350 67//351 
f 67//351 325//338 332//349 
f 332//349 325//338 326//341 
f 333//352 326//341 327//342 
f 334//353 327//342 328//343 
f 335//354 328//343 329//344 
f 336//355 329//344 330//345 
f 337//356 330//345 331//348 
f 338//357 331//348 143//358 
f 331//348 142//347 143//358 
f 339//359 65//360 64//361 
f 64//361 332//349 339//359 
f 339//359 332//349 333//352 
f 340//362 333//352 334//353 
f 341//363 334//353 335//354 
f 342//364 335//354 336//355 
f 343//365 336//355 337//356 
f 344//366 337//356 338//357 
f 345//367 338//357 144//368 
f 338//357 145//369 144//368 
f 346//370 63//371 62//372 
f 62//372 339//359 346//370 
f 346//370 339//359 340//362 
f 347//373 340//362 341//363 
f 348//374 341//363 342//364 
f 349//375 342//364 343//365 
f 350//376 343//365 344//366 
f 351//377 344//366 345//367 
f 352//378 345//367 146//379 
f 345//367 147//380 146//379 
f 150//64 61//381 60//382 
f 60//382 346//370 150//64 
f 150//64 346//370 347//373 
f 152//68 347//373 348//374 
f 154//70 348//374 349//375 
f 156//72 349//375 350//376 
f 158//74 350//376 351//377 
f 160//76 351//377 352//378 
f 162//78 352//378 148//383 
f 352//378 149//384 148//383 
f 148//383 92//81 162//78 
f 352//378 162//78 160//76 
f 351//377 160//76 158//74 
f 350//376 158//74 156//72 
f 349//375 156//72 154//70 
f 348//374 154//70 152//68 
f 347//373 152//68 150//64 
f 60//382 63//371 346//370 
f 146//379 149//384 352//378 
f 345//367 352//378 351//377 
f 344//366 351//377 350//376 
f 343//365 350//376 349//375 
f 342//364 349//375 348//374 
f 341//363 348//374 347//373 
f 340//362 347//373 346//370 
f 62//372 65//360 339//359 
f 144//368 147//380 345//367 
f 338//357 345//367 344//366 
f 337//356 344//366 343//365 
f 336//355 343//365 342//364 
f 335//354 342//364 341//363 
f 334//353 341//363 340//362 
f 333//352 340//362 339//359 
f 64//361 66//350 332//349 
f 143//358 145//369 338//357 
f 331//348 338//357 337//356 
f 330//345 337//356 336//355 
f 329//344 336//355 335//354 
f 328//343 335//354 334//353 
f 327//342 334//353 333//352 
f 326//341 333//352 332//349 
f 67//351 68//339 325//338 
f 331//348 324//337 141//346 
f 324//337 331//348 330//345 
f 323//334 330//345 329//344 
f 322//333 329//344 328//343 
f 321//332 328//343 327//342 
f 320//331 327//342 326//341 
f 319//330 326//341 325//338 
f 69//340 70//328 318//327 
f 324//337 317//325 139//335 
f 317//325 324//337 323//334 
f 316//322 323//334 322//333 
f 315//321 322//333 321//332 
f 314//320 321//332 320//331 
f 313//319 320//331 319//330 
f 312//318 319//330 318//327 
f 71//329 72//316 311//315 
f 317//325 310//312 136//323 
f 310//312 317//325 316//322 
f 309//311 316//322 315//321 
f 308//310 315//321 314//320 
f 307//309 314//320 313//319 
f 306//308 313//319 312//318 
f 305//307 312//318 311//315 
f 73//317 75//304 304//303 
f 134//313 138//326 310//312 
f 303//302 310//312 309//311 
f 302//299 309//311 308//310 
f 301//298 308//310 307//309 
f 300//297 307//309 306//308 
f 299//296 306//308 305//307 
f 298//295 305//307 304//303 
f 74//306 77//294 297//293 
f 303//302 296//291 132//300 
f 296//291 303//302 302//299 
f 295//288 302//299 301//298 
f 294//287 301//298 300//297 
f 293//286 300//297 299//296 
f 292//285 299//296 298//295 
f 291//284 298//295 297//293 
f 78//292 79//283 290//282 
f 296//291 289//280 130//289 
f 289//280 296//291 295//288 
f 288//277 295//288 294//287 
f 287//276 294//287 293//286 
f 286//275 293//286 292//285 
f 285//274 292//285 291//284 
f 284//273 291//284 290//282 
f 80//281 81//271 283//270 
f 289//280 282//269 128//278 
f 282//269 289//280 288//277 
f 281//266 288//277 287//276 
f 280//265 287//276 286//275 
f 279//264 286//275 285//274 
f 278//263 285//274 284//273 
f 277//262 284//273 283//270 
f 82//272 83//260 276//259 
f 282//269 275//257 126//267 
f 275//257 282//269 281//266 
f 274//254 281//266 280//265 
f 273//253 280//265 279//264 
f 272//252 279//264 278//263 
f 271//251 278//263 277//262 
f 270//250 277//262 276//259 
f 84//261 85//248 269//247 
f 275//257 268//244 123//255 
f 268//244 275//257 274//254 
f 267//243 274//254 273//253 
f 266//242 273//253 272//252 
f 265//241 272//252 271//251 
f 264//240 271//251 270//250 
f 263//239 270//250 269//247 
f 86//249 87//237 262//236 
f 121//245 125//258 268//244 
f 261//233 268//244 267//243 
f 260//232 267//243 266//242 
f 259//231 266//242 265//241 
f 258//230 265//241 264//240 
f 257//229 264//240 263//239 
f 256//228 263//239 262//236 
f 88//238 90//226 255//225 
f 119//234 122//246 261//233 
f 254//222 261//233 260//232 
f 253//221 260//232 259//231 
f 252//220 259//231 258//230 
f 251//219 258//230 257//229 
f 250//218 257//229 256//228 
f 249//217 256//228 255//225 
f 89//227 33//216 248//214 
f 117//223 120//235 254//222 
f 247//211 254//222 253//221 
f 246//210 253//221 252//220 
f 245//209 252//220 251//219 
f 244//208 251//219 250//218 
f 243//207 250//218 249//217 
f 242//206 249//217 248//214 
f 32//215 35//205 241//203 
f 115//212 118//224 247//211 
f 240//200 247//211 246//210 
f 239//199 246//210 245//209 
f 238//198 245//209 244//208 
f 237//197 244//208 243//207 
f 236//196 243//207 242//206 
f 235//195 242//206 241//203 
f 34//204 37//194 234//192 
f 113//201 116//213 240//200 
f 233//189 240//200 239//199 
f 232//188 239//199 238//198 
f 231//187 238//198 237//197 
f 230//186 237//197 236//196 
f 229//185 236//196 235//195 
f 228//184 235//195 234//192 
f 36//193 39//183 227//181 
f 111//190 114//202 233//189 
f 226//180 233//189 232//188 
f 225//177 232//188 231//187 
f 224//176 231//187 230//186 
f 223//175 230//186 229//185 
f 222//174 229//185 228//184 
f 221//173 228//184 227//181 
f 38//182 41//172 220//171 
f 110//179 112//191 226//180 
f 219//169 226//180 225//177 
f 218//166 225//177 224//176 
f 217//165 224//176 223//175 
f 216//164 223//175 222//174 
f 215//163 222//174 221//173 
f 214//162 221//173 220//171 
f 213//160 220//171 40//170 
f 108//168 109//178 219//169 
f 212//158 219//169 218//166 
f 211//155 218//166 217//165 
f 210//154 217//165 216//164 
f 209//153 216//164 215//163 
f 208//152 215//163 214//162 
f 207//151 214//162 213//160 
f 206//149 213//160 42//159 
f 106//157 107//167 212//158 
f 205//145 212//158 211//155 
f 204//144 211//155 210//154 
f 203//143 210//154 209//153 
f 202//142 209//153 208//152 
f 201//141 208//152 207//151 
f 200//140 207//151 206//149 
f 199//137 206//149 44//148 
f 103//146 105//156 205//145 
f 198//134 205//145 204//144 
f 197//133 204//144 203//143 
f 196//132 203//143 202//142 
f 195//131 202//142 201//141 
f 194//130 201//141 200//140 
f 193//129 200//140 199//137 
f 46//138 49//128 192//126 
f 101//135 104//147 198//134 
f 191//123 198//134 197//133 
f 190//122 197//133 196//132 
f 189//121 196//132 195//131 
f 188//120 195//131 194//130 
f 187//119 194//130 193//129 
f 186//118 193//129 192//126 
f 48//127 51//117 185//115 
f 99//124 102//136 191//123 
f 184//112 191//123 190//122 
f 183//111 190//122 189//121 
f 182//110 189//121 188//120 
f 181//109 188//120 187//119 
f 180//108 187//119 186//118 
f 179//107 186//118 185//115 
f 50//116 53//106 178//104 
f 97//113 100//125 184//112 
f 177//101 184//112 183//111 
f 176//100 183//111 182//110 
f 175//99 182//110 181//109 
f 174//98 181//109 180//108 
f 173//97 180//108 179//107 
f 172//96 179//107 178//104 
f 52//105 55//95 171//93 
f 95//102 98//114 177//101 
f 170//90 177//101 176//100 
f 169//89 176//100 175//99 
f 168//88 175//99 174//98 
f 167//87 174//98 173//97 
f 166//86 173//97 172//96 
f 165//85 172//96 171//93 
f 54//94 56//84 164//82 
f 93//91 96//103 170//90 
f 163//79 170//90 169//89 
f 161//77 169//89 168//88 
f 159//75 168//88 167//87 
f 157//73 167//87 166//86 
f 155//71 166//86 165//85 
f 153//69 165//85 164//82 
f 57//83 59//67 151//65 
f 91//80 94//92 163//79 
f 162//78 163//79 161//77 
f 160//76 161//77 159//75 
f 158//74 159//75 157//73 
f 156//72 157//73 155//71 
f 154//70 155//71 153//69 
f 152//68 153//69 151//65 
f 58//66 61//381 150//64 
o mesh3
f 353//385 106//386 105//387 
f 105//387 354//388 353//385 
f 354//388 103//389 104//390 
f 104//390 355//391 354//388 
f 355//391 101//392 102//393 
f 102//393 356//394 355//391 
f 356//394 99//395 100//396 
f 100//396 357//397 356//394 
f 357//397 97//398 98//399 
f 98//399 358//400 357//397 
f 358//400 95//401 96//402 
f 96//402 359//403 358//400 
f 359//403 93//404 94//405 
f 94//405 360//406 359//403 
f 360//406 91//407 92//408 
f 92//408 361//409 360//406 
f 361//409 148//410 149//411 
f 149//411 362//412 361//409 
f 362//412 146//413 147//414 
f 147//414 363//415 362//412 
f 363//415 144//416 145//417 
f 145//417 364//418 363//415 
f 364//418 143//419 142//420 
f 142//420 365//421 364//418 
f 365//421 141//422 140//423 
f 140//423 366//424 365//421 
f 366//424 139//425 137//426 
f 137//426 367//427 366//424 
f 368//428 138//429 134//430 
f 369//430 136//431 138//429 
f 138//429 368//428 369//430 
f 369//430 367//427 136//431 
f 368//428 135//432 133//433 
f 133//433 370//434 368//428 
f 370//434 132//435 131//436 
f 131//436 371//437 370//434 
f 371//437 130//438 129//439 
f 129//439 372//440 371//437 
f 372//440 128//441 127//442 
f 127//442 373//443 372//440 
f 373//443 126//444 124//445 
f 124//445 374//446 373//443 
f 374//446 123//447 125//448 
f 125//448 375//449 374//446 
f 375//449 121//450 122//451 
f 122//451 376//452 375//449 
f 376//452 119//453 120//454 
f 120//454 377//455 376//452 
f 377//455 117//456 118//457 
f 118//457 378//458 377//455 
f 378//458 115//459 116//460 
f 116//460 379//461 378//458 
f 379//461 113//462 114//463 
f 114//463 380//464 379//461 
f 380//464 111//465 112//466 
f 112//466 381//467 380//464 
f 381//467 110//468 109//469 
f 109//469 382//470 381//467 
f 382//470 108//471 107//472 
f 107//472 353//385 382//470 
f 107//472 106//386 353//385 
f 109//469 108//471 382//470 
f 112//466 110//468 381//467 
f 114//463 111//465 380//464 
f 116//460 113//462 379//461 
f 118//457 115//459 378//458 
f 120//454 117//456 377//455 
f 122//451 119//453 376//452 
f 125//448 121//450 375//449 
f 124//445 123//447 374//446 
f 127//442 126//444 373//443 
f 129//439 128//441 372//440 
f 131//436 130//438 371//437 
f 133//433 132//435 370//434 
f 134//430 135//432 368//428 
f 137//426 136//431 367//427 
f 140//423 139//425 366//424 
f 142//420 141//422 365//421 
f 145//417 143//419 364//418 
f 147//414 144//416 363//415 
f 149//411 146//413 362//412 
f 92//408 148//410 361//409 
f 94//405 91//407 360//406 
f 96//402 93//404 359//403 
f 98//399 95//401 358//400 
f 100//396 97//398 357//397 
f 102//393 99//395 356//394 
f 104//390 101//392 355//391 
f 105//387 103//389 354//388 
o mesh4
f 382//473 353//474 413//475 
f 414//476 413//475 415//477 
f 416//478 415//477 417//479 
f 418//480 417//479 419//481 
f 420//482 419//481 421//483 
f 422//484 421//483 423//485 
f 424//486 423//485 425//487 
f 426//488 425//487 383//489 
f 381//490 382//473 414//476 
f 427//491 414//476 416//478 
f 428//492 416//478 418//480 
f 429//493 418//480 420//482 
f 430//494 420//482 422//484 
f 431//495 422//484 424//486 
f 432//496 424//486 426//488 
f 433//497 426//488 384//498 
f 380//499 381//490 427//491 
f 434//500 427//491 428//492 
f 435//501 428//492 429//493 
f 436//502 429//493 430//494 
f 437//503 430//494 431//495 
f 438//504 431//495 432//496 
f 439//505 432//496 433//497 
f 440//506 433//497 385//507 
f 379//508 380//499 434//500 
f 441//509 434//500 435//501 
f 442//510 435//501 436//502 
f 443//511 436//502 437//503 
f 444//512 437//503 438//504 
f 445//513 438//504 439//505 
f 446//514 439//505 440//506 
f 447//515 440//506 386//516 
f 378//517 379//508 441//509 
f 448//518 441//509 442//510 
f 449//519 442//510 443//511 
f 450//520 443//511 444//512 
f 451//521 444//512 445//513 
f 452//522 445//513 446//514 
f 453//523 446//514 447//515 
f 454//524 447//515 387//525 
f 377//526 378//517 448//518 
f 455//527 448//518 449//519 
f 456//528 449//519 450//520 
f 457//529 450//520 451//521 
f 458//530 451//521 452//522 
f 459//531 452//522 453//523 
f 460//532 453//523 454//524 
f 461//533 454//524 388//534 
f 376//535 377//526 455//527 
f 462//536 455//527 456//528 
f 463//537 456//528 457//529 
f 464//538 457//529 458//530 
f 465//539 458//530 459//531 
f 466//540 459//531 460//532 
f 467//541 460//532 461//533 
f 468//542 461//533 389//543 
f 375//544 376//535 462//536 
f 469//545 462//536 463//537 
f 470//546 463//537 464//538 
f 471//547 464//538 465//539 
f 472//548 465//539 466//540 
f 473//549 466//540 467//541 
f 474//550 467//541 468//542 
f 475//551 468//542 390//552 
f 374//553 375//544 469//545 
f 476//554 469//545 470//546 
f 477//555 470//546 471//547 
f 478//556 471//547 472//548 
f 479//557 472//548 473//549 
f 480//558 473//549 474//550 
f 481//559 474//550 475//551 
f 482//560 475//551 391//561 
f 373//562 374//553 476//554 
f 483//563 476//554 477//555 
f 484//564 477//555 478//556 
f 485//565 478//556 479//557 
f 486//566 479//557 480//558 
f 487//567 480//558 481//559 
f 488//568 481//559 482//560 
f 489//569 482//560 392//570 
f 372//571 373//562 483//563 
f 490//572 483//563 484//564 
f 491//573 484//564 485//565 
f 492//574 485//565 486//566 
f 493//575 486//566 487//567 
f 494//576 487//567 488//568 
f 495//577 488//568 489//569 
f 496//578 489//569 393//579 
f 371//580 372//571 490//572 
f 497//581 490//572 491//573 
f 498//582 491//573 492//574 
f 499//583 492//574 493//575 
f 500//584 493//575 494//576 
f 501//585 494//576 495//577 
f 502//586 495//577 496//578 
f 503//587 496//578 394//588 
f 370//589 371//580 497//581 
f 504//590 497//581 498//582 
f 505//591 498//582 499//583 
f 506//592 499//583 500//584 
f 507//593 500//584 501//585 
f 508//594 501//585 502//586 
f 509//595 502//586 503//587 
f 510//596 503//587 395//597 
f 368//598 370//589 504//590 
f 511//599 504//590 505//591 
f 512//600 505//591 506//592 
f 513//601 506//592 507//593 
f 514//602 507//593 508//594 
f 515//603 508//594 509//595 
f 516//604 509//595 510//596 
f 517//605 510//596 396//606 
f 518//607 367//608 369//609 
f 369//609 511//599 518//607 
f 518//607 511//599 512//600 
f 519//610 512//600 513//601 
f 520//611 513//601 514//602 
f 521//612 514//602 515//603 
f 522//613 515//603 516//604 
f 523//614 516//604 517//605 
f 524//615 517//605 397//616 
f 517//605 398//617 397//616 
f 366//618 367//608 518//607 
f 525//619 518//607 519//610 
f 526//620 519//610 520//611 
f 527//621 520//611 521//612 
f 528//622 521//612 522//613 
f 529//623 522//613 523//614 
f 530//624 523//614 524//615 
f 531//625 524//615 399//626 
f 365//627 366//618 525//619 
f 532//628 525//619 526//620 
f 533//629 526//620 527//621 
f 534//630 527//621 528//622 
f 535//631 528//622 529//623 
f 536//632 529//623 530//624 
f 537//633 530//624 531//625 
f 538//634 531//625 400//635 
f 364//636 365//627 532//628 
f 539//637 532//628 533//629 
f 540//638 533//629 534//630 
f 541//639 534//630 535//631 
f 542//640 535//631 536//632 
f 543//641 536//632 537//633 
f 544//642 537//633 538//634 
f 545//643 538//634 401//644 
f 363//645 364//636 539//637 
f 546//646 539//637 540//638 
f 547//647 540//638 541//639 
f 548//648 541//639 542//640 
f 549//649 542//640 543//641 
f 550//650 543//641 544//642 
f 551//651 544//642 545//643 
f 552//652 545//643 402//653 
f 362//654 363//645 546//646 
f 553//655 546//646 547//647 
f 554//656 547//647 548//648 
f 555//657 548//648 549//649 
f 556//658 549//649 550//650 
f 557//659 550//650 551//651 
f 558//660 551//651 552//652 
f 559//661 552//652 403//662 
f 361//663 362//654 553//655 
f 560//664 553//655 554//656 
f 561//665 554//656 555//657 
f 562//666 555//657 556//658 
f 563//667 556//658 557//659 
f 564//668 557//659 558//660 
f 565//669 558//660 559//661 
f 566//670 559//661 404//671 
f 360//672 361//663 560//664 
f 567//673 560//664 561//665 
f 568//674 561//665 562//666 
f 569//675 562//666 563//667 
f 570//676 563//667 564//668 
f 571//677 564//668 565//669 
f 572//678 565//669 566//670 
f 573//679 566//670 405//680 
f 359//681 360//672 567//673 
f 574//682 567//673 568//674 
f 575//683 568//674 569//675 
f 576//684 569//675 570//676 
f 577//685 570//676 571//677 
f 578//686 571//677 572//678 
f 579//687 572//678 573//679 
f 580//688 573//679 406//689 
f 358//690 359//681 574//682 
f 581//691 574//682 575//683 
f 582//692 575//683 576//684 
f 583//693 576//684 577//685 
f 584//694 577//685 578//686 
f 585//695 578//686 579//687 
f 586//696 579//687 580//688 
f 587//697 580//688 407//698 
f 357//699 358//690 581//691 
f 588//700 581//691 582//692 
f 589//701 582//692 583//693 
f 590//702 583//693 584//694 
f 591//703 584//694 585//695 
f 592//704 585//695 586//696 
f 593//705 586//696 587//697 
f 594//706 587//697 408//707 
f 356//708 357//699 588//700 
f 595//709 588//700 589//701 
f 596//710 589//701 590//702 
f 597//711 590//702 591//703 
f 598//712 591//703 592//704 
f 599//713 592//704 593//705 
f 600//714 593//705 594//706 
f 601//715 594//706 409//716 
f 355//717 356//708 595//709 
f 602//718 595//709 596//710 
f 603//719 596//710 597//711 
f 604//720 597//711 598//712 
f 605//721 598//712 599//713 
f 606//722 599//713 600//714 
f 607//723 600//714 601//715 
f 608//724 601//715 410//725 
f 354//726 355//717 602//718 
f 609//727 602//718 603//719 
f 610//728 603//719 604//720 
f 611//729 604//720 605//721 
f 612//730 605//721 606//722 
f 613//731 606//722 607//723 
f 614//732 607//723 608//724 
f 615//733 608//724 411//734 
f 353//474 354//726 609//727 
f 413//475 609//727 610//728 
f 415//477 610//728 611//729 
f 417//479 611//729 612//730 
f 419//481 612//730 613//731 
f 421//483 613//731 614//732 
f 423//485 614//732 615//733 
f 425//487 615//733 412//735 
f 412//735 383//489 425//487 
f 615//733 425//487 423//485 
f 614//732 423//485 421//483 
f 613//731 421//483 419//481 
f 612//730 419//481 417//479 
f 611//729 417//479 415//477 
f 610//728 415//477 413//475 
f 609//727 413//475 353//474 
f 411//734 412//735 615//733 
f 608//724 615//733 614//732 
f 607//723 614//732 613//731 
f 606//722 613//731 612//730 
f 605//721 612//730 611//729 
f 604//720 611//729 610//728 
f 603//719 610//728 609//727 
f 602//718 609//727 354//726 
f 410//725 411//734 608//724 
f 601//715 608//724 607//723 
f 600//714 607//723 606//722 
f 599//713 606//722 605//721 
f 598//712 605//721 604//720 
f 597//711 604//720 603//719 
f 596//710 603//719 602//718 
f 595//709 602//718 355//717 
f 409//716 410//725 601//715 
f 594//706 601//715 600//714 
f 593//705 600//714 599//713 
f 592//704 599//713 598//712 
f 591//703 598//712 597//711 
f 590//702 597//711 596//710 
f 589//701 596//710 595//709 
f 588//700 595//709 356//708 
f 408//707 409//716 594//706 
f 587//697 594//706 593//705 
f 586//696 593//705 592//704 
f 585//695 592//704 591//703 
f 584//694 591//703 590//702 
f 583//693 590//702 589//701 
f 582//692 589//701 588//700 
f 581//691 588//700 357//699 
f 407//698 408//707 587//697 
f 580//688 587//697 586//696 
f 579//687 586//696 585//695 
f 578//686 585//695 584//694 
f 577//685 584//694 583//693 
f 576//684 583//693 582//692 
f 575//683 582//692 581//691 
f 574//682 581//691 358//690 
f 406//689 407//698 580//688 
f 573//679 580//688 579//687 
f 572//678 579//687 578//686 
f 571//677 578//686 577//685 
f 570//676 577//685 576//684 
f 569//675 576//684 575//683 
f 568//674 575//683 574//682 
f 567//673 574//682 359//681 
f 405//680 406//689 573//679 
f 566//670 573//679 572//678 
f 565//669 572//678 571//677 
f 564//668 571//677 570//676 
f 563//667 570//676 569//675 
f 562//666 569//675 568//674 
f 561//665 568//674 567//673 
f 560//664 567//673 360//672 
f 404//671 405//680 566//670 
f 559//661 566//670 565//669 
f 558//660 565//669 564//668 
f 557//659 564//668 563//667 
f 556//658 563//667 562//666 
f 555//657 562//666 561//665 
f 554//656 561//665 560//664 
f 553//655 560//664 361//663 
f 403//662 404//671 559//661 
f 552//652 559//661 558//660 
f 551//651 558//660 557//659 
f 550//650 557//659 556//658 
f 549//649 556//658 555//657 
f 548//648 555//657 554//656 
f 547//647 554//656 553//655 
f 546//646 553//655 362//654 
f 402//653 403//662 552//652 
f 545//643 552//652 551//651 
f 544//642 551//651 550//650 
f 543//641 550//650 549//649 
f 542//640 549//649 548//648 
f 541//639 548//648 547//647 
f 540//638 547//647 546//646 
f 539//637 546//646 363//645 
f 401//644 402//653 545//643 
f 538//634 545//643 544//642 
f 537//633 544//642 543//641 
f 536//632 543//641 542//640 
f 535//631 542//640 541//639 
f 534//630 541//639 540//638 
f 533//629 540//638 539//637 
f 532//628 539//637 364//636 
f 400//635 401//644 538//634 
f 531//625 538//634 537//633 
f 530//624 537//633 536//632 
f 529//623 536//632 535//631 
f 528//622 535//631 534//630 
f 527//621 534//630 533//629 
f 526//620 533//629 532//628 
f 525//619 532//628 365//627 
f 399//626 400//635 531//625 
f 524//615 531//625 530//624 
f 523//614 530//624 529//623 
f 522//613 529//623 528//622 
f 521//612 528//622 527//621 
f 520//611 527//621 526//620 
f 519//610 526//620 525//619 
f 518//607 525//619 366//618 
f 397//616 399//626 524//615 
f 517//605 524//615 523//614 
f 516//604 523//614 522//613 
f 515//603 522//613 521//612 
f 514//602 521//612 520//611 
f 513//601 520//611 519//610 
f 512//600 519//610 518//607 
f 369//609 368//598 511//599 
f 396//606 398//617 517//605 
f 510//596 517//605 516//604 
f 509//595 516//604 515//603 
f 508//594 515//603 514//602 
f 507//593 514//602 513//601 
f 506//592 513//601 512//600 
f 505//591 512//600 511//599 
f 504//590 511//599 368//598 
f 395//597 396//606 510//596 
f 503//587 510//596 509//595 
f 502//586 509//595 508//594 
f 501//585 508//594 507//593 
f 500//584 507//593 506//592 
f 499//583 506//592 505//591 
f 498//582 505//591 504//590 
f 497//581 504//590 370//589 
f 394//588 395//597 503//587 
f 496//578 503//587 502//586 
f 495//577 502//586 501//585 
f 494//576 501//585 500//584 
f 493//575 500//584 499//583 
f 492//574 499//583 498//582 
f 491//573 498//582 497//581 
f 490//572 497//581 371//580 
f 393//579 394//588 496//578 
f 489//569 496//578 495//577 
f 488//568 495//577 494//576 
f 487//567 494//576 493//575 
f 486//566 493//575 492//574 
f 485//565 492//574 491//573 
f 484//564 491//573 490//572 
f 483//563 490//572 372//571 
f 392//570 393//579 489//569 
f 482//560 489//569 488//568 
f 481//559 488//568 487//567 
f 480//558 487//567 486//566 
f 479//557 486//566 485//565 
f 478//556 485//565 484//564 
f 477//555 484//564 483//563 
f 476//554 483//563 373//562 
f 391//561 392//570 482//560 
f 475//551 482//560 481//559 
f 474//550 481//559 480//558 
f 473//549 480//558 479//557 
f 472//548 479//557 478//556 
f 471//547 478//556 477//555 
f 470//546 477//555 476//554 
f 469//545 476//554 374//553 
f 390//552 391//561 475//551 
f 468//542 475//551 474//550 
f 467//541 474//550 473//549 
f 466//540 473//549 472//548 
f 465//539 472//548 471//547 
f 464//538 471//547 470//546 
f 463//537 470//546 469//545 
f 462//536 469//545 375//544 
f 389//543 390//552 468//542 
f 461//533 468//542 467//541 
f 460//532 467//541 466//540 
f 459//531 466//540 465//539 
f 458//530 465//539 464//538 
f 457//529 464//538 463//537 
f 456//528 463//537 462//536 
f 455//527 462//536 376//535 
f 388//534 389//543 461//533 
f 454//524 461//533 460//532 
f 453//523 460//532 459//531 
f 452//522 459//531 458//530 
f 451//521 458//530 457//529 
f 450//520 457//529 456//528 
f 449//519 456//528 455//527 
f 448//518 455//527 377//526 
f 387//525 388//534 454//524 
f 447//515 454//524 453//523 
f 446//514 453//523 452//522 
f 445//513 452//522 451//521 
f 444//512 451//521 450//520 
f 443//511 450//520 449//519 
f 442//510 449//519 448//518 
f 441//509 448//518 378//517 
f 386//516 387//525 447//515 
f 440//506 447//515 446//514 
f 439//505 446//514 445//513 
f 438//504 445//513 444//512 
f 437//503 444//512 443//511 
f 436//502 443//511 442//510 
f 435//501 442//510 441//509 
f 434//500 441//509 379//508 
f 385//507 386//516 440//506 
f 433//497 440//506 439//505 
f 432//496 439//505 438//504 
f 431//495 438//504 437//503 
f 430//494 437//503 436//502 
f 429//493 436//502 435//501 
f 428//492 435//501 434//500 
f 427//491 434//500 380//499 
f 384//498 385//507 433//497 
f 426//488 433//497 432//496 
f 424//486 432//496 431//495 
f 422//484 431//495 430//494 
f 420//482 430//494 429//493 
f 418//480 429//493 428//492 
f 416//478 428//492 427//491 
f 414//476 427//491 381//490 
f 383//489 384//498 426//488 
f 425//487 426//488 424//486 
f 423//485 424//486 422//484 
f 421//483 422//484 420//482 
f 419//481 420//482 418//480 
f 417//479 418//480 416//478 
f 415//477 416//478 414//476 
f 413//475 414//476 382//473 
o mesh5
f 616//736 383//736 412//735 
f 617//735 412//735 411//737 
f 618//737 411//737 410//738 
f 619//738 410//738 409//739 
f 620//739 409//739 408//740 
f 621//740 408//740 407//741 
f 622//741 407//741 406//742 
f 623//742 406//742 405//743 
f 624//743 405//743 404//744 
f 625//744 404//744 403//745 
f 626//745 403//745 402//746 
f 627//746 402//746 401//747 
f 628//747 401//747 400//748 
f 629//748 400//748 399//749 
f 630//750 631//751 397//751 
f 399//749 397//751 631//751 
f 631//751 632//752 399//749 
f 630//750 398//753 396//754 
f 633//754 396//754 395//755 
f 634//755 395//755 394//756 
f 635//756 394//756 393//757 
f 636//757 393//757 392//758 
f 637//758 392//758 391//759 
f 638//759 391//759 390//760 
f 639//760 390//760 389//761 
f 640//761 389//761 388//762 
f 641//762 388//762 387//763 
f 642//763 387//763 386//764 
f 643//764 386//764 385//765 
f 644//765 385//765 384//766 
f 645//766 384//766 383//736 
f 383//736 616//736 645//766 
f 384//766 645//766 644//765 
f 385//765 644//765 643//764 
f 386//764 643//764 642//763 
f 387//763 642//763 641//762 
f 388//762 641//762 640//761 
f 389//761 640//761 639//760 
f 390//760 639//760 638//759 
f 391//759 638//759 637//758 
f 392//758 637//758 636//757 
f 393//757 636//757 635//756 
f 394//756 635//756 634//755 
f 395//755 634//755 633//754 
f 396//754 633//754 630//750 
f 397//751 398//753 630//750 
f 399//749 632//752 629//748 
f 400//748 629//748 628//747 
f 401//747 628//747 627//746 
f 402//746 627//746 626//745 
f 403//745 626//745 625//744 
f 404//744 625//744 624//743 
f 405//743 624//743 623//742 
f 406//742 623//742 622//741 
f 407//741 622//741 621//740 
f 408//740 621//740 620//739 
f 409//739 620//739 619//738 
f 410//738 619//738 618//737 
f 411//737 618//737 617//735 
f 412//735 617//735 616//736 
o mesh6
f 646//767 630//767 633//767 
f 633//767 634//767 646//767 
f 634//767 635//767 646//767 
f 635//767 636//767 646//767 
f 636//767 637//767 646//767 
f 637//767 638//767 646//767 
f 638//767 639//767 646//767 
f 639//767 640//767 646//767 
f 640//767 641//767 646//767 
f 641//767 642//767 646//767 
f 642//767 643//767 646//767 
f 643//767 644//767 646//767 
f 644//767 645//767 646//767 
f 645//767 616//767 646//767 
f 616//767 617//767 646//767 
f 617//767 618//767 646//767 
f 618//767 619//767 646//767 
f 619//767 620//767 646//767 
f 620//767 621//767 646//767 
f 621//767 622//767 646//767 
f 622//767 623//767 646//767 
f 623//767 624//767 646//767 
f 624//767 625//767 646//767 
f 625//767 626//767 646//767 
f 626//767 627//767 646//767 
f 627//767 628//767 646//767 
f 628//767 629//767 646//767 
f 629//767 632//767 646//767 
f 632//767 631//767 646//767 
f 631//767 630//767 646//767 
