# OBJ generated by ONSHAPE BY PTC INC, 1.214 Units = meters
mtllib tacIL_gripper_v2_with_selectors - selector_B2.mtl
g selector_B2
v 0.039 0.00249117 0.000162179 
v 0.039 0.00242145 0.000478952 
v 0.039 0.00228525 0.000773331 
v 0.039 0.00208896 0.00103155 
v 0.039 0.00184175 0.00124153 
v 0.039 0.00155517 0.00139347 
v 0.039 0.00124264 0.00148024 
v 0.039 0.000918758 0.0014978 
v 0.039 0.000598674 0.00144532 
v 0.039 0.000297353 0.00132527 
v 0.039 2.88867e-05 0.00114324 
v 0.039 -0.000194173 0.000907761 
v 0.039 -0.000361397 0.000629834 
v 0.039 -0.000464965 0.000322456 
v 0.039 -0.000500034 -5.78013e-19 
v 0.039 -0.000464965 -0.000322456 
v 0.039 -0.000361397 -0.000629834 
v 0.039 -0.000194173 -0.000907761 
v 0.039 2.88867e-05 -0.00114324 
v 0.039 0.000297353 -0.00132527 
v 0.039 0.000598674 -0.00144532 
v 0.039 0.000918758 -0.0014978 
v 0.039 0.00124264 -0.00148024 
v 0.039 0.00155517 -0.00139347 
v 0.039 0.00184175 -0.00124153 
v 0.039 0.00208896 -0.00103155 
v 0.039 0.00228525 -0.000773331 
v 0.039 0.00242145 -0.000478952 
v 0.039 0.00249117 -0.000162179 
v 0.039 0.00249997 -9.5576e-20 
v 0.039 0.000999966 0 
v 0.0323723 -0.000500034 -6.02881e-19 
v 0.0323723 -0.000464965 -0.000322456 
v 0.0323723 -0.000361397 -0.000629834 
v 0.0323723 -0.000194173 -0.000907761 
v 0.0323723 2.88867e-05 -0.00114324 
v 0.0323723 0.000297353 -0.00132527 
v 0.0323723 0.000598674 -0.00144532 
v 0.0323723 0.000918758 -0.0014978 
v 0.0323723 0.00124264 -0.00148024 
v 0.0323723 0.00155517 -0.00139347 
v 0.0323723 0.00184175 -0.00124153 
v 0.0323723 0.00208896 -0.00103155 
v 0.0323723 0.00228525 -0.000773331 
v 0.0323723 0.00242145 -0.000478952 
v 0.0323723 0.00249117 -0.000162179 
v 0.0323723 0.00249997 3.94501e-18 
v 0.0323723 0.00249117 0.000162179 
v 0.0323723 0.00242145 0.000478952 
v 0.0323723 0.00228525 0.000773331 
v 0.0323723 0.00208896 0.00103155 
v 0.0323723 0.00184175 0.00124153 
v 0.0323723 0.00155517 0.00139347 
v 0.0323723 0.00124264 0.00148024 
v 0.0323723 0.000918758 0.0014978 
v 0.0323723 0.000598674 0.00144532 
v 0.0323723 0.000297353 0.00132527 
v 0.0323723 2.88867e-05 0.00114324 
v 0.0323723 -0.000194173 0.000907761 
v 0.0323723 -0.000361397 0.000629834 
v 0.0323723 -0.000464965 0.000322456 
v 0.0308402 -0.00190365 0.000322456 
v 0.0308752 -0.00190585 -6.02881e-19 
v 0.0307369 -0.00189715 0.000629834 
v 0.03057 -0.00188665 0.000907761 
v 0.0303474 -0.00187264 0.00114324 
v 0.0300794 -0.00185578 0.00132527 
v 0.0297787 -0.00183686 0.00144532 
v 0.0294593 -0.00181677 0.0014978 
v 0.029136 -0.00179643 0.00148024 
v 0.0288241 -0.00177681 0.00139347 
v 0.0285381 -0.00175881 0.00124153 
v 0.0282914 -0.00174329 0.00103155 
v 0.0280955 -0.00173096 0.000773331 
v 0.0279595 -0.00172241 0.000478952 
v 0.0278899 -0.00171803 0.000162179 
v 0.0278899 -0.00171803 -0.000162179 
v 0.0278812 -0.00171748 -7.36674e-19 
v 0.0279595 -0.00172241 -0.000478952 
v 0.0280955 -0.00173096 -0.000773331 
v 0.0282914 -0.00174329 -0.00103155 
v 0.0285381 -0.00175881 -0.00124153 
v 0.0288241 -0.00177681 -0.00139347 
v 0.029136 -0.00179643 -0.00148024 
v 0.0294593 -0.00181677 -0.0014978 
v 0.0297787 -0.00183686 -0.00144532 
v 0.0300794 -0.00185578 -0.00132527 
v 0.0303474 -0.00187264 -0.00114324 
v 0.03057 -0.00188665 -0.000907761 
v 0.0307369 -0.00189715 -0.000629834 
v 0.0308402 -0.00190365 -0.000322456 
v 0.03093 -0.00158802 -2.35487e-19 
v 0.0308963 -0.00157838 0.000322456 
v 0.0310514 -0.00128923 -2.35487e-19 
v 0.0310205 -0.00127261 0.000322456 
v 0.0312339 -0.00102331 -2.35487e-19 
v 0.0312073 -0.00100047 0.000322456 
v 0.031469 -0.000802531 -2.35487e-19 
v 0.0314478 -0.000774534 0.000322456 
v 0.0317458 -0.000637116 -2.35487e-19 
v 0.0317312 -0.000605251 0.000322456 
v 0.0320516 -0.000534705 -2.35487e-19 
v 0.0320441 -0.000500446 0.000322456 
v 0.0307967 -0.00154994 0.000629834 
v 0.0309293 -0.00122354 0.000629834 
v 0.0311286 -0.000933032 0.000629834 
v 0.0313855 -0.000691853 0.000629834 
v 0.0316879 -0.000511148 0.000629834 
v 0.032022 -0.000399273 0.000629834 
v 0.0306359 -0.001504 0.000907761 
v 0.0307821 -0.00114429 0.000907761 
v 0.0310017 -0.000824144 0.000907761 
v 0.0312848 -0.000558352 0.000907761 
v 0.0316181 -0.000359207 0.000907761 
v 0.0319863 -0.000235914 0.000907761 
v 0.0304214 -0.00144274 0.00114324 
v 0.0305856 -0.00103859 0.00114324 
v 0.0308324 -0.000678898 0.00114324 
v 0.0311504 -0.000380276 0.00114324 
v 0.0315249 -0.000156532 0.00114324 
v 0.0319386 -1.80099e-05 0.00114324 
v 0.0301633 -0.00136899 0.00132527 
v 0.0303492 -0.000911376 0.00132527 
v 0.0306287 -0.000504085 0.00132527 
v 0.0309888 -0.000165949 0.00132527 
v 0.0314128 8.74002e-05 0.00132527 
v 0.0318812 0.000244251 0.00132527 
v 0.0298735 -0.00128623 0.00144532 
v 0.0300839 -0.00076859 0.00144532 
v 0.0304 -0.00030788 0.00144532 
v 0.0308073 7.46052e-05 0.00144532 
v 0.031287 0.000361183 0.00144532 
v 0.0318168 0.000538607 0.00144532 
v 0.0295658 -0.00119831 0.0014978 
v 0.029802 -0.000616912 0.0014978 
v 0.0301571 -9.94563e-05 0.0014978 
v 0.0306146 0.00033014 0.0014978 
v 0.0311533 0.000652016 0.0014978 
v 0.0317484 0.000851293 0.0014978 
v 0.0292543 -0.00110934 0.00148024 
v 0.0295168 -0.000463435 0.00148024 
v 0.0299113 0.00011144 0.00148024 
v 0.0304195 0.000588705 0.00148024 
v 0.031018 0.000946298 0.00148024 
v 0.0316791 0.00116769 0.00148024 
v 0.0289538 -0.0010235 0.00139347 
v 0.0292416 -0.000315335 0.00139347 
v 0.0296741 0.000314947 0.00139347 
v 0.0302313 0.000838212 0.00139347 
v 0.0308875 0.00123027 0.00139347 
v 0.0316123 0.001473 0.00139347 
v 0.0286783 -0.000944783 0.00124153 
v 0.0289892 -0.000179538 0.00124153 
v 0.0294566 0.00050155 0.00124153 
v 0.0300587 0.00106699 0.00124153 
v 0.0307678 0.00149065 0.00124153 
v 0.0315511 0.00175295 0.00124153 
v 0.0284406 -0.00087688 0.00103155 
v 0.0287715 -6.23914e-05 0.00103155 
v 0.029269 0.000662523 0.00103155 
v 0.0299098 0.00126435 0.00103155 
v 0.0306646 0.00171528 0.00103155 
v 0.0314982 0.00199445 0.00103155 
v 0.0282518 -0.000822962 0.000773331 
v 0.0285987 3.06253e-05 0.000773331 
v 0.02912 0.000790339 0.000773331 
v 0.0297916 0.00142106 0.000773331 
v 0.0305826 0.00189363 0.000773331 
v 0.0314563 0.0021862 0.000773331 
v 0.0281209 -0.000785553 0.000478952 
v 0.0284788 9.51633e-05 0.000478952 
v 0.0290166 0.000879022 0.000478952 
v 0.0297096 0.00152979 0.000478952 
v 0.0305257 0.00201738 0.000478952 
v 0.0314271 0.00231925 0.000478952 
v 0.0280538 -0.000766401 0.000162179 
v 0.0284173 0.000128205 0.000162179 
v 0.0289637 0.000924425 0.000162179 
v 0.0296676 0.00158545 0.000162179 
v 0.0304966 0.00208073 0.000162179 
v 0.0314122 0.00238736 0.000162179 
v 0.0280538 -0.000766401 -0.000162179 
v 0.0284173 0.000128205 -0.000162179 
v 0.0289637 0.000924425 -0.000162179 
v 0.0296676 0.00158545 -0.000162179 
v 0.0304966 0.00208073 -0.000162179 
v 0.0314122 0.00238736 -0.000162179 
v 0.0281209 -0.000785553 -0.000478952 
v 0.0284788 9.51633e-05 -0.000478952 
v 0.0290166 0.000879022 -0.000478952 
v 0.0297096 0.00152979 -0.000478952 
v 0.0305257 0.00201738 -0.000478952 
v 0.0314271 0.00231925 -0.000478952 
v 0.0282518 -0.000822962 -0.000773331 
v 0.0285987 3.06253e-05 -0.000773331 
v 0.02912 0.000790339 -0.000773331 
v 0.0297916 0.00142106 -0.000773331 
v 0.0305826 0.00189363 -0.000773331 
v 0.0314563 0.0021862 -0.000773331 
v 0.0284406 -0.00087688 -0.00103155 
v 0.0287715 -6.23914e-05 -0.00103155 
v 0.029269 0.000662523 -0.00103155 
v 0.0299098 0.00126435 -0.00103155 
v 0.0306646 0.00171528 -0.00103155 
v 0.0314982 0.00199445 -0.00103155 
v 0.0286783 -0.000944783 -0.00124153 
v 0.0289892 -0.000179538 -0.00124153 
v 0.0294566 0.00050155 -0.00124153 
v 0.0300587 0.00106699 -0.00124153 
v 0.0307678 0.00149065 -0.00124153 
v 0.0315511 0.00175295 -0.00124153 
v 0.0289538 -0.0010235 -0.00139347 
v 0.0292416 -0.000315335 -0.00139347 
v 0.0296741 0.000314947 -0.00139347 
v 0.0302313 0.000838212 -0.00139347 
v 0.0308875 0.00123027 -0.00139347 
v 0.0316123 0.001473 -0.00139347 
v 0.0292543 -0.00110934 -0.00148024 
v 0.0295168 -0.000463435 -0.00148024 
v 0.0299113 0.00011144 -0.00148024 
v 0.0304195 0.000588705 -0.00148024 
v 0.031018 0.000946298 -0.00148024 
v 0.0316791 0.00116769 -0.00148024 
v 0.0295658 -0.00119831 -0.0014978 
v 0.029802 -0.000616912 -0.0014978 
v 0.0301571 -9.94563e-05 -0.0014978 
v 0.0306146 0.00033014 -0.0014978 
v 0.0311533 0.000652016 -0.0014978 
v 0.0317484 0.000851293 -0.0014978 
v 0.0298735 -0.00128623 -0.00144532 
v 0.0300839 -0.00076859 -0.00144532 
v 0.0304 -0.00030788 -0.00144532 
v 0.0308073 7.46052e-05 -0.00144532 
v 0.031287 0.000361183 -0.00144532 
v 0.0318168 0.000538607 -0.00144532 
v 0.0301633 -0.00136899 -0.00132527 
v 0.0303492 -0.000911376 -0.00132527 
v 0.0306287 -0.000504085 -0.00132527 
v 0.0309888 -0.000165949 -0.00132527 
v 0.0314128 8.74002e-05 -0.00132527 
v 0.0318812 0.000244251 -0.00132527 
v 0.0304214 -0.00144274 -0.00114324 
v 0.0305856 -0.00103859 -0.00114324 
v 0.0308324 -0.000678898 -0.00114324 
v 0.0311504 -0.000380276 -0.00114324 
v 0.0315249 -0.000156532 -0.00114324 
v 0.0319386 -1.80099e-05 -0.00114324 
v 0.0306359 -0.001504 -0.000907761 
v 0.0307821 -0.00114429 -0.000907761 
v 0.0310017 -0.000824144 -0.000907761 
v 0.0312848 -0.000558352 -0.000907761 
v 0.0316181 -0.000359207 -0.000907761 
v 0.0319863 -0.000235914 -0.000907761 
v 0.0307967 -0.00154994 -0.000629834 
v 0.0309293 -0.00122354 -0.000629834 
v 0.0311286 -0.000933032 -0.000629834 
v 0.0313855 -0.000691853 -0.000629834 
v 0.0316879 -0.000511148 -0.000629834 
v 0.032022 -0.000399273 -0.000629834 
v 0.0308963 -0.00157838 -0.000322456 
v 0.0310205 -0.00127261 -0.000322456 
v 0.0312073 -0.00100047 -0.000322456 
v 0.0314478 -0.000774534 -0.000322456 
v 0.0317312 -0.000605251 -0.000322456 
v 0.0320441 -0.000500446 -0.000322456 
v 0.0249266 -0.0490627 0.000247523 
v 0.0249667 -0.0490663 0.000384001 
v 0.0249184 -0.0490621 0.000161504 
v 0.0249209 -0.0490623 0.000187154 
v 0.0249935 -0.0490687 0.000475286 
v 0.0250049 -0.0490698 0.000514178 
v 0.0251442 -0.0490825 0.000781756 
v 0.0253246 -0.0490989 0.0010047 
v 0.0251349 -0.0490816 0.00076385 
v 0.0253568 -0.0491019 0.00104452 
v 0.0255139 -0.0491162 0.00117408 
v 0.0253328 -0.0490997 0.00101486 
v 0.0255736 -0.0491216 0.0012233 
v 0.0256041 -0.0491244 0.00124847 
v 0.0258504 -0.0491468 0.00138177 
v 0.025865 -0.0491482 0.0013897 
v 0.0261256 -0.0491719 0.00147151 
v 0.0261559 -0.0491747 0.00147469 
v 0.0263971 -0.0491966 0.0015 
v 0.0264899 -0.0492051 0.00149115 
v 0.0266435 -0.0492191 0.00147651 
v 0.0264774 -0.049204 0.00149234 
v 0.0267929 -0.0492327 0.00143232 
v 0.0269091 -0.0492433 0.00139796 
v 0.0270833 -0.0492592 0.0013065 
v 0.0270863 -0.0492594 0.00130494 
v 0.0271756 -0.0492676 0.00125807 
v 0.0272922 -0.0492782 0.00116292 
v 0.0273452 -0.049283 0.00111966 
v 0.0274373 -0.0492914 0.00104452 
v 0.0275644 -0.049303 0.000889513 
v 0.027638 -0.0493097 0.000799778 
v 0.0277351 -0.0493186 0.000620031 
v 0.0277795 -0.0493226 0.00053781 
v 0.0278227 -0.0493265 0.000400361 
v 0.027848 -0.0493288 0.000319809 
v 0.0278617 -0.0493301 0.000276161 
v 0.0278734 -0.0493311 -0.000185479 
v 0.0278675 -0.0493306 -0.000247523 
v 0.0278912 -0.0493326 -3.99137e-11 
v 0.0278279 -0.049327 -0.00038229 
v 0.0277892 -0.0493235 -0.000514178 
v 0.0278464 -0.0493287 -0.00031949 
v 0.0276499 -0.0493108 -0.000781756 
v 0.0275633 -0.0493029 -0.000888821 
v 0.0277342 -0.0493185 -0.000619899 
v 0.0274373 -0.0492914 -0.00104452 
v 0.0273455 -0.049283 -0.00112026 
v 0.02719 -0.0492689 -0.00124847 
v 0.0270859 -0.0492594 -0.00130484 
v 0.0269291 -0.0492451 -0.0013897 
v 0.0267927 -0.0492327 -0.00143251 
v 0.0264913 -0.0492052 -0.00149011 
v 0.0264773 -0.0492039 -0.00149158 
v 0.0266685 -0.0492214 -0.00147151 
v 0.0263971 -0.0491966 -0.0015 
v 0.025885 -0.04915 -0.00139796 
v 0.025851 -0.0491469 -0.00138011 
v 0.0261557 -0.0491746 -0.00147699 
v 0.0261506 -0.0491742 -0.00147651 
v 0.0256185 -0.0491257 -0.00125807 
v 0.0255744 -0.0491217 -0.00122205 
v 0.0253568 -0.0491019 -0.00104452 
v 0.0253325 -0.0490996 -0.00101488 
v 0.0255005 -0.0491149 -0.00116178 
v 0.0251561 -0.0490836 -0.000799778 
v 0.0251361 -0.0490817 -0.000762817 
v 0.0253176 -0.0490983 -0.000996743 
v 0.0250146 -0.0490707 -0.00053781 
v 0.0249947 -0.0490689 -0.000474624 
v 0.0249324 -0.0490632 -0.000276161 
v 0.0249251 -0.0490627 -0.000208193 
v 0.024973 -0.0490669 -0.000405337 
v 0.0249029 -0.0490612 5.12703e-09 
v 0.0249201 -0.0490623 -0.000161245 
v 0.0272975 -0.0540887 -1.47512e-07 
v 0.0259877 -0.0538139 0.0014912 
v 0.026112 -0.0538405 0.00146323 
v 0.0262975 -0.0538801 0.00142147 
v 0.0263126 -0.0538833 0.00141431 
v 0.0265854 -0.0539413 0.00128528 
v 0.0267221 -0.0539702 0.00117904 
v 0.0270435 -0.054038 0.000841776 
v 0.026838 -0.0539948 0.00108899 
v 0.02706 -0.0540414 0.000810118 
v 0.0271923 -0.0540689 0.000555204 
v 0.0272342 -0.0540773 0.000401255 
v 0.0272975 -0.0540887 -3.18216e-07 
v 0.0272948 -0.0540887 -8.12079e-05 
v 0.0272783 -0.0540848 -0.000184573 
v 0.0272437 -0.0540767 -0.00040129 
v 0.0271714 -0.0540605 -0.000587161 
v 0.0271265 -0.0540505 -0.000702609 
v 0.0270542 -0.0540347 -0.000811698 
v 0.0269487 -0.0540115 -0.000971074 
v 0.0267186 -0.0539615 -0.00119413 
v 0.0267155 -0.0539608 -0.00119604 
v 0.0264469 -0.0539027 -0.00136136 
v 0.0263153 -0.0538744 -0.00140672 
v 0.0261465 -0.053838 -0.00146492 
v 0.0261193 -0.0538322 -0.00146794 
v 0.0258312 -0.0537705 -0.00149999 
v 0.0258312 -0.0537704 -0.00149999 
v 0.0257383 -0.0537505 -0.00148966 
v 0.0255159 -0.0537029 -0.00146492 
v 0.025349 -0.0536673 -0.00140743 
v 0.0252152 -0.0536388 -0.00136136 
v 0.0251468 -0.0536243 -0.00131926 
v 0.0249434 -0.0535811 -0.00119413 
v 0.0247547 -0.0535413 -0.00101148 
v 0.0247129 -0.0535325 -0.000971074 
v 0.0246084 -0.0535106 -0.000813531 
v 0.0245348 -0.0534952 -0.000702609 
v 0.0244986 -0.0534878 -0.000609966 
v 0.0244172 -0.053471 -0.00040129 
v 0.0243859 -0.053465 -0.000207358 
v 0.0243656 -0.0534611 -8.12079e-05 
v 0.0243627 -0.0534616 3.07767e-07 
v 0.0243826 -0.0534658 0.000242672 
v 0.024378 -0.0534648 0.000187232 
v 0.0244211 -0.0534745 0.000384774 
v 0.0244672 -0.053485 0.000555204 
v 0.0244859 -0.0534891 0.000591259 
v 0.0246156 -0.0535177 0.000841776 
v 0.0247609 -0.0535495 0.00101691 
v 0.0248207 -0.0535625 0.00108899 
v 0.0249496 -0.0535905 0.0011892 
v 0.0250731 -0.0536173 0.00128528 
v 0.025146 -0.053633 0.00131978 
v 0.0253608 -0.0536794 0.00142147 
v 0.0255436 -0.0537187 0.00146262 
v 0.0256705 -0.053746 0.0014912 
v 0.0257376 -0.0537604 0.00149492 
v 0.025829 -0.05378 0.00149999 
v 0.0272774 -0.0540861 0.000242672 
v 0.0276341 -0.0517161 -1.22528e-16 
v 0.0276183 -0.0517142 0.000203771 
v 0.0247998 -0.0513635 -0.000608469 
v 0.0247203 -0.0513537 -0.000407311 
v 0.0249148 -0.0513779 -0.00080836 
v 0.0250663 -0.0513967 -0.000999804 
v 0.0252468 -0.0514192 -0.00116852 
v 0.0254571 -0.0514453 -0.00131149 
v 0.0256575 -0.0514702 -0.00140674 
v 0.0258567 -0.051495 -0.00146749 
v 0.026051 -0.0515192 -0.0014965 
v 0.0262402 -0.0515427 -0.0014965 
v 0.0264378 -0.0515673 -0.00146676 
v 0.0266362 -0.051592 -0.00140574 
v 0.026836 -0.0516168 -0.00131043 
v 0.027219 -0.0516645 -0.00100612 
v 0.0270318 -0.0516412 -0.00117854 
v 0.0273778 -0.0516842 -0.000806304 
v 0.0275019 -0.0516997 -0.000586116 
v 0.0275779 -0.0517091 -0.000384208 
v 0.027621 -0.0517145 -0.00018589 
v 0.0275724 -0.0517085 0.000402331 
v 0.0274938 -0.0516987 0.000603459 
v 0.0272291 -0.0516657 0.000995223 
v 0.0273797 -0.0516845 0.000803453 
v 0.027043 -0.0516426 0.00116964 
v 0.0268325 -0.0516164 0.0013124 
v 0.026433 -0.0515667 0.00146785 
v 0.0266321 -0.0515915 0.00140736 
v 0.0262387 -0.0515425 0.00149662 
v 0.0260525 -0.0515194 0.00149662 
v 0.025855 -0.0514948 0.00146711 
v 0.0256566 -0.0514701 0.00140636 
v 0.0254568 -0.0514453 0.00131133 
v 0.025261 -0.0514209 0.00117973 
v 0.0250735 -0.0513976 0.00100754 
v 0.0249145 -0.0513778 0.000807921 
v 0.0247901 -0.0513623 0.00058784 
v 0.0247138 -0.0513529 0.000385918 
v 0.0246705 -0.0513475 0.000187557 
v 0.0246571 -0.0513458 -1.23297e-16 
v 0.0246737 -0.0513479 -0.000208755 
v 0.0227518 -0.0610771 -0.00756707 
v 0.022761 -0.0612306 -0.00756707 
v 0.0227711 -0.0614009 -0.00756707 
v 0.0228131 -0.0615488 -0.00756707 
v 0.0228597 -0.0617129 -0.00756707 
v 0.0229325 -0.0618484 -0.00756707 
v 0.0230132 -0.0619986 -0.00756707 
v 0.0231134 -0.0621153 -0.00756707 
v 0.0232246 -0.0622447 -0.00756707 
v 0.0233475 -0.0623371 -0.00756707 
v 0.0234839 -0.0624395 -0.00756707 
v 0.0236238 -0.0625033 -0.00756707 
v 0.0239294 -0.0626063 -0.00756707 
v 0.023779 -0.0625741 -0.00756707 
v 0.02425 -0.0626412 -0.00756707 
v 0.0240962 -0.062642 -0.00756707 
v 0.0245705 -0.0626063 -0.00756707 
v 0.0244205 -0.0626402 -0.00756707 
v 0.0248761 -0.0625034 -0.00756707 
v 0.0247369 -0.0625687 -0.00756707 
v 0.0251524 -0.0623371 -0.00756707 
v 0.0250305 -0.0624309 -0.00756707 
v 0.0253865 -0.0621154 -0.00756707 
v 0.0252876 -0.0622331 -0.00756707 
v 0.0255675 -0.0618485 -0.00756707 
v 0.0254962 -0.0619848 -0.00756707 
v 0.0256869 -0.0615489 -0.00756707 
v 0.0256465 -0.0616973 -0.00756707 
v 0.025739 -0.0612307 -0.00756707 
v 0.0257316 -0.0613843 -0.00756707 
v 0.0257216 -0.0609087 -0.00756707 
v 0.0257473 -0.0610603 -0.00756707 
v 0.0256353 -0.060598 -0.00756707 
v 0.0256931 -0.0607406 -0.00756707 
v 0.0254843 -0.0603131 -0.00756707 
v 0.0255713 -0.0604399 -0.00756707 
v 0.0252756 -0.0600673 -0.00756707 
v 0.0253878 -0.0601725 -0.00756707 
v 0.0250189 -0.0598722 -0.00756707 
v 0.0251511 -0.0599507 -0.00756707 
v 0.0247262 -0.0597368 -0.00756707 
v 0.0248722 -0.0597851 -0.00756707 
v 0.0244113 -0.0596674 -0.00756707 
v 0.0245643 -0.0596832 -0.00756707 
v 0.0242416 -0.05965 -0.00756707 
v 0.0240888 -0.0596674 -0.00756707 
v 0.0239194 -0.0596868 -0.00756707 
v 0.0237739 -0.0597367 -0.00756707 
v 0.0236126 -0.0597921 -0.00756707 
v 0.0234812 -0.0598721 -0.00756707 
v 0.0233356 -0.0599609 -0.00756707 
v 0.0232245 -0.0600673 -0.00756707 
v 0.0231013 -0.0601853 -0.00756707 
v 0.0230158 -0.060313 -0.00756707 
v 0.0229208 -0.0604547 -0.00756707 
v 0.0228647 -0.0605979 -0.00756707 
v 0.0227833 -0.0608358 -0.00756707 
v 0.0228025 -0.0607567 -0.00756707 
v 0.0227739 -0.0609078 -0.00756707 
v 0.0248842 -0.059729 -0.00673274 
v 0.0245762 -0.0596275 -0.00673753 
v 0.0246425 -0.0593181 -0.00547136 
v 0.0249509 -0.0594178 -0.00545924 
v 0.024764 -0.058751 -0.00430216 
v 0.0250731 -0.0588475 -0.00428329 
v 0.0249351 -0.0579525 -0.00328405 
v 0.0252452 -0.0580444 -0.00325929 
v 0.0251478 -0.0569597 -0.00246413 
v 0.0254591 -0.0570458 -0.00243463 
v 0.0253924 -0.0558183 -0.00188034 
v 0.0257051 -0.0558978 -0.00184747 
v 0.0256574 -0.0545812 -0.0015597 
v 0.0251633 -0.0598937 -0.00671857 
v 0.0252311 -0.0595772 -0.00542347 
v 0.0253554 -0.0589972 -0.00422756 
v 0.0255304 -0.0581805 -0.00318618 
v 0.025748 -0.0571649 -0.00234752 
v 0.0259981 -0.0559975 -0.0017504 
v 0.0259717 -0.0546536 -0.00152498 
v 0.0254003 -0.060114 -0.00669571 
v 0.02547 -0.0597889 -0.00536571 
v 0.0255976 -0.0591933 -0.00413757 
v 0.0257773 -0.0583546 -0.00306813 
v 0.0260008 -0.0573116 -0.00220687 
v 0.0262577 -0.0561127 -0.00159366 
v 0.0262692 -0.0547322 -0.00142243 
v 0.0255843 -0.0603793 -0.00666521 
v 0.0256564 -0.0600429 -0.00528866 
v 0.0257885 -0.0594264 -0.00401753 
v 0.0259745 -0.0585584 -0.00291066 
v 0.0262057 -0.0574789 -0.00201926 
v 0.0264716 -0.0562381 -0.00138458 
v 0.0265361 -0.0548133 -0.00125685 
v 0.0257066 -0.0606775 -0.00662851 
v 0.0257816 -0.0603274 -0.00519592 
v 0.0259191 -0.0596858 -0.00387306 
v 0.0261126 -0.0587824 -0.00272114 
v 0.0263533 -0.0576591 -0.00179346 
v 0.02663 -0.0563677 -0.00113295 
v 0.0267598 -0.0548932 -0.00103599 
v 0.0257614 -0.0609945 -0.00658731 
v 0.0258397 -0.0606291 -0.00509184 
v 0.0259832 -0.0599593 -0.00371091 
v 0.0261853 -0.0590163 -0.00250843 
v 0.0264366 -0.0578436 -0.00154002 
v 0.0267254 -0.0564955 -0.000850518 
v 0.0269299 -0.0549681 -0.000770168 
v 0.0257463 -0.0613156 -0.00654354 
v 0.0258281 -0.0609338 -0.00498128 
v 0.025978 -0.0602341 -0.00353867 
v 0.0261891 -0.0592489 -0.00228247 
v 0.0264516 -0.0580239 -0.00127081 
v 0.0267533 -0.0566156 -0.000550502 
v 0.0270384 -0.0550345 -0.000471815 
v 0.0256619 -0.0616256 -0.00649926 
v 0.0257473 -0.0612273 -0.0048694 
v 0.0259037 -0.0604974 -0.00336438 
v 0.0261239 -0.0594696 -0.00205383 
v 0.0263977 -0.0581915 -0.000998396 
v 0.0267125 -0.0567223 -0.000246927 
v 0.0270804 -0.0550893 -0.000154882 
v 0.0255122 -0.0619102 -0.00645653 
v 0.025601 -0.0614959 -0.00476145 
v 0.0257636 -0.0607367 -0.00319619 
v 0.0259927 -0.0596678 -0.00183319 
v 0.0262775 -0.0583386 -0.000735529 
v 0.0266048 -0.0568106 4.60131e-05 
v 0.0270537 -0.0551299 0.00016581 
v 0.0253042 -0.0621559 -0.00641735 
v 0.0253961 -0.061727 -0.00466246 
v 0.0255645 -0.0609411 -0.00304198 
v 0.0258016 -0.0598345 -0.00163089 
v 0.0260964 -0.0584584 -0.000494497 
v 0.0264354 -0.0568764 0.00031462 
v 0.0269597 -0.0551545 0.000475266 
v 0.0250475 -0.0623514 -0.00638355 
v 0.0251421 -0.0619099 -0.00457706 
v 0.0253155 -0.0611008 -0.00290894 
v 0.0255596 -0.0599617 -0.00145637 
v 0.0258631 -0.0585451 -0.000286571 
v 0.026212 -0.0569167 0.000546333 
v 0.0268027 -0.0551619 0.000759018 
v 0.0247543 -0.0624874 -0.00635671 
v 0.024851 -0.0620359 -0.00450926 
v 0.0250283 -0.0612085 -0.00280331 
v 0.0252779 -0.0600435 -0.0013178 
v 0.0255883 -0.0585948 -0.000121473 
v 0.0259452 -0.0569295 0.000730319 
v 0.0265901 -0.0551518 0.0010038 
v 0.0244382 -0.0625577 -0.00633809 
v 0.0245364 -0.0620992 -0.00446222 
v 0.0247164 -0.0612591 -0.00273002 
v 0.0249699 -0.0600762 -0.00122166 
v 0.0252851 -0.0586052 -6.92232e-06 
v 0.0256474 -0.0569142 0.000857974 
v 0.0263319 -0.0551245 0.00119816 
v 0.024114 -0.0625588 -0.00632855 
v 0.024213 -0.0620968 -0.00443813 
v 0.0243944 -0.0612502 -0.0026925 
v 0.0246498 -0.0600581 -0.00117243 
v 0.0249674 -0.0585757 5.1724e-05 
v 0.0253325 -0.0568716 0.00092333 
v 0.0260401 -0.0550815 0.00133301 
v 0.0237968 -0.0624909 -0.00632855 
v 0.0238958 -0.0620289 -0.00443813 
v 0.0240772 -0.0611822 -0.0026925 
v 0.0243326 -0.0599901 -0.00117243 
v 0.0246503 -0.0585077 5.1724e-05 
v 0.0250154 -0.0568037 0.00092333 
v 0.0257283 -0.0550247 0.00140205 
v 0.0235016 -0.062357 -0.00633809 
v 0.0235998 -0.0618985 -0.00446222 
v 0.0237798 -0.0610584 -0.00273002 
v 0.0240332 -0.0598755 -0.00122166 
v 0.0243484 -0.0584045 -6.92232e-06 
v 0.0247107 -0.0567135 0.000857974 
v 0.0254111 -0.0549567 0.00140205 
v 0.023242 -0.0621634 -0.00635671 
v 0.0233387 -0.0617119 -0.00450926 
v 0.023516 -0.0608845 -0.00280331 
v 0.0237656 -0.0597195 -0.0013178 
v 0.024076 -0.0582708 -0.000121473 
v 0.0244328 -0.0566054 0.000730319 
v 0.0251034 -0.0548808 0.00133301 
v 0.0230302 -0.0619191 -0.00638355 
v 0.0231248 -0.0614777 -0.00457706 
v 0.0232982 -0.0606686 -0.00290894 
v 0.0235422 -0.0595294 -0.00145637 
v 0.0238458 -0.0581129 -0.000286571 
v 0.0241947 -0.0564844 0.000546333 
v 0.0248196 -0.0548005 0.00119816 
v 0.0228762 -0.0616357 -0.00641735 
v 0.0229681 -0.0612068 -0.00466246 
v 0.0231365 -0.0604209 -0.00304198 
v 0.0233736 -0.0593142 -0.00163089 
v 0.0236685 -0.0579381 -0.000494497 
v 0.0240074 -0.0563562 0.00031462 
v 0.0245728 -0.0547195 0.0010038 
v 0.0227871 -0.0613263 -0.00645653 
v 0.0228759 -0.060912 -0.00476145 
v 0.0230385 -0.0601529 -0.00319619 
v 0.0232676 -0.0590839 -0.00183319 
v 0.0235524 -0.0577547 -0.000735529 
v 0.0238798 -0.0562267 4.60131e-05 
v 0.0243748 -0.0546417 0.000759018 
v 0.0227671 -0.0610054 -0.00649926 
v 0.0228525 -0.0606071 -0.0048694 
v 0.0230089 -0.0598771 -0.00336438 
v 0.0232291 -0.0588493 -0.00205383 
v 0.0235029 -0.0575712 -0.000998396 
v 0.0238177 -0.056102 -0.000246927 
v 0.0242346 -0.0545706 0.000475266 
v 0.0228172 -0.060688 -0.00654354 
v 0.022899 -0.0603062 -0.00498128 
v 0.0230489 -0.0596065 -0.00353867 
v 0.02326 -0.0586213 -0.00228247 
v 0.0235225 -0.0573963 -0.00127081 
v 0.0238242 -0.055988 -0.000550502 
v 0.0241589 -0.0545097 0.00016581 
v 0.0229349 -0.0603889 -0.00658731 
v 0.0230132 -0.0600235 -0.00509184 
v 0.0231567 -0.0593537 -0.00371091 
v 0.0233588 -0.0584107 -0.00250843 
v 0.0236101 -0.057238 -0.00154002 
v 0.0238989 -0.0558899 -0.000850518 
v 0.0241513 -0.0544617 -0.000154882 
v 0.0231149 -0.0601222 -0.00662851 
v 0.0231899 -0.0597721 -0.00519592 
v 0.0233273 -0.0591305 -0.00387306 
v 0.0235209 -0.0582271 -0.00272114 
v 0.0237616 -0.0571038 -0.00179346 
v 0.0240383 -0.0558124 -0.00113295 
v 0.024212 -0.0544288 -0.000471815 
v 0.0233486 -0.0599003 -0.00666521 
v 0.0234206 -0.0595639 -0.00528866 
v 0.0235527 -0.0589474 -0.00401753 
v 0.0237387 -0.0580793 -0.00291066 
v 0.02397 -0.0569999 -0.00201926 
v 0.0242359 -0.055759 -0.00138458 
v 0.0243382 -0.0544127 -0.000770168 
v 0.0236251 -0.0597336 -0.00669571 
v 0.0236948 -0.0594085 -0.00536571 
v 0.0238224 -0.0588129 -0.00413757 
v 0.0240021 -0.0579742 -0.00306813 
v 0.0242255 -0.0569313 -0.00220687 
v 0.0244824 -0.0557323 -0.00159366 
v 0.024524 -0.0544141 -0.00103599 
v 0.0239316 -0.0596298 -0.00671857 
v 0.0239994 -0.0593133 -0.00542347 
v 0.0241237 -0.0587333 -0.00422756 
v 0.0242987 -0.0579166 -0.00318618 
v 0.0245163 -0.056901 -0.00234752 
v 0.0247664 -0.0557336 -0.0017504 
v 0.0247608 -0.0544329 -0.00125685 
v 0.0242536 -0.0595939 -0.00673274 
v 0.0243203 -0.0592827 -0.00545924 
v 0.0244425 -0.0587123 -0.00428329 
v 0.0246146 -0.0579093 -0.00325929 
v 0.0248285 -0.0569107 -0.00243463 
v 0.0250745 -0.0557627 -0.00184747 
v 0.0250375 -0.0544683 -0.00142243 
v 0.0253411 -0.0545185 -0.00152498 
v 0.02425 -0.0626499 -0.013 
v 0.0245725 -0.0626149 -0.013 
v 0.0248798 -0.0625113 -0.013 
v 0.0251578 -0.0623441 -0.013 
v 0.0253932 -0.062121 -0.013 
v 0.0255753 -0.0618525 -0.013 
v 0.0256953 -0.0615512 -0.013 
v 0.0257478 -0.0612311 -0.013 
v 0.0257302 -0.0609073 -0.013 
v 0.0256435 -0.0605947 -0.013 
v 0.0254915 -0.0603081 -0.013 
v 0.0252815 -0.0600609 -0.013 
v 0.0250233 -0.0598646 -0.013 
v 0.024729 -0.0597284 -0.013 
v 0.0244122 -0.0596587 -0.013 
v 0.0240878 -0.0596587 -0.013 
v 0.023771 -0.0597284 -0.013 
v 0.0234767 -0.0598646 -0.013 
v 0.0232185 -0.0600609 -0.013 
v 0.0230085 -0.0603081 -0.013 
v 0.0228565 -0.0605947 -0.013 
v 0.0227833 -0.0608358 -0.013 
v 0.0227698 -0.0609073 -0.013 
v 0.0227522 -0.0612311 -0.013 
v 0.0228047 -0.0615512 -0.013 
v 0.0229247 -0.0618525 -0.013 
v 0.0231068 -0.062121 -0.013 
v 0.0233422 -0.0623441 -0.013 
v 0.0236202 -0.0625113 -0.013 
v 0.0239275 -0.0626149 -0.013 
v 0.02425 -0.0611499 -0.013 
vn 1 0 0 
vn 0 -1 0 
vn 0 -0.976621 -0.21497 
vn 0 -0.907575 -0.419889 
vn 0 -0.796093 -0.605174 
vn 0 -0.647386 -0.762162 
vn 0 -0.468408 -0.883512 
vn 0 -0.267528 -0.96355 
vn 0 -0.0541389 -0.998533 
vn 0 0.161782 -0.986827 
vn 0 0.370138 -0.928977 
vn 0 0.561187 -0.827689 
vn 0 0.725995 -0.687699 
vn 0 0.856857 -0.515554 
vn 0 0.947653 -0.319302 
vn 0 0.994138 -0.108119 
vn 0 0.994138 0.108119 
vn 0 1 -1.22465e-16 
vn 0 0.994138 -0.108119 
vn 0 0.994138 0.108119 
vn 0 0.947653 0.319302 
vn 0 0.856857 0.515554 
vn 0 0.725995 0.687699 
vn 0 0.561187 0.827689 
vn 0 0.370138 0.928977 
vn 0 0.161782 0.986827 
vn 0 -0.0541389 0.998533 
vn 0 -0.267528 0.96355 
vn 0 -0.468408 0.883512 
vn 0 -0.647386 0.762162 
vn 0 -0.796093 0.605174 
vn 0 -0.907575 0.419889 
vn 0 -0.976621 0.21497 
vn 0.974693 -0.0613213 0.21497 
vn 0.998027 -0.0627892 1.22465e-16 
vn 0.961536 -0.274677 1.22465e-16 
vn 0.939056 -0.268256 0.21497 
vn 0.880596 -0.473868 1.22465e-16 
vn 0.860008 -0.462789 0.21497 
vn 0.758947 -0.651152 1.22465e-16 
vn 0.741203 -0.635929 0.21497 
vn 0.602214 -0.798335 1.22465e-16 
vn 0.588134 -0.77967 0.21497 
vn 0.417641 -0.908612 1.22465e-16 
vn 0.407877 -0.887369 0.21497 
vn 0.213761 -0.976886 1.22465e-16 
vn 0.208764 -0.954047 0.21497 
vn 1.66533e-16 -1 1.22465e-16 
vn 0.905785 -0.056986 0.419889 
vn 0.872667 -0.249291 0.419889 
vn 0.799207 -0.430071 0.419889 
vn 0.688802 -0.59097 0.419889 
vn 0.546554 -0.724549 0.419889 
vn 0.379041 -0.824634 0.419889 
vn 0.194005 -0.886598 0.419889 
vn 1.17961e-16 -0.976621 0.21497 
vn 0.794522 -0.0499861 0.605174 
vn 0.765472 -0.218669 0.605174 
vn 0.701036 -0.377243 0.605174 
vn 0.604193 -0.518378 0.605174 
vn 0.479418 -0.635549 0.605174 
vn 0.332481 -0.72334 0.605174 
vn 0.170174 -0.777692 0.605174 
vn 1.59595e-16 -0.907575 0.419889 
vn 0.646109 -0.0406489 0.762162 
vn 0.622485 -0.177822 0.762162 
vn 0.570086 -0.306776 0.762162 
vn 0.491332 -0.421547 0.762162 
vn 0.389865 -0.516831 0.762162 
vn 0.270375 -0.588223 0.762162 
vn 0.138386 -0.632423 0.762162 
vn 1.249e-16 -0.796093 0.605174 
vn 0.467484 -0.029411 0.883512 
vn 0.450392 -0.128661 0.883512 
vn 0.412479 -0.221964 0.883512 
vn 0.355497 -0.305005 0.883512 
vn 0.282082 -0.373947 0.883512 
vn 0.195627 -0.425602 0.883512 
vn 0.100128 -0.457582 0.883512 
vn 1.04083e-16 -0.647386 0.762162 
vn 0.267 -0.0167979 0.96355 
vn 0.257238 -0.073484 0.96355 
vn 0.235584 -0.126773 0.96355 
vn 0.20304 -0.174202 0.96355 
vn 0.161109 -0.213577 0.96355 
vn 0.111731 -0.24308 0.96355 
vn 0.0571872 -0.261345 0.96355 
vn 7.63278e-17 -0.468408 0.883512 
vn 0.0540321 -0.00339934 0.998533 
vn 0.0520565 -0.0148707 0.998533 
vn 0.0476745 -0.0256547 0.998533 
vn 0.0410886 -0.0352527 0.998533 
vn 0.0326032 -0.043221 0.998533 
vn 0.0226106 -0.0491913 0.998533 
vn 0.0115728 -0.0528875 0.998533 
vn 3.81639e-17 -0.267528 0.96355 
vn -0.161463 0.0101582 0.986827 
vn -0.155559 0.0444379 0.986827 
vn -0.142465 0.0766633 0.986827 
vn -0.122784 0.105345 0.986827 
vn -0.0974273 0.129156 0.986827 
vn -0.0675668 0.146997 0.986827 
vn -0.0345827 0.158043 0.986827 
vn 9.97466e-18 -0.0541389 0.998533 
vn -0.369408 0.0232407 0.928977 
vn -0.355901 0.101669 0.928977 
vn -0.325942 0.175397 0.928977 
vn -0.280915 0.241016 0.928977 
vn -0.222902 0.295494 0.928977 
vn -0.154585 0.336312 0.928977 
vn -0.0791212 0.361583 0.928977 
vn -3.46945e-17 0.161782 0.986827 
vn -0.56008 0.0352365 0.827689 
vn -0.539602 0.154145 0.827689 
vn -0.494179 0.265929 0.827689 
vn -0.425911 0.365418 0.827689 
vn -0.337955 0.448015 0.827689 
vn -0.234375 0.509901 0.827689 
vn -0.11996 0.548216 0.827689 
vn -6.59195e-17 0.370138 0.928977 
vn -0.724563 0.0455847 0.687699 
vn -0.698071 0.199415 0.687699 
vn -0.639309 0.344026 0.687699 
vn -0.550992 0.472734 0.687699 
vn -0.437204 0.579588 0.687699 
vn -0.303205 0.659648 0.687699 
vn -0.15519 0.709215 0.687699 
vn -1.11022e-16 0.561187 0.827689 
vn -0.855166 0.0538014 0.515554 
vn -0.823899 0.235359 0.515554 
vn -0.754545 0.406037 0.515554 
vn -0.650309 0.557944 0.515554 
vn -0.516011 0.684059 0.515554 
vn -0.357859 0.778551 0.515554 
vn -0.183163 0.837052 0.515554 
vn -1.31839e-16 0.725995 0.687699 
vn -0.945783 0.0595024 0.319302 
vn -0.911203 0.260299 0.319302 
vn -0.8345 0.449062 0.319302 
vn -0.719219 0.617066 0.319302 
vn -0.57069 0.756545 0.319302 
vn -0.395779 0.861049 0.319302 
vn -0.202572 0.925749 0.319302 
vn -1.45717e-16 0.856857 0.515554 
vn -0.992176 0.0624212 0.108119 
vn -0.9559 0.273067 0.108119 
vn -0.875434 0.47109 0.108119 
vn -0.754498 0.647335 0.108119 
vn -0.598683 0.793655 0.108119 
vn -0.415193 0.903286 0.108119 
vn -0.212508 0.971159 0.108119 
vn -2.15106e-16 0.947653 0.319302 
vn -0.9559 0.273067 -0.108119 
vn -0.992176 0.0624212 -0.108119 
vn -0.998027 0.0627892 -2.08435e-16 
vn -0.875434 0.47109 -0.108119 
vn -0.754498 0.647335 -0.108119 
vn -0.598683 0.793655 -0.108119 
vn -0.415193 0.903286 -0.108119 
vn -0.212508 0.971159 -0.108119 
vn 0 1 2.91768e-15 
vn -2.15106e-16 0.994138 0.108119 
vn -0.945783 0.0595024 -0.319302 
vn -0.911203 0.260299 -0.319302 
vn -0.8345 0.449062 -0.319302 
vn -0.719219 0.617066 -0.319302 
vn -0.57069 0.756545 -0.319302 
vn -0.395779 0.861049 -0.319302 
vn -0.202572 0.925749 -0.319302 
vn -2.15106e-16 0.994138 -0.108119 
vn -0.855166 0.0538014 -0.515554 
vn -0.823899 0.235359 -0.515554 
vn -0.754545 0.406037 -0.515554 
vn -0.650309 0.557944 -0.515554 
vn -0.516011 0.684059 -0.515554 
vn -0.357859 0.778551 -0.515554 
vn -0.183163 0.837052 -0.515554 
vn -1.73472e-16 0.947653 -0.319302 
vn -0.724563 0.0455847 -0.687699 
vn -0.698071 0.199415 -0.687699 
vn -0.639309 0.344026 -0.687699 
vn -0.550992 0.472734 -0.687699 
vn -0.437204 0.579588 -0.687699 
vn -0.303205 0.659648 -0.687699 
vn -0.15519 0.709215 -0.687699 
vn -1.45717e-16 0.856857 -0.515554 
vn -0.56008 0.0352365 -0.827689 
vn -0.539602 0.154145 -0.827689 
vn -0.494179 0.265929 -0.827689 
vn -0.425911 0.365418 -0.827689 
vn -0.337955 0.448015 -0.827689 
vn -0.234375 0.509901 -0.827689 
vn -0.11996 0.548216 -0.827689 
vn -1.31839e-16 0.725995 -0.687699 
vn -0.369408 0.0232407 -0.928977 
vn -0.355901 0.101669 -0.928977 
vn -0.325942 0.175397 -0.928977 
vn -0.280915 0.241016 -0.928977 
vn -0.222902 0.295494 -0.928977 
vn -0.154585 0.336312 -0.928977 
vn -0.0791212 0.361583 -0.928977 
vn -1.11022e-16 0.561187 -0.827689 
vn -0.161463 0.0101582 -0.986827 
vn -0.155559 0.0444379 -0.986827 
vn -0.142465 0.0766633 -0.986827 
vn -0.122784 0.105345 -0.986827 
vn -0.0974273 0.129156 -0.986827 
vn -0.0675668 0.146997 -0.986827 
vn -0.0345827 0.158043 -0.986827 
vn -6.59195e-17 0.370138 -0.928977 
vn 0.0540321 -0.00339934 -0.998533 
vn 0.0520565 -0.0148707 -0.998533 
vn 0.0476745 -0.0256547 -0.998533 
vn 0.0410886 -0.0352527 -0.998533 
vn 0.0326032 -0.043221 -0.998533 
vn 0.0226106 -0.0491913 -0.998533 
vn 0.0115728 -0.0528875 -0.998533 
vn -3.46945e-17 0.161782 -0.986827 
vn 0.267 -0.0167979 -0.96355 
vn 0.257238 -0.073484 -0.96355 
vn 0.235584 -0.126773 -0.96355 
vn 0.20304 -0.174202 -0.96355 
vn 0.161109 -0.213577 -0.96355 
vn 0.111731 -0.24308 -0.96355 
vn 0.0571872 -0.261345 -0.96355 
vn 1.12757e-17 -0.0541389 -0.998533 
vn 0.467484 -0.029411 -0.883512 
vn 0.450392 -0.128661 -0.883512 
vn 0.412479 -0.221964 -0.883512 
vn 0.355497 -0.305005 -0.883512 
vn 0.282082 -0.373947 -0.883512 
vn 0.195627 -0.425602 -0.883512 
vn 0.100128 -0.457582 -0.883512 
vn 3.81639e-17 -0.267528 -0.96355 
vn 0.646109 -0.0406489 -0.762162 
vn 0.622485 -0.177822 -0.762162 
vn 0.570086 -0.306776 -0.762162 
vn 0.491332 -0.421547 -0.762162 
vn 0.389865 -0.516831 -0.762162 
vn 0.270375 -0.588223 -0.762162 
vn 0.138386 -0.632423 -0.762162 
vn 7.28584e-17 -0.468408 -0.883512 
vn 0.794522 -0.0499861 -0.605174 
vn 0.765472 -0.218669 -0.605174 
vn 0.701036 -0.377243 -0.605174 
vn 0.604193 -0.518378 -0.605174 
vn 0.479418 -0.635549 -0.605174 
vn 0.332481 -0.72334 -0.605174 
vn 0.170174 -0.777692 -0.605174 
vn 1.04083e-16 -0.647386 -0.762162 
vn 0.905785 -0.056986 -0.419889 
vn 0.872667 -0.249291 -0.419889 
vn 0.799207 -0.430071 -0.419889 
vn 0.688802 -0.59097 -0.419889 
vn 0.546554 -0.724549 -0.419889 
vn 0.379041 -0.824634 -0.419889 
vn 0.194005 -0.886598 -0.419889 
vn 1.249e-16 -0.796093 -0.605174 
vn 0.974693 -0.0613213 -0.21497 
vn 0.939056 -0.268256 -0.21497 
vn 0.860008 -0.462789 -0.21497 
vn 0.741203 -0.635929 -0.21497 
vn 0.588134 -0.77967 -0.21497 
vn 0.407877 -0.887369 -0.21497 
vn 0.208764 -0.954047 -0.21497 
vn 1.59595e-16 -0.907575 -0.419889 
vn 1.17961e-16 -0.976621 -0.21497 
vn -0.945783 0.0595024 0.319302 
vn -0.984281 0.0619245 0.165397 
vn -0.964138 0.0606572 0.258378 
vn -0.992176 0.0624212 0.108119 
vn -0.99217 0.0624208 0.108177 
vn -0.99016 0.0622943 0.125312 
vn -0.855166 0.0538014 0.515554 
vn -0.945664 0.0594949 0.319656 
vn -0.936634 0.0589268 0.345319 
vn -0.724563 0.0455847 0.687699 
vn -0.847601 0.0533255 0.527947 
vn -0.729612 0.0459024 0.682319 
vn -0.854698 0.053772 0.516332 
vn -0.56008 0.0352365 0.827689 
vn -0.705573 0.04439 0.707246 
vn -0.601382 0.037835 0.798065 
vn -0.723551 0.045521 0.688769 
vn -0.369408 0.0232407 0.928977 
vn -0.55877 0.0351541 0.828577 
vn -0.536522 0.0337544 0.843211 
vn -0.161463 0.0101582 0.986827 
vn -0.368368 0.0231753 0.929391 
vn -0.357994 0.0225226 0.933452 
vn -0.181698 0.0114313 0.983288 
vn 0.0540321 -0.00339934 0.998533 
vn -0.161632 0.0101688 0.986799 
vn 4.69821e-15 -3.46945e-15 1 
vn 0.267 -0.0167979 0.96355 
vn 0.0622741 -0.00391788 0.998051 
vn 0.164933 -0.0103765 0.98625 
vn 0.0538688 -0.00338907 0.998542 
vn 0.467484 -0.029411 0.883512 
vn 0.266794 -0.0167849 0.963607 
vn 0.344386 -0.0216665 0.938578 
vn 0.465457 -0.0292835 0.884586 
vn 0.646109 -0.0406489 0.762162 
vn 0.467467 -0.0294099 0.883521 
vn 0.526594 -0.0331298 0.849471 
vn 0.610184 -0.0383887 0.791329 
vn 0.794522 -0.0499861 0.605174 
vn 0.646361 -0.0406648 0.761947 
vn 0.705573 -0.04439 0.707246 
vn 0.905785 -0.056986 0.419889 
vn 0.794923 -0.0500113 0.604646 
vn 0.839821 -0.052836 0.540286 
vn 0.974693 -0.0613213 0.21497 
vn 0.90613 -0.0570077 0.419141 
vn 0.93058 -0.058546 0.361376 
vn 0.96112 -0.0604673 0.26943 
vn 0.998027 -0.0627892 9.6798e-32 
vn 0.974802 -0.0613281 0.214477 
vn 0.980872 -0.06171 0.184613 
vn 0.974693 -0.0613213 -0.21497 
vn 0.9903 -0.0623031 -0.124195 
vn 0.984281 -0.0619245 -0.165397 
vn 0.998027 -0.0627892 -2.66143e-08 
vn 0.905785 -0.056986 -0.419889 
vn 0.964446 -0.0606766 -0.257218 
vn 0.936634 -0.0589268 -0.345319 
vn 0.974795 -0.0613276 -0.214509 
vn 0.847601 -0.0533255 -0.527947 
vn 0.794863 -0.0500075 -0.604725 
vn 0.906054 -0.0570029 -0.419306 
vn 0.794522 -0.0499861 -0.605174 
vn 0.705573 -0.04439 -0.707246 
vn 0.646272 -0.0406592 -0.762023 
vn 0.646109 -0.0406489 -0.762162 
vn 0.536522 -0.0337544 -0.843211 
vn 0.467293 -0.029399 -0.883614 
vn 0.467484 -0.029411 -0.883512 
vn 0.357994 -0.0225226 -0.933452 
vn 0.266652 -0.016776 -0.963647 
vn 0.267 -0.0167979 -0.96355 
vn 0.0632511 -0.00397934 -0.99799 
vn 0.0538084 -0.00338527 -0.998546 
vn 0.181698 -0.0114313 -0.983288 
vn 0.0540321 -0.00339934 -0.998533 
vn -6.16766e-13 3.5851e-14 -1 
vn -0.161463 0.0101582 -0.986827 
vn -0.344386 0.0216665 -0.938578 
vn -0.368358 0.0231747 -0.929395 
vn -0.161564 0.0101645 -0.98681 
vn -0.164933 0.0103765 -0.98625 
vn -0.369408 0.0232407 -0.928977 
vn -0.526594 0.0331298 -0.849471 
vn -0.558767 0.0351539 -0.82858 
vn -0.56008 0.0352365 -0.827689 
vn -0.705573 0.04439 -0.707246 
vn -0.723641 0.0455267 -0.688674 
vn -0.61115 0.0384495 -0.79058 
vn -0.724563 0.0455847 -0.687699 
vn -0.839821 0.052836 -0.540286 
vn -0.854782 0.0537772 -0.516194 
vn -0.734491 0.0462093 -0.677043 
vn -0.855166 0.0538014 -0.515554 
vn -0.93058 0.058546 -0.361376 
vn -0.945711 0.0594979 -0.319515 
vn -0.992176 0.0624212 -0.108119 
vn -0.980872 0.06171 -0.184613 
vn -0.988263 0.062175 -0.139535 
vn -0.945783 0.0595024 -0.319302 
vn -0.96017 0.0604075 -0.272808 
vn -0.998027 0.0627892 -1.22465e-16 
vn -0.998027 0.0627892 3.41866e-06 
vn -0.992175 0.0624211 -0.10813 
vn 0.987927 -0.15492 -3.63926e-13 
vn 0.992351 -0.123444 5.0211e-12 
vn 0.980472 -0.121967 0.154269 
vn -0.893068 0.111094 -0.43599 
vn -0.946527 0.117744 -0.300372 
vn -0.933686 0.0850731 -0.34784 
vn -0.949887 0.0865492 -0.300372 
vn -0.840823 0.0766118 -0.535862 
vn -0.82006 0.102012 -0.563113 
vn -0.917303 0.0835803 -0.389319 
vn -0.730105 0.0665238 -0.680089 
vn -0.727523 0.0905008 -0.680089 
vn -0.618215 0.0769033 -0.782238 
vn -0.70419 0.0641624 -0.707107 
vn -0.720292 0.0656296 -0.690559 
vn -0.487312 0.0606196 -0.871121 
vn -0.57346 0.0522509 -0.817566 
vn -0.620409 0.0565288 -0.782238 
vn -0.395544 0.0360401 -0.917739 
vn -0.355656 0.0442421 -0.933569 
vn -0.54429 0.0495931 -0.83743 
vn -0.185633 0.016914 -0.982474 
vn -0.216417 0.0269214 -0.97593 
vn -0.181974 0.0165806 -0.983164 
vn -0.0724597 0.00901368 -0.997331 
vn 0.0724597 -0.00901368 -0.997331 
vn -6.89027e-13 6.27809e-14 -1 
vn 0.0618186 -0.00563262 -0.998072 
vn 0.218738 -0.02721 -0.975404 
vn 0.0727169 -0.00662562 -0.997331 
vn 0.20379 -0.0185684 -0.978839 
vn 0.293548 -0.0267467 -0.95557 
vn 0.357395 -0.0444584 -0.932895 
vn 0.4885 -0.0607673 -0.870446 
vn 0.385337 -0.0351101 -0.922108 
vn 0.489841 -0.044632 -0.870669 
vn 0.723988 -0.090061 -0.683909 
vn 0.61051 -0.0759449 -0.788359 
vn 0.651564 -0.0593675 -0.756267 
vn 0.553308 -0.0504148 -0.83145 
vn 0.70419 -0.0641624 -0.707107 
vn 0.784611 -0.07149 -0.615853 
vn 0.820921 -0.102119 -0.561837 
vn 0.899969 -0.111952 -0.421334 
vn 0.833968 -0.0759872 -0.546556 
vn 0.89159 -0.0812374 -0.445497 
vn 0.95142 -0.118353 -0.28424 
vn 0.92381 -0.0841732 -0.373482 
vn 0.982434 -0.122211 -0.141021 
vn 0.966929 -0.088102 -0.239346 
vn 0.978418 -0.0891488 -0.186416 
vn 0.954798 -0.0869967 -0.28424 
vn 0.985922 -0.0898326 -0.141022 
vn 0.995875 -0.0907394 0 
vn 0.974254 -0.0887694 0.207243 
vn 0.966945 -0.0881034 0.239282 
vn 0.947603 -0.117878 0.296905 
vn 0.950968 -0.0866477 0.296905 
vn 0.917303 -0.0835803 0.389319 
vn 0.894636 -0.111289 0.432713 
vn 0.891675 -0.0812452 0.445325 
vn 0.826564 -0.0753126 0.557782 
vn 0.784673 -0.0714957 0.615774 
vn 0.70419 -0.0641624 0.707107 
vn 0.730063 -0.0908167 0.677319 
vn 0.822112 -0.102267 0.560066 
vn 0.651646 -0.0593749 0.756195 
vn 0.617362 -0.0767972 0.782922 
vn 0.48629 -0.0604925 0.871701 
vn 0.54429 -0.0495931 0.83743 
vn 0.619553 -0.0564508 0.782922 
vn 0.489999 -0.0446464 0.870579 
vn 0.488017 -0.0444658 0.871701 
vn 0.371929 -0.0338884 0.927642 
vn 0.293697 -0.0267603 0.955524 
vn 0.185633 -0.016914 0.982474 
vn 0.215274 -0.0267792 0.976186 
vn 0.354562 -0.0441061 0.933992 
vn 0.0715435 -0.00651871 0.997416 
vn 0.0712905 -0.00886823 0.997416 
vn 0.0618828 -0.00563847 0.998067 
vn 3.62935e-14 -3.30689e-15 1 
vn -0.0712905 0.00886823 0.997416 
vn -0.182084 0.0165906 0.983143 
vn -0.217615 0.0270703 0.975659 
vn -0.20379 0.0185684 0.978839 
vn -0.385337 0.0351101 0.922108 
vn -0.356326 0.0443254 0.93331 
vn -0.395522 0.0360381 0.917749 
vn -0.553308 0.0504148 0.83145 
vn -0.487496 0.0606425 0.871017 
vn -0.573448 0.0522499 0.817574 
vn -0.609585 0.0758298 0.789086 
vn -0.723191 0.0899619 0.684764 
vn -0.70419 0.0641624 0.707107 
vn -0.720211 0.0656222 0.690644 
vn -0.611749 0.0557397 0.789086 
vn -0.725758 0.0661277 0.684764 
vn -0.833968 0.0759872 0.546556 
vn -0.820244 0.102035 0.56284 
vn -0.840755 0.0766056 0.535968 
vn -0.92381 0.0841732 0.373482 
vn -0.899446 0.111887 0.422467 
vn -0.933644 0.0850692 0.347953 
vn -0.951067 0.118309 0.285438 
vn -0.954444 0.0869644 0.285438 
vn -0.978418 0.0891488 0.186416 
vn -0.982259 0.122189 0.142259 
vn -0.992351 0.123444 -1.27117e-12 
vn -0.988271 0.09005 0.123332 
vn -0.985746 0.0898189 0.142259 
vn -0.995874 0.0907491 3.95878e-06 
vn -0.988275 0.090051 -0.1233 
vn -0.979894 0.121895 -0.157951 
vn -0.974254 0.0887694 -0.207243 
vn -0.983373 0.0896027 -0.157951 
vn 0.121374 -0.019033 0.992424 
vn 0.214314 -0.0336073 0.976186 
vn 0.342692 -0.0537386 0.937909 
vn 0.352981 -0.0553521 0.933992 
vn 0.528066 -0.0828076 0.845156 
vn 0.614609 -0.0963787 0.782922 
vn 0.806715 -0.126504 0.577241 
vn 0.680908 -0.106775 0.724544 
vn 0.818446 -0.128343 0.560066 
vn 0.906158 -0.142097 0.398355 
vn 0.943378 -0.147934 0.296905 
vn 0.987927 -0.15492 -0.000246088 
vn 0.986004 -0.154618 -0.0623713 
vn 0.978054 -0.153372 -0.141022 
vn 0.943911 -0.148018 -0.295166 
vn 0.895957 -0.140498 -0.421334 
vn 0.860059 -0.134868 -0.492046 
vn 0.817261 -0.128157 -0.561837 
vn 0.747114 -0.117157 -0.65429 
vn 0.60836 -0.0953988 -0.787907 
vn 0.607788 -0.0953091 -0.788359 
vn 0.440112 -0.0690154 -0.895287 
vn 0.355801 -0.0557943 -0.932895 
vn 0.236711 -0.0371194 -0.970871 
vn 0.217762 -0.034148 -0.975404 
vn 0.000250018 -3.91889e-05 -1 
vn 0.00020422 -3.20103e-05 -1 
vn -0.0721382 0.0113018 -0.997331 
vn -0.236355 0.0369863 -0.970963 
vn -0.354095 0.0553633 -0.933569 
vn -0.439861 0.0687258 -0.895432 
vn -0.485186 0.0757806 -0.871121 
vn -0.60822 0.0948972 -0.788075 
vn -0.724383 0.112912 -0.680089 
vn -0.747086 0.116426 -0.654452 
vn -0.816534 0.127184 -0.563113 
vn -0.860136 0.133927 -0.492169 
vn -0.88924 0.138436 -0.43599 
vn -0.944064 0.146914 -0.295227 
vn -0.975706 0.151821 -0.157951 
vn -0.986187 0.153441 -0.0623797 
vn -0.988109 0.153753 0.000238011 
vn -0.971457 0.151187 0.182792 
vn -0.978057 0.152208 0.142259 
vn -0.94699 0.147426 0.285438 
vn -0.906338 0.141151 0.398281 
vn -0.89558 0.139492 0.422467 
vn -0.806921 0.12579 0.577109 
vn -0.720054 0.112342 0.684764 
vn -0.681152 0.106309 0.724383 
vn -0.606926 0.0947885 0.789086 
vn -0.528355 0.0825712 0.844999 
vn -0.485358 0.0758793 0.871017 
vn -0.343037 0.0536882 0.937786 
vn -0.216649 0.0339391 0.975659 
vn -0.121775 0.0190889 0.992374 
vn -0.0709726 0.0111292 0.997416 
vn -0.000255681 4.00941e-05 1 
vn 0.97128 -0.152309 0.182805 
vn -0.371929 0.0338884 -0.927642 
vn -0.826564 0.0753126 -0.557782 
vn 0.412888 0.90094 -0.13353 
vn 0.20754 0.968624 -0.136727 
vn 0.196612 0.917621 -0.345421 
vn 0.402215 0.851129 -0.337345 
vn 0.176586 0.824155 -0.538132 
vn 0.382657 0.759849 -0.52555 
vn 0.148388 0.692552 -0.705941 
vn 0.355119 0.631323 -0.689436 
vn 0.113324 0.528902 -0.841083 
vn 0.320874 0.471499 -0.821419 
vn 0.0730161 0.340778 -0.937304 
vn 0.281509 0.287773 -0.915391 
vn 0.0293292 0.136884 -0.990153 
vn 0.598929 0.791129 -0.12409 
vn 0.589011 0.74484 -0.313496 
vn 0.570836 0.660013 -0.488395 
vn 0.545244 0.540573 -0.640694 
vn 0.513421 0.392049 -0.763346 
vn 0.476838 0.221312 -0.850674 
vn 0.238843 0.0886458 -0.967004 
vn 0.756965 0.644326 -0.108847 
vn 0.748265 0.603723 -0.274987 
vn 0.732322 0.529315 -0.428403 
vn 0.709875 0.424547 -0.561994 
vn 0.68196 0.294267 -0.66958 
vn 0.649871 0.144502 -0.746181 
vn 0.437189 0.0362626 -0.898638 
vn 0.879606 0.467395 -0.088515 
vn 0.872531 0.434376 -0.223621 
vn 0.859567 0.373868 -0.348379 
vn 0.841312 0.28867 -0.457016 
vn 0.818612 0.182725 -0.544505 
vn 0.792517 0.0609359 -0.606798 
vn 0.615092 -0.0178163 -0.788254 
vn 0.961118 0.268609 -0.0640439 
vn 0.955999 0.244719 -0.161798 
vn 0.946619 0.200938 -0.252065 
vn 0.933411 0.139295 -0.330668 
vn 0.916986 0.0626396 -0.39397 
vn 0.898106 -0.0254795 -0.439041 
vn 0.764235 -0.0710621 -0.641011 
vn 0.997689 0.0572631 -0.0365783 
vn 0.994765 0.0436182 -0.09241 
vn 0.989408 0.0186135 -0.143965 
vn 0.981864 -0.0165939 -0.188859 
vn 0.972483 -0.060375 -0.225013 
vn 0.9617 -0.110704 -0.250755 
vn 0.877642 -0.120985 -0.463796 
vn 0.987609 -0.15676 -0.00740223 
vn 0.987017 -0.159522 -0.0187007 
vn 0.985933 -0.164582 -0.0291339 
vn 0.984406 -0.171707 -0.0382188 
vn 0.982508 -0.180566 -0.0455353 
vn 0.980326 -0.190751 -0.0507446 
vn 0.950012 -0.165251 -0.264894 
vn 0.93135 -0.363454 0.0221199 
vn 0.933118 -0.355202 0.0558829 
vn 0.936357 -0.340081 0.08706 
vn 0.940919 -0.31879 0.114208 
vn 0.946592 -0.292315 0.136072 
vn 0.953113 -0.26188 0.151639 
vn 0.977961 -0.20179 -0.0536058 
vn 0.831541 -0.553153 0.0506078 
vn 0.835586 -0.534274 0.127854 
vn 0.842999 -0.499679 0.199183 
vn 0.853436 -0.450968 0.261296 
vn 0.866414 -0.390395 0.311317 
vn 0.881334 -0.320763 0.346932 
vn 0.960181 -0.228893 0.160189 
vn 0.692851 -0.716987 0.0767292 
vn 0.698984 -0.688364 0.193846 
vn 0.710222 -0.635913 0.301993 
vn 0.726046 -0.562059 0.396165 
vn 0.745724 -0.470221 0.472005 
vn 0.768344 -0.364648 0.526003 
vn 0.897504 -0.245294 0.366493 
vn 0.521764 -0.847295 0.0992629 
vn 0.529698 -0.810267 0.250774 
vn 0.544237 -0.742411 0.390681 
vn 0.564708 -0.646868 0.51251 
vn 0.590164 -0.528059 0.610622 
vn 0.619428 -0.391482 0.680479 
vn 0.792861 -0.250225 0.555661 
vn 0.32628 -0.937985 0.117155 
vn 0.335644 -0.894283 0.295977 
vn 0.352803 -0.814196 0.461102 
vn 0.376964 -0.701431 0.60489 
vn 0.407009 -0.561206 0.720688 
vn 0.441548 -0.400011 0.803136 
vn 0.651144 -0.243456 0.718846 
vn 0.115539 -0.984816 0.129569 
vn 0.125895 -0.936482 0.32734 
vn 0.144873 -0.847909 0.509962 
vn 0.171595 -0.723196 0.668987 
vn 0.204823 -0.568112 0.797055 
vn 0.243021 -0.389835 0.888239 
vn 0.478981 -0.225303 0.84842 
vn -0.100604 -0.985598 0.135925 
vn -0.0897402 -0.934893 0.343396 
vn -0.0698313 -0.841976 0.534977 
vn -0.041799 -0.711144 0.701802 
vn -0.00694041 -0.548454 0.836152 
vn 0.0331314 -0.361432 0.93181 
vn 0.284421 -0.196615 0.938321 
vn -0.312043 -0.940294 0.135925 
vn -0.301179 -0.88959 0.343396 
vn -0.28127 -0.796672 0.534977 
vn -0.253238 -0.665841 0.701802 
vn -0.218379 -0.50315 0.836152 
vn -0.178308 -0.316128 0.93181 
vn 0.0765623 -0.158733 0.984348 
vn -0.508892 -0.851024 0.129569 
vn -0.498535 -0.80269 0.32734 
vn -0.479558 -0.714117 0.509962 
vn -0.452836 -0.589403 0.668987 
vn -0.419607 -0.43432 0.797055 
vn -0.381409 -0.256043 0.888239 
vn -0.134877 -0.11343 0.984348 
vn -0.681945 -0.72196 0.117155 
vn -0.672581 -0.678257 0.295977 
vn -0.655421 -0.598171 0.461102 
vn -0.63126 -0.485406 0.60489 
vn -0.601215 -0.345181 0.720688 
vn -0.566677 -0.183985 0.803136 
vn -0.340009 -0.0628225 0.938321 
vn -0.823111 -0.559138 0.0992629 
vn -0.815177 -0.52211 0.250774 
vn -0.800638 -0.454254 0.390681 
vn -0.780167 -0.358711 0.51251 
vn -0.75471 -0.239902 0.610622 
vn -0.725447 -0.103325 0.680479 
vn -0.529243 -0.00927751 0.84842 
vn -0.925789 -0.370172 0.0767292 
vn -0.919656 -0.341549 0.193846 
vn -0.908418 -0.289098 0.301993 
vn -0.892594 -0.215244 0.396165 
vn -0.872916 -0.123406 0.472005 
vn -0.850296 -0.0178327 0.526003 
vn -0.69373 0.0447012 0.718846 
vn -0.985179 -0.163897 0.0506078 
vn -0.981134 -0.145018 0.127854 
vn -0.973721 -0.110423 0.199183 
vn -0.963284 -0.0617121 0.261296 
vn -0.950306 -0.00113899 0.311317 
vn -0.935386 0.0684931 0.346932 
vn -0.825779 0.0965898 0.555661 
vn -0.998502 0.050042 0.0221199 
vn -0.996734 0.0582934 0.0558829 
vn -0.993494 0.0734145 0.08706 
vn -0.988932 0.0947054 0.114208 
vn -0.98326 0.121181 0.136072 
vn -0.976739 0.151616 0.151639 
vn -0.919216 0.143962 0.366493 
vn -0.965137 0.261641 -0.00740223 
vn -0.965729 0.25888 -0.0187007 
vn -0.966813 0.25382 -0.0291339 
vn -0.968339 0.246695 -0.0382188 
vn -0.970238 0.237835 -0.0455353 
vn -0.97242 0.22765 -0.0507446 
vn -0.969671 0.184603 0.160189 
vn -0.886643 0.461006 -0.0365783 
vn -0.889567 0.447361 -0.09241 
vn -0.894924 0.422356 -0.143965 
vn -0.902468 0.387149 -0.188859 
vn -0.911848 0.343368 -0.225013 
vn -0.922632 0.293039 -0.250755 
vn -0.974785 0.216611 -0.0536058 
vn -0.766691 0.638815 -0.0640439 
vn -0.771809 0.614924 -0.161798 
vn -0.78119 0.571144 -0.252065 
vn -0.794398 0.5095 -0.330668 
vn -0.810822 0.432845 -0.39397 
vn -0.829703 0.344726 -0.439041 
vn -0.934319 0.238492 -0.264894 
vn -0.610889 0.786753 -0.088515 
vn -0.617963 0.753734 -0.223621 
vn -0.630928 0.693226 -0.348379 
vn -0.649183 0.608028 -0.457016 
vn -0.671883 0.502083 -0.544505 
vn -0.697978 0.380294 -0.606798 
vn -0.850166 0.24922 -0.463796 
vn -0.426522 0.897904 -0.108847 
vn -0.435222 0.8573 -0.274987 
vn -0.451165 0.782893 -0.428403 
vn -0.473613 0.678125 -0.561994 
vn -0.501527 0.547844 -0.66958 
vn -0.533616 0.39808 -0.746181 
vn -0.72626 0.248296 -0.641011 
vn -0.222212 0.96707 -0.12409 
vn -0.23213 0.92078 -0.313496 
vn -0.250305 0.835953 -0.488395 
vn -0.275897 0.716514 -0.640694 
vn -0.30772 0.567989 -0.763346 
vn -0.344303 0.397252 -0.850674 
vn -0.568395 0.235761 -0.788254 
vn -0.00751139 0.991016 -0.13353 
vn -0.018184 0.941205 -0.337345 
vn -0.0377421 0.849925 -0.52555 
vn -0.0652804 0.721399 -0.689436 
vn -0.0995248 0.561575 -0.821419 
vn -0.138891 0.377849 -0.915391 
vn -0.383952 0.212203 -0.898638 
vn -0.181556 0.178722 -0.967004 
vn -0.968216 0.207922 -0.139017 
vn -0.941981 0.202734 -0.267527 
vn -0.976336 0.209375 -0.0541386 
vn -0.892138 0.19253 -0.408684 
vn -0.819161 0.177355 -0.545455 
vn -0.863581 0.186612 -0.468406 
vn -0.719475 0.156438 -0.676671 
vn -0.591194 0.129354 -0.796089 
vn -0.7448 0.161765 -0.647383 
vn -0.45759 0.101022 -0.883406 
vn -0.322648 0.0723127 -0.943753 
vn -0.409944 0.090895 -0.90757 
vn -0.209525 0.0481855 -0.976615 
vn -0.0615391 0.0165657 -0.997967 
vn 0.000734904 0.00323635 -0.999994 
vn 0.193142 -0.0380764 -0.980432 
vn 0.000695713 0.00324474 -0.999994 
vn 0.210874 -0.0418905 -0.976615 
vn 0.325336 -0.0665279 -0.943255 
vn 0.411197 -0.0850451 -0.90757 
vn 0.590385 -0.123809 -0.79757 
vn 0.592293 -0.124223 -0.796089 
vn 0.745694 -0.157593 -0.647383 
vn 0.820704 -0.174012 -0.54421 
vn 0.864228 -0.183593 -0.468406 
vn 0.899142 -0.191326 -0.393622 
vn 0.970385 -0.207501 -0.123683 
vn 0.942351 -0.201009 -0.267527 
vn 0.977807 -0.209508 -0.000100037 
vn 0.97641 -0.209026 -0.0541386 
vn 0.977807 -0.209507 -0.000213801 
vn 0.964814 -0.207269 0.161781 
vn 0.941557 -0.202648 0.269081 
vn 0.821778 -0.177901 0.541324 
vn 0.908104 -0.195821 0.370136 
vn 0.808933 -0.175216 0.561184 
vn 0.671936 -0.146418 0.725992 
vn 0.59815 -0.130827 0.790633 
vn 0.322033 -0.0721817 0.943973 
vn 0.50352 -0.110774 0.856853 
vn 0.311561 -0.0699503 0.947648 
vn 0.18895 -0.0437918 0.98101 
vn 0.105033 -0.0258557 0.994133 
vn -0.000730184 -0.00321432 0.999995 
vn -0.0617631 0.00986937 0.998042 
vn -0.192115 0.0378576 0.980642 
vn -0.106406 0.0194479 0.994133 
vn -0.31287 0.0638421 0.947648 
vn -0.458134 0.0951822 0.883772 
vn -0.590511 0.123837 0.797472 
vn -0.504704 0.105251 0.856853 
vn -0.716284 0.151177 0.681236 
vn -0.809708 0.171599 0.561184 
vn -0.672939 0.141739 0.725992 
vn -0.898485 0.19118 0.39519 
vn -0.944877 0.201582 0.258016 
vn -0.908615 0.193435 0.370136 
vn -0.970212 0.207456 0.125102 
vn -0.977807 0.209507 0.000206896 
vn -0.965038 0.206227 0.161781 
vn -0.99882 0.0485564 -1.98126e-17 
vn -0.998535 -0.0541061 -2.85595e-17 
vn -0.985907 -0.167296 -3.95261e-17 
vn -0.963559 -0.267497 -4.86507e-17 
vn -0.926893 -0.375325 -5.78854e-17 
vn -0.883527 -0.468379 -6.53785e-17 
vn -0.824539 -0.565805 -7.27465e-17 
vn -0.762183 -0.647361 -7.85209e-17 
vn -0.683631 -0.729828 -8.39553e-17 
vn -0.6052 -0.796073 -8.79713e-17 
vn -0.510756 -0.859726 -9.14446e-17 
vn -0.419919 -0.907562 -9.3688e-17 
vn -0.215003 -0.976613 -9.5659e-17 
vn -0.313999 -0.949423 -9.51918e-17 
vn -3.28728e-05 -1 -9.38825e-17 
vn -0.10256 -0.994727 -9.51918e-17 
vn 0.214938 -0.976628 -8.83601e-17 
vn 0.113674 -0.993518 -9.14446e-17 
vn 0.419859 -0.907589 -7.91028e-17 
vn 0.324594 -0.945854 -8.39553e-17 
vn 0.605148 -0.796113 -6.61501e-17 
vn 0.520336 -0.853962 -7.27465e-17 
vn 0.762141 -0.647411 -4.96042e-17 
vn 0.691747 -0.72214 -5.78854e-17 
vn 0.883497 -0.468437 -2.96795e-17 
vn 0.830813 -0.556552 -3.95261e-17 
vn 0.963541 -0.26756 -6.76882e-18 
vn 0.931031 -0.36494 -1.79677e-17 
vn 0.998532 -0.0541717 1.84799e-17 
vn 0.987715 -0.156263 6.27286e-18 
vn 0.986832 0.16175 4.50883e-17 
vn 0.998215 0.0597197 3.23821e-17 
vn 0.928989 0.370108 7.17001e-17 
vn 0.962039 0.27291 5.91857e-17 
vn 0.827707 0.56116 9.65983e-17 
vn 0.88088 0.47334 8.51297e-17 
vn 0.687723 0.725973 1.17826e-16 
vn 0.758531 0.651637 1.08348e-16 
vn 0.515582 0.85684 1.33432e-16 
vn 0.600715 0.799463 1.2685e-16 
vn 0.319333 0.947643 1.41807e-16 
vn 0.414809 0.909908 1.38817e-16 
vn 0.108152 0.994134 1.42023e-16 
vn 0.209508 0.977807 1.42961e-16 
vn -0.00558986 0.999984 1.38817e-16 
vn -0.108086 0.994142 1.34056e-16 
vn -0.220426 0.975404 1.2685e-16 
vn -0.31927 0.947664 1.18791e-16 
vn -0.424956 0.905214 1.08348e-16 
vn -0.515526 0.856874 9.78078e-17 
vn -0.609615 0.792698 8.51297e-17 
vn -0.687676 0.726018 7.30507e-17 
vn -0.765769 0.643116 5.91857e-17 
vn -0.827671 0.561214 4.64828e-17 
vn -0.886117 0.463462 3.23821e-17 
vn -0.928965 0.370169 1.98376e-17 
vn -0.977826 0.209418 -1.0491e-20 
vn -0.96503 0.262138 6.27286e-18 
vn -0.986812 0.161871 -5.50244e-18 
vn 0 -1 0 
vn 0.21497 -0.976621 0 
vn 0.113674 -0.993518 0 
vn 0.214938 -0.976628 0 
vn 0.419889 -0.907575 0 
vn 0.324594 -0.945854 0 
vn 0.419859 -0.907589 0 
vn 0.605174 -0.796093 0 
vn 0.520336 -0.853962 0 
vn 0.605148 -0.796113 0 
vn 0.762162 -0.647386 0 
vn 0.691747 -0.72214 0 
vn 0.762141 -0.647411 0 
vn 0.883512 -0.468408 0 
vn 0.830813 -0.556552 0 
vn 0.883497 -0.468437 0 
vn 0.96355 -0.267528 0 
vn 0.931031 -0.36494 0 
vn 0.963541 -0.26756 0 
vn 0.998533 -0.0541389 0 
vn 0.987715 -0.156263 0 
vn 0.998532 -0.0541717 0 
vn 0.986827 0.161782 0 
vn 0.998215 0.0597197 0 
vn 0.986832 0.16175 0 
vn 0.928977 0.370138 0 
vn 0.962039 0.27291 0 
vn 0.928989 0.370108 0 
vn 0.827689 0.561187 0 
vn 0.88088 0.47334 0 
vn 0.827707 0.56116 0 
vn 0.687699 0.725995 0 
vn 0.758531 0.651637 0 
vn 0.687723 0.725973 0 
vn 0.515554 0.856857 0 
vn 0.600715 0.799463 0 
vn 0.515582 0.85684 0 
vn 0.319302 0.947653 0 
vn 0.414809 0.909908 0 
vn 0.319333 0.947643 0 
vn 0.108119 0.994138 0 
vn 0.209508 0.977807 0 
vn 0.108152 0.994134 0 
vn -0.108119 0.994138 0 
vn -0.00558986 0.999984 0 
vn -0.108086 0.994142 0 
vn -0.319302 0.947653 0 
vn -0.220426 0.975404 0 
vn -0.31927 0.947664 0 
vn -0.515554 0.856857 0 
vn -0.424956 0.905214 0 
vn -0.515526 0.856874 0 
vn -0.687699 0.725995 0 
vn -0.609615 0.792698 0 
vn -0.687676 0.726018 0 
vn -0.827689 0.561187 0 
vn -0.765769 0.643116 0 
vn -0.827671 0.561214 0 
vn -0.928977 0.370138 0 
vn -0.886117 0.463462 0 
vn -0.928965 0.370169 0 
vn -0.977826 0.209418 0 
vn -0.986827 0.161782 0 
vn -0.986812 0.161871 0 
vn -0.96503 0.262138 0 
vn -0.977826 0.209418 0 
vn -0.998533 -0.0541389 0 
vn -0.99882 0.0485564 0 
vn -0.998535 -0.0541061 0 
vn -0.96355 -0.267528 0 
vn -0.985907 -0.167296 0 
vn -0.963559 -0.267497 0 
vn -0.883512 -0.468408 0 
vn -0.926893 -0.375325 0 
vn -0.883527 -0.468379 0 
vn -0.762162 -0.647386 0 
vn -0.824539 -0.565805 0 
vn -0.762183 -0.647361 0 
vn -0.605174 -0.796093 0 
vn -0.683631 -0.729828 0 
vn -0.6052 -0.796073 0 
vn -0.419889 -0.907575 0 
vn -0.510756 -0.859726 0 
vn -0.419919 -0.907562 0 
vn -0.21497 -0.976621 0 
vn -0.313999 -0.949423 0 
vn -0.215003 -0.976613 0 
vn -0.10256 -0.994727 0 
vn -3.28728e-05 -1 0 
vn 1.15637e-18 2.2052e-18 -1 
usemtl 0.972549_0.529412_0.003922_0.000000_0.000000
o mesh0
f 31//1 1//1 2//1 
f 2//1 3//1 31//1 
f 3//1 4//1 31//1 
f 4//1 5//1 31//1 
f 5//1 6//1 31//1 
f 6//1 7//1 31//1 
f 7//1 8//1 31//1 
f 8//1 9//1 31//1 
f 9//1 10//1 31//1 
f 10//1 11//1 31//1 
f 11//1 12//1 31//1 
f 12//1 13//1 31//1 
f 13//1 14//1 31//1 
f 14//1 15//1 31//1 
f 15//1 16//1 31//1 
f 16//1 17//1 31//1 
f 17//1 18//1 31//1 
f 18//1 19//1 31//1 
f 19//1 20//1 31//1 
f 20//1 21//1 31//1 
f 21//1 22//1 31//1 
f 22//1 23//1 31//1 
f 23//1 24//1 31//1 
f 24//1 25//1 31//1 
f 25//1 26//1 31//1 
f 26//1 27//1 31//1 
f 27//1 28//1 31//1 
f 28//1 29//1 31//1 
f 29//1 30//1 31//1 
f 30//1 1//1 31//1 
o mesh1
f 15//2 32//2 33//3 
f 16//3 33//3 34//4 
f 17//4 34//4 35//5 
f 18//5 35//5 36//6 
f 19//6 36//6 37//7 
f 20//7 37//7 38//8 
f 21//8 38//8 39//9 
f 22//9 39//9 40//10 
f 23//10 40//10 41//11 
f 24//11 41//11 42//12 
f 25//12 42//12 43//13 
f 26//13 43//13 44//14 
f 27//14 44//14 45//15 
f 28//15 45//15 46//16 
f 1//17 30//18 47//18 
f 46//16 47//18 30//18 
f 30//18 29//19 46//16 
f 1//17 48//20 49//21 
f 2//21 49//21 50//22 
f 3//22 50//22 51//23 
f 4//23 51//23 52//24 
f 5//24 52//24 53//25 
f 6//25 53//25 54//26 
f 7//26 54//26 55//27 
f 8//27 55//27 56//28 
f 9//28 56//28 57//29 
f 10//29 57//29 58//30 
f 11//30 58//30 59//31 
f 12//31 59//31 60//32 
f 13//32 60//32 61//33 
f 14//33 61//33 32//2 
f 32//2 15//2 14//33 
f 61//33 14//33 13//32 
f 60//32 13//32 12//31 
f 59//31 12//31 11//30 
f 58//30 11//30 10//29 
f 57//29 10//29 9//28 
f 56//28 9//28 8//27 
f 55//27 8//27 7//26 
f 54//26 7//26 6//25 
f 53//25 6//25 5//24 
f 52//24 5//24 4//23 
f 51//23 4//23 3//22 
f 50//22 3//22 2//21 
f 49//21 2//21 1//17 
f 47//18 48//20 1//17 
f 46//16 29//19 28//15 
f 45//15 28//15 27//14 
f 44//14 27//14 26//13 
f 43//13 26//13 25//12 
f 42//12 25//12 24//11 
f 41//11 24//11 23//10 
f 40//10 23//10 22//9 
f 39//9 22//9 21//8 
f 38//8 21//8 20//7 
f 37//7 20//7 19//6 
f 36//6 19//6 18//5 
f 35//5 18//5 17//4 
f 34//4 17//4 16//3 
f 33//3 16//3 15//2 
o mesh2
f 62//34 63//35 92//36 
f 93//37 92//36 94//38 
f 95//39 94//38 96//40 
f 97//41 96//40 98//42 
f 99//43 98//42 100//44 
f 101//45 100//44 102//46 
f 103//47 102//46 32//48 
f 64//49 62//34 93//37 
f 104//50 93//37 95//39 
f 105//51 95//39 97//41 
f 106//52 97//41 99//43 
f 107//53 99//43 101//45 
f 108//54 101//45 103//47 
f 109//55 103//47 61//56 
f 65//57 64//49 104//50 
f 110//58 104//50 105//51 
f 111//59 105//51 106//52 
f 112//60 106//52 107//53 
f 113//61 107//53 108//54 
f 114//62 108//54 109//55 
f 115//63 109//55 60//64 
f 66//65 65//57 110//58 
f 116//66 110//58 111//59 
f 117//67 111//59 112//60 
f 118//68 112//60 113//61 
f 119//69 113//61 114//62 
f 120//70 114//62 115//63 
f 121//71 115//63 59//72 
f 67//73 66//65 116//66 
f 122//74 116//66 117//67 
f 123//75 117//67 118//68 
f 124//76 118//68 119//69 
f 125//77 119//69 120//70 
f 126//78 120//70 121//71 
f 127//79 121//71 58//80 
f 68//81 67//73 122//74 
f 128//82 122//74 123//75 
f 129//83 123//75 124//76 
f 130//84 124//76 125//77 
f 131//85 125//77 126//78 
f 132//86 126//78 127//79 
f 133//87 127//79 57//88 
f 69//89 68//81 128//82 
f 134//90 128//82 129//83 
f 135//91 129//83 130//84 
f 136//92 130//84 131//85 
f 137//93 131//85 132//86 
f 138//94 132//86 133//87 
f 139//95 133//87 56//96 
f 70//97 69//89 134//90 
f 140//98 134//90 135//91 
f 141//99 135//91 136//92 
f 142//100 136//92 137//93 
f 143//101 137//93 138//94 
f 144//102 138//94 139//95 
f 145//103 139//95 55//104 
f 71//105 70//97 140//98 
f 146//106 140//98 141//99 
f 147//107 141//99 142//100 
f 148//108 142//100 143//101 
f 149//109 143//101 144//102 
f 150//110 144//102 145//103 
f 151//111 145//103 54//112 
f 72//113 71//105 146//106 
f 152//114 146//106 147//107 
f 153//115 147//107 148//108 
f 154//116 148//108 149//109 
f 155//117 149//109 150//110 
f 156//118 150//110 151//111 
f 157//119 151//111 53//120 
f 73//121 72//113 152//114 
f 158//122 152//114 153//115 
f 159//123 153//115 154//116 
f 160//124 154//116 155//117 
f 161//125 155//117 156//118 
f 162//126 156//118 157//119 
f 163//127 157//119 52//128 
f 74//129 73//121 158//122 
f 164//130 158//122 159//123 
f 165//131 159//123 160//124 
f 166//132 160//124 161//125 
f 167//133 161//125 162//126 
f 168//134 162//126 163//127 
f 169//135 163//127 51//136 
f 75//137 74//129 164//130 
f 170//138 164//130 165//131 
f 171//139 165//131 166//132 
f 172//140 166//132 167//133 
f 173//141 167//133 168//134 
f 174//142 168//134 169//135 
f 175//143 169//135 50//144 
f 76//145 75//137 170//138 
f 176//146 170//138 171//139 
f 177//147 171//139 172//140 
f 178//148 172//140 173//141 
f 179//149 173//141 174//142 
f 180//150 174//142 175//143 
f 181//151 175//143 49//152 
f 182//153 77//154 78//155 
f 78//155 176//146 182//153 
f 182//153 176//146 177//147 
f 183//156 177//147 178//148 
f 184//157 178//148 179//149 
f 185//158 179//149 180//150 
f 186//159 180//150 181//151 
f 187//160 181//151 47//161 
f 181//151 48//162 47//161 
f 79//163 77//154 182//153 
f 188//164 182//153 183//156 
f 189//165 183//156 184//157 
f 190//166 184//157 185//158 
f 191//167 185//158 186//159 
f 192//168 186//159 187//160 
f 193//169 187//160 46//170 
f 80//171 79//163 188//164 
f 194//172 188//164 189//165 
f 195//173 189//165 190//166 
f 196//174 190//166 191//167 
f 197//175 191//167 192//168 
f 198//176 192//168 193//169 
f 199//177 193//169 45//178 
f 81//179 80//171 194//172 
f 200//180 194//172 195//173 
f 201//181 195//173 196//174 
f 202//182 196//174 197//175 
f 203//183 197//175 198//176 
f 204//184 198//176 199//177 
f 205//185 199//177 44//186 
f 82//187 81//179 200//180 
f 206//188 200//180 201//181 
f 207//189 201//181 202//182 
f 208//190 202//182 203//183 
f 209//191 203//183 204//184 
f 210//192 204//184 205//185 
f 211//193 205//185 43//194 
f 83//195 82//187 206//188 
f 212//196 206//188 207//189 
f 213//197 207//189 208//190 
f 214//198 208//190 209//191 
f 215//199 209//191 210//192 
f 216//200 210//192 211//193 
f 217//201 211//193 42//202 
f 84//203 83//195 212//196 
f 218//204 212//196 213//197 
f 219//205 213//197 214//198 
f 220//206 214//198 215//199 
f 221//207 215//199 216//200 
f 222//208 216//200 217//201 
f 223//209 217//201 41//210 
f 85//211 84//203 218//204 
f 224//212 218//204 219//205 
f 225//213 219//205 220//206 
f 226//214 220//206 221//207 
f 227//215 221//207 222//208 
f 228//216 222//208 223//209 
f 229//217 223//209 40//218 
f 86//219 85//211 224//212 
f 230//220 224//212 225//213 
f 231//221 225//213 226//214 
f 232//222 226//214 227//215 
f 233//223 227//215 228//216 
f 234//224 228//216 229//217 
f 235//225 229//217 39//226 
f 87//227 86//219 230//220 
f 236//228 230//220 231//221 
f 237//229 231//221 232//222 
f 238//230 232//222 233//223 
f 239//231 233//223 234//224 
f 240//232 234//224 235//225 
f 241//233 235//225 38//234 
f 88//235 87//227 236//228 
f 242//236 236//228 237//229 
f 243//237 237//229 238//230 
f 244//238 238//230 239//231 
f 245//239 239//231 240//232 
f 246//240 240//232 241//233 
f 247//241 241//233 37//242 
f 89//243 88//235 242//236 
f 248//244 242//236 243//237 
f 249//245 243//237 244//238 
f 250//246 244//238 245//239 
f 251//247 245//239 246//240 
f 252//248 246//240 247//241 
f 253//249 247//241 36//250 
f 90//251 89//243 248//244 
f 254//252 248//244 249//245 
f 255//253 249//245 250//246 
f 256//254 250//246 251//247 
f 257//255 251//247 252//248 
f 258//256 252//248 253//249 
f 259//257 253//249 35//258 
f 91//259 90//251 254//252 
f 260//260 254//252 255//253 
f 261//261 255//253 256//254 
f 262//262 256//254 257//255 
f 263//263 257//255 258//256 
f 264//264 258//256 259//257 
f 265//265 259//257 34//266 
f 63//35 91//259 260//260 
f 92//36 260//260 261//261 
f 94//38 261//261 262//262 
f 96//40 262//262 263//263 
f 98//42 263//263 264//264 
f 100//44 264//264 265//265 
f 102//46 265//265 33//267 
f 33//267 32//48 102//46 
f 265//265 102//46 100//44 
f 264//264 100//44 98//42 
f 263//263 98//42 96//40 
f 262//262 96//40 94//38 
f 261//261 94//38 92//36 
f 260//260 92//36 63//35 
f 34//266 33//267 265//265 
f 259//257 265//265 264//264 
f 258//256 264//264 263//263 
f 257//255 263//263 262//262 
f 256//254 262//262 261//261 
f 255//253 261//261 260//260 
f 254//252 260//260 91//259 
f 35//258 34//266 259//257 
f 253//249 259//257 258//256 
f 252//248 258//256 257//255 
f 251//247 257//255 256//254 
f 250//246 256//254 255//253 
f 249//245 255//253 254//252 
f 248//244 254//252 90//251 
f 36//250 35//258 253//249 
f 247//241 253//249 252//248 
f 246//240 252//248 251//247 
f 245//239 251//247 250//246 
f 244//238 250//246 249//245 
f 243//237 249//245 248//244 
f 242//236 248//244 89//243 
f 37//242 36//250 247//241 
f 241//233 247//241 246//240 
f 240//232 246//240 245//239 
f 239//231 245//239 244//238 
f 238//230 244//238 243//237 
f 237//229 243//237 242//236 
f 236//228 242//236 88//235 
f 38//234 37//242 241//233 
f 235//225 241//233 240//232 
f 234//224 240//232 239//231 
f 233//223 239//231 238//230 
f 232//222 238//230 237//229 
f 231//221 237//229 236//228 
f 230//220 236//228 87//227 
f 39//226 38//234 235//225 
f 229//217 235//225 234//224 
f 228//216 234//224 233//223 
f 227//215 233//223 232//222 
f 226//214 232//222 231//221 
f 225//213 231//221 230//220 
f 224//212 230//220 86//219 
f 40//218 39//226 229//217 
f 223//209 229//217 228//216 
f 222//208 228//216 227//215 
f 221//207 227//215 226//214 
f 220//206 226//214 225//213 
f 219//205 225//213 224//212 
f 218//204 224//212 85//211 
f 41//210 40//218 223//209 
f 217//201 223//209 222//208 
f 216//200 222//208 221//207 
f 215//199 221//207 220//206 
f 214//198 220//206 219//205 
f 213//197 219//205 218//204 
f 212//196 218//204 84//203 
f 42//202 41//210 217//201 
f 211//193 217//201 216//200 
f 210//192 216//200 215//199 
f 209//191 215//199 214//198 
f 208//190 214//198 213//197 
f 207//189 213//197 212//196 
f 206//188 212//196 83//195 
f 43//194 42//202 211//193 
f 205//185 211//193 210//192 
f 204//184 210//192 209//191 
f 203//183 209//191 208//190 
f 202//182 208//190 207//189 
f 201//181 207//189 206//188 
f 200//180 206//188 82//187 
f 44//186 43//194 205//185 
f 199//177 205//185 204//184 
f 198//176 204//184 203//183 
f 197//175 203//183 202//182 
f 196//174 202//182 201//181 
f 195//173 201//181 200//180 
f 194//172 200//180 81//179 
f 45//178 44//186 199//177 
f 193//169 199//177 198//176 
f 192//168 198//176 197//175 
f 191//167 197//175 196//174 
f 190//166 196//174 195//173 
f 189//165 195//173 194//172 
f 188//164 194//172 80//171 
f 46//170 45//178 193//169 
f 187//160 193//169 192//168 
f 186//159 192//168 191//167 
f 185//158 191//167 190//166 
f 184//157 190//166 189//165 
f 183//156 189//165 188//164 
f 182//153 188//164 79//163 
f 47//161 46//170 187//160 
f 181//151 187//160 186//159 
f 180//150 186//159 185//158 
f 179//149 185//158 184//157 
f 178//148 184//157 183//156 
f 177//147 183//156 182//153 
f 78//155 76//145 176//146 
f 49//152 48//162 181//151 
f 175//143 181//151 180//150 
f 174//142 180//150 179//149 
f 173//141 179//149 178//148 
f 172//140 178//148 177//147 
f 171//139 177//147 176//146 
f 170//138 176//146 76//145 
f 50//144 49//152 175//143 
f 169//135 175//143 174//142 
f 168//134 174//142 173//141 
f 167//133 173//141 172//140 
f 166//132 172//140 171//139 
f 165//131 171//139 170//138 
f 164//130 170//138 75//137 
f 51//136 50//144 169//135 
f 163//127 169//135 168//134 
f 162//126 168//134 167//133 
f 161//125 167//133 166//132 
f 160//124 166//132 165//131 
f 159//123 165//131 164//130 
f 158//122 164//130 74//129 
f 52//128 51//136 163//127 
f 157//119 163//127 162//126 
f 156//118 162//126 161//125 
f 155//117 161//125 160//124 
f 154//116 160//124 159//123 
f 153//115 159//123 158//122 
f 152//114 158//122 73//121 
f 53//120 52//128 157//119 
f 151//111 157//119 156//118 
f 150//110 156//118 155//117 
f 149//109 155//117 154//116 
f 148//108 154//116 153//115 
f 147//107 153//115 152//114 
f 146//106 152//114 72//113 
f 54//112 53//120 151//111 
f 145//103 151//111 150//110 
f 144//102 150//110 149//109 
f 143//101 149//109 148//108 
f 142//100 148//108 147//107 
f 141//99 147//107 146//106 
f 140//98 146//106 71//105 
f 55//104 54//112 145//103 
f 139//95 145//103 144//102 
f 138//94 144//102 143//101 
f 137//93 143//101 142//100 
f 136//92 142//100 141//99 
f 135//91 141//99 140//98 
f 134//90 140//98 70//97 
f 56//96 55//104 139//95 
f 133//87 139//95 138//94 
f 132//86 138//94 137//93 
f 131//85 137//93 136//92 
f 130//84 136//92 135//91 
f 129//83 135//91 134//90 
f 128//82 134//90 69//89 
f 57//88 56//96 133//87 
f 127//79 133//87 132//86 
f 126//78 132//86 131//85 
f 125//77 131//85 130//84 
f 124//76 130//84 129//83 
f 123//75 129//83 128//82 
f 122//74 128//82 68//81 
f 58//80 57//88 127//79 
f 121//71 127//79 126//78 
f 120//70 126//78 125//77 
f 119//69 125//77 124//76 
f 118//68 124//76 123//75 
f 117//67 123//75 122//74 
f 116//66 122//74 67//73 
f 59//72 58//80 121//71 
f 115//63 121//71 120//70 
f 114//62 120//70 119//69 
f 113//61 119//69 118//68 
f 112//60 118//68 117//67 
f 111//59 117//67 116//66 
f 110//58 116//66 66//65 
f 60//64 59//72 115//63 
f 109//55 115//63 114//62 
f 108//54 114//62 113//61 
f 107//53 113//61 112//60 
f 106//52 112//60 111//59 
f 105//51 111//59 110//58 
f 104//50 110//58 65//57 
f 61//56 60//64 109//55 
f 103//47 109//55 108//54 
f 101//45 108//54 107//53 
f 99//43 107//53 106//52 
f 97//41 106//52 105//51 
f 95//39 105//51 104//50 
f 93//37 104//50 64//49 
f 32//48 61//56 103//47 
f 102//46 103//47 101//45 
f 100//44 101//45 99//43 
f 98//42 99//43 97//41 
f 96//40 97//41 95//39 
f 94//38 95//39 93//37 
f 92//36 93//37 62//34 
o mesh3
f 75//268 266//269 267//270 
f 76//271 268//272 269//273 
f 269//273 75//268 76//271 
f 269//273 266//269 75//268 
f 74//274 75//268 270//275 
f 270//275 271//276 74//274 
f 73//277 272//278 273//279 
f 73//277 74//274 274//280 
f 274//280 272//278 73//277 
f 72//281 275//282 276//283 
f 72//281 73//277 277//284 
f 277//284 275//282 72//281 
f 71//285 72//281 278//286 
f 278//286 279//287 71//285 
f 70//288 71//285 280//289 
f 280//289 281//290 70//288 
f 281//290 282//291 70//288 
f 69//292 70//288 283//293 
f 283//293 284//294 69//292 
f 68//295 285//296 286//297 
f 68//295 69//292 287//298 
f 287//298 285//296 68//295 
f 67//299 68//295 288//300 
f 288//300 289//301 67//299 
f 289//301 290//302 67//299 
f 66//303 67//299 291//304 
f 291//304 292//305 66//303 
f 292//305 293//306 66//303 
f 65//307 66//303 294//308 
f 294//308 295//309 65//307 
f 64//310 65//307 296//311 
f 296//311 297//312 64//310 
f 62//313 64//310 298//314 
f 298//314 299//315 62//313 
f 299//315 300//316 62//313 
f 63//317 62//313 301//318 
f 301//318 302//319 63//317 
f 91//320 303//321 304//322 
f 63//317 305//323 303//321 
f 303//321 91//320 63//317 
f 90//324 306//325 307//326 
f 91//320 308//327 306//325 
f 306//325 90//324 91//320 
f 90//324 309//328 310//329 
f 90//324 311//330 309//328 
f 89//331 312//332 313//333 
f 89//331 310//329 312//332 
f 88//334 314//335 315//336 
f 88//334 313//333 314//335 
f 87//337 316//338 317//339 
f 87//337 315//336 316//338 
f 86//340 318//341 319//342 
f 86//340 317//339 320//343 
f 320//343 318//341 86//340 
f 85//344 319//342 321//345 
f 321//345 84//346 85//344 
f 84//346 322//347 323//348 
f 84//346 324//349 325//350 
f 325//350 322//347 84//346 
f 83//351 326//352 327//353 
f 83//351 323//348 326//352 
f 82//354 328//355 329//356 
f 82//354 327//353 330//357 
f 330//357 328//355 82//354 
f 81//358 331//359 332//360 
f 81//358 329//356 333//361 
f 333//361 331//359 81//358 
f 80//362 334//363 335//364 
f 80//362 332//360 334//363 
f 77//365 336//366 337//367 
f 79//368 335//364 338//369 
f 338//369 77//365 79//368 
f 338//369 336//366 77//365 
f 78//370 339//371 268//272 
f 77//365 340//372 339//371 
f 339//371 78//370 77//365 
f 268//272 76//271 78//370 
f 337//367 340//372 77//365 
f 335//364 79//368 80//362 
f 332//360 80//362 81//358 
f 329//356 81//358 82//354 
f 327//353 82//354 83//351 
f 323//348 83//351 84//346 
f 321//345 324//349 84//346 
f 319//342 85//344 86//340 
f 317//339 86//340 87//337 
f 315//336 87//337 88//334 
f 313//333 88//334 89//331 
f 310//329 89//331 90//324 
f 307//326 311//330 90//324 
f 304//322 308//327 91//320 
f 302//319 305//323 63//317 
f 300//316 301//318 62//313 
f 297//312 298//314 64//310 
f 295//309 296//311 65//307 
f 293//306 294//308 66//303 
f 290//302 291//304 67//299 
f 286//297 288//300 68//295 
f 284//294 287//298 69//292 
f 282//291 283//293 70//288 
f 279//287 280//289 71//285 
f 276//283 278//286 72//281 
f 273//279 277//284 73//277 
f 271//276 274//280 74//274 
f 267//270 270//275 75//268 
o mesh4
f 341//373 401//374 402//375 
f 403//376 404//377 335//378 
f 404//377 338//379 335//378 
f 332//380 405//381 403//376 
f 403//376 334//382 332//380 
f 333//383 406//384 405//381 
f 407//385 406//384 328//386 
f 406//384 333//383 329//387 
f 329//387 328//386 406//384 
f 408//388 407//385 327//389 
f 407//385 330//390 327//389 
f 323//391 409//392 408//388 
f 408//388 326//393 323//391 
f 325//394 410//395 409//392 
f 410//395 325//394 324//396 
f 324//396 411//397 410//395 
f 412//398 411//397 321//399 
f 321//399 319//400 412//398 
f 413//401 412//398 318//402 
f 413//401 320//403 317//404 
f 317//404 414//405 413//401 
f 415//406 414//405 316//407 
f 316//407 315//408 415//406 
f 416//409 417//410 313//411 
f 417//410 314//412 313//411 
f 416//409 312//413 310//414 
f 310//414 418//415 416//409 
f 419//416 418//415 309//417 
f 309//417 311//418 419//416 
f 420//419 419//416 307//420 
f 421//421 420//419 308//422 
f 308//422 304//423 421//421 
f 420//419 306//424 308//422 
f 401//374 421//421 303//425 
f 305//426 302//427 402//375 
f 402//375 302//427 301//428 
f 301//428 422//429 402//375 
f 422//429 300//430 299//431 
f 423//432 298//433 297//434 
f 423//432 299//431 298//433 
f 296//435 295//436 424//437 
f 425//438 297//434 296//435 
f 424//437 295//436 294//439 
f 294//439 426//440 424//437 
f 427//441 426//440 292//442 
f 426//440 293//443 292//442 
f 292//442 291//444 427//441 
f 427//441 290//445 289//446 
f 288//447 286//448 428//449 
f 429//450 289//446 288//447 
f 428//449 286//448 285//451 
f 430//452 287//453 284//454 
f 430//452 285//451 287//453 
f 431//455 284//454 283//456 
f 283//456 432//457 431//455 
f 282//458 281//459 433//460 
f 280//461 279//462 434//463 
f 433//460 281//459 280//461 
f 434//463 279//462 278//464 
f 278//464 435//465 434//463 
f 436//466 275//467 277//468 
f 435//465 276//469 275//467 
f 275//467 436//466 435//465 
f 273//470 272//471 437//472 
f 274//473 271//474 438//475 
f 437//472 272//471 274//473 
f 438//475 271//474 270//476 
f 270//476 439//477 438//475 
f 439//477 267//478 266//479 
f 266//479 440//480 439//477 
f 441//481 440//480 268//482 
f 440//480 269//483 268//482 
f 441//481 339//484 340//485 
f 340//485 442//486 441//481 
f 404//377 442//486 336//487 
f 442//486 337//488 336//487 
f 428//449 430//452 342//489 
f 429//450 428//449 343//490 
f 343//490 344//491 429//450 
f 427//441 429//450 345//492 
f 426//440 427//441 346//493 
f 424//437 426//440 347//494 
f 348//495 425//438 424//437 
f 424//437 349//496 348//495 
f 423//432 425//438 350//497 
f 422//429 423//432 351//498 
f 402//375 422//429 352//499 
f 421//421 353//500 354//501 
f 401//374 341//373 353//500 
f 353//500 421//421 401//374 
f 355//502 356//503 420//419 
f 420//419 356//503 357//504 
f 419//416 358//505 359//506 
f 419//416 357//504 358//505 
f 418//415 359//506 360//507 
f 416//409 361//508 362//509 
f 416//409 360//507 361//508 
f 362//509 363//510 415//406 
f 415//406 363//510 364//511 
f 414//405 365//512 366//513 
f 414//405 364//511 365//512 
f 366//513 367//514 412//398 
f 412//398 368//515 369//516 
f 412//398 367//514 368//515 
f 411//397 369//516 370//517 
f 410//395 370//517 371//518 
f 409//392 372//519 373//520 
f 409//392 371//518 372//519 
f 408//388 373//520 374//521 
f 407//385 374//521 375//522 
f 406//384 376//523 377//524 
f 406//384 375//522 376//523 
f 403//376 405//381 378//525 
f 405//381 377//524 378//525 
f 403//376 379//526 380//527 
f 404//377 380//527 381//528 
f 442//486 381//528 382//529 
f 382//529 441//481 442//486 
f 440//480 441//481 383//530 
f 439//477 440//480 384//531 
f 440//480 385//532 384//531 
f 438//475 439//477 386//533 
f 386//533 387//534 438//475 
f 437//472 438//475 388//535 
f 436//466 437//472 389//536 
f 435//465 436//466 390//537 
f 390//537 391//538 435//465 
f 434//463 435//465 392//539 
f 392//539 393//540 434//463 
f 433//460 434//463 394//541 
f 432//457 433//460 395//542 
f 431//455 432//457 396//543 
f 396//543 397//544 431//455 
f 430//452 431//455 398//545 
f 398//545 399//546 430//452 
f 399//546 342//489 430//452 
f 397//544 398//545 431//455 
f 395//542 396//543 432//457 
f 394//541 395//542 433//460 
f 393//540 394//541 434//463 
f 391//538 392//539 435//465 
f 389//536 390//537 436//466 
f 388//535 389//536 437//472 
f 387//534 388//535 438//475 
f 384//531 386//533 439//477 
f 383//530 385//532 440//480 
f 382//529 383//530 441//481 
f 381//528 442//486 404//377 
f 380//527 404//377 403//376 
f 378//525 379//526 403//376 
f 377//524 405//381 406//384 
f 375//522 406//384 407//385 
f 374//521 407//385 408//388 
f 373//520 408//388 409//392 
f 371//518 409//392 410//395 
f 370//517 410//395 411//397 
f 369//516 411//397 412//398 
f 412//398 413//401 366//513 
f 366//513 413//401 414//405 
f 364//511 414//405 415//406 
f 415//406 417//410 362//509 
f 362//509 417//410 416//409 
f 360//507 416//409 418//415 
f 359//506 418//415 419//416 
f 357//504 419//416 420//419 
f 420//419 421//421 355//502 
f 354//501 355//502 421//421 
f 352//499 400//547 402//375 
f 351//498 352//499 422//429 
f 350//497 351//498 423//432 
f 348//495 350//497 425//438 
f 347//494 349//496 424//437 
f 346//493 347//494 426//440 
f 345//492 346//493 427//441 
f 344//491 345//492 429//450 
f 342//489 343//490 428//449 
f 336//487 338//379 404//377 
f 340//485 337//488 442//486 
f 268//482 339//484 441//481 
f 266//479 269//483 440//480 
f 270//476 267//478 439//477 
f 438//475 437//472 274//473 
f 437//472 436//466 273//470 
f 277//468 273//470 436//466 
f 278//464 276//469 435//465 
f 434//463 433//460 280//461 
f 433//460 432//457 282//458 
f 283//456 282//458 432//457 
f 284//454 431//455 430//452 
f 285//451 430//452 428//449 
f 428//449 429//450 288//447 
f 289//446 429//450 427//441 
f 291//444 290//445 427//441 
f 294//439 293//443 426//440 
f 424//437 425//438 296//435 
f 297//434 425//438 423//432 
f 299//431 423//432 422//429 
f 301//428 300//430 422//429 
f 402//375 401//374 305//426 
f 303//425 305//426 401//374 
f 304//423 303//425 421//421 
f 307//420 306//424 420//419 
f 311//418 307//420 419//416 
f 310//414 309//417 418//415 
f 313//411 312//413 416//409 
f 415//406 314//412 417//410 
f 315//408 314//412 415//406 
f 317//404 316//407 414//405 
f 318//402 320//403 413//401 
f 319//400 318//402 412//398 
f 324//396 321//399 411//397 
f 409//392 322//548 325//394 
f 323//391 322//548 409//392 
f 327//389 326//393 408//388 
f 328//386 330//390 407//385 
f 405//381 331//549 333//383 
f 332//380 331//549 405//381 
f 335//378 334//382 403//376 
f 402//375 400//547 341//373 
o mesh5
f 502//550 503//551 504//552 
f 505//553 504//552 506//554 
f 507//555 506//554 508//556 
f 509//557 508//556 510//558 
f 511//559 510//558 512//560 
f 513//561 512//560 514//562 
f 515//563 502//550 505//553 
f 516//564 505//553 507//555 
f 517//565 507//555 509//557 
f 518//566 509//557 511//559 
f 519//567 511//559 513//561 
f 520//568 513//561 521//569 
f 522//570 515//563 516//564 
f 523//571 516//564 517//565 
f 524//572 517//565 518//566 
f 525//573 518//566 519//567 
f 526//574 519//567 520//568 
f 527//575 520//568 528//576 
f 529//577 522//570 523//571 
f 530//578 523//571 524//572 
f 531//579 524//572 525//573 
f 532//580 525//573 526//574 
f 533//581 526//574 527//575 
f 534//582 527//575 535//583 
f 536//584 529//577 530//578 
f 537//585 530//578 531//579 
f 538//586 531//579 532//580 
f 539//587 532//580 533//581 
f 540//588 533//581 534//582 
f 541//589 534//582 542//590 
f 543//591 536//584 537//585 
f 544//592 537//585 538//586 
f 545//593 538//586 539//587 
f 546//594 539//587 540//588 
f 547//595 540//588 541//589 
f 548//596 541//589 549//597 
f 550//598 543//591 544//592 
f 551//599 544//592 545//593 
f 552//600 545//593 546//594 
f 553//601 546//594 547//595 
f 554//602 547//595 548//596 
f 555//603 548//596 556//604 
f 557//605 550//598 551//599 
f 558//606 551//599 552//600 
f 559//607 552//600 553//601 
f 560//608 553//601 554//602 
f 561//609 554//602 555//603 
f 562//610 555//603 563//611 
f 564//612 557//605 558//606 
f 565//613 558//606 559//607 
f 566//614 559//607 560//608 
f 567//615 560//608 561//609 
f 568//616 561//609 562//610 
f 569//617 562//610 570//618 
f 571//619 564//612 565//613 
f 572//620 565//613 566//614 
f 573//621 566//614 567//615 
f 574//622 567//615 568//616 
f 575//623 568//616 569//617 
f 576//624 569//617 577//625 
f 578//626 571//619 572//620 
f 579//627 572//620 573//621 
f 580//628 573//621 574//622 
f 581//629 574//622 575//623 
f 582//630 575//623 576//624 
f 583//631 576//624 584//632 
f 585//633 578//626 579//627 
f 586//634 579//627 580//628 
f 587//635 580//628 581//629 
f 588//636 581//629 582//630 
f 589//637 582//630 583//631 
f 590//638 583//631 591//639 
f 592//640 585//633 586//634 
f 593//641 586//634 587//635 
f 594//642 587//635 588//636 
f 595//643 588//636 589//637 
f 596//644 589//637 590//638 
f 597//645 590//638 598//646 
f 599//647 592//640 593//641 
f 600//648 593//641 594//642 
f 601//649 594//642 595//643 
f 602//650 595//643 596//644 
f 603//651 596//644 597//645 
f 604//652 597//645 605//653 
f 606//654 599//647 600//648 
f 607//655 600//648 601//649 
f 608//656 601//649 602//650 
f 609//657 602//650 603//651 
f 610//658 603//651 604//652 
f 611//659 604//652 612//660 
f 613//661 606//654 607//655 
f 614//662 607//655 608//656 
f 615//663 608//656 609//657 
f 616//664 609//657 610//658 
f 617//665 610//658 611//659 
f 618//666 611//659 619//667 
f 620//668 613//661 614//662 
f 621//669 614//662 615//663 
f 622//670 615//663 616//664 
f 623//671 616//664 617//665 
f 624//672 617//665 618//666 
f 625//673 618//666 626//674 
f 627//675 620//668 621//669 
f 628//676 621//669 622//670 
f 629//677 622//670 623//671 
f 630//678 623//671 624//672 
f 631//679 624//672 625//673 
f 632//680 625//673 633//681 
f 634//682 627//675 628//676 
f 635//683 628//676 629//677 
f 636//684 629//677 630//678 
f 637//685 630//678 631//679 
f 638//686 631//679 632//680 
f 639//687 632//680 640//688 
f 641//689 634//682 635//683 
f 642//690 635//683 636//684 
f 643//691 636//684 637//685 
f 644//692 637//685 638//686 
f 645//693 638//686 639//687 
f 646//694 639//687 647//695 
f 648//696 641//689 642//690 
f 649//697 642//690 643//691 
f 650//698 643//691 644//692 
f 651//699 644//692 645//693 
f 652//700 645//693 646//694 
f 653//701 646//694 654//702 
f 655//703 648//696 649//697 
f 656//704 649//697 650//698 
f 657//705 650//698 651//699 
f 658//706 651//699 652//700 
f 659//707 652//700 653//701 
f 660//708 653//701 661//709 
f 662//710 655//703 656//704 
f 663//711 656//704 657//705 
f 664//712 657//705 658//706 
f 665//713 658//706 659//707 
f 666//714 659//707 660//708 
f 667//715 660//708 668//716 
f 669//717 662//710 663//711 
f 670//718 663//711 664//712 
f 671//719 664//712 665//713 
f 672//720 665//713 666//714 
f 673//721 666//714 667//715 
f 674//722 667//715 675//723 
f 676//724 669//717 670//718 
f 677//725 670//718 671//719 
f 678//726 671//719 672//720 
f 679//727 672//720 673//721 
f 680//728 673//721 674//722 
f 681//729 674//722 682//730 
f 683//731 676//724 677//725 
f 684//732 677//725 678//726 
f 685//733 678//726 679//727 
f 686//734 679//727 680//728 
f 687//735 680//728 681//729 
f 688//736 681//729 689//737 
f 690//738 683//731 684//732 
f 691//739 684//732 685//733 
f 692//740 685//733 686//734 
f 693//741 686//734 687//735 
f 694//742 687//735 688//736 
f 695//743 688//736 696//744 
f 697//745 690//738 691//739 
f 698//746 691//739 692//740 
f 699//747 692//740 693//741 
f 700//748 693//741 694//742 
f 701//749 694//742 695//743 
f 702//750 695//743 703//751 
f 503//551 697//745 698//746 
f 504//552 698//746 699//747 
f 506//554 699//747 700//748 
f 508//556 700//748 701//749 
f 510//558 701//749 702//750 
f 512//560 702//750 704//752 
f 381//753 380//754 675//723 
f 668//716 382//755 381//753 
f 682//730 675//723 379//756 
f 675//723 380//754 379//756 
f 689//737 682//730 377//757 
f 682//730 378//758 377//757 
f 375//759 374//760 696//744 
f 689//737 376//761 375//759 
f 696//744 374//760 373//762 
f 373//762 703//751 696//744 
f 704//752 703//751 371//763 
f 703//751 372//764 371//763 
f 704//752 370//765 369//766 
f 369//766 514//562 704//752 
f 521//569 367//767 366//768 
f 514//562 368//769 367//767 
f 367//767 521//569 514//562 
f 521//569 365//770 364//771 
f 364//771 528//576 521//569 
f 535//583 528//576 363//772 
f 363//772 362//773 535//583 
f 542//590 535//583 361//774 
f 542//590 360//775 359//776 
f 359//776 549//597 542//590 
f 549//597 358//777 357//778 
f 357//778 556//604 549//597 
f 355//779 563//611 556//604 
f 556//604 356//780 355//779 
f 570//618 563//611 341//781 
f 563//611 354//782 353//783 
f 353//783 341//781 563//611 
f 570//618 400//784 352//785 
f 352//785 577//625 570//618 
f 350//786 584//632 577//625 
f 577//625 351//787 350//786 
f 591//639 584//632 348//788 
f 591//639 349//789 347//790 
f 347//790 598//646 591//639 
f 345//791 605//653 598//646 
f 598//646 346//792 345//791 
f 605//653 344//793 343//794 
f 343//794 612//660 605//653 
f 612//660 342//795 399//796 
f 399//796 619//667 612//660 
f 399//796 398//797 619//667 
f 626//674 619//667 396//798 
f 619//667 397//799 396//798 
f 626//674 395//800 394//801 
f 394//801 633//681 626//674 
f 640//688 633//681 392//802 
f 633//681 393//803 392//802 
f 390//804 389//805 647//695 
f 640//688 391//806 390//804 
f 647//695 389//805 388//807 
f 388//807 654//702 647//695 
f 661//709 654//702 386//808 
f 654//702 387//809 386//808 
f 661//709 385//810 383//811 
f 661//709 384//812 385//810 
f 383//811 668//716 661//709 
f 648//696 443//813 444//814 
f 444//814 641//689 648//696 
f 641//689 445//815 446//816 
f 446//816 634//682 641//689 
f 634//682 447//817 448//818 
f 448//818 627//675 634//682 
f 627//675 449//819 450//820 
f 450//820 620//668 627//675 
f 620//668 451//821 452//822 
f 452//822 613//661 620//668 
f 613//661 453//823 454//824 
f 454//824 606//654 613//661 
f 599//647 606//654 455//825 
f 606//654 456//826 455//825 
f 592//640 599//647 457//827 
f 599//647 458//828 457//827 
f 585//633 592//640 459//829 
f 592//640 460//830 459//829 
f 578//626 585//633 461//831 
f 585//633 462//832 461//831 
f 571//619 578//626 463//833 
f 578//626 464//834 463//833 
f 564//612 571//619 465//835 
f 571//619 466//836 465//835 
f 557//605 564//612 467//837 
f 564//612 468//838 467//837 
f 550//598 557//605 469//839 
f 557//605 470//840 469//839 
f 543//591 550//598 471//841 
f 550//598 472//842 471//841 
f 536//584 543//591 473//843 
f 543//591 474//844 473//843 
f 529//577 536//584 475//845 
f 536//584 476//846 475//845 
f 522//570 529//577 477//847 
f 529//577 478//848 477//847 
f 515//563 522//570 479//849 
f 522//570 480//850 479//849 
f 502//550 515//563 481//851 
f 515//563 482//852 481//851 
f 503//551 502//550 483//853 
f 502//550 484//854 483//853 
f 697//745 503//551 485//855 
f 503//551 486//856 485//855 
f 697//745 487//857 488//858 
f 488//858 690//738 697//745 
f 690//738 489//859 490//860 
f 490//860 683//731 690//738 
f 683//731 491//861 492//862 
f 492//862 676//724 683//731 
f 676//724 493//863 494//864 
f 494//864 669//717 676//724 
f 669//717 495//865 496//866 
f 496//866 662//710 669//717 
f 662//710 497//867 498//868 
f 498//868 655//703 662//710 
f 648//696 655//703 499//869 
f 655//703 500//870 499//869 
f 499//869 501//871 648//696 
f 501//871 443//813 648//696 
f 498//868 500//870 655//703 
f 496//866 497//867 662//710 
f 494//864 495//865 669//717 
f 492//862 493//863 676//724 
f 490//860 491//861 683//731 
f 488//858 489//859 690//738 
f 485//855 487//857 697//745 
f 483//853 486//856 503//551 
f 481//851 484//854 502//550 
f 479//849 482//852 515//563 
f 477//847 480//850 522//570 
f 475//845 478//848 529//577 
f 473//843 476//846 536//584 
f 471//841 474//844 543//591 
f 469//839 472//842 550//598 
f 467//837 470//840 557//605 
f 465//835 468//838 564//612 
f 463//833 466//836 571//619 
f 461//831 464//834 578//626 
f 459//829 462//832 585//633 
f 457//827 460//830 592//640 
f 455//825 458//828 599//647 
f 454//824 456//826 606//654 
f 452//822 453//823 613//661 
f 450//820 451//821 620//668 
f 448//818 449//819 627//675 
f 446//816 447//817 634//682 
f 444//814 445//815 641//689 
f 383//811 382//755 668//716 
f 386//808 384//812 661//709 
f 388//807 387//809 654//702 
f 647//695 640//688 390//804 
f 392//802 391//806 640//688 
f 394//801 393//803 633//681 
f 396//798 395//800 626//674 
f 398//797 397//799 619//667 
f 343//794 342//795 612//660 
f 345//791 344//793 605//653 
f 347//790 346//792 598//646 
f 348//788 349//789 591//639 
f 350//786 348//788 584//632 
f 352//785 351//787 577//625 
f 341//781 400//784 570//618 
f 355//779 354//782 563//611 
f 357//778 356//780 556//604 
f 359//776 358//777 549//597 
f 361//774 360//775 542//590 
f 362//773 361//774 535//583 
f 364//771 363//772 528//576 
f 366//768 365//770 521//569 
f 369//766 368//769 514//562 
f 371//763 370//765 704//752 
f 373//762 372//764 703//751 
f 696//744 689//737 375//759 
f 377//757 376//761 689//737 
f 379//756 378//758 682//730 
f 675//723 668//716 381//753 
f 704//752 514//562 512//560 
f 702//750 512//560 510//558 
f 701//749 510//558 508//556 
f 700//748 508//556 506//554 
f 699//747 506//554 504//552 
f 698//746 504//552 503//551 
f 703//751 704//752 702//750 
f 695//743 702//750 701//749 
f 694//742 701//749 700//748 
f 693//741 700//748 699//747 
f 692//740 699//747 698//746 
f 691//739 698//746 697//745 
f 696//744 703//751 695//743 
f 688//736 695//743 694//742 
f 687//735 694//742 693//741 
f 686//734 693//741 692//740 
f 685//733 692//740 691//739 
f 684//732 691//739 690//738 
f 689//737 696//744 688//736 
f 681//729 688//736 687//735 
f 680//728 687//735 686//734 
f 679//727 686//734 685//733 
f 678//726 685//733 684//732 
f 677//725 684//732 683//731 
f 682//730 689//737 681//729 
f 674//722 681//729 680//728 
f 673//721 680//728 679//727 
f 672//720 679//727 678//726 
f 671//719 678//726 677//725 
f 670//718 677//725 676//724 
f 675//723 682//730 674//722 
f 667//715 674//722 673//721 
f 666//714 673//721 672//720 
f 665//713 672//720 671//719 
f 664//712 671//719 670//718 
f 663//711 670//718 669//717 
f 668//716 675//723 667//715 
f 660//708 667//715 666//714 
f 659//707 666//714 665//713 
f 658//706 665//713 664//712 
f 657//705 664//712 663//711 
f 656//704 663//711 662//710 
f 661//709 668//716 660//708 
f 653//701 660//708 659//707 
f 652//700 659//707 658//706 
f 651//699 658//706 657//705 
f 650//698 657//705 656//704 
f 649//697 656//704 655//703 
f 654//702 661//709 653//701 
f 646//694 653//701 652//700 
f 645//693 652//700 651//699 
f 644//692 651//699 650//698 
f 643//691 650//698 649//697 
f 642//690 649//697 648//696 
f 647//695 654//702 646//694 
f 639//687 646//694 645//693 
f 638//686 645//693 644//692 
f 637//685 644//692 643//691 
f 636//684 643//691 642//690 
f 635//683 642//690 641//689 
f 640//688 647//695 639//687 
f 632//680 639//687 638//686 
f 631//679 638//686 637//685 
f 630//678 637//685 636//684 
f 629//677 636//684 635//683 
f 628//676 635//683 634//682 
f 633//681 640//688 632//680 
f 625//673 632//680 631//679 
f 624//672 631//679 630//678 
f 623//671 630//678 629//677 
f 622//670 629//677 628//676 
f 621//669 628//676 627//675 
f 626//674 633//681 625//673 
f 618//666 625//673 624//672 
f 617//665 624//672 623//671 
f 616//664 623//671 622//670 
f 615//663 622//670 621//669 
f 614//662 621//669 620//668 
f 619//667 626//674 618//666 
f 611//659 618//666 617//665 
f 610//658 617//665 616//664 
f 609//657 616//664 615//663 
f 608//656 615//663 614//662 
f 607//655 614//662 613//661 
f 612//660 619//667 611//659 
f 604//652 611//659 610//658 
f 603//651 610//658 609//657 
f 602//650 609//657 608//656 
f 601//649 608//656 607//655 
f 600//648 607//655 606//654 
f 605//653 612//660 604//652 
f 597//645 604//652 603//651 
f 596//644 603//651 602//650 
f 595//643 602//650 601//649 
f 594//642 601//649 600//648 
f 593//641 600//648 599//647 
f 598//646 605//653 597//645 
f 590//638 597//645 596//644 
f 589//637 596//644 595//643 
f 588//636 595//643 594//642 
f 587//635 594//642 593//641 
f 586//634 593//641 592//640 
f 591//639 598//646 590//638 
f 583//631 590//638 589//637 
f 582//630 589//637 588//636 
f 581//629 588//636 587//635 
f 580//628 587//635 586//634 
f 579//627 586//634 585//633 
f 584//632 591//639 583//631 
f 576//624 583//631 582//630 
f 575//623 582//630 581//629 
f 574//622 581//629 580//628 
f 573//621 580//628 579//627 
f 572//620 579//627 578//626 
f 577//625 584//632 576//624 
f 569//617 576//624 575//623 
f 568//616 575//623 574//622 
f 567//615 574//622 573//621 
f 566//614 573//621 572//620 
f 565//613 572//620 571//619 
f 570//618 577//625 569//617 
f 562//610 569//617 568//616 
f 561//609 568//616 567//615 
f 560//608 567//615 566//614 
f 559//607 566//614 565//613 
f 558//606 565//613 564//612 
f 563//611 570//618 562//610 
f 555//603 562//610 561//609 
f 554//602 561//609 560//608 
f 553//601 560//608 559//607 
f 552//600 559//607 558//606 
f 551//599 558//606 557//605 
f 556//604 563//611 555//603 
f 548//596 555//603 554//602 
f 547//595 554//602 553//601 
f 546//594 553//601 552//600 
f 545//593 552//600 551//599 
f 544//592 551//599 550//598 
f 549//597 556//604 548//596 
f 541//589 548//596 547//595 
f 540//588 547//595 546//594 
f 539//587 546//594 545//593 
f 538//586 545//593 544//592 
f 537//585 544//592 543//591 
f 542//590 549//597 541//589 
f 534//582 541//589 540//588 
f 533//581 540//588 539//587 
f 532//580 539//587 538//586 
f 531//579 538//586 537//585 
f 530//578 537//585 536//584 
f 535//583 542//590 534//582 
f 527//575 534//582 533//581 
f 526//574 533//581 532//580 
f 525//573 532//580 531//579 
f 524//572 531//579 530//578 
f 523//571 530//578 529//577 
f 528//576 535//583 527//575 
f 520//568 527//575 526//574 
f 519//567 526//574 525//573 
f 518//566 525//573 524//572 
f 517//565 524//572 523//571 
f 516//564 523//571 522//570 
f 521//569 528//576 520//568 
f 513//561 520//568 519//567 
f 511//559 519//567 518//566 
f 509//557 518//566 517//565 
f 507//555 517//565 516//564 
f 505//553 516//564 515//563 
f 514//562 521//569 513//561 
f 512//560 513//561 511//559 
f 510//558 511//559 509//557 
f 508//556 509//557 507//555 
f 506//554 507//555 505//553 
f 504//552 505//553 502//550 
o mesh6
f 705//872 706//873 460//874 
f 706//873 459//875 460//874 
f 706//873 707//876 462//877 
f 707//876 461//878 462//877 
f 707//876 708//879 464//880 
f 708//879 463//881 464//880 
f 708//879 709//882 466//883 
f 709//882 465//884 466//883 
f 709//882 710//885 468//886 
f 710//885 467//887 468//886 
f 710//885 711//888 470//889 
f 711//888 469//890 470//889 
f 711//888 712//891 472//892 
f 712//891 471//893 472//892 
f 712//891 713//894 474//895 
f 713//894 473//896 474//895 
f 713//894 714//897 476//898 
f 714//897 475//899 476//898 
f 714//897 715//900 478//901 
f 715//900 477//902 478//901 
f 715//900 716//903 480//904 
f 716//903 479//905 480//904 
f 716//903 717//906 482//907 
f 717//906 481//908 482//907 
f 717//906 718//909 484//910 
f 718//909 483//911 484//910 
f 718//909 719//912 486//913 
f 719//912 485//914 486//913 
f 719//912 720//915 487//916 
f 720//915 488//917 487//916 
f 720//915 721//918 489//919 
f 721//918 490//920 489//919 
f 721//918 722//921 491//922 
f 722//921 492//923 491//922 
f 722//921 723//924 493//925 
f 723//924 494//926 493//925 
f 723//924 724//927 495//928 
f 724//927 496//929 495//928 
f 724//927 725//930 497//931 
f 725//930 498//932 497//931 
f 726//933 727//934 501//935 
f 725//930 726//933 500//936 
f 726//933 499//937 500//936 
f 500//936 498//932 725//930 
f 727//934 728//938 443//939 
f 728//938 444//940 443//939 
f 728//938 729//941 445//942 
f 729//941 446//943 445//942 
f 729//941 730//944 447//945 
f 730//944 448//946 447//945 
f 730//944 731//947 449//948 
f 731//947 450//949 449//948 
f 731//947 732//950 451//951 
f 732//950 452//952 451//951 
f 732//950 733//953 453//954 
f 733//953 454//955 453//954 
f 733//953 734//956 456//957 
f 734//956 455//958 456//957 
f 734//956 705//872 458//959 
f 705//872 457//960 458//959 
f 458//959 455//958 734//956 
f 456//957 454//955 733//953 
f 453//954 452//952 732//950 
f 451//951 450//949 731//947 
f 449//948 448//946 730//944 
f 447//945 446//943 729//941 
f 445//942 444//940 728//938 
f 443//939 501//935 727//934 
f 501//935 499//937 726//933 
f 497//931 496//929 724//927 
f 495//928 494//926 723//924 
f 493//925 492//923 722//921 
f 491//922 490//920 721//918 
f 489//919 488//917 720//915 
f 487//916 485//914 719//912 
f 486//913 483//911 718//909 
f 484//910 481//908 717//906 
f 482//907 479//905 716//903 
f 480//904 477//902 715//900 
f 478//901 475//899 714//897 
f 476//898 473//896 713//894 
f 474//895 471//893 712//891 
f 472//892 469//890 711//888 
f 470//889 467//887 710//885 
f 468//886 465//884 709//882 
f 466//883 463//881 708//879 
f 464//880 461//878 707//876 
f 462//877 459//875 706//873 
f 460//874 457//960 705//872 
o mesh7
f 735//961 725//961 724//961 
f 724//961 723//961 735//961 
f 723//961 722//961 735//961 
f 722//961 721//961 735//961 
f 721//961 720//961 735//961 
f 720//961 719//961 735//961 
f 719//961 718//961 735//961 
f 718//961 717//961 735//961 
f 717//961 716//961 735//961 
f 716//961 715//961 735//961 
f 715//961 714//961 735//961 
f 714//961 713//961 735//961 
f 713//961 712//961 735//961 
f 712//961 711//961 735//961 
f 711//961 710//961 735//961 
f 710//961 709//961 735//961 
f 709//961 708//961 735//961 
f 708//961 707//961 735//961 
f 707//961 706//961 735//961 
f 706//961 705//961 735//961 
f 705//961 734//961 735//961 
f 734//961 733//961 735//961 
f 733//961 732//961 735//961 
f 732//961 731//961 735//961 
f 731//961 730//961 735//961 
f 730//961 729//961 735//961 
f 729//961 728//961 735//961 
f 728//961 727//961 735//961 
f 727//961 726//961 735//961 
f 726//961 725//961 735//961 
