# OBJ generated by ONSHAPE BY PTC INC, 1.214 Units = meters
mtllib tacIL_gripper_v2_with_selectors - selector_dirichlet.mtl
g selector_dirichlet
v 0.008 0.0025 -0.0115 
v 0.008 0.0025 0.0115 
v 0.00853743 0.00244155 0.0115 
v 0.00853743 0.00244155 -0.0115 
v 0.00904972 0.00226894 0.0115 
v 0.00904972 0.00226894 -0.0115 
v 0.00951294 0.00199023 0.0115 
v 0.00951294 0.00199023 -0.0115 
v 0.00990541 0.00161847 0.0115 
v 0.00990541 0.00161847 -0.0115 
v 0.0102088 0.00117102 0.0115 
v 0.0102088 0.00117102 -0.0115 
v 0.0104089 0.000668821 0.0115 
v 0.0104089 0.000668821 -0.0115 
v 0.0104963 0.000135347 0.0115 
v 0.0104963 0.000135347 -0.0115 
v 0.0104671 -0.000404455 0.0115 
v 0.0104671 -0.000404455 -0.0115 
v 0.0103224 -0.000925345 0.0115 
v 0.0103224 -0.000925345 -0.0115 
v 0.0100692 -0.00140297 0.0115 
v 0.0100692 -0.00140297 -0.0115 
v 0.00971925 -0.00181499 0.0115 
v 0.00971925 -0.00181499 -0.0115 
v 0.00928888 -0.00214214 0.0115 
v 0.00928888 -0.00214214 -0.0115 
v 0.00879825 -0.00236913 0.0115 
v 0.00879825 -0.00236913 -0.0115 
v 0.0082703 -0.00248534 0.0115 
v 0.0077297 -0.00248534 0.0115 
v 0.008 -0.0025 -0.0115 
v 0.0077297 -0.00248534 -0.0115 
v 0.00720175 -0.00236913 0.0115 
v 0.00720175 -0.00236913 -0.0115 
v 0.00671112 -0.00214214 0.0115 
v 0.00671112 -0.00214214 -0.0115 
v 0.00628075 -0.00181499 0.0115 
v 0.00628075 -0.00181499 -0.0115 
v 0.00593078 -0.00140297 0.0115 
v 0.00593078 -0.00140297 -0.0115 
v 0.00567756 -0.000925345 0.0115 
v 0.00567756 -0.000925345 -0.0115 
v 0.00553293 -0.000404455 0.0115 
v 0.00553293 -0.000404455 -0.0115 
v 0.00550367 0.000135347 0.0115 
v 0.00550367 0.000135347 -0.0115 
v 0.00559113 0.000668821 0.0115 
v 0.00559113 0.000668821 -0.0115 
v 0.00579122 0.00117102 0.0115 
v 0.00579122 0.00117102 -0.0115 
v 0.00609459 0.00161847 0.0115 
v 0.00609459 0.00161847 -0.0115 
v 0.00648706 0.00199023 0.0115 
v 0.00648706 0.00199023 -0.0115 
v 0.00695028 0.00226894 0.0115 
v 0.00695028 0.00226894 -0.0115 
v 0.00746257 0.00244155 0.0115 
v 0.00746257 0.00244155 -0.0115 
v 0.0082703 -0.00248534 -0.0115 
v 0.0216789 -0.000924796 0.0115 
v -0.0005 -0.005 0.0115 
v 0.0215926 0.000668424 0.0115 
v 0.0215051 0.000135267 0.0115 
v 0.022488 0.00198905 0.0115 
v 0.0220957 0.00161751 0.0115 
v 0.0385 0.0075 0.0115 
v 0.0385 -0.005 0.0115 
v 0.0264949 0.000135267 0.0115 
v -0.0005 0.0075 0.0115 
v 0.0217925 0.00117033 0.0115 
v 0.0264656 -0.000404215 0.0115 
v 0.0237299 -0.00248387 0.0115 
v 0.0234629 0.0024401 0.0115 
v 0.0229509 0.00226759 0.0115 
v 0.024 0.00249852 0.0115 
v 0.0250491 0.00226759 0.0115 
v 0.0245371 0.0024401 0.0115 
v 0.0264074 0.000668424 0.0115 
v 0.0242701 -0.00248387 0.0115 
v 0.0247978 -0.00236773 0.0115 
v 0.0232022 -0.00236773 0.0115 
v 0.0222818 -0.00181391 0.0115 
v 0.0227119 -0.00214087 0.0115 
v 0.021932 -0.00140214 0.0115 
v 0.0259043 0.00161751 0.0115 
v 0.025512 0.00198905 0.0115 
v 0.0262075 0.00117033 0.0115 
v 0.0257182 -0.00181391 0.0115 
v 0.026068 -0.00140214 0.0115 
v 0.0252881 -0.00214087 0.0115 
v 0.0215344 -0.000404215 0.0115 
v 0.0263211 -0.000924796 0.0115 
v -0.0005 0.0075 -0.0115 
v 0.0385 0.0075 -0.0115 
v 0.024 0.00249852 -0.0115 
v 0.0245371 0.0024401 -0.0115 
v 0.0250491 0.00226759 -0.0115 
v 0.025512 0.00198905 -0.0115 
v 0.0259043 0.00161751 -0.0115 
v 0.0262075 0.00117033 -0.0115 
v 0.0264074 0.000668424 -0.0115 
v 0.0264949 0.000135267 -0.0115 
v 0.0264656 -0.000404215 -0.0115 
v 0.0263211 -0.000924796 -0.0115 
v 0.026068 -0.00140214 -0.0115 
v 0.0257182 -0.00181391 -0.0115 
v 0.0252881 -0.00214087 -0.0115 
v 0.0247978 -0.00236773 -0.0115 
v 0.024 -0.00249852 -0.0115 
v 0.0237299 -0.00248387 -0.0115 
v 0.0232022 -0.00236773 -0.0115 
v 0.0227119 -0.00214087 -0.0115 
v 0.0222818 -0.00181391 -0.0115 
v 0.021932 -0.00140214 -0.0115 
v 0.0216789 -0.000924796 -0.0115 
v 0.0215344 -0.000404215 -0.0115 
v 0.0215051 0.000135267 -0.0115 
v 0.0215926 0.000668424 -0.0115 
v 0.0217925 0.00117033 -0.0115 
v 0.0220957 0.00161751 -0.0115 
v 0.022488 0.00198905 -0.0115 
v 0.0229509 0.00226759 -0.0115 
v 0.0234629 0.0024401 -0.0115 
v 0.0242701 -0.00248387 -0.0115 
v -0.0005 -0.005 -0.0115 
v 0.0385 -0.005 -0.0115 
v 0.0385 -0.005 0.0125 
v -0.0005 -0.005 0.0125 
v 0.0385 0.0085 0.0125 
v -0.0005 0.0085 0.0125 
v 0.0385 0.0085 -0.0125 
v 0.0385 -0.005 -0.0125 
v -0.0005 0.0085 -0.0125 
v -0.0005 -0.005 -0.0125 
vn 0 1 0 
vn 0.21497 0.976621 0 
vn 0.419889 0.907575 0 
vn 0.605174 0.796093 0 
vn 0.762162 0.647386 0 
vn 0.883512 0.468408 0 
vn 0.96355 0.267528 0 
vn 0.998533 0.0541389 0 
vn 0.986827 -0.161782 0 
vn 0.928977 -0.370138 0 
vn 0.827689 -0.561187 0 
vn 0.687699 -0.725995 0 
vn 0.515554 -0.856857 0 
vn 0.319302 -0.947653 0 
vn 0.108119 -0.994138 0 
vn -0.108119 -0.994138 0 
vn 0 -1 0 
vn -0.319302 -0.947653 0 
vn -0.515554 -0.856857 0 
vn -0.687699 -0.725995 0 
vn -0.827689 -0.561187 0 
vn -0.928977 -0.370138 0 
vn -0.986827 -0.161782 0 
vn -0.998533 0.0541389 0 
vn -0.96355 0.267528 0 
vn -0.883512 0.468408 0 
vn -0.762162 0.647386 0 
vn -0.605174 0.796093 0 
vn -0.419889 0.907575 0 
vn -0.21497 0.976621 0 
vn 0.108119 -0.994138 0 
vn 0 0 -1 
vn 0 -1 0 
vn 0 1 0 
vn 0.21497 0.976621 0 
vn 0.419889 0.907575 0 
vn 0.605174 0.796093 0 
vn 0.762162 0.647386 0 
vn 0.883512 0.468408 0 
vn 0.96355 0.267528 0 
vn 0.998533 0.0541389 0 
vn 0.986827 -0.161782 0 
vn 0.928977 -0.370138 0 
vn 0.827689 -0.561187 0 
vn 0.687699 -0.725995 0 
vn 0.515554 -0.856857 0 
vn 0.319302 -0.947653 0 
vn 0.108119 -0.994138 0 
vn -0.108119 -0.994138 0 
vn 0 -1 0 
vn -0.319302 -0.947653 0 
vn -0.515554 -0.856857 0 
vn -0.687699 -0.725995 0 
vn -0.827689 -0.561187 0 
vn -0.928977 -0.370138 0 
vn -0.986827 -0.161782 0 
vn -0.998533 0.0541389 0 
vn -0.96355 0.267528 0 
vn -0.883512 0.468408 0 
vn -0.762162 0.647386 0 
vn -0.605174 0.796093 0 
vn -0.419889 0.907575 0 
vn -0.21497 0.976621 0 
vn 0.108119 -0.994138 0 
vn 0 0 1 
vn 2.224e-17 -1 0 
vn 1 0 0 
vn -1 0 0 
vn 0 0 -1 
vn 0 1 0 
vn 2.224e-17 -1 0 
usemtl 0.764706_0.545098_0.803922_0.000000_0.000000
o mesh0
f 1//1 2//1 3//2 
f 4//2 3//2 5//3 
f 6//3 5//3 7//4 
f 8//4 7//4 9//5 
f 10//5 9//5 11//6 
f 12//6 11//6 13//7 
f 14//7 13//7 15//8 
f 16//8 15//8 17//9 
f 18//9 17//9 19//10 
f 20//10 19//10 21//11 
f 22//11 21//11 23//12 
f 24//12 23//12 25//13 
f 26//13 25//13 27//14 
f 28//14 27//14 29//15 
f 29//15 30//16 31//17 
f 30//16 32//16 31//17 
f 32//16 30//16 33//18 
f 34//18 33//18 35//19 
f 36//19 35//19 37//20 
f 38//20 37//20 39//21 
f 40//21 39//21 41//22 
f 42//22 41//22 43//23 
f 44//23 43//23 45//24 
f 46//24 45//24 47//25 
f 48//25 47//25 49//26 
f 50//26 49//26 51//27 
f 52//27 51//27 53//28 
f 54//28 53//28 55//29 
f 56//29 55//29 57//30 
f 58//30 57//30 2//1 
f 2//1 1//1 58//30 
f 57//30 58//30 56//29 
f 55//29 56//29 54//28 
f 53//28 54//28 52//27 
f 51//27 52//27 50//26 
f 49//26 50//26 48//25 
f 47//25 48//25 46//24 
f 45//24 46//24 44//23 
f 43//23 44//23 42//22 
f 41//22 42//22 40//21 
f 39//21 40//21 38//20 
f 37//20 38//20 36//19 
f 35//19 36//19 34//18 
f 33//18 34//18 32//16 
f 31//17 59//31 29//15 
f 29//15 59//31 28//14 
f 27//14 28//14 26//13 
f 25//13 26//13 24//12 
f 23//12 24//12 22//11 
f 21//11 22//11 20//10 
f 19//10 20//10 18//9 
f 17//9 18//9 16//8 
f 15//8 16//8 14//7 
f 13//7 14//7 12//6 
f 11//6 12//6 10//5 
f 9//5 10//5 8//4 
f 7//4 8//4 6//3 
f 5//3 6//3 4//2 
f 3//2 4//2 1//1 
o mesh1
f 60//32 61//32 29//32 
f 62//32 63//32 13//32 
f 9//32 64//32 65//32 
f 66//32 67//32 68//32 
f 61//32 30//32 29//32 
f 69//32 47//32 45//32 
f 13//32 11//32 62//32 
f 65//32 70//32 9//32 
f 67//32 71//32 68//32 
f 67//32 61//32 72//32 
f 61//32 33//32 30//32 
f 61//32 37//32 35//32 
f 69//32 49//32 47//32 
f 69//32 53//32 51//32 
f 69//32 66//32 3//32 
f 66//32 9//32 7//32 
f 70//32 62//32 9//32 
f 9//32 73//32 74//32 
f 66//32 75//32 73//32 
f 66//32 76//32 77//32 
f 68//32 78//32 66//32 
f 67//32 79//32 80//32 
f 61//32 81//32 72//32 
f 61//32 82//32 83//32 
f 61//32 60//32 84//32 
f 35//32 33//32 61//32 
f 51//32 49//32 69//32 
f 69//32 57//32 55//32 
f 3//32 2//32 69//32 
f 7//32 5//32 66//32 
f 74//32 64//32 9//32 
f 77//32 75//32 66//32 
f 66//32 85//32 86//32 
f 78//32 87//32 66//32 
f 67//32 88//32 89//32 
f 80//32 90//32 67//32 
f 83//32 81//32 61//32 
f 29//32 91//32 60//32 
f 61//32 41//32 39//32 
f 55//32 53//32 69//32 
f 5//32 3//32 66//32 
f 73//32 9//32 66//32 
f 87//32 85//32 66//32 
f 89//32 92//32 67//32 
f 72//32 79//32 67//32 
f 39//32 37//32 61//32 
f 61//32 45//32 43//32 
f 17//32 15//32 63//32 
f 91//32 23//32 21//32 
f 2//32 57//32 69//32 
f 86//32 76//32 66//32 
f 90//32 88//32 67//32 
f 43//32 41//32 61//32 
f 91//32 19//32 17//32 
f 91//32 25//32 23//32 
f 91//32 29//32 27//32 
f 11//32 9//32 62//32 
f 84//32 82//32 61//32 
f 63//32 91//32 17//32 
f 27//32 25//32 91//32 
f 92//32 71//32 67//32 
f 21//32 19//32 91//32 
f 15//32 13//32 63//32 
f 45//32 61//32 69//32 
o mesh2
f 69//33 93//33 94//33 
f 94//33 66//33 69//33 
o mesh3
f 95//34 75//34 77//35 
f 96//35 77//35 76//36 
f 97//36 76//36 86//37 
f 98//37 86//37 85//38 
f 99//38 85//38 87//39 
f 100//39 87//39 78//40 
f 101//40 78//40 68//41 
f 102//41 68//41 71//42 
f 103//42 71//42 92//43 
f 104//43 92//43 89//44 
f 105//44 89//44 88//45 
f 106//45 88//45 90//46 
f 107//46 90//46 80//47 
f 108//47 80//47 79//48 
f 79//48 72//49 109//50 
f 72//49 110//49 109//50 
f 110//49 72//49 81//51 
f 111//51 81//51 83//52 
f 112//52 83//52 82//53 
f 113//53 82//53 84//54 
f 114//54 84//54 60//55 
f 115//55 60//55 91//56 
f 116//56 91//56 63//57 
f 117//57 63//57 62//58 
f 118//58 62//58 70//59 
f 119//59 70//59 65//60 
f 120//60 65//60 64//61 
f 121//61 64//61 74//62 
f 122//62 74//62 73//63 
f 123//63 73//63 75//34 
f 75//34 95//34 123//63 
f 73//63 123//63 122//62 
f 74//62 122//62 121//61 
f 64//61 121//61 120//60 
f 65//60 120//60 119//59 
f 70//59 119//59 118//58 
f 62//58 118//58 117//57 
f 63//57 117//57 116//56 
f 91//56 116//56 115//55 
f 60//55 115//55 114//54 
f 84//54 114//54 113//53 
f 82//53 113//53 112//52 
f 83//52 112//52 111//51 
f 81//51 111//51 110//49 
f 109//50 124//64 79//48 
f 79//48 124//64 108//47 
f 80//47 108//47 107//46 
f 90//46 107//46 106//45 
f 88//45 106//45 105//44 
f 89//44 105//44 104//43 
f 92//43 104//43 103//42 
f 71//42 103//42 102//41 
f 68//41 102//41 101//40 
f 78//40 101//40 100//39 
f 87//39 100//39 99//38 
f 85//38 99//38 98//37 
f 86//37 98//37 97//36 
f 76//36 97//36 96//35 
f 77//35 96//35 95//34 
o mesh4
f 115//65 116//65 59//65 
f 93//65 125//65 46//65 
f 59//65 125//65 115//65 
f 94//65 6//65 8//65 
f 93//65 1//65 4//65 
f 46//65 48//65 93//65 
f 59//65 31//65 125//65 
f 126//65 124//65 109//65 
f 94//65 4//65 6//65 
f 93//65 58//65 1//65 
f 93//65 50//65 52//65 
f 125//65 44//65 46//65 
f 125//65 34//65 36//65 
f 31//65 32//65 125//65 
f 109//65 125//65 126//65 
f 94//65 101//65 102//65 
f 14//65 122//65 123//65 
f 14//65 119//65 120//65 
f 14//65 16//65 118//65 
f 4//65 94//65 93//65 
f 93//65 54//65 56//65 
f 48//65 50//65 93//65 
f 125//65 38//65 40//65 
f 32//65 34//65 125//65 
f 109//65 110//65 125//65 
f 94//65 100//65 101//65 
f 94//65 95//65 96//65 
f 14//65 121//65 122//65 
f 118//65 119//65 14//65 
f 56//65 58//65 93//65 
f 125//65 42//65 44//65 
f 36//65 38//65 125//65 
f 125//65 113//65 114//65 
f 126//65 108//65 124//65 
f 94//65 99//65 100//65 
f 94//65 97//65 98//65 
f 94//65 123//65 95//65 
f 120//65 121//65 14//65 
f 52//65 54//65 93//65 
f 114//65 115//65 125//65 
f 125//65 111//65 112//65 
f 126//65 107//65 108//65 
f 98//65 99//65 94//65 
f 123//65 94//65 14//65 
f 94//65 10//65 12//65 
f 40//65 42//65 125//65 
f 110//65 111//65 125//65 
f 126//65 104//65 105//65 
f 116//65 24//65 26//65 
f 116//65 20//65 22//65 
f 18//65 116//65 117//65 
f 96//65 97//65 94//65 
f 8//65 10//65 94//65 
f 126//65 106//65 107//65 
f 126//65 103//65 104//65 
f 22//65 24//65 116//65 
f 117//65 16//65 18//65 
f 12//65 14//65 94//65 
f 105//65 106//65 126//65 
f 26//65 28//65 116//65 
f 117//65 118//65 16//65 
f 112//65 113//65 125//65 
f 18//65 20//65 116//65 
f 126//65 102//65 103//65 
f 102//65 126//65 94//65 
f 28//65 59//65 116//65 
o mesh5
f 127//66 128//66 61//66 
f 61//66 67//66 127//66 
o mesh6
f 129//65 130//65 128//65 
f 128//65 127//65 129//65 
o mesh7
f 131//67 129//67 66//67 
f 127//67 67//67 66//67 
f 132//67 131//67 94//67 
f 66//67 129//67 127//67 
f 66//67 94//67 131//67 
f 94//67 126//67 132//67 
o mesh8
f 128//68 130//68 69//68 
f 130//68 133//68 93//68 
f 93//68 69//68 130//68 
f 134//68 125//68 93//68 
f 93//68 133//68 134//68 
f 69//68 61//68 128//68 
o mesh9
f 133//69 131//69 132//69 
f 132//69 134//69 133//69 
o mesh10
f 130//70 129//70 131//70 
f 131//70 133//70 130//70 
o mesh11
f 126//71 125//71 134//71 
f 134//71 132//71 126//71 
