# OBJ generated by ONSHAPE BY PTC INC, 1.214 Units = meters
mtllib tacIL_gripper_v2_with_selectors - selector_A2.mtl
g selector_A2
v 0.0268124 -0.0188237 -0.013 
v 0.0268992 -0.0185111 -0.013 
v 0.0270511 -0.0182246 -0.013 
v 0.0272611 -0.0179774 -0.013 
v 0.0275193 -0.0177811 -0.013 
v 0.0278137 -0.0176449 -0.013 
v 0.0281305 -0.0175751 -0.013 
v 0.0284548 -0.0175751 -0.013 
v 0.0287716 -0.0176449 -0.013 
v 0.029066 -0.0177811 -0.013 
v 0.0293242 -0.0179774 -0.013 
v 0.0295342 -0.0182246 -0.013 
v 0.0296861 -0.0185111 -0.013 
v 0.0297729 -0.0188237 -0.013 
v 0.0297905 -0.0191476 -0.013 
v 0.029738 -0.0194676 -0.013 
v 0.0296179 -0.019769 -0.013 
v 0.0294359 -0.0200374 -0.013 
v 0.0292004 -0.0202605 -0.013 
v 0.0289225 -0.0204277 -0.013 
v 0.0286151 -0.0205313 -0.013 
v 0.0282927 -0.0205663 -0.013 
v 0.0279702 -0.0205313 -0.013 
v 0.0276628 -0.0204277 -0.013 
v 0.0273849 -0.0202605 -0.013 
v 0.0271494 -0.0200374 -0.013 
v 0.0269674 -0.019769 -0.013 
v 0.0268473 -0.0194676 -0.013 
v 0.0267949 -0.0191476 -0.013 
v 0.0267956 -0.0189722 -0.013 
v 0.0282927 -0.0190663 -0.013 
v 0.0286142 -0.0205255 -0.0115 
v 0.0283609 -0.0205648 -0.0115 
v 0.0289204 -0.0204223 -0.0115 
v 0.0286814 -0.0205151 -0.0115 
v 0.0291972 -0.0202556 -0.0115 
v 0.0289838 -0.0203977 -0.0115 
v 0.0294317 -0.0200334 -0.0115 
v 0.0292538 -0.020218 -0.0115 
v 0.029613 -0.0197659 -0.0115 
v 0.0294789 -0.0199844 -0.0115 
v 0.0297325 -0.0194657 -0.0115 
v 0.0296485 -0.019708 -0.0115 
v 0.0297847 -0.0191469 -0.0115 
v 0.0297547 -0.0194015 -0.0115 
v 0.0297671 -0.0188243 -0.0115 
v 0.0297926 -0.0190793 -0.0115 
v 0.0296806 -0.018513 -0.0115 
v 0.0297603 -0.0187566 -0.0115 
v 0.0295292 -0.0182275 -0.0115 
v 0.0296594 -0.0184483 -0.0115 
v 0.0293199 -0.0179813 -0.0115 
v 0.0294946 -0.018169 -0.0115 
v 0.0290627 -0.0177859 -0.0115 
v 0.0292736 -0.0179316 -0.0115 
v 0.0287694 -0.0176503 -0.0115 
v 0.0290067 -0.0177472 -0.0115 
v 0.0284538 -0.0175809 -0.0115 
v 0.0287065 -0.0176246 -0.0115 
v 0.0281307 -0.017581 -0.0115 
v 0.0283868 -0.0175693 -0.0115 
v 0.0278152 -0.0176505 -0.0115 
v 0.0280628 -0.0175841 -0.0115 
v 0.027522 -0.0177862 -0.0115 
v 0.0277495 -0.0176681 -0.0115 
v 0.0272648 -0.0179818 -0.0115 
v 0.0274617 -0.0178176 -0.0115 
v 0.0270557 -0.0182281 -0.0115 
v 0.0272126 -0.0180254 -0.0115 
v 0.0269045 -0.0185136 -0.0115 
v 0.0270141 -0.0182819 -0.0115 
v 0.0268181 -0.018825 -0.0115 
v 0.0268754 -0.0185751 -0.0115 
v 0.0267988 -0.0191475 -0.0115 
v 0.0267956 -0.0189722 -0.0115 
v 0.0268029 -0.0188913 -0.0115 
v 0.026853 -0.0194664 -0.0115 
v 0.0268001 -0.0192156 -0.0115 
v 0.0269727 -0.0197666 -0.0115 
v 0.0268671 -0.019533 -0.0115 
v 0.0271541 -0.0200339 -0.0115 
v 0.0270007 -0.0198285 -0.0115 
v 0.0273887 -0.0202561 -0.0115 
v 0.0271948 -0.0200884 -0.0115 
v 0.0276656 -0.0204226 -0.0115 
v 0.0274401 -0.0203005 -0.0115 
v 0.0279718 -0.0205257 -0.0115 
v 0.0277254 -0.020455 -0.0115 
v 0.028293 -0.0205605 -0.0115 
v 0.0280372 -0.0205444 -0.0115 
v 0.0285614 -0.0160773 -0.00999125 
v 0.028481 -0.0160723 -0.01 
v 0.0288794 -0.0160973 -0.00993908 
v 0.0288028 -0.0160925 -0.00996493 
v 0.0291789 -0.0161162 -0.00981962 
v 0.0291096 -0.0161118 -0.00986136 
v 0.0294457 -0.016133 -0.00963846 
v 0.029387 -0.0161293 -0.00969414 
v 0.0296674 -0.0161469 -0.00940406 
v 0.029622 -0.0161441 -0.00947108 
v 0.0298336 -0.0161574 -0.00912739 
v 0.0298037 -0.0161555 -0.00920261 
v 0.0299366 -0.0161638 -0.00882139 
v 0.0299235 -0.016163 -0.00890129 
v 0.0299715 -0.016166 -0.00850036 
v 0.0299759 -0.0161663 -0.00858121 
v 0.0299367 -0.0161639 -0.00817931 
v 0.0299583 -0.0161652 -0.00825733 
v 0.0298339 -0.0161574 -0.00787325 
v 0.0298717 -0.0161598 -0.00794479 
v 0.0296678 -0.0161469 -0.00759651 
v 0.0297201 -0.0161502 -0.00765822 
v 0.0294462 -0.016133 -0.00736201 
v 0.0295105 -0.016137 -0.00741101 
v 0.0291795 -0.0161162 -0.00718072 
v 0.0292528 -0.0161208 -0.00721471 
v 0.0288801 -0.0160974 -0.00706111 
v 0.028959 -0.0161023 -0.00707852 
v 0.0285621 -0.0160774 -0.00700879 
v 0.0286429 -0.0160825 -0.00700879 
v 0.0282402 -0.0160571 -0.0070262 
v 0.0283192 -0.0160621 -0.00700879 
v 0.0279297 -0.0160376 -0.00711252 
v 0.028003 -0.0160422 -0.00707852 
v 0.0276449 -0.0160197 -0.00726372 
v 0.0274515 -0.0160075 -0.00741101 
v 0.0277092 -0.0160237 -0.00721471 
v 0.0273992 -0.0160042 -0.00747272 
v 0.0272419 -0.0159943 -0.00765822 
v 0.0272041 -0.0159919 -0.00772976 
v 0.0270903 -0.0159848 -0.00794479 
v 0.0270687 -0.0159834 -0.00802281 
v 0.0270037 -0.0159793 -0.00825733 
v 0.0269971 -0.0159789 -0.00833818 
v 0.026984 -0.0159781 -0.0085 
v 0.0269993 -0.015979 -0.00866111 
v 0.0270386 -0.0159815 -0.00890129 
v 0.0269862 -0.0159782 -0.00858121 
v 0.0270685 -0.0159834 -0.00897651 
v 0.0271584 -0.0159891 -0.00920261 
v 0.0272037 -0.0159919 -0.00926963 
v 0.0273987 -0.0160042 -0.00952676 
v 0.02734 -0.0160005 -0.00947108 
v 0.0276443 -0.0160196 -0.00973588 
v 0.0275751 -0.0160153 -0.00969414 
v 0.027929 -0.0160375 -0.00988722 
v 0.0278524 -0.0160327 -0.00986136 
v 0.0282395 -0.0160571 -0.00997369 
v 0.0281592 -0.016052 -0.00996493 
v 0.0287083 -0.0175951 -0.0112005 
v 0.0283887 -0.0175405 -0.0112074 
v 0.028394 -0.0174554 -0.010926 
v 0.0287138 -0.0175079 -0.0109126 
v 0.0284027 -0.017317 -0.0106666 
v 0.0287227 -0.0173664 -0.0106472 
v 0.0284144 -0.0171308 -0.0104393 
v 0.0287347 -0.0171758 -0.0104145 
v 0.0284287 -0.016904 -0.0102528 
v 0.0287493 -0.0169437 -0.0102236 
v 0.028445 -0.0166452 -0.0101142 
v 0.028766 -0.0166788 -0.0100818 
v 0.0284626 -0.0163643 -0.0100288 
v 0.028784 -0.0163914 -0.00999443 
v 0.0290087 -0.0177158 -0.0111803 
v 0.0290146 -0.0176227 -0.0108729 
v 0.0290241 -0.0174716 -0.0105896 
v 0.0290369 -0.0172682 -0.0103413 
v 0.0290525 -0.0170204 -0.0101375 
v 0.0290702 -0.0167377 -0.0099861 
v 0.0290895 -0.0164309 -0.00989285 
v 0.0292758 -0.0178969 -0.0111477 
v 0.0292822 -0.0177944 -0.0108089 
v 0.0292927 -0.0176278 -0.0104967 
v 0.0293068 -0.0174037 -0.0102231 
v 0.029324 -0.0171306 -0.00999848 
v 0.0293436 -0.016819 -0.0098316 
v 0.0293649 -0.0164809 -0.00972884 
v 0.0294971 -0.0181301 -0.0111042 
v 0.0295043 -0.0180148 -0.0107236 
v 0.0295161 -0.0178277 -0.0103728 
v 0.0295319 -0.0175759 -0.0100653 
v 0.0295512 -0.017269 -0.00981301 
v 0.0295733 -0.016919 -0.00962552 
v 0.0295972 -0.0165391 -0.00951006 
v 0.0296622 -0.0184043 -0.0110518 
v 0.0296704 -0.0182738 -0.0106208 
v 0.0296837 -0.0180619 -0.0102236 
v 0.0297017 -0.0177768 -0.0098755 
v 0.0297235 -0.0174293 -0.00958979 
v 0.0297485 -0.0170329 -0.00937749 
v 0.0297755 -0.0166028 -0.00924676 
v 0.0297635 -0.0187068 -0.010993 
v 0.0297727 -0.0185592 -0.0105055 
v 0.0297878 -0.0183195 -0.0100562 
v 0.0298081 -0.017997 -0.00966244 
v 0.0298328 -0.0176039 -0.00933925 
v 0.0298611 -0.0171555 -0.00909911 
v 0.0298917 -0.016669 -0.00895123 
v 0.0297961 -0.0190234 -0.0109306 
v 0.0298066 -0.0188576 -0.010383 
v 0.0298235 -0.0185884 -0.00987841 
v 0.0298463 -0.0182261 -0.0094361 
v 0.0298741 -0.0177847 -0.00907311 
v 0.0299057 -0.0172811 -0.00880339 
v 0.0299401 -0.0167346 -0.00863729 
v 0.0297587 -0.0193393 -0.0108674 
v 0.0297702 -0.0191551 -0.0102591 
v 0.0297891 -0.0188561 -0.00969847 
v 0.0298144 -0.0184536 -0.00920708 
v 0.0298452 -0.0179632 -0.00880382 
v 0.0298804 -0.0174037 -0.00850416 
v 0.0299186 -0.0167966 -0.00831963 
v 0.0296528 -0.0196398 -0.0108064 
v 0.0296655 -0.0194379 -0.0101395 
v 0.0296861 -0.01911 -0.00952483 
v 0.0297139 -0.0186687 -0.00898609 
v 0.0297477 -0.018131 -0.00854395 
v 0.0297863 -0.0175176 -0.00821542 
v 0.0298282 -0.016852 -0.00801311 
v 0.0294835 -0.0199107 -0.0107505 
v 0.0294972 -0.0196926 -0.0100298 
v 0.0295195 -0.0193382 -0.00936562 
v 0.0295495 -0.0188614 -0.00878345 
v 0.0295861 -0.0182804 -0.00830568 
v 0.0296278 -0.0176175 -0.00795066 
v 0.029673 -0.0168982 -0.00773204 
v 0.0292587 -0.0201395 -0.0107023 
v 0.0292733 -0.0199073 -0.00993521 
v 0.0292971 -0.0195302 -0.00922828 
v 0.029329 -0.0190227 -0.00860865 
v 0.0293679 -0.0184043 -0.00810013 
v 0.0294123 -0.0176987 -0.00772226 
v 0.0294604 -0.0169332 -0.00748958 
v 0.0289889 -0.0203155 -0.010664 
v 0.0290042 -0.0200721 -0.00986009 
v 0.0290291 -0.0196769 -0.00911922 
v 0.0290626 -0.019145 -0.00846985 
v 0.0291033 -0.0184969 -0.00793692 
v 0.0291499 -0.0177575 -0.00754091 
v 0.0292003 -0.0169552 -0.00729705 
v 0.0286867 -0.0204303 -0.0106374 
v 0.0287025 -0.0201792 -0.00980797 
v 0.0287282 -0.0197714 -0.00904356 
v 0.0287627 -0.0192226 -0.00837354 
v 0.0288048 -0.0185539 -0.00782367 
v 0.0288528 -0.017791 -0.00741509 
v 0.0289049 -0.0169632 -0.00716348 
v 0.0283663 -0.0204787 -0.0106238 
v 0.0283823 -0.0202236 -0.00978129 
v 0.0284084 -0.0198094 -0.00900482 
v 0.0284435 -0.0192519 -0.00832424 
v 0.0284862 -0.0185727 -0.0077657 
v 0.028535 -0.0177978 -0.00735067 
v 0.0285879 -0.0169569 -0.00709509 
v 0.0280426 -0.0204583 -0.0106238 
v 0.0280586 -0.0202032 -0.00978129 
v 0.0280847 -0.019789 -0.00900482 
v 0.0281198 -0.0192316 -0.00832424 
v 0.0281625 -0.0185523 -0.0077657 
v 0.0282112 -0.0177774 -0.00735067 
v 0.0282642 -0.0169365 -0.00709509 
v 0.0277307 -0.0203702 -0.0106374 
v 0.0277465 -0.020119 -0.00980797 
v 0.0277722 -0.0197113 -0.00904356 
v 0.0278067 -0.0191625 -0.00837354 
v 0.0278488 -0.0184938 -0.00782367 
v 0.0278968 -0.0177309 -0.00741509 
v 0.0279489 -0.0169031 -0.00716348 
v 0.0274453 -0.0202184 -0.010664 
v 0.0274606 -0.019975 -0.00986009 
v 0.0274855 -0.0195798 -0.00911922 
v 0.027519 -0.0190479 -0.00846985 
v 0.0275597 -0.0183998 -0.00793692 
v 0.0276063 -0.0176604 -0.00754091 
v 0.0276567 -0.0168581 -0.00729705 
v 0.0271997 -0.02001 -0.0107023 
v 0.0272143 -0.0197778 -0.00993521 
v 0.027238 -0.0194007 -0.00922828 
v 0.02727 -0.0188931 -0.00860865 
v 0.0273089 -0.0182747 -0.00810013 
v 0.0273533 -0.0175692 -0.00772226 
v 0.0274014 -0.0168036 -0.00748958 
v 0.0270054 -0.0197548 -0.0107505 
v 0.0270191 -0.0195367 -0.0100298 
v 0.0270414 -0.0191823 -0.00936562 
v 0.0270714 -0.0187055 -0.00878345 
v 0.0271079 -0.0181245 -0.00830568 
v 0.0271496 -0.0174616 -0.00795066 
v 0.0271949 -0.0167423 -0.00773204 
v 0.0268714 -0.0194648 -0.0108064 
v 0.0268841 -0.0192629 -0.0101395 
v 0.0269047 -0.018935 -0.00952483 
v 0.0269325 -0.0184937 -0.00898609 
v 0.0269663 -0.017956 -0.00854395 
v 0.0270049 -0.0173426 -0.00821542 
v 0.0270468 -0.016677 -0.00801311 
v 0.026804 -0.0191534 -0.0108674 
v 0.0268156 -0.0189693 -0.0102591 
v 0.0268344 -0.0186702 -0.00969847 
v 0.0268597 -0.0182677 -0.00920708 
v 0.0268906 -0.0177773 -0.00880382 
v 0.0269258 -0.0172178 -0.00850416 
v 0.026964 -0.0166107 -0.00831963 
v 0.0268064 -0.0188353 -0.0109306 
v 0.0268169 -0.0186695 -0.010383 
v 0.0268338 -0.0184003 -0.00987841 
v 0.0268566 -0.018038 -0.0094361 
v 0.0268844 -0.0175966 -0.00907311 
v 0.026916 -0.017093 -0.00880339 
v 0.0269504 -0.0165465 -0.00863729 
v 0.0268785 -0.0185253 -0.010993 
v 0.0268878 -0.0183777 -0.0105055 
v 0.0269029 -0.018138 -0.0100562 
v 0.0269232 -0.0178155 -0.00966244 
v 0.0269479 -0.0174224 -0.00933925 
v 0.0269761 -0.016974 -0.00909911 
v 0.0270067 -0.0164875 -0.00895123 
v 0.0270169 -0.0182379 -0.0110518 
v 0.0270251 -0.0181074 -0.0106208 
v 0.0270384 -0.0178955 -0.0102236 
v 0.0270564 -0.0176103 -0.0098755 
v 0.0270782 -0.0172629 -0.00958979 
v 0.0271032 -0.0168665 -0.00937749 
v 0.0271302 -0.0164364 -0.00924676 
v 0.0272151 -0.0179865 -0.0111042 
v 0.0272223 -0.0178713 -0.0107236 
v 0.0272341 -0.0176841 -0.0103728 
v 0.02725 -0.0174323 -0.0100653 
v 0.0272693 -0.0171255 -0.00981301 
v 0.0272913 -0.0167754 -0.00962552 
v 0.0273152 -0.0163955 -0.00951006 
v 0.0274638 -0.0177829 -0.0111477 
v 0.0274703 -0.0176804 -0.0108089 
v 0.0274808 -0.0175138 -0.0104967 
v 0.0274949 -0.0172897 -0.0102231 
v 0.0275121 -0.0170166 -0.00999848 
v 0.0275317 -0.016705 -0.0098316 
v 0.0275529 -0.0163669 -0.00972884 
v 0.0277515 -0.0176367 -0.0111803 
v 0.0277574 -0.0175436 -0.0108729 
v 0.0277669 -0.0173925 -0.0105896 
v 0.0277797 -0.0171891 -0.0103413 
v 0.0277953 -0.0169413 -0.0101375 
v 0.0278131 -0.0166586 -0.0099861 
v 0.0278324 -0.0163518 -0.00989285 
v 0.0280647 -0.0175546 -0.0112005 
v 0.0280702 -0.0174674 -0.0109126 
v 0.0280791 -0.0173259 -0.0106472 
v 0.028091 -0.0171353 -0.0104145 
v 0.0281057 -0.0169032 -0.0102236 
v 0.0281223 -0.0166383 -0.0100818 
v 0.0281404 -0.0163509 -0.00999443 
v 0.0308402 -0.00190365 -0.00882246 
v 0.0308752 -0.00190585 -0.0085 
v 0.0307369 -0.00189715 -0.00912983 
v 0.03057 -0.00188665 -0.00940776 
v 0.0303474 -0.00187264 -0.00964324 
v 0.0300794 -0.00185578 -0.00982527 
v 0.0297787 -0.00183686 -0.00994532 
v 0.0294593 -0.00181677 -0.0099978 
v 0.029136 -0.00179643 -0.00998024 
v 0.0288241 -0.00177681 -0.00989347 
v 0.0285381 -0.00175881 -0.00974153 
v 0.0282914 -0.00174329 -0.00953155 
v 0.0280955 -0.00173096 -0.00927333 
v 0.0279595 -0.00172241 -0.00897895 
v 0.0278899 -0.00171803 -0.00866218 
v 0.0278812 -0.00171748 -0.0085 
v 0.0278899 -0.00171803 -0.00833782 
v 0.0279595 -0.00172241 -0.00802105 
v 0.0280955 -0.00173096 -0.00772667 
v 0.0282914 -0.00174329 -0.00746845 
v 0.0285381 -0.00175881 -0.00725847 
v 0.0288241 -0.00177681 -0.00710653 
v 0.029136 -0.00179643 -0.00701976 
v 0.0294593 -0.00181677 -0.0070022 
v 0.0297787 -0.00183686 -0.00705468 
v 0.0300794 -0.00185578 -0.00717473 
v 0.0303474 -0.00187264 -0.00735676 
v 0.03057 -0.00188665 -0.00759224 
v 0.0307369 -0.00189715 -0.00787017 
v 0.0308402 -0.00190365 -0.00817754 
v 0.0323723 -0.000500034 -0.0085 
v 0.0323723 -0.000464965 -0.00817754 
v 0.0323723 -0.000361397 -0.00787017 
v 0.0323723 -0.000194173 -0.00759224 
v 0.0323723 2.88867e-05 -0.00735676 
v 0.0323723 0.000297353 -0.00717473 
v 0.0323723 0.000598674 -0.00705468 
v 0.0323723 0.000918758 -0.0070022 
v 0.0323723 0.00124264 -0.00701976 
v 0.0323723 0.00155517 -0.00710653 
v 0.0323723 0.00184175 -0.00725847 
v 0.0323723 0.00208896 -0.00746845 
v 0.0323723 0.00228525 -0.00772667 
v 0.0323723 0.00242145 -0.00802105 
v 0.0323723 0.00249117 -0.00833782 
v 0.0323723 0.00249997 -0.0085 
v 0.0323723 0.00249117 -0.00866218 
v 0.0323723 0.00242145 -0.00897895 
v 0.0323723 0.00228525 -0.00927333 
v 0.0323723 0.00208896 -0.00953155 
v 0.0323723 0.00184175 -0.00974153 
v 0.0323723 0.00155517 -0.00989347 
v 0.0323723 0.00124264 -0.00998024 
v 0.0323723 0.000918758 -0.0099978 
v 0.0323723 0.000598674 -0.00994532 
v 0.0323723 0.000297353 -0.00982527 
v 0.0323723 2.88867e-05 -0.00964324 
v 0.0323723 -0.000194173 -0.00940776 
v 0.0323723 -0.000361397 -0.00912983 
v 0.0323723 -0.000464965 -0.00882246 
v 0.03093 -0.00158802 -0.0085 
v 0.0308963 -0.00157838 -0.00817754 
v 0.0310514 -0.00128923 -0.0085 
v 0.0310205 -0.00127261 -0.00817754 
v 0.0312339 -0.00102331 -0.0085 
v 0.0312073 -0.00100047 -0.00817754 
v 0.031469 -0.000802531 -0.0085 
v 0.0314478 -0.000774534 -0.00817754 
v 0.0317458 -0.000637116 -0.0085 
v 0.0317312 -0.000605251 -0.00817754 
v 0.0320516 -0.000534705 -0.0085 
v 0.0320441 -0.000500446 -0.00817754 
v 0.0307967 -0.00154994 -0.00787017 
v 0.0309293 -0.00122354 -0.00787017 
v 0.0311286 -0.000933032 -0.00787017 
v 0.0313855 -0.000691853 -0.00787017 
v 0.0316879 -0.000511148 -0.00787017 
v 0.032022 -0.000399273 -0.00787017 
v 0.0306359 -0.001504 -0.00759224 
v 0.0307821 -0.00114429 -0.00759224 
v 0.0310017 -0.000824144 -0.00759224 
v 0.0312848 -0.000558352 -0.00759224 
v 0.0316181 -0.000359207 -0.00759224 
v 0.0319863 -0.000235914 -0.00759224 
v 0.0304214 -0.00144274 -0.00735676 
v 0.0305856 -0.00103859 -0.00735676 
v 0.0308324 -0.000678898 -0.00735676 
v 0.0311504 -0.000380276 -0.00735676 
v 0.0315249 -0.000156532 -0.00735676 
v 0.0319386 -1.80099e-05 -0.00735676 
v 0.0301633 -0.00136899 -0.00717473 
v 0.0303492 -0.000911376 -0.00717473 
v 0.0306287 -0.000504085 -0.00717473 
v 0.0309888 -0.000165949 -0.00717473 
v 0.0314128 8.74002e-05 -0.00717473 
v 0.0318812 0.000244251 -0.00717473 
v 0.0298735 -0.00128623 -0.00705468 
v 0.0300839 -0.00076859 -0.00705468 
v 0.0304 -0.00030788 -0.00705468 
v 0.0308073 7.46052e-05 -0.00705468 
v 0.031287 0.000361183 -0.00705468 
v 0.0318168 0.000538607 -0.00705468 
v 0.0295658 -0.00119831 -0.0070022 
v 0.029802 -0.000616912 -0.0070022 
v 0.0301571 -9.94563e-05 -0.0070022 
v 0.0306146 0.00033014 -0.0070022 
v 0.0311533 0.000652016 -0.0070022 
v 0.0317484 0.000851293 -0.0070022 
v 0.0292543 -0.00110934 -0.00701976 
v 0.0295168 -0.000463435 -0.00701976 
v 0.0299113 0.00011144 -0.00701976 
v 0.0304195 0.000588705 -0.00701976 
v 0.031018 0.000946298 -0.00701976 
v 0.0316791 0.00116769 -0.00701976 
v 0.0289538 -0.0010235 -0.00710653 
v 0.0292416 -0.000315335 -0.00710653 
v 0.0296741 0.000314947 -0.00710653 
v 0.0302313 0.000838212 -0.00710653 
v 0.0308875 0.00123027 -0.00710653 
v 0.0316123 0.001473 -0.00710653 
v 0.0286783 -0.000944783 -0.00725847 
v 0.0289892 -0.000179538 -0.00725847 
v 0.0294566 0.00050155 -0.00725847 
v 0.0300587 0.00106699 -0.00725847 
v 0.0307678 0.00149065 -0.00725847 
v 0.0315511 0.00175295 -0.00725847 
v 0.0284406 -0.00087688 -0.00746845 
v 0.0287715 -6.23914e-05 -0.00746845 
v 0.029269 0.000662523 -0.00746845 
v 0.0299098 0.00126435 -0.00746845 
v 0.0306646 0.00171528 -0.00746845 
v 0.0314982 0.00199445 -0.00746845 
v 0.0282518 -0.000822962 -0.00772667 
v 0.0285987 3.06253e-05 -0.00772667 
v 0.02912 0.000790339 -0.00772667 
v 0.0297916 0.00142106 -0.00772667 
v 0.0305826 0.00189363 -0.00772667 
v 0.0314563 0.0021862 -0.00772667 
v 0.0281209 -0.000785553 -0.00802105 
v 0.0284788 9.51633e-05 -0.00802105 
v 0.0290166 0.000879022 -0.00802105 
v 0.0297096 0.00152979 -0.00802105 
v 0.0305257 0.00201738 -0.00802105 
v 0.0314271 0.00231925 -0.00802105 
v 0.0280538 -0.000766401 -0.00833782 
v 0.0284173 0.000128205 -0.00833782 
v 0.0289637 0.000924425 -0.00833782 
v 0.0296676 0.00158545 -0.00833782 
v 0.0304966 0.00208073 -0.00833782 
v 0.0314122 0.00238736 -0.00833782 
v 0.0280538 -0.000766401 -0.00866218 
v 0.0284173 0.000128205 -0.00866218 
v 0.0289637 0.000924425 -0.00866218 
v 0.0296676 0.00158545 -0.00866218 
v 0.0304966 0.00208073 -0.00866218 
v 0.0314122 0.00238736 -0.00866218 
v 0.0281209 -0.000785553 -0.00897895 
v 0.0284788 9.51633e-05 -0.00897895 
v 0.0290166 0.000879022 -0.00897895 
v 0.0297096 0.00152979 -0.00897895 
v 0.0305257 0.00201738 -0.00897895 
v 0.0314271 0.00231925 -0.00897895 
v 0.0282518 -0.000822962 -0.00927333 
v 0.0285987 3.06253e-05 -0.00927333 
v 0.02912 0.000790339 -0.00927333 
v 0.0297916 0.00142106 -0.00927333 
v 0.0305826 0.00189363 -0.00927333 
v 0.0314563 0.0021862 -0.00927333 
v 0.0284406 -0.00087688 -0.00953155 
v 0.0287715 -6.23914e-05 -0.00953155 
v 0.029269 0.000662523 -0.00953155 
v 0.0299098 0.00126435 -0.00953155 
v 0.0306646 0.00171528 -0.00953155 
v 0.0314982 0.00199445 -0.00953155 
v 0.0286783 -0.000944783 -0.00974153 
v 0.0289892 -0.000179538 -0.00974153 
v 0.0294566 0.00050155 -0.00974153 
v 0.0300587 0.00106699 -0.00974153 
v 0.0307678 0.00149065 -0.00974153 
v 0.0315511 0.00175295 -0.00974153 
v 0.0289538 -0.0010235 -0.00989347 
v 0.0292416 -0.000315335 -0.00989347 
v 0.0296741 0.000314947 -0.00989347 
v 0.0302313 0.000838212 -0.00989347 
v 0.0308875 0.00123027 -0.00989347 
v 0.0316123 0.001473 -0.00989347 
v 0.0292543 -0.00110934 -0.00998024 
v 0.0295168 -0.000463435 -0.00998024 
v 0.0299113 0.00011144 -0.00998024 
v 0.0304195 0.000588705 -0.00998024 
v 0.031018 0.000946298 -0.00998024 
v 0.0316791 0.00116769 -0.00998024 
v 0.0295658 -0.00119831 -0.0099978 
v 0.029802 -0.000616912 -0.0099978 
v 0.0301571 -9.94563e-05 -0.0099978 
v 0.0306146 0.00033014 -0.0099978 
v 0.0311533 0.000652016 -0.0099978 
v 0.0317484 0.000851293 -0.0099978 
v 0.0298735 -0.00128623 -0.00994532 
v 0.0300839 -0.00076859 -0.00994532 
v 0.0304 -0.00030788 -0.00994532 
v 0.0308073 7.46052e-05 -0.00994532 
v 0.031287 0.000361183 -0.00994532 
v 0.0318168 0.000538607 -0.00994532 
v 0.0301633 -0.00136899 -0.00982527 
v 0.0303492 -0.000911376 -0.00982527 
v 0.0306287 -0.000504085 -0.00982527 
v 0.0309888 -0.000165949 -0.00982527 
v 0.0314128 8.74002e-05 -0.00982527 
v 0.0318812 0.000244251 -0.00982527 
v 0.0304214 -0.00144274 -0.00964324 
v 0.0305856 -0.00103859 -0.00964324 
v 0.0308324 -0.000678898 -0.00964324 
v 0.0311504 -0.000380276 -0.00964324 
v 0.0315249 -0.000156532 -0.00964324 
v 0.0319386 -1.80099e-05 -0.00964324 
v 0.0306359 -0.001504 -0.00940776 
v 0.0307821 -0.00114429 -0.00940776 
v 0.0310017 -0.000824144 -0.00940776 
v 0.0312848 -0.000558352 -0.00940776 
v 0.0316181 -0.000359207 -0.00940776 
v 0.0319863 -0.000235914 -0.00940776 
v 0.0307967 -0.00154994 -0.00912983 
v 0.0309293 -0.00122354 -0.00912983 
v 0.0311286 -0.000933032 -0.00912983 
v 0.0313855 -0.000691853 -0.00912983 
v 0.0316879 -0.000511148 -0.00912983 
v 0.032022 -0.000399273 -0.00912983 
v 0.0308963 -0.00157838 -0.00882246 
v 0.0310205 -0.00127261 -0.00882246 
v 0.0312073 -0.00100047 -0.00882246 
v 0.0314478 -0.000774534 -0.00882246 
v 0.0317312 -0.000605251 -0.00882246 
v 0.0320441 -0.000500446 -0.00882246 
v 0.039 -0.000500034 -0.0085 
v 0.039 -0.000464965 -0.00882246 
v 0.039 -0.000361397 -0.00912983 
v 0.039 -0.000194173 -0.00940776 
v 0.039 2.88867e-05 -0.00964324 
v 0.039 0.000297353 -0.00982527 
v 0.039 0.000598674 -0.00994532 
v 0.039 0.000918758 -0.0099978 
v 0.039 0.00124264 -0.00998024 
v 0.039 0.00155517 -0.00989347 
v 0.039 0.00184175 -0.00974153 
v 0.039 0.00208896 -0.00953155 
v 0.039 0.00228525 -0.00927333 
v 0.039 0.00242145 -0.00897895 
v 0.039 0.00249117 -0.00833782 
v 0.039 0.00249997 -0.0085 
v 0.039 0.00249117 -0.00866218 
v 0.039 0.00242145 -0.00802105 
v 0.039 0.00228525 -0.00772667 
v 0.039 0.00208896 -0.00746845 
v 0.039 0.00184175 -0.00725847 
v 0.039 0.00155517 -0.00710653 
v 0.039 0.00124264 -0.00701976 
v 0.039 0.000918758 -0.0070022 
v 0.039 0.000598674 -0.00705468 
v 0.039 0.000297353 -0.00717473 
v 0.039 2.88867e-05 -0.00735676 
v 0.039 -0.000194173 -0.00759224 
v 0.039 -0.000361397 -0.00787017 
v 0.039 -0.000464965 -0.00817754 
v 0.039 0.000999966 -0.0085 
vn -4.25027e-17 2.67399e-18 -1 
vn 0.21497 -0.976621 0 
vn 0.21521 -0.976568 0 
vn 0.0454845 -0.998965 0 
vn 0 -1 0 
vn 0.419889 -0.907575 0 
vn 0.420112 -0.907472 0 
vn 0.259169 -0.965832 0 
vn 0.605174 -0.796093 0 
vn 0.605369 -0.795945 0 
vn 0.460735 -0.887538 0 
vn 0.762162 -0.647386 0 
vn 0.762321 -0.647199 0 
vn 0.640758 -0.767743 0 
vn 0.883512 -0.468408 0 
vn 0.883627 -0.468192 0 
vn 0.790819 -0.61205 0 
vn 0.96355 -0.267528 0 
vn 0.963616 -0.267292 0 
vn 0.903903 -0.427738 0 
vn 0.998533 -0.0541389 0 
vn 0.998547 -0.0538941 0 
vn 0.974721 -0.223425 0 
vn 0.986827 0.161782 0 
vn 0.986787 0.162024 0 
vn 0.999962 -0.00866508 0 
vn 0.928977 0.370138 0 
vn 0.928886 0.370366 0 
vn 0.978447 0.2065 0 
vn 0.827689 0.561187 0 
vn 0.827551 0.56139 0 
vn 0.91118 0.412009 0 
vn 0.687699 0.725995 0 
vn 0.687521 0.726164 0 
vn 0.801307 0.598253 0 
vn 0.515554 0.856857 0 
vn 0.515344 0.856984 0 
vn 0.653966 0.756524 0 
vn 0.319302 0.947653 0 
vn 0.319069 0.947731 0 
vn 0.476047 0.87942 0 
vn 0.108119 0.994138 0 
vn 0.107875 0.994164 0 
vn 0.275868 0.961196 0 
vn -0.108119 0.994138 0 
vn -0.108363 0.994111 0 
vn 0.0627892 0.998027 0 
vn -0.319302 0.947653 0 
vn -0.319534 0.947575 0 
vn -0.153225 0.988191 0 
vn -0.515554 0.856857 0 
vn -0.515764 0.856731 0 
vn -0.362075 0.932149 0 
vn -0.687699 0.725995 0 
vn -0.687877 0.725827 0 
vn -0.553994 0.832521 0 
vn -0.827689 0.561187 0 
vn -0.827827 0.560984 0 
vn -0.720009 0.693964 0 
vn -0.928977 0.370138 0 
vn -0.929067 0.36991 0 
vn -0.852358 0.522959 0 
vn -0.986827 0.161782 0 
vn -0.986866 0.16154 0 
vn -0.944851 0.327501 0 
vn -0.998027 0.0627892 0 
vn -0.998533 -0.0541389 0 
vn -0.998528 -0.0542341 0 
vn -0.998027 0.0627892 0 
vn -0.993164 0.116729 0 
vn -0.96355 -0.267528 0 
vn -0.963484 -0.267765 0 
vn -0.995037 -0.0995007 0 
vn -0.883512 -0.468408 0 
vn -0.883397 -0.468625 0 
vn -0.950384 -0.311078 0 
vn -0.762162 -0.647386 0 
vn -0.762003 -0.647573 0 
vn -0.861292 -0.50811 0 
vn -0.605174 -0.796093 0 
vn -0.604979 -0.796241 0 
vn -0.731927 -0.681383 0 
vn -0.419889 -0.907575 0 
vn -0.419667 -0.907678 0 
vn -0.568338 -0.822795 0 
vn -0.21497 -0.976621 0 
vn -0.214731 -0.976673 0 
vn -0.378174 -0.925735 0 
vn 0.000245129 -1 0 
vn -0.170327 -0.985388 0 
vn 0.274689 0.942467 -0.190529 
vn 0.275868 0.961196 1.19602e-16 
vn 0.107875 0.994164 0 
vn 0.0615828 0.97885 -0.19509 
vn 0.0580097 0.922057 -0.382683 
vn 0.2712 0.887002 -0.373737 
vn 0.0522074 0.829829 -0.55557 
vn 0.265533 0.79693 -0.542581 
vn 0.0443987 0.705712 -0.707107 
vn 0.257907 0.675715 -0.690575 
vn 0.0348838 0.554474 -0.83147 
vn 0.248615 0.528013 -0.81203 
vn 0.0240284 0.381928 -0.92388 
vn 0.238013 0.359501 -0.90228 
vn 0.0122496 0.194705 -0.980785 
vn 0.226509 0.176655 -0.957855 
vn 0.0537939 -0.00338436 -0.998546 
vn 1.4199e-16 4.66879e-17 -1 
vn 0.474952 0.862016 -0.177059 
vn 0.476047 0.87942 1.11146e-16 
vn 0.319069 0.947731 0 
vn 0.471709 0.810471 -0.347314 
vn 0.466443 0.726768 -0.504222 
vn 0.459356 0.614122 -0.641753 
vn 0.45072 0.476862 -0.754621 
vn 0.440868 0.320264 -0.83849 
vn 0.430178 0.150345 -0.890137 
vn 0.266771 -0.0167834 -0.963614 
vn 0.214546 -0.0134978 -0.976621 
vn 0.653006 0.741257 -0.15531 
vn 0.653966 0.756524 9.74933e-17 
vn 0.515344 0.856984 0 
vn 0.650161 0.696044 -0.304652 
vn 0.645542 0.622623 -0.442286 
vn 0.639326 0.523814 -0.562923 
vn 0.631751 0.403414 -0.661927 
vn 0.623109 0.266052 -0.735494 
vn 0.613732 0.117005 -0.780796 
vn 0.467273 -0.0293978 -0.883624 
vn 0.419061 -0.0263645 -0.907575 
vn 0.800526 0.585838 -0.126299 
vn 0.801307 0.598253 7.9282e-17 
vn 0.687521 0.726164 0 
vn 0.798213 0.549071 -0.247744 
vn 0.794456 0.489364 -0.359669 
vn 0.789401 0.409012 -0.457771 
vn 0.783241 0.311103 -0.538282 
vn 0.776214 0.1994 -0.598107 
vn 0.768588 0.078194 -0.634947 
vn 0.645927 -0.0406375 -0.762317 
vn 0.60398 -0.0379984 -0.796093 
vn 0.910615 0.403027 -0.091382 
vn 0.91118 0.412009 5.73635e-17 
vn 0.827551 0.56139 0 
vn 0.908941 0.376424 -0.179252 
vn 0.906223 0.333224 -0.260234 
vn 0.902565 0.275086 -0.331215 
vn 0.898109 0.204245 -0.389467 
vn 0.893024 0.123423 -0.432753 
vn 0.887507 0.0357266 -0.459408 
vn 0.794378 -0.049977 -0.605364 
vn 0.760658 -0.0478556 -0.647386 
vn 0.978124 0.20137 -0.0521922 
vn 0.978447 0.2065 3.27628e-17 
vn 0.928886 0.370366 0 
vn 0.977168 0.186176 -0.102379 
vn 0.975616 0.161502 -0.148631 
vn 0.973527 0.128297 -0.189171 
vn 0.970981 0.0878369 -0.222442 
vn 0.968077 0.0416761 -0.247164 
vn 0.964926 -0.00841137 -0.262388 
vn 0.905684 -0.0569797 -0.420106 
vn 0.881769 -0.0554751 -0.468408 
vn 0.999897 -0.00970329 -0.010562 
vn 0.999962 -0.00866508 6.6301e-18 
vn 0.986787 0.162024 0 
vn 0.999704 -0.012778 -0.0207181 
vn 0.99939 -0.0177711 -0.030078 
vn 0.998967 -0.0244907 -0.038282 
vn 0.998452 -0.0326785 -0.0450149 
vn 0.997864 -0.04202 -0.0500178 
vn 0.997226 -0.052156 -0.0530986 
vn 0.974642 -0.061318 -0.215204 
vn 0.961649 -0.0605006 -0.267528 
vn 0.974916 -0.220322 0.0315621 
vn 0.974721 -0.223425 -1.98126e-17 
vn 0.998547 -0.0538941 0 
vn 0.975494 -0.211134 0.0619113 
vn 0.976433 -0.196213 0.0898813 
vn 0.977696 -0.176134 0.114397 
vn 0.979236 -0.151666 0.134517 
vn 0.980992 -0.123751 0.149467 
vn 0.982898 -0.0934619 0.158673 
vn 0.998027 -0.0627892 -0.000239014 
vn 0.996563 -0.0626972 -0.0541389 
vn 0.90435 -0.420639 0.0722104 
vn 0.903903 -0.427738 -4.53289e-17 
vn 0.963616 -0.267292 0 
vn 0.905672 -0.399618 0.141646 
vn 0.90782 -0.365481 0.205638 
vn 0.91071 -0.319541 0.261727 
vn 0.914232 -0.263562 0.307759 
vn 0.91825 -0.199696 0.341963 
vn 0.92261 -0.130398 0.363026 
vn 0.974745 -0.0613245 0.214737 
vn 0.984879 -0.0619621 0.161782 
vn 0.791496 -0.601288 0.109482 
vn 0.790819 -0.61205 -6.87256e-17 
vn 0.883627 -0.468192 0 
vn 0.793502 -0.569416 0.214757 
vn 0.796758 -0.517659 0.311779 
vn 0.80114 -0.448006 0.396819 
vn 0.806479 -0.363134 0.46661 
vn 0.812571 -0.266303 0.518469 
vn 0.819182 -0.161236 0.550404 
vn 0.905885 -0.0569923 0.419672 
vn 0.927144 -0.0583297 0.370138 
vn 0.641634 -0.753821 0.141635 
vn 0.640758 -0.767743 -8.89088e-17 
vn 0.762321 -0.647199 0 
vn 0.644228 -0.712589 0.277826 
vn 0.64844 -0.645632 0.403341 
vn 0.654109 -0.555524 0.513356 
vn 0.661017 -0.445726 0.603643 
vn 0.668898 -0.320458 0.670732 
vn 0.677449 -0.184535 0.712046 
vn 0.794667 -0.0499952 0.604984 
vn 0.826056 -0.05197 0.561187 
vn 0.461769 -0.871106 0.167165 
vn 0.460735 -0.887538 -1.04935e-16 
vn 0.605369 -0.795945 0 
vn 0.464831 -0.822442 0.327905 
vn 0.469802 -0.743416 0.476044 
vn 0.476493 -0.637065 0.60589 
vn 0.484646 -0.507476 0.712451 
vn 0.493948 -0.359629 0.791633 
vn 0.50404 -0.199206 0.840393 
vn 0.646291 -0.0406603 0.762007 
vn 0.686342 -0.0431801 0.725995 
vn 0.260312 -0.947659 0.184878 
vn 0.259169 -0.965832 -1.16054e-16 
vn 0.420112 -0.907472 0 
vn 0.263698 -0.893839 0.362651 
vn 0.269197 -0.806439 0.526488 
vn 0.276597 -0.688818 0.670092 
vn 0.285614 -0.545498 0.787945 
vn 0.295901 -0.381984 0.875517 
vn 0.307063 -0.204562 0.929444 
vn 0.467695 -0.0294243 0.8834 
vn 0.514537 -0.0323712 0.856857 
vn 0.0466839 -0.979901 0.193947 
vn 0.0454845 -0.998965 -1.21747e-16 
vn 0.21521 -0.976568 0 
vn 0.050236 -0.92344 0.38044 
vn 0.0560044 -0.831753 0.552313 
vn 0.0637672 -0.708363 0.702962 
vn 0.0732263 -0.558012 0.826596 
vn 0.0840181 -0.386478 0.918464 
vn 0.0957279 -0.200353 0.975036 
vn 0.26723 -0.0168124 0.963486 
vn 0.318671 -0.0200487 0.947653 
vn -0.169127 -0.966323 0.193947 
vn -0.170327 -0.985388 -1.21747e-16 
vn 0.000245129 -1 0 
vn -0.165575 -0.909863 0.38044 
vn -0.159807 -0.818176 0.552313 
vn -0.152044 -0.694786 0.702962 
vn -0.142585 -0.544435 0.826596 
vn -0.131793 -0.372901 0.918464 
vn -0.120083 -0.186775 0.975036 
vn 0.0542703 -0.00341433 0.99852 
vn 0.107906 -0.00678871 0.994138 
vn -0.377031 -0.907562 0.184878 
vn -0.378174 -0.925735 -1.16054e-16 
vn -0.214731 -0.976673 0 
vn -0.373645 -0.853741 0.362651 
vn -0.368146 -0.766341 0.526488 
vn -0.360746 -0.648721 0.670092 
vn -0.351729 -0.5054 0.787945 
vn -0.341442 -0.341887 0.875517 
vn -0.33028 -0.164464 0.929444 
vn -0.161227 0.0101434 0.986865 
vn -0.107906 0.00678871 0.994138 
vn -0.419667 -0.907678 0 
vn -0.567304 -0.806363 0.167165 
vn -0.568338 -0.822795 -1.04935e-16 
vn -0.564243 -0.7577 0.327905 
vn -0.559271 -0.678674 0.476044 
vn -0.55258 -0.572323 0.60589 
vn -0.544427 -0.442734 0.712451 
vn -0.535125 -0.294887 0.791633 
vn -0.525033 -0.134463 0.840393 
vn -0.369186 0.0232268 0.929065 
vn -0.318671 0.0200487 0.947653 
vn -0.604979 -0.796241 0 
vn -0.731051 -0.667461 0.141635 
vn -0.731927 -0.681383 -8.89088e-17 
vn -0.728457 -0.626229 0.277826 
vn -0.724245 -0.559272 0.403341 
vn -0.718576 -0.469163 0.513356 
vn -0.711668 -0.359365 0.603643 
vn -0.703787 -0.234098 0.670732 
vn -0.559882 0.0352241 0.827823 
vn -0.686342 0.0431801 0.725995 
vn -0.695236 -0.0981751 0.712046 
vn -0.514537 0.0323712 0.856857 
vn -0.762003 -0.647573 0 
vn -0.860615 -0.497348 0.109482 
vn -0.861292 -0.50811 -6.87256e-17 
vn -0.85861 -0.465476 0.214757 
vn -0.855354 -0.413719 0.311779 
vn -0.850972 -0.344066 0.396819 
vn -0.845632 -0.259194 0.46661 
vn -0.83954 -0.162363 0.518469 
vn -0.724399 0.0455744 0.687873 
vn -0.826056 0.05197 0.561187 
vn -0.83293 -0.0572962 0.550404 
vn -0.883397 -0.468625 0 
vn -0.949938 -0.30398 0.0722104 
vn -0.950384 -0.311078 -4.53289e-17 
vn -0.948615 -0.282959 0.141646 
vn -0.946468 -0.248822 0.205638 
vn -0.943577 -0.202881 0.261727 
vn -0.940056 -0.146902 0.307759 
vn -0.936038 -0.0830365 0.341963 
vn -0.855043 0.0537937 0.515759 
vn -0.927144 0.0583297 0.370138 
vn -0.931678 -0.0137381 0.363026 
vn -0.963484 -0.267765 0 
vn -0.994842 -0.0963982 0.0315621 
vn -0.995037 -0.0995007 -1.98126e-17 
vn -0.994264 -0.0872101 0.0619113 
vn -0.993326 -0.0722893 0.0898813 
vn -0.992062 -0.0522093 0.114397 
vn -0.990523 -0.0277418 0.134517 
vn -0.988767 0.000172968 0.149467 
vn -0.945707 0.0594976 0.319528 
vn -0.984879 0.0619621 0.161782 
vn -0.986861 0.0304623 0.158673 
vn -0.993229 0.115691 -0.010562 
vn -0.998027 0.0627892 -3.61791e-31 
vn -0.993164 0.116729 6.6301e-18 
vn -0.998528 -0.0542341 0 
vn -0.993423 0.112616 -0.0207181 
vn -0.993737 0.107623 -0.030078 
vn -0.994159 0.100904 -0.038282 
vn -0.994675 0.0927158 -0.0450149 
vn -0.995262 0.0833743 -0.0500178 
vn -0.992168 0.0624206 0.108198 
vn -0.998027 0.0627892 -1.4702e-15 
vn -0.9959 0.0732383 -0.0530986 
vn -0.986866 0.16154 0 
vn -0.945174 0.322371 -0.0521922 
vn -0.944851 0.327501 3.27628e-17 
vn -0.946129 0.307177 -0.102379 
vn -0.947682 0.282503 -0.148631 
vn -0.949771 0.249298 -0.189171 
vn -0.952316 0.208838 -0.222442 
vn -0.95522 0.162677 -0.247164 
vn -0.992202 0.0624228 -0.107881 
vn -0.961649 0.0605006 -0.267528 
vn -0.958372 0.11259 -0.262388 
vn -0.996563 0.0626972 -0.0541389 
vn -0.929067 0.36991 0 
vn -0.852923 0.513977 -0.091382 
vn -0.852358 0.522959 5.73635e-17 
vn -0.854596 0.487374 -0.179252 
vn -0.857314 0.444174 -0.260234 
vn -0.860972 0.386036 -0.331215 
vn -0.865429 0.315195 -0.389467 
vn -0.870514 0.234374 -0.432753 
vn -0.945859 0.0595072 -0.319075 
vn -0.881769 0.0554751 -0.468408 
vn -0.876031 0.146677 -0.459408 
vn -0.827827 0.560984 0 
vn -0.72079 0.68155 -0.126299 
vn -0.720009 0.693964 7.9282e-17 
vn -0.723103 0.644782 -0.247744 
vn -0.72686 0.585075 -0.359669 
vn -0.731915 0.504724 -0.457771 
vn -0.738075 0.406814 -0.538282 
vn -0.745103 0.295111 -0.598107 
vn -0.752728 0.173905 -0.634947 
vn -0.855289 0.0538092 -0.515349 
vn -0.554954 0.817254 -0.15531 
vn -0.553994 0.832521 9.74933e-17 
vn -0.687877 0.725827 0 
vn -0.557799 0.772041 -0.304652 
vn -0.562418 0.69862 -0.442286 
vn -0.568635 0.59981 -0.562923 
vn -0.576209 0.479411 -0.661927 
vn -0.584851 0.342049 -0.735494 
vn -0.594228 0.193002 -0.780796 
vn -0.724727 0.045595 -0.687526 
vn -0.760658 0.0478556 -0.647386 
vn -0.36317 0.914745 -0.177059 
vn -0.362075 0.932149 1.11146e-16 
vn -0.515764 0.856731 0 
vn -0.366412 0.8632 -0.347314 
vn -0.371678 0.779497 -0.504222 
vn -0.378765 0.666851 -0.641753 
vn -0.387401 0.529591 -0.754621 
vn -0.397253 0.372993 -0.83849 
vn -0.407943 0.203074 -0.890137 
vn -0.560277 0.0352489 -0.827555 
vn -0.60398 0.0379984 -0.796093 
vn -0.154403 0.969463 -0.190529 
vn -0.153225 0.988191 1.19602e-16 
vn -0.319534 0.947575 0 
vn -0.157893 0.913997 -0.373737 
vn -0.163559 0.823926 -0.542581 
vn -0.171186 0.70271 -0.690575 
vn -0.180478 0.555009 -0.81203 
vn -0.19108 0.386497 -0.90228 
vn -0.202583 0.203651 -0.957855 
vn -0.369629 0.0232546 -0.928888 
vn -0.419061 0.0263645 -0.907575 
vn 0.0627892 0.998027 1.22465e-16 
vn -0.108363 0.994111 0 
vn -0.161698 0.010173 -0.986788 
vn -0.214546 0.0134978 -0.976621 
vn 0.974693 -0.0613213 -0.21497 
vn 0.998027 -0.0627892 0 
vn 0.996563 -0.0626972 -0.0541389 
vn 0.998027 -0.0627892 -0.000239014 
vn 0.905785 -0.056986 -0.419889 
vn 0.961649 -0.0605006 -0.267528 
vn 0.974642 -0.061318 -0.215204 
vn 0.794522 -0.0499861 -0.605174 
vn 0.881769 -0.0554751 -0.468408 
vn 0.905684 -0.0569797 -0.420106 
vn 0.646109 -0.0406489 -0.762162 
vn 0.760658 -0.0478556 -0.647386 
vn 0.794378 -0.049977 -0.605364 
vn 0.467484 -0.029411 -0.883512 
vn 0.60398 -0.0379984 -0.796093 
vn 0.645927 -0.0406375 -0.762317 
vn 0.267 -0.0167979 -0.96355 
vn 0.419061 -0.0263645 -0.907575 
vn 0.467273 -0.0293978 -0.883624 
vn 0.0540321 -0.00339934 -0.998533 
vn 0.214546 -0.0134978 -0.976621 
vn 0.266771 -0.0167834 -0.963614 
vn -0.161463 0.0101582 -0.986827 
vn 0 0 -1 
vn 0.0537939 -0.00338436 -0.998546 
vn -0.369408 0.0232407 -0.928977 
vn -0.214546 0.0134978 -0.976621 
vn -0.161698 0.010173 -0.986788 
vn -0.56008 0.0352365 -0.827689 
vn -0.419061 0.0263645 -0.907575 
vn -0.369629 0.0232546 -0.928888 
vn -0.724563 0.0455847 -0.687699 
vn -0.60398 0.0379984 -0.796093 
vn -0.560277 0.0352489 -0.827555 
vn -0.855166 0.0538014 -0.515554 
vn -0.760658 0.0478556 -0.647386 
vn -0.724727 0.045595 -0.687526 
vn -0.945783 0.0595024 -0.319302 
vn -0.881769 0.0554751 -0.468408 
vn -0.855289 0.0538092 -0.515349 
vn -0.992176 0.0624212 -0.108119 
vn -0.961649 0.0605006 -0.267528 
vn -0.945859 0.0595072 -0.319075 
vn -0.998027 0.0627892 0 
vn -0.996563 0.0626972 -0.0541389 
vn -0.992202 0.0624228 -0.107881 
vn -0.998027 0.0627892 -2.31296e-15 
vn -0.992168 0.0624206 0.108198 
vn -0.992176 0.0624212 0.108119 
vn -0.945783 0.0595024 0.319302 
vn -0.984879 0.0619621 0.161782 
vn -0.855166 0.0538014 0.515554 
vn -0.927144 0.0583297 0.370138 
vn -0.945707 0.0594976 0.319528 
vn -0.724563 0.0455847 0.687699 
vn -0.826056 0.05197 0.561187 
vn -0.855043 0.0537937 0.515759 
vn -0.56008 0.0352365 0.827689 
vn -0.686342 0.0431801 0.725995 
vn -0.724399 0.0455744 0.687873 
vn -0.369408 0.0232407 0.928977 
vn -0.514537 0.0323712 0.856857 
vn -0.559882 0.0352241 0.827823 
vn -0.161463 0.0101582 0.986827 
vn -0.318671 0.0200487 0.947653 
vn -0.369186 0.0232268 0.929065 
vn 0.0540321 -0.00339934 0.998533 
vn -0.107906 0.00678871 0.994138 
vn -0.161227 0.0101434 0.986865 
vn 0.267 -0.0167979 0.96355 
vn 0.107906 -0.00678871 0.994138 
vn 0.0542703 -0.00341433 0.99852 
vn 0.467484 -0.029411 0.883512 
vn 0.318671 -0.0200487 0.947653 
vn 0.26723 -0.0168124 0.963486 
vn 0.646109 -0.0406489 0.762162 
vn 0.514537 -0.0323712 0.856857 
vn 0.467695 -0.0294243 0.8834 
vn 0.794522 -0.0499861 0.605174 
vn 0.686342 -0.0431801 0.725995 
vn 0.646291 -0.0406603 0.762007 
vn 0.905785 -0.056986 0.419889 
vn 0.826056 -0.05197 0.561187 
vn 0.794667 -0.0499952 0.604984 
vn 0.974693 -0.0613213 0.21497 
vn 0.927144 -0.0583297 0.370138 
vn 0.905885 -0.0569923 0.419672 
vn 0.984879 -0.0619621 0.161782 
vn 0.974745 -0.0613245 0.214737 
vn 0.974693 -0.0613213 0.21497 
vn 0.998027 -0.0627892 1.22465e-16 
vn 0.961536 -0.274677 1.22465e-16 
vn 0.939056 -0.268256 0.21497 
vn 0.880596 -0.473868 1.22465e-16 
vn 0.860008 -0.462789 0.21497 
vn 0.758947 -0.651152 1.22465e-16 
vn 0.741203 -0.635929 0.21497 
vn 0.602214 -0.798335 1.22465e-16 
vn 0.588134 -0.77967 0.21497 
vn 0.417641 -0.908612 1.22465e-16 
vn 0.407877 -0.887369 0.21497 
vn 0.213761 -0.976886 1.22465e-16 
vn 0.208764 -0.954047 0.21497 
vn 3.88578e-16 -1 1.22465e-16 
vn 0.905785 -0.056986 0.419889 
vn 0.872667 -0.249291 0.419889 
vn 0.799207 -0.430071 0.419889 
vn 0.688802 -0.59097 0.419889 
vn 0.546554 -0.724549 0.419889 
vn 0.379041 -0.824634 0.419889 
vn 0.194005 -0.886598 0.419889 
vn 1.73472e-16 -0.976621 0.21497 
vn 0.794522 -0.0499861 0.605174 
vn 0.765472 -0.218669 0.605174 
vn 0.701036 -0.377243 0.605174 
vn 0.604193 -0.518378 0.605174 
vn 0.479418 -0.635549 0.605174 
vn 0.332481 -0.72334 0.605174 
vn 0.170174 -0.777692 0.605174 
vn 2.77556e-16 -0.907575 0.419889 
vn 0.646109 -0.0406489 0.762162 
vn 0.622485 -0.177822 0.762162 
vn 0.570086 -0.306776 0.762162 
vn 0.491332 -0.421547 0.762162 
vn 0.389865 -0.516831 0.762162 
vn 0.270375 -0.588223 0.762162 
vn 0.138386 -0.632423 0.762162 
vn 2.77556e-16 -0.796093 0.605174 
vn 0.467484 -0.029411 0.883512 
vn 0.450392 -0.128661 0.883512 
vn 0.412479 -0.221964 0.883512 
vn 0.355497 -0.305005 0.883512 
vn 0.282082 -0.373947 0.883512 
vn 0.195627 -0.425602 0.883512 
vn 0.100128 -0.457582 0.883512 
vn 1.94289e-16 -0.647386 0.762162 
vn 0.267 -0.0167979 0.96355 
vn 0.257238 -0.073484 0.96355 
vn 0.235584 -0.126773 0.96355 
vn 0.20304 -0.174202 0.96355 
vn 0.161109 -0.213577 0.96355 
vn 0.111731 -0.24308 0.96355 
vn 0.0571872 -0.261345 0.96355 
vn 1.49186e-16 -0.468408 0.883512 
vn 0.0540321 -0.00339934 0.998533 
vn 0.0520565 -0.0148707 0.998533 
vn 0.0476745 -0.0256547 0.998533 
vn 0.0410886 -0.0352527 0.998533 
vn 0.0326032 -0.043221 0.998533 
vn 0.0226106 -0.0491913 0.998533 
vn 0.0115728 -0.0528875 0.998533 
vn 8.67362e-17 -0.267528 0.96355 
vn -0.161463 0.0101582 0.986827 
vn -0.155559 0.0444379 0.986827 
vn -0.142465 0.0766633 0.986827 
vn -0.122784 0.105345 0.986827 
vn -0.0974273 0.129156 0.986827 
vn -0.0675668 0.146997 0.986827 
vn -0.0345827 0.158043 0.986827 
vn 1.64799e-17 -0.0541389 0.998533 
vn -0.369408 0.0232407 0.928977 
vn -0.355901 0.101669 0.928977 
vn -0.325942 0.175397 0.928977 
vn -0.280915 0.241016 0.928977 
vn -0.222902 0.295494 0.928977 
vn -0.154585 0.336312 0.928977 
vn -0.0791212 0.361583 0.928977 
vn -4.51028e-17 0.161782 0.986827 
vn -0.56008 0.0352365 0.827689 
vn -0.539602 0.154145 0.827689 
vn -0.494179 0.265929 0.827689 
vn -0.425911 0.365418 0.827689 
vn -0.337955 0.448015 0.827689 
vn -0.234375 0.509901 0.827689 
vn -0.11996 0.548216 0.827689 
vn -1.11022e-16 0.370138 0.928977 
vn -0.724563 0.0455847 0.687699 
vn -0.698071 0.199415 0.687699 
vn -0.639309 0.344026 0.687699 
vn -0.550992 0.472734 0.687699 
vn -0.437204 0.579588 0.687699 
vn -0.303205 0.659648 0.687699 
vn -0.15519 0.709215 0.687699 
vn -1.52656e-16 0.561187 0.827689 
vn -0.855166 0.0538014 0.515554 
vn -0.823899 0.235359 0.515554 
vn -0.754545 0.406037 0.515554 
vn -0.650309 0.557944 0.515554 
vn -0.516011 0.684059 0.515554 
vn -0.357859 0.778551 0.515554 
vn -0.183163 0.837052 0.515554 
vn -2.28983e-16 0.725995 0.687699 
vn -0.945783 0.0595024 0.319302 
vn -0.911203 0.260299 0.319302 
vn -0.8345 0.449062 0.319302 
vn -0.719219 0.617066 0.319302 
vn -0.57069 0.756545 0.319302 
vn -0.395779 0.861049 0.319302 
vn -0.202572 0.925749 0.319302 
vn -2.498e-16 0.856857 0.515554 
vn -0.992176 0.0624212 0.108119 
vn -0.9559 0.273067 0.108119 
vn -0.875434 0.47109 0.108119 
vn -0.754498 0.647335 0.108119 
vn -0.598683 0.793655 0.108119 
vn -0.415193 0.903286 0.108119 
vn -0.212508 0.971159 0.108119 
vn -2.56739e-16 0.947653 0.319302 
vn -0.9559 0.273067 -0.108119 
vn -0.998027 0.0627892 0 
vn -0.992176 0.0624212 -0.108119 
vn -0.875434 0.47109 -0.108119 
vn -0.754498 0.647335 -0.108119 
vn -0.598683 0.793655 -0.108119 
vn -0.415193 0.903286 -0.108119 
vn -2.91434e-16 0.994138 0.108119 
vn 0 1 2.44929e-16 
vn -0.212508 0.971159 -0.108119 
vn -0.945783 0.0595024 -0.319302 
vn -0.911203 0.260299 -0.319302 
vn -0.8345 0.449062 -0.319302 
vn -0.719219 0.617066 -0.319302 
vn -0.57069 0.756545 -0.319302 
vn -0.395779 0.861049 -0.319302 
vn -0.202572 0.925749 -0.319302 
vn -2.91434e-16 0.994138 -0.108119 
vn -0.855166 0.0538014 -0.515554 
vn -0.823899 0.235359 -0.515554 
vn -0.754545 0.406037 -0.515554 
vn -0.650309 0.557944 -0.515554 
vn -0.516011 0.684059 -0.515554 
vn -0.357859 0.778551 -0.515554 
vn -0.183163 0.837052 -0.515554 
vn -2.56739e-16 0.947653 -0.319302 
vn -0.724563 0.0455847 -0.687699 
vn -0.698071 0.199415 -0.687699 
vn -0.639309 0.344026 -0.687699 
vn -0.550992 0.472734 -0.687699 
vn -0.437204 0.579588 -0.687699 
vn -0.303205 0.659648 -0.687699 
vn -0.15519 0.709215 -0.687699 
vn -2.498e-16 0.856857 -0.515554 
vn -0.56008 0.0352365 -0.827689 
vn -0.539602 0.154145 -0.827689 
vn -0.494179 0.265929 -0.827689 
vn -0.425911 0.365418 -0.827689 
vn -0.337955 0.448015 -0.827689 
vn -0.234375 0.509901 -0.827689 
vn -0.11996 0.548216 -0.827689 
vn -2.28983e-16 0.725995 -0.687699 
vn -0.369408 0.0232407 -0.928977 
vn -0.355901 0.101669 -0.928977 
vn -0.325942 0.175397 -0.928977 
vn -0.280915 0.241016 -0.928977 
vn -0.222902 0.295494 -0.928977 
vn -0.154585 0.336312 -0.928977 
vn -0.0791212 0.361583 -0.928977 
vn -1.59595e-16 0.561187 -0.827689 
vn -0.161463 0.0101582 -0.986827 
vn -0.155559 0.0444379 -0.986827 
vn -0.142465 0.0766633 -0.986827 
vn -0.122784 0.105345 -0.986827 
vn -0.0974273 0.129156 -0.986827 
vn -0.0675668 0.146997 -0.986827 
vn -0.0345827 0.158043 -0.986827 
vn -1.11022e-16 0.370138 -0.928977 
vn 0.0540321 -0.00339934 -0.998533 
vn 0.0520565 -0.0148707 -0.998533 
vn 0.0476745 -0.0256547 -0.998533 
vn 0.0410886 -0.0352527 -0.998533 
vn 0.0326032 -0.043221 -0.998533 
vn 0.0226106 -0.0491913 -0.998533 
vn 0.0115728 -0.0528875 -0.998533 
vn -4.51028e-17 0.161782 -0.986827 
vn 0.267 -0.0167979 -0.96355 
vn 0.257238 -0.073484 -0.96355 
vn 0.235584 -0.126773 -0.96355 
vn 0.20304 -0.174202 -0.96355 
vn 0.161109 -0.213577 -0.96355 
vn 0.111731 -0.24308 -0.96355 
vn 0.0571872 -0.261345 -0.96355 
vn 1.64799e-17 -0.0541389 -0.998533 
vn 0.467484 -0.029411 -0.883512 
vn 0.450392 -0.128661 -0.883512 
vn 0.412479 -0.221964 -0.883512 
vn 0.355497 -0.305005 -0.883512 
vn 0.282082 -0.373947 -0.883512 
vn 0.195627 -0.425602 -0.883512 
vn 0.100128 -0.457582 -0.883512 
vn 8.67362e-17 -0.267528 -0.96355 
vn 0.646109 -0.0406489 -0.762162 
vn 0.622485 -0.177822 -0.762162 
vn 0.570086 -0.306776 -0.762162 
vn 0.491332 -0.421547 -0.762162 
vn 0.389865 -0.516831 -0.762162 
vn 0.270375 -0.588223 -0.762162 
vn 0.138386 -0.632423 -0.762162 
vn 1.49186e-16 -0.468408 -0.883512 
vn 0.794522 -0.0499861 -0.605174 
vn 0.765472 -0.218669 -0.605174 
vn 0.701036 -0.377243 -0.605174 
vn 0.604193 -0.518378 -0.605174 
vn 0.479418 -0.635549 -0.605174 
vn 0.332481 -0.72334 -0.605174 
vn 0.170174 -0.777692 -0.605174 
vn 1.94289e-16 -0.647386 -0.762162 
vn 0.905785 -0.056986 -0.419889 
vn 0.872667 -0.249291 -0.419889 
vn 0.799207 -0.430071 -0.419889 
vn 0.688802 -0.59097 -0.419889 
vn 0.546554 -0.724549 -0.419889 
vn 0.379041 -0.824634 -0.419889 
vn 0.194005 -0.886598 -0.419889 
vn 1.73472e-16 -0.796093 -0.605174 
vn 0.974693 -0.0613213 -0.21497 
vn 0.939056 -0.268256 -0.21497 
vn 0.860008 -0.462789 -0.21497 
vn 0.741203 -0.635929 -0.21497 
vn 0.588134 -0.77967 -0.21497 
vn 0.407877 -0.887369 -0.21497 
vn 0.208764 -0.954047 -0.21497 
vn 2.77556e-16 -0.907575 -0.419889 
vn 3.05311e-16 -0.976621 -0.21497 
vn 0 -1 0 
vn 0 -0.907575 -0.419889 
vn 0 -0.796093 -0.605174 
vn 0 -0.647386 -0.762162 
vn 0 -0.468408 -0.883512 
vn 0 -0.267528 -0.96355 
vn 0 -0.0541389 -0.998533 
vn 0 0.161782 -0.986827 
vn 0 0.370138 -0.928977 
vn 0 0.561187 -0.827689 
vn 0 0.725995 -0.687699 
vn 0 0.856857 -0.515554 
vn 0 0.947653 -0.319302 
vn 0 0.994138 -0.108119 
vn 0 0.994138 0.108119 
vn 0 1 -1.22465e-16 
vn 0 0.994138 -0.108119 
vn 0 0.994138 0.108119 
vn 0 0.947653 0.319302 
vn 0 0.856857 0.515554 
vn 0 0.725995 0.687699 
vn 0 0.561187 0.827689 
vn 0 0.370138 0.928977 
vn 0 0.161782 0.986827 
vn 0 -0.0541389 0.998533 
vn 0 -0.267528 0.96355 
vn 0 -0.468408 0.883512 
vn 0 -0.647386 0.762162 
vn 0 -0.796093 0.605174 
vn 0 -0.907575 0.419889 
vn 0 -0.976621 0.21497 
vn 1 0 0 
usemtl 0.372549_0.654902_0.239216_0.000000_0.000000
o mesh0
f 31//1 1//1 2//1 
f 2//1 3//1 31//1 
f 3//1 4//1 31//1 
f 4//1 5//1 31//1 
f 5//1 6//1 31//1 
f 6//1 7//1 31//1 
f 7//1 8//1 31//1 
f 8//1 9//1 31//1 
f 9//1 10//1 31//1 
f 10//1 11//1 31//1 
f 11//1 12//1 31//1 
f 12//1 13//1 31//1 
f 13//1 14//1 31//1 
f 14//1 15//1 31//1 
f 15//1 16//1 31//1 
f 16//1 17//1 31//1 
f 17//1 18//1 31//1 
f 18//1 19//1 31//1 
f 19//1 20//1 31//1 
f 20//1 21//1 31//1 
f 21//1 22//1 31//1 
f 22//1 23//1 31//1 
f 23//1 24//1 31//1 
f 24//1 25//1 31//1 
f 25//1 26//1 31//1 
f 26//1 27//1 31//1 
f 27//1 28//1 31//1 
f 28//1 29//1 31//1 
f 29//1 30//1 31//1 
f 30//1 1//1 31//1 
o mesh1
f 21//2 32//3 33//4 
f 33//4 22//5 21//2 
f 20//6 34//7 35//8 
f 35//8 21//2 20//6 
f 19//9 36//10 37//11 
f 37//11 20//6 19//9 
f 18//12 38//13 39//14 
f 39//14 19//9 18//12 
f 17//15 40//16 41//17 
f 41//17 18//12 17//15 
f 16//18 42//19 43//20 
f 43//20 17//15 16//18 
f 15//21 44//22 45//23 
f 45//23 16//18 15//21 
f 14//24 46//25 47//26 
f 47//26 15//21 14//24 
f 13//27 48//28 49//29 
f 49//29 14//24 13//27 
f 12//30 50//31 51//32 
f 51//32 13//27 12//30 
f 11//33 52//34 53//35 
f 53//35 12//30 11//33 
f 10//36 54//37 55//38 
f 55//38 11//33 10//36 
f 9//39 56//40 57//41 
f 57//41 10//36 9//39 
f 8//42 58//43 59//44 
f 59//44 9//39 8//42 
f 7//45 60//46 61//47 
f 61//47 8//42 7//45 
f 6//48 62//49 63//50 
f 63//50 7//45 6//48 
f 5//51 64//52 65//53 
f 65//53 6//48 5//51 
f 4//54 66//55 67//56 
f 67//56 5//51 4//54 
f 3//57 68//58 69//59 
f 69//59 4//54 3//57 
f 2//60 70//61 71//62 
f 71//62 3//57 2//60 
f 1//63 72//64 73//65 
f 73//65 2//60 1//63 
f 30//66 29//67 74//68 
f 30//66 75//69 76//70 
f 76//70 1//63 30//66 
f 76//70 72//64 1//63 
f 28//71 77//72 78//73 
f 78//73 29//67 28//71 
f 27//74 79//75 80//76 
f 80//76 28//71 27//74 
f 26//77 81//78 82//79 
f 82//79 27//74 26//77 
f 25//80 83//81 84//82 
f 84//82 26//77 25//80 
f 24//83 85//84 86//85 
f 86//85 25//80 24//83 
f 23//86 87//87 88//88 
f 88//88 24//83 23//86 
f 22//5 89//89 90//90 
f 90//90 23//86 22//5 
f 90//90 87//87 23//86 
f 88//88 85//84 24//83 
f 86//85 83//81 25//80 
f 84//82 81//78 26//77 
f 82//79 79//75 27//74 
f 80//76 77//72 28//71 
f 78//73 74//68 29//67 
f 74//68 75//69 30//66 
f 73//65 70//61 2//60 
f 71//62 68//58 3//57 
f 69//59 66//55 4//54 
f 67//56 64//52 5//51 
f 65//53 62//49 6//48 
f 63//50 60//46 7//45 
f 61//47 58//43 8//42 
f 59//44 56//40 9//39 
f 57//41 54//37 10//36 
f 55//38 52//34 11//33 
f 53//35 50//31 12//30 
f 51//32 48//28 13//27 
f 49//29 46//25 14//24 
f 47//26 44//22 15//21 
f 45//23 42//19 16//18 
f 43//20 40//16 17//15 
f 41//17 38//13 18//12 
f 39//14 36//10 19//9 
f 37//11 34//7 20//6 
f 35//8 32//3 21//2 
f 33//4 89//89 22//5 
o mesh2
f 150//91 59//92 58//93 
f 58//93 151//94 150//91 
f 150//91 151//94 152//95 
f 153//96 152//95 154//97 
f 155//98 154//97 156//99 
f 157//100 156//99 158//101 
f 159//102 158//101 160//103 
f 161//104 160//103 162//105 
f 163//106 162//105 91//107 
f 162//105 92//108 91//107 
f 164//109 57//110 56//111 
f 56//111 150//91 164//109 
f 164//109 150//91 153//96 
f 165//112 153//96 155//98 
f 166//113 155//98 157//100 
f 167//114 157//100 159//102 
f 168//115 159//102 161//104 
f 169//116 161//104 163//106 
f 170//117 163//106 93//118 
f 163//106 94//119 93//118 
f 171//120 55//121 54//122 
f 54//122 164//109 171//120 
f 171//120 164//109 165//112 
f 172//123 165//112 166//113 
f 173//124 166//113 167//114 
f 174//125 167//114 168//115 
f 175//126 168//115 169//116 
f 176//127 169//116 170//117 
f 177//128 170//117 95//129 
f 170//117 96//130 95//129 
f 178//131 53//132 52//133 
f 52//133 171//120 178//131 
f 178//131 171//120 172//123 
f 179//134 172//123 173//124 
f 180//135 173//124 174//125 
f 181//136 174//125 175//126 
f 182//137 175//126 176//127 
f 183//138 176//127 177//128 
f 184//139 177//128 97//140 
f 177//128 98//141 97//140 
f 185//142 51//143 50//144 
f 50//144 178//131 185//142 
f 185//142 178//131 179//134 
f 186//145 179//134 180//135 
f 187//146 180//135 181//136 
f 188//147 181//136 182//137 
f 189//148 182//137 183//138 
f 190//149 183//138 184//139 
f 191//150 184//139 99//151 
f 184//139 100//152 99//151 
f 192//153 49//154 48//155 
f 48//155 185//142 192//153 
f 192//153 185//142 186//145 
f 193//156 186//145 187//146 
f 194//157 187//146 188//147 
f 195//158 188//147 189//148 
f 196//159 189//148 190//149 
f 197//160 190//149 191//150 
f 198//161 191//150 101//162 
f 191//150 102//163 101//162 
f 199//164 47//165 46//166 
f 46//166 192//153 199//164 
f 199//164 192//153 193//156 
f 200//167 193//156 194//157 
f 201//168 194//157 195//158 
f 202//169 195//158 196//159 
f 203//170 196//159 197//160 
f 204//171 197//160 198//161 
f 205//172 198//161 103//173 
f 198//161 104//174 103//173 
f 206//175 45//176 44//177 
f 44//177 199//164 206//175 
f 206//175 199//164 200//167 
f 207//178 200//167 201//168 
f 208//179 201//168 202//169 
f 209//180 202//169 203//170 
f 210//181 203//170 204//171 
f 211//182 204//171 205//172 
f 212//183 205//172 105//184 
f 205//172 106//185 105//184 
f 213//186 43//187 42//188 
f 42//188 206//175 213//186 
f 213//186 206//175 207//178 
f 214//189 207//178 208//179 
f 215//190 208//179 209//180 
f 216//191 209//180 210//181 
f 217//192 210//181 211//182 
f 218//193 211//182 212//183 
f 219//194 212//183 107//195 
f 212//183 108//196 107//195 
f 220//197 41//198 40//199 
f 40//199 213//186 220//197 
f 220//197 213//186 214//189 
f 221//200 214//189 215//190 
f 222//201 215//190 216//191 
f 223//202 216//191 217//192 
f 224//203 217//192 218//193 
f 225//204 218//193 219//194 
f 226//205 219//194 109//206 
f 219//194 110//207 109//206 
f 227//208 39//209 38//210 
f 38//210 220//197 227//208 
f 227//208 220//197 221//200 
f 228//211 221//200 222//201 
f 229//212 222//201 223//202 
f 230//213 223//202 224//203 
f 231//214 224//203 225//204 
f 232//215 225//204 226//205 
f 233//216 226//205 111//217 
f 226//205 112//218 111//217 
f 234//219 37//220 36//221 
f 36//221 227//208 234//219 
f 234//219 227//208 228//211 
f 235//222 228//211 229//212 
f 236//223 229//212 230//213 
f 237//224 230//213 231//214 
f 238//225 231//214 232//215 
f 239//226 232//215 233//216 
f 240//227 233//216 113//228 
f 233//216 114//229 113//228 
f 241//230 35//231 34//232 
f 34//232 234//219 241//230 
f 241//230 234//219 235//222 
f 242//233 235//222 236//223 
f 243//234 236//223 237//224 
f 244//235 237//224 238//225 
f 245//236 238//225 239//226 
f 246//237 239//226 240//227 
f 247//238 240//227 115//239 
f 240//227 116//240 115//239 
f 248//241 33//242 32//243 
f 32//243 241//230 248//241 
f 248//241 241//230 242//233 
f 249//244 242//233 243//234 
f 250//245 243//234 244//235 
f 251//246 244//235 245//236 
f 252//247 245//236 246//237 
f 253//248 246//237 247//238 
f 254//249 247//238 117//250 
f 247//238 118//251 117//250 
f 255//252 90//253 89//254 
f 89//254 248//241 255//252 
f 255//252 248//241 249//244 
f 256//255 249//244 250//245 
f 257//256 250//245 251//246 
f 258//257 251//246 252//247 
f 259//258 252//247 253//248 
f 260//259 253//248 254//249 
f 261//260 254//249 119//261 
f 254//249 120//262 119//261 
f 262//263 88//264 87//265 
f 87//265 255//252 262//263 
f 262//263 255//252 256//255 
f 263//266 256//255 257//256 
f 264//267 257//256 258//257 
f 265//268 258//257 259//258 
f 266//269 259//258 260//259 
f 267//270 260//259 261//260 
f 268//271 261//260 121//272 
f 261//260 122//273 121//272 
f 85//274 262//263 269//275 
f 269//275 86//276 85//274 
f 269//275 262//263 263//266 
f 270//277 263//266 264//267 
f 271//278 264//267 265//268 
f 272//279 265//268 266//269 
f 273//280 266//269 267//270 
f 274//281 267//270 268//271 
f 275//282 268//271 123//283 
f 268//271 124//284 123//283 
f 83//285 269//275 276//286 
f 276//286 84//287 83//285 
f 276//286 269//275 270//277 
f 277//288 270//277 271//278 
f 278//289 271//278 272//279 
f 279//290 272//279 273//280 
f 280//291 273//280 274//281 
f 281//292 274//281 275//282 
f 125//293 126//294 282//295 
f 275//282 127//296 125//293 
f 81//297 276//286 283//298 
f 283//298 82//299 81//297 
f 283//298 276//286 277//288 
f 284//300 277//288 278//289 
f 285//301 278//289 279//290 
f 286//302 279//290 280//291 
f 287//303 280//291 281//292 
f 288//304 281//292 282//295 
f 128//305 129//306 289//307 
f 282//295 126//294 128//305 
f 79//308 283//298 290//309 
f 290//309 80//310 79//308 
f 290//309 283//298 284//300 
f 291//311 284//300 285//301 
f 292//312 285//301 286//302 
f 293//313 286//302 287//303 
f 294//314 287//303 288//304 
f 295//315 288//304 289//307 
f 130//316 131//317 296//318 
f 289//307 129//306 130//316 
f 77//319 290//309 297//320 
f 297//320 78//321 77//319 
f 297//320 290//309 291//311 
f 298//322 291//311 292//312 
f 299//323 292//312 293//313 
f 300//324 293//313 294//314 
f 301//325 294//314 295//315 
f 302//326 295//315 296//318 
f 132//327 133//328 303//329 
f 296//318 131//317 132//327 
f 297//320 304//330 75//331 
f 304//330 76//332 75//331 
f 75//331 74//333 297//320 
f 304//330 297//320 298//322 
f 305//334 298//322 299//323 
f 306//335 299//323 300//324 
f 307//336 300//324 301//325 
f 308//337 301//325 302//326 
f 309//338 302//326 303//329 
f 303//329 134//339 135//340 
f 135//340 310//341 303//329 
f 303//329 133//328 134//339 
f 72//342 304//330 311//343 
f 311//343 73//344 72//342 
f 311//343 304//330 305//334 
f 312//345 305//334 306//335 
f 313//346 306//335 307//336 
f 314//347 307//336 308//337 
f 315//348 308//337 309//338 
f 316//349 309//338 310//341 
f 136//350 137//351 317//352 
f 310//341 138//353 136//350 
f 70//354 311//343 318//355 
f 318//355 71//356 70//354 
f 318//355 311//343 312//345 
f 319//357 312//345 313//346 
f 320//358 313//346 314//347 
f 321//359 314//347 315//348 
f 322//360 315//348 316//349 
f 323//361 316//349 317//352 
f 139//362 140//363 324//364 
f 317//352 137//351 139//362 
f 68//365 318//355 325//366 
f 325//366 69//367 68//365 
f 325//366 318//355 319//357 
f 326//368 319//357 320//358 
f 327//369 320//358 321//359 
f 328//370 321//359 322//360 
f 329//371 322//360 323//361 
f 330//372 323//361 324//364 
f 331//373 324//364 141//374 
f 324//364 140//363 141//374 
f 332//375 67//376 66//377 
f 66//377 325//366 332//375 
f 332//375 325//366 326//368 
f 333//378 326//368 327//369 
f 334//379 327//369 328//370 
f 335//380 328//370 329//371 
f 336//381 329//371 330//372 
f 337//382 330//372 331//373 
f 338//383 331//373 142//384 
f 331//373 143//385 142//384 
f 339//386 65//387 64//388 
f 64//388 332//375 339//386 
f 339//386 332//375 333//378 
f 340//389 333//378 334//379 
f 341//390 334//379 335//380 
f 342//391 335//380 336//381 
f 343//392 336//381 337//382 
f 344//393 337//382 338//383 
f 345//394 338//383 144//395 
f 338//383 145//396 144//395 
f 346//397 63//398 62//399 
f 62//399 339//386 346//397 
f 346//397 339//386 340//389 
f 347//400 340//389 341//390 
f 348//401 341//390 342//391 
f 349//402 342//391 343//392 
f 350//403 343//392 344//393 
f 351//404 344//393 345//394 
f 352//405 345//394 146//406 
f 345//394 147//407 146//406 
f 151//94 61//408 60//409 
f 60//409 346//397 151//94 
f 151//94 346//397 347//400 
f 152//95 347//400 348//401 
f 154//97 348//401 349//402 
f 156//99 349//402 350//403 
f 158//101 350//403 351//404 
f 160//103 351//404 352//405 
f 162//105 352//405 148//410 
f 352//405 149//411 148//410 
f 148//410 92//108 162//105 
f 352//405 162//105 160//103 
f 351//404 160//103 158//101 
f 350//403 158//101 156//99 
f 349//402 156//99 154//97 
f 348//401 154//97 152//95 
f 347//400 152//95 151//94 
f 60//409 63//398 346//397 
f 146//406 149//411 352//405 
f 345//394 352//405 351//404 
f 344//393 351//404 350//403 
f 343//392 350//403 349//402 
f 342//391 349//402 348//401 
f 341//390 348//401 347//400 
f 340//389 347//400 346//397 
f 62//399 65//387 339//386 
f 144//395 147//407 345//394 
f 338//383 345//394 344//393 
f 337//382 344//393 343//392 
f 336//381 343//392 342//391 
f 335//380 342//391 341//390 
f 334//379 341//390 340//389 
f 333//378 340//389 339//386 
f 64//388 67//376 332//375 
f 142//384 145//396 338//383 
f 331//373 338//383 337//382 
f 330//372 337//382 336//381 
f 329//371 336//381 335//380 
f 328//370 335//380 334//379 
f 327//369 334//379 333//378 
f 326//368 333//378 332//375 
f 66//377 69//367 325//366 
f 141//374 143//385 331//373 
f 324//364 331//373 330//372 
f 323//361 330//372 329//371 
f 322//360 329//371 328//370 
f 321//359 328//370 327//369 
f 320//358 327//369 326//368 
f 319//357 326//368 325//366 
f 68//365 71//356 318//355 
f 324//364 317//352 139//362 
f 317//352 324//364 323//361 
f 316//349 323//361 322//360 
f 315//348 322//360 321//359 
f 314//347 321//359 320//358 
f 313//346 320//358 319//357 
f 312//345 319//357 318//355 
f 70//354 73//344 311//343 
f 317//352 310//341 136//350 
f 310//341 317//352 316//349 
f 309//338 316//349 315//348 
f 308//337 315//348 314//347 
f 307//336 314//347 313//346 
f 306//335 313//346 312//345 
f 305//334 312//345 311//343 
f 72//342 76//332 304//330 
f 135//340 138//353 310//341 
f 303//329 310//341 309//338 
f 302//326 309//338 308//337 
f 301//325 308//337 307//336 
f 300//324 307//336 306//335 
f 299//323 306//335 305//334 
f 298//322 305//334 304//330 
f 74//333 78//321 297//320 
f 303//329 296//318 132//327 
f 296//318 303//329 302//326 
f 295//315 302//326 301//325 
f 294//314 301//325 300//324 
f 293//313 300//324 299//323 
f 292//312 299//323 298//322 
f 291//311 298//322 297//320 
f 77//319 80//310 290//309 
f 296//318 289//307 130//316 
f 289//307 296//318 295//315 
f 288//304 295//315 294//314 
f 287//303 294//314 293//313 
f 286//302 293//313 292//312 
f 285//301 292//312 291//311 
f 284//300 291//311 290//309 
f 79//308 82//299 283//298 
f 289//307 282//295 128//305 
f 282//295 289//307 288//304 
f 281//292 288//304 287//303 
f 280//291 287//303 286//302 
f 279//290 286//302 285//301 
f 278//289 285//301 284//300 
f 277//288 284//300 283//298 
f 81//297 84//287 276//286 
f 282//295 275//282 125//293 
f 275//282 282//295 281//292 
f 274//281 281//292 280//291 
f 273//280 280//291 279//290 
f 272//279 279//290 278//289 
f 271//278 278//289 277//288 
f 270//277 277//288 276//286 
f 83//285 86//276 269//275 
f 123//283 127//296 275//282 
f 268//271 275//282 274//281 
f 267//270 274//281 273//280 
f 266//269 273//280 272//279 
f 265//268 272//279 271//278 
f 264//267 271//278 270//277 
f 263//266 270//277 269//275 
f 85//274 88//264 262//263 
f 121//272 124//284 268//271 
f 261//260 268//271 267//270 
f 260//259 267//270 266//269 
f 259//258 266//269 265//268 
f 258//257 265//268 264//267 
f 257//256 264//267 263//266 
f 256//255 263//266 262//263 
f 87//265 90//253 255//252 
f 119//261 122//273 261//260 
f 254//249 261//260 260//259 
f 253//248 260//259 259//258 
f 252//247 259//258 258//257 
f 251//246 258//257 257//256 
f 250//245 257//256 256//255 
f 249//244 256//255 255//252 
f 89//254 33//242 248//241 
f 117//250 120//262 254//249 
f 247//238 254//249 253//248 
f 246//237 253//248 252//247 
f 245//236 252//247 251//246 
f 244//235 251//246 250//245 
f 243//234 250//245 249//244 
f 242//233 249//244 248//241 
f 32//243 35//231 241//230 
f 115//239 118//251 247//238 
f 240//227 247//238 246//237 
f 239//226 246//237 245//236 
f 238//225 245//236 244//235 
f 237//224 244//235 243//234 
f 236//223 243//234 242//233 
f 235//222 242//233 241//230 
f 34//232 37//220 234//219 
f 113//228 116//240 240//227 
f 233//216 240//227 239//226 
f 232//215 239//226 238//225 
f 231//214 238//225 237//224 
f 230//213 237//224 236//223 
f 229//212 236//223 235//222 
f 228//211 235//222 234//219 
f 36//221 39//209 227//208 
f 111//217 114//229 233//216 
f 226//205 233//216 232//215 
f 225//204 232//215 231//214 
f 224//203 231//214 230//213 
f 223//202 230//213 229//212 
f 222//201 229//212 228//211 
f 221//200 228//211 227//208 
f 38//210 41//198 220//197 
f 109//206 112//218 226//205 
f 219//194 226//205 225//204 
f 218//193 225//204 224//203 
f 217//192 224//203 223//202 
f 216//191 223//202 222//201 
f 215//190 222//201 221//200 
f 214//189 221//200 220//197 
f 40//199 43//187 213//186 
f 107//195 110//207 219//194 
f 212//183 219//194 218//193 
f 211//182 218//193 217//192 
f 210//181 217//192 216//191 
f 209//180 216//191 215//190 
f 208//179 215//190 214//189 
f 207//178 214//189 213//186 
f 42//188 45//176 206//175 
f 105//184 108//196 212//183 
f 205//172 212//183 211//182 
f 204//171 211//182 210//181 
f 203//170 210//181 209//180 
f 202//169 209//180 208//179 
f 201//168 208//179 207//178 
f 200//167 207//178 206//175 
f 44//177 47//165 199//164 
f 103//173 106//185 205//172 
f 198//161 205//172 204//171 
f 197//160 204//171 203//170 
f 196//159 203//170 202//169 
f 195//158 202//169 201//168 
f 194//157 201//168 200//167 
f 193//156 200//167 199//164 
f 46//166 49//154 192//153 
f 101//162 104//174 198//161 
f 191//150 198//161 197//160 
f 190//149 197//160 196//159 
f 189//148 196//159 195//158 
f 188//147 195//158 194//157 
f 187//146 194//157 193//156 
f 186//145 193//156 192//153 
f 48//155 51//143 185//142 
f 99//151 102//163 191//150 
f 184//139 191//150 190//149 
f 183//138 190//149 189//148 
f 182//137 189//148 188//147 
f 181//136 188//147 187//146 
f 180//135 187//146 186//145 
f 179//134 186//145 185//142 
f 50//144 53//132 178//131 
f 97//140 100//152 184//139 
f 177//128 184//139 183//138 
f 176//127 183//138 182//137 
f 175//126 182//137 181//136 
f 174//125 181//136 180//135 
f 173//124 180//135 179//134 
f 172//123 179//134 178//131 
f 52//133 55//121 171//120 
f 95//129 98//141 177//128 
f 170//117 177//128 176//127 
f 169//116 176//127 175//126 
f 168//115 175//126 174//125 
f 167//114 174//125 173//124 
f 166//113 173//124 172//123 
f 165//112 172//123 171//120 
f 54//122 57//110 164//109 
f 93//118 96//130 170//117 
f 163//106 170//117 169//116 
f 161//104 169//116 168//115 
f 159//102 168//115 167//114 
f 157//100 167//114 166//113 
f 155//98 166//113 165//112 
f 153//96 165//112 164//109 
f 56//111 59//92 150//91 
f 91//107 94//119 163//106 
f 162//105 163//106 161//104 
f 160//103 161//104 159//102 
f 158//101 159//102 157//100 
f 156//99 157//100 155//98 
f 154//97 155//98 153//96 
f 152//95 153//96 150//91 
f 58//93 61//408 151//94 
o mesh3
f 353//412 354//413 106//414 
f 354//413 105//415 106//414 
f 355//416 353//412 104//417 
f 353//412 103//418 104//417 
f 356//419 355//416 102//420 
f 355//416 101//421 102//420 
f 357//422 356//419 100//423 
f 356//419 99//424 100//423 
f 358//425 357//422 98//426 
f 357//422 97//427 98//426 
f 359//428 358//425 96//429 
f 358//425 95//430 96//429 
f 360//431 359//428 94//432 
f 359//428 93//433 94//432 
f 361//434 360//431 92//435 
f 360//431 91//436 92//435 
f 362//437 361//434 149//438 
f 361//434 148//439 149//438 
f 363//440 362//437 147//441 
f 362//437 146//442 147//441 
f 364//443 363//440 145//444 
f 363//440 144//445 145//444 
f 365//446 364//443 143//447 
f 364//443 142//448 143//447 
f 366//449 365//446 140//450 
f 365//446 141//451 140//450 
f 367//452 366//449 137//453 
f 366//449 139//454 137//453 
f 368//455 367//452 138//456 
f 367//452 136//457 138//456 
f 368//455 135//458 134//459 
f 134//459 369//460 368//455 
f 370//461 369//460 133//462 
f 369//460 134//459 133//462 
f 371//463 370//461 131//464 
f 370//461 132//465 131//464 
f 372//466 371//463 129//467 
f 371//463 130//468 129//467 
f 373//469 372//466 126//470 
f 372//466 128//471 126//470 
f 374//472 373//469 127//473 
f 373//469 125//474 127//473 
f 375//475 374//472 124//476 
f 374//472 123//477 124//476 
f 376//478 375//475 122//479 
f 375//475 121//480 122//479 
f 377//481 376//478 120//482 
f 376//478 119//483 120//482 
f 378//484 377//481 118//485 
f 377//481 117//486 118//485 
f 379//487 378//484 116//488 
f 378//484 115//489 116//488 
f 380//490 379//487 114//491 
f 379//487 113//492 114//491 
f 381//493 380//490 112//494 
f 380//490 111//495 112//494 
f 382//496 381//493 110//497 
f 381//493 109//498 110//497 
f 354//413 382//496 108//499 
f 382//496 107//500 108//499 
f 108//499 105//415 354//413 
f 110//497 107//500 382//496 
f 112//494 109//498 381//493 
f 114//491 111//495 380//490 
f 116//488 113//492 379//487 
f 118//485 115//489 378//484 
f 120//482 117//486 377//481 
f 122//479 119//483 376//478 
f 124//476 121//480 375//475 
f 127//473 123//477 374//472 
f 126//470 125//474 373//469 
f 129//467 128//471 372//466 
f 131//464 130//468 371//463 
f 133//462 132//465 370//461 
f 138//456 135//458 368//455 
f 137//453 136//457 367//452 
f 140//450 139//454 366//449 
f 143//447 141//451 365//446 
f 145//444 142//448 364//443 
f 147//441 144//445 363//440 
f 149//438 146//442 362//437 
f 92//435 148//439 361//434 
f 94//432 91//436 360//431 
f 96//429 93//433 359//428 
f 98//426 95//430 358//425 
f 100//423 97//427 357//422 
f 102//420 99//424 356//419 
f 104//417 101//421 355//416 
f 106//414 103//418 353//412 
o mesh4
f 382//501 354//502 413//503 
f 414//504 413//503 415//505 
f 416//506 415//505 417//507 
f 418//508 417//507 419//509 
f 420//510 419//509 421//511 
f 422//512 421//511 423//513 
f 424//514 423//513 383//515 
f 381//516 382//501 414//504 
f 425//517 414//504 416//506 
f 426//518 416//506 418//508 
f 427//519 418//508 420//510 
f 428//520 420//510 422//512 
f 429//521 422//512 424//514 
f 430//522 424//514 384//523 
f 380//524 381//516 425//517 
f 431//525 425//517 426//518 
f 432//526 426//518 427//519 
f 433//527 427//519 428//520 
f 434//528 428//520 429//521 
f 435//529 429//521 430//522 
f 436//530 430//522 385//531 
f 379//532 380//524 431//525 
f 437//533 431//525 432//526 
f 438//534 432//526 433//527 
f 439//535 433//527 434//528 
f 440//536 434//528 435//529 
f 441//537 435//529 436//530 
f 442//538 436//530 386//539 
f 378//540 379//532 437//533 
f 443//541 437//533 438//534 
f 444//542 438//534 439//535 
f 445//543 439//535 440//536 
f 446//544 440//536 441//537 
f 447//545 441//537 442//538 
f 448//546 442//538 387//547 
f 377//548 378//540 443//541 
f 449//549 443//541 444//542 
f 450//550 444//542 445//543 
f 451//551 445//543 446//544 
f 452//552 446//544 447//545 
f 453//553 447//545 448//546 
f 454//554 448//546 388//555 
f 376//556 377//548 449//549 
f 455//557 449//549 450//550 
f 456//558 450//550 451//551 
f 457//559 451//551 452//552 
f 458//560 452//552 453//553 
f 459//561 453//553 454//554 
f 460//562 454//554 389//563 
f 375//564 376//556 455//557 
f 461//565 455//557 456//558 
f 462//566 456//558 457//559 
f 463//567 457//559 458//560 
f 464//568 458//560 459//561 
f 465//569 459//561 460//562 
f 466//570 460//562 390//571 
f 374//572 375//564 461//565 
f 467//573 461//565 462//566 
f 468//574 462//566 463//567 
f 469//575 463//567 464//568 
f 470//576 464//568 465//569 
f 471//577 465//569 466//570 
f 472//578 466//570 391//579 
f 373//580 374//572 467//573 
f 473//581 467//573 468//574 
f 474//582 468//574 469//575 
f 475//583 469//575 470//576 
f 476//584 470//576 471//577 
f 477//585 471//577 472//578 
f 478//586 472//578 392//587 
f 372//588 373//580 473//581 
f 479//589 473//581 474//582 
f 480//590 474//582 475//583 
f 481//591 475//583 476//584 
f 482//592 476//584 477//585 
f 483//593 477//585 478//586 
f 484//594 478//586 393//595 
f 371//596 372//588 479//589 
f 485//597 479//589 480//590 
f 486//598 480//590 481//591 
f 487//599 481//591 482//592 
f 488//600 482//592 483//593 
f 489//601 483//593 484//594 
f 490//602 484//594 394//603 
f 370//604 371//596 485//597 
f 491//605 485//597 486//598 
f 492//606 486//598 487//599 
f 493//607 487//599 488//600 
f 494//608 488//600 489//601 
f 495//609 489//601 490//602 
f 496//610 490//602 395//611 
f 369//612 370//604 491//605 
f 497//613 491//605 492//606 
f 498//614 492//606 493//607 
f 499//615 493//607 494//608 
f 500//616 494//608 495//609 
f 501//617 495//609 496//610 
f 502//618 496//610 396//619 
f 497//613 503//620 368//621 
f 503//620 367//622 368//621 
f 503//620 497//613 498//614 
f 504//623 498//614 499//615 
f 505//624 499//615 500//616 
f 506//625 500//616 501//617 
f 507//626 501//617 502//618 
f 502//618 397//627 398//628 
f 398//628 508//629 502//618 
f 366//630 367//622 503//620 
f 509//631 503//620 504//623 
f 510//632 504//623 505//624 
f 511//633 505//624 506//625 
f 512//634 506//625 507//626 
f 513//635 507//626 508//629 
f 514//636 508//629 399//637 
f 365//638 366//630 509//631 
f 515//639 509//631 510//632 
f 516//640 510//632 511//633 
f 517//641 511//633 512//634 
f 518//642 512//634 513//635 
f 519//643 513//635 514//636 
f 520//644 514//636 400//645 
f 364//646 365//638 515//639 
f 521//647 515//639 516//640 
f 522//648 516//640 517//641 
f 523//649 517//641 518//642 
f 524//650 518//642 519//643 
f 525//651 519//643 520//644 
f 526//652 520//644 401//653 
f 363//654 364//646 521//647 
f 527//655 521//647 522//648 
f 528//656 522//648 523//649 
f 529//657 523//649 524//650 
f 530//658 524//650 525//651 
f 531//659 525//651 526//652 
f 532//660 526//652 402//661 
f 362//662 363//654 527//655 
f 533//663 527//655 528//656 
f 534//664 528//656 529//657 
f 535//665 529//657 530//658 
f 536//666 530//658 531//659 
f 537//667 531//659 532//660 
f 538//668 532//660 403//669 
f 361//670 362//662 533//663 
f 539//671 533//663 534//664 
f 540//672 534//664 535//665 
f 541//673 535//665 536//666 
f 542//674 536//666 537//667 
f 543//675 537//667 538//668 
f 544//676 538//668 404//677 
f 360//678 361//670 539//671 
f 545//679 539//671 540//672 
f 546//680 540//672 541//673 
f 547//681 541//673 542//674 
f 548//682 542//674 543//675 
f 549//683 543//675 544//676 
f 550//684 544//676 405//685 
f 359//686 360//678 545//679 
f 551//687 545//679 546//680 
f 552//688 546//680 547//681 
f 553//689 547//681 548//682 
f 554//690 548//682 549//683 
f 555//691 549//683 550//684 
f 556//692 550//684 406//693 
f 358//694 359//686 551//687 
f 557//695 551//687 552//688 
f 558//696 552//688 553//689 
f 559//697 553//689 554//690 
f 560//698 554//690 555//691 
f 561//699 555//691 556//692 
f 562//700 556//692 407//701 
f 357//702 358//694 557//695 
f 563//703 557//695 558//696 
f 564//704 558//696 559//697 
f 565//705 559//697 560//698 
f 566//706 560//698 561//699 
f 567//707 561//699 562//700 
f 568//708 562//700 408//709 
f 356//710 357//702 563//703 
f 569//711 563//703 564//704 
f 570//712 564//704 565//705 
f 571//713 565//705 566//706 
f 572//714 566//706 567//707 
f 573//715 567//707 568//708 
f 574//716 568//708 409//717 
f 355//718 356//710 569//711 
f 575//719 569//711 570//712 
f 576//720 570//712 571//713 
f 577//721 571//713 572//714 
f 578//722 572//714 573//715 
f 579//723 573//715 574//716 
f 580//724 574//716 410//725 
f 353//726 355//718 575//719 
f 581//727 575//719 576//720 
f 582//728 576//720 577//721 
f 583//729 577//721 578//722 
f 584//730 578//722 579//723 
f 585//731 579//723 580//724 
f 586//732 580//724 411//733 
f 354//502 353//726 581//727 
f 413//503 581//727 582//728 
f 415//505 582//728 583//729 
f 417//507 583//729 584//730 
f 419//509 584//730 585//731 
f 421//511 585//731 586//732 
f 423//513 586//732 412//734 
f 412//734 383//515 423//513 
f 586//732 423//513 421//511 
f 585//731 421//511 419//509 
f 584//730 419//509 417//507 
f 583//729 417//507 415//505 
f 582//728 415//505 413//503 
f 581//727 413//503 354//502 
f 411//733 412//734 586//732 
f 580//724 586//732 585//731 
f 579//723 585//731 584//730 
f 578//722 584//730 583//729 
f 577//721 583//729 582//728 
f 576//720 582//728 581//727 
f 575//719 581//727 353//726 
f 410//725 411//733 580//724 
f 574//716 580//724 579//723 
f 573//715 579//723 578//722 
f 572//714 578//722 577//721 
f 571//713 577//721 576//720 
f 570//712 576//720 575//719 
f 569//711 575//719 355//718 
f 409//717 410//725 574//716 
f 568//708 574//716 573//715 
f 567//707 573//715 572//714 
f 566//706 572//714 571//713 
f 565//705 571//713 570//712 
f 564//704 570//712 569//711 
f 563//703 569//711 356//710 
f 408//709 409//717 568//708 
f 562//700 568//708 567//707 
f 561//699 567//707 566//706 
f 560//698 566//706 565//705 
f 559//697 565//705 564//704 
f 558//696 564//704 563//703 
f 557//695 563//703 357//702 
f 407//701 408//709 562//700 
f 556//692 562//700 561//699 
f 555//691 561//699 560//698 
f 554//690 560//698 559//697 
f 553//689 559//697 558//696 
f 552//688 558//696 557//695 
f 551//687 557//695 358//694 
f 406//693 407//701 556//692 
f 550//684 556//692 555//691 
f 549//683 555//691 554//690 
f 548//682 554//690 553//689 
f 547//681 553//689 552//688 
f 546//680 552//688 551//687 
f 545//679 551//687 359//686 
f 405//685 406//693 550//684 
f 544//676 550//684 549//683 
f 543//675 549//683 548//682 
f 542//674 548//682 547//681 
f 541//673 547//681 546//680 
f 540//672 546//680 545//679 
f 539//671 545//679 360//678 
f 404//677 405//685 544//676 
f 538//668 544//676 543//675 
f 537//667 543//675 542//674 
f 536//666 542//674 541//673 
f 535//665 541//673 540//672 
f 534//664 540//672 539//671 
f 533//663 539//671 361//670 
f 403//669 404//677 538//668 
f 532//660 538//668 537//667 
f 531//659 537//667 536//666 
f 530//658 536//666 535//665 
f 529//657 535//665 534//664 
f 528//656 534//664 533//663 
f 527//655 533//663 362//662 
f 402//661 403//669 532//660 
f 526//652 532//660 531//659 
f 525//651 531//659 530//658 
f 524//650 530//658 529//657 
f 523//649 529//657 528//656 
f 522//648 528//656 527//655 
f 521//647 527//655 363//654 
f 401//653 402//661 526//652 
f 520//644 526//652 525//651 
f 519//643 525//651 524//650 
f 518//642 524//650 523//649 
f 517//641 523//649 522//648 
f 516//640 522//648 521//647 
f 515//639 521//647 364//646 
f 400//645 401//653 520//644 
f 514//636 520//644 519//643 
f 513//635 519//643 518//642 
f 512//634 518//642 517//641 
f 511//633 517//641 516//640 
f 510//632 516//640 515//639 
f 509//631 515//639 365//638 
f 399//637 400//645 514//636 
f 508//629 514//636 513//635 
f 507//626 513//635 512//634 
f 506//625 512//634 511//633 
f 505//624 511//633 510//632 
f 504//623 510//632 509//631 
f 503//620 509//631 366//630 
f 398//628 399//637 508//629 
f 502//618 508//629 507//626 
f 501//617 507//626 506//625 
f 500//616 506//625 505//624 
f 499//615 505//624 504//623 
f 498//614 504//623 503//620 
f 368//621 369//612 497//613 
f 396//619 397//627 502//618 
f 496//610 502//618 501//617 
f 495//609 501//617 500//616 
f 494//608 500//616 499//615 
f 493//607 499//615 498//614 
f 492//606 498//614 497//613 
f 491//605 497//613 369//612 
f 395//611 396//619 496//610 
f 490//602 496//610 495//609 
f 489//601 495//609 494//608 
f 488//600 494//608 493//607 
f 487//599 493//607 492//606 
f 486//598 492//606 491//605 
f 485//597 491//605 370//604 
f 394//603 395//611 490//602 
f 484//594 490//602 489//601 
f 483//593 489//601 488//600 
f 482//592 488//600 487//599 
f 481//591 487//599 486//598 
f 480//590 486//598 485//597 
f 479//589 485//597 371//596 
f 393//595 394//603 484//594 
f 478//586 484//594 483//593 
f 477//585 483//593 482//592 
f 476//584 482//592 481//591 
f 475//583 481//591 480//590 
f 474//582 480//590 479//589 
f 473//581 479//589 372//588 
f 392//587 393//595 478//586 
f 472//578 478//586 477//585 
f 471//577 477//585 476//584 
f 470//576 476//584 475//583 
f 469//575 475//583 474//582 
f 468//574 474//582 473//581 
f 467//573 473//581 373//580 
f 391//579 392//587 472//578 
f 466//570 472//578 471//577 
f 465//569 471//577 470//576 
f 464//568 470//576 469//575 
f 463//567 469//575 468//574 
f 462//566 468//574 467//573 
f 461//565 467//573 374//572 
f 390//571 391//579 466//570 
f 460//562 466//570 465//569 
f 459//561 465//569 464//568 
f 458//560 464//568 463//567 
f 457//559 463//567 462//566 
f 456//558 462//566 461//565 
f 455//557 461//565 375//564 
f 389//563 390//571 460//562 
f 454//554 460//562 459//561 
f 453//553 459//561 458//560 
f 452//552 458//560 457//559 
f 451//551 457//559 456//558 
f 450//550 456//558 455//557 
f 449//549 455//557 376//556 
f 388//555 389//563 454//554 
f 448//546 454//554 453//553 
f 447//545 453//553 452//552 
f 446//544 452//552 451//551 
f 445//543 451//551 450//550 
f 444//542 450//550 449//549 
f 443//541 449//549 377//548 
f 387//547 388//555 448//546 
f 442//538 448//546 447//545 
f 441//537 447//545 446//544 
f 440//536 446//544 445//543 
f 439//535 445//543 444//542 
f 438//534 444//542 443//541 
f 437//533 443//541 378//540 
f 386//539 387//547 442//538 
f 436//530 442//538 441//537 
f 435//529 441//537 440//536 
f 434//528 440//536 439//535 
f 433//527 439//535 438//534 
f 432//526 438//534 437//533 
f 431//525 437//533 379//532 
f 385//531 386//539 436//530 
f 430//522 436//530 435//529 
f 429//521 435//529 434//528 
f 428//520 434//528 433//527 
f 427//519 433//527 432//526 
f 426//518 432//526 431//525 
f 425//517 431//525 380//524 
f 384//523 385//531 430//522 
f 424//514 430//522 429//521 
f 422//512 429//521 428//520 
f 420//510 428//520 427//519 
f 418//508 427//519 426//518 
f 416//506 426//518 425//517 
f 414//504 425//517 381//516 
f 383//515 384//523 424//514 
f 423//513 424//514 422//512 
f 421//511 422//512 420//510 
f 419//509 420//510 418//508 
f 417//507 418//508 416//506 
f 415//505 416//506 414//504 
f 413//503 414//504 382//501 
o mesh5
f 587//735 383//735 412//734 
f 588//734 412//734 411//736 
f 589//736 411//736 410//737 
f 590//737 410//737 409//738 
f 591//738 409//738 408//739 
f 592//739 408//739 407//740 
f 593//740 407//740 406//741 
f 594//741 406//741 405//742 
f 595//742 405//742 404//743 
f 596//743 404//743 403//744 
f 597//744 403//744 402//745 
f 598//745 402//745 401//746 
f 599//746 401//746 400//747 
f 600//747 400//747 399//748 
f 601//749 602//750 398//750 
f 399//748 398//750 602//750 
f 602//750 603//751 399//748 
f 601//749 397//752 396//753 
f 604//753 396//753 395//754 
f 605//754 395//754 394//755 
f 606//755 394//755 393//756 
f 607//756 393//756 392//757 
f 608//757 392//757 391//758 
f 609//758 391//758 390//759 
f 610//759 390//759 389//760 
f 611//760 389//760 388//761 
f 612//761 388//761 387//762 
f 613//762 387//762 386//763 
f 614//763 386//763 385//764 
f 615//764 385//764 384//765 
f 616//765 384//765 383//735 
f 383//735 587//735 616//765 
f 384//765 616//765 615//764 
f 385//764 615//764 614//763 
f 386//763 614//763 613//762 
f 387//762 613//762 612//761 
f 388//761 612//761 611//760 
f 389//760 611//760 610//759 
f 390//759 610//759 609//758 
f 391//758 609//758 608//757 
f 392//757 608//757 607//756 
f 393//756 607//756 606//755 
f 394//755 606//755 605//754 
f 395//754 605//754 604//753 
f 396//753 604//753 601//749 
f 398//750 397//752 601//749 
f 399//748 603//751 600//747 
f 400//747 600//747 599//746 
f 401//746 599//746 598//745 
f 402//745 598//745 597//744 
f 403//744 597//744 596//743 
f 404//743 596//743 595//742 
f 405//742 595//742 594//741 
f 406//741 594//741 593//740 
f 407//740 593//740 592//739 
f 408//739 592//739 591//738 
f 409//738 591//738 590//737 
f 410//737 590//737 589//736 
f 411//736 589//736 588//734 
f 412//734 588//734 587//735 
o mesh6
f 617//766 601//766 604//766 
f 604//766 605//766 617//766 
f 605//766 606//766 617//766 
f 606//766 607//766 617//766 
f 607//766 608//766 617//766 
f 608//766 609//766 617//766 
f 609//766 610//766 617//766 
f 610//766 611//766 617//766 
f 611//766 612//766 617//766 
f 612//766 613//766 617//766 
f 613//766 614//766 617//766 
f 614//766 615//766 617//766 
f 615//766 616//766 617//766 
f 616//766 587//766 617//766 
f 587//766 588//766 617//766 
f 588//766 589//766 617//766 
f 589//766 590//766 617//766 
f 590//766 591//766 617//766 
f 591//766 592//766 617//766 
f 592//766 593//766 617//766 
f 593//766 594//766 617//766 
f 594//766 595//766 617//766 
f 595//766 596//766 617//766 
f 596//766 597//766 617//766 
f 597//766 598//766 617//766 
f 598//766 599//766 617//766 
f 599//766 600//766 617//766 
f 600//766 603//766 617//766 
f 603//766 602//766 617//766 
f 602//766 601//766 617//766 
