####
#
# OBJ File Generated by Meshlab
#
####
# Object basic_geo_channelless.obj
#
# Vertices: 80
# Faces: 164
#
####
mtllib ./basic_geo_channelless.obj.mtl

vn -0.2871051 0.4342539 0.8538117
v -0.0769060 -0.1400000 0.4414370
vn -0.2871051 0.4342545 -0.8538113
v -0.0769060 -0.1400000 0.0085628
vn 0.2871053 0.4342547 -0.8538111
v -0.1230940 -0.1400000 0.0085628
vn 0.2871072 0.4342532 0.8538113
v -0.1230940 -0.1400000 0.4414370
vn 0.5445269 -0.0617518 -0.8364671
v -0.1461880 -0.1000000 0.0061163
vn 0.5445244 -0.0617522 0.8364687
v -0.1461880 -0.1000000 0.4438840
vn 0.2582954 -0.5080358 -0.8216953
v -0.1230940 -0.0600000 0.0036698
vn 0.2582968 -0.5080366 0.8216944
v -0.1230940 -0.0600000 0.4463300
vn -0.2582955 -0.5080360 -0.8216951
v -0.0769060 -0.0600000 0.0036698
vn -0.2582993 -0.5080358 0.8216941
v -0.0769060 -0.0600000 0.4463300
vn -0.5445269 -0.0617519 -0.8364671
v -0.0538120 -0.1000000 0.0061163
vn -0.5445192 -0.0617605 0.8364715
v -0.0538120 -0.1000000 0.4438840
vn -0.1817123 -0.7261739 0.6630627
v -0.0627545 -1.5483500 0.3552990
vn -0.0387869 -0.7480602 0.6624964
v -0.0527360 -1.5499300 0.3552030
vn 0.1054384 -0.7414238 0.6627017
v -0.0426050 -1.5494500 0.3552320
vn 0.2453743 -0.7067038 0.6635971
v -0.0327782 -1.5469401 0.3553850
vn -0.3173605 -0.6765243 0.6645278
v -0.0722482 -1.5447800 0.3555170
vn 0.3760931 -0.6447275 0.6654926
v -0.0236600 -1.5425000 0.3556570
vn -0.4407736 -0.6009330 0.6667820
v -0.0808265 -1.5393699 0.3558480
vn 0.4921715 -0.5580530 0.6680899
v -0.0156256 -1.5363100 0.3560350
vn -0.5472856 -0.5019745 0.6697016
v -0.0881364 -1.5323400 0.3562780
vn 0.5240873 0.4840898 0.7007065
v -0.0263604 -0.0263604 0.4483880
vn 0.4131305 0.5781231 0.7036313
v -0.0399987 -0.0151677 0.4490720
vn 0.5892594 -0.4496065 0.6712878
v -0.0090055 -1.5286300 0.3565050
vn -0.6319540 -0.3835745 0.6734276
v -0.0938771 -1.5239701 0.3567900
vn 0.6138445 0.3703388 0.6971687
v -0.0151677 -0.0399987 0.4475540
vn 0.6790442 0.2416737 0.6931758
v -0.0068508 -0.0555585 0.4466020
vn 0.7174460 0.1033570 0.6889039
v -0.0017293 -0.0724419 0.4455690
vn 0.6628571 -0.3236268 0.6751935
v -0.0040722 -1.5197600 0.3570470
vn -0.6689799 -0.2831721 0.6872260
v -0.0978125 -1.5146301 0.3573610
vn 0.7179564 -0.0059341 0.6960628
v 0.0000000 -0.0900000 0.4444950
vn 0.0362489 0.6952917 0.7178130
v -0.0900000 0.0000000 0.4500000
vn -0.5742055 0.5609670 0.5963255
v -0.5000000 0.0000000 0.4500000
vn 0.2852672 0.6483880 0.7058440
v -0.0555585 -0.0068508 0.4495810
vn 0.1456508 0.6918491 0.7071992
v -0.0724419 -0.0017293 0.4498940
vn 0.7162756 -0.0774139 0.6935103
v 0.0000000 -1.5000000 0.3582560
vn 0.7100910 -0.1850595 0.6793554
v -0.0010286 -1.5100899 0.3576390
vn -0.5445246 -0.0617522 0.8364686
v -0.3538120 -0.1000000 0.4438840
vn -0.2582969 -0.5080363 0.8216945
v -0.3769060 -0.0600000 0.4463300
vn 0.2582996 -0.5080358 0.8216940
v -0.4230940 -0.0600000 0.4463300
vn 0.2871095 0.4342532 0.8538105
v -0.4230940 -0.1400000 0.4414370
vn 0.5445247 -0.0617530 0.8364685
v -0.4461880 -0.1000000 0.4438840
vn -0.7140516 -0.0680816 0.6967748
v -0.5000000 -0.1850450 0.4386820
vn -0.7123643 -0.1464402 0.6863617
v -0.4989000 -0.1998360 0.4377780
vn -0.2871072 0.4342528 0.8538114
v -0.3769060 -0.1400000 0.4414370
vn -0.6863027 -0.2237194 0.6920536
v -0.4956250 -0.2143000 0.4368930
vn -0.1817039 -0.7262009 -0.6630354
v -0.0627545 -1.5483500 0.0947009
vn 0.2453826 -0.7066781 -0.6636215
v -0.0327782 -1.5469401 0.0946149
vn 0.1054354 -0.7415035 -0.6626129
v -0.0426050 -1.5494500 0.0947684
vn -0.0387791 -0.7481759 -0.6623662
v -0.0527360 -1.5499300 0.0947975
vn -0.3173555 -0.6765119 -0.6645428
v -0.0722482 -1.5447800 0.0944826
vn 0.3760917 -0.6447649 -0.6654572
v -0.0236600 -1.5425000 0.0943433
vn -0.4407733 -0.6009324 -0.6667827
v -0.0808265 -1.5393699 0.0941517
vn 0.4921657 -0.5580533 -0.6680939
v -0.0156256 -1.5363100 0.0939647
vn -0.5472893 -0.5019449 -0.6697207
v -0.0881364 -1.5323400 0.0937217
vn 0.5892593 -0.4496040 -0.6712896
v -0.0090055 -1.5286300 0.0934948
vn 0.2852680 0.6483931 -0.7058389
v -0.0555585 -0.0068508 0.0004190
vn 0.4131322 0.5781145 -0.7036373
v -0.0399987 -0.0151677 0.0009277
vn 0.5240989 0.4840845 -0.7007015
v -0.0263604 -0.0263604 0.0016123
vn -0.6319634 -0.3835970 -0.6734060
v -0.0938771 -1.5239701 0.0932103
vn 0.6628560 -0.3236151 -0.6752002
v -0.0040722 -1.5197600 0.0929528
vn 0.2871048 0.4342544 -0.8538115
v -0.4230940 -0.1400000 0.0085628
vn -0.7123740 -0.1464411 -0.6863515
v -0.4989000 -0.1998360 0.0122225
vn -0.7140417 -0.0680994 -0.6967833
v -0.5000000 -0.1850450 0.0113179
vn 0.6790414 0.2416815 -0.6931759
v -0.0068508 -0.0555585 0.0033981
vn 0.6138474 0.3703469 -0.6971618
v -0.0151677 -0.0399987 0.0024464
vn -0.5445272 -0.0617518 -0.8364670
v -0.3538120 -0.1000000 0.0061163
vn -0.2871052 0.4342543 -0.8538114
v -0.3769060 -0.1400000 0.0085628
vn -0.6863046 -0.2237149 -0.6920532
v -0.4956250 -0.2143000 0.0131072
vn -0.5742059 0.5609668 -0.5963253
v -0.5000000 0.0000000 0.0000000
vn 0.2582954 -0.5080359 -0.8216953
v -0.4230940 -0.0600000 0.0036698
vn 0.5445266 -0.0617521 -0.8364673
v -0.4461880 -0.1000000 0.0061163
vn -0.6689691 -0.2831875 -0.6872302
v -0.0978125 -1.5146301 0.0926386
vn 0.7100985 -0.1850600 -0.6793475
v -0.0010286 -1.5100899 0.0923611
vn -0.2582955 -0.5080358 -0.8216953
v -0.3769060 -0.0600000 0.0036698
vn 0.0362448 0.6952944 -0.7178105
v -0.0900000 0.0000000 0.0000000
vn 0.7174385 0.1033642 -0.6889107
v -0.0017293 -0.0724419 0.0044307
vn 0.7179527 -0.0059309 -0.6960666
v 0.0000000 -0.0900000 0.0055046
vn 0.7162746 -0.0774202 -0.6935105
v 0.0000000 -1.5000000 0.0917439
vn 0.1456494 0.6918459 -0.7072026
v -0.0724419 -0.0017293 0.0001058
# 80 vertices, 0 vertices normals


usemtl material_0
f 1//1 2//2 3//3
f 3//3 4//4 1//1
f 5//5 6//6 4//4
f 4//4 3//3 5//5
f 7//7 8//8 6//6
f 6//6 5//5 7//7
f 8//8 7//7 9//9
f 9//9 10//10 8//8
f 9//9 11//11 12//12
f 12//12 10//10 9//9
f 11//11 2//2 1//1
f 1//1 12//12 11//11
f 13//13 14//14 15//15
f 16//16 17//17 13//13
f 15//15 16//16 13//13
f 18//18 19//19 17//17
f 16//16 18//18 17//17
f 20//20 21//21 19//19
f 18//18 20//20 19//19
f 10//10 22//22 23//23
f 24//24 25//25 21//21
f 10//10 26//26 22//22
f 20//20 24//24 21//21
f 10//10 27//27 26//26
f 12//12 28//28 27//27
f 29//29 30//30 25//25
f 27//27 10//10 12//12
f 24//24 29//29 25//25
f 31//31 12//12 1//1
f 12//12 31//31 28//28
f 32//32 33//33 8//8
f 10//10 34//34 35//35
f 4//4 30//30 36//36
f 29//29 37//37 30//30
f 23//23 34//34 10//10
f 35//35 32//32 10//10
f 4//4 6//6 38//38
f 8//8 39//39 38//38
f 37//37 36//36 30//30
f 8//8 10//10 32//32
f 38//38 6//6 8//8
f 33//33 40//40 39//39
f 41//41 42//42 43//43
f 1//1 36//36 31//31
f 39//39 8//8 33//33
f 33//33 43//43 42//42
f 43//43 44//44 41//41
f 38//38 45//45 4//4
f 44//44 46//46 41//41
f 30//30 45//45 41//41
f 42//42 40//40 33//33
f 30//30 4//4 45//45
f 41//41 46//46 30//30
f 36//36 1//1 4//4
f 47//47 48//48 49//49
f 49//49 50//50 47//47
f 51//51 52//52 48//48
f 47//47 51//51 48//48
f 53//53 54//54 52//52
f 51//51 53//53 52//52
f 55//55 56//56 54//54
f 9//9 57//57 58//58
f 53//53 55//55 54//54
f 58//58 59//59 9//9
f 60//60 61//61 56//56
f 62//62 63//63 64//64
f 11//11 9//9 65//65
f 59//59 66//66 9//9
f 55//55 60//60 56//56
f 7//7 5//5 67//67
f 3//3 68//68 67//67
f 62//62 69//69 63//63
f 70//70 71//71 72//72
f 66//66 65//65 9//9
f 73//73 74//74 61//61
f 75//75 76//76 7//7
f 67//67 5//5 3//3
f 9//9 7//7 76//76
f 73//73 69//69 62//62
f 72//72 64//64 70//70
f 65//65 77//77 11//11
f 78//78 79//79 2//2
f 73//73 79//79 74//74
f 3//3 2//2 79//79
f 3//3 73//73 68//68
f 76//76 80//80 9//9
f 64//64 72//72 62//62
f 70//70 76//76 75//75
f 2//2 11//11 78//78
f 79//79 73//73 3//3
f 80//80 57//57 9//9
f 75//75 71//71 70//70
f 60//60 73//73 61//61
f 62//62 68//68 73//73
f 67//67 75//75 7//7
f 77//77 78//78 11//11
f 67//67 68//68 45//45
f 45//45 38//38 67//67
f 45//45 68//68 62//62
f 62//62 41//41 45//45
f 72//72 42//42 41//41
f 41//41 62//62 72//72
f 71//71 40//40 42//42
f 42//42 72//72 71//71
f 40//40 71//71 75//75
f 75//75 39//39 40//40
f 33//33 70//70 64//64
f 64//64 43//43 33//33
f 63//63 69//69 46//46
f 43//43 64//64 63//63
f 63//63 44//44 43//43
f 46//46 44//44 63//63
f 46//46 69//69 73//73
f 73//73 30//30 46//46
f 79//79 36//36 37//37
f 74//74 37//37 29//29
f 29//29 24//24 56//56
f 56//56 24//24 20//20
f 54//54 20//20 18//18
f 18//18 16//16 48//48
f 48//48 16//16 15//15
f 15//15 14//14 50//50
f 47//47 50//50 14//14
f 17//17 51//51 47//47
f 53//53 51//51 17//17
f 21//21 55//55 53//53
f 60//60 55//55 21//21
f 30//30 73//73 60//60
f 60//60 25//25 30//30
f 21//21 25//25 60//60
f 53//53 19//19 21//21
f 17//17 19//19 53//53
f 47//47 13//13 17//17
f 14//14 13//13 47//47
f 50//50 49//49 15//15
f 15//15 49//49 48//48
f 48//48 52//52 18//18
f 18//18 52//52 54//54
f 20//20 54//54 56//56
f 56//56 61//61 29//29
f 29//29 61//61 74//74
f 37//37 74//74 79//79
f 78//78 31//31 36//36
f 36//36 79//79 78//78
f 32//32 35//35 80//80
f 80//80 35//35 34//34
f 57//57 34//34 23//23
f 58//58 23//23 22//22
f 22//22 26//26 66//66
f 66//66 26//26 27//27
f 27//27 28//28 77//77
f 77//77 28//28 31//31
f 31//31 78//78 77//77
f 77//77 65//65 27//27
f 27//27 65//65 66//66
f 66//66 59//59 22//22
f 22//22 59//59 58//58
f 23//23 58//58 57//57
f 34//34 57//57 80//80
f 80//80 76//76 32//32
f 75//75 67//67 38//38
f 38//38 39//39 75//75
f 32//32 76//76 70//70
f 70//70 33//33 32//32
# 164 faces, 0 coords texture

# End of File
