# OBJ generated by ONSHAPE BY PTC INC, 1.216 Units = meters
mtllib SelectorDirichlet.mtl
g SelectorDirichlet
v 0.0305 0.0002 -0.0305 
v 0.0305 -0.0002 -0.0305 
v -0.0305 -0.0002 -0.0305 
v -0.0305 0.0002 -0.0305 
v 0.0305 0.0002 0.0305 
v 0.0305 -0.0002 0.0305 
v -0.0305 0.0002 0.0305 
v -0.0305 -0.0002 0.0305 
vn 1.13752e-16 0 -1 
vn 1 0 -1.13752e-16 
vn -1.13752e-16 0 1 
vn -1 0 1.13752e-16 
vn 0 1 0 
vn 0 -1 0 
usemtl 0.615686_0.811765_0.929412_0.000000_0.000000
o mesh0
f 1//1 2//1 3//1 
f 3//1 4//1 1//1 
o mesh1
f 5//2 6//2 2//2 
f 2//2 1//2 5//2 
o mesh2
f 7//3 8//3 6//3 
f 6//3 5//3 7//3 
o mesh3
f 4//4 3//4 8//4 
f 8//4 7//4 4//4 
o mesh4
f 5//5 1//5 4//5 
f 4//5 7//5 5//5 
o mesh5
f 8//6 3//6 2//6 
f 2//6 6//6 8//6 
