# OBJ generated by ONSHAPE BY PTC INC, 1.209 Units = meters
mtllib ThighpadRemake - selectorPoke8.mtl
g selectorPoke8
v -0.00368012 0.015 0.0209821 
v -0.00368012 0.013 0.0209821 
v -0.00297728 0.013 0.0231452 
v -0.00297728 0.015 0.0231452 
v -0.00113722 0.013 0.0244821 
v -0.00113722 0.015 0.0244821 
v 0.00113722 0.013 0.0244821 
v 0.00113722 0.015 0.0244821 
v 0.00297728 0.013 0.0231452 
v 0.00297728 0.015 0.0231452 
v 0.00368012 0.013 0.0209821 
v 0.00368012 0.015 0.0209821 
v 0.00297728 0.013 0.018819 
v 0.00297728 0.015 0.018819 
v 0.00113722 0.013 0.0174821 
v 0.00113722 0.015 0.0174821 
v -0.00297728 0.015 0.018819 
v -0.00113722 0.015 0.0174821 
v -0.00297728 0.013 0.018819 
v -0.00113722 0.013 0.0174821 
vn -0.951057 0 0.309017 
vn -0.587785 0 0.809017 
vn -1.52541e-15 0 1 
vn 0.587785 0 0.809017 
vn 0.951057 0 0.309017 
vn 0.951057 0 -0.309017 
vn 0.587785 0 -0.809017 
vn 0 1 0 
vn 0 -1 0 
vn 1.52541e-15 0 -1 
vn -0.587785 0 -0.809017 
vn -0.951057 0 -0.309017 
usemtl 0.647059_0.647059_0.647059_0.000000_0.000000
o mesh0
f 1//1 2//1 3//1 
f 3//1 4//1 1//1 
o mesh1
f 4//2 3//2 5//2 
f 5//2 6//2 4//2 
o mesh2
f 6//3 5//3 7//3 
f 7//3 8//3 6//3 
o mesh3
f 8//4 7//4 9//4 
f 9//4 10//4 8//4 
o mesh4
f 10//5 9//5 11//5 
f 11//5 12//5 10//5 
o mesh5
f 12//6 11//6 13//6 
f 13//6 14//6 12//6 
o mesh6
f 14//7 13//7 15//7 
f 15//7 16//7 14//7 
o mesh7
f 6//8 10//8 12//8 
f 6//8 8//8 10//8 
f 6//8 17//8 1//8 
f 6//8 16//8 18//8 
f 12//8 14//8 6//8 
f 18//8 17//8 6//8 
f 1//8 4//8 6//8 
f 14//8 16//8 6//8 
o mesh8
f 5//9 13//9 11//9 
f 5//9 19//9 20//9 
f 5//9 3//9 2//9 
f 11//9 9//9 5//9 
f 2//9 19//9 5//9 
f 5//9 15//9 13//9 
f 9//9 7//9 5//9 
f 20//9 15//9 5//9 
o mesh9
f 16//10 15//10 20//10 
f 20//10 18//10 16//10 
o mesh10
f 18//11 20//11 19//11 
f 19//11 17//11 18//11 
o mesh11
f 17//12 19//12 2//12 
f 2//12 1//12 17//12 
