# OBJ generated by ONSHAPE BY PTC INC, 1.208 Units = meters
mtllib Slab1Channel - part.mtl
g part
v 0.00315639 0.0130433 -0.01905 
v 0.00310077 0.0133825 -0.01905 
v 0.0030088 0.0137138 -0.01905 
v 0.00288155 0.0140331 -0.01905 
v 0.00272052 0.0143369 -0.01905 
v 0.0025276 0.0146214 -0.01905 
v 0.00230504 0.0148834 -0.01905 
v 0.00205545 0.0151199 -0.01905 
v 0.00178177 0.0153279 -0.01905 
v 0.0014872 0.0155052 -0.01905 
v 0.00117519 0.0156495 -0.01905 
v 0.000849402 0.0157593 -0.01905 
v 0.000513658 0.0158332 -0.01905 
v 0.000171891 0.0158703 -0.01905 
v -0.000171891 0.0158703 -0.01905 
v -0.000513658 0.0158332 -0.01905 
v -0.000849402 0.0157593 -0.01905 
v -0.00117519 0.0156495 -0.01905 
v -0.0014872 0.0155052 -0.01905 
v -0.00178177 0.0153279 -0.01905 
v -0.00205545 0.0151199 -0.01905 
v -0.00230504 0.0148834 -0.01905 
v -0.0025276 0.0146214 -0.01905 
v -0.00272052 0.0143369 -0.01905 
v -0.00288155 0.0140331 -0.01905 
v -0.0030088 0.0137138 -0.01905 
v -0.00310077 0.0133825 -0.01905 
v -0.00315639 0.0130433 -0.01905 
v -0.003175 0.0127 -0.01905 
v -0.00315639 0.0123567 -0.01905 
v -0.00310077 0.0120175 -0.01905 
v -0.0030088 0.0116862 -0.01905 
v -0.00288155 0.0113669 -0.01905 
v -0.00272052 0.0110631 -0.01905 
v -0.0025276 0.0107786 -0.01905 
v -0.00230504 0.0105166 -0.01905 
v -0.00205545 0.0102801 -0.01905 
v -0.00178177 0.0100721 -0.01905 
v -0.0014872 0.00989485 -0.01905 
v -0.00117519 0.0097505 -0.01905 
v -0.000849402 0.00964073 -0.01905 
v -0.000513658 0.00956683 -0.01905 
v -0.000171891 0.00952966 -0.01905 
v 0.000171891 0.00952966 -0.01905 
v 0.000513658 0.00956683 -0.01905 
v 0.000849402 0.00964073 -0.01905 
v 0.00117519 0.0097505 -0.01905 
v 0.0014872 0.00989485 -0.01905 
v 0.00178177 0.0100721 -0.01905 
v 0.00205545 0.0102801 -0.01905 
v 0.00230504 0.0105166 -0.01905 
v 0.0025276 0.0107786 -0.01905 
v 0.00272052 0.0110631 -0.01905 
v 0.00288155 0.0113669 -0.01905 
v 0.0030088 0.0116862 -0.01905 
v 0.00310077 0.0120175 -0.01905 
v 0.00315639 0.0123567 -0.01905 
v 0.003175 0.0127 -0.01905 
v -6.21609e-18 0.0127 -0.01905 
v 0.00315639 0.0123567 0.03175 
v 0.003175 0.0127 0.03175 
v 0.00310077 0.0120175 0.03175 
v 0.0030088 0.0116862 0.03175 
v 0.00288155 0.0113669 0.03175 
v 0.00272052 0.0110631 0.03175 
v 0.0025276 0.0107786 0.03175 
v 0.00230504 0.0105166 0.03175 
v 0.00205545 0.0102801 0.03175 
v 0.00178177 0.0100721 0.03175 
v 0.0014872 0.00989485 0.03175 
v 0.00117519 0.0097505 0.03175 
v 0.000849402 0.00964073 0.03175 
v 0.000513658 0.00956683 0.03175 
v 0.000171891 0.00952966 0.03175 
v -0.000171891 0.00952966 0.03175 
v -0.000513658 0.00956683 0.03175 
v -0.000849402 0.00964073 0.03175 
v -0.00117519 0.0097505 0.03175 
v -0.0014872 0.00989485 0.03175 
v -0.00178177 0.0100721 0.03175 
v -0.00205545 0.0102801 0.03175 
v -0.00230504 0.0105166 0.03175 
v -0.0025276 0.0107786 0.03175 
v -0.00272052 0.0110631 0.03175 
v -0.00288155 0.0113669 0.03175 
v -0.0030088 0.0116862 0.03175 
v -0.00310077 0.0120175 0.03175 
v -0.00315639 0.0123567 0.03175 
v -0.003175 0.0127 0.03175 
v -0.00315639 0.0130433 0.03175 
v -0.00310077 0.0133825 0.03175 
v -0.0030088 0.0137138 0.03175 
v -0.00288155 0.0140331 0.03175 
v -0.00272052 0.0143369 0.03175 
v -0.0025276 0.0146214 0.03175 
v -0.00230504 0.0148834 0.03175 
v -0.00205545 0.0151199 0.03175 
v -0.00178177 0.0153279 0.03175 
v -0.0014872 0.0155052 0.03175 
v -0.00117519 0.0156495 0.03175 
v -0.000849402 0.0157593 0.03175 
v -0.000513658 0.0158332 0.03175 
v -0.000171891 0.0158703 0.03175 
v 0.000171891 0.0158703 0.03175 
v 0.000513658 0.0158332 0.03175 
v 0.000849402 0.0157593 0.03175 
v 0.00117519 0.0156495 0.03175 
v 0.0014872 0.0155052 0.03175 
v 0.00178177 0.0153279 0.03175 
v 0.00205545 0.0151199 0.03175 
v 0.00230504 0.0148834 0.03175 
v 0.0025276 0.0146214 0.03175 
v 0.00272052 0.0143369 0.03175 
v 0.00288155 0.0140331 0.03175 
v 0.0030088 0.0137138 0.03175 
v 0.00310077 0.0133825 0.03175 
v 0.00315639 0.0130433 0.03175 
v -0.0381 0.0254 0.03175 
v -0.0381 0 0.03175 
v 0.0381 0.0254 0.03175 
v 0.0381 0 0.03175 
v 0.0381 0 -0.03175 
v 0.0381 0.0254 -0.03175 
v -0.0381 0 -0.03175 
v -0.0381 0.0254 -0.03175 
vn 1.82123e-16 0 1 
vn -0.994138 0.108119 1.81056e-16 
vn -1 2.44929e-16 1.82123e-16 
vn -0.976621 0.21497 1.77865e-16 
vn -0.994138 0.108119 1.81056e-16 
vn -0.947653 0.319302 1.7259e-16 
vn -0.976621 0.21497 1.77865e-16 
vn -0.907575 0.419889 1.65291e-16 
vn -0.947653 0.319302 1.7259e-16 
vn -0.856857 0.515554 1.56054e-16 
vn -0.907575 0.419889 1.65291e-16 
vn -0.796093 0.605174 1.44987e-16 
vn -0.856857 0.515554 1.56054e-16 
vn -0.725995 0.687699 1.32221e-16 
vn -0.796093 0.605174 1.44987e-16 
vn -0.647386 0.762162 1.17904e-16 
vn -0.725995 0.687699 1.32221e-16 
vn -0.561187 0.827689 1.02205e-16 
vn -0.647386 0.762162 1.17904e-16 
vn -0.468408 0.883512 8.5308e-17 
vn -0.561187 0.827689 1.02205e-16 
vn -0.370138 0.928977 6.74107e-17 
vn -0.468408 0.883512 8.5308e-17 
vn -0.267528 0.96355 4.87231e-17 
vn -0.370138 0.928977 6.74107e-17 
vn -0.161782 0.986827 2.94643e-17 
vn -0.267528 0.96355 4.87231e-17 
vn -0.0541389 0.998533 9.85995e-18 
vn -0.161782 0.986827 2.94643e-17 
vn 0.0541389 0.998533 -9.85995e-18 
vn -0.0541389 0.998533 9.85995e-18 
vn 0.161782 0.986827 -2.94643e-17 
vn 0.0541389 0.998533 -9.85995e-18 
vn 0.267528 0.96355 -4.87231e-17 
vn 0.161782 0.986827 -2.94643e-17 
vn 0.370138 0.928977 -6.74107e-17 
vn 0.267528 0.96355 -4.87231e-17 
vn 0.468408 0.883512 -8.5308e-17 
vn 0.370138 0.928977 -6.74107e-17 
vn 0.561187 0.827689 -1.02205e-16 
vn 0.468408 0.883512 -8.5308e-17 
vn 0.647386 0.762162 -1.17904e-16 
vn 0.561187 0.827689 -1.02205e-16 
vn 0.725995 0.687699 -1.32221e-16 
vn 0.647386 0.762162 -1.17904e-16 
vn 0.796093 0.605174 -1.44987e-16 
vn 0.725995 0.687699 -1.32221e-16 
vn 0.856857 0.515554 -1.56054e-16 
vn 0.796093 0.605174 -1.44987e-16 
vn 0.907575 0.419889 -1.65291e-16 
vn 0.856857 0.515554 -1.56054e-16 
vn 0.947653 0.319302 -1.7259e-16 
vn 0.907575 0.419889 -1.65291e-16 
vn 0.976621 0.21497 -1.77865e-16 
vn 0.947653 0.319302 -1.7259e-16 
vn 0.994138 0.108119 -1.81056e-16 
vn 0.976621 0.21497 -1.77865e-16 
vn 1 -1.22465e-16 -1.82123e-16 
vn 0.994138 0.108119 -1.81056e-16 
vn 0.994138 -0.108119 -1.81056e-16 
vn 1 -1.22465e-16 -1.82123e-16 
vn 0.976621 -0.21497 -1.77865e-16 
vn 0.994138 -0.108119 -1.81056e-16 
vn 0.947653 -0.319302 -1.7259e-16 
vn 0.976621 -0.21497 -1.77865e-16 
vn 0.907575 -0.419889 -1.65291e-16 
vn 0.947653 -0.319302 -1.7259e-16 
vn 0.856857 -0.515554 -1.56054e-16 
vn 0.907575 -0.419889 -1.65291e-16 
vn 0.796093 -0.605174 -1.44987e-16 
vn 0.856857 -0.515554 -1.56054e-16 
vn 0.725995 -0.687699 -1.32221e-16 
vn 0.796093 -0.605174 -1.44987e-16 
vn 0.647386 -0.762162 -1.17904e-16 
vn 0.725995 -0.687699 -1.32221e-16 
vn 0.561187 -0.827689 -1.02205e-16 
vn 0.647386 -0.762162 -1.17904e-16 
vn 0.468408 -0.883512 -8.5308e-17 
vn 0.561187 -0.827689 -1.02205e-16 
vn 0.370138 -0.928977 -6.74107e-17 
vn 0.468408 -0.883512 -8.5308e-17 
vn 0.267528 -0.96355 -4.87231e-17 
vn 0.370138 -0.928977 -6.74107e-17 
vn 0.161782 -0.986827 -2.94643e-17 
vn 0.267528 -0.96355 -4.87231e-17 
vn 0.0541389 -0.998533 -9.85995e-18 
vn 0.161782 -0.986827 -2.94643e-17 
vn -0.0541389 -0.998533 9.85995e-18 
vn 0.0541389 -0.998533 -9.85995e-18 
vn -0.161782 -0.986827 2.94643e-17 
vn -0.0541389 -0.998533 9.85995e-18 
vn -0.267528 -0.96355 4.87231e-17 
vn -0.161782 -0.986827 2.94643e-17 
vn -0.370138 -0.928977 6.74107e-17 
vn -0.267528 -0.96355 4.87231e-17 
vn -0.468408 -0.883512 8.5308e-17 
vn -0.370138 -0.928977 6.74107e-17 
vn -0.561187 -0.827689 1.02205e-16 
vn -0.468408 -0.883512 8.5308e-17 
vn -0.647386 -0.762162 1.17904e-16 
vn -0.561187 -0.827689 1.02205e-16 
vn -0.725995 -0.687699 1.32221e-16 
vn -0.647386 -0.762162 1.17904e-16 
vn -0.796093 -0.605174 1.44987e-16 
vn -0.725995 -0.687699 1.32221e-16 
vn -0.856857 -0.515554 1.56054e-16 
vn -0.796093 -0.605174 1.44987e-16 
vn -0.907575 -0.419889 1.65291e-16 
vn -0.856857 -0.515554 1.56054e-16 
vn -0.947653 -0.319302 1.7259e-16 
vn -0.907575 -0.419889 1.65291e-16 
vn -0.976621 -0.21497 1.77865e-16 
vn -0.947653 -0.319302 1.7259e-16 
vn -0.994138 -0.108119 1.81056e-16 
vn -0.976621 -0.21497 1.77865e-16 
vn 1.82123e-16 0 1 
vn 1 0 0 
vn -1.82123e-16 0 -1 
vn -1 0 0 
vn 0 1 0 
vn 0 -1 0 
usemtl 0.615686_0.811765_0.929412_0.000000_0.000000
o mesh0
f 59//1 1//1 2//1 
f 2//1 3//1 59//1 
f 3//1 4//1 59//1 
f 4//1 5//1 59//1 
f 5//1 6//1 59//1 
f 6//1 7//1 59//1 
f 7//1 8//1 59//1 
f 8//1 9//1 59//1 
f 9//1 10//1 59//1 
f 10//1 11//1 59//1 
f 11//1 12//1 59//1 
f 12//1 13//1 59//1 
f 13//1 14//1 59//1 
f 14//1 15//1 59//1 
f 15//1 16//1 59//1 
f 16//1 17//1 59//1 
f 17//1 18//1 59//1 
f 18//1 19//1 59//1 
f 19//1 20//1 59//1 
f 20//1 21//1 59//1 
f 21//1 22//1 59//1 
f 22//1 23//1 59//1 
f 23//1 24//1 59//1 
f 24//1 25//1 59//1 
f 25//1 26//1 59//1 
f 26//1 27//1 59//1 
f 27//1 28//1 59//1 
f 28//1 29//1 59//1 
f 29//1 30//1 59//1 
f 30//1 31//1 59//1 
f 31//1 32//1 59//1 
f 32//1 33//1 59//1 
f 33//1 34//1 59//1 
f 34//1 35//1 59//1 
f 35//1 36//1 59//1 
f 36//1 37//1 59//1 
f 37//1 38//1 59//1 
f 38//1 39//1 59//1 
f 39//1 40//1 59//1 
f 40//1 41//1 59//1 
f 41//1 42//1 59//1 
f 42//1 43//1 59//1 
f 43//1 44//1 59//1 
f 44//1 45//1 59//1 
f 45//1 46//1 59//1 
f 46//1 47//1 59//1 
f 47//1 48//1 59//1 
f 48//1 49//1 59//1 
f 49//1 50//1 59//1 
f 50//1 51//1 59//1 
f 51//1 52//1 59//1 
f 52//1 53//1 59//1 
f 53//1 54//1 59//1 
f 54//1 55//1 59//1 
f 55//1 56//1 59//1 
f 56//1 57//1 59//1 
f 57//1 58//1 59//1 
f 58//1 1//1 59//1 
o mesh1
f 60//2 61//3 58//3 
f 62//4 60//2 57//5 
f 63//6 62//4 56//7 
f 64//8 63//6 55//9 
f 65//10 64//8 54//11 
f 66//12 65//10 53//13 
f 67//14 66//12 52//15 
f 68//16 67//14 51//17 
f 69//18 68//16 50//19 
f 70//20 69//18 49//21 
f 71//22 70//20 48//23 
f 72//24 71//22 47//25 
f 73//26 72//24 46//27 
f 74//28 73//26 45//29 
f 75//30 74//28 44//31 
f 76//32 75//30 43//33 
f 77//34 76//32 42//35 
f 78//36 77//34 41//37 
f 79//38 78//36 40//39 
f 80//40 79//38 39//41 
f 81//42 80//40 38//43 
f 82//44 81//42 37//45 
f 83//46 82//44 36//47 
f 84//48 83//46 35//49 
f 85//50 84//48 34//51 
f 86//52 85//50 33//53 
f 87//54 86//52 32//55 
f 88//56 87//54 31//57 
f 89//58 88//56 30//59 
f 90//60 89//58 29//61 
f 91//62 90//60 28//63 
f 92//64 91//62 27//65 
f 93//66 92//64 26//67 
f 94//68 93//66 25//69 
f 95//70 94//68 24//71 
f 96//72 95//70 23//73 
f 97//74 96//72 22//75 
f 98//76 97//74 21//77 
f 99//78 98//76 20//79 
f 100//80 99//78 19//81 
f 101//82 100//80 18//83 
f 102//84 101//82 17//85 
f 103//86 102//84 16//87 
f 104//88 103//86 15//89 
f 105//90 104//88 14//91 
f 106//92 105//90 13//93 
f 107//94 106//92 12//95 
f 108//96 107//94 11//97 
f 109//98 108//96 10//99 
f 110//100 109//98 9//101 
f 111//102 110//100 8//103 
f 112//104 111//102 7//105 
f 113//106 112//104 6//107 
f 114//108 113//106 5//109 
f 115//110 114//108 4//111 
f 116//112 115//110 3//113 
f 117//114 116//112 2//115 
f 61//3 117//114 1//114 
f 1//114 58//3 61//3 
f 2//115 1//114 117//114 
f 3//113 2//115 116//112 
f 4//111 3//113 115//110 
f 5//109 4//111 114//108 
f 6//107 5//109 113//106 
f 7//105 6//107 112//104 
f 8//103 7//105 111//102 
f 9//101 8//103 110//100 
f 10//99 9//101 109//98 
f 11//97 10//99 108//96 
f 12//95 11//97 107//94 
f 13//93 12//95 106//92 
f 14//91 13//93 105//90 
f 15//89 14//91 104//88 
f 16//87 15//89 103//86 
f 17//85 16//87 102//84 
f 18//83 17//85 101//82 
f 19//81 18//83 100//80 
f 20//79 19//81 99//78 
f 21//77 20//79 98//76 
f 22//75 21//77 97//74 
f 23//73 22//75 96//72 
f 24//71 23//73 95//70 
f 25//69 24//71 94//68 
f 26//67 25//69 93//66 
f 27//65 26//67 92//64 
f 28//63 27//65 91//62 
f 29//61 28//63 90//60 
f 30//59 29//61 89//58 
f 31//57 30//59 88//56 
f 32//55 31//57 87//54 
f 33//53 32//55 86//52 
f 34//51 33//53 85//50 
f 35//49 34//51 84//48 
f 36//47 35//49 83//46 
f 37//45 36//47 82//44 
f 38//43 37//45 81//42 
f 39//41 38//43 80//40 
f 40//39 39//41 79//38 
f 41//37 40//39 78//36 
f 42//35 41//37 77//34 
f 43//33 42//35 76//32 
f 44//31 43//33 75//30 
f 45//29 44//31 74//28 
f 46//27 45//29 73//26 
f 47//25 46//27 72//24 
f 48//23 47//25 71//22 
f 49//21 48//23 70//20 
f 50//19 49//21 69//18 
f 51//17 50//19 68//16 
f 52//15 51//17 67//14 
f 53//13 52//15 66//12 
f 54//11 53//13 65//10 
f 55//9 54//11 64//8 
f 56//7 55//9 63//6 
f 57//5 56//7 62//4 
f 58//3 57//5 60//2 
o mesh2
f 118//116 91//116 92//116 
f 118//116 89//116 90//116 
f 90//116 91//116 118//116 
f 119//116 88//116 89//116 
f 119//116 86//116 87//116 
f 118//116 93//116 94//116 
f 89//116 118//116 119//116 
f 119//116 85//116 86//116 
f 120//116 113//116 114//116 
f 120//116 111//116 112//116 
f 120//116 109//116 110//116 
f 118//116 97//116 98//116 
f 92//116 93//116 118//116 
f 119//116 84//116 85//116 
f 120//116 115//116 116//116 
f 112//116 113//116 120//116 
f 120//116 108//116 109//116 
f 118//116 96//116 97//116 
f 87//116 88//116 119//116 
f 119//116 82//116 83//116 
f 116//116 117//116 120//116 
f 110//116 111//116 120//116 
f 120//116 104//116 105//116 
f 120//116 118//116 103//116 
f 118//116 95//116 96//116 
f 83//116 84//116 119//116 
f 121//116 71//116 72//116 
f 121//116 69//116 70//116 
f 121//116 65//116 66//116 
f 121//116 62//116 63//116 
f 121//116 120//116 61//116 
f 114//116 115//116 120//116 
f 120//116 106//116 107//116 
f 103//116 104//116 120//116 
f 118//116 101//116 102//116 
f 118//116 99//116 100//116 
f 94//116 95//116 118//116 
f 119//116 80//116 81//116 
f 119//116 78//116 79//116 
f 119//116 75//116 76//116 
f 119//116 121//116 74//116 
f 72//116 73//116 121//116 
f 121//116 68//116 69//116 
f 66//116 67//116 121//116 
f 63//116 64//116 121//116 
f 61//116 60//116 121//116 
f 107//116 108//116 120//116 
f 102//116 103//116 118//116 
f 98//116 99//116 118//116 
f 79//116 80//116 119//116 
f 76//116 77//116 119//116 
f 73//116 74//116 121//116 
f 67//116 68//116 121//116 
f 60//116 62//116 121//116 
f 105//116 106//116 120//116 
f 81//116 82//116 119//116 
f 74//116 75//116 119//116 
f 64//116 65//116 121//116 
f 100//116 101//116 118//116 
f 70//116 71//116 121//116 
f 77//116 78//116 119//116 
f 117//116 61//116 120//116 
o mesh3
f 120//117 121//117 122//117 
f 122//117 123//117 120//117 
o mesh4
f 123//118 122//118 124//118 
f 124//118 125//118 123//118 
o mesh5
f 125//119 124//119 119//119 
f 119//119 118//119 125//119 
o mesh6
f 125//120 118//120 120//120 
f 120//120 123//120 125//120 
o mesh7
f 122//121 121//121 119//121 
f 119//121 124//121 122//121 
