# OBJ generated by ONSHAPE BY PTC INC, 1.208 Units = meters
mtllib Slab1ChannelAirtight - selectorChannel.mtl
g selectorChannel
v 0.00434108 0.0117445 -0.02032 
v 0.00403417 0.0108336 -0.02032 
v 0.00353863 0.01001 -0.02032 
v 0.00287763 0.00931219 -0.02032 
v 0.00208208 0.00877279 -0.02032 
v 0.00118916 0.00841702 -0.02032 
v 0.000240647 0.00826152 -0.02032 
v -0.000719121 0.00831356 -0.02032 
v -0.00164526 0.0085707 -0.02032 
v -0.00249448 0.00902092 -0.02032 
v -0.00322705 0.00964318 -0.02032 
v -0.00380873 0.0104084 -0.02032 
v -0.00421232 0.0112807 -0.02032 
v -0.00441894 0.0122194 -0.02032 
v -0.00441894 0.0131806 -0.02032 
v -0.00421232 0.0141193 -0.02032 
v -0.00380873 0.0149916 -0.02032 
v -0.00322705 0.0157568 -0.02032 
v -0.00249448 0.0163791 -0.02032 
v -0.00164526 0.0168293 -0.02032 
v -0.000719121 0.0170864 -0.02032 
v 0.000240647 0.0171385 -0.02032 
v 0.00118916 0.016983 -0.02032 
v 0.00208208 0.0166272 -0.02032 
v 0.00287763 0.0160878 -0.02032 
v 0.00353863 0.01539 -0.02032 
v 0.00403417 0.0145664 -0.02032 
v 0.00434108 0.0136555 -0.02032 
v 0.004445 0.0127 -0.02032 
v -6.88107e-18 0.0127 -0.02032 
v 0.004445 0.0127 0.03302 
v 0.00434108 0.0136555 0.03302 
v 0.00403417 0.0145664 0.03302 
v 0.00353863 0.01539 0.03302 
v 0.00287763 0.0160878 0.03302 
v 0.00208208 0.0166272 0.03302 
v 0.00118916 0.016983 0.03302 
v 0.000240647 0.0171385 0.03302 
v -0.000719121 0.0170864 0.03302 
v -0.00164526 0.0168293 0.03302 
v -0.00249448 0.0163791 0.03302 
v -0.00322705 0.0157568 0.03302 
v -0.00380873 0.0149916 0.03302 
v -0.00421232 0.0141193 0.03302 
v -0.00441894 0.0131806 0.03302 
v -0.00441894 0.0122194 0.03302 
v -0.00421232 0.0112807 0.03302 
v -0.00380873 0.0104084 0.03302 
v -0.00322705 0.00964318 0.03302 
v -0.00249448 0.00902092 0.03302 
v -0.00164526 0.0085707 0.03302 
v -0.000719121 0.00831356 0.03302 
v 0.000240647 0.00826152 0.03302 
v 0.00118916 0.00841702 0.03302 
v 0.00208208 0.00877279 0.03302 
v 0.00287763 0.00931219 0.03302 
v 0.00353863 0.01001 0.03302 
v 0.00403417 0.0108336 0.03302 
v 0.00434108 0.0117445 0.03302 
v 2.83338e-18 0.0127 0.03302 
vn -1.82123e-16 0 -1 
vn 1 0 -1.82123e-16 
vn 0.976621 0.21497 -1.77865e-16 
vn 0.907575 0.419889 -1.65291e-16 
vn 0.796093 0.605174 -1.44987e-16 
vn 0.647386 0.762162 -1.17904e-16 
vn 0.468408 0.883512 -8.5308e-17 
vn 0.267528 0.96355 -4.87231e-17 
vn 0.0541389 0.998533 -9.85995e-18 
vn -0.161782 0.986827 2.94643e-17 
vn -0.370138 0.928977 6.74107e-17 
vn -0.561187 0.827689 1.02205e-16 
vn -0.725995 0.687699 1.32221e-16 
vn -0.856857 0.515554 1.56054e-16 
vn -0.947653 0.319302 1.7259e-16 
vn -0.994138 0.108119 1.81056e-16 
vn -0.994138 -0.108119 1.81056e-16 
vn -0.947653 -0.319302 1.7259e-16 
vn -0.856857 -0.515554 1.56054e-16 
vn -0.725995 -0.687699 1.32221e-16 
vn -0.561187 -0.827689 1.02205e-16 
vn -0.370138 -0.928977 6.74107e-17 
vn -0.161782 -0.986827 2.94643e-17 
vn 0.0541389 -0.998533 -9.85995e-18 
vn 0.267528 -0.96355 -4.87231e-17 
vn 0.468408 -0.883512 -8.5308e-17 
vn 0.647386 -0.762162 -1.17904e-16 
vn 0.796093 -0.605174 -1.44987e-16 
vn 0.907575 -0.419889 -1.65291e-16 
vn 0.976621 -0.21497 -1.77865e-16 
vn 1.82123e-16 0 1 
usemtl 0.647059_0.647059_0.647059_0.000000_0.000000
o mesh0
f 30//1 1//1 2//1 
f 2//1 3//1 30//1 
f 3//1 4//1 30//1 
f 4//1 5//1 30//1 
f 5//1 6//1 30//1 
f 6//1 7//1 30//1 
f 7//1 8//1 30//1 
f 8//1 9//1 30//1 
f 9//1 10//1 30//1 
f 10//1 11//1 30//1 
f 11//1 12//1 30//1 
f 12//1 13//1 30//1 
f 13//1 14//1 30//1 
f 14//1 15//1 30//1 
f 15//1 16//1 30//1 
f 16//1 17//1 30//1 
f 17//1 18//1 30//1 
f 18//1 19//1 30//1 
f 19//1 20//1 30//1 
f 20//1 21//1 30//1 
f 21//1 22//1 30//1 
f 22//1 23//1 30//1 
f 23//1 24//1 30//1 
f 24//1 25//1 30//1 
f 25//1 26//1 30//1 
f 26//1 27//1 30//1 
f 27//1 28//1 30//1 
f 28//1 29//1 30//1 
f 29//1 1//1 30//1 
o mesh1
f 31//2 29//2 28//3 
f 32//3 28//3 27//4 
f 33//4 27//4 26//5 
f 34//5 26//5 25//6 
f 35//6 25//6 24//7 
f 36//7 24//7 23//8 
f 37//8 23//8 22//9 
f 38//9 22//9 21//10 
f 39//10 21//10 20//11 
f 40//11 20//11 19//12 
f 41//12 19//12 18//13 
f 42//13 18//13 17//14 
f 43//14 17//14 16//15 
f 44//15 16//15 15//16 
f 45//16 15//16 14//17 
f 46//17 14//17 13//18 
f 47//18 13//18 12//19 
f 48//19 12//19 11//20 
f 49//20 11//20 10//21 
f 50//21 10//21 9//22 
f 51//22 9//22 8//23 
f 52//23 8//23 7//24 
f 53//24 7//24 6//25 
f 54//25 6//25 5//26 
f 55//26 5//26 4//27 
f 56//27 4//27 3//28 
f 57//28 3//28 2//29 
f 58//29 2//29 1//30 
f 59//30 1//30 29//2 
f 29//2 31//2 59//30 
f 1//30 59//30 58//29 
f 2//29 58//29 57//28 
f 3//28 57//28 56//27 
f 4//27 56//27 55//26 
f 5//26 55//26 54//25 
f 6//25 54//25 53//24 
f 7//24 53//24 52//23 
f 8//23 52//23 51//22 
f 9//22 51//22 50//21 
f 10//21 50//21 49//20 
f 11//20 49//20 48//19 
f 12//19 48//19 47//18 
f 13//18 47//18 46//17 
f 14//17 46//17 45//16 
f 15//16 45//16 44//15 
f 16//15 44//15 43//14 
f 17//14 43//14 42//13 
f 18//13 42//13 41//12 
f 19//12 41//12 40//11 
f 20//11 40//11 39//10 
f 21//10 39//10 38//9 
f 22//9 38//9 37//8 
f 23//8 37//8 36//7 
f 24//7 36//7 35//6 
f 25//6 35//6 34//5 
f 26//5 34//5 33//4 
f 27//4 33//4 32//3 
f 28//3 32//3 31//2 
o mesh2
f 60//31 32//31 33//31 
f 33//31 34//31 60//31 
f 34//31 35//31 60//31 
f 35//31 36//31 60//31 
f 36//31 37//31 60//31 
f 37//31 38//31 60//31 
f 38//31 39//31 60//31 
f 39//31 40//31 60//31 
f 40//31 41//31 60//31 
f 41//31 42//31 60//31 
f 42//31 43//31 60//31 
f 43//31 44//31 60//31 
f 44//31 45//31 60//31 
f 45//31 46//31 60//31 
f 46//31 47//31 60//31 
f 47//31 48//31 60//31 
f 48//31 49//31 60//31 
f 49//31 50//31 60//31 
f 50//31 51//31 60//31 
f 51//31 52//31 60//31 
f 52//31 53//31 60//31 
f 53//31 54//31 60//31 
f 54//31 55//31 60//31 
f 55//31 56//31 60//31 
f 56//31 57//31 60//31 
f 57//31 58//31 60//31 
f 58//31 59//31 60//31 
f 59//31 31//31 60//31 
f 31//31 32//31 60//31 
