# OBJ generated by ONSHAPE BY PTC INC, 1.208 Units = meters
mtllib Slab1ChannelAirtight - part.mtl
g part
v 0.00310077 0.0133825 -0.01905 
v 0.00288155 0.0140331 -0.01905 
v 0.0025276 0.0146214 -0.01905 
v 0.00205545 0.0151199 -0.01905 
v 0.0014872 0.0155052 -0.01905 
v 0.000849402 0.0157593 -0.01905 
v 0.000171891 0.0158703 -0.01905 
v -0.000513658 0.0158332 -0.01905 
v -0.00117519 0.0156495 -0.01905 
v -0.00178177 0.0153279 -0.01905 
v -0.00230504 0.0148834 -0.01905 
v -0.00272052 0.0143369 -0.01905 
v -0.0030088 0.0137138 -0.01905 
v -0.00315639 0.0130433 -0.01905 
v -0.00315639 0.0123567 -0.01905 
v -0.0030088 0.0116862 -0.01905 
v -0.00272052 0.0110631 -0.01905 
v -0.00230504 0.0105166 -0.01905 
v -0.00178177 0.0100721 -0.01905 
v -0.00117519 0.0097505 -0.01905 
v -0.000513658 0.00956683 -0.01905 
v 0.000171891 0.00952966 -0.01905 
v 0.000849402 0.00964073 -0.01905 
v 0.0014872 0.00989485 -0.01905 
v 0.00205545 0.0102801 -0.01905 
v 0.0025276 0.0107786 -0.01905 
v 0.00288155 0.0113669 -0.01905 
v 0.00310077 0.0120175 -0.01905 
v 0.003175 0.0127 -0.01905 
v -6.21609e-18 0.0127 -0.01905 
v 0.00310077 0.0120175 0.03175 
v 0.003175 0.0127 0.03175 
v 0.00288155 0.0113669 0.03175 
v 0.0025276 0.0107786 0.03175 
v 0.00205545 0.0102801 0.03175 
v 0.0014872 0.00989485 0.03175 
v 0.000849402 0.00964073 0.03175 
v 0.000171891 0.00952966 0.03175 
v -0.000513658 0.00956683 0.03175 
v -0.00117519 0.0097505 0.03175 
v -0.00178177 0.0100721 0.03175 
v -0.00230504 0.0105166 0.03175 
v -0.00272052 0.0110631 0.03175 
v -0.0030088 0.0116862 0.03175 
v -0.00315639 0.0123567 0.03175 
v -0.00315639 0.0130433 0.03175 
v -0.0030088 0.0137138 0.03175 
v -0.00272052 0.0143369 0.03175 
v -0.00230504 0.0148834 0.03175 
v -0.00178177 0.0153279 0.03175 
v -0.00117519 0.0156495 0.03175 
v -0.000513658 0.0158332 0.03175 
v 0.000171891 0.0158703 0.03175 
v 0.000849402 0.0157593 0.03175 
v 0.0014872 0.0155052 0.03175 
v 0.00205545 0.0151199 0.03175 
v 0.0025276 0.0146214 0.03175 
v 0.00288155 0.0140331 0.03175 
v 0.00310077 0.0133825 0.03175 
v 3.03577e-18 0.0127 0.03175 
v 0.0381 0.0254 0.0333375 
v 0.0381 0 0.0333375 
v 0.0381 0 -0.03175 
v 0.0381 0.0254 -0.03175 
v -0.0381 0 -0.03175 
v -0.0381 0.0254 -0.03175 
v -0.0381 0 0.0333375 
v -0.0381 0.0254 0.0333375 
vn 1.82123e-16 0 1 
vn -0.976621 0.21497 1.77865e-16 
vn -1 2.44929e-16 1.82123e-16 
vn -0.907575 0.419889 1.65291e-16 
vn -0.976621 0.21497 1.77865e-16 
vn -0.796093 0.605174 1.44987e-16 
vn -0.907575 0.419889 1.65291e-16 
vn -0.647386 0.762162 1.17904e-16 
vn -0.796093 0.605174 1.44987e-16 
vn -0.468408 0.883512 8.5308e-17 
vn -0.647386 0.762162 1.17904e-16 
vn -0.267528 0.96355 4.87231e-17 
vn -0.468408 0.883512 8.5308e-17 
vn -0.0541389 0.998533 9.85995e-18 
vn -0.267528 0.96355 4.87231e-17 
vn 0.161782 0.986827 -2.94643e-17 
vn -0.0541389 0.998533 9.85995e-18 
vn 0.370138 0.928977 -6.74107e-17 
vn 0.161782 0.986827 -2.94643e-17 
vn 0.561187 0.827689 -1.02205e-16 
vn 0.370138 0.928977 -6.74107e-17 
vn 0.725995 0.687699 -1.32221e-16 
vn 0.561187 0.827689 -1.02205e-16 
vn 0.856857 0.515554 -1.56054e-16 
vn 0.725995 0.687699 -1.32221e-16 
vn 0.947653 0.319302 -1.7259e-16 
vn 0.856857 0.515554 -1.56054e-16 
vn 0.994138 0.108119 -1.81056e-16 
vn 0.947653 0.319302 -1.7259e-16 
vn 0.994138 -0.108119 -1.81056e-16 
vn 0.994138 0.108119 -1.81056e-16 
vn 0.947653 -0.319302 -1.7259e-16 
vn 0.994138 -0.108119 -1.81056e-16 
vn 0.856857 -0.515554 -1.56054e-16 
vn 0.947653 -0.319302 -1.7259e-16 
vn 0.725995 -0.687699 -1.32221e-16 
vn 0.856857 -0.515554 -1.56054e-16 
vn 0.561187 -0.827689 -1.02205e-16 
vn 0.725995 -0.687699 -1.32221e-16 
vn 0.370138 -0.928977 -6.74107e-17 
vn 0.561187 -0.827689 -1.02205e-16 
vn 0.161782 -0.986827 -2.94643e-17 
vn 0.370138 -0.928977 -6.74107e-17 
vn -0.0541389 -0.998533 9.85995e-18 
vn 0.161782 -0.986827 -2.94643e-17 
vn -0.267528 -0.96355 4.87231e-17 
vn -0.0541389 -0.998533 9.85995e-18 
vn -0.468408 -0.883512 8.5308e-17 
vn -0.267528 -0.96355 4.87231e-17 
vn -0.647386 -0.762162 1.17904e-16 
vn -0.468408 -0.883512 8.5308e-17 
vn -0.796093 -0.605174 1.44987e-16 
vn -0.647386 -0.762162 1.17904e-16 
vn -0.907575 -0.419889 1.65291e-16 
vn -0.796093 -0.605174 1.44987e-16 
vn -0.976621 -0.21497 1.77865e-16 
vn -0.907575 -0.419889 1.65291e-16 
vn -1.82123e-16 0 -1 
vn 1 0 0 
vn -1 0 0 
vn 0 1 0 
vn 0 -1 0 
vn 1.82123e-16 0 1 
usemtl 0.615686_0.811765_0.929412_0.000000_0.000000
o mesh0
f 30//1 1//1 2//1 
f 2//1 3//1 30//1 
f 3//1 4//1 30//1 
f 4//1 5//1 30//1 
f 5//1 6//1 30//1 
f 6//1 7//1 30//1 
f 7//1 8//1 30//1 
f 8//1 9//1 30//1 
f 9//1 10//1 30//1 
f 10//1 11//1 30//1 
f 11//1 12//1 30//1 
f 12//1 13//1 30//1 
f 13//1 14//1 30//1 
f 14//1 15//1 30//1 
f 15//1 16//1 30//1 
f 16//1 17//1 30//1 
f 17//1 18//1 30//1 
f 18//1 19//1 30//1 
f 19//1 20//1 30//1 
f 20//1 21//1 30//1 
f 21//1 22//1 30//1 
f 22//1 23//1 30//1 
f 23//1 24//1 30//1 
f 24//1 25//1 30//1 
f 25//1 26//1 30//1 
f 26//1 27//1 30//1 
f 27//1 28//1 30//1 
f 28//1 29//1 30//1 
f 29//1 1//1 30//1 
o mesh1
f 31//2 32//3 29//3 
f 33//4 31//2 28//5 
f 34//6 33//4 27//7 
f 35//8 34//6 26//9 
f 36//10 35//8 25//11 
f 37//12 36//10 24//13 
f 38//14 37//12 23//15 
f 39//16 38//14 22//17 
f 40//18 39//16 21//19 
f 41//20 40//18 20//21 
f 42//22 41//20 19//23 
f 43//24 42//22 18//25 
f 44//26 43//24 17//27 
f 45//28 44//26 16//29 
f 46//30 45//28 15//31 
f 47//32 46//30 14//33 
f 48//34 47//32 13//35 
f 49//36 48//34 12//37 
f 50//38 49//36 11//39 
f 51//40 50//38 10//41 
f 52//42 51//40 9//43 
f 53//44 52//42 8//45 
f 54//46 53//44 7//47 
f 55//48 54//46 6//49 
f 56//50 55//48 5//51 
f 57//52 56//50 4//53 
f 58//54 57//52 3//55 
f 59//56 58//54 2//57 
f 32//3 59//56 1//56 
f 1//56 29//3 32//3 
f 2//57 1//56 59//56 
f 3//55 2//57 58//54 
f 4//53 3//55 57//52 
f 5//51 4//53 56//50 
f 6//49 5//51 55//48 
f 7//47 6//49 54//46 
f 8//45 7//47 53//44 
f 9//43 8//45 52//42 
f 10//41 9//43 51//40 
f 11//39 10//41 50//38 
f 12//37 11//39 49//36 
f 13//35 12//37 48//34 
f 14//33 13//35 47//32 
f 15//31 14//33 46//30 
f 16//29 15//31 45//28 
f 17//27 16//29 44//26 
f 18//25 17//27 43//24 
f 19//23 18//25 42//22 
f 20//21 19//23 41//20 
f 21//19 20//21 40//18 
f 22//17 21//19 39//16 
f 23//15 22//17 38//14 
f 24//13 23//15 37//12 
f 25//11 24//13 36//10 
f 26//9 25//11 35//8 
f 27//7 26//9 34//6 
f 28//5 27//7 33//4 
f 29//3 28//5 31//2 
o mesh2
f 60//58 31//58 33//58 
f 33//58 34//58 60//58 
f 34//58 35//58 60//58 
f 35//58 36//58 60//58 
f 36//58 37//58 60//58 
f 37//58 38//58 60//58 
f 38//58 39//58 60//58 
f 39//58 40//58 60//58 
f 40//58 41//58 60//58 
f 41//58 42//58 60//58 
f 42//58 43//58 60//58 
f 43//58 44//58 60//58 
f 44//58 45//58 60//58 
f 45//58 46//58 60//58 
f 46//58 47//58 60//58 
f 47//58 48//58 60//58 
f 48//58 49//58 60//58 
f 49//58 50//58 60//58 
f 50//58 51//58 60//58 
f 51//58 52//58 60//58 
f 52//58 53//58 60//58 
f 53//58 54//58 60//58 
f 54//58 55//58 60//58 
f 55//58 56//58 60//58 
f 56//58 57//58 60//58 
f 57//58 58//58 60//58 
f 58//58 59//58 60//58 
f 59//58 32//58 60//58 
f 32//58 31//58 60//58 
o mesh3
f 61//59 62//59 63//59 
f 63//59 64//59 61//59 
o mesh4
f 64//58 63//58 65//58 
f 65//58 66//58 64//58 
o mesh5
f 66//60 65//60 67//60 
f 67//60 68//60 66//60 
o mesh6
f 64//61 66//61 68//61 
f 68//61 61//61 64//61 
o mesh7
f 65//62 63//62 62//62 
f 62//62 67//62 65//62 
o mesh8
f 68//63 67//63 62//63 
f 62//63 61//63 68//63 
