# OBJ generated by ONSHAPE BY PTC INC, 1.208 Units = meters
mtllib SlabBranchingChannel - selectorChannel.mtl
g selectorChannel
v 0.00434108 0.0117445 -0.02032 
v 0.00403417 0.0108336 -0.02032 
v 0.00353863 0.01001 -0.02032 
v 0.00287763 0.00931219 -0.02032 
v 0.00208208 0.00877279 -0.02032 
v 0.00118916 0.00841702 -0.02032 
v 0.000240647 0.00826152 -0.02032 
v -0.000719121 0.00831356 -0.02032 
v -0.00164526 0.0085707 -0.02032 
v -0.00249448 0.00902092 -0.02032 
v -0.00322705 0.00964318 -0.02032 
v -0.00380873 0.0104084 -0.02032 
v -0.00421232 0.0112807 -0.02032 
v -0.00441894 0.0122194 -0.02032 
v -0.00441894 0.0131806 -0.02032 
v -0.00421232 0.0141193 -0.02032 
v -0.00380873 0.0149916 -0.02032 
v -0.00322705 0.0157568 -0.02032 
v -0.00249448 0.0163791 -0.02032 
v -0.00164526 0.0168293 -0.02032 
v -0.000719121 0.0170864 -0.02032 
v 0.000240647 0.0171385 -0.02032 
v 0.00118916 0.016983 -0.02032 
v 0.00208208 0.0166272 -0.02032 
v 0.00287763 0.0160878 -0.02032 
v 0.00353863 0.01539 -0.02032 
v 0.00403417 0.0145664 -0.02032 
v 0.00434108 0.0136555 -0.02032 
v 0.004445 0.0127 -0.02032 
v -6.88107e-18 0.0127 -0.02032 
v -0.000719121 0.0170864 0.03302 
v -0.00164526 0.0168293 0.03302 
v -0.00249448 0.0163791 0.03302 
v -0.00322705 0.0157568 0.03302 
v -0.00380873 0.0149916 0.03302 
v -0.00421232 0.0141193 0.03302 
v -0.00441894 0.0131806 0.03302 
v -0.00441894 0.0122194 0.03302 
v -0.00421232 0.0112807 0.03302 
v -0.00380873 0.0104084 0.03302 
v -0.00322705 0.00964318 0.03302 
v -0.00249448 0.00902092 0.03302 
v -0.00164526 0.0085707 0.03302 
v 0.000951684 0.0170153 -0.000951684 
v 0.00118916 0.016983 -0.00118916 
v 0.00023748 0.0171126 -0.00023748 
v 0.00185902 0.0167161 -0.00185902 
v 0.00208208 0.0166272 -0.00208208 
v 0.00267892 0.0162225 -0.00267892 
v 0.00287763 0.0160878 -0.00287763 
v 0.00337355 0.0155643 -0.00337355 
v 0.00353863 0.01539 -0.00353863 
v 0.00392721 0.0147821 -0.00392721 
v 0.00403417 0.0145664 -0.00403417 
v 0.00428298 0.0138892 -0.00428298 
v 0.00434108 0.0136555 -0.00434108 
v 0.00442873 0.01294 -0.00442873 
v 0.004445 0.0127 -0.004445 
v 0.00440431 0.0133001 -0.00440431 
v 0.00443034 0.0123392 -0.00443034 
v 0.00437678 0.0119823 -0.00437678 
v 0.00434108 0.0117445 -0.00434108 
v 0.0041293 0.0110547 -0.0041293 
v 0.00403417 0.0108336 -0.00403417 
v 0.00367908 0.0102055 -0.00367908 
v 0.00352368 0.0100226 -0.00352368 
v 0.00305682 0.00947295 -0.00305682 
v 0.0028657 0.00932766 -0.0028657 
v 0.00229164 0.00889127 -0.00229164 
v 0.00207149 0.00879657 -0.00207149 
v 0.00140931 0.00851172 -0.00140931 
v 0.00118916 0.00841702 -0.00118916 
v 0.000475489 0.00831978 -0.000475489 
v -0.000719121 0.00831356 0.03302 
v 3.70074e-18 0.008255 -6.93889e-18 
v 0.00023748 0.00828736 0.00023748 
v 0.00023748 0.00828736 -0.00023748 
v 0.000240647 0.00826152 0.03302 
v 0.000475489 0.00831978 0.000475489 
v 0.00118916 0.00841702 0.00118916 
v 0.00118916 0.00841702 0.03302 
v 0.00140931 0.00851172 0.00140931 
v 0.00207149 0.00879657 0.00207149 
v 0.00208208 0.00877279 0.03302 
v 0.00229164 0.00889127 0.00229164 
v 0.0028657 0.00932766 0.0028657 
v 0.00287763 0.00931219 0.03302 
v 0.00305682 0.00947295 0.00305682 
v 0.00352368 0.0100226 0.00352368 
v 0.00353863 0.01001 0.03302 
v 0.00367908 0.0102055 0.00367908 
v 0.00403417 0.0108336 0.00403417 
v 0.00403417 0.0108336 0.03302 
v 0.0041293 0.0110547 0.0041293 
v 0.00434108 0.0117445 0.00434108 
v 0.00434108 0.0117445 0.03302 
v 0.00443034 0.0123392 0.00443034 
v 0.00443522 0.0127001 0.00443522 
v 0.00438644 0.0119809 0.00438644 
v 0.00434108 0.0136555 0.03302 
v 0.00443848 0.0129406 0.00443848 
v 0.00440431 0.0133001 0.00440431 
v 0.004445 0.0127 0.03302 
v 0.00403417 0.0145664 0.03302 
v 0.0043315 0.0136536 0.0043315 
v 0.00428298 0.0138892 0.00428298 
v 0.00353863 0.01539 0.03302 
v 0.00403417 0.0145664 0.00403417 
v 0.00392721 0.0147821 0.00392721 
v 0.00287763 0.0160878 0.03302 
v 0.00353863 0.01539 0.00353863 
v 0.00337355 0.0155643 0.00337355 
v 0.00208208 0.0166272 0.03302 
v 0.00287763 0.0160878 0.00287763 
v 0.00267892 0.0162225 0.00267892 
v 0.00118916 0.016983 0.03302 
v 0.00208208 0.0166272 0.00208208 
v 0.00185712 0.0167099 0.00185712 
v 0.000240647 0.0171385 0.03302 
v 0.0011805 0.0169584 0.0011805 
v 0.000955544 0.0170411 0.000955544 
v 0 0.017145 0 
v 0.000238709 0.017119 0.000238709 
v 2.83338e-18 0.0127 0.03302 
v 0.02667 0.017145 0 
v 0.02667 0.0170411 0.000955544 
v 0.02667 0.0167342 0.00186641 
v 0.02667 0.0162386 0.00269 
v 0.02667 0.0155776 0.00338781 
v 0.02667 0.0147821 0.00392721 
v 0.02667 0.0138892 0.00428298 
v 0.02667 0.0129406 0.00443848 
v 0.02667 0.0119809 0.00438644 
v 0.02667 0.0110547 0.0041293 
v 0.02667 0.0102055 0.00367908 
v 0.02667 0.00947295 0.00305682 
v 0.02667 0.00889127 0.00229164 
v 0.02667 0.00848768 0.0014193 
v 0.02667 0.00828106 0.000480589 
v 0.02667 0.008255 -1.63307e-18 
v 0.02667 0.00828106 -0.000480589 
v 0.02667 0.00848768 -0.0014193 
v 0.02667 0.00889127 -0.00229164 
v 0.02667 0.00947295 -0.00305682 
v 0.02667 0.0102055 -0.00367908 
v 0.02667 0.0110547 -0.0041293 
v 0.02667 0.0119809 -0.00438644 
v 0.02667 0.0129406 -0.00443848 
v 0.02667 0.0138892 -0.00428298 
v 0.02667 0.0147821 -0.00392721 
v 0.02667 0.0155776 -0.00338781 
v 0.02667 0.0162386 -0.00269 
v 0.02667 0.0167342 -0.00186641 
v 0.02667 0.0170411 -0.000955544 
v 0.02667 0.0127 0 
vn -1.82123e-16 0 -1 
vn -0.161782 0.986827 2.94643e-17 
vn -0.370138 0.928977 6.74107e-17 
vn -0.561187 0.827689 1.02205e-16 
vn -0.725995 0.687699 1.32221e-16 
vn -0.856857 0.515554 1.56054e-16 
vn -0.947653 0.319302 1.7259e-16 
vn -0.994138 0.108119 1.81056e-16 
vn -0.994138 -0.108119 1.81056e-16 
vn -0.947653 -0.319302 1.7259e-16 
vn -0.856857 -0.515554 1.56054e-16 
vn -0.725995 -0.687699 1.32221e-16 
vn -0.561187 -0.827689 1.02205e-16 
vn -0.370138 -0.928977 6.74107e-17 
vn -0.161782 -0.986827 2.94643e-17 
vn 0.0541389 0.998533 -9.85995e-18 
vn 0.21536 0.976535 0 
vn 0.267528 0.96355 0 
vn 0.0537403 0.998555 0 
vn 0.420073 0.907491 0 
vn 0.468408 0.883512 0 
vn 0.605339 0.795968 0 
vn 0.647386 0.762162 0 
vn 0.7623 0.647224 0 
vn 0.796093 0.605174 0 
vn 0.883512 0.468408 0 
vn 0.907575 0.419889 0 
vn 0.96355 0.267528 0 
vn 0.976621 0.21497 0 
vn 0.998535 0.0541091 0 
vn 1 0 0 
vn 0.990846 0.135 0 
vn 0.976621 -0.21497 -1.77865e-16 
vn 0.996701 -0.0811587 0 
vn 0.986822 -0.161811 0 
vn 1 0 -1.82123e-16 
vn 0.907575 -0.419889 -1.65291e-16 
vn 0.976621 -0.21497 0 
vn 0.928977 -0.370138 0 
vn 0.796093 -0.605174 -1.44987e-16 
vn 0.907575 -0.419889 0 
vn 0.827689 -0.561187 0 
vn 0.647386 -0.762162 -1.17904e-16 
vn 0.796223 -0.605003 0 
vn 0.687699 -0.725995 0 
vn 0.468408 -0.883512 -8.5308e-17 
vn 0.647545 -0.762027 0 
vn 0.515554 -0.856857 0 
vn 0.267528 -0.96355 -4.87231e-17 
vn 0.468766 -0.883322 0 
vn 0.318918 -0.947782 0 
vn 0.0541389 -0.998533 -9.85995e-18 
vn 0.267528 -0.96355 0 
vn 0.10792 -0.99416 0 
vn -0.161782 -0.986827 2.94643e-17 
vn -1.83697e-16 -1 0 
vn 0.0537403 -0.998555 0 
vn 0.0541389 -0.998533 -9.85995e-18 
vn 0.10792 -0.99416 0 
vn 0.267528 -0.96355 0 
vn 0.318918 -0.947782 0 
vn 0.468766 -0.883322 0 
vn 0.468408 -0.883512 -8.5308e-17 
vn 0.515554 -0.856857 0 
vn 0.647545 -0.762027 0 
vn 0.647386 -0.762162 -1.17904e-16 
vn 0.687699 -0.725995 0 
vn 0.796223 -0.605003 0 
vn 0.796093 -0.605174 -1.44987e-16 
vn 0.827689 -0.561187 0 
vn 0.907575 -0.419889 0 
vn 0.928977 -0.370138 0 
vn 0.976621 -0.21497 0 
vn 0.996701 -0.0811587 0 
vn 1 2.98477e-05 0 
vn 0.986827 -0.161782 0 
vn 0.976621 0.21497 -1.77865e-16 
vn 0.998533 0.0541389 0 
vn 0.990846 0.135 0 
vn 1 0 -1.82123e-16 
vn 0.907575 0.419889 -1.65291e-16 
vn 0.976614 0.214999 0 
vn 0.96355 0.267528 0 
vn 0.796093 0.605174 -1.44987e-16 
vn 0.907575 0.419889 0 
vn 0.883512 0.468408 0 
vn 0.647386 0.762162 -1.17904e-16 
vn 0.796093 0.605174 0 
vn 0.7623 0.647224 0 
vn 0.468408 0.883512 -8.5308e-17 
vn 0.647386 0.762162 0 
vn 0.605339 0.795968 0 
vn 0.267528 0.96355 -4.87231e-17 
vn 0.468408 0.883512 0 
vn 0.420255 0.907406 0 
vn 0.0541389 0.998533 -9.85995e-18 
vn 0.26714 0.963658 0 
vn 0.21497 0.976621 0 
vn 7.27366e-16 1 0 
vn 0.0539398 0.998544 0 
vn 1.82123e-16 0 1 
vn 0 1 0 
vn 0 0.998544 0.0539398 
vn 0 0.976621 0.21497 
vn 0 1 0 
vn 0 0.963658 0.26714 
vn 0 0.907406 0.420255 
vn 0 0.907575 0.419889 
vn 0 0.883512 0.468408 
vn 0 0.795968 0.605339 
vn 0 0.796093 0.605174 
vn 0 0.762162 0.647386 
vn 0 0.647224 0.7623 
vn 0 0.647386 0.762162 
vn 0 0.605174 0.796093 
vn 0 0.468408 0.883512 
vn 0 0.419889 0.907575 
vn 0 0.267528 0.96355 
vn 0 0.135 0.990846 
vn 0 0.0541389 0.998533 
vn 0 0.214999 0.976614 
vn 0 2.98477e-05 1 
vn 0 -0.161782 0.986827 
vn 0 -0.0811587 0.996701 
vn 0 -0.370138 0.928977 
vn 0 -0.161782 0.986827 
vn 0 -0.21497 0.976621 
vn 0 -0.561187 0.827689 
vn 0 -0.370138 0.928977 
vn 0 -0.419889 0.907575 
vn 0 -0.725995 0.687699 
vn 0 -0.561187 0.827689 
vn 0 -0.605003 0.796223 
vn 0 -0.856857 0.515554 
vn 0 -0.725995 0.687699 
vn 0 -0.762027 0.647545 
vn 0 -0.947653 0.319302 
vn 0 -0.856857 0.515554 
vn 0 -0.883322 0.468766 
vn 0 -0.994138 0.108119 
vn 0 -0.947782 0.318918 
vn 0 -0.96355 0.267528 
vn 0 -1 -3.67394e-16 
vn 0 -0.99416 0.10792 
vn 0 -0.998555 0.0537403 
vn 0 -0.998555 -0.0537403 
vn 0 -0.99416 -0.10792 
vn 0 -1 -1.45473e-15 
vn 0 -0.994138 -0.108119 
vn 0 -0.96355 -0.267528 
vn 0 -0.947782 -0.318918 
vn 0 -0.947653 -0.319302 
vn 0 -0.883322 -0.468766 
vn 0 -0.856857 -0.515554 
vn 0 -0.762027 -0.647545 
vn 0 -0.725995 -0.687699 
vn 0 -0.605003 -0.796223 
vn 0 -0.561187 -0.827689 
vn 0 -0.419889 -0.907575 
vn 0 -0.370138 -0.928977 
vn 0 -0.21497 -0.976621 
vn 0 -0.161811 -0.986822 
vn 0 -0.161782 -0.986827 
vn 0 -0.0811587 -0.996701 
vn 0 0 -1 
vn 0 0.0541389 -0.998533 
vn 0 0.267528 -0.96355 
vn 0 0.135 -0.990846 
vn 0 0.21497 -0.976621 
vn 0 0.0541091 -0.998535 
vn 0 0.468408 -0.883512 
vn 0 0.267528 -0.96355 
vn 0 0.419889 -0.907575 
vn 0 0.647386 -0.762162 
vn 0 0.468408 -0.883512 
vn 0 0.605174 -0.796093 
vn 0 0.796093 -0.605174 
vn 0 0.647224 -0.7623 
vn 0 0.762162 -0.647386 
vn 0 0.907575 -0.419889 
vn 0 0.795968 -0.605339 
vn 0 0.883512 -0.468408 
vn 0 0.976621 -0.21497 
vn 0 0.907491 -0.420073 
vn 0 0.96355 -0.267528 
vn 0 0.976535 -0.21536 
vn 0 0.998555 -0.0537403 
vn 1 0 0 
usemtl 0.647059_0.647059_0.647059_0.000000_0.000000
o mesh0
f 30//1 1//1 2//1 
f 2//1 3//1 30//1 
f 3//1 4//1 30//1 
f 4//1 5//1 30//1 
f 5//1 6//1 30//1 
f 6//1 7//1 30//1 
f 7//1 8//1 30//1 
f 8//1 9//1 30//1 
f 9//1 10//1 30//1 
f 10//1 11//1 30//1 
f 11//1 12//1 30//1 
f 12//1 13//1 30//1 
f 13//1 14//1 30//1 
f 14//1 15//1 30//1 
f 15//1 16//1 30//1 
f 16//1 17//1 30//1 
f 17//1 18//1 30//1 
f 18//1 19//1 30//1 
f 19//1 20//1 30//1 
f 20//1 21//1 30//1 
f 21//1 22//1 30//1 
f 22//1 23//1 30//1 
f 23//1 24//1 30//1 
f 24//1 25//1 30//1 
f 25//1 26//1 30//1 
f 26//1 27//1 30//1 
f 27//1 28//1 30//1 
f 28//1 29//1 30//1 
f 29//1 1//1 30//1 
o mesh1
f 31//2 21//2 20//3 
f 32//3 20//3 19//4 
f 33//4 19//4 18//5 
f 34//5 18//5 17//6 
f 35//6 17//6 16//7 
f 36//7 16//7 15//8 
f 37//8 15//8 14//9 
f 38//9 14//9 13//10 
f 39//10 13//10 12//11 
f 40//11 12//11 11//12 
f 41//12 11//12 10//13 
f 42//13 10//13 9//14 
f 43//14 9//14 8//15 
f 22//16 44//17 45//18 
f 22//16 46//19 44//17 
f 23//18 47//20 48//21 
f 23//18 45//18 47//20 
f 24//21 49//22 50//23 
f 24//21 48//21 49//22 
f 25//23 51//24 52//25 
f 25//23 50//23 51//24 
f 26//25 53//26 54//27 
f 26//25 52//25 53//26 
f 27//27 55//28 56//29 
f 27//27 54//27 55//28 
f 28//29 57//30 58//31 
f 28//29 59//32 57//30 
f 28//29 56//29 59//32 
f 1//33 60//34 61//35 
f 1//33 29//36 58//31 
f 58//31 60//34 1//33 
f 2//37 1//33 62//38 
f 62//38 63//39 2//37 
f 3//40 2//37 64//41 
f 64//41 65//42 3//40 
f 4//43 3//40 66//44 
f 66//44 67//45 4//43 
f 5//46 4//43 68//47 
f 68//47 69//48 5//46 
f 6//49 5//46 70//50 
f 70//50 71//51 6//49 
f 7//52 6//49 72//53 
f 72//53 73//54 7//52 
f 74//55 75//56 76//57 
f 74//55 8//15 75//56 
f 8//15 7//52 77//57 
f 77//57 75//56 8//15 
f 78//58 79//59 80//60 
f 78//58 76//57 79//59 
f 81//60 82//61 83//62 
f 81//60 80//60 82//61 
f 84//63 85//64 86//65 
f 84//63 83//62 85//64 
f 87//66 88//67 89//68 
f 87//66 86//65 88//67 
f 90//69 91//70 92//71 
f 90//69 89//68 91//70 
f 93//71 94//72 95//73 
f 93//71 92//71 94//72 
f 96//73 97//74 98//75 
f 96//73 95//73 99//76 
f 99//76 97//74 96//73 
f 100//77 101//78 102//79 
f 103//80 98//75 101//78 
f 101//78 100//77 103//80 
f 104//81 100//77 105//82 
f 105//82 106//83 104//81 
f 107//84 104//81 108//85 
f 108//85 109//86 107//84 
f 110//87 107//84 111//88 
f 111//88 112//89 110//87 
f 113//90 110//87 114//91 
f 114//91 115//92 113//90 
f 116//93 113//90 117//94 
f 117//94 118//95 116//93 
f 119//96 116//93 120//97 
f 120//97 121//98 119//96 
f 21//2 122//99 46//19 
f 31//2 119//96 123//100 
f 123//100 122//99 31//2 
f 122//99 21//2 31//2 
f 46//19 22//16 21//2 
f 121//98 123//100 119//96 
f 118//95 120//97 116//93 
f 115//92 117//94 113//90 
f 112//89 114//91 110//87 
f 109//86 111//88 107//84 
f 106//83 108//85 104//81 
f 102//79 105//82 100//77 
f 98//75 103//80 96//73 
f 95//73 96//73 93//71 
f 92//71 93//71 90//69 
f 89//68 90//69 87//66 
f 86//65 87//66 84//63 
f 83//62 84//63 81//60 
f 80//60 81//60 78//58 
f 76//57 78//58 74//55 
f 73//54 77//57 7//52 
f 71//51 72//53 6//49 
f 69//48 70//50 5//46 
f 67//45 68//47 4//43 
f 65//42 66//44 3//40 
f 63//39 64//41 2//37 
f 61//35 62//38 1//33 
f 58//31 29//36 28//29 
f 56//29 28//29 27//27 
f 54//27 27//27 26//25 
f 52//25 26//25 25//23 
f 50//23 25//23 24//21 
f 48//21 24//21 23//18 
f 45//18 23//18 22//16 
f 8//15 74//55 43//14 
f 9//14 43//14 42//13 
f 10//13 42//13 41//12 
f 11//12 41//12 40//11 
f 12//11 40//11 39//10 
f 13//10 39//10 38//9 
f 14//9 38//9 37//8 
f 15//8 37//8 36//7 
f 16//7 36//7 35//6 
f 17//6 35//6 34//5 
f 18//5 34//5 33//4 
f 19//4 33//4 32//3 
f 20//3 32//3 31//2 
o mesh2
f 124//101 100//101 104//101 
f 104//101 107//101 124//101 
f 107//101 110//101 124//101 
f 110//101 113//101 124//101 
f 113//101 116//101 124//101 
f 116//101 119//101 124//101 
f 119//101 31//101 124//101 
f 31//101 32//101 124//101 
f 32//101 33//101 124//101 
f 33//101 34//101 124//101 
f 34//101 35//101 124//101 
f 35//101 36//101 124//101 
f 36//101 37//101 124//101 
f 37//101 38//101 124//101 
f 38//101 39//101 124//101 
f 39//101 40//101 124//101 
f 40//101 41//101 124//101 
f 41//101 42//101 124//101 
f 42//101 43//101 124//101 
f 43//101 74//101 124//101 
f 74//101 78//101 124//101 
f 78//101 81//101 124//101 
f 81//101 84//101 124//101 
f 84//101 87//101 124//101 
f 87//101 90//101 124//101 
f 90//101 93//101 124//101 
f 93//101 96//101 124//101 
f 96//101 103//101 124//101 
f 103//101 100//101 124//101 
o mesh3
f 125//102 123//103 121//104 
f 125//102 122//105 123//103 
f 126//104 120//106 118//107 
f 126//104 121//104 120//106 
f 127//108 117//109 115//110 
f 127//108 118//107 117//109 
f 128//111 114//112 112//113 
f 128//111 115//110 114//112 
f 129//114 111//115 109//116 
f 129//114 112//113 111//115 
f 130//116 108//117 106//118 
f 130//116 109//116 108//117 
f 131//118 102//119 101//120 
f 131//118 106//118 105//121 
f 105//121 102//119 131//118 
f 132//120 101//120 98//122 
f 98//122 133//123 132//120 
f 98//122 97//124 133//123 
f 134//125 133//123 99//126 
f 99//126 95//127 134//125 
f 135//128 134//125 94//129 
f 94//129 92//130 135//128 
f 136//131 135//128 91//132 
f 91//132 89//133 136//131 
f 137//134 136//131 88//135 
f 88//135 86//136 137//134 
f 138//137 137//134 85//138 
f 85//138 83//139 138//137 
f 139//140 138//137 82//141 
f 82//141 80//142 139//140 
f 140//143 139//140 79//144 
f 79//144 76//145 140//143 
f 140//143 77//146 73//147 
f 140//143 75//148 77//146 
f 73//147 141//149 140//143 
f 141//149 72//150 71//151 
f 141//149 73//147 72//150 
f 142//152 70//153 69//154 
f 142//152 71//151 70//153 
f 143//154 68//155 67//156 
f 143//154 69//154 68//155 
f 144//156 66//157 65//158 
f 144//156 67//156 66//157 
f 145//158 64//159 63//160 
f 145//158 65//158 64//159 
f 146//160 62//161 61//162 
f 146//160 63//160 62//161 
f 147//163 60//164 58//165 
f 147//163 61//162 60//164 
f 58//165 148//166 147//163 
f 149//167 59//168 56//169 
f 149//167 148//166 57//170 
f 57//170 59//168 149//167 
f 150//171 149//167 55//172 
f 55//172 54//173 150//171 
f 151//174 150//171 53//175 
f 53//175 52//176 151//174 
f 152//177 151//174 51//178 
f 51//178 50//179 152//177 
f 153//180 152//177 49//181 
f 49//181 48//182 153//180 
f 154//183 153//180 47//184 
f 47//184 45//185 154//183 
f 125//102 154//183 44//186 
f 44//186 46//187 125//102 
f 46//187 122//105 125//102 
f 45//185 44//186 154//183 
f 48//182 47//184 153//180 
f 50//179 49//181 152//177 
f 52//176 51//178 151//174 
f 54//173 53//175 150//171 
f 56//169 55//172 149//167 
f 58//165 57//170 148//166 
f 61//162 147//163 146//160 
f 63//160 146//160 145//158 
f 65//158 145//158 144//156 
f 67//156 144//156 143//154 
f 69//154 143//154 142//152 
f 71//151 142//152 141//149 
f 76//145 75//148 140//143 
f 80//142 79//144 139//140 
f 83//139 82//141 138//137 
f 86//136 85//138 137//134 
f 89//133 88//135 136//131 
f 92//130 91//132 135//128 
f 95//127 94//129 134//125 
f 97//124 99//126 133//123 
f 101//120 132//120 131//118 
f 106//118 131//118 130//116 
f 109//116 130//116 129//114 
f 112//113 129//114 128//111 
f 115//110 128//111 127//108 
f 118//107 127//108 126//104 
f 121//104 126//104 125//102 
o mesh4
f 155//188 141//188 142//188 
f 142//188 143//188 155//188 
f 143//188 144//188 155//188 
f 144//188 145//188 155//188 
f 145//188 146//188 155//188 
f 146//188 147//188 155//188 
f 147//188 148//188 155//188 
f 148//188 149//188 155//188 
f 149//188 150//188 155//188 
f 150//188 151//188 155//188 
f 151//188 152//188 155//188 
f 152//188 153//188 155//188 
f 153//188 154//188 155//188 
f 154//188 125//188 155//188 
f 125//188 126//188 155//188 
f 126//188 127//188 155//188 
f 127//188 128//188 155//188 
f 128//188 129//188 155//188 
f 129//188 130//188 155//188 
f 130//188 131//188 155//188 
f 131//188 132//188 155//188 
f 132//188 133//188 155//188 
f 133//188 134//188 155//188 
f 134//188 135//188 155//188 
f 135//188 136//188 155//188 
f 136//188 137//188 155//188 
f 137//188 138//188 155//188 
f 138//188 139//188 155//188 
f 139//188 140//188 155//188 
f 140//188 141//188 155//188 
