# OBJ generated by ONSHAPE BY PTC INC, 1.208 Units = meters
mtllib SlabBranchingChannel - part.mtl
g part
v 0.00310077 0.0133825 -0.01905 
v 0.00288155 0.0140331 -0.01905 
v 0.0025276 0.0146214 -0.01905 
v 0.00205545 0.0151199 -0.01905 
v 0.0014872 0.0155052 -0.01905 
v 0.000849402 0.0157593 -0.01905 
v 0.000171891 0.0158703 -0.01905 
v -0.000513658 0.0158332 -0.01905 
v -0.00117519 0.0156495 -0.01905 
v -0.00178177 0.0153279 -0.01905 
v -0.00230504 0.0148834 -0.01905 
v -0.00272052 0.0143369 -0.01905 
v -0.0030088 0.0137138 -0.01905 
v -0.00315639 0.0130433 -0.01905 
v -0.00315639 0.0123567 -0.01905 
v -0.0030088 0.0116862 -0.01905 
v -0.00272052 0.0110631 -0.01905 
v -0.00230504 0.0105166 -0.01905 
v -0.00178177 0.0100721 -0.01905 
v -0.00117519 0.0097505 -0.01905 
v -0.000513658 0.00956683 -0.01905 
v 0.000171891 0.00952966 -0.01905 
v 0.000849402 0.00964073 -0.01905 
v 0.0014872 0.00989485 -0.01905 
v 0.00205545 0.0102801 -0.01905 
v 0.0025276 0.0107786 -0.01905 
v 0.00288155 0.0113669 -0.01905 
v 0.00310077 0.0120175 -0.01905 
v 0.003175 0.0127 -0.01905 
v -6.21609e-18 0.0127 -0.01905 
v -0.00117519 0.0097505 0.03175 
v -0.000513658 0.00956683 0.03175 
v -0.00178177 0.0100721 0.03175 
v -0.00230504 0.0105166 0.03175 
v -0.00272052 0.0110631 0.03175 
v -0.0030088 0.0116862 0.03175 
v -0.00315639 0.0123567 0.03175 
v -0.00315639 0.0130433 0.03175 
v -0.0030088 0.0137138 0.03175 
v -0.00272052 0.0143369 0.03175 
v -0.00230504 0.0148834 0.03175 
v -0.00178177 0.0153279 0.03175 
v -0.00117519 0.0156495 0.03175 
v -0.000513658 0.0158332 0.03175 
v 0.000171891 0.0158703 0.03175 
v 0.000682531 0.0158008 0.000682531 
v 0.000843213 0.0157417 0.000843213 
v 0.000170507 0.0158565 0.000170507 
v 0.000849402 0.0157593 0.03175 
v 0.00132652 0.0155642 0.00132652 
v 0.0014872 0.0155052 0.0014872 
v 0.0014872 0.0155052 0.03175 
v 0.00191351 0.0152161 0.00191351 
v 0.00205545 0.0151199 0.00205545 
v 0.00205545 0.0151199 0.03175 
v 0.00240968 0.0147459 0.00240968 
v 0.0025276 0.0146214 0.0025276 
v 0.0025276 0.0146214 0.03175 
v 0.00280515 0.0141872 0.00280515 
v 0.00288155 0.0140331 0.00288155 
v 0.00288155 0.0140331 0.03175 
v 0.00305927 0.0135494 0.00305927 
v 0.00309393 0.0133811 0.00309393 
v 0.003175 0.0127 0.03175 
v 0.00310077 0.0133825 0.03175 
v 0.00317034 0.0128719 0.00317034 
v 0.00314593 0.0131286 0.00314593 
v 0.00310077 0.0120175 0.03175 
v 0.00316453 0.0124423 0.00316453 
v 0.00313317 0.0121863 0.00313317 
v 0.00316802 0.0127001 0.00316802 
v 0.00288155 0.0113669 0.03175 
v 0.00310077 0.0120175 0.00310077 
v 0.0029495 0.0115248 0.0029495 
v 0.0025276 0.0107786 0.03175 
v 0.00288155 0.0113669 0.00288155 
v 0.00262791 0.0109182 0.00262791 
v 0.00205545 0.0102801 0.03175 
v 0.00251691 0.0107875 0.00251691 
v 0.00218345 0.010395 0.00218345 
v 0.0014872 0.00989485 0.03175 
v 0.00204693 0.0102912 0.00204693 
v 0.00163688 0.00997948 0.00163688 
v 0.000849402 0.00964073 0.03175 
v 0.00147964 0.00991184 0.00147964 
v 0.00100665 0.00970837 0.00100665 
v 0.000171891 0.00952966 0.03175 
v 0.000849402 0.00964073 0.000849402 
v 0.000339635 0.00957127 0.000339635 
v 0 0.009525 0 
v 0.000169629 0.00954811 -0.000169629 
v 0.000169629 0.00954811 0.000169629 
v 0.000339635 0.00957127 -0.000339635 
v 0.000849402 0.00964073 -0.000849402 
v 0.00100665 0.00970837 -0.00100665 
v 0.00147964 0.00991184 -0.00147964 
v 0.00163688 0.00997948 -0.00163688 
v 0.00204693 0.0102912 -0.00204693 
v 0.00218345 0.010395 -0.00218345 
v 0.00251691 0.0107875 -0.00251691 
v 0.00262791 0.0109182 -0.00262791 
v 0.00288155 0.0113669 -0.00288155 
v 0.0029495 0.0115248 -0.0029495 
v 0.00310077 0.0120175 -0.00310077 
v 0.00316453 0.0124423 -0.00316453 
v 0.003175 0.0127 -0.003175 
v 0.00312627 0.0121874 -0.00312627 
v 0.00316338 0.0128714 -0.00316338 
v 0.00314593 0.0131286 -0.00314593 
v 0.00310077 0.0133825 -0.00310077 
v 0.00305927 0.0135494 -0.00305927 
v 0.00288155 0.0140331 -0.00288155 
v 0.00280515 0.0141872 -0.00280515 
v 0.0025276 0.0146214 -0.0025276 
v 0.00240968 0.0147459 -0.00240968 
v 0.00205545 0.0151199 -0.00205545 
v 0.00191351 0.0152161 -0.00191351 
v 0.0014872 0.0155052 -0.0014872 
v 0.00132787 0.0155686 -0.00132787 
v 0.000849402 0.0157593 -0.000849402 
v 0.000679774 0.0157824 -0.000679774 
v 3.46945e-18 0.015875 -6.93889e-18 
v 0.000169629 0.0158519 -0.000169629 
v 0.0254 0.00954361 0.000343278 
v 0.0254 0.0096912 0.00101378 
v 0.0254 0.00997948 0.00163688 
v 0.0254 0.010395 0.00218345 
v 0.0254 0.0109182 0.00262791 
v 0.0254 0.0115248 0.0029495 
v 0.0254 0.0121863 0.00313317 
v 0.0254 0.0135494 0.00305927 
v 0.0254 0.0128719 0.00317034 
v 0.0254 0.0141872 0.00280515 
v 0.0254 0.0147555 0.00241986 
v 0.0254 0.0152276 0.00192143 
v 0.0254 0.0155816 0.00133315 
v 0.0254 0.0158008 0.000682531 
v 0.0254 0.015875 0 
v 0.0254 0.0158008 -0.000682531 
v 0.0254 0.0155816 -0.00133315 
v 0.0254 0.0152276 -0.00192143 
v 0.0254 0.0147555 -0.00241986 
v 0.0254 0.0141872 -0.00280515 
v 0.0254 0.0135494 -0.00305927 
v 0.0254 0.0121863 -0.00313317 
v 0.0254 0.0128719 -0.00317034 
v 0.0254 0.0115248 -0.0029495 
v 0.0254 0.0109182 -0.00262791 
v 0.0254 0.010395 -0.00218345 
v 0.0254 0.00997948 -0.00163688 
v 0.0254 0.0096912 -0.00101378 
v 0.0254 0.00954361 -0.000343278 
v 0.0254 0.009525 -3.88825e-19 
v 0.0254 0.0127 0 
v -0.0381 0.0254 0.03175 
v 0.0381 0.0254 0.03175 
v -0.0381 0 0.03175 
v 0.0381 0 0.03175 
v 0.0381 0 -0.03175 
v 0.0381 0.0254 -0.03175 
v -0.0381 0 -0.03175 
v -0.0381 0.0254 -0.03175 
vn 1.82123e-16 0 1 
vn 0.370138 0.928977 -6.74107e-17 
vn 0.161782 0.986827 -2.94643e-17 
vn 0.561187 0.827689 -1.02205e-16 
vn 0.370138 0.928977 -6.74107e-17 
vn 0.725995 0.687699 -1.32221e-16 
vn 0.561187 0.827689 -1.02205e-16 
vn 0.856857 0.515554 -1.56054e-16 
vn 0.725995 0.687699 -1.32221e-16 
vn 0.947653 0.319302 -1.7259e-16 
vn 0.856857 0.515554 -1.56054e-16 
vn 0.994138 0.108119 -1.81056e-16 
vn 0.947653 0.319302 -1.7259e-16 
vn 0.994138 -0.108119 -1.81056e-16 
vn 0.994138 0.108119 -1.81056e-16 
vn 0.947653 -0.319302 -1.7259e-16 
vn 0.994138 -0.108119 -1.81056e-16 
vn 0.856857 -0.515554 -1.56054e-16 
vn 0.947653 -0.319302 -1.7259e-16 
vn 0.725995 -0.687699 -1.32221e-16 
vn 0.856857 -0.515554 -1.56054e-16 
vn 0.561187 -0.827689 -1.02205e-16 
vn 0.725995 -0.687699 -1.32221e-16 
vn 0.370138 -0.928977 -6.74107e-17 
vn 0.561187 -0.827689 -1.02205e-16 
vn 0.161782 -0.986827 -2.94643e-17 
vn 0.370138 -0.928977 -6.74107e-17 
vn -0.0541389 -0.998533 9.85995e-18 
vn -0.21497 -0.976621 0 
vn -0.26714 -0.963658 0 
vn -0.0539398 -0.998544 0 
vn -0.267528 -0.96355 4.87231e-17 
vn -0.420255 -0.907406 0 
vn -0.468408 -0.883512 0 
vn -0.605339 -0.795968 0 
vn -0.647386 -0.762162 0 
vn -0.7623 -0.647224 0 
vn -0.796093 -0.605174 0 
vn -0.883512 -0.468408 0 
vn -0.907575 -0.419889 0 
vn -0.96355 -0.267528 0 
vn -0.976614 -0.214999 0 
vn -1 2.44929e-16 1.82123e-16 
vn -0.976621 -0.21497 1.77865e-16 
vn -0.998533 -0.0541389 0 
vn -0.990846 -0.135 0 
vn -0.976621 0.21497 1.77865e-16 
vn -0.996701 0.0811587 0 
vn -0.986827 0.161782 0 
vn -1 -2.98477e-05 0 
vn -0.907575 0.419889 1.65291e-16 
vn -0.976621 0.21497 0 
vn -0.928977 0.370138 0 
vn -0.796093 0.605174 1.44987e-16 
vn -0.907575 0.419889 0 
vn -0.827689 0.561187 0 
vn -0.647386 0.762162 1.17904e-16 
vn -0.796223 0.605003 0 
vn -0.687699 0.725995 0 
vn -0.468408 0.883512 8.5308e-17 
vn -0.647545 0.762027 0 
vn -0.515554 0.856857 0 
vn -0.267528 0.96355 4.87231e-17 
vn -0.468766 0.883322 0 
vn -0.318918 0.947782 0 
vn -0.0541389 0.998533 9.85995e-18 
vn -0.267528 0.96355 0 
vn -0.10792 0.99416 0 
vn -7.04481e-16 1 0 
vn -0.0537403 0.998555 0 
vn -0.0541389 0.998533 9.85995e-18 
vn -0.10792 0.99416 0 
vn -0.267528 0.96355 0 
vn -0.318918 0.947782 0 
vn -0.468766 0.883322 0 
vn -0.468408 0.883512 8.5308e-17 
vn -0.515554 0.856857 0 
vn -0.647545 0.762027 0 
vn -0.647386 0.762162 1.17904e-16 
vn -0.687699 0.725995 0 
vn -0.796223 0.605003 0 
vn -0.796093 0.605174 1.44987e-16 
vn -0.827689 0.561187 0 
vn -0.907575 0.419889 0 
vn -0.928977 0.370138 0 
vn -0.976621 0.21497 0 
vn -0.996701 0.0811587 0 
vn -1 0 0 
vn -0.986822 0.161811 0 
vn -0.976621 -0.21497 1.77865e-16 
vn -1 2.44929e-16 1.82123e-16 
vn -0.998535 -0.0541091 0 
vn -0.990846 -0.135 0 
vn -0.907575 -0.419889 1.65291e-16 
vn -0.976621 -0.21497 0 
vn -0.96355 -0.267528 0 
vn -0.796093 -0.605174 1.44987e-16 
vn -0.907575 -0.419889 0 
vn -0.883512 -0.468408 0 
vn -0.647386 -0.762162 1.17904e-16 
vn -0.796093 -0.605174 0 
vn -0.7623 -0.647224 0 
vn -0.468408 -0.883512 8.5308e-17 
vn -0.647386 -0.762162 0 
vn -0.605339 -0.795968 0 
vn -0.267528 -0.96355 4.87231e-17 
vn -0.468408 -0.883512 0 
vn -0.420073 -0.907491 0 
vn -0.0541389 -0.998533 9.85995e-18 
vn -0.267528 -0.96355 0 
vn -0.21536 -0.976535 0 
vn -2.94781e-15 -1 0 
vn 0.161782 -0.986827 -2.94643e-17 
vn -0.0537403 -0.998555 0 
vn 0 0.994138 -0.108119 
vn 0 0.96355 -0.267528 
vn 0 0.947782 -0.318918 
vn 0 0.99416 -0.10792 
vn 0 0.947653 -0.319302 
vn 0 0.883322 -0.468766 
vn 0 0.856857 -0.515554 
vn 0 0.762027 -0.647545 
vn 0 0.725995 -0.687699 
vn 0 0.605003 -0.796223 
vn 0 0.561187 -0.827689 
vn 0 0.419889 -0.907575 
vn 0 0.370138 -0.928977 
vn 0 0.21497 -0.976621 
vn 0 0.161782 -0.986827 
vn 0 -2.98477e-05 -1 
vn 0 -0.0541389 -0.998533 
vn 0 0.0811587 -0.996701 
vn 0 -0.267528 -0.96355 
vn 0 -0.135 -0.990846 
vn 0 -0.214999 -0.976614 
vn 0 -0.0541389 -0.998533 
vn 0 -0.468408 -0.883512 
vn 0 -0.267528 -0.96355 
vn 0 -0.419889 -0.907575 
vn 0 -0.647386 -0.762162 
vn 0 -0.468408 -0.883512 
vn 0 -0.605174 -0.796093 
vn 0 -0.796093 -0.605174 
vn 0 -0.647224 -0.7623 
vn 0 -0.762162 -0.647386 
vn 0 -0.907575 -0.419889 
vn 0 -0.795968 -0.605339 
vn 0 -0.883512 -0.468408 
vn 0 -0.976621 -0.21497 
vn 0 -0.907406 -0.420255 
vn 0 -0.963658 -0.26714 
vn 0 -1 -2.44929e-16 
vn 0 -0.976621 -0.21497 
vn 0 -0.998544 -0.0539398 
vn 0 -0.998555 0.0537403 
vn 0 -0.976535 0.21536 
vn 0 -1 1.96005e-15 
vn 0 -0.976621 0.21497 
vn 0 -0.96355 0.267528 
vn 0 -0.907491 0.420073 
vn 0 -0.907575 0.419889 
vn 0 -0.883512 0.468408 
vn 0 -0.795968 0.605339 
vn 0 -0.796093 0.605174 
vn 0 -0.762162 0.647386 
vn 0 -0.647224 0.7623 
vn 0 -0.647386 0.762162 
vn 0 -0.605174 0.796093 
vn 0 -0.468408 0.883512 
vn 0 -0.419889 0.907575 
vn 0 -0.267528 0.96355 
vn 0 -0.135 0.990846 
vn 0 -0.0541091 0.998535 
vn 0 -0.21497 0.976621 
vn 0 0.161782 0.986827 
vn 0 -0.0541389 0.998533 
vn 0 0 1 
vn 0 0.0811587 0.996701 
vn 0 0.370138 0.928977 
vn 0 0.161811 0.986822 
vn 0 0.21497 0.976621 
vn 0 0.561187 0.827689 
vn 0 0.370138 0.928977 
vn 0 0.419889 0.907575 
vn 0 0.725995 0.687699 
vn 0 0.561187 0.827689 
vn 0 0.605003 0.796223 
vn 0 0.856857 0.515554 
vn 0 0.725995 0.687699 
vn 0 0.762027 0.647545 
vn 0 0.947653 0.319302 
vn 0 0.856857 0.515554 
vn 0 0.883322 0.468766 
vn 0 0.994138 0.108119 
vn 0 0.947782 0.318918 
vn 0 0.96355 0.267528 
vn 0 1 1.22465e-16 
vn 0 0.99416 0.10792 
vn 0 0.998555 0.0537403 
vn 0 0.998555 -0.0537403 
vn 0 1 1.22465e-16 
vn -1 0 0 
vn 1.82123e-16 0 1 
vn 1 0 0 
vn -1.82123e-16 0 -1 
vn -1 0 0 
vn 0 1 0 
vn 0 -1 0 
usemtl 0.615686_0.811765_0.929412_0.000000_0.000000
o mesh0
f 30//1 1//1 2//1 
f 2//1 3//1 30//1 
f 3//1 4//1 30//1 
f 4//1 5//1 30//1 
f 5//1 6//1 30//1 
f 6//1 7//1 30//1 
f 7//1 8//1 30//1 
f 8//1 9//1 30//1 
f 9//1 10//1 30//1 
f 10//1 11//1 30//1 
f 11//1 12//1 30//1 
f 12//1 13//1 30//1 
f 13//1 14//1 30//1 
f 14//1 15//1 30//1 
f 15//1 16//1 30//1 
f 16//1 17//1 30//1 
f 17//1 18//1 30//1 
f 18//1 19//1 30//1 
f 19//1 20//1 30//1 
f 20//1 21//1 30//1 
f 21//1 22//1 30//1 
f 22//1 23//1 30//1 
f 23//1 24//1 30//1 
f 24//1 25//1 30//1 
f 25//1 26//1 30//1 
f 26//1 27//1 30//1 
f 27//1 28//1 30//1 
f 28//1 29//1 30//1 
f 29//1 1//1 30//1 
o mesh1
f 31//2 32//3 21//3 
f 33//4 31//2 20//5 
f 34//6 33//4 19//7 
f 35//8 34//6 18//9 
f 36//10 35//8 17//11 
f 37//12 36//10 16//13 
f 38//14 37//12 15//15 
f 39//16 38//14 14//17 
f 40//18 39//16 13//19 
f 41//20 40//18 12//21 
f 42//22 41//20 11//23 
f 43//24 42//22 10//25 
f 44//26 43//24 9//27 
f 45//28 46//29 47//30 
f 45//28 48//31 46//29 
f 49//32 50//33 51//34 
f 49//32 47//30 50//33 
f 52//34 53//35 54//36 
f 52//34 51//34 53//35 
f 55//36 56//37 57//38 
f 55//36 54//36 56//37 
f 58//38 59//39 60//40 
f 58//38 57//38 59//39 
f 61//40 62//41 63//42 
f 61//40 60//40 62//41 
f 64//43 65//44 66//45 
f 65//44 63//42 67//46 
f 67//46 66//45 65//44 
f 68//47 69//48 70//49 
f 68//47 64//43 71//50 
f 71//50 69//48 68//47 
f 72//51 68//47 73//52 
f 73//52 74//53 72//51 
f 75//54 72//51 76//55 
f 76//55 77//56 75//54 
f 78//57 75//54 79//58 
f 79//58 80//59 78//57 
f 81//60 78//57 82//61 
f 82//61 83//62 81//60 
f 84//63 81//60 85//64 
f 85//64 86//65 84//63 
f 87//66 84//63 88//67 
f 88//67 89//68 87//66 
f 21//3 90//69 91//70 
f 32//3 87//66 92//70 
f 92//70 90//69 32//3 
f 90//69 21//3 32//3 
f 22//71 93//72 94//73 
f 22//71 91//70 93//72 
f 23//73 95//74 96//75 
f 23//73 94//73 95//74 
f 24//76 97//77 98//78 
f 24//76 96//75 97//77 
f 25//79 99//80 100//81 
f 25//79 98//78 99//80 
f 26//82 101//83 102//84 
f 26//82 100//81 101//83 
f 27//84 103//85 104//86 
f 27//84 102//84 103//85 
f 28//86 105//87 106//88 
f 28//86 104//86 107//89 
f 107//89 105//87 28//86 
f 1//90 29//91 106//88 
f 106//88 108//92 1//90 
f 108//92 109//93 1//90 
f 2//94 1//90 110//95 
f 110//95 111//96 2//94 
f 3//97 2//94 112//98 
f 112//98 113//99 3//97 
f 4//100 3//97 114//101 
f 114//101 115//102 4//100 
f 5//103 4//100 116//104 
f 116//104 117//105 5//103 
f 6//106 5//103 118//107 
f 118//107 119//108 6//106 
f 7//109 6//106 120//110 
f 120//110 121//111 7//109 
f 44//26 122//112 48//31 
f 44//26 8//113 122//112 
f 8//113 7//109 123//114 
f 123//114 122//112 8//113 
f 48//31 45//28 44//26 
f 121//111 123//114 7//109 
f 119//108 120//110 6//106 
f 117//105 118//107 5//103 
f 115//102 116//104 4//100 
f 113//99 114//101 3//97 
f 111//96 112//98 2//94 
f 109//93 110//95 1//90 
f 106//88 29//91 28//86 
f 104//86 28//86 27//84 
f 102//84 27//84 26//82 
f 100//81 26//82 25//79 
f 98//78 25//79 24//76 
f 96//75 24//76 23//73 
f 94//73 23//73 22//71 
f 91//70 22//71 21//3 
f 89//68 92//70 87//66 
f 86//65 88//67 84//63 
f 83//62 85//64 81//60 
f 80//59 82//61 78//57 
f 77//56 79//58 75//54 
f 74//53 76//55 72//51 
f 70//49 73//52 68//47 
f 66//45 71//50 64//43 
f 63//42 65//44 61//40 
f 60//40 61//40 58//38 
f 57//38 58//38 55//36 
f 54//36 55//36 52//34 
f 51//34 52//34 49//32 
f 47//30 49//32 45//28 
f 9//27 8//113 44//26 
f 10//25 9//27 43//24 
f 11//23 10//25 42//22 
f 12//21 11//23 41//20 
f 13//19 12//21 40//18 
f 14//17 13//19 39//16 
f 15//15 14//17 38//14 
f 16//13 15//15 37//12 
f 17//11 16//13 36//10 
f 18//9 17//11 35//8 
f 19//7 18//9 34//6 
f 20//5 19//7 33//4 
f 21//3 20//5 31//2 
o mesh2
f 124//115 88//116 86//117 
f 124//115 89//118 88//116 
f 125//119 85//120 83//121 
f 125//119 86//117 85//120 
f 126//121 82//122 80//123 
f 126//121 83//121 82//122 
f 127//123 79//124 77//125 
f 127//123 80//123 79//124 
f 128//125 76//126 74//127 
f 128//125 77//125 76//126 
f 129//127 73//128 70//129 
f 129//127 74//127 73//128 
f 130//129 71//130 66//131 
f 130//129 69//132 71//130 
f 130//129 70//129 69//132 
f 131//133 67//134 63//135 
f 131//133 132//136 66//131 
f 66//131 67//134 131//133 
f 133//137 131//133 62//138 
f 62//138 60//139 133//137 
f 134//140 133//137 59//141 
f 59//141 57//142 134//140 
f 135//143 134//140 56//144 
f 56//144 54//145 135//143 
f 136//146 135//143 53//147 
f 53//147 51//148 136//146 
f 137//149 136//146 50//150 
f 50//150 47//151 137//149 
f 138//152 137//149 46//153 
f 46//153 48//154 138//152 
f 138//152 123//155 121//156 
f 138//152 122//157 123//155 
f 139//158 120//159 119//160 
f 139//158 121//156 120//159 
f 140//161 118//162 117//163 
f 140//161 119//160 118//162 
f 141//164 116//165 115//166 
f 141//164 117//163 116//165 
f 142//167 114//168 113//169 
f 142//167 115//166 114//168 
f 143//169 112//170 111//171 
f 143//169 113//169 112//170 
f 144//171 109//172 108//173 
f 144//171 111//171 110//174 
f 110//174 109//172 144//171 
f 145//175 146//176 106//177 
f 106//177 105//178 145//175 
f 146//176 108//173 106//177 
f 147//179 145//175 107//180 
f 107//180 104//181 147//179 
f 148//182 147//179 103//183 
f 103//183 102//184 148//182 
f 149//185 148//182 101//186 
f 101//186 100//187 149//185 
f 150//188 149//185 99//189 
f 99//189 98//190 150//188 
f 151//191 150//188 97//192 
f 97//192 96//193 151//191 
f 152//194 151//191 95//195 
f 95//195 94//196 152//194 
f 153//197 152//194 93//198 
f 93//198 91//199 153//197 
f 153//197 92//200 89//118 
f 153//197 90//201 92//200 
f 89//118 124//115 153//197 
f 91//199 90//201 153//197 
f 94//196 93//198 152//194 
f 96//193 95//195 151//191 
f 98//190 97//192 150//188 
f 100//187 99//189 149//185 
f 102//184 101//186 148//182 
f 104//181 103//183 147//179 
f 105//178 107//180 145//175 
f 108//173 146//176 144//171 
f 111//171 144//171 143//169 
f 113//169 143//169 142//167 
f 115//166 142//167 141//164 
f 117//163 141//164 140//161 
f 119//160 140//161 139//158 
f 121//156 139//158 138//152 
f 48//154 122//157 138//152 
f 47//151 46//153 137//149 
f 51//148 50//150 136//146 
f 54//145 53//147 135//143 
f 57//142 56//144 134//140 
f 60//139 59//141 133//137 
f 63//135 62//138 131//133 
f 66//131 132//136 130//129 
f 70//129 130//129 129//127 
f 74//127 129//127 128//125 
f 77//125 128//125 127//123 
f 80//123 127//123 126//121 
f 83//121 126//121 125//119 
f 86//117 125//119 124//115 
o mesh3
f 154//202 124//202 125//202 
f 125//202 126//202 154//202 
f 126//202 127//202 154//202 
f 127//202 128//202 154//202 
f 128//202 129//202 154//202 
f 129//202 130//202 154//202 
f 130//202 132//202 154//202 
f 132//202 131//202 154//202 
f 131//202 133//202 154//202 
f 133//202 134//202 154//202 
f 134//202 135//202 154//202 
f 135//202 136//202 154//202 
f 136//202 137//202 154//202 
f 137//202 138//202 154//202 
f 138//202 139//202 154//202 
f 139//202 140//202 154//202 
f 140//202 141//202 154//202 
f 141//202 142//202 154//202 
f 142//202 143//202 154//202 
f 143//202 144//202 154//202 
f 144//202 146//202 154//202 
f 146//202 145//202 154//202 
f 145//202 147//202 154//202 
f 147//202 148//202 154//202 
f 148//202 149//202 154//202 
f 149//202 150//202 154//202 
f 150//202 151//202 154//202 
f 151//202 152//202 154//202 
f 152//202 153//202 154//202 
f 153//202 124//202 154//202 
o mesh4
f 155//203 39//203 40//203 
f 156//203 61//203 65//203 
f 155//203 38//203 39//203 
f 155//203 157//203 37//203 
f 156//203 58//203 61//203 
f 155//203 44//203 45//203 
f 155//203 42//203 43//203 
f 37//203 38//203 155//203 
f 157//203 158//203 87//203 
f 156//203 55//203 58//203 
f 156//203 49//203 52//203 
f 43//203 44//203 155//203 
f 157//203 36//203 37//203 
f 157//203 34//203 35//203 
f 157//203 31//203 33//203 
f 87//203 32//203 157//203 
f 158//203 78//203 81//203 
f 52//203 55//203 156//203 
f 45//203 156//203 155//203 
f 40//203 41//203 155//203 
f 33//203 34//203 157//203 
f 158//203 84//203 87//203 
f 158//203 75//203 78//203 
f 158//203 68//203 72//203 
f 158//203 156//203 64//203 
f 45//203 49//203 156//203 
f 35//203 36//203 157//203 
f 81//203 84//203 158//203 
f 64//203 68//203 158//203 
f 41//203 42//203 155//203 
f 72//203 75//203 158//203 
f 32//203 31//203 157//203 
f 65//203 64//203 156//203 
o mesh5
f 156//204 158//204 159//204 
f 159//204 160//204 156//204 
o mesh6
f 160//205 159//205 161//205 
f 161//205 162//205 160//205 
o mesh7
f 162//206 161//206 157//206 
f 157//206 155//206 162//206 
o mesh8
f 162//207 155//207 156//207 
f 156//207 160//207 162//207 
o mesh9
f 159//208 158//208 157//208 
f 157//208 161//208 159//208 
