# OBJ generated by ONSHAPE BY PTC INC, 1.209 Units = meters
mtllib ThighpadRemake - selectorInterior.mtl
g selectorInterior
v -0.0357912 0.0126 -0.0309139 
v -0.0357912 0.0126 0.0324538 
v 0.0357912 0.0126 0.0324538 
v 0.0357912 0.0126 -0.0309139 
v 0.0357912 0.0014 -0.0309139 
v 0.0357912 0.0014 0.0324538 
v -0.0357912 0.0014 0.0324538 
v -0.0357912 0.0014 -0.0309139 
vn 0 1 0 
vn 1 0 1.06618e-16 
vn 9.40275e-17 0 1 
vn -1 0 -1.06618e-16 
vn -1.88055e-16 0 -1 
vn 0 -1 0 
usemtl 0.917647_0.917647_0.917647_0.000000_0.000000
o mesh0
f 1//1 2//1 3//1 
f 3//1 4//1 1//1 
o mesh1
f 5//2 4//2 3//2 
f 3//2 6//2 5//2 
o mesh2
f 7//3 6//3 3//3 
f 3//3 2//3 7//3 
o mesh3
f 8//4 7//4 2//4 
f 2//4 1//4 8//4 
o mesh4
f 8//5 1//5 4//5 
f 4//5 5//5 8//5 
o mesh5
f 8//6 5//6 6//6 
f 6//6 7//6 8//6 
