# OBJ generated by ONSHAPE BY PTC INC, 1.215 Units = meters
mtllib basic_geo_channelless - basic_geo_channelless.mtl
g basic_geo_channelless
v -0.0076906 -0.014 0.0441437 
v -0.0076906 -0.014 0.000856277 
v -0.0123094 -0.014 0.000856277 
v -0.0123094 -0.014 0.0441437 
v -0.0146188 -0.01 0.000611626 
v -0.0146188 -0.01 0.0443884 
v -0.0123094 -0.006 0.000366976 
v -0.0123094 -0.006 0.044633 
v -0.0076906 -0.006 0.000366976 
v -0.0076906 -0.006 0.044633 
v -0.0053812 -0.01 0.000611626 
v -0.0053812 -0.01 0.0443884 
v -0.00627545 -0.154835 0.0355299 
v -0.0052736 -0.154993 0.0355203 
v -0.0042605 -0.154945 0.0355232 
v -0.00327782 -0.154694 0.0355385 
v -0.00722482 -0.154478 0.0355517 
v -0.002366 -0.15425 0.0355657 
v -0.00808265 -0.153937 0.0355848 
v -0.00156256 -0.153631 0.0356035 
v -0.00881364 -0.153234 0.0356278 
v -0.00263604 -0.00263604 0.0448388 
v -0.00399987 -0.00151677 0.0449072 
v -0.000900554 -0.152863 0.0356505 
v -0.00938771 -0.152397 0.035679 
v -0.00151677 -0.00399987 0.0447554 
v -0.000685084 -0.00555585 0.0446602 
v -0.000172932 -0.00724419 0.0445569 
v -0.000407223 -0.151976 0.0357047 
v -0.00978125 -0.151463 0.0357361 
v 0 -0.009 0.0444495 
v -0.009 0 0.045 
v -0.05 0 0.045 
v -0.00555585 -0.000685084 0.0449581 
v -0.00724419 -0.000172932 0.0449894 
v 0 -0.15 0.0358256 
v -0.000102864 -0.151009 0.0357639 
v -0.0353812 -0.01 0.0443884 
v -0.0376906 -0.006 0.044633 
v -0.0423094 -0.006 0.044633 
v -0.0423094 -0.014 0.0441437 
v -0.0446188 -0.01 0.0443884 
v -0.05 -0.0185045 0.0438682 
v -0.04989 -0.0199836 0.0437778 
v -0.0376906 -0.014 0.0441437 
v -0.0495625 -0.02143 0.0436893 
v -0.00627545 -0.154835 0.00947009 
v -0.00327782 -0.154694 0.00946149 
v -0.0042605 -0.154945 0.00947684 
v -0.0052736 -0.154993 0.00947975 
v -0.00722482 -0.154478 0.00944826 
v -0.002366 -0.15425 0.00943433 
v -0.00808265 -0.153937 0.00941517 
v -0.00156256 -0.153631 0.00939647 
v -0.00881364 -0.153234 0.00937217 
v -0.000900554 -0.152863 0.00934948 
v -0.00555585 -0.000685084 4.19015e-05 
v -0.00399987 -0.00151677 9.27698e-05 
v -0.00263604 -0.00263604 0.000161227 
v -0.00938771 -0.152397 0.00932103 
v -0.000407223 -0.151976 0.00929528 
v -0.0423094 -0.014 0.000856277 
v -0.04989 -0.0199836 0.00122225 
v -0.05 -0.0185045 0.00113179 
v -0.000685084 -0.00555585 0.00033981 
v -0.00151677 -0.00399987 0.000244642 
v -0.0353812 -0.01 0.000611626 
v -0.0376906 -0.014 0.000856277 
v -0.0495625 -0.02143 0.00131072 
v -0.05 0 6.93889e-18 
v -0.0423094 -0.006 0.000366976 
v -0.0446188 -0.01 0.000611626 
v -0.00978125 -0.151463 0.00926386 
v -0.000102864 -0.151009 0.00923611 
v -0.0376906 -0.006 0.000366976 
v -0.009 0 6.93889e-18 
v -0.000172932 -0.00724419 0.000443073 
v 0 -0.009 0.000550464 
v 0 -0.15 0.00917439 
v -0.00724419 -0.000172932 1.0577e-05 
vn 0 1 0 
vn 0.866025 0.5 0 
vn 0.866025 -0.5 0 
vn 0 -1 0 
vn -0.866025 -0.5 0 
vn -0.866025 0.5 0 
vn 0 -0.0610485 0.998135 
vn 0 -0.0610485 -0.998135 
vn -0.866025 0.5 0 
vn 0 1 0 
vn 0.866025 0.5 0 
vn 0.866025 -0.5 0 
vn -1.87789e-16 -1 0 
vn -1 0 0 
vn -0.989002 -0.147901 0 
vn -0.956251 -0.292548 0 
vn -1 -1.83697e-16 0 
vn -0.989002 -0.147901 0 
vn -0.956251 -0.292548 0 
vn 1 6.12323e-17 0 
vn 0.979427 -0.201798 0 
vn 0.918555 -0.395292 0 
vn 0.819889 -0.572522 0 
vn 0.687488 -0.726196 0 
vn 0.5268 -0.849989 0 
vn 0.344436 -0.93881 0 
vn 0.147901 -0.989002 0 
vn -0.0547203 -0.998502 0 
vn -0.25509 -0.966917 0 
vn -0.444964 -0.895549 0 
vn -0.616529 -0.787332 0 
vn -0.762727 -0.64672 0 
vn -0.877542 -0.479499 0 
vn -0.956251 -0.292548 0 
vn -0.616529 -0.787332 0 
vn -0.25509 -0.966917 0 
vn 0.147901 -0.989002 0 
vn 0.5268 -0.849989 0 
vn 0.918555 -0.395292 0 
vn 1 0 0 
vn 0 1 0 
vn 0.19509 0.980785 0 
vn 0.382683 0.92388 0 
vn 0.55557 0.83147 0 
vn 0.707107 0.707107 0 
vn 0.83147 0.55557 0 
vn 0.92388 0.382683 0 
vn 0.980785 0.19509 0 
vn 1 6.12323e-17 0 
vn 0.92388 0.382683 0 
vn 0.707107 0.707107 0 
vn 0 1 0 
vn -0.866025 -0.5 0 
usemtl 0.647059_0.647059_0.647059_0.000000_0.000000
o mesh0
f 1//1 2//1 3//1 
f 3//1 4//1 1//1 
o mesh1
f 5//2 6//2 4//2 
f 4//2 3//2 5//2 
o mesh2
f 7//3 8//3 6//3 
f 6//3 5//3 7//3 
o mesh3
f 8//4 7//4 9//4 
f 9//4 10//4 8//4 
o mesh4
f 9//5 11//5 12//5 
f 12//5 10//5 9//5 
o mesh5
f 11//6 2//6 1//6 
f 1//6 12//6 11//6 
o mesh6
f 13//7 14//7 15//7 
f 16//7 17//7 13//7 
f 15//7 16//7 13//7 
f 18//7 19//7 17//7 
f 16//7 18//7 17//7 
f 20//7 21//7 19//7 
f 18//7 20//7 19//7 
f 10//7 22//7 23//7 
f 24//7 25//7 21//7 
f 10//7 26//7 22//7 
f 20//7 24//7 21//7 
f 10//7 27//7 26//7 
f 12//7 28//7 27//7 
f 29//7 30//7 25//7 
f 27//7 10//7 12//7 
f 24//7 29//7 25//7 
f 31//7 12//7 1//7 
f 12//7 31//7 28//7 
f 32//7 33//7 8//7 
f 10//7 34//7 35//7 
f 4//7 30//7 36//7 
f 29//7 37//7 30//7 
f 23//7 34//7 10//7 
f 35//7 32//7 10//7 
f 4//7 6//7 38//7 
f 8//7 39//7 38//7 
f 37//7 36//7 30//7 
f 8//7 10//7 32//7 
f 38//7 6//7 8//7 
f 33//7 40//7 39//7 
f 41//7 42//7 43//7 
f 1//7 36//7 31//7 
f 39//7 8//7 33//7 
f 33//7 43//7 42//7 
f 43//7 44//7 41//7 
f 38//7 45//7 4//7 
f 44//7 46//7 41//7 
f 30//7 45//7 41//7 
f 42//7 40//7 33//7 
f 30//7 4//7 45//7 
f 41//7 46//7 30//7 
f 36//7 1//7 4//7 
o mesh7
f 47//8 48//8 49//8 
f 49//8 50//8 47//8 
f 51//8 52//8 48//8 
f 47//8 51//8 48//8 
f 53//8 54//8 52//8 
f 51//8 53//8 52//8 
f 55//8 56//8 54//8 
f 9//8 57//8 58//8 
f 53//8 55//8 54//8 
f 58//8 59//8 9//8 
f 60//8 61//8 56//8 
f 62//8 63//8 64//8 
f 11//8 9//8 65//8 
f 59//8 66//8 9//8 
f 55//8 60//8 56//8 
f 7//8 5//8 67//8 
f 3//8 68//8 67//8 
f 62//8 69//8 63//8 
f 70//8 71//8 72//8 
f 66//8 65//8 9//8 
f 73//8 74//8 61//8 
f 75//8 76//8 7//8 
f 67//8 5//8 3//8 
f 9//8 7//8 76//8 
f 73//8 69//8 62//8 
f 72//8 64//8 70//8 
f 65//8 77//8 11//8 
f 78//8 79//8 2//8 
f 73//8 79//8 74//8 
f 3//8 2//8 79//8 
f 3//8 73//8 68//8 
f 76//8 80//8 9//8 
f 64//8 72//8 62//8 
f 70//8 76//8 75//8 
f 2//8 11//8 78//8 
f 79//8 73//8 3//8 
f 80//8 57//8 9//8 
f 75//8 71//8 70//8 
f 60//8 73//8 61//8 
f 62//8 68//8 73//8 
f 67//8 75//8 7//8 
f 77//8 78//8 11//8 
o mesh8
f 67//9 68//9 45//9 
f 45//9 38//9 67//9 
o mesh9
f 45//10 68//10 62//10 
f 62//10 41//10 45//10 
o mesh10
f 72//11 42//11 41//11 
f 41//11 62//11 72//11 
o mesh11
f 71//12 40//12 42//12 
f 42//12 72//12 71//12 
o mesh12
f 40//13 71//13 75//13 
f 75//13 39//13 40//13 
o mesh13
f 33//14 70//14 64//14 
f 64//14 43//14 33//14 
o mesh14
f 63//15 69//16 46//16 
f 43//17 64//17 63//15 
f 63//15 44//18 43//17 
f 46//16 44//18 63//15 
o mesh15
f 46//19 69//19 73//19 
f 73//19 30//19 46//19 
o mesh16
f 79//20 36//20 37//21 
f 74//21 37//21 29//22 
f 29//22 24//23 56//23 
f 56//23 24//23 20//24 
f 54//24 20//24 18//25 
f 18//25 16//26 48//26 
f 48//26 16//26 15//27 
f 15//27 14//28 50//28 
f 47//29 50//28 14//28 
f 17//30 51//30 47//29 
f 53//31 51//30 17//30 
f 21//32 55//32 53//31 
f 60//33 55//32 21//32 
f 30//34 73//34 60//33 
f 60//33 25//33 30//34 
f 21//32 25//33 60//33 
f 53//31 19//35 21//32 
f 17//30 19//35 53//31 
f 47//29 13//36 17//30 
f 14//28 13//36 47//29 
f 50//28 49//37 15//27 
f 15//27 49//37 48//26 
f 48//26 52//38 18//25 
f 18//25 52//38 54//24 
f 20//24 54//24 56//23 
f 56//23 61//39 29//22 
f 29//22 61//39 74//21 
f 37//21 74//21 79//20 
o mesh17
f 78//40 31//40 36//40 
f 36//40 79//40 78//40 
o mesh18
f 32//41 35//42 80//42 
f 80//42 35//42 34//43 
f 57//43 34//43 23//44 
f 58//44 23//44 22//45 
f 22//45 26//46 66//46 
f 66//46 26//46 27//47 
f 27//47 28//48 77//48 
f 77//48 28//48 31//49 
f 31//49 78//49 77//48 
f 77//48 65//50 27//47 
f 27//47 65//50 66//46 
f 66//46 59//51 22//45 
f 22//45 59//51 58//44 
f 23//44 58//44 57//43 
f 34//43 57//43 80//42 
f 80//42 76//52 32//41 
o mesh19
f 75//53 67//53 38//53 
f 38//53 39//53 75//53 
o mesh20
f 32//52 76//52 70//52 
f 70//52 33//52 32//52 
