# OBJ generated by ONSHAPE BY PTC INC, 1.216 Units = meters
mtllib Parameterized Pad N x M - Pad.mtl
g Pad
v 0.0199941 0.00689188 0.028 
v 0.0199766 0.00678503 0.028 
v 0.0199477 0.0066807 0.028 
v 0.0199076 0.00658011 0.028 
v 0.0198569 0.00648445 0.028 
v 0.0197961 0.00639483 0.028 
v 0.019726 0.0063123 0.028 
v 0.0196474 0.00623784 0.028 
v 0.0195612 0.00617231 0.028 
v 0.0194684 0.00611649 0.028 
v 0.0193701 0.00607102 0.028 
v 0.0192675 0.00603645 0.028 
v 0.0191618 0.00601317 0.028 
v 0.0190541 0.00600147 0.028 
v 0.0189459 0.00600147 0.028 
v 0.0188382 0.00601317 0.028 
v 0.0187325 0.00603645 0.028 
v 0.0186299 0.00607102 0.028 
v 0.0185316 0.00611649 0.028 
v 0.0184388 0.00617231 0.028 
v 0.0183526 0.00623784 0.028 
v 0.018274 0.0063123 0.028 
v 0.0182039 0.00639483 0.028 
v 0.0181431 0.00648445 0.028 
v 0.0180924 0.00658011 0.028 
v 0.0180523 0.0066807 0.028 
v 0.0180234 0.00678503 0.028 
v 0.0180059 0.00689188 0.028 
v 0.018 0.007 0.028 
v 0.0180059 0.00710812 0.028 
v 0.0180234 0.00721497 0.028 
v 0.0180523 0.0073193 0.028 
v 0.0180924 0.00741989 0.028 
v 0.0181431 0.00751555 0.028 
v 0.0182039 0.00760517 0.028 
v 0.018274 0.0076877 0.028 
v 0.0183526 0.00776216 0.028 
v 0.0184388 0.00782769 0.028 
v 0.0185316 0.00788351 0.028 
v 0.0186299 0.00792898 0.028 
v 0.0187325 0.00796355 0.028 
v 0.0188382 0.00798683 0.028 
v 0.0189459 0.00799853 0.028 
v 0.0190541 0.00799853 0.028 
v 0.0191618 0.00798683 0.028 
v 0.0192675 0.00796355 0.028 
v 0.0193701 0.00792898 0.028 
v 0.0194684 0.00788351 0.028 
v 0.0195612 0.00782769 0.028 
v 0.0196474 0.00776216 0.028 
v 0.019726 0.0076877 0.028 
v 0.0197961 0.00760517 0.028 
v 0.0198569 0.00751555 0.028 
v 0.0199076 0.00741989 0.028 
v 0.0199477 0.0073193 0.028 
v 0.0199766 0.00721497 0.028 
v 0.0199941 0.00710812 0.028 
v 0.02 0.007 0.028 
v 0.019 0.007 0.028 
v 0.0180059 0.00689188 -0.0295 
v 0.018 0.007 -0.0295 
v 0.0180234 0.00678503 -0.0295 
v 0.0180523 0.0066807 -0.0295 
v 0.0180924 0.00658011 -0.0295 
v 0.0181431 0.00648445 -0.0295 
v 0.0182039 0.00639483 -0.0295 
v 0.018274 0.0063123 -0.0295 
v 0.0183526 0.00623784 -0.0295 
v 0.0184388 0.00617231 -0.0295 
v 0.0185316 0.00611649 -0.0295 
v 0.0186299 0.00607102 -0.0295 
v 0.0187325 0.00603645 -0.0295 
v 0.0188382 0.00601317 -0.0295 
v 0.0189459 0.00600147 -0.0295 
v 0.0190541 0.00600147 -0.0295 
v 0.0191618 0.00601317 -0.0295 
v 0.0192675 0.00603645 -0.0295 
v 0.0193701 0.00607102 -0.0295 
v 0.0194684 0.00611649 -0.0295 
v 0.0195612 0.00617231 -0.0295 
v 0.0196474 0.00623784 -0.0295 
v 0.019726 0.0063123 -0.0295 
v 0.0197961 0.00639483 -0.0295 
v 0.0198569 0.00648445 -0.0295 
v 0.0199076 0.00658011 -0.0295 
v 0.0199477 0.0066807 -0.0295 
v 0.0199766 0.00678503 -0.0295 
v 0.0199941 0.00689188 -0.0295 
v 0.02 0.007 -0.0295 
v 0.0199941 0.00710812 -0.0295 
v 0.0199766 0.00721497 -0.0295 
v 0.0199477 0.0073193 -0.0295 
v 0.0199076 0.00741989 -0.0295 
v 0.0198569 0.00751555 -0.0295 
v 0.0197961 0.00760517 -0.0295 
v 0.019726 0.0076877 -0.0295 
v 0.0196474 0.00776216 -0.0295 
v 0.0195612 0.00782769 -0.0295 
v 0.0194684 0.00788351 -0.0295 
v 0.0193701 0.00792898 -0.0295 
v 0.0192675 0.00796355 -0.0295 
v 0.0191618 0.00798683 -0.0295 
v 0.0190541 0.00799853 -0.0295 
v 0.0189459 0.00799853 -0.0295 
v 0.0188382 0.00798683 -0.0295 
v 0.0187325 0.00796355 -0.0295 
v 0.0186299 0.00792898 -0.0295 
v 0.0185316 0.00788351 -0.0295 
v 0.0184388 0.00782769 -0.0295 
v 0.0183526 0.00776216 -0.0295 
v 0.018274 0.0076877 -0.0295 
v 0.0182039 0.00760517 -0.0295 
v 0.0181431 0.00751555 -0.0295 
v 0.0180924 0.00741989 -0.0295 
v 0.0180523 0.0073193 -0.0295 
v 0.0180234 0.00721497 -0.0295 
v 0.0180059 0.00710812 -0.0295 
v 0.019 0.007 -0.0295 
v 0.000994138 0.00689188 0.028 
v 0.000976621 0.00678503 0.028 
v 0.000947653 0.0066807 0.028 
v 0.000907575 0.00658011 0.028 
v 0.000856857 0.00648445 0.028 
v 0.000796093 0.00639483 0.028 
v 0.000725995 0.0063123 0.028 
v 0.000647386 0.00623784 0.028 
v 0.000561187 0.00617231 0.028 
v 0.000468408 0.00611649 0.028 
v 0.000370138 0.00607102 0.028 
v 0.000267528 0.00603645 0.028 
v 0.000161782 0.00601317 0.028 
v 5.41389e-05 0.00600147 0.028 
v -5.41389e-05 0.00600147 0.028 
v -0.000161782 0.00601317 0.028 
v -0.000267528 0.00603645 0.028 
v -0.000370138 0.00607102 0.028 
v -0.000468408 0.00611649 0.028 
v -0.000561187 0.00617231 0.028 
v -0.000647386 0.00623784 0.028 
v -0.000725995 0.0063123 0.028 
v -0.000796093 0.00639483 0.028 
v -0.000856857 0.00648445 0.028 
v -0.000907575 0.00658011 0.028 
v -0.000947653 0.0066807 0.028 
v -0.000976621 0.00678503 0.028 
v -0.000994138 0.00689188 0.028 
v -0.001 0.007 0.028 
v -0.000994138 0.00710812 0.028 
v -0.000976621 0.00721497 0.028 
v -0.000947653 0.0073193 0.028 
v -0.000907575 0.00741989 0.028 
v -0.000856857 0.00751555 0.028 
v -0.000796093 0.00760517 0.028 
v -0.000725995 0.0076877 0.028 
v -0.000647386 0.00776216 0.028 
v -0.000561187 0.00782769 0.028 
v -0.000468408 0.00788351 0.028 
v -0.000370138 0.00792898 0.028 
v -0.000267528 0.00796355 0.028 
v -0.000161782 0.00798683 0.028 
v -5.41389e-05 0.00799853 0.028 
v 5.41389e-05 0.00799853 0.028 
v 0.000161782 0.00798683 0.028 
v 0.000267528 0.00796355 0.028 
v 0.000370138 0.00792898 0.028 
v 0.000468408 0.00788351 0.028 
v 0.000561187 0.00782769 0.028 
v 0.000647386 0.00776216 0.028 
v 0.000725995 0.0076877 0.028 
v 0.000796093 0.00760517 0.028 
v 0.000856857 0.00751555 0.028 
v 0.000907575 0.00741989 0.028 
v 0.000947653 0.0073193 0.028 
v 0.000976621 0.00721497 0.028 
v 0.000994138 0.00710812 0.028 
v 0.001 0.007 0.028 
v 6.7076e-18 0.007 0.028 
v -0.000994138 0.00689188 -0.0295 
v -0.001 0.007 -0.0295 
v -0.000976621 0.00678503 -0.0295 
v -0.000947653 0.0066807 -0.0295 
v -0.000907575 0.00658011 -0.0295 
v -0.000856857 0.00648445 -0.0295 
v -0.000796093 0.00639483 -0.0295 
v -0.000725995 0.0063123 -0.0295 
v -0.000647386 0.00623784 -0.0295 
v -0.000561187 0.00617231 -0.0295 
v -0.000468408 0.00611649 -0.0295 
v -0.000370138 0.00607102 -0.0295 
v -0.000267528 0.00603645 -0.0295 
v -0.000161782 0.00601317 -0.0295 
v -5.41389e-05 0.00600147 -0.0295 
v 5.41389e-05 0.00600147 -0.0295 
v 0.000161782 0.00601317 -0.0295 
v 0.000267528 0.00603645 -0.0295 
v 0.000370138 0.00607102 -0.0295 
v 0.000468408 0.00611649 -0.0295 
v 0.000561187 0.00617231 -0.0295 
v 0.000647386 0.00623784 -0.0295 
v 0.000725995 0.0063123 -0.0295 
v 0.000796093 0.00639483 -0.0295 
v 0.000856857 0.00648445 -0.0295 
v 0.000907575 0.00658011 -0.0295 
v 0.000947653 0.0066807 -0.0295 
v 0.000976621 0.00678503 -0.0295 
v 0.000994138 0.00689188 -0.0295 
v 0.001 0.007 -0.0295 
v 0.000994138 0.00710812 -0.0295 
v 0.000976621 0.00721497 -0.0295 
v 0.000947653 0.0073193 -0.0295 
v 0.000907575 0.00741989 -0.0295 
v 0.000856857 0.00751555 -0.0295 
v 0.000796093 0.00760517 -0.0295 
v 0.000725995 0.0076877 -0.0295 
v 0.000647386 0.00776216 -0.0295 
v 0.000561187 0.00782769 -0.0295 
v 0.000468408 0.00788351 -0.0295 
v 0.000370138 0.00792898 -0.0295 
v 0.000267528 0.00796355 -0.0295 
v 0.000161782 0.00798683 -0.0295 
v 5.41389e-05 0.00799853 -0.0295 
v -5.41389e-05 0.00799853 -0.0295 
v -0.000161782 0.00798683 -0.0295 
v -0.000267528 0.00796355 -0.0295 
v -0.000370138 0.00792898 -0.0295 
v -0.000468408 0.00788351 -0.0295 
v -0.000561187 0.00782769 -0.0295 
v -0.000647386 0.00776216 -0.0295 
v -0.000725995 0.0076877 -0.0295 
v -0.000796093 0.00760517 -0.0295 
v -0.000856857 0.00751555 -0.0295 
v -0.000907575 0.00741989 -0.0295 
v -0.000947653 0.0073193 -0.0295 
v -0.000976621 0.00721497 -0.0295 
v -0.000994138 0.00710812 -0.0295 
v 5.78241e-20 0.007 -0.0295 
v -0.0180059 0.00689188 0.028 
v -0.0180234 0.00678503 0.028 
v -0.0180523 0.0066807 0.028 
v -0.0180924 0.00658011 0.028 
v -0.0181431 0.00648445 0.028 
v -0.0182039 0.00639483 0.028 
v -0.018274 0.0063123 0.028 
v -0.0183526 0.00623784 0.028 
v -0.0184388 0.00617231 0.028 
v -0.0185316 0.00611649 0.028 
v -0.0186299 0.00607102 0.028 
v -0.0187325 0.00603645 0.028 
v -0.0188382 0.00601317 0.028 
v -0.0189459 0.00600147 0.028 
v -0.0190541 0.00600147 0.028 
v -0.0191618 0.00601317 0.028 
v -0.0192675 0.00603645 0.028 
v -0.0193701 0.00607102 0.028 
v -0.0194684 0.00611649 0.028 
v -0.0195612 0.00617231 0.028 
v -0.0196474 0.00623784 0.028 
v -0.019726 0.0063123 0.028 
v -0.0197961 0.00639483 0.028 
v -0.0198569 0.00648445 0.028 
v -0.0199076 0.00658011 0.028 
v -0.0199477 0.0066807 0.028 
v -0.0199766 0.00678503 0.028 
v -0.0199941 0.00689188 0.028 
v -0.02 0.007 0.028 
v -0.0199941 0.00710812 0.028 
v -0.0199766 0.00721497 0.028 
v -0.0199477 0.0073193 0.028 
v -0.0199076 0.00741989 0.028 
v -0.0198569 0.00751555 0.028 
v -0.0197961 0.00760517 0.028 
v -0.019726 0.0076877 0.028 
v -0.0196474 0.00776216 0.028 
v -0.0195612 0.00782769 0.028 
v -0.0194684 0.00788351 0.028 
v -0.0193701 0.00792898 0.028 
v -0.0192675 0.00796355 0.028 
v -0.0191618 0.00798683 0.028 
v -0.0190541 0.00799853 0.028 
v -0.0189459 0.00799853 0.028 
v -0.0188382 0.00798683 0.028 
v -0.0187325 0.00796355 0.028 
v -0.0186299 0.00792898 0.028 
v -0.0185316 0.00788351 0.028 
v -0.0184388 0.00782769 0.028 
v -0.0183526 0.00776216 0.028 
v -0.018274 0.0076877 0.028 
v -0.0182039 0.00760517 0.028 
v -0.0181431 0.00751555 0.028 
v -0.0180924 0.00741989 0.028 
v -0.0180523 0.0073193 0.028 
v -0.0180234 0.00721497 0.028 
v -0.0180059 0.00710812 0.028 
v -0.018 0.007 0.028 
v -0.019 0.007 0.028 
v -0.0199941 0.00689188 -0.0295 
v -0.02 0.007 -0.0295 
v -0.0199766 0.00678503 -0.0295 
v -0.0199477 0.0066807 -0.0295 
v -0.0199076 0.00658011 -0.0295 
v -0.0198569 0.00648445 -0.0295 
v -0.0197961 0.00639483 -0.0295 
v -0.019726 0.0063123 -0.0295 
v -0.0196474 0.00623784 -0.0295 
v -0.0195612 0.00617231 -0.0295 
v -0.0194684 0.00611649 -0.0295 
v -0.0193701 0.00607102 -0.0295 
v -0.0192675 0.00603645 -0.0295 
v -0.0191618 0.00601317 -0.0295 
v -0.0190541 0.00600147 -0.0295 
v -0.0189459 0.00600147 -0.0295 
v -0.0188382 0.00601317 -0.0295 
v -0.0187325 0.00603645 -0.0295 
v -0.0186299 0.00607102 -0.0295 
v -0.0185316 0.00611649 -0.0295 
v -0.0184388 0.00617231 -0.0295 
v -0.0183526 0.00623784 -0.0295 
v -0.018274 0.0063123 -0.0295 
v -0.0182039 0.00639483 -0.0295 
v -0.0181431 0.00648445 -0.0295 
v -0.0180924 0.00658011 -0.0295 
v -0.0180523 0.0066807 -0.0295 
v -0.0180234 0.00678503 -0.0295 
v -0.0180059 0.00689188 -0.0295 
v -0.018 0.007 -0.0295 
v -0.0180059 0.00710812 -0.0295 
v -0.0180234 0.00721497 -0.0295 
v -0.0180523 0.0073193 -0.0295 
v -0.0180924 0.00741989 -0.0295 
v -0.0181431 0.00751555 -0.0295 
v -0.0182039 0.00760517 -0.0295 
v -0.018274 0.0076877 -0.0295 
v -0.0183526 0.00776216 -0.0295 
v -0.0184388 0.00782769 -0.0295 
v -0.0185316 0.00788351 -0.0295 
v -0.0186299 0.00792898 -0.0295 
v -0.0187325 0.00796355 -0.0295 
v -0.0188382 0.00798683 -0.0295 
v -0.0189459 0.00799853 -0.0295 
v -0.0190541 0.00799853 -0.0295 
v -0.0191618 0.00798683 -0.0295 
v -0.0192675 0.00796355 -0.0295 
v -0.0193701 0.00792898 -0.0295 
v -0.0194684 0.00788351 -0.0295 
v -0.0195612 0.00782769 -0.0295 
v -0.0196474 0.00776216 -0.0295 
v -0.019726 0.0076877 -0.0295 
v -0.0197961 0.00760517 -0.0295 
v -0.0198569 0.00751555 -0.0295 
v -0.0199076 0.00741989 -0.0295 
v -0.0199477 0.0073193 -0.0295 
v -0.0199766 0.00721497 -0.0295 
v -0.0199941 0.00710812 -0.0295 
v -0.019 0.007 -0.0295 
v -0.028 0.00289188 0.0199941 
v -0.028 0.00278503 0.0199766 
v -0.028 0.0026807 0.0199477 
v -0.028 0.00258011 0.0199076 
v -0.028 0.00248445 0.0198569 
v -0.028 0.00239483 0.0197961 
v -0.028 0.0023123 0.019726 
v -0.028 0.00223784 0.0196474 
v -0.028 0.00217231 0.0195612 
v -0.028 0.00211649 0.0194684 
v -0.028 0.00207102 0.0193701 
v -0.028 0.00203645 0.0192675 
v -0.028 0.00201317 0.0191618 
v -0.028 0.00200147 0.0190541 
v -0.028 0.00200147 0.0189459 
v -0.028 0.00201317 0.0188382 
v -0.028 0.00203645 0.0187325 
v -0.028 0.00207102 0.0186299 
v -0.028 0.00211649 0.0185316 
v -0.028 0.00217231 0.0184388 
v -0.028 0.00223784 0.0183526 
v -0.028 0.0023123 0.018274 
v -0.028 0.00239483 0.0182039 
v -0.028 0.00248445 0.0181431 
v -0.028 0.00258011 0.0180924 
v -0.028 0.0026807 0.0180523 
v -0.028 0.00278503 0.0180234 
v -0.028 0.00289188 0.0180059 
v -0.028 0.003 0.018 
v -0.028 0.00310812 0.0180059 
v -0.028 0.00321497 0.0180234 
v -0.028 0.0033193 0.0180523 
v -0.028 0.00341989 0.0180924 
v -0.028 0.00351555 0.0181431 
v -0.028 0.00360517 0.0182039 
v -0.028 0.0036877 0.018274 
v -0.028 0.00376216 0.0183526 
v -0.028 0.00382769 0.0184388 
v -0.028 0.00388351 0.0185316 
v -0.028 0.00392898 0.0186299 
v -0.028 0.00396355 0.0187325 
v -0.028 0.00398683 0.0188382 
v -0.028 0.00399853 0.0189459 
v -0.028 0.00399853 0.0190541 
v -0.028 0.00398683 0.0191618 
v -0.028 0.00396355 0.0192675 
v -0.028 0.00392898 0.0193701 
v -0.028 0.00388351 0.0194684 
v -0.028 0.00382769 0.0195612 
v -0.028 0.00376216 0.0196474 
v -0.028 0.0036877 0.019726 
v -0.028 0.00360517 0.0197961 
v -0.028 0.00351555 0.0198569 
v -0.028 0.00341989 0.0199076 
v -0.028 0.0033193 0.0199477 
v -0.028 0.00321497 0.0199766 
v -0.028 0.00310812 0.0199941 
v -0.028 0.003 0.02 
v -0.028 0.003 0.019 
v 0.0295 0.00289188 0.0180059 
v 0.0295 0.003 0.018 
v 0.0295 0.00278503 0.0180234 
v 0.0295 0.0026807 0.0180523 
v 0.0295 0.00258011 0.0180924 
v 0.0295 0.00248445 0.0181431 
v 0.0295 0.00239483 0.0182039 
v 0.0295 0.0023123 0.018274 
v 0.0295 0.00223784 0.0183526 
v 0.0295 0.00217231 0.0184388 
v 0.0295 0.00211649 0.0185316 
v 0.0295 0.00207102 0.0186299 
v 0.0295 0.00203645 0.0187325 
v 0.0295 0.00201317 0.0188382 
v 0.0295 0.00200147 0.0189459 
v 0.0295 0.00200147 0.0190541 
v 0.0295 0.00201317 0.0191618 
v 0.0295 0.00203645 0.0192675 
v 0.0295 0.00207102 0.0193701 
v 0.0295 0.00211649 0.0194684 
v 0.0295 0.00217231 0.0195612 
v 0.0295 0.00223784 0.0196474 
v 0.0295 0.0023123 0.019726 
v 0.0295 0.00239483 0.0197961 
v 0.0295 0.00248445 0.0198569 
v 0.0295 0.00258011 0.0199076 
v 0.0295 0.0026807 0.0199477 
v 0.0295 0.00278503 0.0199766 
v 0.0295 0.00289188 0.0199941 
v 0.0295 0.003 0.02 
v 0.0295 0.00310812 0.0199941 
v 0.0295 0.00321497 0.0199766 
v 0.0295 0.0033193 0.0199477 
v 0.0295 0.00341989 0.0199076 
v 0.0295 0.00351555 0.0198569 
v 0.0295 0.00360517 0.0197961 
v 0.0295 0.0036877 0.019726 
v 0.0295 0.00376216 0.0196474 
v 0.0295 0.00382769 0.0195612 
v 0.0295 0.00388351 0.0194684 
v 0.0295 0.00392898 0.0193701 
v 0.0295 0.00396355 0.0192675 
v 0.0295 0.00398683 0.0191618 
v 0.0295 0.00399853 0.0190541 
v 0.0295 0.00399853 0.0189459 
v 0.0295 0.00398683 0.0188382 
v 0.0295 0.00396355 0.0187325 
v 0.0295 0.00392898 0.0186299 
v 0.0295 0.00388351 0.0185316 
v 0.0295 0.00382769 0.0184388 
v 0.0295 0.00376216 0.0183526 
v 0.0295 0.0036877 0.018274 
v 0.0295 0.00360517 0.0182039 
v 0.0295 0.00351555 0.0181431 
v 0.0295 0.00341989 0.0180924 
v 0.0295 0.0033193 0.0180523 
v 0.0295 0.00321497 0.0180234 
v 0.0295 0.00310812 0.0180059 
v 0.0295 0.003 0.019 
v -0.028 0.00289188 0.000994138 
v -0.028 0.00278503 0.000976621 
v -0.028 0.0026807 0.000947653 
v -0.028 0.00258011 0.000907575 
v -0.028 0.00248445 0.000856857 
v -0.028 0.00239483 0.000796093 
v -0.028 0.0023123 0.000725995 
v -0.028 0.00223784 0.000647386 
v -0.028 0.00217231 0.000561187 
v -0.028 0.00211649 0.000468408 
v -0.028 0.00207102 0.000370138 
v -0.028 0.00203645 0.000267528 
v -0.028 0.00201317 0.000161782 
v -0.028 0.00200147 5.41389e-05 
v -0.028 0.00200147 -5.41389e-05 
v -0.028 0.00201317 -0.000161782 
v -0.028 0.00203645 -0.000267528 
v -0.028 0.00207102 -0.000370138 
v -0.028 0.00211649 -0.000468408 
v -0.028 0.00217231 -0.000561187 
v -0.028 0.00223784 -0.000647386 
v -0.028 0.0023123 -0.000725995 
v -0.028 0.00239483 -0.000796093 
v -0.028 0.00248445 -0.000856857 
v -0.028 0.00258011 -0.000907575 
v -0.028 0.0026807 -0.000947653 
v -0.028 0.00278503 -0.000976621 
v -0.028 0.00289188 -0.000994138 
v -0.028 0.003 -0.001 
v -0.028 0.00310812 -0.000994138 
v -0.028 0.00321497 -0.000976621 
v -0.028 0.0033193 -0.000947653 
v -0.028 0.00341989 -0.000907575 
v -0.028 0.00351555 -0.000856857 
v -0.028 0.00360517 -0.000796093 
v -0.028 0.0036877 -0.000725995 
v -0.028 0.00376216 -0.000647386 
v -0.028 0.00382769 -0.000561187 
v -0.028 0.00388351 -0.000468408 
v -0.028 0.00392898 -0.000370138 
v -0.028 0.00396355 -0.000267528 
v -0.028 0.00398683 -0.000161782 
v -0.028 0.00399853 -5.41389e-05 
v -0.028 0.00399853 5.41389e-05 
v -0.028 0.00398683 0.000161782 
v -0.028 0.00396355 0.000267528 
v -0.028 0.00392898 0.000370138 
v -0.028 0.00388351 0.000468408 
v -0.028 0.00382769 0.000561187 
v -0.028 0.00376216 0.000647386 
v -0.028 0.0036877 0.000725995 
v -0.028 0.00360517 0.000796093 
v -0.028 0.00351555 0.000856857 
v -0.028 0.00341989 0.000907575 
v -0.028 0.0033193 0.000947653 
v -0.028 0.00321497 0.000976621 
v -0.028 0.00310812 0.000994138 
v -0.028 0.003 0.001 
v -0.028 0.003 -5.08852e-18 
v 0.0295 0.00289188 -0.000994138 
v 0.0295 0.003 -0.001 
v 0.0295 0.00278503 -0.000976621 
v 0.0295 0.0026807 -0.000947653 
v 0.0295 0.00258011 -0.000907575 
v 0.0295 0.00248445 -0.000856857 
v 0.0295 0.00239483 -0.000796093 
v 0.0295 0.0023123 -0.000725995 
v 0.0295 0.00223784 -0.000647386 
v 0.0295 0.00217231 -0.000561187 
v 0.0295 0.00211649 -0.000468408 
v 0.0295 0.00207102 -0.000370138 
v 0.0295 0.00203645 -0.000267528 
v 0.0295 0.00201317 -0.000161782 
v 0.0295 0.00200147 -5.41389e-05 
v 0.0295 0.00200147 5.41389e-05 
v 0.0295 0.00201317 0.000161782 
v 0.0295 0.00203645 0.000267528 
v 0.0295 0.00207102 0.000370138 
v 0.0295 0.00211649 0.000468408 
v 0.0295 0.00217231 0.000561187 
v 0.0295 0.00223784 0.000647386 
v 0.0295 0.0023123 0.000725995 
v 0.0295 0.00239483 0.000796093 
v 0.0295 0.00248445 0.000856857 
v 0.0295 0.00258011 0.000907575 
v 0.0295 0.0026807 0.000947653 
v 0.0295 0.00278503 0.000976621 
v 0.0295 0.00289188 0.000994138 
v 0.0295 0.003 0.001 
v 0.0295 0.00310812 0.000994138 
v 0.0295 0.00321497 0.000976621 
v 0.0295 0.0033193 0.000947653 
v 0.0295 0.00341989 0.000907575 
v 0.0295 0.00351555 0.000856857 
v 0.0295 0.00360517 0.000796093 
v 0.0295 0.0036877 0.000725995 
v 0.0295 0.00376216 0.000647386 
v 0.0295 0.00382769 0.000561187 
v 0.0295 0.00388351 0.000468408 
v 0.0295 0.00392898 0.000370138 
v 0.0295 0.00396355 0.000267528 
v 0.0295 0.00398683 0.000161782 
v 0.0295 0.00399853 5.41389e-05 
v 0.0295 0.00399853 -5.41389e-05 
v 0.0295 0.00398683 -0.000161782 
v 0.0295 0.00396355 -0.000267528 
v 0.0295 0.00392898 -0.000370138 
v 0.0295 0.00388351 -0.000468408 
v 0.0295 0.00382769 -0.000561187 
v 0.0295 0.00376216 -0.000647386 
v 0.0295 0.0036877 -0.000725995 
v 0.0295 0.00360517 -0.000796093 
v 0.0295 0.00351555 -0.000856857 
v 0.0295 0.00341989 -0.000907575 
v 0.0295 0.0033193 -0.000947653 
v 0.0295 0.00321497 -0.000976621 
v 0.0295 0.00310812 -0.000994138 
v 0.0295 0.003 -1.76364e-18 
v -0.028 0.00289188 -0.0180059 
v -0.028 0.00278503 -0.0180234 
v -0.028 0.0026807 -0.0180523 
v -0.028 0.00258011 -0.0180924 
v -0.028 0.00248445 -0.0181431 
v -0.028 0.00239483 -0.0182039 
v -0.028 0.0023123 -0.018274 
v -0.028 0.00223784 -0.0183526 
v -0.028 0.00217231 -0.0184388 
v -0.028 0.00211649 -0.0185316 
v -0.028 0.00207102 -0.0186299 
v -0.028 0.00203645 -0.0187325 
v -0.028 0.00201317 -0.0188382 
v -0.028 0.00200147 -0.0189459 
v -0.028 0.00200147 -0.0190541 
v -0.028 0.00201317 -0.0191618 
v -0.028 0.00203645 -0.0192675 
v -0.028 0.00207102 -0.0193701 
v -0.028 0.00211649 -0.0194684 
v -0.028 0.00217231 -0.0195612 
v -0.028 0.00223784 -0.0196474 
v -0.028 0.0023123 -0.019726 
v -0.028 0.00239483 -0.0197961 
v -0.028 0.00248445 -0.0198569 
v -0.028 0.00258011 -0.0199076 
v -0.028 0.0026807 -0.0199477 
v -0.028 0.00278503 -0.0199766 
v -0.028 0.00289188 -0.0199941 
v -0.028 0.003 -0.02 
v -0.028 0.00310812 -0.0199941 
v -0.028 0.00321497 -0.0199766 
v -0.028 0.0033193 -0.0199477 
v -0.028 0.00341989 -0.0199076 
v -0.028 0.00351555 -0.0198569 
v -0.028 0.00360517 -0.0197961 
v -0.028 0.0036877 -0.019726 
v -0.028 0.00376216 -0.0196474 
v -0.028 0.00382769 -0.0195612 
v -0.028 0.00388351 -0.0194684 
v -0.028 0.00392898 -0.0193701 
v -0.028 0.00396355 -0.0192675 
v -0.028 0.00398683 -0.0191618 
v -0.028 0.00399853 -0.0190541 
v -0.028 0.00399853 -0.0189459 
v -0.028 0.00398683 -0.0188382 
v -0.028 0.00396355 -0.0187325 
v -0.028 0.00392898 -0.0186299 
v -0.028 0.00388351 -0.0185316 
v -0.028 0.00382769 -0.0184388 
v -0.028 0.00376216 -0.0183526 
v -0.028 0.0036877 -0.018274 
v -0.028 0.00360517 -0.0182039 
v -0.028 0.00351555 -0.0181431 
v -0.028 0.00341989 -0.0180924 
v -0.028 0.0033193 -0.0180523 
v -0.028 0.00321497 -0.0180234 
v -0.028 0.00310812 -0.0180059 
v -0.028 0.003 -0.018 
v -0.028 0.003 -0.019 
v 0.0295 0.00289188 -0.0199941 
v 0.0295 0.003 -0.02 
v 0.0295 0.00278503 -0.0199766 
v 0.0295 0.0026807 -0.0199477 
v 0.0295 0.00258011 -0.0199076 
v 0.0295 0.00248445 -0.0198569 
v 0.0295 0.00239483 -0.0197961 
v 0.0295 0.0023123 -0.019726 
v 0.0295 0.00223784 -0.0196474 
v 0.0295 0.00217231 -0.0195612 
v 0.0295 0.00211649 -0.0194684 
v 0.0295 0.00207102 -0.0193701 
v 0.0295 0.00203645 -0.0192675 
v 0.0295 0.00201317 -0.0191618 
v 0.0295 0.00200147 -0.0190541 
v 0.0295 0.00200147 -0.0189459 
v 0.0295 0.00201317 -0.0188382 
v 0.0295 0.00203645 -0.0187325 
v 0.0295 0.00207102 -0.0186299 
v 0.0295 0.00211649 -0.0185316 
v 0.0295 0.00217231 -0.0184388 
v 0.0295 0.00223784 -0.0183526 
v 0.0295 0.0023123 -0.018274 
v 0.0295 0.00239483 -0.0182039 
v 0.0295 0.00248445 -0.0181431 
v 0.0295 0.00258011 -0.0180924 
v 0.0295 0.0026807 -0.0180523 
v 0.0295 0.00278503 -0.0180234 
v 0.0295 0.00289188 -0.0180059 
v 0.0295 0.003 -0.018 
v 0.0295 0.00310812 -0.0180059 
v 0.0295 0.00321497 -0.0180234 
v 0.0295 0.0033193 -0.0180523 
v 0.0295 0.00341989 -0.0180924 
v 0.0295 0.00351555 -0.0181431 
v 0.0295 0.00360517 -0.0182039 
v 0.0295 0.0036877 -0.018274 
v 0.0295 0.00376216 -0.0183526 
v 0.0295 0.00382769 -0.0184388 
v 0.0295 0.00388351 -0.0185316 
v 0.0295 0.00392898 -0.0186299 
v 0.0295 0.00396355 -0.0187325 
v 0.0295 0.00398683 -0.0188382 
v 0.0295 0.00399853 -0.0189459 
v 0.0295 0.00399853 -0.0190541 
v 0.0295 0.00398683 -0.0191618 
v 0.0295 0.00396355 -0.0192675 
v 0.0295 0.00392898 -0.0193701 
v 0.0295 0.00388351 -0.0194684 
v 0.0295 0.00382769 -0.0195612 
v 0.0295 0.00376216 -0.0196474 
v 0.0295 0.0036877 -0.019726 
v 0.0295 0.00360517 -0.0197961 
v 0.0295 0.00351555 -0.0198569 
v 0.0295 0.00341989 -0.0199076 
v 0.0295 0.0033193 -0.0199477 
v 0.0295 0.00321497 -0.0199766 
v 0.0295 0.00310812 -0.0199941 
v 0.0295 0.003 -0.019 
v -0.03 0.01 0.03 
v -0.03 0 0.03 
v 0.03 0 0.03 
v 0.03 0.01 0.03 
v 0.03 0 -0.03 
v 0.03 0.01 -0.03 
v -0.03 0 -0.03 
v -0.03 0.01 -0.03 
vn -1.15648e-16 0 -1 
vn 0.994138 0.108119 -1.1497e-16 
vn 1 2.44929e-16 -1.15648e-16 
vn 0.976621 0.21497 -1.12944e-16 
vn 0.994138 0.108119 -1.1497e-16 
vn 0.947653 0.319302 -1.09594e-16 
vn 0.976621 0.21497 -1.12944e-16 
vn 0.907575 0.419889 -1.04959e-16 
vn 0.947653 0.319302 -1.09594e-16 
vn 0.856857 0.515554 -9.9094e-17 
vn 0.907575 0.419889 -1.04959e-16 
vn 0.796093 0.605174 -9.20668e-17 
vn 0.856857 0.515554 -9.9094e-17 
vn 0.725995 0.687699 -8.39601e-17 
vn 0.796093 0.605174 -9.20668e-17 
vn 0.647386 0.762162 -7.48691e-17 
vn 0.725995 0.687699 -8.39601e-17 
vn 0.561187 0.827689 -6.49003e-17 
vn 0.647386 0.762162 -7.48691e-17 
vn 0.468408 0.883512 -5.41706e-17 
vn 0.561187 0.827689 -6.49003e-17 
vn 0.370138 0.928977 -4.28058e-17 
vn 0.468408 0.883512 -5.41706e-17 
vn 0.267528 0.96355 -3.09392e-17 
vn 0.370138 0.928977 -4.28058e-17 
vn 0.161782 0.986827 -1.87098e-17 
vn 0.267528 0.96355 -3.09392e-17 
vn 0.0541389 0.998533 -6.26107e-18 
vn 0.161782 0.986827 -1.87098e-17 
vn -0.0541389 0.998533 6.26107e-18 
vn 0.0541389 0.998533 -6.26107e-18 
vn -0.161782 0.986827 1.87098e-17 
vn -0.0541389 0.998533 6.26107e-18 
vn -0.267528 0.96355 3.09392e-17 
vn -0.161782 0.986827 1.87098e-17 
vn -0.370138 0.928977 4.28058e-17 
vn -0.267528 0.96355 3.09392e-17 
vn -0.468408 0.883512 5.41706e-17 
vn -0.370138 0.928977 4.28058e-17 
vn -0.561187 0.827689 6.49003e-17 
vn -0.468408 0.883512 5.41706e-17 
vn -0.647386 0.762162 7.48691e-17 
vn -0.561187 0.827689 6.49003e-17 
vn -0.725995 0.687699 8.39601e-17 
vn -0.647386 0.762162 7.48691e-17 
vn -0.796093 0.605174 9.20668e-17 
vn -0.725995 0.687699 8.39601e-17 
vn -0.856857 0.515554 9.9094e-17 
vn -0.796093 0.605174 9.20668e-17 
vn -0.907575 0.419889 1.04959e-16 
vn -0.856857 0.515554 9.9094e-17 
vn -0.947653 0.319302 1.09594e-16 
vn -0.907575 0.419889 1.04959e-16 
vn -0.976621 0.21497 1.12944e-16 
vn -0.947653 0.319302 1.09594e-16 
vn -0.994138 0.108119 1.1497e-16 
vn -0.976621 0.21497 1.12944e-16 
vn -1 -1.22465e-16 1.15648e-16 
vn -0.994138 0.108119 1.1497e-16 
vn -0.994138 -0.108119 1.1497e-16 
vn -1 -1.22465e-16 1.15648e-16 
vn -0.976621 -0.21497 1.12944e-16 
vn -0.994138 -0.108119 1.1497e-16 
vn -0.947653 -0.319302 1.09594e-16 
vn -0.976621 -0.21497 1.12944e-16 
vn -0.907575 -0.419889 1.04959e-16 
vn -0.947653 -0.319302 1.09594e-16 
vn -0.856857 -0.515554 9.9094e-17 
vn -0.907575 -0.419889 1.04959e-16 
vn -0.796093 -0.605174 9.20668e-17 
vn -0.856857 -0.515554 9.9094e-17 
vn -0.725995 -0.687699 8.39601e-17 
vn -0.796093 -0.605174 9.20668e-17 
vn -0.647386 -0.762162 7.48691e-17 
vn -0.725995 -0.687699 8.39601e-17 
vn -0.561187 -0.827689 6.49003e-17 
vn -0.647386 -0.762162 7.48691e-17 
vn -0.468408 -0.883512 5.41706e-17 
vn -0.561187 -0.827689 6.49003e-17 
vn -0.370138 -0.928977 4.28058e-17 
vn -0.468408 -0.883512 5.41706e-17 
vn -0.267528 -0.96355 3.09392e-17 
vn -0.370138 -0.928977 4.28058e-17 
vn -0.161782 -0.986827 1.87098e-17 
vn -0.267528 -0.96355 3.09392e-17 
vn -0.0541389 -0.998533 6.26107e-18 
vn -0.161782 -0.986827 1.87098e-17 
vn 0.0541389 -0.998533 -6.26107e-18 
vn -0.0541389 -0.998533 6.26107e-18 
vn 0.161782 -0.986827 -1.87098e-17 
vn 0.0541389 -0.998533 -6.26107e-18 
vn 0.267528 -0.96355 -3.09392e-17 
vn 0.161782 -0.986827 -1.87098e-17 
vn 0.370138 -0.928977 -4.28058e-17 
vn 0.267528 -0.96355 -3.09392e-17 
vn 0.468408 -0.883512 -5.41706e-17 
vn 0.370138 -0.928977 -4.28058e-17 
vn 0.561187 -0.827689 -6.49003e-17 
vn 0.468408 -0.883512 -5.41706e-17 
vn 0.647386 -0.762162 -7.48691e-17 
vn 0.561187 -0.827689 -6.49003e-17 
vn 0.725995 -0.687699 -8.39601e-17 
vn 0.647386 -0.762162 -7.48691e-17 
vn 0.796093 -0.605174 -9.20668e-17 
vn 0.725995 -0.687699 -8.39601e-17 
vn 0.856857 -0.515554 -9.9094e-17 
vn 0.796093 -0.605174 -9.20668e-17 
vn 0.907575 -0.419889 -1.04959e-16 
vn 0.856857 -0.515554 -9.9094e-17 
vn 0.947653 -0.319302 -1.09594e-16 
vn 0.907575 -0.419889 -1.04959e-16 
vn 0.976621 -0.21497 -1.12944e-16 
vn 0.947653 -0.319302 -1.09594e-16 
vn 0.994138 -0.108119 -1.1497e-16 
vn 0.976621 -0.21497 -1.12944e-16 
vn 1.15648e-16 0 1 
vn -1.15648e-16 0 -1 
vn 0.994138 0.108119 -1.1497e-16 
vn 1 2.44929e-16 -1.15648e-16 
vn 0.976621 0.21497 -1.12944e-16 
vn 0.994138 0.108119 -1.1497e-16 
vn 0.947653 0.319302 -1.09594e-16 
vn 0.976621 0.21497 -1.12944e-16 
vn 0.907575 0.419889 -1.04959e-16 
vn 0.947653 0.319302 -1.09594e-16 
vn 0.856857 0.515554 -9.9094e-17 
vn 0.907575 0.419889 -1.04959e-16 
vn 0.796093 0.605174 -9.20668e-17 
vn 0.856857 0.515554 -9.9094e-17 
vn 0.725995 0.687699 -8.39601e-17 
vn 0.796093 0.605174 -9.20668e-17 
vn 0.647386 0.762162 -7.48691e-17 
vn 0.725995 0.687699 -8.39601e-17 
vn 0.561187 0.827689 -6.49003e-17 
vn 0.647386 0.762162 -7.48691e-17 
vn 0.468408 0.883512 -5.41706e-17 
vn 0.561187 0.827689 -6.49003e-17 
vn 0.370138 0.928977 -4.28058e-17 
vn 0.468408 0.883512 -5.41706e-17 
vn 0.267528 0.96355 -3.09392e-17 
vn 0.370138 0.928977 -4.28058e-17 
vn 0.161782 0.986827 -1.87098e-17 
vn 0.267528 0.96355 -3.09392e-17 
vn 0.0541389 0.998533 -6.26107e-18 
vn 0.161782 0.986827 -1.87098e-17 
vn -0.0541389 0.998533 6.26107e-18 
vn 0.0541389 0.998533 -6.26107e-18 
vn -0.161782 0.986827 1.87098e-17 
vn -0.0541389 0.998533 6.26107e-18 
vn -0.267528 0.96355 3.09392e-17 
vn -0.161782 0.986827 1.87098e-17 
vn -0.370138 0.928977 4.28058e-17 
vn -0.267528 0.96355 3.09392e-17 
vn -0.468408 0.883512 5.41706e-17 
vn -0.370138 0.928977 4.28058e-17 
vn -0.561187 0.827689 6.49003e-17 
vn -0.468408 0.883512 5.41706e-17 
vn -0.647386 0.762162 7.48691e-17 
vn -0.561187 0.827689 6.49003e-17 
vn -0.725995 0.687699 8.39601e-17 
vn -0.647386 0.762162 7.48691e-17 
vn -0.796093 0.605174 9.20668e-17 
vn -0.725995 0.687699 8.39601e-17 
vn -0.856857 0.515554 9.9094e-17 
vn -0.796093 0.605174 9.20668e-17 
vn -0.907575 0.419889 1.04959e-16 
vn -0.856857 0.515554 9.9094e-17 
vn -0.947653 0.319302 1.09594e-16 
vn -0.907575 0.419889 1.04959e-16 
vn -0.976621 0.21497 1.12944e-16 
vn -0.947653 0.319302 1.09594e-16 
vn -0.994138 0.108119 1.1497e-16 
vn -0.976621 0.21497 1.12944e-16 
vn -1 -1.22465e-16 1.15648e-16 
vn -0.994138 0.108119 1.1497e-16 
vn -0.994138 -0.108119 1.1497e-16 
vn -1 -1.22465e-16 1.15648e-16 
vn -0.976621 -0.21497 1.12944e-16 
vn -0.994138 -0.108119 1.1497e-16 
vn -0.947653 -0.319302 1.09594e-16 
vn -0.976621 -0.21497 1.12944e-16 
vn -0.907575 -0.419889 1.04959e-16 
vn -0.947653 -0.319302 1.09594e-16 
vn -0.856857 -0.515554 9.9094e-17 
vn -0.907575 -0.419889 1.04959e-16 
vn -0.796093 -0.605174 9.20668e-17 
vn -0.856857 -0.515554 9.9094e-17 
vn -0.725995 -0.687699 8.39601e-17 
vn -0.796093 -0.605174 9.20668e-17 
vn -0.647386 -0.762162 7.48691e-17 
vn -0.725995 -0.687699 8.39601e-17 
vn -0.561187 -0.827689 6.49003e-17 
vn -0.647386 -0.762162 7.48691e-17 
vn -0.468408 -0.883512 5.41706e-17 
vn -0.561187 -0.827689 6.49003e-17 
vn -0.370138 -0.928977 4.28058e-17 
vn -0.468408 -0.883512 5.41706e-17 
vn -0.267528 -0.96355 3.09392e-17 
vn -0.370138 -0.928977 4.28058e-17 
vn -0.161782 -0.986827 1.87098e-17 
vn -0.267528 -0.96355 3.09392e-17 
vn -0.0541389 -0.998533 6.26107e-18 
vn -0.161782 -0.986827 1.87098e-17 
vn 0.0541389 -0.998533 -6.26107e-18 
vn -0.0541389 -0.998533 6.26107e-18 
vn 0.161782 -0.986827 -1.87098e-17 
vn 0.0541389 -0.998533 -6.26107e-18 
vn 0.267528 -0.96355 -3.09392e-17 
vn 0.161782 -0.986827 -1.87098e-17 
vn 0.370138 -0.928977 -4.28058e-17 
vn 0.267528 -0.96355 -3.09392e-17 
vn 0.468408 -0.883512 -5.41706e-17 
vn 0.370138 -0.928977 -4.28058e-17 
vn 0.561187 -0.827689 -6.49003e-17 
vn 0.468408 -0.883512 -5.41706e-17 
vn 0.647386 -0.762162 -7.48691e-17 
vn 0.561187 -0.827689 -6.49003e-17 
vn 0.725995 -0.687699 -8.39601e-17 
vn 0.647386 -0.762162 -7.48691e-17 
vn 0.796093 -0.605174 -9.20668e-17 
vn 0.725995 -0.687699 -8.39601e-17 
vn 0.856857 -0.515554 -9.9094e-17 
vn 0.796093 -0.605174 -9.20668e-17 
vn 0.907575 -0.419889 -1.04959e-16 
vn 0.856857 -0.515554 -9.9094e-17 
vn 0.947653 -0.319302 -1.09594e-16 
vn 0.907575 -0.419889 -1.04959e-16 
vn 0.976621 -0.21497 -1.12944e-16 
vn 0.947653 -0.319302 -1.09594e-16 
vn 0.994138 -0.108119 -1.1497e-16 
vn 0.976621 -0.21497 -1.12944e-16 
vn 1.15648e-16 0 1 
vn -1.15648e-16 0 -1 
vn 0.994138 0.108119 -1.1497e-16 
vn 1 2.44929e-16 -1.15648e-16 
vn 0.976621 0.21497 -1.12944e-16 
vn 0.994138 0.108119 -1.1497e-16 
vn 0.947653 0.319302 -1.09594e-16 
vn 0.976621 0.21497 -1.12944e-16 
vn 0.907575 0.419889 -1.04959e-16 
vn 0.947653 0.319302 -1.09594e-16 
vn 0.856857 0.515554 -9.9094e-17 
vn 0.907575 0.419889 -1.04959e-16 
vn 0.796093 0.605174 -9.20668e-17 
vn 0.856857 0.515554 -9.9094e-17 
vn 0.725995 0.687699 -8.39601e-17 
vn 0.796093 0.605174 -9.20668e-17 
vn 0.647386 0.762162 -7.48691e-17 
vn 0.725995 0.687699 -8.39601e-17 
vn 0.561187 0.827689 -6.49003e-17 
vn 0.647386 0.762162 -7.48691e-17 
vn 0.468408 0.883512 -5.41706e-17 
vn 0.561187 0.827689 -6.49003e-17 
vn 0.370138 0.928977 -4.28058e-17 
vn 0.468408 0.883512 -5.41706e-17 
vn 0.267528 0.96355 -3.09392e-17 
vn 0.370138 0.928977 -4.28058e-17 
vn 0.161782 0.986827 -1.87098e-17 
vn 0.267528 0.96355 -3.09392e-17 
vn 0.0541389 0.998533 -6.26107e-18 
vn 0.161782 0.986827 -1.87098e-17 
vn -0.0541389 0.998533 6.26107e-18 
vn 0.0541389 0.998533 -6.26107e-18 
vn -0.161782 0.986827 1.87098e-17 
vn -0.0541389 0.998533 6.26107e-18 
vn -0.267528 0.96355 3.09392e-17 
vn -0.161782 0.986827 1.87098e-17 
vn -0.370138 0.928977 4.28058e-17 
vn -0.267528 0.96355 3.09392e-17 
vn -0.468408 0.883512 5.41706e-17 
vn -0.370138 0.928977 4.28058e-17 
vn -0.561187 0.827689 6.49003e-17 
vn -0.468408 0.883512 5.41706e-17 
vn -0.647386 0.762162 7.48691e-17 
vn -0.561187 0.827689 6.49003e-17 
vn -0.725995 0.687699 8.39601e-17 
vn -0.647386 0.762162 7.48691e-17 
vn -0.796093 0.605174 9.20668e-17 
vn -0.725995 0.687699 8.39601e-17 
vn -0.856857 0.515554 9.9094e-17 
vn -0.796093 0.605174 9.20668e-17 
vn -0.907575 0.419889 1.04959e-16 
vn -0.856857 0.515554 9.9094e-17 
vn -0.947653 0.319302 1.09594e-16 
vn -0.907575 0.419889 1.04959e-16 
vn -0.976621 0.21497 1.12944e-16 
vn -0.947653 0.319302 1.09594e-16 
vn -0.994138 0.108119 1.1497e-16 
vn -0.976621 0.21497 1.12944e-16 
vn -1 -1.22465e-16 1.15648e-16 
vn -0.994138 0.108119 1.1497e-16 
vn -0.994138 -0.108119 1.1497e-16 
vn -1 -1.22465e-16 1.15648e-16 
vn -0.976621 -0.21497 1.12944e-16 
vn -0.994138 -0.108119 1.1497e-16 
vn -0.947653 -0.319302 1.09594e-16 
vn -0.976621 -0.21497 1.12944e-16 
vn -0.907575 -0.419889 1.04959e-16 
vn -0.947653 -0.319302 1.09594e-16 
vn -0.856857 -0.515554 9.9094e-17 
vn -0.907575 -0.419889 1.04959e-16 
vn -0.796093 -0.605174 9.20668e-17 
vn -0.856857 -0.515554 9.9094e-17 
vn -0.725995 -0.687699 8.39601e-17 
vn -0.796093 -0.605174 9.20668e-17 
vn -0.647386 -0.762162 7.48691e-17 
vn -0.725995 -0.687699 8.39601e-17 
vn -0.561187 -0.827689 6.49003e-17 
vn -0.647386 -0.762162 7.48691e-17 
vn -0.468408 -0.883512 5.41706e-17 
vn -0.561187 -0.827689 6.49003e-17 
vn -0.370138 -0.928977 4.28058e-17 
vn -0.468408 -0.883512 5.41706e-17 
vn -0.267528 -0.96355 3.09392e-17 
vn -0.370138 -0.928977 4.28058e-17 
vn -0.161782 -0.986827 1.87098e-17 
vn -0.267528 -0.96355 3.09392e-17 
vn -0.0541389 -0.998533 6.26107e-18 
vn -0.161782 -0.986827 1.87098e-17 
vn 0.0541389 -0.998533 -6.26107e-18 
vn -0.0541389 -0.998533 6.26107e-18 
vn 0.161782 -0.986827 -1.87098e-17 
vn 0.0541389 -0.998533 -6.26107e-18 
vn 0.267528 -0.96355 -3.09392e-17 
vn 0.161782 -0.986827 -1.87098e-17 
vn 0.370138 -0.928977 -4.28058e-17 
vn 0.267528 -0.96355 -3.09392e-17 
vn 0.468408 -0.883512 -5.41706e-17 
vn 0.370138 -0.928977 -4.28058e-17 
vn 0.561187 -0.827689 -6.49003e-17 
vn 0.468408 -0.883512 -5.41706e-17 
vn 0.647386 -0.762162 -7.48691e-17 
vn 0.561187 -0.827689 -6.49003e-17 
vn 0.725995 -0.687699 -8.39601e-17 
vn 0.647386 -0.762162 -7.48691e-17 
vn 0.796093 -0.605174 -9.20668e-17 
vn 0.725995 -0.687699 -8.39601e-17 
vn 0.856857 -0.515554 -9.9094e-17 
vn 0.796093 -0.605174 -9.20668e-17 
vn 0.907575 -0.419889 -1.04959e-16 
vn 0.856857 -0.515554 -9.9094e-17 
vn 0.947653 -0.319302 -1.09594e-16 
vn 0.907575 -0.419889 -1.04959e-16 
vn 0.976621 -0.21497 -1.12944e-16 
vn 0.947653 -0.319302 -1.09594e-16 
vn 0.994138 -0.108119 -1.1497e-16 
vn 0.976621 -0.21497 -1.12944e-16 
vn 1.15648e-16 0 1 
vn 1 0 5.78241e-17 
vn -5.74851e-17 0.108119 0.994138 
vn -5.78241e-17 2.44929e-16 1 
vn -5.64722e-17 0.21497 0.976621 
vn -5.74851e-17 0.108119 0.994138 
vn -5.47972e-17 0.319302 0.947653 
vn -5.64722e-17 0.21497 0.976621 
vn -5.24797e-17 0.419889 0.907575 
vn -5.47972e-17 0.319302 0.947653 
vn -4.9547e-17 0.515554 0.856857 
vn -5.24797e-17 0.419889 0.907575 
vn -4.60334e-17 0.605174 0.796093 
vn -4.9547e-17 0.515554 0.856857 
vn -4.198e-17 0.687699 0.725995 
vn -4.60334e-17 0.605174 0.796093 
vn -3.74345e-17 0.762162 0.647386 
vn -4.198e-17 0.687699 0.725995 
vn -3.24501e-17 0.827689 0.561187 
vn -3.74345e-17 0.762162 0.647386 
vn -2.70853e-17 0.883512 0.468408 
vn -3.24501e-17 0.827689 0.561187 
vn -2.14029e-17 0.928977 0.370138 
vn -2.70853e-17 0.883512 0.468408 
vn -1.54696e-17 0.96355 0.267528 
vn -2.14029e-17 0.928977 0.370138 
vn -9.3549e-18 0.986827 0.161782 
vn -1.54696e-17 0.96355 0.267528 
vn -3.13053e-18 0.998533 0.0541389 
vn -9.3549e-18 0.986827 0.161782 
vn 3.13053e-18 0.998533 -0.0541389 
vn -3.13053e-18 0.998533 0.0541389 
vn 9.3549e-18 0.986827 -0.161782 
vn 3.13053e-18 0.998533 -0.0541389 
vn 1.54696e-17 0.96355 -0.267528 
vn 9.3549e-18 0.986827 -0.161782 
vn 2.14029e-17 0.928977 -0.370138 
vn 1.54696e-17 0.96355 -0.267528 
vn 2.70853e-17 0.883512 -0.468408 
vn 2.14029e-17 0.928977 -0.370138 
vn 3.24501e-17 0.827689 -0.561187 
vn 2.70853e-17 0.883512 -0.468408 
vn 3.74345e-17 0.762162 -0.647386 
vn 3.24501e-17 0.827689 -0.561187 
vn 4.198e-17 0.687699 -0.725995 
vn 3.74345e-17 0.762162 -0.647386 
vn 4.60334e-17 0.605174 -0.796093 
vn 4.198e-17 0.687699 -0.725995 
vn 4.9547e-17 0.515554 -0.856857 
vn 4.60334e-17 0.605174 -0.796093 
vn 5.24797e-17 0.419889 -0.907575 
vn 4.9547e-17 0.515554 -0.856857 
vn 5.47972e-17 0.319302 -0.947653 
vn 5.24797e-17 0.419889 -0.907575 
vn 5.64722e-17 0.21497 -0.976621 
vn 5.47972e-17 0.319302 -0.947653 
vn 5.74851e-17 0.108119 -0.994138 
vn 5.64722e-17 0.21497 -0.976621 
vn 5.78241e-17 -1.22465e-16 -1 
vn 5.74851e-17 0.108119 -0.994138 
vn 5.74851e-17 -0.108119 -0.994138 
vn 5.78241e-17 -1.22465e-16 -1 
vn 5.64722e-17 -0.21497 -0.976621 
vn 5.74851e-17 -0.108119 -0.994138 
vn 5.47972e-17 -0.319302 -0.947653 
vn 5.64722e-17 -0.21497 -0.976621 
vn 5.24797e-17 -0.419889 -0.907575 
vn 5.47972e-17 -0.319302 -0.947653 
vn 4.9547e-17 -0.515554 -0.856857 
vn 5.24797e-17 -0.419889 -0.907575 
vn 4.60334e-17 -0.605174 -0.796093 
vn 4.9547e-17 -0.515554 -0.856857 
vn 4.198e-17 -0.687699 -0.725995 
vn 4.60334e-17 -0.605174 -0.796093 
vn 3.74345e-17 -0.762162 -0.647386 
vn 4.198e-17 -0.687699 -0.725995 
vn 3.24501e-17 -0.827689 -0.561187 
vn 3.74345e-17 -0.762162 -0.647386 
vn 2.70853e-17 -0.883512 -0.468408 
vn 3.24501e-17 -0.827689 -0.561187 
vn 2.14029e-17 -0.928977 -0.370138 
vn 2.70853e-17 -0.883512 -0.468408 
vn 1.54696e-17 -0.96355 -0.267528 
vn 2.14029e-17 -0.928977 -0.370138 
vn 9.3549e-18 -0.986827 -0.161782 
vn 1.54696e-17 -0.96355 -0.267528 
vn 3.13053e-18 -0.998533 -0.0541389 
vn 9.3549e-18 -0.986827 -0.161782 
vn -3.13053e-18 -0.998533 0.0541389 
vn 3.13053e-18 -0.998533 -0.0541389 
vn -9.3549e-18 -0.986827 0.161782 
vn -3.13053e-18 -0.998533 0.0541389 
vn -1.54696e-17 -0.96355 0.267528 
vn -9.3549e-18 -0.986827 0.161782 
vn -2.14029e-17 -0.928977 0.370138 
vn -1.54696e-17 -0.96355 0.267528 
vn -2.70853e-17 -0.883512 0.468408 
vn -2.14029e-17 -0.928977 0.370138 
vn -3.24501e-17 -0.827689 0.561187 
vn -2.70853e-17 -0.883512 0.468408 
vn -3.74345e-17 -0.762162 0.647386 
vn -3.24501e-17 -0.827689 0.561187 
vn -4.198e-17 -0.687699 0.725995 
vn -3.74345e-17 -0.762162 0.647386 
vn -4.60334e-17 -0.605174 0.796093 
vn -4.198e-17 -0.687699 0.725995 
vn -4.9547e-17 -0.515554 0.856857 
vn -4.60334e-17 -0.605174 0.796093 
vn -5.24797e-17 -0.419889 0.907575 
vn -4.9547e-17 -0.515554 0.856857 
vn -5.47972e-17 -0.319302 0.947653 
vn -5.24797e-17 -0.419889 0.907575 
vn -5.64722e-17 -0.21497 0.976621 
vn -5.47972e-17 -0.319302 0.947653 
vn -5.74851e-17 -0.108119 0.994138 
vn -5.64722e-17 -0.21497 0.976621 
vn -1 0 -5.78241e-17 
vn 1 0 5.78241e-17 
vn -5.74851e-17 0.108119 0.994138 
vn -5.78241e-17 2.44929e-16 1 
vn -5.64722e-17 0.21497 0.976621 
vn -5.74851e-17 0.108119 0.994138 
vn -5.47972e-17 0.319302 0.947653 
vn -5.64722e-17 0.21497 0.976621 
vn -5.24797e-17 0.419889 0.907575 
vn -5.47972e-17 0.319302 0.947653 
vn -4.9547e-17 0.515554 0.856857 
vn -5.24797e-17 0.419889 0.907575 
vn -4.60334e-17 0.605174 0.796093 
vn -4.9547e-17 0.515554 0.856857 
vn -4.198e-17 0.687699 0.725995 
vn -4.60334e-17 0.605174 0.796093 
vn -3.74345e-17 0.762162 0.647386 
vn -4.198e-17 0.687699 0.725995 
vn -3.24501e-17 0.827689 0.561187 
vn -3.74345e-17 0.762162 0.647386 
vn -2.70853e-17 0.883512 0.468408 
vn -3.24501e-17 0.827689 0.561187 
vn -2.14029e-17 0.928977 0.370138 
vn -2.70853e-17 0.883512 0.468408 
vn -1.54696e-17 0.96355 0.267528 
vn -2.14029e-17 0.928977 0.370138 
vn -9.3549e-18 0.986827 0.161782 
vn -1.54696e-17 0.96355 0.267528 
vn -3.13053e-18 0.998533 0.0541389 
vn -9.3549e-18 0.986827 0.161782 
vn 3.13053e-18 0.998533 -0.0541389 
vn -3.13053e-18 0.998533 0.0541389 
vn 9.3549e-18 0.986827 -0.161782 
vn 3.13053e-18 0.998533 -0.0541389 
vn 1.54696e-17 0.96355 -0.267528 
vn 9.3549e-18 0.986827 -0.161782 
vn 2.14029e-17 0.928977 -0.370138 
vn 1.54696e-17 0.96355 -0.267528 
vn 2.70853e-17 0.883512 -0.468408 
vn 2.14029e-17 0.928977 -0.370138 
vn 3.24501e-17 0.827689 -0.561187 
vn 2.70853e-17 0.883512 -0.468408 
vn 3.74345e-17 0.762162 -0.647386 
vn 3.24501e-17 0.827689 -0.561187 
vn 4.198e-17 0.687699 -0.725995 
vn 3.74345e-17 0.762162 -0.647386 
vn 4.60334e-17 0.605174 -0.796093 
vn 4.198e-17 0.687699 -0.725995 
vn 4.9547e-17 0.515554 -0.856857 
vn 4.60334e-17 0.605174 -0.796093 
vn 5.24797e-17 0.419889 -0.907575 
vn 4.9547e-17 0.515554 -0.856857 
vn 5.47972e-17 0.319302 -0.947653 
vn 5.24797e-17 0.419889 -0.907575 
vn 5.64722e-17 0.21497 -0.976621 
vn 5.47972e-17 0.319302 -0.947653 
vn 5.74851e-17 0.108119 -0.994138 
vn 5.64722e-17 0.21497 -0.976621 
vn 5.78241e-17 -1.22465e-16 -1 
vn 5.74851e-17 0.108119 -0.994138 
vn 5.74851e-17 -0.108119 -0.994138 
vn 5.78241e-17 -1.22465e-16 -1 
vn 5.64722e-17 -0.21497 -0.976621 
vn 5.74851e-17 -0.108119 -0.994138 
vn 5.47972e-17 -0.319302 -0.947653 
vn 5.64722e-17 -0.21497 -0.976621 
vn 5.24797e-17 -0.419889 -0.907575 
vn 5.47972e-17 -0.319302 -0.947653 
vn 4.9547e-17 -0.515554 -0.856857 
vn 5.24797e-17 -0.419889 -0.907575 
vn 4.60334e-17 -0.605174 -0.796093 
vn 4.9547e-17 -0.515554 -0.856857 
vn 4.198e-17 -0.687699 -0.725995 
vn 4.60334e-17 -0.605174 -0.796093 
vn 3.74345e-17 -0.762162 -0.647386 
vn 4.198e-17 -0.687699 -0.725995 
vn 3.24501e-17 -0.827689 -0.561187 
vn 3.74345e-17 -0.762162 -0.647386 
vn 2.70853e-17 -0.883512 -0.468408 
vn 3.24501e-17 -0.827689 -0.561187 
vn 2.14029e-17 -0.928977 -0.370138 
vn 2.70853e-17 -0.883512 -0.468408 
vn 1.54696e-17 -0.96355 -0.267528 
vn 2.14029e-17 -0.928977 -0.370138 
vn 9.3549e-18 -0.986827 -0.161782 
vn 1.54696e-17 -0.96355 -0.267528 
vn 3.13053e-18 -0.998533 -0.0541389 
vn 9.3549e-18 -0.986827 -0.161782 
vn -3.13053e-18 -0.998533 0.0541389 
vn 3.13053e-18 -0.998533 -0.0541389 
vn -9.3549e-18 -0.986827 0.161782 
vn -3.13053e-18 -0.998533 0.0541389 
vn -1.54696e-17 -0.96355 0.267528 
vn -9.3549e-18 -0.986827 0.161782 
vn -2.14029e-17 -0.928977 0.370138 
vn -1.54696e-17 -0.96355 0.267528 
vn -2.70853e-17 -0.883512 0.468408 
vn -2.14029e-17 -0.928977 0.370138 
vn -3.24501e-17 -0.827689 0.561187 
vn -2.70853e-17 -0.883512 0.468408 
vn -3.74345e-17 -0.762162 0.647386 
vn -3.24501e-17 -0.827689 0.561187 
vn -4.198e-17 -0.687699 0.725995 
vn -3.74345e-17 -0.762162 0.647386 
vn -4.60334e-17 -0.605174 0.796093 
vn -4.198e-17 -0.687699 0.725995 
vn -4.9547e-17 -0.515554 0.856857 
vn -4.60334e-17 -0.605174 0.796093 
vn -5.24797e-17 -0.419889 0.907575 
vn -4.9547e-17 -0.515554 0.856857 
vn -5.47972e-17 -0.319302 0.947653 
vn -5.24797e-17 -0.419889 0.907575 
vn -5.64722e-17 -0.21497 0.976621 
vn -5.47972e-17 -0.319302 0.947653 
vn -5.74851e-17 -0.108119 0.994138 
vn -5.64722e-17 -0.21497 0.976621 
vn -1 0 -5.78241e-17 
vn 1 0 5.78241e-17 
vn -5.74851e-17 0.108119 0.994138 
vn -5.78241e-17 2.44929e-16 1 
vn -5.64722e-17 0.21497 0.976621 
vn -5.74851e-17 0.108119 0.994138 
vn -5.47972e-17 0.319302 0.947653 
vn -5.64722e-17 0.21497 0.976621 
vn -5.24797e-17 0.419889 0.907575 
vn -5.47972e-17 0.319302 0.947653 
vn -4.9547e-17 0.515554 0.856857 
vn -5.24797e-17 0.419889 0.907575 
vn -4.60334e-17 0.605174 0.796093 
vn -4.9547e-17 0.515554 0.856857 
vn -4.198e-17 0.687699 0.725995 
vn -4.60334e-17 0.605174 0.796093 
vn -3.74345e-17 0.762162 0.647386 
vn -4.198e-17 0.687699 0.725995 
vn -3.24501e-17 0.827689 0.561187 
vn -3.74345e-17 0.762162 0.647386 
vn -2.70853e-17 0.883512 0.468408 
vn -3.24501e-17 0.827689 0.561187 
vn -2.14029e-17 0.928977 0.370138 
vn -2.70853e-17 0.883512 0.468408 
vn -1.54696e-17 0.96355 0.267528 
vn -2.14029e-17 0.928977 0.370138 
vn -9.3549e-18 0.986827 0.161782 
vn -1.54696e-17 0.96355 0.267528 
vn -3.13053e-18 0.998533 0.0541389 
vn -9.3549e-18 0.986827 0.161782 
vn 3.13053e-18 0.998533 -0.0541389 
vn -3.13053e-18 0.998533 0.0541389 
vn 9.3549e-18 0.986827 -0.161782 
vn 3.13053e-18 0.998533 -0.0541389 
vn 1.54696e-17 0.96355 -0.267528 
vn 9.3549e-18 0.986827 -0.161782 
vn 2.14029e-17 0.928977 -0.370138 
vn 1.54696e-17 0.96355 -0.267528 
vn 2.70853e-17 0.883512 -0.468408 
vn 2.14029e-17 0.928977 -0.370138 
vn 3.24501e-17 0.827689 -0.561187 
vn 2.70853e-17 0.883512 -0.468408 
vn 3.74345e-17 0.762162 -0.647386 
vn 3.24501e-17 0.827689 -0.561187 
vn 4.198e-17 0.687699 -0.725995 
vn 3.74345e-17 0.762162 -0.647386 
vn 4.60334e-17 0.605174 -0.796093 
vn 4.198e-17 0.687699 -0.725995 
vn 4.9547e-17 0.515554 -0.856857 
vn 4.60334e-17 0.605174 -0.796093 
vn 5.24797e-17 0.419889 -0.907575 
vn 4.9547e-17 0.515554 -0.856857 
vn 5.47972e-17 0.319302 -0.947653 
vn 5.24797e-17 0.419889 -0.907575 
vn 5.64722e-17 0.21497 -0.976621 
vn 5.47972e-17 0.319302 -0.947653 
vn 5.74851e-17 0.108119 -0.994138 
vn 5.64722e-17 0.21497 -0.976621 
vn 5.78241e-17 -1.22465e-16 -1 
vn 5.74851e-17 0.108119 -0.994138 
vn 5.74851e-17 -0.108119 -0.994138 
vn 5.78241e-17 -1.22465e-16 -1 
vn 5.64722e-17 -0.21497 -0.976621 
vn 5.74851e-17 -0.108119 -0.994138 
vn 5.47972e-17 -0.319302 -0.947653 
vn 5.64722e-17 -0.21497 -0.976621 
vn 5.24797e-17 -0.419889 -0.907575 
vn 5.47972e-17 -0.319302 -0.947653 
vn 4.9547e-17 -0.515554 -0.856857 
vn 5.24797e-17 -0.419889 -0.907575 
vn 4.60334e-17 -0.605174 -0.796093 
vn 4.9547e-17 -0.515554 -0.856857 
vn 4.198e-17 -0.687699 -0.725995 
vn 4.60334e-17 -0.605174 -0.796093 
vn 3.74345e-17 -0.762162 -0.647386 
vn 4.198e-17 -0.687699 -0.725995 
vn 3.24501e-17 -0.827689 -0.561187 
vn 3.74345e-17 -0.762162 -0.647386 
vn 2.70853e-17 -0.883512 -0.468408 
vn 3.24501e-17 -0.827689 -0.561187 
vn 2.14029e-17 -0.928977 -0.370138 
vn 2.70853e-17 -0.883512 -0.468408 
vn 1.54696e-17 -0.96355 -0.267528 
vn 2.14029e-17 -0.928977 -0.370138 
vn 9.3549e-18 -0.986827 -0.161782 
vn 1.54696e-17 -0.96355 -0.267528 
vn 3.13053e-18 -0.998533 -0.0541389 
vn 9.3549e-18 -0.986827 -0.161782 
vn -3.13053e-18 -0.998533 0.0541389 
vn 3.13053e-18 -0.998533 -0.0541389 
vn -9.3549e-18 -0.986827 0.161782 
vn -3.13053e-18 -0.998533 0.0541389 
vn -1.54696e-17 -0.96355 0.267528 
vn -9.3549e-18 -0.986827 0.161782 
vn -2.14029e-17 -0.928977 0.370138 
vn -1.54696e-17 -0.96355 0.267528 
vn -2.70853e-17 -0.883512 0.468408 
vn -2.14029e-17 -0.928977 0.370138 
vn -3.24501e-17 -0.827689 0.561187 
vn -2.70853e-17 -0.883512 0.468408 
vn -3.74345e-17 -0.762162 0.647386 
vn -3.24501e-17 -0.827689 0.561187 
vn -4.198e-17 -0.687699 0.725995 
vn -3.74345e-17 -0.762162 0.647386 
vn -4.60334e-17 -0.605174 0.796093 
vn -4.198e-17 -0.687699 0.725995 
vn -4.9547e-17 -0.515554 0.856857 
vn -4.60334e-17 -0.605174 0.796093 
vn -5.24797e-17 -0.419889 0.907575 
vn -4.9547e-17 -0.515554 0.856857 
vn -5.47972e-17 -0.319302 0.947653 
vn -5.24797e-17 -0.419889 0.907575 
vn -5.64722e-17 -0.21497 0.976621 
vn -5.47972e-17 -0.319302 0.947653 
vn -5.74851e-17 -0.108119 0.994138 
vn -5.64722e-17 -0.21497 0.976621 
vn -1 0 -5.78241e-17 
vn 1.15648e-16 0 1 
vn 1 0 5.78241e-17 
vn -1.15648e-16 0 -1 
vn -1 0 -5.78241e-17 
vn 0 1 0 
vn 0 -1 0 
usemtl 0.615686_0.811765_0.929412_0.000000_0.000000
o mesh0
f 59//1 1//1 2//1 
f 2//1 3//1 59//1 
f 3//1 4//1 59//1 
f 4//1 5//1 59//1 
f 5//1 6//1 59//1 
f 6//1 7//1 59//1 
f 7//1 8//1 59//1 
f 8//1 9//1 59//1 
f 9//1 10//1 59//1 
f 10//1 11//1 59//1 
f 11//1 12//1 59//1 
f 12//1 13//1 59//1 
f 13//1 14//1 59//1 
f 14//1 15//1 59//1 
f 15//1 16//1 59//1 
f 16//1 17//1 59//1 
f 17//1 18//1 59//1 
f 18//1 19//1 59//1 
f 19//1 20//1 59//1 
f 20//1 21//1 59//1 
f 21//1 22//1 59//1 
f 22//1 23//1 59//1 
f 23//1 24//1 59//1 
f 24//1 25//1 59//1 
f 25//1 26//1 59//1 
f 26//1 27//1 59//1 
f 27//1 28//1 59//1 
f 28//1 29//1 59//1 
f 29//1 30//1 59//1 
f 30//1 31//1 59//1 
f 31//1 32//1 59//1 
f 32//1 33//1 59//1 
f 33//1 34//1 59//1 
f 34//1 35//1 59//1 
f 35//1 36//1 59//1 
f 36//1 37//1 59//1 
f 37//1 38//1 59//1 
f 38//1 39//1 59//1 
f 39//1 40//1 59//1 
f 40//1 41//1 59//1 
f 41//1 42//1 59//1 
f 42//1 43//1 59//1 
f 43//1 44//1 59//1 
f 44//1 45//1 59//1 
f 45//1 46//1 59//1 
f 46//1 47//1 59//1 
f 47//1 48//1 59//1 
f 48//1 49//1 59//1 
f 49//1 50//1 59//1 
f 50//1 51//1 59//1 
f 51//1 52//1 59//1 
f 52//1 53//1 59//1 
f 53//1 54//1 59//1 
f 54//1 55//1 59//1 
f 55//1 56//1 59//1 
f 56//1 57//1 59//1 
f 57//1 58//1 59//1 
f 58//1 1//1 59//1 
o mesh1
f 60//2 61//3 29//3 
f 62//4 60//2 28//5 
f 63//6 62//4 27//7 
f 64//8 63//6 26//9 
f 65//10 64//8 25//11 
f 66//12 65//10 24//13 
f 67//14 66//12 23//15 
f 68//16 67//14 22//17 
f 69//18 68//16 21//19 
f 70//20 69//18 20//21 
f 71//22 70//20 19//23 
f 72//24 71//22 18//25 
f 73//26 72//24 17//27 
f 74//28 73//26 16//29 
f 75//30 74//28 15//31 
f 76//32 75//30 14//33 
f 77//34 76//32 13//35 
f 78//36 77//34 12//37 
f 79//38 78//36 11//39 
f 80//40 79//38 10//41 
f 81//42 80//40 9//43 
f 82//44 81//42 8//45 
f 83//46 82//44 7//47 
f 84//48 83//46 6//49 
f 85//50 84//48 5//51 
f 86//52 85//50 4//53 
f 87//54 86//52 3//55 
f 88//56 87//54 2//57 
f 89//58 88//56 1//59 
f 90//60 89//58 58//61 
f 91//62 90//60 57//63 
f 92//64 91//62 56//65 
f 93//66 92//64 55//67 
f 94//68 93//66 54//69 
f 95//70 94//68 53//71 
f 96//72 95//70 52//73 
f 97//74 96//72 51//75 
f 98//76 97//74 50//77 
f 99//78 98//76 49//79 
f 100//80 99//78 48//81 
f 101//82 100//80 47//83 
f 102//84 101//82 46//85 
f 103//86 102//84 45//87 
f 104//88 103//86 44//89 
f 105//90 104//88 43//91 
f 106//92 105//90 42//93 
f 107//94 106//92 41//95 
f 108//96 107//94 40//97 
f 109//98 108//96 39//99 
f 110//100 109//98 38//101 
f 111//102 110//100 37//103 
f 112//104 111//102 36//105 
f 113//106 112//104 35//107 
f 114//108 113//106 34//109 
f 115//110 114//108 33//111 
f 116//112 115//110 32//113 
f 117//114 116//112 31//115 
f 61//3 117//114 30//114 
f 30//114 29//3 61//3 
f 31//115 30//114 117//114 
f 32//113 31//115 116//112 
f 33//111 32//113 115//110 
f 34//109 33//111 114//108 
f 35//107 34//109 113//106 
f 36//105 35//107 112//104 
f 37//103 36//105 111//102 
f 38//101 37//103 110//100 
f 39//99 38//101 109//98 
f 40//97 39//99 108//96 
f 41//95 40//97 107//94 
f 42//93 41//95 106//92 
f 43//91 42//93 105//90 
f 44//89 43//91 104//88 
f 45//87 44//89 103//86 
f 46//85 45//87 102//84 
f 47//83 46//85 101//82 
f 48//81 47//83 100//80 
f 49//79 48//81 99//78 
f 50//77 49//79 98//76 
f 51//75 50//77 97//74 
f 52//73 51//75 96//72 
f 53//71 52//73 95//70 
f 54//69 53//71 94//68 
f 55//67 54//69 93//66 
f 56//65 55//67 92//64 
f 57//63 56//65 91//62 
f 58//61 57//63 90//60 
f 1//59 58//61 89//58 
f 2//57 1//59 88//56 
f 3//55 2//57 87//54 
f 4//53 3//55 86//52 
f 5//51 4//53 85//50 
f 6//49 5//51 84//48 
f 7//47 6//49 83//46 
f 8//45 7//47 82//44 
f 9//43 8//45 81//42 
f 10//41 9//43 80//40 
f 11//39 10//41 79//38 
f 12//37 11//39 78//36 
f 13//35 12//37 77//34 
f 14//33 13//35 76//32 
f 15//31 14//33 75//30 
f 16//29 15//31 74//28 
f 17//27 16//29 73//26 
f 18//25 17//27 72//24 
f 19//23 18//25 71//22 
f 20//21 19//23 70//20 
f 21//19 20//21 69//18 
f 22//17 21//19 68//16 
f 23//15 22//17 67//14 
f 24//13 23//15 66//12 
f 25//11 24//13 65//10 
f 26//9 25//11 64//8 
f 27//7 26//9 63//6 
f 28//5 27//7 62//4 
f 29//3 28//5 60//2 
o mesh2
f 118//116 60//116 62//116 
f 62//116 63//116 118//116 
f 63//116 64//116 118//116 
f 64//116 65//116 118//116 
f 65//116 66//116 118//116 
f 66//116 67//116 118//116 
f 67//116 68//116 118//116 
f 68//116 69//116 118//116 
f 69//116 70//116 118//116 
f 70//116 71//116 118//116 
f 71//116 72//116 118//116 
f 72//116 73//116 118//116 
f 73//116 74//116 118//116 
f 74//116 75//116 118//116 
f 75//116 76//116 118//116 
f 76//116 77//116 118//116 
f 77//116 78//116 118//116 
f 78//116 79//116 118//116 
f 79//116 80//116 118//116 
f 80//116 81//116 118//116 
f 81//116 82//116 118//116 
f 82//116 83//116 118//116 
f 83//116 84//116 118//116 
f 84//116 85//116 118//116 
f 85//116 86//116 118//116 
f 86//116 87//116 118//116 
f 87//116 88//116 118//116 
f 88//116 89//116 118//116 
f 89//116 90//116 118//116 
f 90//116 91//116 118//116 
f 91//116 92//116 118//116 
f 92//116 93//116 118//116 
f 93//116 94//116 118//116 
f 94//116 95//116 118//116 
f 95//116 96//116 118//116 
f 96//116 97//116 118//116 
f 97//116 98//116 118//116 
f 98//116 99//116 118//116 
f 99//116 100//116 118//116 
f 100//116 101//116 118//116 
f 101//116 102//116 118//116 
f 102//116 103//116 118//116 
f 103//116 104//116 118//116 
f 104//116 105//116 118//116 
f 105//116 106//116 118//116 
f 106//116 107//116 118//116 
f 107//116 108//116 118//116 
f 108//116 109//116 118//116 
f 109//116 110//116 118//116 
f 110//116 111//116 118//116 
f 111//116 112//116 118//116 
f 112//116 113//116 118//116 
f 113//116 114//116 118//116 
f 114//116 115//116 118//116 
f 115//116 116//116 118//116 
f 116//116 117//116 118//116 
f 117//116 61//116 118//116 
f 61//116 60//116 118//116 
o mesh3
f 177//117 119//117 120//117 
f 120//117 121//117 177//117 
f 121//117 122//117 177//117 
f 122//117 123//117 177//117 
f 123//117 124//117 177//117 
f 124//117 125//117 177//117 
f 125//117 126//117 177//117 
f 126//117 127//117 177//117 
f 127//117 128//117 177//117 
f 128//117 129//117 177//117 
f 129//117 130//117 177//117 
f 130//117 131//117 177//117 
f 131//117 132//117 177//117 
f 132//117 133//117 177//117 
f 133//117 134//117 177//117 
f 134//117 135//117 177//117 
f 135//117 136//117 177//117 
f 136//117 137//117 177//117 
f 137//117 138//117 177//117 
f 138//117 139//117 177//117 
f 139//117 140//117 177//117 
f 140//117 141//117 177//117 
f 141//117 142//117 177//117 
f 142//117 143//117 177//117 
f 143//117 144//117 177//117 
f 144//117 145//117 177//117 
f 145//117 146//117 177//117 
f 146//117 147//117 177//117 
f 147//117 148//117 177//117 
f 148//117 149//117 177//117 
f 149//117 150//117 177//117 
f 150//117 151//117 177//117 
f 151//117 152//117 177//117 
f 152//117 153//117 177//117 
f 153//117 154//117 177//117 
f 154//117 155//117 177//117 
f 155//117 156//117 177//117 
f 156//117 157//117 177//117 
f 157//117 158//117 177//117 
f 158//117 159//117 177//117 
f 159//117 160//117 177//117 
f 160//117 161//117 177//117 
f 161//117 162//117 177//117 
f 162//117 163//117 177//117 
f 163//117 164//117 177//117 
f 164//117 165//117 177//117 
f 165//117 166//117 177//117 
f 166//117 167//117 177//117 
f 167//117 168//117 177//117 
f 168//117 169//117 177//117 
f 169//117 170//117 177//117 
f 170//117 171//117 177//117 
f 171//117 172//117 177//117 
f 172//117 173//117 177//117 
f 173//117 174//117 177//117 
f 174//117 175//117 177//117 
f 175//117 176//117 177//117 
f 176//117 119//117 177//117 
o mesh4
f 178//118 179//119 147//119 
f 180//120 178//118 146//121 
f 181//122 180//120 145//123 
f 182//124 181//122 144//125 
f 183//126 182//124 143//127 
f 184//128 183//126 142//129 
f 185//130 184//128 141//131 
f 186//132 185//130 140//133 
f 187//134 186//132 139//135 
f 188//136 187//134 138//137 
f 189//138 188//136 137//139 
f 190//140 189//138 136//141 
f 191//142 190//140 135//143 
f 192//144 191//142 134//145 
f 193//146 192//144 133//147 
f 194//148 193//146 132//149 
f 195//150 194//148 131//151 
f 196//152 195//150 130//153 
f 197//154 196//152 129//155 
f 198//156 197//154 128//157 
f 199//158 198//156 127//159 
f 200//160 199//158 126//161 
f 201//162 200//160 125//163 
f 202//164 201//162 124//165 
f 203//166 202//164 123//167 
f 204//168 203//166 122//169 
f 205//170 204//168 121//171 
f 206//172 205//170 120//173 
f 207//174 206//172 119//175 
f 208//176 207//174 176//177 
f 209//178 208//176 175//179 
f 210//180 209//178 174//181 
f 211//182 210//180 173//183 
f 212//184 211//182 172//185 
f 213//186 212//184 171//187 
f 214//188 213//186 170//189 
f 215//190 214//188 169//191 
f 216//192 215//190 168//193 
f 217//194 216//192 167//195 
f 218//196 217//194 166//197 
f 219//198 218//196 165//199 
f 220//200 219//198 164//201 
f 221//202 220//200 163//203 
f 222//204 221//202 162//205 
f 223//206 222//204 161//207 
f 224//208 223//206 160//209 
f 225//210 224//208 159//211 
f 226//212 225//210 158//213 
f 227//214 226//212 157//215 
f 228//216 227//214 156//217 
f 229//218 228//216 155//219 
f 230//220 229//218 154//221 
f 231//222 230//220 153//223 
f 232//224 231//222 152//225 
f 233//226 232//224 151//227 
f 234//228 233//226 150//229 
f 235//230 234//228 149//231 
f 179//119 235//230 148//230 
f 148//230 147//119 179//119 
f 149//231 148//230 235//230 
f 150//229 149//231 234//228 
f 151//227 150//229 233//226 
f 152//225 151//227 232//224 
f 153//223 152//225 231//222 
f 154//221 153//223 230//220 
f 155//219 154//221 229//218 
f 156//217 155//219 228//216 
f 157//215 156//217 227//214 
f 158//213 157//215 226//212 
f 159//211 158//213 225//210 
f 160//209 159//211 224//208 
f 161//207 160//209 223//206 
f 162//205 161//207 222//204 
f 163//203 162//205 221//202 
f 164//201 163//203 220//200 
f 165//199 164//201 219//198 
f 166//197 165//199 218//196 
f 167//195 166//197 217//194 
f 168//193 167//195 216//192 
f 169//191 168//193 215//190 
f 170//189 169//191 214//188 
f 171//187 170//189 213//186 
f 172//185 171//187 212//184 
f 173//183 172//185 211//182 
f 174//181 173//183 210//180 
f 175//179 174//181 209//178 
f 176//177 175//179 208//176 
f 119//175 176//177 207//174 
f 120//173 119//175 206//172 
f 121//171 120//173 205//170 
f 122//169 121//171 204//168 
f 123//167 122//169 203//166 
f 124//165 123//167 202//164 
f 125//163 124//165 201//162 
f 126//161 125//163 200//160 
f 127//159 126//161 199//158 
f 128//157 127//159 198//156 
f 129//155 128//157 197//154 
f 130//153 129//155 196//152 
f 131//151 130//153 195//150 
f 132//149 131//151 194//148 
f 133//147 132//149 193//146 
f 134//145 133//147 192//144 
f 135//143 134//145 191//142 
f 136//141 135//143 190//140 
f 137//139 136//141 189//138 
f 138//137 137//139 188//136 
f 139//135 138//137 187//134 
f 140//133 139//135 186//132 
f 141//131 140//133 185//130 
f 142//129 141//131 184//128 
f 143//127 142//129 183//126 
f 144//125 143//127 182//124 
f 145//123 144//125 181//122 
f 146//121 145//123 180//120 
f 147//119 146//121 178//118 
o mesh5
f 236//232 178//232 180//232 
f 180//232 181//232 236//232 
f 181//232 182//232 236//232 
f 182//232 183//232 236//232 
f 183//232 184//232 236//232 
f 184//232 185//232 236//232 
f 185//232 186//232 236//232 
f 186//232 187//232 236//232 
f 187//232 188//232 236//232 
f 188//232 189//232 236//232 
f 189//232 190//232 236//232 
f 190//232 191//232 236//232 
f 191//232 192//232 236//232 
f 192//232 193//232 236//232 
f 193//232 194//232 236//232 
f 194//232 195//232 236//232 
f 195//232 196//232 236//232 
f 196//232 197//232 236//232 
f 197//232 198//232 236//232 
f 198//232 199//232 236//232 
f 199//232 200//232 236//232 
f 200//232 201//232 236//232 
f 201//232 202//232 236//232 
f 202//232 203//232 236//232 
f 203//232 204//232 236//232 
f 204//232 205//232 236//232 
f 205//232 206//232 236//232 
f 206//232 207//232 236//232 
f 207//232 208//232 236//232 
f 208//232 209//232 236//232 
f 209//232 210//232 236//232 
f 210//232 211//232 236//232 
f 211//232 212//232 236//232 
f 212//232 213//232 236//232 
f 213//232 214//232 236//232 
f 214//232 215//232 236//232 
f 215//232 216//232 236//232 
f 216//232 217//232 236//232 
f 217//232 218//232 236//232 
f 218//232 219//232 236//232 
f 219//232 220//232 236//232 
f 220//232 221//232 236//232 
f 221//232 222//232 236//232 
f 222//232 223//232 236//232 
f 223//232 224//232 236//232 
f 224//232 225//232 236//232 
f 225//232 226//232 236//232 
f 226//232 227//232 236//232 
f 227//232 228//232 236//232 
f 228//232 229//232 236//232 
f 229//232 230//232 236//232 
f 230//232 231//232 236//232 
f 231//232 232//232 236//232 
f 232//232 233//232 236//232 
f 233//232 234//232 236//232 
f 234//232 235//232 236//232 
f 235//232 179//232 236//232 
f 179//232 178//232 236//232 
o mesh6
f 295//233 237//233 238//233 
f 238//233 239//233 295//233 
f 239//233 240//233 295//233 
f 240//233 241//233 295//233 
f 241//233 242//233 295//233 
f 242//233 243//233 295//233 
f 243//233 244//233 295//233 
f 244//233 245//233 295//233 
f 245//233 246//233 295//233 
f 246//233 247//233 295//233 
f 247//233 248//233 295//233 
f 248//233 249//233 295//233 
f 249//233 250//233 295//233 
f 250//233 251//233 295//233 
f 251//233 252//233 295//233 
f 252//233 253//233 295//233 
f 253//233 254//233 295//233 
f 254//233 255//233 295//233 
f 255//233 256//233 295//233 
f 256//233 257//233 295//233 
f 257//233 258//233 295//233 
f 258//233 259//233 295//233 
f 259//233 260//233 295//233 
f 260//233 261//233 295//233 
f 261//233 262//233 295//233 
f 262//233 263//233 295//233 
f 263//233 264//233 295//233 
f 264//233 265//233 295//233 
f 265//233 266//233 295//233 
f 266//233 267//233 295//233 
f 267//233 268//233 295//233 
f 268//233 269//233 295//233 
f 269//233 270//233 295//233 
f 270//233 271//233 295//233 
f 271//233 272//233 295//233 
f 272//233 273//233 295//233 
f 273//233 274//233 295//233 
f 274//233 275//233 295//233 
f 275//233 276//233 295//233 
f 276//233 277//233 295//233 
f 277//233 278//233 295//233 
f 278//233 279//233 295//233 
f 279//233 280//233 295//233 
f 280//233 281//233 295//233 
f 281//233 282//233 295//233 
f 282//233 283//233 295//233 
f 283//233 284//233 295//233 
f 284//233 285//233 295//233 
f 285//233 286//233 295//233 
f 286//233 287//233 295//233 
f 287//233 288//233 295//233 
f 288//233 289//233 295//233 
f 289//233 290//233 295//233 
f 290//233 291//233 295//233 
f 291//233 292//233 295//233 
f 292//233 293//233 295//233 
f 293//233 294//233 295//233 
f 294//233 237//233 295//233 
o mesh7
f 296//234 297//235 265//235 
f 298//236 296//234 264//237 
f 299//238 298//236 263//239 
f 300//240 299//238 262//241 
f 301//242 300//240 261//243 
f 302//244 301//242 260//245 
f 303//246 302//244 259//247 
f 304//248 303//246 258//249 
f 305//250 304//248 257//251 
f 306//252 305//250 256//253 
f 307//254 306//252 255//255 
f 308//256 307//254 254//257 
f 309//258 308//256 253//259 
f 310//260 309//258 252//261 
f 311//262 310//260 251//263 
f 312//264 311//262 250//265 
f 313//266 312//264 249//267 
f 314//268 313//266 248//269 
f 315//270 314//268 247//271 
f 316//272 315//270 246//273 
f 317//274 316//272 245//275 
f 318//276 317//274 244//277 
f 319//278 318//276 243//279 
f 320//280 319//278 242//281 
f 321//282 320//280 241//283 
f 322//284 321//282 240//285 
f 323//286 322//284 239//287 
f 324//288 323//286 238//289 
f 325//290 324//288 237//291 
f 326//292 325//290 294//293 
f 327//294 326//292 293//295 
f 328//296 327//294 292//297 
f 329//298 328//296 291//299 
f 330//300 329//298 290//301 
f 331//302 330//300 289//303 
f 332//304 331//302 288//305 
f 333//306 332//304 287//307 
f 334//308 333//306 286//309 
f 335//310 334//308 285//311 
f 336//312 335//310 284//313 
f 337//314 336//312 283//315 
f 338//316 337//314 282//317 
f 339//318 338//316 281//319 
f 340//320 339//318 280//321 
f 341//322 340//320 279//323 
f 342//324 341//322 278//325 
f 343//326 342//324 277//327 
f 344//328 343//326 276//329 
f 345//330 344//328 275//331 
f 346//332 345//330 274//333 
f 347//334 346//332 273//335 
f 348//336 347//334 272//337 
f 349//338 348//336 271//339 
f 350//340 349//338 270//341 
f 351//342 350//340 269//343 
f 352//344 351//342 268//345 
f 353//346 352//344 267//347 
f 297//235 353//346 266//346 
f 266//346 265//235 297//235 
f 267//347 266//346 353//346 
f 268//345 267//347 352//344 
f 269//343 268//345 351//342 
f 270//341 269//343 350//340 
f 271//339 270//341 349//338 
f 272//337 271//339 348//336 
f 273//335 272//337 347//334 
f 274//333 273//335 346//332 
f 275//331 274//333 345//330 
f 276//329 275//331 344//328 
f 277//327 276//329 343//326 
f 278//325 277//327 342//324 
f 279//323 278//325 341//322 
f 280//321 279//323 340//320 
f 281//319 280//321 339//318 
f 282//317 281//319 338//316 
f 283//315 282//317 337//314 
f 284//313 283//315 336//312 
f 285//311 284//313 335//310 
f 286//309 285//311 334//308 
f 287//307 286//309 333//306 
f 288//305 287//307 332//304 
f 289//303 288//305 331//302 
f 290//301 289//303 330//300 
f 291//299 290//301 329//298 
f 292//297 291//299 328//296 
f 293//295 292//297 327//294 
f 294//293 293//295 326//292 
f 237//291 294//293 325//290 
f 238//289 237//291 324//288 
f 239//287 238//289 323//286 
f 240//285 239//287 322//284 
f 241//283 240//285 321//282 
f 242//281 241//283 320//280 
f 243//279 242//281 319//278 
f 244//277 243//279 318//276 
f 245//275 244//277 317//274 
f 246//273 245//275 316//272 
f 247//271 246//273 315//270 
f 248//269 247//271 314//268 
f 249//267 248//269 313//266 
f 250//265 249//267 312//264 
f 251//263 250//265 311//262 
f 252//261 251//263 310//260 
f 253//259 252//261 309//258 
f 254//257 253//259 308//256 
f 255//255 254//257 307//254 
f 256//253 255//255 306//252 
f 257//251 256//253 305//250 
f 258//249 257//251 304//248 
f 259//247 258//249 303//246 
f 260//245 259//247 302//244 
f 261//243 260//245 301//242 
f 262//241 261//243 300//240 
f 263//239 262//241 299//238 
f 264//237 263//239 298//236 
f 265//235 264//237 296//234 
o mesh8
f 354//348 296//348 298//348 
f 298//348 299//348 354//348 
f 299//348 300//348 354//348 
f 300//348 301//348 354//348 
f 301//348 302//348 354//348 
f 302//348 303//348 354//348 
f 303//348 304//348 354//348 
f 304//348 305//348 354//348 
f 305//348 306//348 354//348 
f 306//348 307//348 354//348 
f 307//348 308//348 354//348 
f 308//348 309//348 354//348 
f 309//348 310//348 354//348 
f 310//348 311//348 354//348 
f 311//348 312//348 354//348 
f 312//348 313//348 354//348 
f 313//348 314//348 354//348 
f 314//348 315//348 354//348 
f 315//348 316//348 354//348 
f 316//348 317//348 354//348 
f 317//348 318//348 354//348 
f 318//348 319//348 354//348 
f 319//348 320//348 354//348 
f 320//348 321//348 354//348 
f 321//348 322//348 354//348 
f 322//348 323//348 354//348 
f 323//348 324//348 354//348 
f 324//348 325//348 354//348 
f 325//348 326//348 354//348 
f 326//348 327//348 354//348 
f 327//348 328//348 354//348 
f 328//348 329//348 354//348 
f 329//348 330//348 354//348 
f 330//348 331//348 354//348 
f 331//348 332//348 354//348 
f 332//348 333//348 354//348 
f 333//348 334//348 354//348 
f 334//348 335//348 354//348 
f 335//348 336//348 354//348 
f 336//348 337//348 354//348 
f 337//348 338//348 354//348 
f 338//348 339//348 354//348 
f 339//348 340//348 354//348 
f 340//348 341//348 354//348 
f 341//348 342//348 354//348 
f 342//348 343//348 354//348 
f 343//348 344//348 354//348 
f 344//348 345//348 354//348 
f 345//348 346//348 354//348 
f 346//348 347//348 354//348 
f 347//348 348//348 354//348 
f 348//348 349//348 354//348 
f 349//348 350//348 354//348 
f 350//348 351//348 354//348 
f 351//348 352//348 354//348 
f 352//348 353//348 354//348 
f 353//348 297//348 354//348 
f 297//348 296//348 354//348 
o mesh9
f 413//349 355//349 356//349 
f 356//349 357//349 413//349 
f 357//349 358//349 413//349 
f 358//349 359//349 413//349 
f 359//349 360//349 413//349 
f 360//349 361//349 413//349 
f 361//349 362//349 413//349 
f 362//349 363//349 413//349 
f 363//349 364//349 413//349 
f 364//349 365//349 413//349 
f 365//349 366//349 413//349 
f 366//349 367//349 413//349 
f 367//349 368//349 413//349 
f 368//349 369//349 413//349 
f 369//349 370//349 413//349 
f 370//349 371//349 413//349 
f 371//349 372//349 413//349 
f 372//349 373//349 413//349 
f 373//349 374//349 413//349 
f 374//349 375//349 413//349 
f 375//349 376//349 413//349 
f 376//349 377//349 413//349 
f 377//349 378//349 413//349 
f 378//349 379//349 413//349 
f 379//349 380//349 413//349 
f 380//349 381//349 413//349 
f 381//349 382//349 413//349 
f 382//349 383//349 413//349 
f 383//349 384//349 413//349 
f 384//349 385//349 413//349 
f 385//349 386//349 413//349 
f 386//349 387//349 413//349 
f 387//349 388//349 413//349 
f 388//349 389//349 413//349 
f 389//349 390//349 413//349 
f 390//349 391//349 413//349 
f 391//349 392//349 413//349 
f 392//349 393//349 413//349 
f 393//349 394//349 413//349 
f 394//349 395//349 413//349 
f 395//349 396//349 413//349 
f 396//349 397//349 413//349 
f 397//349 398//349 413//349 
f 398//349 399//349 413//349 
f 399//349 400//349 413//349 
f 400//349 401//349 413//349 
f 401//349 402//349 413//349 
f 402//349 403//349 413//349 
f 403//349 404//349 413//349 
f 404//349 405//349 413//349 
f 405//349 406//349 413//349 
f 406//349 407//349 413//349 
f 407//349 408//349 413//349 
f 408//349 409//349 413//349 
f 409//349 410//349 413//349 
f 410//349 411//349 413//349 
f 411//349 412//349 413//349 
f 412//349 355//349 413//349 
o mesh10
f 414//350 415//351 383//351 
f 416//352 414//350 382//353 
f 417//354 416//352 381//355 
f 418//356 417//354 380//357 
f 419//358 418//356 379//359 
f 420//360 419//358 378//361 
f 421//362 420//360 377//363 
f 422//364 421//362 376//365 
f 423//366 422//364 375//367 
f 424//368 423//366 374//369 
f 425//370 424//368 373//371 
f 426//372 425//370 372//373 
f 427//374 426//372 371//375 
f 428//376 427//374 370//377 
f 429//378 428//376 369//379 
f 430//380 429//378 368//381 
f 431//382 430//380 367//383 
f 432//384 431//382 366//385 
f 433//386 432//384 365//387 
f 434//388 433//386 364//389 
f 435//390 434//388 363//391 
f 436//392 435//390 362//393 
f 437//394 436//392 361//395 
f 438//396 437//394 360//397 
f 439//398 438//396 359//399 
f 440//400 439//398 358//401 
f 441//402 440//400 357//403 
f 442//404 441//402 356//405 
f 443//406 442//404 355//407 
f 444//408 443//406 412//409 
f 445//410 444//408 411//411 
f 446//412 445//410 410//413 
f 447//414 446//412 409//415 
f 448//416 447//414 408//417 
f 449//418 448//416 407//419 
f 450//420 449//418 406//421 
f 451//422 450//420 405//423 
f 452//424 451//422 404//425 
f 453//426 452//424 403//427 
f 454//428 453//426 402//429 
f 455//430 454//428 401//431 
f 456//432 455//430 400//433 
f 457//434 456//432 399//435 
f 458//436 457//434 398//437 
f 459//438 458//436 397//439 
f 460//440 459//438 396//441 
f 461//442 460//440 395//443 
f 462//444 461//442 394//445 
f 463//446 462//444 393//447 
f 464//448 463//446 392//449 
f 465//450 464//448 391//451 
f 466//452 465//450 390//453 
f 467//454 466//452 389//455 
f 468//456 467//454 388//457 
f 469//458 468//456 387//459 
f 470//460 469//458 386//461 
f 471//462 470//460 385//463 
f 415//351 471//462 384//462 
f 384//462 383//351 415//351 
f 385//463 384//462 471//462 
f 386//461 385//463 470//460 
f 387//459 386//461 469//458 
f 388//457 387//459 468//456 
f 389//455 388//457 467//454 
f 390//453 389//455 466//452 
f 391//451 390//453 465//450 
f 392//449 391//451 464//448 
f 393//447 392//449 463//446 
f 394//445 393//447 462//444 
f 395//443 394//445 461//442 
f 396//441 395//443 460//440 
f 397//439 396//441 459//438 
f 398//437 397//439 458//436 
f 399//435 398//437 457//434 
f 400//433 399//435 456//432 
f 401//431 400//433 455//430 
f 402//429 401//431 454//428 
f 403//427 402//429 453//426 
f 404//425 403//427 452//424 
f 405//423 404//425 451//422 
f 406//421 405//423 450//420 
f 407//419 406//421 449//418 
f 408//417 407//419 448//416 
f 409//415 408//417 447//414 
f 410//413 409//415 446//412 
f 411//411 410//413 445//410 
f 412//409 411//411 444//408 
f 355//407 412//409 443//406 
f 356//405 355//407 442//404 
f 357//403 356//405 441//402 
f 358//401 357//403 440//400 
f 359//399 358//401 439//398 
f 360//397 359//399 438//396 
f 361//395 360//397 437//394 
f 362//393 361//395 436//392 
f 363//391 362//393 435//390 
f 364//389 363//391 434//388 
f 365//387 364//389 433//386 
f 366//385 365//387 432//384 
f 367//383 366//385 431//382 
f 368//381 367//383 430//380 
f 369//379 368//381 429//378 
f 370//377 369//379 428//376 
f 371//375 370//377 427//374 
f 372//373 371//375 426//372 
f 373//371 372//373 425//370 
f 374//369 373//371 424//368 
f 375//367 374//369 423//366 
f 376//365 375//367 422//364 
f 377//363 376//365 421//362 
f 378//361 377//363 420//360 
f 379//359 378//361 419//358 
f 380//357 379//359 418//356 
f 381//355 380//357 417//354 
f 382//353 381//355 416//352 
f 383//351 382//353 414//350 
o mesh11
f 472//464 414//464 416//464 
f 416//464 417//464 472//464 
f 417//464 418//464 472//464 
f 418//464 419//464 472//464 
f 419//464 420//464 472//464 
f 420//464 421//464 472//464 
f 421//464 422//464 472//464 
f 422//464 423//464 472//464 
f 423//464 424//464 472//464 
f 424//464 425//464 472//464 
f 425//464 426//464 472//464 
f 426//464 427//464 472//464 
f 427//464 428//464 472//464 
f 428//464 429//464 472//464 
f 429//464 430//464 472//464 
f 430//464 431//464 472//464 
f 431//464 432//464 472//464 
f 432//464 433//464 472//464 
f 433//464 434//464 472//464 
f 434//464 435//464 472//464 
f 435//464 436//464 472//464 
f 436//464 437//464 472//464 
f 437//464 438//464 472//464 
f 438//464 439//464 472//464 
f 439//464 440//464 472//464 
f 440//464 441//464 472//464 
f 441//464 442//464 472//464 
f 442//464 443//464 472//464 
f 443//464 444//464 472//464 
f 444//464 445//464 472//464 
f 445//464 446//464 472//464 
f 446//464 447//464 472//464 
f 447//464 448//464 472//464 
f 448//464 449//464 472//464 
f 449//464 450//464 472//464 
f 450//464 451//464 472//464 
f 451//464 452//464 472//464 
f 452//464 453//464 472//464 
f 453//464 454//464 472//464 
f 454//464 455//464 472//464 
f 455//464 456//464 472//464 
f 456//464 457//464 472//464 
f 457//464 458//464 472//464 
f 458//464 459//464 472//464 
f 459//464 460//464 472//464 
f 460//464 461//464 472//464 
f 461//464 462//464 472//464 
f 462//464 463//464 472//464 
f 463//464 464//464 472//464 
f 464//464 465//464 472//464 
f 465//464 466//464 472//464 
f 466//464 467//464 472//464 
f 467//464 468//464 472//464 
f 468//464 469//464 472//464 
f 469//464 470//464 472//464 
f 470//464 471//464 472//464 
f 471//464 415//464 472//464 
f 415//464 414//464 472//464 
o mesh12
f 531//465 473//465 474//465 
f 474//465 475//465 531//465 
f 475//465 476//465 531//465 
f 476//465 477//465 531//465 
f 477//465 478//465 531//465 
f 478//465 479//465 531//465 
f 479//465 480//465 531//465 
f 480//465 481//465 531//465 
f 481//465 482//465 531//465 
f 482//465 483//465 531//465 
f 483//465 484//465 531//465 
f 484//465 485//465 531//465 
f 485//465 486//465 531//465 
f 486//465 487//465 531//465 
f 487//465 488//465 531//465 
f 488//465 489//465 531//465 
f 489//465 490//465 531//465 
f 490//465 491//465 531//465 
f 491//465 492//465 531//465 
f 492//465 493//465 531//465 
f 493//465 494//465 531//465 
f 494//465 495//465 531//465 
f 495//465 496//465 531//465 
f 496//465 497//465 531//465 
f 497//465 498//465 531//465 
f 498//465 499//465 531//465 
f 499//465 500//465 531//465 
f 500//465 501//465 531//465 
f 501//465 502//465 531//465 
f 502//465 503//465 531//465 
f 503//465 504//465 531//465 
f 504//465 505//465 531//465 
f 505//465 506//465 531//465 
f 506//465 507//465 531//465 
f 507//465 508//465 531//465 
f 508//465 509//465 531//465 
f 509//465 510//465 531//465 
f 510//465 511//465 531//465 
f 511//465 512//465 531//465 
f 512//465 513//465 531//465 
f 513//465 514//465 531//465 
f 514//465 515//465 531//465 
f 515//465 516//465 531//465 
f 516//465 517//465 531//465 
f 517//465 518//465 531//465 
f 518//465 519//465 531//465 
f 519//465 520//465 531//465 
f 520//465 521//465 531//465 
f 521//465 522//465 531//465 
f 522//465 523//465 531//465 
f 523//465 524//465 531//465 
f 524//465 525//465 531//465 
f 525//465 526//465 531//465 
f 526//465 527//465 531//465 
f 527//465 528//465 531//465 
f 528//465 529//465 531//465 
f 529//465 530//465 531//465 
f 530//465 473//465 531//465 
o mesh13
f 532//466 533//467 501//467 
f 534//468 532//466 500//469 
f 535//470 534//468 499//471 
f 536//472 535//470 498//473 
f 537//474 536//472 497//475 
f 538//476 537//474 496//477 
f 539//478 538//476 495//479 
f 540//480 539//478 494//481 
f 541//482 540//480 493//483 
f 542//484 541//482 492//485 
f 543//486 542//484 491//487 
f 544//488 543//486 490//489 
f 545//490 544//488 489//491 
f 546//492 545//490 488//493 
f 547//494 546//492 487//495 
f 548//496 547//494 486//497 
f 549//498 548//496 485//499 
f 550//500 549//498 484//501 
f 551//502 550//500 483//503 
f 552//504 551//502 482//505 
f 553//506 552//504 481//507 
f 554//508 553//506 480//509 
f 555//510 554//508 479//511 
f 556//512 555//510 478//513 
f 557//514 556//512 477//515 
f 558//516 557//514 476//517 
f 559//518 558//516 475//519 
f 560//520 559//518 474//521 
f 561//522 560//520 473//523 
f 562//524 561//522 530//525 
f 563//526 562//524 529//527 
f 564//528 563//526 528//529 
f 565//530 564//528 527//531 
f 566//532 565//530 526//533 
f 567//534 566//532 525//535 
f 568//536 567//534 524//537 
f 569//538 568//536 523//539 
f 570//540 569//538 522//541 
f 571//542 570//540 521//543 
f 572//544 571//542 520//545 
f 573//546 572//544 519//547 
f 574//548 573//546 518//549 
f 575//550 574//548 517//551 
f 576//552 575//550 516//553 
f 577//554 576//552 515//555 
f 578//556 577//554 514//557 
f 579//558 578//556 513//559 
f 580//560 579//558 512//561 
f 581//562 580//560 511//563 
f 582//564 581//562 510//565 
f 583//566 582//564 509//567 
f 584//568 583//566 508//569 
f 585//570 584//568 507//571 
f 586//572 585//570 506//573 
f 587//574 586//572 505//575 
f 588//576 587//574 504//577 
f 589//578 588//576 503//579 
f 533//467 589//578 502//578 
f 502//578 501//467 533//467 
f 503//579 502//578 589//578 
f 504//577 503//579 588//576 
f 505//575 504//577 587//574 
f 506//573 505//575 586//572 
f 507//571 506//573 585//570 
f 508//569 507//571 584//568 
f 509//567 508//569 583//566 
f 510//565 509//567 582//564 
f 511//563 510//565 581//562 
f 512//561 511//563 580//560 
f 513//559 512//561 579//558 
f 514//557 513//559 578//556 
f 515//555 514//557 577//554 
f 516//553 515//555 576//552 
f 517//551 516//553 575//550 
f 518//549 517//551 574//548 
f 519//547 518//549 573//546 
f 520//545 519//547 572//544 
f 521//543 520//545 571//542 
f 522//541 521//543 570//540 
f 523//539 522//541 569//538 
f 524//537 523//539 568//536 
f 525//535 524//537 567//534 
f 526//533 525//535 566//532 
f 527//531 526//533 565//530 
f 528//529 527//531 564//528 
f 529//527 528//529 563//526 
f 530//525 529//527 562//524 
f 473//523 530//525 561//522 
f 474//521 473//523 560//520 
f 475//519 474//521 559//518 
f 476//517 475//519 558//516 
f 477//515 476//517 557//514 
f 478//513 477//515 556//512 
f 479//511 478//513 555//510 
f 480//509 479//511 554//508 
f 481//507 480//509 553//506 
f 482//505 481//507 552//504 
f 483//503 482//505 551//502 
f 484//501 483//503 550//500 
f 485//499 484//501 549//498 
f 486//497 485//499 548//496 
f 487//495 486//497 547//494 
f 488//493 487//495 546//492 
f 489//491 488//493 545//490 
f 490//489 489//491 544//488 
f 491//487 490//489 543//486 
f 492//485 491//487 542//484 
f 493//483 492//485 541//482 
f 494//481 493//483 540//480 
f 495//479 494//481 539//478 
f 496//477 495//479 538//476 
f 497//475 496//477 537//474 
f 498//473 497//475 536//472 
f 499//471 498//473 535//470 
f 500//469 499//471 534//468 
f 501//467 500//469 532//466 
o mesh14
f 590//580 532//580 534//580 
f 534//580 535//580 590//580 
f 535//580 536//580 590//580 
f 536//580 537//580 590//580 
f 537//580 538//580 590//580 
f 538//580 539//580 590//580 
f 539//580 540//580 590//580 
f 540//580 541//580 590//580 
f 541//580 542//580 590//580 
f 542//580 543//580 590//580 
f 543//580 544//580 590//580 
f 544//580 545//580 590//580 
f 545//580 546//580 590//580 
f 546//580 547//580 590//580 
f 547//580 548//580 590//580 
f 548//580 549//580 590//580 
f 549//580 550//580 590//580 
f 550//580 551//580 590//580 
f 551//580 552//580 590//580 
f 552//580 553//580 590//580 
f 553//580 554//580 590//580 
f 554//580 555//580 590//580 
f 555//580 556//580 590//580 
f 556//580 557//580 590//580 
f 557//580 558//580 590//580 
f 558//580 559//580 590//580 
f 559//580 560//580 590//580 
f 560//580 561//580 590//580 
f 561//580 562//580 590//580 
f 562//580 563//580 590//580 
f 563//580 564//580 590//580 
f 564//580 565//580 590//580 
f 565//580 566//580 590//580 
f 566//580 567//580 590//580 
f 567//580 568//580 590//580 
f 568//580 569//580 590//580 
f 569//580 570//580 590//580 
f 570//580 571//580 590//580 
f 571//580 572//580 590//580 
f 572//580 573//580 590//580 
f 573//580 574//580 590//580 
f 574//580 575//580 590//580 
f 575//580 576//580 590//580 
f 576//580 577//580 590//580 
f 577//580 578//580 590//580 
f 578//580 579//580 590//580 
f 579//580 580//580 590//580 
f 580//580 581//580 590//580 
f 581//580 582//580 590//580 
f 582//580 583//580 590//580 
f 583//580 584//580 590//580 
f 584//580 585//580 590//580 
f 585//580 586//580 590//580 
f 586//580 587//580 590//580 
f 587//580 588//580 590//580 
f 588//580 589//580 590//580 
f 589//580 533//580 590//580 
f 533//580 532//580 590//580 
o mesh15
f 649//581 591//581 592//581 
f 592//581 593//581 649//581 
f 593//581 594//581 649//581 
f 594//581 595//581 649//581 
f 595//581 596//581 649//581 
f 596//581 597//581 649//581 
f 597//581 598//581 649//581 
f 598//581 599//581 649//581 
f 599//581 600//581 649//581 
f 600//581 601//581 649//581 
f 601//581 602//581 649//581 
f 602//581 603//581 649//581 
f 603//581 604//581 649//581 
f 604//581 605//581 649//581 
f 605//581 606//581 649//581 
f 606//581 607//581 649//581 
f 607//581 608//581 649//581 
f 608//581 609//581 649//581 
f 609//581 610//581 649//581 
f 610//581 611//581 649//581 
f 611//581 612//581 649//581 
f 612//581 613//581 649//581 
f 613//581 614//581 649//581 
f 614//581 615//581 649//581 
f 615//581 616//581 649//581 
f 616//581 617//581 649//581 
f 617//581 618//581 649//581 
f 618//581 619//581 649//581 
f 619//581 620//581 649//581 
f 620//581 621//581 649//581 
f 621//581 622//581 649//581 
f 622//581 623//581 649//581 
f 623//581 624//581 649//581 
f 624//581 625//581 649//581 
f 625//581 626//581 649//581 
f 626//581 627//581 649//581 
f 627//581 628//581 649//581 
f 628//581 629//581 649//581 
f 629//581 630//581 649//581 
f 630//581 631//581 649//581 
f 631//581 632//581 649//581 
f 632//581 633//581 649//581 
f 633//581 634//581 649//581 
f 634//581 635//581 649//581 
f 635//581 636//581 649//581 
f 636//581 637//581 649//581 
f 637//581 638//581 649//581 
f 638//581 639//581 649//581 
f 639//581 640//581 649//581 
f 640//581 641//581 649//581 
f 641//581 642//581 649//581 
f 642//581 643//581 649//581 
f 643//581 644//581 649//581 
f 644//581 645//581 649//581 
f 645//581 646//581 649//581 
f 646//581 647//581 649//581 
f 647//581 648//581 649//581 
f 648//581 591//581 649//581 
o mesh16
f 650//582 651//583 619//583 
f 652//584 650//582 618//585 
f 653//586 652//584 617//587 
f 654//588 653//586 616//589 
f 655//590 654//588 615//591 
f 656//592 655//590 614//593 
f 657//594 656//592 613//595 
f 658//596 657//594 612//597 
f 659//598 658//596 611//599 
f 660//600 659//598 610//601 
f 661//602 660//600 609//603 
f 662//604 661//602 608//605 
f 663//606 662//604 607//607 
f 664//608 663//606 606//609 
f 665//610 664//608 605//611 
f 666//612 665//610 604//613 
f 667//614 666//612 603//615 
f 668//616 667//614 602//617 
f 669//618 668//616 601//619 
f 670//620 669//618 600//621 
f 671//622 670//620 599//623 
f 672//624 671//622 598//625 
f 673//626 672//624 597//627 
f 674//628 673//626 596//629 
f 675//630 674//628 595//631 
f 676//632 675//630 594//633 
f 677//634 676//632 593//635 
f 678//636 677//634 592//637 
f 679//638 678//636 591//639 
f 680//640 679//638 648//641 
f 681//642 680//640 647//643 
f 682//644 681//642 646//645 
f 683//646 682//644 645//647 
f 684//648 683//646 644//649 
f 685//650 684//648 643//651 
f 686//652 685//650 642//653 
f 687//654 686//652 641//655 
f 688//656 687//654 640//657 
f 689//658 688//656 639//659 
f 690//660 689//658 638//661 
f 691//662 690//660 637//663 
f 692//664 691//662 636//665 
f 693//666 692//664 635//667 
f 694//668 693//666 634//669 
f 695//670 694//668 633//671 
f 696//672 695//670 632//673 
f 697//674 696//672 631//675 
f 698//676 697//674 630//677 
f 699//678 698//676 629//679 
f 700//680 699//678 628//681 
f 701//682 700//680 627//683 
f 702//684 701//682 626//685 
f 703//686 702//684 625//687 
f 704//688 703//686 624//689 
f 705//690 704//688 623//691 
f 706//692 705//690 622//693 
f 707//694 706//692 621//695 
f 651//583 707//694 620//694 
f 620//694 619//583 651//583 
f 621//695 620//694 707//694 
f 622//693 621//695 706//692 
f 623//691 622//693 705//690 
f 624//689 623//691 704//688 
f 625//687 624//689 703//686 
f 626//685 625//687 702//684 
f 627//683 626//685 701//682 
f 628//681 627//683 700//680 
f 629//679 628//681 699//678 
f 630//677 629//679 698//676 
f 631//675 630//677 697//674 
f 632//673 631//675 696//672 
f 633//671 632//673 695//670 
f 634//669 633//671 694//668 
f 635//667 634//669 693//666 
f 636//665 635//667 692//664 
f 637//663 636//665 691//662 
f 638//661 637//663 690//660 
f 639//659 638//661 689//658 
f 640//657 639//659 688//656 
f 641//655 640//657 687//654 
f 642//653 641//655 686//652 
f 643//651 642//653 685//650 
f 644//649 643//651 684//648 
f 645//647 644//649 683//646 
f 646//645 645//647 682//644 
f 647//643 646//645 681//642 
f 648//641 647//643 680//640 
f 591//639 648//641 679//638 
f 592//637 591//639 678//636 
f 593//635 592//637 677//634 
f 594//633 593//635 676//632 
f 595//631 594//633 675//630 
f 596//629 595//631 674//628 
f 597//627 596//629 673//626 
f 598//625 597//627 672//624 
f 599//623 598//625 671//622 
f 600//621 599//623 670//620 
f 601//619 600//621 669//618 
f 602//617 601//619 668//616 
f 603//615 602//617 667//614 
f 604//613 603//615 666//612 
f 605//611 604//613 665//610 
f 606//609 605//611 664//608 
f 607//607 606//609 663//606 
f 608//605 607//607 662//604 
f 609//603 608//605 661//602 
f 610//601 609//603 660//600 
f 611//599 610//601 659//598 
f 612//597 611//599 658//596 
f 613//595 612//597 657//594 
f 614//593 613//595 656//592 
f 615//591 614//593 655//590 
f 616//589 615//591 654//588 
f 617//587 616//589 653//586 
f 618//585 617//587 652//584 
f 619//583 618//585 650//582 
o mesh17
f 708//696 650//696 652//696 
f 652//696 653//696 708//696 
f 653//696 654//696 708//696 
f 654//696 655//696 708//696 
f 655//696 656//696 708//696 
f 656//696 657//696 708//696 
f 657//696 658//696 708//696 
f 658//696 659//696 708//696 
f 659//696 660//696 708//696 
f 660//696 661//696 708//696 
f 661//696 662//696 708//696 
f 662//696 663//696 708//696 
f 663//696 664//696 708//696 
f 664//696 665//696 708//696 
f 665//696 666//696 708//696 
f 666//696 667//696 708//696 
f 667//696 668//696 708//696 
f 668//696 669//696 708//696 
f 669//696 670//696 708//696 
f 670//696 671//696 708//696 
f 671//696 672//696 708//696 
f 672//696 673//696 708//696 
f 673//696 674//696 708//696 
f 674//696 675//696 708//696 
f 675//696 676//696 708//696 
f 676//696 677//696 708//696 
f 677//696 678//696 708//696 
f 678//696 679//696 708//696 
f 679//696 680//696 708//696 
f 680//696 681//696 708//696 
f 681//696 682//696 708//696 
f 682//696 683//696 708//696 
f 683//696 684//696 708//696 
f 684//696 685//696 708//696 
f 685//696 686//696 708//696 
f 686//696 687//696 708//696 
f 687//696 688//696 708//696 
f 688//696 689//696 708//696 
f 689//696 690//696 708//696 
f 690//696 691//696 708//696 
f 691//696 692//696 708//696 
f 692//696 693//696 708//696 
f 693//696 694//696 708//696 
f 694//696 695//696 708//696 
f 695//696 696//696 708//696 
f 696//696 697//696 708//696 
f 697//696 698//696 708//696 
f 698//696 699//696 708//696 
f 699//696 700//696 708//696 
f 700//696 701//696 708//696 
f 701//696 702//696 708//696 
f 702//696 703//696 708//696 
f 703//696 704//696 708//696 
f 704//696 705//696 708//696 
f 705//696 706//696 708//696 
f 706//696 707//696 708//696 
f 707//696 651//696 708//696 
f 651//696 650//696 708//696 
o mesh18
f 709//697 710//697 711//697 
f 711//697 712//697 709//697 
o mesh19
f 712//698 711//698 713//698 
f 713//698 714//698 712//698 
o mesh20
f 714//699 713//699 715//699 
f 715//699 716//699 714//699 
o mesh21
f 716//700 715//700 710//700 
f 710//700 709//700 716//700 
o mesh22
f 716//701 709//701 712//701 
f 712//701 714//701 716//701 
o mesh23
f 713//702 711//702 710//702 
f 710//702 715//702 713//702 
